<svg xmlns="http://www.w3.org/2000/svg" viewBox="0 0 120 57"><defs><style>.cls-1{fill:#fff;}</style></defs><g id="レイヤー_2" data-name="レイヤー 2"><g id="レイヤー_3" data-name="レイヤー 3"><rect width="120" height="57"/><path class="cls-1" d="M60.13,28.41c0,9.08-2.4,17.21-11.34,17.21s-11.4-8-11.4-16.88c0-8.74,3.37-15.92,11.53-15.92S60.13,19.33,60.13,28.41ZM44,28.57c0,7.59,1.08,12.1,4.77,12.1,3.93,0,4.72-4.71,4.72-12.12,0-7-1.16-10.79-4.63-10.79S44,21.15,44,28.57Z"/><path class="cls-1" d="M74.69,45.14V20.7a38.6,38.6,0,0,1-4.2.19V16.2a10.31,10.31,0,0,0,6.29-2.93h4.39V45.14Z"/></g></g></svg>