<svg xmlns="http://www.w3.org/2000/svg" viewBox="0 0 120 57"><defs><style>.cls-1{fill:#fff;}</style></defs><g id="レイヤー_2" data-name="レイヤー 2"><g id="レイヤー_3" data-name="レイヤー 3"><rect width="120" height="57"/><path class="cls-1" d="M55.4,28.41c0,9.08-2.39,17.21-11.34,17.21s-11.39-8-11.39-16.88C32.67,20,36,12.82,44.19,12.82S55.4,19.33,55.4,28.41Zm-16.11.16c0,7.59,1.08,12.1,4.78,12.1,3.93,0,4.71-4.71,4.71-12.12,0-7-1.16-10.79-4.63-10.79S39.29,21.15,39.29,28.57Z"/><path class="cls-1" d="M66.25,45.14V44.9c0-4.32,1.39-9.34,9.62-15.64,3.87-3,5.26-4.39,5.26-7.15,0-2.57-1.38-4.26-4-4.26-3,0-4.28,2-4.56,5.21H66.3c.21-5.36,3.35-10.24,11-10.24,6.89,0,10.46,4.12,10.46,9.27,0,4.12-1.6,6.62-7.41,10.83-3.1,2.27-5.44,4.63-6.25,6.84H88.6l-.8,5.38Z"/></g></g></svg>