<svg xmlns="http://www.w3.org/2000/svg" viewBox="0 0 120 57"><defs><style>.cls-1{fill:#fff;}</style></defs><g id="レイヤー_2" data-name="レイヤー 2"><g id="レイヤー_3" data-name="レイヤー 3"><rect width="120" height="57"/><path class="cls-1" d="M54.85,28.41c0,9.08-2.39,17.21-11.34,17.21s-11.39-8-11.39-16.88c0-8.74,3.36-15.92,11.51-15.92S54.85,19.33,54.85,28.41Zm-16.11.16c0,7.59,1.08,12.1,4.77,12.1,3.93,0,4.72-4.71,4.72-12.12,0-7-1.16-10.79-4.63-10.79S38.74,21.15,38.74,28.57Z"/><path class="cls-1" d="M66.1,22c.45-4.48,3.18-9.17,10.63-9.17S87.07,17,87.07,21.3a6.62,6.62,0,0,1-4.2,6.36v.1a7.74,7.74,0,0,1,5.5,7.91c0,4.72-3.12,9.94-11.68,9.94-7.58,0-10.85-4.32-11.2-9.25h6.36c.43,2.32,1.75,4.22,5.11,4.22s4.78-1.89,4.78-4.85c0-3.46-1.92-4.92-5.57-4.92H73.74V25.67h2c3.31,0,4.87-.92,4.87-3.91,0-2.57-1.36-4-4.08-4S72.41,19.25,72.06,22Z"/></g></g></svg>