<svg xmlns="http://www.w3.org/2000/svg" viewBox="0 0 80 38"><defs><style>.cls-1{fill:#fff;}</style></defs><g id="レイヤー_2" data-name="レイヤー 2"><g id="レイヤー_3" data-name="レイヤー 3"><rect width="80" height="38"/><path class="cls-1" d="M20.72,30.09V13.8a24.88,24.88,0,0,1-2.8.13V10.8a6.83,6.83,0,0,0,4.19-2H25V30.09Z"/><path class="cls-1" d="M37.28,25a2.54,2.54,0,0,0,2.84,2.23c1.54,0,2.35-.58,2.35-1.65s-.95-1.51-3.46-2.22c-4.41-1.24-5.44-2.79-5.44-5.14,0-2.09,1.31-5,6.3-5,4.4,0,6.25,2.25,6.44,5H42.08a2.11,2.11,0,0,0-2.42-1.88c-1.17,0-1.85.5-1.85,1.45s.66,1.31,3,1.91c4.52,1.17,5.88,2.81,5.88,5.46,0,3.39-2.84,5.2-6.74,5.2-4.06,0-6.62-1.81-7-5.38Z"/><path class="cls-1" d="M52.55,13.53h2.33V9h4.33v4.5h2.95V16.9H59.21v8.51c0,1.13.27,1.61,1.62,1.61a5.12,5.12,0,0,0,1-.08v3a10,10,0,0,1-2.66.31c-3.2,0-4.28-1.29-4.28-4.37v-9H52.55Z"/></g></g></svg>