<svg xmlns="http://www.w3.org/2000/svg" viewBox="0 0 80 38"><defs><style>.cls-1{fill:#fff;}</style></defs><g id="レイヤー_2" data-name="レイヤー 2"><g id="レイヤー_3" data-name="レイヤー 3"><rect width="80" height="38"/><path class="cls-1" d="M9.56,30.09v-.16c0-2.87.93-6.23,6.41-10.42,2.58-2,3.51-2.93,3.51-4.77a2.54,2.54,0,0,0-2.7-2.84c-2,0-2.85,1.33-3,3.48H9.59c.14-3.58,2.24-6.83,7.33-6.83,4.6,0,7,2.75,7,6.18,0,2.74-1.07,4.41-4.94,7.22-2.07,1.51-3.63,3.08-4.17,4.56h9.67l-.54,3.58Z"/><path class="cls-1" d="M31.89,18.69c0-3.41,0-4.43-.06-5.16h4.23a15.85,15.85,0,0,1,.15,2.14,5,5,0,0,1,4.61-2.46c3.48,0,5.24,2.22,5.24,6V30.09H41.7v-10c0-1.87-.46-3.28-2.52-3.28S36.24,18,36.24,20.85v9.24H31.89Z"/><path class="cls-1" d="M69.26,6.82V25.47c0,1.94,0,3.65.07,4.62H65.09a19.08,19.08,0,0,1-.15-2c-.78,1.45-2,2.28-4.65,2.28-4.22,0-6.4-3.45-6.4-8.57s2.66-8.63,7.13-8.63c2.47,0,3.53.84,3.89,1.51V6.82ZM58.33,21.69c0,3.1,1.05,5.19,3.4,5.19,2.84,0,3.39-1.92,3.39-5.16,0-3.54-.71-5-3.26-5C59.72,16.76,58.33,18.39,58.33,21.69Z"/></g></g></svg>