<svg xmlns="http://www.w3.org/2000/svg" viewBox="0 0 80 38"><defs><style>.cls-1{fill:#fff;}</style></defs><g id="レイヤー_2" data-name="レイヤー 2"><g id="レイヤー_3" data-name="レイヤー 3"><rect width="80" height="38"/><path class="cls-1" d="M12.67,14.67c.31-3,2.12-6.12,7.09-6.12s6.89,2.75,6.89,5.65a4.42,4.42,0,0,1-2.8,4.24v.07a5.17,5.17,0,0,1,3.67,5.27c0,3.14-2.08,6.63-7.78,6.63-5.06,0-7.24-2.88-7.47-6.17h4.24a3.11,3.11,0,0,0,3.41,2.82c2.19,0,3.18-1.27,3.18-3.24,0-2.3-1.28-3.28-3.71-3.28H17.77V17.12h1.31c2.21,0,3.25-.62,3.25-2.61a2.41,2.41,0,0,0-2.72-2.67c-1.83,0-2.73,1-3,2.83Z"/><path class="cls-1" d="M35.47,19.14c0-2.72,0-4.47-.06-5.61h4.24a29,29,0,0,1,.11,2.9,5.1,5.1,0,0,1,5-3.17v4.4c-3.41-.05-5,1.1-5,4.9v7.53H35.47Z"/><path class="cls-1" d="M66.42,6.82V25.47c0,1.94,0,3.65.06,4.62H62.24c-.05-.44-.14-1.42-.14-2-.79,1.45-2,2.28-4.65,2.28C53.23,30.41,51,27,51,21.84s2.67-8.63,7.13-8.63c2.47,0,3.53.84,3.9,1.51V6.82ZM55.49,21.69c0,3.1,1,5.19,3.39,5.19,2.84,0,3.39-1.92,3.39-5.16,0-3.54-.71-5-3.25-5C56.87,16.76,55.49,18.39,55.49,21.69Z"/></g></g></svg>