<svg xmlns="http://www.w3.org/2000/svg" viewBox="0 0 80 38"><defs><style>.cls-1{fill:#fff;}</style></defs><g id="レイヤー_2" data-name="レイヤー 2"><g id="レイヤー_3" data-name="レイヤー 3"><rect width="80" height="38"/><path class="cls-1" d="M22.71,30.09V25.21H13.39V21.39l8-12.58H26.7V21.69H29l-.39,3.52H26.7v4.88Zm0-13c0-2.41,0-3.58.09-5-1.13,2.28-4,6.92-5.49,9.64h5.4Z"/><path class="cls-1" d="M34.36,13.53h2.33V9H41v4.5H44V16.9H41v8.51c0,1.13.27,1.61,1.62,1.61a5.12,5.12,0,0,0,1-.08v3a10,10,0,0,1-2.67.31c-3.19,0-4.27-1.29-4.27-4.37v-9H34.36Z"/><path class="cls-1" d="M55.76,6.82v8.7a4.9,4.9,0,0,1,4.6-2.31c3,0,5.22,1.63,5.22,6V30.09h-4.3V19.87c0-1.79-.57-3.08-2.6-3.08s-2.92,1.42-2.92,4.08v9.22H51.41V6.82Z"/></g></g></svg>