<svg xmlns="http://www.w3.org/2000/svg" viewBox="0 0 347.43 789.28"><defs><style>.cls-1{fill:#fffc19;}.cls-2{fill:#c02929;}.cls-3{fill:#48a2db;}.cls-4{fill:#fff;}.cls-5{fill:#464948;}.cls-6{fill:#040000;}.cls-7{fill:#d3d4d1;}</style></defs><g id="レイヤー_2" data-name="レイヤー 2"><g id="レイヤー_4" data-name="レイヤー 4"><path class="cls-1" d="M209.82,452.57l-29.71,15.3-9.34-3.56L185,393.44s-20.82-1.21-27.86-19A35.63,35.63,0,0,1,152,356.91c0-9.77.28-84.49.28-84.49l-.46-96.06s5.19-19.62,13.84-25.1,21.37-9.95,30.38-6.63,6,1.87,6,1.87l18.14-70.07s34.57,4.08,45.72.73l17.63,67.32s15.81,3.92,22.07,13.56,7.5,26.44,7.21,26.63,0,65.83,0,65.83V353.61s1.89,13.73-3.93,19.49-12.74,14.26-12.74,14.26l2.06,17.9,14.29,60.15-11.11,4.33-33-16.45S236.21,460.36,209.82,452.57Z"/><path class="cls-2" d="M209.82,452.57l-.69-66.35,9.42-8.34s42.33,2.62,49.11,0l.72,76.27S222.94,460.07,209.82,452.57Z"/><path class="cls-2" d="M220,77.16s26.1,4.78,45.91-1.6L251.94,25.29s-.38-8.86-8.87-8.17a10.35,10.35,0,0,0-9.74,8.17Z"/><path class="cls-2" d="M271.74,210.64c0,6.06-3.21,11-7.16,11s-7.17-4.91-7.17-11,3.21-11,7.17-11S271.74,204.58,271.74,210.64Z"/><path class="cls-2" d="M271.74,336.73c0,6.06-3.21,11-7.16,11s-7.17-4.92-7.17-11,3.21-11,7.17-11S271.74,330.68,271.74,336.73Z"/><path class="cls-3" d="M157.39,160.64s-18.61.12-26.83,8.39-13.41,17.3-20.12,31S83.18,256.5,83.18,256.5,68.68,237.44,55.05,237s-15.58-2.67-20.34,9.05-5.93,31.63-5.93,31.63S39.92,280.5,42.84,284s26.71,27.26,26.71,27.26,9.79,9.66,20.55,4,21.77-22.71,21.77-22.71l1.6-3.79L115.31,317a9.08,9.08,0,0,0,9,6.66c7.46.11,27.15-2.12,27.15-2.12l1-55.75s-1.19-82.65.22-89.14S157.39,160.64,157.39,160.64Z"/><path class="cls-3" d="M116.5,338.48l-9,43.56s-3,1.82-2,6.2a30.49,30.49,0,0,1,.83,6.93L95.58,442s-3.6,7.07-1.15,10.53,17.45,7.07,17.45,7.07L169,462.47l4.9-15.23L185,393.44s-21.67-7.07-26.56-16.3-6.61-21.35-6.61-21.35l.28-17.31S126,344,116.5,338.48Z"/><path class="cls-3" d="M192.08,461.66s27.4-1.64,33.75-5.58l-16-3.51Z"/><path class="cls-4" d="M256.94,78.88s20.67,91.28,19.81,97.62.86,175.11.86,179.15v14.48l12.78-2.37V171.31l-24.5-94.15Z"/><path class="cls-4" d="M285.45,145s-2.89,7.59.41,8.85S305.59,163,305.3,178s.17,179.12.09,183.73-4.12,16.9,0,15.06,6.31-14.16,7.74-21.11,0-174.28,0-174.28S313.77,154.54,285.45,145Z"/><path class="cls-4" d="M303.19,469s-13.75-73.3-14.76-83.1-3-14.76-1.3-16.32,3,2.47,3,2.47l22.42,93.32Z"/><path class="cls-4" d="M165.68,151.26s-10.37,13.77-2.88,9.38c8.07-4.74,44-13.42,46,15.14s0,184.53,0,184.53-.61,28.07-25.47,32.54c0,0,38.31-.71,40.9-34.46V178s-2.87-22.49-18.56-29.54S173.73,144.17,165.68,151.26Z"/><path class="cls-4" d="M220,99.6l-8.29,37.58s-1.14,5,.27,5.47c2,.65,3.3-5.31,3.3-5.31l8.12-37.74s.92-3.76-.6-4.33C221,94.6,220,99.6,220,99.6Z"/><path class="cls-4" d="M256.94,77.68s-9.91-46.86-10.34-50,2.69-7.2,5.17-3.6,14.12,51.51,14.12,51.51S261.37,78.39,256.94,77.68Z"/><path class="cls-4" d="M231.3,68.61c-.49,2.47-1.65,4.32-2.59,4.13s-1.3-2.34-.81-4.8,1.65-4.32,2.59-4.13S231.79,66.15,231.3,68.61Z"/><path class="cls-4" d="M195.65,394.67s4.79-1.3,4.58,2.41S189.05,443,185,447.53Z"/><path class="cls-5" d="M109.27,459s6.94,60.11,7.08,68.76,1.3,68.95.87,76,3.32,55.39,4.18,61.45S123,729.65,123,729.65s11.68,26.11,26.83,27.84,23.65.76,25.38-2.36,2.5-15.24,2.5-15.24-4.95-68.65-4.52-79.33S179.24,584,179.24,584l9.95-55.53,8.22-27.69s7.72,48,8.51,54,.58,12.37,0,11.21.52,33.61.52,33.61,7.71,56,8,66.21.15,47-2.59,57.4-2.45,20.63.43,23.51,17.6,19.48,38.22,10.24c0,0,15.05-4.91,13.42-24.8l.12-76.88,2.76-63.18L270,521.66l3.46-65.29-6.19-2.84c.13.05-40.26,2.22-40.26,2.22s-11.39,4-19.9,4.76-15,1.15-15,1.15-11.83,5.19-12.26,5.19S169,462.47,169,462.47Z"/><path class="cls-6" d="M122.12,730.23l-5.77,3s-21.63-11.56-34.76-9.83-24.09,4.91-22.5,13.85,4.18,13.27,10.53,16,23.37,11.11,32.6,12.84,17.59,3.6,20.77,5.77,12.26,12.11,20.34,13.84,18.78-.17,24.73-2.32a13.59,13.59,0,0,0,8-7.92c.14-.43-1.34-17.65-.79-18.12s-4.26-.63-4.26-.63-17.6,4.13-24.81-1.47S124.57,736.58,122.12,730.23Z"/><path class="cls-6" d="M212.27,746.67s-.14,15.73,2.31,20.92,5,11.83,14,11.83,23.15-4.34,27-9.52,2.6-8.15,2.6-8.76-1.7-7.86-1.7-7.86-8.69,6.81-16.62,5.8S218.33,757.35,212.27,746.67Z"/><path class="cls-6" d="M176.21,22.63s-4.12.07-3-6.95,8.58-13.2,17.88-13.63,20.55,0,20.55,0,10,1.3,14.07,3.89,14.49,11.14,14.49,11.14-5.79,3.8-7.33,9.8l-12,46.6-6.09,23.57-6,21.91a16.1,16.1,0,0,1-8.46-7.7,70,70,0,0,1-4.45-10.09s19-5,17.31-12.79-10.34-3.25-10.34-3.25l-3.47.75s-2.58-2.11-1.55-7.86,8-11.18,7.35-17.61-2-11.92-10.21-17.69-12.43-10.94-12.5-17.43,1.8-7.23,1.8-7.23Z"/><polygon class="cls-6" points="270.55 545.77 329.13 568.75 329.29 467.73 312.52 459.03 312.52 465.41 301.41 469.74 273.43 456.37 269.1 540.79 270.55 545.77"/><polygon class="cls-5" points="330.47 568.75 344.66 559.8 346.05 457.12 307.32 442.33 310.76 458 329.29 466.78 330.47 568.75"/><path class="cls-2" d="M151.44,321.54s-25.67,5.78-34.42,0c0,0-7.23,11.53-.52,16.94,0,0,20.84,6.71,35.62,0Z"/><path class="cls-2" d="M145.18,160.64s-.55-3.07,8.53-5.84a106.66,106.66,0,0,0,14.93-5.7l-11.25,11.54Z"/><path class="cls-2" d="M203.47,141l-2.81,4.46-7.25-1.52S197.62,139.45,203.47,141Z"/><path class="cls-7" d="M161.79,152s6.2-13.67,20.7-18.64a160,160,0,0,1,24.16-6.52l-2.79,12.58-16.13,4.09s-10.27,1.11-14.68,3.34-8.72,4.14-8.72,4.14Z"/><path class="cls-7" d="M53.51,237,44,227.06s-15.76-1.3-20.56,9.89-3,17.8-3,17.8,9.44,12.11,9.53,11.47.69-16.57,6.29-23.65S47,233.86,53.51,237Z"/><path class="cls-4" d="M19.46,254.32c.11.43-14.93-4.54-15.58-10.71s1.19-5.19,0-8.65a18.92,18.92,0,0,1-1.4-8.87c.21-3.79-2.71-7.9-.65-12.45s4.33-5.4,4.33-7.46-1.52-12.44,4.65-12.66,17,.54,17,.54a58,58,0,0,1,0-10.92c.63-4.55,5.12-13.26,11.77-12S45.05,175,45.05,175s-6.33,10.84-5.9,17.33,5.37,18.39,6,23.37a45.67,45.67,0,0,1,0,9.93s-8.49-1.49-12.54,2.08-7.5,4.43-9.88,12.55A114,114,0,0,0,19.46,254.32Z"/><path class="cls-4" d="M207.35,126l-31,9.47L167.23,119s-11.21,1.76-15.39-3.32-3.75-8-4.19-11.33-2.47-7.12-2.37-8-3.79-3.49-2.82-7.17S145,79.94,145,79.94s-11.77-3.87-9.09-9.52,10.28-8,10.28-8,10.27-9.13,11.9-16,7.54-13.43,11.9-17.7,12.26-9.42,12.26-9.42S182,28.55,186,33.1s15.36,13.3,16.77,19.36,3.13,9.41-1,18.71-2.38,15.47-2.38,15.47,9.09-4.31,11.13-2.25,5.68,5,1.22,8.75-14.94,8.22-14.94,8.22,0,9.37,5,13a53.44,53.44,0,0,0,7.07,4.62Z"/><path class="cls-6" d="M187.74,391.25c-17.89,0-32.7-14.36-34.07-32-.23-3-.07-6.06-.07-9.06v-160c0-17.35,2.69-34.64,21.3-42.23a34.7,34.7,0,0,1,42.91,15.19c3.52,6.34,4.28,13.18,4.28,20.24V345.62c0,3.81.11,7.64,0,11.44-.58,19.21-15.25,33.58-34.35,34.19-2.12.07-2,3.49.2,3.42,22.95-.74,37.39-18.83,37.49-40.84.06-15.7,0-31.39,0-47.08V184.51c0-19.47-9.54-37.8-30.3-41.81-23.92-4.62-44.51,14.28-44.87,37.88-.58,37.26,0,74.58,0,111.85v59.43c0,7.36.35,14.43,3.59,21.28a37.84,37.84,0,0,0,34.09,21.53C190.06,394.67,189.94,391.25,187.74,391.25Z"/><path class="cls-6" d="M283.19,146a34.94,34.94,0,0,1,28,33.8c.06,2.34,0,4.7,0,7V340.7c0,18,.51,35.18-17.46,46.19a1.68,1.68,0,0,0,1.8,2.83c15.47-9.48,19-24.32,19-41V185.49c0-20.42-9.19-38.19-30.7-42.86-2.08-.45-2.8,2.93-.67,3.39Z"/><path class="cls-6" d="M203.69,146.93q7.37-28.4,14.74-56.8Q223.74,69.72,229,49.3c2-7.66,3.24-16.15,6.11-23.54,3.07-7.9,12.6-8.65,15.82-.2a58.59,58.59,0,0,1,1.52,5.86q3.95,15.24,7.91,30.47,10.71,41.3,21.43,82.59l4.11,15.84c.6,2.3,2.34,5.86,2.14,8.24-.5,6.05-14.29,7-18.79,7.67a197,197,0,0,1-45.21.83c-2.1-.19-2.83,3.19-.67,3.39a209.61,209.61,0,0,0,40.85-.16c7.3-.78,19.13-1.35,25.07-6.55,4.27-3.72,1-9.91-.21-14.59L266.76,73q-5-19.35-10-38.69c-1.74-6.74-2.53-15.92-10.46-18.14-9.78-2.75-13.56,5.74-15.52,13.31Q226,47.64,221.33,65.78q-10.46,40.29-20.92,80.58c-.56,2.16,2.73,2.69,3.28.57Z"/><path class="cls-6" d="M209.57,453.75c18.86,5.26,39.66,5.32,58.85,1.92,2.08-.37,2-3.81-.19-3.42-19,3.36-39.33,3.32-58-1.89-2.05-.57-2.76,2.81-.68,3.39Z"/><path class="cls-6" d="M219.72,79a174.38,174.38,0,0,0,46.49,0c2.1-.29,2-3.72-.2-3.42a170.8,170.8,0,0,1-45.62,0c-2.1-.28-2.83,3.1-.67,3.39Z"/><path class="cls-6" d="M223.42,190.42c16.82,1.43,34.17,1.52,50.81-1.6,5-.94,16.47-2.35,17.51-8.9a1.66,1.66,0,0,0-3.28-.57c-1,6.13-20,7-24.4,7.48a209.31,209.31,0,0,1-40,.2c-2.1-.18-2.83,3.2-.67,3.39Z"/><path class="cls-6" d="M223.4,359.33c16.4,1.46,33.29,1.49,49.54-1.35,5.26-.92,17.65-2.24,18.8-9.13a1.66,1.66,0,0,0-3.28-.57c-1.08,6.5-21.8,7.24-26.44,7.68a206.47,206.47,0,0,1-37.95,0c-2.1-.18-2.83,3.2-.67,3.39Z"/><path class="cls-6" d="M216.55,379.86a203.28,203.28,0,0,0,51.87.14c2.11-.27,2-3.7-.19-3.42a199.75,199.75,0,0,1-51-.11c-2.1-.28-2.83,3.1-.67,3.39Z"/><path class="cls-6" d="M288.43,169.84V368.63c0,2.23,3.34,1.84,3.34-.32V169.53c0-2.24-3.34-1.84-3.34.31Z"/><path class="cls-6" d="M302,467.56l-21.75-10c-3.35-1.55-7.16-2.84-10.32-4.76-1.44-.88.11.87.1.83a7,7,0,0,1,0-2.32c1-7.57,0-16,0-23.63v-32c0-7,1.28-15.42,0-22.35a6.7,6.7,0,0,1,0-2c-.64,3.16-1.6.88,1.12,1.68,2.21.65,5.16-.76,7.33,0-1.63-.57-1.41-1.74-1.11-.19,3.07,16.07,7.36,32,11,48l11.25,48.9c.5,2.16,3.66.89,3.18-1.18l-22.5-97.79a1.64,1.64,0,0,0-1.69-1.12H268.23a1.79,1.79,0,0,0-1.57,1.87v82.63a1.6,1.6,0,0,0,.91,1.39l32.88,15.17C302.4,471.57,303.92,468.46,302,467.56Z"/><path class="cls-6" d="M268.84,373.05a87,87,0,0,1,21.22-3.47c-.21-1.11-.41-2.22-.62-3.33l-11.25,3.46a1.7,1.7,0,0,0,1,3.23,68.21,68.21,0,0,0,7.87-2.42,11.32,11.32,0,0,1,3.12-1c-1.42.09-2.12-1.95-1.71-.51.84,3,1.4,6.11,2.1,9.14q4.51,19.59,9,39.16t9,39.15c.64,2.8.84,6.55,2.1,9.14.35.72-.36,1,.54-.47,1.3-2.11-1.81-.24-2.71-.09-2.63.44-5.32,1.64-7.86,2.43a1.69,1.69,0,0,0,1,3.22L313,467.27a1.81,1.81,0,0,0,1.07-2.2l-22.5-97.79a1.63,1.63,0,0,0-2.11-1l-11.25,3.46a1.7,1.7,0,0,0,1,3.23l11.25-3.46a1.72,1.72,0,0,0-.62-3.33,90.24,90.24,0,0,0-22.05,3.67,1.7,1.7,0,0,0,1,3.23Z"/><path class="cls-6" d="M194.36,391.74q-7.77,37.68-15.53,75.36c-.23,1.13,1,2.52,2.16,1.9l29.44-15.16a1.89,1.89,0,0,0,1.15-1.77V385.21c0-2.24-3.34-1.84-3.34.31v57.06c0,3.09.13,6.2,0,9.29,0,.23,2-1.16-.11-.61-2.45.63-5.19,2.68-7.42,3.83L180,465.78l2.16,1.9q7.81-37.68,15.52-75.36c.45-2.19-2.83-2.73-3.27-.58Z"/><path class="cls-6" d="M183.4,392.55q-7.32,35.55-14.64,71.09a1.67,1.67,0,0,0,.88,1.84L179.71,469c2,.68,3.54-2.42,1.52-3.12s-8.6-1.65-9.79-3.36c1.23,1.76,1-.61,1.38-2.05,2.13-7.54,3.2-15.56,4.78-23.23q4.54-22,9.08-44.06c.45-2.19-2.84-2.72-3.28-.58Z"/><path class="cls-6" d="M270.55,210.8c-.13,3.37-1.66,10.77-6.6,9.89-4.1-.74-5.37-6.92-5.35-10.2s1.71-10.76,6.6-9.89c4.23.77,5.22,6.85,5.35,10.2.09,2.24,3.43,1.85,3.34-.31-.22-5.37-2.69-13.5-9.41-13.38-6.54.11-9.25,8.35-9.22,13.69s2.72,13.32,9.2,13.38c6.84.06,9.21-8.27,9.43-13.69C274,208.26,270.64,208.66,270.55,210.8Z"/><path class="cls-6" d="M270.55,336.9c-.13,3.36-1.66,10.77-6.6,9.88-4.1-.73-5.37-6.92-5.35-10.2s1.71-10.76,6.6-9.88c4.23.76,5.22,6.84,5.35,10.2.09,2.23,3.43,1.84,3.34-.32-.22-5.36-2.69-13.49-9.41-13.38-6.54.12-9.25,8.35-9.22,13.7s2.72,13.31,9.2,13.37c6.84.06,9.21-8.27,9.43-13.69C274,334.35,270.64,334.76,270.55,336.9Z"/><path class="cls-6" d="M148.36,79c-2.2-1.37-4.86-2.18-6.9-3.76-5.65-4.39-1.93-6.47,2.49-9.51,6.07-4.17,10.62-8.13,13.76-14.9,4.29-9.25,7.56-16.94,15.73-23.52A86.79,86.79,0,0,1,186,18.89l-2.13-2.53c-7.79,10.65,3,21.39,10.37,28.33,4.17,3.94,9.08,8.18,9.36,14.37.27,5.88-3,10.37-5.87,15.06s-2.73,8.16-.44,13.29a1.65,1.65,0,0,0,2.49.82,19.83,19.83,0,0,1,4.49-2c7.92-1.82,10.1,3.9,1.72,8.66-1.45.83-15.09,7-15.18,4.7s-3.42-1.84-3.34.32c.19,5.09,3.77,5,7.77,3.4,4.3-1.68,8.7-3.73,12.92-5.58,2.49-1.09,4.73-2.29,5.92-4.89,1.64-3.58.61-9.38-3.39-10.83s-9.36,1.58-12.72,3.35l2.5.82c-3.49-7.81,1.25-10.53,4.16-17,2.26-5,3.21-10.81,1-16C201.3,42.8,177,31.43,186.34,18.59a1.67,1.67,0,0,0-2.14-2.53A79.51,79.51,0,0,0,167,28.55c-8.49,8.29-9.55,20.86-17.73,28.92-3.49,3.43-14.78,7.75-15.15,13.57s9,8.72,12.77,11.06c1.81,1.13,3.32-2,1.52-3.11Z"/><path class="cls-6" d="M142.73,79a23.53,23.53,0,0,1-1.28,9.9c-.87,2.51-.79,5.1,1.88,6.37,2.24,1.07,4.31,2.68,6.64,3.58,4,1.55,8.17.56,12-1.08,2-.85,1-4.11-1-3.23-6,2.56-10.55,1.43-15.54-2.23-2.11-1.54.21-4.57.51-6.83a32.8,32.8,0,0,0,.17-6.79c-.17-2.23-3.5-1.85-3.34.31Z"/><path class="cls-6" d="M143.93,93.41c-1.65,3.68-.69,4.74.87,7.91,2.28,4.64.38,10.64,4.45,14.64,5.62,5.51,19.45,4.49,26.57,3.51,2.1-.29,2-3.72-.19-3.42-6.41.88-15.89,1.4-21.89-1.45-5-2.38-3.83-7.39-4.83-11.87-.64-2.88-3.32-4.92-2-7.86.9-2-2.07-3.49-3-1.46Z"/><path class="cls-6" d="M164.65,119.17c3.82,5.15,7.42,10.83,9.49,16.92.71,2.1,3.87.85,3.18-1.18-2.17-6.36-5.86-12.31-9.85-17.69-1.31-1.76-4.09.24-2.82,2Z"/><path class="cls-6" d="M164.36,63.09a7.16,7.16,0,0,1,5.85,4.15,1.63,1.63,0,0,0,2.31.44,1.81,1.81,0,0,0,.5-2.39,10.09,10.09,0,0,0-8-5.59c-2.11-.15-2.84,3.23-.67,3.39Z"/><path class="cls-6" d="M171.46,69.19c-.82,2.4-2.68,3.94-4.15,3.43s-2-2.85-1.17-5.26,2.68-3.94,4.15-3.43S172.29,66.79,171.46,69.19Z"/><path class="cls-6" d="M167.6,49.8c3.87-.26,7.52,2.68,9.42,6.08,1.08,1.93,3.85-.1,2.82-2-2.46-4.4-7.18-7.9-12.43-7.55-2.13.14-2,3.57.19,3.42Z"/><path class="cls-6" d="M176.85,22.15c-6.56-7.7,3.28-15.48,10.47-17.94,5.18-1.76,10.69,0,16,0,4.7,0,9.29-.55,13.95.46,8.87,1.93,15.77,8.09,21.85,14.48,1.5,1.58,3.72-1.08,2.26-2.61C234.29,9.11,226.06,2.3,215.52.88c-7.22-1-15.41-.79-22.67-.88-12.21-.15-28.69,12.5-18.25,24.77,1.4,1.64,3.62-1,2.25-2.62Z"/><path class="cls-6" d="M195.12,103.4c2.77,6.7,5.95,14.87,13.18,17.82,2,.8,3.5-2.31,1.51-3.12-6.31-2.57-9.09-10-11.51-15.88-.84-2-4-.81-3.18,1.18Z"/><path class="cls-6" d="M207.09,125.14c-17.23,1.8-39.26,8.46-47.13,25.35a1.66,1.66,0,1,0,3,1.46c7.32-15.71,28.35-21.72,44.35-23.39,2.11-.22,2-3.65-.2-3.42Z"/><path class="cls-6" d="M145.75,162.71c4.88-6.46,14.91-8.61,22.12-11,2-.67,1.07-3.92-1-3.23-7.81,2.54-18.26,4.95-23.55,12-1.31,1.73,1.13,4,2.47,2.22Z"/><path class="cls-6" d="M203.51,137.42q-8,2.29-15.94,4.69c-2.06.61-1.09,3.86,1,3.22q8-2.37,15.94-4.69c2.06-.59,1.1-3.84-1-3.22Z"/><path class="cls-6" d="M157.63,158.35c-8.85,1.14-18.58,3.16-26.31,7.75-9.58,5.7-14.7,18.51-19.61,27.93-12.65,24.28-23.61,49.63-36.78,73.59-1.07,1.94,1.91,3.39,3,1.45,11.68-21.25,21.56-43.72,32.56-65.36,5.26-10.34,10.34-23.9,18.92-32,7.05-6.66,19.1-8.73,28.44-9.94,2.1-.27,2-3.7-.2-3.42Z"/><path class="cls-6" d="M83.64,254.83C74,247.19,62,235.13,49.37,233,29,229.65,26.61,265.38,28.23,278.24a1.68,1.68,0,0,0,1.34,1.53c22.24,3.67,36.16,49.9,63.08,36.2,11.28-5.74,17.75-20.73,25-30.61,7.62-10.32,15.56-23.07,25.85-31,1.71-1.31,0-4.18-1.81-2.82-13.26,10.17-23.54,26.95-33,40.54-6.59,9.49-13.62,24.7-27.59,22.35-10.38-1.74-19.3-12-26.11-19.33-5.94-6.38-10.74-13.88-19.15-17.15-.81-.31-4.18-.85-4.68-1.41S31,271.3,31,269.36a63,63,0,0,1,4.62-22.68c6.8-16.55,19.59-8.67,29.77-1.34,5.42,3.9,10.74,8,16,12.11,1.7,1.34,3.93-1.3,2.26-2.62Z"/><path class="cls-6" d="M53.6,232.51c-3.43-2.85-6.79-7.11-11.27-7.81-6.95-1.09-14.28,3-17.85,8.77-3.08,5-7.46,15.12-5.76,21.24,1.21,4.35,6.4,8.72,9.19,12.23,1.36,1.71,4.14-.29,2.82-1.95-2.59-3.26-6.67-6.82-8.4-10.57-1.52-3.28,1.58-12.06,3.32-15.86,2.79-6.09,9.8-12.61,17.3-10.35,1.11.33,6.08,5,8.39,6.91,1.67,1.38,3.9-1.26,2.26-2.61Z"/><path class="cls-6" d="M46.24,172.39C41.83,166,32.19,169.73,28.51,175c-6.45,9.32,1.37,22.82-9.12,30.23-1.77,1.25,0,4.11,1.8,2.82,4.67-3.29,7.22-9.29,7.85-14.86.29-2.59-.39-5-.38-7.58A16.07,16.07,0,0,1,30.58,178c1.88-3.26,9.29-8.79,12.84-3.64,1.25,1.81,4-.2,2.82-2Z"/><path class="cls-6" d="M44.27,228.2c7.67-3,2.11-15,.24-19.64-3-7.52-5.26-14.67-2.12-22.83,1.74-4.52,5.14-7.92,4-12.95-.48-2.17-3.64-.9-3.18,1.17.9,4.07-3.77,9.32-4.81,13.19A30.1,30.1,0,0,0,38,200.36c.78,4,10.44,22.59,5.24,24.61-2,.78-1,4,1,3.23Z"/><path class="cls-6" d="M27.48,192.88c-5.79-.93-14.2-2.38-19.6.46-2.71,1.42-3.8,3.57-4.16,6.63-.26,2.23.5,4.46,0,6.64s-2.23,3.76-3,5.92S.37,216.63.54,219c.23,3.21-.63,6.18-.53,9.31a18.64,18.64,0,0,0,1.08,4.87c.92,3.45.27,5.2.35,8.38.18,6.73,12.75,13.89,18.65,15,2.1.37,2.82-3,.68-3.39-4.31-.78-9-4-12-7C6,243.35,5.79,242,5.58,238.56c-.06-.91.38-1.82.36-2.73-.08-3.4-2.13-6.7-2.11-10.2,0-3.81-.47-8.45.56-11.94.71-2.38,2.46-4.28,2.88-6.72.87-5.08-.45-9.7,5.44-11.36,4.21-1.18,9.81,0,14.1.66,2.1.33,2.82-3,.67-3.39Z"/><path class="cls-6" d="M111.88,288.38q.44,7.55,1.1,15.08c.42,5-.15,13.38,2.29,17.89,1.55,2.87,4.89,3,8.13,3.65,9.75,1.82,19.55.87,29-1.82,2.07-.59,1.1-3.83-1-3.23a59.52,59.52,0,0,1-28.09,1.52c-5.92-1.18-5-1.06-5.81-6.89-1.19-8.78-1.77-17.67-2.3-26.52-.13-2.23-3.46-1.84-3.33.32Z"/><path class="cls-6" d="M115.84,320.45c-4.44,5.07-5.59,16.52,1.34,20,3.85,1.92,10.1,2,14.24,2.3a51.62,51.62,0,0,0,21-2.5c2-.71,1.07-4-1-3.22-9.36,3.32-19.48,2.91-29.12,1-3.48-.68-4.83-.35-6-4.19a11.51,11.51,0,0,1,2-11.17,1.66,1.66,0,0,0-2.47-2.23Z"/><path class="cls-6" d="M226.7,454.53c-11.26,4.22-23.85,5-35.75,5.7-2.13.13-2,3.56.19,3.42,12.19-.77,25.05-1.57,36.6-5.9,2-.75,1-4-1-3.22Z"/><path class="cls-6" d="M170.57,460.89a431,431,0,0,1-47.52-2.11c-5-.54-25.84-1.1-27.24-7.53-.53-2.41,1.45-6.91,2-9.41q1.59-7.48,3.15-14.95,1.8-8.65,3.53-17.33c1.18-5.93,3.63-12.83,3.63-18.87,0-2.23-3.34-1.84-3.34.32,0,8.15-3.54,17.9-5.17,25.92q-2,9.66-4,19.29c-1,4.6-5.37,14.49-2.27,18.72,4.29,5.84,19.14,6,25.25,6.79a419.36,419.36,0,0,0,52.2,2.58c2.12,0,2-3.43-.2-3.42Z"/><path class="cls-6" d="M109.69,382.8c2.83-14.66,5.63-29.35,9-43.9.5-2.17-2.78-2.71-3.28-.57-3.39,14.54-6.19,29.23-9,43.89a1.67,1.67,0,0,0,3.28.58Z"/><path class="cls-6" d="M128.76,339.23l-4.84-.32,1.33,1.54,1.14-17.36-2,1.85,4.84.31-1.33-1.53-1.14,17.36c-.14,2.22,3.2,1.81,3.34-.31l1.14-17.37a1.63,1.63,0,0,0-1.33-1.53l-4.85-.32a1.79,1.79,0,0,0-2,1.85l-1.14,17.36a1.63,1.63,0,0,0,1.34,1.54l4.84.32C130.19,342.75,130.92,339.37,128.76,339.23Z"/><path class="cls-6" d="M107.19,460.76c5.6,42.66,10.16,85.17,9.12,128.26-.33,13.77-1,27.61-.3,41.39.68,13.15,2.86,26.14,4.11,39.24,1.38,14.36,1.15,28.75,1.15,43.15,0,5.59-1.42,13.2,0,18.66,1.13,4.39,6.08,9.06,8.94,12.38,5.26,6.12,12,13.25,20.26,15,5.93,1.22,20.46,2.87,25.36-1.87,3.62-3.5,2.6-12.28,2.81-16.82,1.14-24.31-3.68-48-3.51-72.18.16-23.3,1.83-46.47,4.1-69.66A508.56,508.56,0,0,1,193,520.89c4.8-18.7,11.86-37.67,14.68-56.79.33-2.2-3-2.75-3.27-.58-2.12,14.34-7.24,28.58-11,42.55C188.14,526,182.67,546,179.53,566.34c-3.81,24.73-5.63,50-7.05,75-.95,16.76-1.17,33.59.69,50.29a315.08,315.08,0,0,1,2.4,40.38c-.1,5.49-.29,11-.79,16.48-.48,5.2-1.1,6.72-7.09,7.34-12.91,1.31-22.14-.94-31.21-10.17a95.63,95.63,0,0,1-9-10.77c-.74-1-3.12-4.83-2.86-3.86-1.35-5,0-12.27,0-17.39,0-13.88.3-27.79-.89-41.64-1-11.78-2.93-23.47-3.91-35.25-1.06-12.93-.71-25.89-.38-38.84,1.17-46.31-2.87-91.57-8.89-137.43-.29-2.21-3.62-1.84-3.34.31Z"/><path class="cls-6" d="M122.42,728.29c-8.29,4.25-19.1,8.46-28.43,6-2-.55-2.76,2.83-.67,3.38,9.87,2.63,21.37-1.64,30.13-6.13,1.88-1,.94-4.24-1-3.23Z"/><path class="cls-6" d="M117.8,731c-15.12-5-33.69-14.29-49.44-6.91-6.2,2.9-11.07,9.12-11.06,16.16,0,7.53,5.55,11.4,11.64,14.58a155.87,155.87,0,0,0,24.84,10.42c8,2.55,16.61,2.68,24.46,5.89,8.37,3.43,13.2,11.4,21.63,15.16,8.95,4,17.31,4.07,26.12-.24,3.8-1.86,9.92-4.78,11.26-9.14,1-3.21.06-8.39,0-11.74s.12-7-2-9.94c-1.29-1.78-4.06.23-2.82,1.95,2.21,3.06,1.46,8.59,1.46,12.22,0,1.51-.49,8.32.33,6.84-4.26,7.76-18.93,10.82-26.44,9.12a36,36,0,0,1-15.53-7.88c-2.58-2.3-4.41-5-7.37-6.92-6.25-4-14.1-5.36-21.28-6.62a95.52,95.52,0,0,1-20.75-6.49c-7.69-3.22-20.51-7.13-22.24-16.47-1.69-9.18,9-14.88,16.32-15.81a41.39,41.39,0,0,1,16.37,1.53c7.72,2.18,15.33,4.9,23,7.41,2,.66,3.55-2.45,1.52-3.12Z"/><path class="cls-6" d="M195.67,498c2.91,18.17,5.3,36.45,7,54.77,1.24,13.18,1.3,26.26,1.83,39.47.67,17.1,3.58,33.93,5.63,50.88a319.67,319.67,0,0,1,2,46.09c-.29,12.11-.35,24.85-2.92,36.74-1.73,8-2.17,15.33,2.63,22.71,3.35,5.14,10.67,8.61,16.24,10.65,10.88,4,20.47,1.12,29.86-5.17,7-4.68,7.95-9.94,7.78-17.91-.26-12.42-.32-24.66.19-37.09.67-16.28-.87-32.54-.35-48.82,1.07-32.87,3.13-65.74,4.66-98.6q2.24-47.87,4.46-95.74c.1-2.23-3.24-1.82-3.34.32q-4.09,88.48-8.29,177c-.94,19.31-.24,38.48-.29,57.8,0,13.17-1.08,26.24-.59,39.43.14,4,.78,8.46.13,12.42-.92,5.57-5.49,8.16-10.1,10.72-11.32,6.27-27.24,4.75-36.45-5.4-5.56-6.13-4.63-14.83-3.15-22.34,4.62-23.36,4-49.45,1.92-73-1.55-17.25-4.83-34.3-6.16-51.58-1.14-14.74-.71-29.51-2-44.26-1.7-19.85-4.28-39.66-7.43-59.33-.35-2.19-3.68-1.83-3.34.31Z"/><path class="cls-6" d="M210.24,744.86c.94,14.38.56,34.64,19.83,35.91,9.1.6,21.81-4,27.45-11.49,3.61-4.77,1.31-10.81.66-16.35-.25-2.21-3.59-1.84-3.34.31.38,3.2,2.28,8.93,1.4,11.94-2.55,8.75-20.49,13.37-28,11.9-15.2-3-13.9-20.64-14.67-32.54-.15-2.23-3.49-1.84-3.34.32Z"/><path class="cls-6" d="M268.17,546.52l61,24.25a1.76,1.76,0,0,0,2.43-1.71v-103a1.61,1.61,0,0,0-.91-1.4l-19.06-7.58c-2-.79-3.51,2.32-1.52,3.11,5.25,2.09,11.14,5.63,16.66,6.63,2.26.41,1.9,1.19,1.49-.11a12.69,12.69,0,0,1,0,3.2v99.45l2.43-1.71-61-24.25c-2-.79-3.51,2.32-1.52,3.11Z"/><path class="cls-6" d="M306.32,443.81,345,459.2l-.15-3L329,464.82c-1.91,1-.14,3.88,1.8,2.82l15.86-8.58a1.74,1.74,0,0,0-.15-3L307.84,440.7c-2-.79-3.51,2.32-1.52,3.11Z"/><path class="cls-6" d="M330.82,570.63l15.84-8.57a1.77,1.77,0,0,0,.77-1.57v-103c0-2.23-3.34-1.84-3.34.32v98.37a24.18,24.18,0,0,1,0,3.71c-.34,2.1,1.68-1.31-.31-.07-4.73,2.93-9.87,5.34-14.77,8-1.9,1-.14,3.88,1.81,2.82Z"/><path class="cls-6" d="M106.91,383.82c12.11,8.82,25,17.09,38.63,23.25l-.14-3-3.9,3.1c-1.51,1.2-4.76,2.62-2.32,2.91-2.43-.29-6-3.2-8-4.37-4.71-2.63-9.4-5.34-13.92-8.3a55.26,55.26,0,0,1-7-5c-1.75-1.58-4.7-6.87-1.72-8.29,1.92-.92,1-4.19-1-3.23-17.71,8.44,24.84,29.55,30.23,32.37a1.64,1.64,0,0,0,1.67-.14l7.78-6.21a1.74,1.74,0,0,0-.14-3c-13.41-6-26-14.11-37.9-22.75C107.42,379.94,105.19,382.57,106.91,383.82Z"/><path class="cls-6" d="M158.45,184.77v161c0,2.24,3.34,1.84,3.34-.31v-161c0-2.23-3.34-1.84-3.34.32Z"/><path class="cls-6" d="M215.22,385.52v56.9c0,2.23,3.33,1.84,3.33-.32V385.21c0-2.24-3.33-1.84-3.33.31Z"/></g></g></svg>