<svg xmlns="http://www.w3.org/2000/svg" viewBox="0 0 422.59 488.69"><defs><style>.cls-1{fill:#f2f3f7;}.cls-2{fill:#fff;}.cls-3{fill:#fffc19;}.cls-4{fill:#231f20;}</style></defs><g id="レイヤー_2" data-name="レイヤー 2"><g id="レイヤー_4" data-name="レイヤー 4"><path class="cls-1" d="M272.51,488.69c-2,0-4-.08-6.16-.16s-4.35-.18-6.55-.18c-13.47,0-21.88-5-26-8.25l-42.18,1.79L180,488.35H178c-.87,0-21.51,0-34.65-.91-15.54-1.08-15.47-16.75-15.45-22.66V463c-25.79-15.69-33.87-31.07-42.41-47.32-.65-1.23-1.3-2.48-2-3.74-7.41-13.93-7.85-31.82-7.38-41.75C68,367.51,66,360.39,64.62,355.33l-.22-.77c-3.07-11,7.7-22.71,14.35-25.15a10.94,10.94,0,0,1,3.81-.66,17.22,17.22,0,0,1,6.8,1.65l16.35-22.2c13.35-18.13,43.17-28.71,60.06-33.46l-2.16-4.81-6.33,6.33-4.06-11c-1.58-4.3-10-11.46-15.14-14.77-3.78-2.42-9-7.81-9.94-8.86l-.81-.85L126,238V241c-.16,28.59-20.28,30.81-26.44,30.81a36.91,36.91,0,0,1-10.94-1.68l-5.71-1.94,2.74-24.56c-2.62-7.28-6.59-18-8.48-22.28a23.63,23.63,0,0,1-8.94,1.77A23.31,23.31,0,0,1,52.66,217L48,212.4l17.81-24,1.29-6.08c5.42-37,36.12-70.38,37.43-71.79l.52-.55.61-.44C139.24,85.63,188.13,73,201.15,70c12.78-18.85,63.16-61.44,69.2-66.52L274.47,0l4.61,2.8c48.5,29.48,42.92,73,42.66,74.85l-.37,2.57-53.2,50.94,14,54.12.65,17.66L278.25,205c-22.23,10-20,45.62-19.95,46l.53,7.51-8.57.57c-1.55,7.48-5.26,14.33-8.8,19.53,23.27,7.65,44.33,26.75,53.27,35.68,8.73-4.83,18-6,24.85-6a54.74,54.74,0,0,1,11.15,1.05l8.36,1.87-12,32.59c1.61,15.32,4.17,33.12,5.72,36.74,1.08,1.36,6.24,3.44,10.55,4.24l5.84,1.07.3,5.94c.1,2.08,1,20.57-.11,28.55a21.56,21.56,0,0,1-10.12,15.25L329.05,450c-9.13,12.77-24.24,17.59-33,19.37-.6,5.81-2.42,10.16-5.57,13.43-5,5.23-11.92,5.93-18,5.93ZM157.75,203.76l4.4,14.9c4.76-7.6,13.35-16.69,27.4-17.35a97.37,97.37,0,0,0,13.75-1.69,45.5,45.5,0,0,1,8.38-1c4.89,0,9.07,1.49,13.86,5l5.83-17.27a8.69,8.69,0,0,0-1-6.23c-2-3.4-6.35-6.19-12.76-8.16l-10.05,5.2-2-.11c-.06,0-.4,0-1,0C199.4,177,174,178.1,156,199.39Z"/><path class="cls-1" d="M398.39,135.42s-58.49,37.36-66.84,36.45-5.68-7.7-5.68-7.7,52.32-47.34,59.43-48.85C389.38,114.45,404.23,131.53,398.39,135.42Z"/><path class="cls-1" d="M415.72,306.38S348.05,291,342.83,284.43s1.5-9.46,1.5-9.46,70.44,4,76.51,8C424.32,285.24,422.59,307.81,415.72,306.38Z"/><path class="cls-1" d="M3.19,292.66s68.89-8.36,76-3.92,1.78,9.4,1.78,9.4-67.66,20-74.72,18.3C2.22,315.45-3.76,293.63,3.19,292.66Z"/><path class="cls-2" d="M342,392.19s-12.61-2.28-15.77-8-6.79-41.32-6.79-41.32l9.62-26.19s-20.5-4.59-35.45,7.28c0,0-33-36.71-65.52-40.77,0,0,15.37-15.25,15.38-31.2l7.31-.49s-2.91-41.1,24.36-53.34l-.43-11.8L259.8,128.78,314.31,76.6S320,36.46,275.18,9.21c0,0-61.6,51.77-69.26,67.39,0,0-58.53,12.43-95.9,39.07,0,0-30.49,32.77-35.53,68l-1.69,7.92-14.89,20S69,222.56,83.25,208.08a9.19,9.19,0,0,0,.1,8.7c2.46,4.93,10,25.92,10,25.92L91,263s27.29,9.27,27.47-22V228.56l4.19-14.81,10.89,22.74s5.33,5.65,8.53,7.69,15.32,10.84,18.14,18.5l5.75-5.75,6.32,14.12,7.12,8S129,289.2,111.75,312.65L94.49,336.09l-3.45,4s-6.37-4.87-9.71-3.64-11.57,9.38-9.7,16.09,2.75,11.39,12.59,11.19c0,0-3.65,26.63,6,44.68s16.15,33.31,44,49.58c3.66,2.14-3.34,21.06,9.7,22s34.14.9,34.14.9l11.51-6.38,47.06-2s7.07,8.37,23.2,8.37,29.76,4.35,28.95-18c0,0,22.95-1.51,34.2-17.24l11.25-15.73s6.78-3,7.79-10.5S342,392.19,342,392.19ZM189.9,208.8c-18.9.89-25.5,22.41-25.5,22.41l-8.17-6.12-5.57-18.86-3.27-8.06c22.67-30.7,58.53-28.67,58.53-28.67l10.84-5.61c27.74,7,21.76,24.68,21.76,24.68l-7.79,23.06-1.67,2.12s2.61,3.84-7.37-3.71S208.8,207.91,189.9,208.8Z"/><circle class="cls-3" cx="204.3" cy="247.98" r="39.5"/><path class="cls-4" d="M254,136.8a2.27,2.27,0,0,0,3.11-.68C266.7,121,313.87,78.7,314.35,78.27a2.25,2.25,0,0,0-3-3.35c-2,1.76-48.11,43.18-58.08,58.77A2.25,2.25,0,0,0,254,136.8Z"/><path class="cls-4" d="M274.6,192.94a2,2,0,0,0,.41,0,2.26,2.26,0,0,0,2.21-1.84c1.91-10.18-11-52.15-12.46-56.91a2.25,2.25,0,1,0-4.3,1.34c3.92,12.62,13.78,47.05,12.34,54.74A2.25,2.25,0,0,0,274.6,192.94Z"/><path class="cls-4" d="M275.8,200.33a2.25,2.25,0,0,0-1.23-4.33c-.4.12-9.84,2.89-17,16s-10.74,27.55-9.34,37.68c-2.83.28-7.94.23-11.75-2.9s-5.44-8.53-5.08-16.22a2.25,2.25,0,0,0-4.5-.21c0,.42,0,.82,0,1.23A27.19,27.19,0,0,0,212.68,222a1.5,1.5,0,1,0-.81,2.88,24.34,24.34,0,0,1,15.36,13,23.28,23.28,0,0,0,2.1,6.92,24.58,24.58,0,0,1,.26,3.45,24.26,24.26,0,0,1-8,18,1.49,1.49,0,0,0-.1,2.12,1.48,1.48,0,0,0,2.11.11,27.81,27.81,0,0,0,4.33-5,27.15,27.15,0,0,0,4.62-14.28c.33.33.66.68,1,1a19.43,19.43,0,0,0,12.46,4,24.1,24.1,0,0,0,5.31-.55A2.25,2.25,0,0,0,253,251c-2.15-9.13,1.17-23.6,8.47-36.86C267.67,202.89,275.64,200.38,275.8,200.33Z"/><path class="cls-4" d="M204.5,165.06c.13,0,13-1.06,23.31,5.83,9.79,6.55,8.44,19,8.37,19.57a2.25,2.25,0,0,0,2,2.5l.28,0a2.25,2.25,0,0,0,2.23-2c.08-.63,1.79-15.73-10.34-23.85-11.64-7.8-25.62-6.63-26.21-6.58a2.25,2.25,0,0,0,.4,4.49Z"/><path class="cls-4" d="M149.12,199.61c2.82-3.38,9.66-11.24,10.73-12.48,17.22-13.28,49.25-15.69,49.57-15.71a2.27,2.27,0,0,0,2.09-2.41,2.23,2.23,0,0,0-2.41-2.08c-1.37.1-33.92,2.54-52.18,16.78a1.77,1.77,0,0,0-.31.3c-.08.09-7.87,9-11,12.72a2.25,2.25,0,0,0,3.46,2.88Z"/><path class="cls-4" d="M129.21,143.19a2.25,2.25,0,0,0-2.61-1.82c-.63.11-15.31,2.87-18.75,15.26a2.25,2.25,0,0,0,1.57,2.77,2.06,2.06,0,0,0,.6.08,2.26,2.26,0,0,0,2.17-1.65c2.67-9.61,15-12,15.2-12A2.25,2.25,0,0,0,129.21,143.19Z"/><path class="cls-4" d="M117.35,230.5a2.28,2.28,0,0,0,1.15.31,2.26,2.26,0,0,0,1.94-1.09c.15-.25,2.7-4.64,3.89-12.74,2.87,8,5.92,15.86,7.31,18.28a2.25,2.25,0,1,0,3.9-2.23c-1.8-3.15-7.48-18.48-10.76-28.6,0,0,0,0,0,0-.89-2.76-1.61-5.14-2-6.77-1.21-4.8,7.23-23.3,12.82-33.83a2.25,2.25,0,1,0-4-2.11c-2.55,4.8-15.19,29.15-13.22,37,.39,1.56,1.09,3.89,2,6.65.71,14.14-3.71,21.92-3.79,22A2.26,2.26,0,0,0,117.35,230.5Z"/><path class="cls-4" d="M68.31,218.18h0c4.2,0,8.36-1.59,12.39-4.72a18.48,18.48,0,0,0,.46,3.86,2.44,2.44,0,0,0,.21.53c3.53,6.55,12.13,25.18,9.9,33.3a84.88,84.88,0,0,1-3.19,10.69,2.25,2.25,0,0,0,1.23,2.92A33.25,33.25,0,0,0,100.8,267,19.64,19.64,0,0,0,112,263.81c6-4.06,8.93-11.76,8.79-22.87a2.3,2.3,0,0,0-2.28-2.22,2.25,2.25,0,0,0-2.22,2.28c.12,9.5-2.17,15.92-6.81,19.08-5.37,3.67-12.81,2.22-16.37,1.2,1-2.78,1.85-6.06,2.64-9.35,0-.13.07-.27.1-.4,2-8.27,3.31-16.5,3.39-17a2.21,2.21,0,0,0,0-.85c-1-4.34-.29-27,0-35.49,0-8.23,8.49-34.39,8.58-34.66a2.25,2.25,0,0,0-4.28-1.39c-.36,1.1-8.8,27.11-8.8,36-.12,3.06-1.16,29.51,0,36.1-.09.5-.25,1.46-.48,2.74A121.33,121.33,0,0,0,85.47,216c-1.7-7.75,4.31-26.5,6.81-33.15a2.28,2.28,0,0,0,.13-.64c1.79-26.75,22.75-49.24,23-49.46a2.25,2.25,0,0,0-3.27-3.1c-.9,1-22.12,23.69-24.15,51.93-.83,2.24-5.37,14.89-6.81,25.45-4.27,4.39-8.57,6.65-12.77,6.67a12.68,12.68,0,0,1-7.2-2.29c5.63-6.5,13.17-18,13.52-18.57a2.35,2.35,0,0,0,.34-.89C76.83,180.14,85,158.24,85,158l.06-.17c5-17.25,26.36-40.41,26.57-40.64a2.25,2.25,0,1,0-3.29-3.07c-.91,1-22.29,24.11-27.58,42.39-.63,1.68-8.17,22.16-10.14,34.23-1.54,2.34-9.5,14.28-14.35,19.3a2.25,2.25,0,0,0,0,3.11A17.56,17.56,0,0,0,68.31,218.18Z"/><path class="cls-4" d="M120.4,111.18a2.24,2.24,0,0,0,1-.25c.4-.21,40.37-20.72,76.93-30.21a2.25,2.25,0,0,0-1.13-4.36c-37,9.63-77.46,30.36-77.86,30.57a2.25,2.25,0,0,0,1,4.25Z"/><path class="cls-4" d="M204.54,78.38A2.25,2.25,0,0,0,207.7,78c.38-.49,38-49.13,62.25-62a2.25,2.25,0,1,0-2.12-4c-25,13.36-62.13,61.23-63.7,63.26A2.26,2.26,0,0,0,204.54,78.38Z"/><path class="cls-4" d="M169.44,229.6a39.31,39.31,0,0,1,57.4-14,2.52,2.52,0,0,0,.79.35,68.83,68.83,0,0,0-.82,9.14,2.24,2.24,0,0,0,2.24,2.25h0a2.24,2.24,0,0,0,2.25-2.24c0-.14.14-14.15,6-25.91a2.25,2.25,0,0,0-4-2,60.8,60.8,0,0,0-4.82,14.13,43.76,43.76,0,0,0-63,16.23,2.26,2.26,0,0,0-.25,1.24,34.84,34.84,0,0,0-6.86-5.1c-1.48-14.35-6.79-20-7-20.23a2.25,2.25,0,0,0-3.25,3.11c0,.05,4.76,5.26,5.91,18.74a2.25,2.25,0,0,0,1.27,1.84c.11,0,10.78,5.26,12.35,14.46.91,5.31-1.36,11.08-6.75,17.18-6.37-11.27-20.68-18.26-21.33-18.58a2.25,2.25,0,0,0-2,4.06c.16.07,16,7.81,20.6,19.27a2.24,2.24,0,0,0,1.64,1.37,2.3,2.3,0,0,0,.45.05,2.24,2.24,0,0,0,1.59-.66c8.06-8.06,11.49-16,10.19-23.48a20.86,20.86,0,0,0-4.93-10,2,2,0,0,0,.34,0A2.24,2.24,0,0,0,169.44,229.6Z"/><path class="cls-4" d="M205.27,275.58a27.07,27.07,0,0,0,12.16-2.85,1.5,1.5,0,0,0-1.34-2.69,24.1,24.1,0,0,1-10.82,2.54,24.32,24.32,0,0,1-7-47.6,1.5,1.5,0,0,0-.87-2.88,27.33,27.33,0,0,0,7.91,53.48Z"/><path class="cls-4" d="M184.72,293.61a6.1,6.1,0,0,0-.7.09v0l-.43.05a118.93,118.93,0,0,0-18,3.15,1.5,1.5,0,0,0,.38,2.95,1.74,1.74,0,0,0,.39-.05,118.77,118.77,0,0,1,17.5-3.07c.17,0,.36,0,.55-.08h0l.51,0a1.5,1.5,0,0,0,1.37-1.62A1.47,1.47,0,0,0,184.72,293.61Z"/><ellipse class="cls-4" cx="309.02" cy="372.97" rx="4.8" ry="11.82"/><path class="cls-4" d="M311.27,347.85A2.24,2.24,0,0,0,309,345.6c-.47,0-11.7.2-16.93,17.48a2.25,2.25,0,0,0,1.5,2.81,2.5,2.5,0,0,0,.66.09,2.25,2.25,0,0,0,2.15-1.6c4.19-13.86,12.25-14.27,12.65-14.28A2.25,2.25,0,0,0,311.27,347.85Z"/><path class="cls-4" d="M341.87,389.94c-4,.3-7.63-1.77-9-2.68-5.08-3.33-8-8.26-8-13.54,0-11.51-1.69-26.42-1.89-28.1.06-13,8-27.7,8.1-27.85a2.22,2.22,0,0,0,.12-1.9,2.25,2.25,0,0,0-1.38-1.32c-12-4-25.94,1.25-36.1,6.79-15.79-20.22-36.87-33.57-62.71-39.77a41.44,41.44,0,0,0,14.72-24.2,2.25,2.25,0,1,0-4.41-.88,37,37,0,0,1-70.89,6,2.25,2.25,0,0,0-4.21,1.61,41.27,41.27,0,0,0,9.67,14.65c-38.64,5.47-70.23,28.59-84.95,59.37-1.86-1.28-5.84-3.6-9.85-3.17a8.61,8.61,0,0,0-6,3.47c-3.6,4.62-6.23,12.5-4.29,18.61,1.27,4,4.28,6.78,8.73,8.13a1.67,1.67,0,0,0,.44.06,1.5,1.5,0,0,0,.43-2.93c-3.51-1.07-5.77-3.14-6.74-6.17-1.61-5.07.76-11.95,3.8-15.86A5.6,5.6,0,0,1,81.39,338c3.38-.38,7,2.06,8.26,3A90.17,90.17,0,0,0,82,377.2c0,33.82,19.49,64.86,52.25,83.41a15.39,15.39,0,0,0-1.09,5.69v1.26a15.55,15.55,0,0,0,15.53,15.54h27a15.58,15.58,0,0,0,12.59-6.46c4.1.29,8,.42,11.79.31l.71,0,.29,0a6.25,6.25,0,0,0,.7-.05c3.21-.09,5.62-.07,8.17-.06,4.5,0,9.13.06,18.34-.52h.16c1.37-.19,2.87-.51,4.31-.81.87-.19,1.76-.38,2.61-.54a14.86,14.86,0,0,0,13.61,8.14h27a15.56,15.56,0,0,0,15.54-15.54V466.3c0-.52,0-1-.08-1.56l.19,0a62.56,62.56,0,0,0,44.22-33c13.52-4.7,9-36.24,8.47-39.91A2.24,2.24,0,0,0,341.87,389.94Zm-8.16,37.73a2.25,2.25,0,0,0-1.58,1.31,57.26,57.26,0,0,1-13.29,17.41c-3.64-.56-6.39-2-8.17-4.4-3.56-4.74-2.4-11.66-2.39-11.73a2.25,2.25,0,1,0-4.43-.79c-.06.36-1.53,8.86,3.2,15.19A15.28,15.28,0,0,0,314.5,450a56.58,56.58,0,0,1-23.65,10.32l-2.41.34a2.25,2.25,0,0,0-1.86,2.82,11,11,0,0,1,.39,2.87v1.26a11,11,0,0,1-11,11h-27c-4.76,0-8.12-2.31-10.3-7.06a2.26,2.26,0,0,0-2.35-1.29c-1.46.2-3,.53-4.5.84s-2.73.58-3.9.75c-9,.56-13.55.53-17.95.5-2.5,0-5.08,0-8.4.07h-.16l-.2,0a1.46,1.46,0,0,0-.3,0l-1,0a116,116,0,0,1-12.63-.39,2.24,2.24,0,0,0-2.12,1.1,11.09,11.09,0,0,1-9.5,5.44h-27a11,11,0,0,1-11-11V466.3a11,11,0,0,1,1.48-5.51,2.25,2.25,0,0,0-.87-3.1C105.82,440.08,86.47,410,86.47,377.2c0-47.75,40.09-88.35,93.24-94.42a2.46,2.46,0,0,0,.67-.19c.81.59,1.64,1.16,2.49,1.7A98.63,98.63,0,0,0,160.61,289a1.52,1.52,0,0,0-.86.79,1.49,1.49,0,0,0,0,1.17l2.14,5.46a1.5,1.5,0,0,0,1.4,1,1.54,1.54,0,0,0,.55-.11,1.49,1.49,0,0,0,.84-1.94l-1.56-4A94.47,94.47,0,0,1,187.91,287a40.85,40.85,0,0,0,32.73.64,1.49,1.49,0,0,0,.84.44c8.9,1.21,20,5.82,23.94,7.56l-2.57,4.49c-18.58-7.23-38.62-7.81-52.3-7a1.5,1.5,0,0,0,.18,3c13.66-.83,33.82-.24,52.22,7.23l.07,0a1.69,1.69,0,0,0,.49.09h0a1.32,1.32,0,0,0,.39-.06l.13-.05a1.15,1.15,0,0,0,.25-.12l.13-.1.19-.16.11-.15.09-.11,4-7a1.49,1.49,0,0,0-.67-2.1c-.54-.26-12.5-5.83-23.29-8q.77-.42,1.5-.87a2.23,2.23,0,0,0,1.08.58c26.6,5.82,48.08,19.37,63.84,40.26a2.25,2.25,0,0,0,2.91.6c7.2-4.11,20.42-10.3,31.62-8.06-2.42,5-7.37,16.64-7.37,27.6a2.11,2.11,0,0,0,0,.26c0,.16,1.87,16,1.87,27.72,0,6.82,3.67,13.12,10,17.29a20.5,20.5,0,0,0,9.7,3.41C341.32,404.19,342.23,425.77,333.71,427.67Z"/><path class="cls-4" d="M146.76,437.12c-43.29-8.86-48.43-52.64-48.48-53.08a1.5,1.5,0,0,0-3,.32c0,.46,5.38,46.4,50.86,55.7l.3,0a1.5,1.5,0,0,0,.3-3Z"/><path class="cls-4" d="M332.13,168.37a2.28,2.28,0,0,0,1.27-.39L391,128.72a2.25,2.25,0,1,0-2.54-3.72l-57.55,39.26a2.25,2.25,0,0,0,1.27,4.11Z"/><path class="cls-4" d="M416.13,292l-68.37-13.38a2.25,2.25,0,1,0-.86,4.41l68.37,13.38a2.1,2.1,0,0,0,.43.05,2.25,2.25,0,0,0,.43-4.46Z"/><path class="cls-4" d="M78.43,293.34a2.26,2.26,0,0,0-2.56-1.89L7,301.91a2.25,2.25,0,0,0,.34,4.48l.34,0L76.54,295.9A2.25,2.25,0,0,0,78.43,293.34Z"/></g></g></svg>