<svg xmlns="http://www.w3.org/2000/svg" viewBox="0 0 757.59 486.51"><defs><style>.cls-1{fill:#231f20;}.cls-2{fill:#fffc19;}</style></defs><g id="レイヤー_2" data-name="レイヤー 2"><g id="レイヤー_4" data-name="レイヤー 4"><path class="cls-1" d="M109.51,72.35s.76-13.37,17.56-17.73,55.69-14.14,55.69-14.14l1.5,8.25L188,52.1l12.37-8.25s14.06,22,9.84,33.5S188,112.1,188,112.1s10.5,20.63,8.81,25.5l-6.19-.37s-9.36-7.07-12.74,4.28S182,161.44,182,161.44s-4.4,17.27-13.18,18.91S130.62,178,130.62,178s-31.1-59.64-30.74-73.62S102.51,77.35,109.51,72.35Z"/><polygon class="cls-2" points="248.28 364.26 282.75 443.58 282.75 468.75 260.25 459.75 255 425.25 248.28 402.89 248.28 364.26"/><path class="cls-2" d="M612.4,189.64S582.14,221,577.57,253l6.76,6.14L579.57,280l14.65,38.47,13.26-4.11,36.81-27.62V265.12l14.29-5L667,203.74s-.33-18.09-11.18-17.91l-4,26.71-13.48,21.08-34,63-3.43-65.33s2.12-24.41,11.47-30.37Z"/><rect class="cls-2" x="612.73" y="413.63" width="42.17" height="10.5" transform="translate(246 -234.41) rotate(25.85)"/><polygon class="cls-2" points="572.35 407.26 550.02 420.15 551.47 407.19 567.1 398.17 572.35 407.26"/><path class="cls-1" d="M593.62,178.1s-6,17.5,0,29.5l18.78-18-4.81-9.71Z"/><path class="cls-1" d="M573.22,105.31c2.67-3.46-10.54-22.3-4.13-37.18s20.61-33.22,47.51-34.3c0,0,14.87-.26,23.19,1.54s32.49,6.34,39.86,18.47,19.58,40.58,10.48,73-13.44,29-7.56,44.13,22.58,36.33,22.54,41.58a12.35,12.35,0,0,1-3.11,8.28l-35-17.08s.66-18.84-11.18-17.91l-11.56-42.45s17.54-4.79,13.63-16.46l-13.63,2A35.17,35.17,0,0,0,641,102.88s-21.19-17-26-23.07a25.19,25.19,0,0,1-5.06-13.46s-12.19.94-18.94,9-6.07,7.9-11.89,18.94Z"/><ellipse class="cls-1" cx="209.34" cy="130.31" rx="3.37" ry="5.44"/><path class="cls-1" d="M203.36,114.74a13.08,13.08,0,0,0-1.64,9.49c1.14-4.37,8-8.39,8-8.39,1.42-.67,1.36-2.55.68-3.94S205.61,110.81,203.36,114.74Z"/><path class="cls-1" d="M607.48,114.22c-1.72,0-3.12,2.09-3.12,4.67s1.4,4.67,3.12,4.67,3.11-2.09,3.11-4.67S609.2,114.22,607.48,114.22Z"/><path class="cls-1" d="M603.36,105.31s7-3.16,17.87,0c0,0-.63-3.66-5.63-4.5s-11.18-.17-13,1.34S603.36,105.31,603.36,105.31Z"/><path class="cls-1" d="M595.45,350.76c-3,0-5.47,3-5.47,6.75s2.45,6.75,5.47,6.75,5.48-3,5.48-6.75S598.48,350.76,595.45,350.76Z"/><path class="cls-1" d="M595.45,389.39c-3,0-5.47,3-5.47,6.75s2.45,6.75,5.47,6.75,5.48-3,5.48-6.75S598.48,389.39,595.45,389.39Z"/><path class="cls-1" d="M80.08,411.91c-3-23.38-5.8-43.67-5.86-44.07a3,3,0,1,0-5.94.82c0,.4,2.83,20.46,5.8,43.61-1.29,5.34-12,49.8-15.46,61.63a3,3,0,0,0,2,3.73,3.17,3.17,0,0,0,.85.12,3,3,0,0,0,2.88-2.15c2.4-8.16,8-30.84,11.81-46.53,2.25,18.35,4.25,36.2,4.82,45.85a3,3,0,0,0,3,2.83h.18A3,3,0,0,0,87,474.57c-.75-12.67-3.92-39.17-6.91-62.59A.2.2,0,0,1,80.08,411.91Z"/><path class="cls-1" d="M426.18,57.37h.09A2.26,2.26,0,0,0,428.43,55L426.28,2.16a2.25,2.25,0,1,0-4.5.18l2.15,52.87A2.24,2.24,0,0,0,426.18,57.37Z"/><path class="cls-1" d="M456,63.77a2.31,2.31,0,0,0,1,.25,2.25,2.25,0,0,0,2-1.21l24.5-46.9a2.25,2.25,0,0,0-4-2.09L455,60.73A2.25,2.25,0,0,0,456,63.77Z"/><path class="cls-1" d="M391.17,69.1a2.25,2.25,0,0,0,2,1.28,2.21,2.21,0,0,0,1-.22,2.25,2.25,0,0,0,1.06-3L372.45,19.4a2.25,2.25,0,1,0-4.06,1.94Z"/><path class="cls-1" d="M740.67,256.74a2.23,2.23,0,0,0,0-.23c-.17-.86-4.45-21.07-18.48-28.2-3.48-1.78-9-4.58-15.22-7.73a8.34,8.34,0,0,0,1.16-2.27c1.24-3.74,0-8.32-3.62-13.62-.85-1.25-1.89-2.65-3-4.21C691.54,187.06,675,164.6,690,134.58c18.53-37.06-1.24-75.76-8.22-82.84-11.8-12-22.78-15.22-33-17.5-26.4-5.9-27.35-4.74-28.79-3a3.16,3.16,0,0,0-.65,1.37,3,3,0,0,0-2.25-1.75c-14.58-2.43-30.47,6.87-44.73,26.2-13.64,18.5-.9,49.75-.35,51.08a3,3,0,0,0,.92,1.17c-.64,9.14-1.47,23.09-1,29.25.63,8.79,6.83,34.13,13.81,39.61a15.06,15.06,0,0,0,5.66,2.58c-1.91,5.42-4.93,16.15-2.54,24.34-8.25,1.84-20.75,5.06-27.53,8.93-9.83,5.61-53.17,33.9-57.21,36.54-5.75-7.91-16.93-19.4-18.7-21.21l-8.06-13h0c-5.12-8.54-24.58-37-27.81-41.72.06-.08.12-.17.19-.25,3.09-4.07,6.94-9.13,8.93-12.88a100.49,100.49,0,0,0,8.16-21.78,85.46,85.46,0,0,1,4.31-12.36,3,3,0,0,0-1.48-3.92c-2.59-1.2-8.65-1.89-13.06,4.13A31.68,31.68,0,0,0,451,140.05l-.7.45c1.78-5.63,6.6-20.92,7.71-24.68,1.41-4.75,2.44-18.33,2.48-18.9a2.26,2.26,0,0,0-.2-1.12,6.05,6.05,0,0,0-4.76-3.74,6.94,6.94,0,0,0-5,1.54l.49-4.77a4.21,4.21,0,0,0-1.79-3.62c-1.43-.95-3.34-.86-5.68.26a10.4,10.4,0,0,0-5.46,5.75c-.17-3.4-1.14-5.79-3-7.21-2.5-2-5.76-1.26-7.3-.55a2.27,2.27,0,0,0-1.18,1.31c-.2.58-.91,2.69-1.78,5.41a1.09,1.09,0,0,0-.13-.17A7.64,7.64,0,0,0,421.45,88a3,3,0,0,0-5.13.75c-.77,1.93-7.51,19-8.28,24.08a83.76,83.76,0,0,1-2.15,8.15c-1.59-6.32-7.55-9.92-10.4-10.57l-.11,0-.37-.06-.15,0a.27.27,0,0,0-.09,0h-.11l-.24,0-.24,0a2.62,2.62,0,0,0-.38.09l-.17,0a3.26,3.26,0,0,0-.38.18l-.14.07-.32.23-.15.12a3.2,3.2,0,0,0-.25.27,1.15,1.15,0,0,0-.14.17c-.07.09-.12.18-.18.27L392,112c0,.09-.08.19-.11.28l-.09.28c0,.09,0,.2-.05.3a1.38,1.38,0,0,0,0,.2c-.07,1-1.67,25.27.13,33.47a69.12,69.12,0,0,1,.71,9.34c.22,5.75.48,12.17,1.78,16.59l-10,17-12.54,19.8c-1.3,1.75-18.85,25.5-24,33.61-3.36,5.27-6.26,7.6-7.54,8.46-1.67-.41-3.48-.79-5.44-1.19a171.11,171.11,0,0,1-25.47-7c-4.5-1.63-13.19-6.73-22.38-12.12-23.2-13.63-40.31-23.14-49-21.29-6.44,1.36-26.86,2.2-48.48,3.1l-.5,0,4-10.08a1.7,1.7,0,0,0,.22,0,3.12,3.12,0,0,0,.85-.12c.68-.2,16.61-4.89,21.1-6.38,5.47-1.82,5.15-9.48,4.59-13.45a7.55,7.55,0,0,0,1.86-7.44s0,0,0,0h0v0c0-.1-.08-.19-.11-.28s-.07-.18-.12-.27a1.67,1.67,0,0,0-.16-.24c-.05-.08-.1-.17-.16-.25s-.12-.11-.17-.17a2.72,2.72,0,0,0-.24-.24l-.15-.1a4,4,0,0,0-.34-.23l-.1,0a2.3,2.3,0,0,0-.43-.18l-.08,0a2.73,2.73,0,0,0-.48-.1.48.48,0,0,0-.12,0,2.46,2.46,0,0,0-.47,0l-.24,0-.33.06c-4.37,1.25-7.71,1.15-9.65-.28a4.57,4.57,0,0,1-.68-.63c.19,0,.37,0,.56,0,7.26,0,14.51-4.25,15.53-4.87a3,3,0,0,0,1-4.12,2.93,2.93,0,0,0-1.27-1.15v-5.53c3.19-1,8.61-3.41,11.14-8.47,3.46-6.91-8.8-18.77-15.39-24.44a85.05,85.05,0,0,0-7.86-36,.05.05,0,0,0,0,0,35,35,0,0,0,2.63-7.82c2.69-14.3-7.77-36.18-8.21-37.11a3,3,0,0,0-4.76-.87c-1.72,1.62-7,6.06-11.06,7.5a10.84,10.84,0,0,0-2.39-10.82,3,3,0,0,0-4.39.17c-2.35,2.28-20.22,5.62-30.9,7.61-7.29,1.36-14.18,2.65-18.6,3.82-13.9,3.68-20.75,17.11-21,17.68a3,3,0,0,0,1.34,4,3.05,3.05,0,0,0,1.34.31,3,3,0,0,0,2.69-1.65c.06-.12,5.9-11.58,17.21-14.57,4.21-1.11,11-2.38,18.16-3.72,16.15-3,26-5,31-7.34a5,5,0,0,1-.24,3,3,3,0,0,0,3.61,4,3,3,0,0,0,.09,1.44,3,3,0,0,0,3.8,1.9c3.67-1.23,7.64-4.05,10.32-6.19,2.73,6.53,7.86,20.51,6.12,29.79-2.34,12.49-19.43,31.34-19.6,31.53a3,3,0,0,0-.39,3.51c5.19,9.09,10.71,23.48,7.54,26.82a3,3,0,0,0,2.19,5.06,3,3,0,0,0,2.18-.94c6.73-7.12-2-25.24-5.66-32a137,137,0,0,0,13.41-18.22c2.28,5.9,5.94,17.53,5.44,30.45a3,3,0,0,0,1.07,2.42c8.43,7.08,15.72,15.89,15,18.11-2.28,4.55-9.24,5.87-9.31,5.89a3,3,0,0,0-2.47,2.95v9.59c-3.79,1.68-9.45,3.41-13.07,1.6l-.09,0-.3-.12-.27-.08-.27,0-.33,0h-.08l-.18,0-.32,0-.28.07-.28.08-.26.12-.26.14-.23.16a2.11,2.11,0,0,0-.23.19,1.9,1.9,0,0,0-.19.21,2,2,0,0,0-.19.22c-.06.09-.12.18-.17.27l-.1.15,0,.09a1.33,1.33,0,0,0-.11.3c0,.09-.07.18-.09.27a2.51,2.51,0,0,0,0,.27c0,.11,0,.22,0,.33v.08c0,.25.05,6,4.62,9.47a12.75,12.75,0,0,0,7.9,2.4c.42,0,.85,0,1.28-.06a3.09,3.09,0,0,0-.24,1.95c.87,4.06.47,8.28-.26,8.52-3.22,1.08-12.82,3.93-17.81,5.41a2.23,2.23,0,0,0-1.42-2,2.26,2.26,0,0,0-2.92,1.26L185.61,209c-13.79-13.81-40.43-11.47-56-8.57,2.09-5,5.3-12.85,7-17.44l1.41.19a26.42,26.42,0,0,1,3,.51,100.59,100.59,0,0,0,18.07,1.84c6.76,0,13.68-1,17.34-4.44,4.34-4.09,7.47-10.13,9.23-14.14a8.38,8.38,0,0,0,4.13,1.13,8.26,8.26,0,0,0,1.1-.08,3,3,0,1,0-.78-5.95c-1.31.17-2.45-.88-3.26-2l0-.06c-.12-.16-.22-.31-.32-.47-3.5-5.37-4.15-15.63-1.29-20.33,1.07-1.76,2-2.39,2.49-2.39h0c.9,0,2.28,1.42,2.89,2.4a3,3,0,1,0,5.12-3.13c-.33-.54-3.35-5.27-8-5.27-2.92,0-5.49,1.78-7.62,5.27-4.3,7.08-3,19.39,1.05,26.15-1.15,3-4.28,10.23-8.79,14.48-4.74,4.46-24,2.6-29.84,1.15a30,30,0,0,0-3.67-.64c-2.57-.32-3.63-.46-5.06-2.62-2.52-3.78-25.8-55.15-28-72.59a41.93,41.93,0,0,1,5.84-27.5A3,3,0,0,0,106.69,71a47.21,47.21,0,0,0-6.92,31.75c2.29,17.92,25.59,70.08,29,75.16a12.91,12.91,0,0,0,2.36,2.7c-2.12,5.81-7.18,17.89-8.61,21.3-2.72.66-4.48,1.17-4.85,1.28a3,3,0,0,0-1.88,1.63L107.53,223c-23.66,9-46.34,23.41-47.64,24.24a3,3,0,0,0-1.24,3.43,3,3,0,0,0-2.95.66c-.5.47-12.37,11.76-9.92,28.13,1.24,8.26-1.89,17.24-5.52,27.63a180.52,180.52,0,0,0-7.2,24.59c-4.15,20.74-8.34,48.78-9,52.89C21.78,389,5.05,421.62.05,450.23a3,3,0,0,0,2.43,3.47,3.15,3.15,0,0,0,.52.05,3,3,0,0,0,3-2.48c5.1-29.17,23.5-64,23.69-64.36a3.13,3.13,0,0,0,.32-1c0-.3,4.54-30.93,9-53.09a176.53,176.53,0,0,1,7-23.79c3.89-11.15,7.25-20.78,5.79-30.5-2-13.16,7.94-22.73,8.08-22.86a3,3,0,0,0,.8-3.09,3,3,0,0,0,2.51-.32c.43-.28,43.25-27.4,71.45-30.3,13.22-1.35,33-2.2,52.44-3a3.26,3.26,0,0,0,.88,0l1.77-.08c22.83-.94,42.54-1.75,49.47-3.22,7.12-1.5,29.75,11.79,44.74,20.59,9.84,5.78,18.35,10.78,23.37,12.59a174.84,174.84,0,0,0,26.3,7.21c8.74,1.8,11.88,2.62,14.13,6.48a3,3,0,0,0,2.59,1.49,2.93,2.93,0,0,0,1.51-.41,3,3,0,0,0,1.08-4.1,14.55,14.55,0,0,0-6.06-5.84,41.26,41.26,0,0,0,6-7.54c4.8-7.54,21.3-29.92,23.57-33,3.34-2.45,6.66-3.3,10.16-2.59,7.86,1.59,14.32,10.47,16.55,13.88-3.88,7.64-20.78,41.08-24.84,51.23C373.74,286.84,361,307.24,350.6,306c-5.45-.64-12.59-.75-20.86-.88-11.48-.17-25.76-.38-41.41-2.12-25.64-2.85-38.16-12.3-38.32-12.43a3,3,0,0,0-3.69,4.73,49.27,49.27,0,0,0,9.11,5.18C234,300,223.38,282.82,222.86,282a3,3,0,1,0-5.15,3.07c.12.21,9.61,15.73,28.38,20.25a2.89,2.89,0,0,0-.09.6c-.14,3.54-3.47,87.05,4.1,110.54,7.27,22.52,7.15,58,7.15,58.31a3,3,0,0,0,3,3h0a3,3,0,0,0,3-3c0-.49,0-4.59-.23-10.68l18.62,7.45a3,3,0,0,0,1.11.21,3,3,0,0,0,1.68-.52,3,3,0,0,0,1.32-2.48V443.58a2.94,2.94,0,0,0-.49-1.63c-11.14-17.11-32.07-78.77-34.06-84.68-.19-25.18.71-48.82.79-51,1.46.14,3,.22,4.51.22a50.32,50.32,0,0,0,10.63-1.16,3.42,3.42,0,0,0,.72-.26A117.62,117.62,0,0,0,287.67,309c15.93,1.77,30.38,2,42,2.16,8.11.13,15.11.23,20.25.84a14.12,14.12,0,0,0,1.59.09c15.14,0,28.65-25.08,32.3-34.21,4.39-11,25.16-51.82,25.38-52.25h0l8.76-17.21a3,3,0,0,0,.11-2.48c-.08-.19-.18-.36-.26-.55l8.05-19.11c4.59,11.64,17.44,44,20,48.81h0v0l8.64,15.77c-1.57,3.25-4.66,10.77-2.62,16.2,0,0,0,.05,0,.07h0a2.32,2.32,0,0,0,.3.56l0,.07c.53.76,13.22,18.84,27.46,29.2,2.16,1.57,4.14,3,6,4.37,9.49,7,14.52,10.7,18.45,10.7a5.92,5.92,0,0,0,2.77-.69c2.67-1.39,31.43-21.51,46.38-32-2.89,7.41-5.92,16.24-7.3,23.61-3.11,16.68,4,40.39,9.14,57.69,2.36,7.93,4.59,15.41,4.49,18.16-1.16,4.3-14.59,53.62-23.76,65.86a3,3,0,0,0-.36,3,26.65,26.65,0,0,0,3.24,5.25c-1.89,5-7.24,19.78-7.82,30.43a3,3,0,0,0,2.83,3.15h.17a3,3,0,0,0,3-2.84c.45-8.32,4.3-20,6.51-26.08a20.23,20.23,0,0,0,8.24,3.84,3,3,0,0,0,2.44-.56l22.2-17.12a118.34,118.34,0,0,0,4.8,23.67,3,3,0,0,0,2.56,2.06c1.33.13,14.91,1.43,31.82,1.43,18.85,0,41.83-1.62,56.59-8.24,1.87,4.11,5.07,12.34,5.3,20.92a3,3,0,0,0,3,2.92h.08a3,3,0,0,0,2.92-3.08c-.25-9.93-3.91-19.14-6-23.6a25.92,25.92,0,0,0,5.22-4.33,3,3,0,0,0,.54-3.17c-6.27-15.06-21.66-57.33-17.86-72.2a164.5,164.5,0,0,1,37-61.64c5.32,17.79,10.79,37,12.07,46.33,2.44,17.92,5.67,36.34,6.18,39.21L716,458.25a3,3,0,0,0,2.75,3.23H719a3,3,0,0,0,3-2.76l4.45-54.6a2.87,2.87,0,0,0,0-.77c0-.2-3.58-20.07-6.21-39.35-1.71-12.53-10.37-41.1-16.7-62-3-10-6.2-20.42-6.4-22.13a3,3,0,0,0-6,.1c0,1.71,1.63,7.21,6.65,23.77.8,2.62,1.63,5.36,2.48,8.18a3,3,0,0,0-.58.54l-.5.51a170.38,170.38,0,0,0-39.68,65.41l0,.08s0,0,0,0a152.06,152.06,0,0,0-5.29,21.61,3,3,0,0,0,2.47,3.45,2.81,2.81,0,0,0,.5,0,3,3,0,0,0,2.95-2.5c.06-.35.13-.7.19-1,3.87,20.48,13.67,45.58,16.53,52.67a23.09,23.09,0,0,1-3.88,2.75,2.85,2.85,0,0,0-1,.35,2.72,2.72,0,0,0-.8.66c-20.27,10.16-65,8.92-84.86,7.17-1.52-5.27-5.47-20.43-3.73-30.38,2.25-12.83,3.65-77.76,3.76-82.95,1.32-7.2,5-17.49,10.09-29.18a3,3,0,0,0,1.27.3,2.91,2.91,0,0,0,1.57-.45c7.33-4.54,44-27.43,47.59-32.57s1.55-18.19.7-22.8L659.24,263a3,3,0,0,0,2.29-2.35c.32-1.66,6.73-34.88,8.2-52.2,10.63,5.39,39.28,19.89,49.7,25.19,11,5.59,15,22.5,15.3,24,.62,5,16.86,137,16.86,149s-10.32,71-10.42,71.57a3,3,0,0,0,2.43,3.47,2.38,2.38,0,0,0,.53,0,3,3,0,0,0,3-2.48c.43-2.45,10.51-60,10.51-72.61S741.36,262.35,740.67,256.74ZM133.94,216a92.33,92.33,0,0,0-18.57,4.21l5.28-11.64c7.48-2,45.11-11,60.71,4.62C163.61,214,146.11,214.77,133.94,216ZM279.75,444.46v19.86l-17.06-6.83c-.78-12.57-2.59-29.64-6.88-42.91-2.41-7.48-3.64-21.88-4.21-37.81C259.05,397.79,271.5,431.25,279.75,444.46Zm309.68-271c-4.48-3.52-10.84-25.64-11.54-35.32a163.79,163.79,0,0,1,.29-16.39,2.9,2.9,0,0,0,2.44,1.81c1.72,0,3.12-2.09,3.12-4.67s-1.4-4.67-3.12-4.67a2.63,2.63,0,0,0-2.08,1.23c.29-4.59.59-8.74.79-11.35,7.31-.79,11.76,1.21,11.76,1.21s2.61-1.66.78-3.16-7.46-2.11-12.33-1.44c0-.14,0-.28-.07-.41C583.31,87.88,592.1,73.53,606.08,70c.1,2.94,1.44,6,4,9.08s7.14,6.64,11.84,10.25c8.45,6.49,19,14.57,19.35,22.33.63,12.87,0,16.69,0,16.7a3,3,0,0,0,.58,2.37,3,3,0,0,0,2.14,1.15,38.88,38.88,0,0,0,11.52-1,5.4,5.4,0,0,1-.79,2.61c-1.48,2.4-5.2,3.9-10.74,4.35a3,3,0,0,0-2.74,3.23,3,3,0,0,0,.26,1,3,3,0,0,0-.18,2c.31,1.22,7,27.31,11.48,42.17.16,6.21-.56,22.37-5.82,28.35-1.51,1.72-4.89,6.9-9.37,14.34-14.79,8.65-31.24,1.68-35.1-.2.68-8.3,6.12-18,9.32-23l.06.53a3,3,0,0,0,3,2.67,1.83,1.83,0,0,0,.33,0,3,3,0,0,0,2.65-3.31c-.82-7.43-3.63-22.63-4.69-28.25a18,18,0,0,0,2.29-1.6c6.72-5.58,20-19.19,20.58-19.76a3,3,0,1,0-4.29-4.19c-.14.13-13.65,14-20.12,19.34C606.08,175.82,594,177.06,589.43,173.46Zm43.09,64.25c-7.87,13.56-17.66,31.39-26.67,49.26-1-14.47-2.62-39.32-3.18-51.54a50.35,50.35,0,0,0,18.78,3.87A38.77,38.77,0,0,0,632.52,237.71ZM608.89,187a3,3,0,0,0-1.23.78,137.77,137.77,0,0,0-12.06,15.87l-.87.17c-2.22-6.55.74-17,2.77-22.37h.15a33.06,33.06,0,0,0,9.94-1.55C607.94,181.8,608.4,184.29,608.89,187ZM453.82,111.76c1.63-3.79-.55-7.11-3-9.22a10.87,10.87,0,0,1,1.66-4.64A3.21,3.21,0,0,1,455,96.53a1.31,1.31,0,0,1,1,.71c-.34,4.23-1.26,13.93-2.26,17.3-.62,2.1-2.47,8-4.27,13.76.29-2.5.48-4.3.54-4.89A105.51,105.51,0,0,1,453.82,111.76Zm-8.35-22.23a7.71,7.71,0,0,1,1-.39l-1.09,10.68c-.42-2.94-1.38-5.08-2.87-6.44-.11-.1-.22-.17-.33-.26A6.05,6.05,0,0,1,445.47,89.53Zm-39.33,128.8c-3.58-4.81-10.16-12-18.43-13.69a17.51,17.51,0,0,0-5.81-.21l6.66-10.51c4.25-.17,17.54.39,23.38,13Zm22-45.36a3,3,0,0,0-3.92,1.6L414,198.89c-6.05-7.75-15-10.49-21.86-10.95l12.2-20.73a3,3,0,0,0-5.18-3l-.16.29c-.27-2.88-.39-6-.5-8.83a69.12,69.12,0,0,0-.84-10.4c-1.1-5-.71-18.53-.28-27a8.33,8.33,0,0,1,2.8,4.58,31.49,31.49,0,0,1,0,10.39,2.9,2.9,0,0,0-.05.88l.5,5.33a3,3,0,0,0,3,2.72h.29a3,3,0,0,0,2.7-3.27l0-.25c1.07-3.22,6.64-20.11,7.38-24.88.47-3.06,4.3-13.51,7.17-20.88a2.91,2.91,0,0,1,.27.24c.9,1,1.25,2.74,1,5.07a51.79,51.79,0,0,0-1.86,8.46c-.28,4.18-5,24.12-6.25,29.1a2.25,2.25,0,0,0,1.63,2.73,2.13,2.13,0,0,0,.55.07,2.24,2.24,0,0,0,2.18-1.71c.06-.23,6-24.55,6.38-29.89.23-3.39,3.73-14.43,5.46-19.6a2.28,2.28,0,0,1,1.83.27c.53.42,2.13,2.42.61,10.58L430.85,110c-.61,1.93-1.13,3.55-1.47,4.51-1.54,4.37-4.47,20.66-4.59,21.35a2.24,2.24,0,0,0,1.81,2.61,1.87,1.87,0,0,0,.4,0,2.27,2.27,0,0,0,2.22-1.85c.82-4.61,3.22-17.31,4.4-20.65s4.57-14.59,5.95-19.19c.76.81,2.85,4.39.3,17.89h0a9.22,9.22,0,0,0-.36,1.57c-.17,1.71-3.27,14.59-5.19,22.31a2.25,2.25,0,1,0,4.36,1.09c.52-2.08,5.05-20.36,5.31-22.95.11-1.11,2.08-5.92,4.17-10.55,1.1,1,2.13,2.4,1.53,3.81a108.68,108.68,0,0,0-4.11,12.44,2,2,0,0,0-.07.35c0,.18-1.52,14.57-3.44,25.4a9.75,9.75,0,0,0-1.34,3,3,3,0,0,0,.31,2.14c-.23,1-.47,2-.7,2.8-2.1,7.36-7,13.61-11,17.75A2.92,2.92,0,0,0,428.16,173Zm22.65,58.67c-2.94-6.08-14.89-36.09-21-51.68l-.07-.14c4.54-4.13,12-12.2,14.94-22.46.27-.92.53-2,.78-3.1a3,3,0,0,0,1.13-1.7c.58-2.44,5.51-6.25,8.67-8.05a3,3,0,0,0,1.5-2.37,24.46,24.46,0,0,1,4.68-11A6.3,6.3,0,0,1,464,129a67.81,67.81,0,0,0-3.05,9.52,94.88,94.88,0,0,1-7.59,20.22c-1.76,3.32-5.6,8.37-8.41,12.06-4.62,6.06-5.58,7.33-4,9.42a3,3,0,0,0,4.21.54,2.83,2.83,0,0,0,.7-.77c5.25,7.68,20.94,30.72,25.91,38.85-.06,1.81-.81,7.43-7.16,12.45C458.61,236,452.54,232.77,450.81,231.64ZM468.36,236a25.19,25.19,0,0,0,7.83-10.09l4.32,7h0l1,1.67A25.67,25.67,0,0,1,472.83,253a52,52,0,0,1-7.41,5.35l-10.28-18.75A16.72,16.72,0,0,0,468.36,236ZM458.2,257.65l1.88,3.43c-1.08.47-2,.84-2.87,1.13A19.61,19.61,0,0,1,458.2,257.65Zm122.08,91.9a3.42,3.42,0,0,0,0,.46c0,.69-1.47,69.64-3.68,82.28a35.59,35.59,0,0,0-.45,4l-24.57,19c-5.23-1.64-8.47-6.2-9.84-8.53,10.07-15.62,23-64,23.74-66.59v0l0,0c0-.05,0-.11,0-.17a2,2,0,0,0,.07-.35v-.1c.26-3.57-1.54-9.81-4.72-20.47-5-16.72-11.83-39.62-9-54.88,2.8-15,13.32-37.45,13.43-37.67a3,3,0,1,0-5.43-2.56c-.12.26-1,2.2-2.33,5.18-20.42,14.37-51,35.73-53.34,37-1.74.31-8.15-4.46-15-9.48-1.83-1.35-3.82-2.82-6-4.39-9.88-7.19-19.25-18.73-23.57-24.41a54.81,54.81,0,0,0,17.12-10.2A31.26,31.26,0,0,0,487,239.7c4.61,5,10.62,11.72,13.52,16.18,4.82,7.42,5.12,11.86,4.76,22.64a3,3,0,0,0,2.9,3.1h.1a3,3,0,0,0,3-2.9c.34-10.3.06-15.9-3.91-23.1,3.34-2.18,47.34-30.9,56.95-36.38,6.36-3.63,19-6.79,26.91-8.51-6.53,11-13.25,25.42-16.56,41.67a3,3,0,0,0,.92,2.82l5.33,4.84c-1.69,5.34-4.91,16.3-4.28,20.42.7,4.5,12.1,30,14.38,35.13a3.1,3.1,0,0,0,.8,1C586,329.83,581.7,341.53,580.28,349.55Zm14.62-39.89c-5.36-12.06-12-27.63-12.37-30.1-.28-1.82,1.31-8.5,3.26-15l5.91,5.38a3,3,0,0,0,4-4.44l-9.43-8.58h0l-5.43-4.94c6.22-28.17,23.46-50.77,29.27-57.78.29,1.73.58,3.45.83,5.09a2.3,2.3,0,0,0-.37.39c-.5.68-11.71,16.1-12.54,29.32a2.88,2.88,0,0,0-.41.56,3,3,0,0,0,.43,3.51c.5,13.22,3,50.41,3.81,61.92C599.44,299.93,597.09,304.86,594.9,309.66ZM656,257.59l-24.57,5.55a3,3,0,0,0,1.32,5.85l8.84-2c1.33,7.23,1.78,15.82.23,18.06-1.94,2.67-22.33,16.22-42.16,28.62,18-39.45,47.38-89.94,51.88-95.05,5.51-6.26,6.93-18.59,7.25-26.31a3,3,0,0,0,1.13-1.47A17.41,17.41,0,0,1,664,201.19C664.63,209.43,659.25,240.61,656,257.59Zm46.42-41.23a2.68,2.68,0,0,1-1,1.41L670,201.89q0-.63-.06-1.17c-1-12.74-9.63-17.37-10-17.56a3,3,0,0,0-1.86-.28c-4-13.45-9.47-34.68-10.67-39.32,6.09-1,10.29-3.27,12.5-6.91,3.11-5.11.85-10.66.75-10.89a3,3,0,0,0-4.11-1.52c-2.56,1.28-6.29,1.68-9.05,1.75.1-2.7.12-7.25-.24-14.58-.51-10.54-11.76-19.18-21.68-26.8-4.43-3.4-8.62-6.61-10.9-9.34-2-2.34-2.86-4.49-2.6-6.22a3.69,3.69,0,0,1,.4-1.24h0A5.1,5.1,0,0,1,614,66.05,3,3,0,0,0,610.82,61a10.7,10.7,0,0,0-2.72,2.61C592,65.81,580,80.22,574.47,96.17c-2.55-10-4.69-25.49,2.72-35.54C589.86,43.47,604,34.78,616.11,36.79a3,3,0,0,0,3.38-2.21.61.61,0,0,0,0,.11,3,3,0,0,0,3.94,1.56,3.07,3.07,0,0,0,.68-.41c1.81,0,7.23.66,23.33,4.25,9.74,2.18,19.37,5,30,15.86,6.09,6.18,24,42.26,7.13,76-16.66,33.3,2,58.56,12,72.13,1.11,1.51,2.1,2.86,2.92,4.05C702.78,212.83,702.73,215.31,702.42,216.36Z"/><path class="cls-1" d="M587.49,140.74a1.5,1.5,0,0,0,.13-3c-2.07-.2-5.43-1-6-2.2-.06-.1-.18-.34.13-.93l5.57-10.35-2.65-1.42-5.56,10.35a3.82,3.82,0,0,0-.14,3.77c1.61,3,7.3,3.66,8.42,3.77Z"/><path class="cls-1" d="M605.21,146.56c.2-.15.4-.29.6-.45a2.25,2.25,0,1,0-2.89-3.45c-9.94,8.32-18.43,3-18.81,2.71a2.25,2.25,0,0,0-2.49,3.75,16.24,16.24,0,0,0,3.43,1.56c-.06,2.26.17,6.77,2.73,9.14a5.6,5.6,0,0,0,3.93,1.49,7.84,7.84,0,0,0,1.4-.13C599.72,160,603.78,150.55,605.21,146.56Zm-12.63,11.67a3.07,3.07,0,0,1-2.76-.6c-1.4-1.29-1.75-4.14-1.77-6.19a19.17,19.17,0,0,0,3.43.31,20.45,20.45,0,0,0,9.28-2.31C598.88,153.36,596,157.61,592.58,158.23Z"/></g></g></svg>