<svg xmlns="http://www.w3.org/2000/svg" viewBox="0 0 543.28 493.64"><defs><style>.cls-1{fill:#fffc19;}.cls-2{fill:#32b0ff;}.cls-3{fill:#d5d5d2;}.cls-4{fill:#fff;}.cls-5{fill:#b2e2f9;}.cls-6{fill:#8a8e8d;}.cls-7{fill:#231f20;}.cls-8{fill:none;}.cls-9{fill:#464948;}.cls-10{fill:#1e181c;}.cls-11{fill:#efefed;}</style></defs><g id="レイヤー_2" data-name="レイヤー 2"><g id="レイヤー_4" data-name="レイヤー 4"><path class="cls-1" d="M386.24,381.6c1.37-9,1.58-18.3,2-27.38,1-19.7,1.39-39.32.65-59-.6-16.12-.45-32,2.18-48,3.88-23.64,11.51-46.52,16.1-70,.3-1.53.58-3.06.87-4.59-12.22,5.53-27.35,6-38-3-2.19,8.66-3.46,17.63-4.89,26.29-3.62,21.82-5.58,43.68-3,65.72,2.8,23.92,7.22,48.2,6.18,72.36-.7,16.21-3.17,32.58-5.74,48.59a1.7,1.7,0,0,1-.5,1c5.48.11,19.13-.41,24.76-.15A1.93,1.93,0,0,1,386.24,381.6Z"/><path class="cls-2" d="M499,332.47c.2-38.67-7.61-76.88-13.22-115-1.48-10-3-20.25-6.16-29.92-1.32-4-3.05-9.4-6.7-12-2.41-1.68-5.9-2.39-8.63-3.5-11.27-4.57-22.32-9.76-33.28-15,.54,1.19,1.06,2.33,1.59,3.39,1.59,3.21,6,8.11,2.76,11.49a18.74,18.74,0,0,1-5.24,3.26c1.27.89,2.55,1.77,3.84,2.61,2,1.31,5.39,2.46,6.44,4.89,1.62,3.77-3.19,8.92-4.91,11.92a287.74,287.74,0,0,0-18.85,39.85c-9.66,25-20,51.51-23.54,78.23.17,17-.62,34.09-1.67,51.07-.39,6.25-.68,12.59-1.62,18.78a1.67,1.67,0,0,1-.53,1c7.38.53,52.4,1.68,61.85.05a1.61,1.61,0,0,1-.58-1c-1.88-10-6.33-19.31-9.26-29.05-3.78-12.57-6.38-25.13-4.69-38.25,2.37-18.49,9.37-37.08,17.92-53.6a1.8,1.8,0,0,1,.72-.77c-3-8.84-6.05-17.67-9-26.52-2.76-8.22-2-17-1.05-25.48.27-2.44,3.81-1.42,3.55.95-.69,6.23-1.59,13.55-.15,19.8.74,3.15,2,6.25,3.1,9.31,7.19,21,16.14,42.42,20.41,64.26,1.8,9.18.75,19.35,1.05,28.65.54,16.72,1.26,33.47,2.86,50.12a1.57,1.57,0,0,1-.67,1.56c7.83,1.41,14.81,5,21.39,5.78a2,2,0,0,1-.1-.8C498,369.92,498.89,351.17,499,332.47Z"/><path class="cls-3" d="M281.19,240.64c-.41-1.22-.82-2.47-1.23-3.73a14.15,14.15,0,0,0-1.34,4.47c.05.09.09.19.13.28s0,.05.07.06C279.65,242,280.48,241.18,281.19,240.64Z"/><path class="cls-2" d="M359.09,381.6c2.42-15.09,4.63-30.41,5.53-45.66a222.42,222.42,0,0,0-1.39-36.68,2.13,2.13,0,0,1-.24-.57c-4.77-20.32-9.4-40.69-13.46-61.17-2.9-14.61-5.13-29.36-7-44.13-.59-4.53-2.1-9.38,1.95-12.7,3-2.47,7.1-4.17,10.95-5.64a7.49,7.49,0,0,1-2.78-4.4,5.91,5.91,0,0,1,.31-2.74,182.61,182.61,0,0,0-17.21,10c-4.18,2.8-6.23,5.18-7.68,10a105.54,105.54,0,0,0-3.13,16.65,279.39,279.39,0,0,0-2,32.84c-.09,9.57.8,20-1.2,29.41a1.7,1.7,0,0,1-.7,1.1c4.14,8,8,16,9.58,25.24.4,2.36-3.1,3.51-3.51,1.09C324.33,277.85,314,265.36,308.42,250c-2.58-7.15-4.89-14.4-7.13-21.66-.55-1.77-1.23-4.33-1.87-6.6-3.83,6.77-8.07,13.6-13.29,19.29-1.37,1.49-3.45,3.71-5.7,4.41,7,16,13,32.29,19.51,48.46,3.87,9.61,8,20.21,14.93,28.09,3.38,3.82,8.47,7.76,13.84,7.45,4.8-.27,7.44-4.18,9-8.26A159.51,159.51,0,0,0,332.57,278c-3.21-12.44-6.3-25.44-3.86-38.29,2.36-12.44,5-24.49,5.33-37.23.07-2.44,3.73-2.52,3.66-.07-.37,12.83-2.77,25.07-5.3,37.59-3.06,15.13,2.16,30.19,5.75,44.73a135.6,135.6,0,0,1,3.75,35.47v0c-.49,21.55-5.65,43.07-14,62.81a1.76,1.76,0,0,1-.41.61c4.74-.05,25.75-.27,32.34-.13A1.93,1.93,0,0,1,359.09,381.6Z"/><path class="cls-4" d="M292.46,191.3c2.24-15.13.56-30.28,1.2-45.56-7.06-.61-6,16.91-6.25,21.66a20.78,20.78,0,0,1-.33,2.95,1.77,1.77,0,0,1-.34,1.31,12.05,12.05,0,0,1-.72,1.84c-2.41,4.83-4.59,9-5.67,14.44-.49,2.41-4,1.41-3.56-.95,1.24-6.18,4.24-10.4,6.39-16l0-.1c-3.4-5.53-6.87-9.89-7.39-16.55-.56-7.23-1.76-14.2-2.94-21.35-.52-3.13-.58-11.27-4.79-10.89.73,11.69,2.33,23.35,3.72,35a1.76,1.76,0,0,1-.07.81c.32,1.16.63,2.31.95,3.46.64,2.33-2.86,3.46-3.51,1.08-1.61-5.86-3.3-11.7-5-17.54-1.34-4.72-3.51-25.34-10.63-23.7,3.57,12.68,6.67,25.51,9.93,38.27a2,2,0,0,1,.05.83c.8,1.37,1.64,2.72,2.56,4.05,1.37,2-1.72,4-3.12,2a70.37,70.37,0,0,1-8.87-17.13c-1.15-3.31-2-6.68-3-10-.27-.92-.55-1.84-.83-2.76a6.65,6.65,0,0,0-3.48-4.43,2.75,2.75,0,0,0-.26.22c.51,6.63,3.67,13.69,6,19.8,1.84,4.84,3.75,9.65,5.69,14.45.5.75,1,1.49,1.52,2.24,1.32,2-1.78,4-3.13,2-3.66-5.57-7.48-11.07-11.62-16.3-.81-1-6.78-8.89-6.48-4.52.07,1.15,1.68,3.07,2.23,4.06,4.32,7.93,9.4,15.81,13,24.07,2.52,5.7,4.47,11.4,7.82,16.74,3.56,5.67,8.83,10.19,11.93,16.13,4.44,8.52,7.46,17.9,10.54,27a68.74,68.74,0,0,0,4.6-6.15c2.48-3.55,4.81-7.23,7-11C293.65,210.86,291,201.38,292.46,191.3Z"/><path class="cls-4" d="M357.9,112.46c.49,1,1,2.07,1.49,3.1,1.28,2.69,2.57,7.7,5.69,8.57,4.42,1.22,7.59-7.68,9.29-12.81a57.1,57.1,0,0,1-10.7,1.9A16,16,0,0,1,357.9,112.46Z"/><path class="cls-4" d="M412.11,146.14c-1.11-13.92-1.78-27.88-2.51-41.82a4.63,4.63,0,0,1-5.76-2.72c-1-2.16,2.12-4.23,3.13-2,1.85,4.12,5.8-3.82,6.53-5,1.67-2.69,6.57-7.72,6.54-10.81,0-2.55-2.24-6.39-5.06-5.2-1.08.46-2.2,2.46-2.79,3.35A35.4,35.4,0,0,0,410,85.79a1.59,1.59,0,0,1-2.13.84,1.77,1.77,0,0,1-1,.08c-2.06-.38-2.74-1.41-3.43-3.27-.91-2.47-.94-4.7-2.62-7-.45-.59-1.11-1-1.54-1.62-3.26-4.5-1.25-11-4.57-15.07-1.55-1.9-4.54-3.24-6.43-4.84A34.88,34.88,0,0,1,380,45.05a26.73,26.73,0,0,1-3.34-11.47C365.72,32.49,352.47,36.11,347,46.5c-3.69,7-3.54,14.66-2.74,22.34a11.54,11.54,0,0,1,5.47-1.58c3.26-.21,5.22.13,7.12,1.36,1.69,1.09,2.45,3.14,1.49,3.34a33.08,33.08,0,0,0-13.78-.5c.25,2.16.53,4.31.76,6.44a5.81,5.81,0,0,0,.81.62,15.15,15.15,0,0,1,9.29-.58c1.16.23,1.13,1.14-.29,1.85a5.49,5.49,0,0,1,.95,3.09c0,2.76-2,5-4.38,5s-4.37-2.25-4.37-5a5.52,5.52,0,0,1,.26-1.64,3.88,3.88,0,0,1-2.05-1.1c.17,1.92.29,3.83.29,5.7,0,9.26.75,16.43,4.3,25.06,3,7.24,6.63,14.63,11.55,20.76,2,2.49,3.9,4.82,7.25,4.74,4.47-.1,9-2.85,12.58-5.29a64.35,64.35,0,0,0,18-19c1.28-2.09,4.45-.18,3.2,1.87a70.75,70.75,0,0,1-16.4,18.31,48,48,0,0,1-10.57,6.55c.47,3.74.88,7.55,1.09,11.37a1.86,1.86,0,0,1,.05.85,70.32,70.32,0,0,1-.42,12.41c-.32,2.44-3.86,1.42-3.55-.95.13-1,.23-2,.3-2.94-.73,2-1.37,3.95-2,6,9.77,9.33,24.75,8.82,36.22,3.2a1.83,1.83,0,0,1,1.4-.11c1.33-7.26,2.5-14.56,3.42-21.88A2,2,0,0,1,412.11,146.14Zm-55.86-49,2.94-11.93c.6-2.39,4.14-1.4,3.56.94q-1.17,4.72-2.33,9.43c-.12.5-.28,2-.54,3.19L361,99c1.87.31,3.73.63,5.58,1.06,2.29.53,1.43,4.24-.9,3.7s-4.84-.78-7.22-1.34a3.51,3.51,0,0,1-2.46-1.26C355.24,100,356,98.32,356.25,97.11Zm23,12.61c-.55.21-1.12.42-1.7.62-1.9,5.62-4.53,16.1-11,16.83-4.14.46-6.1-2.85-7.59-6.08s-3.16-6.67-4.78-10l-1.56-.68c-1.61-.72-.31-3.24,1.34-2.5.48.21,1,.41,1.46.59a1.12,1.12,0,0,1,.35.12c7.44,2.61,15.33,1.22,22.74-1.66C380.18,106.32,380.92,109.09,379.29,109.72Zm1.36-28.48a5.52,5.52,0,0,1,.26,1.64c0,2.76-2,5-4.37,5s-4.38-2.25-4.38-5a5.49,5.49,0,0,1,.95-3.09c-1.42-.71-1.45-1.62-.29-1.85a15.15,15.15,0,0,1,9.29.58,6.07,6.07,0,0,0,1.72-1.61S384.08,80.5,380.65,81.24Zm5.27-9.19c-7.46-2.48-16-.09-16-.09-1-.2-.2-2.25,1.5-3.34,1.89-1.23,3.85-1.57,7.11-1.36,4.9.31,7.09,2.6,8,4A.5.5,0,0,1,385.92,72.05Z"/><path class="cls-5" d="M373,148.52c-2.71,3-5.38,6-8,9.08s-5.92,6.34-7.7,9.89c-1.66,3.33.19,4.51,2.43,6.41a1.57,1.57,0,0,1,.59.53,1.72,1.72,0,0,1,.07,2.34,1.83,1.83,0,0,1-.92.75c-4.88,1.88-13.37,4.13-14.14,9.92-.67,5.06,1.53,11.88,2.25,16.89q2.93,20.29,7.07,40.33,2.14,10.35,4.43,20.65c-1.45-13.32-2.34-26.66-1.3-40.11A402.64,402.64,0,0,1,363.94,182c2-10.88,4.21-21.75,9.23-31.71C373.13,149.71,373.09,149.12,373,148.52Z"/><path class="cls-5" d="M425.68,154.44a1.59,1.59,0,0,1-.62-1.39c-2.48-5.56-5.46-11.79-9.88-15.24.09,1.33.18,2.65.28,4a2,2,0,0,1,.84,1.91c-1.62,14.55-4.34,29-7.37,43.34-4.87,23-12.51,45.5-15.41,68.91-1.62,13-1.33,26.05-.91,39.11,4.33-18.67,11.27-37,17.87-54.72a327.52,327.52,0,0,1,14.7-34.52q4.57-9,9.76-17.63c1.14-1.9,1.59-1.88.73-3.94s-2.74-2.58-4.37-3.67c-1.93-1.28-3.84-2.61-5.68-4a2,2,0,0,1-.4-.42,1.83,1.83,0,0,1,.21-2.79,1.47,1.47,0,0,1,.88-.47c1.92-.9,5.43-2.21,6.1-3.53.83-1.63-3.87-8.78-4.92-10.95C426.9,157.19,426.3,155.84,425.68,154.44Z"/><path class="cls-6" d="M461.93,166.43c2.75-1.94-1.8-9.93-2.25-12.6-.74-4.41,1.59-8.65.79-13-1-5.48-5.89-8.58-8.38-13.17a12.2,12.2,0,0,1-1.2-3.66c-.65-3.51-.46-4.94-4.12-6.58-6.71-3-10.38-3.28-13.62-10.57a101.13,101.13,0,0,1-6.49-18.23c-.53-2.35,3-3.48,3.52-1.08a65.43,65.43,0,0,0,2.29,7.2c1.26,3.62,2.4,8.55,4.58,12.32-.46-3.41.25-7.17.21-10.76,0-4.63-1.85-9.14-2.91-13.62-3.38-14.27-.61-29.18-5.1-43.29a87.15,87.15,0,0,0-8.94-18.93c-3.64-5.86-9.66-8.69-16.23-10.07-2.23-.47-5.86-.58-7.31-1.2-3.08-1.32-5.61-3.33-9-4.3C378.4,2.16,369.25,4.48,361,9.33c-6.53,3.84-13.4,8.11-19,13.26-8.43,7.76-9.62,18.36-9.71,29.25-.11,13.66.94,27.33.4,41-.21,5.21-.5,10.63-2.06,15.63s-4.49,9.66-3.78,15c.62,4.58,2.69,8.43.6,13-1.34,2.93-3.33,5-1.87,8.53.87,2.13,2.6,2.64,3.88,4.34,3.71,4.95.68,10.83,1.2,16.18.36,3.71,3.85,5.09,5.77,7.5q2.89-1.84,5.89-3.57a12.35,12.35,0,0,1-1.58-4c-.71-3.57.86-5.52,1.47-8.76.66-3.5-2.6-3.67-4.49-5.92a11.22,11.22,0,0,1-2.55-6.69c0-2.25.82-3.38,1.72-5.26,2-4.2-1.69-6.29-2.55-10.38-.71-3.36.3-5.93,1.6-8.94,1.94-4.5,2.67-8.67.26-13.16-1.12-2.11,2-4.17,3.13-2a17.6,17.6,0,0,1,1.18,14.24c-1.54,4.25-3.88,6.72-1.6,11.52.6,1.27,1.61,2.32,2.14,3.62a6.32,6.32,0,0,1,.21,5.32c-1.55,3.56-4.26,5.83-.22,9.8,1.38,1.36,3.62,1.78,4.74,3.43,3.23,4.78-3.87,10.07-.26,15.37q3.74-2,7.51-4c-1.12-2.66-1.24-4.44.15-7.1s3.54-4.95,1.42-8.11c-.81-1.21-2.72-1.94-3.8-3-4.82-4.64-4-11.75-.85-17.12a1.85,1.85,0,0,1,3.2,1.86c-2.33,4-3.23,8.85.19,12.51,1.47,1.57,3.62,2.32,4.82,4.2a8.31,8.31,0,0,1,.91,6.1c-.51,2.71-4,6.18-2.77,9a.64.64,0,0,1,0,.07,1.72,1.72,0,0,1,.45,0l.42-.53a235.57,235.57,0,0,1,15.4-18c-.13-1.18-.26-2.34-.41-3.51a12.38,12.38,0,0,1-6.07.11c-4.43-1.16-7.69-6.37-10-9.91a102.69,102.69,0,0,1-10-19.67,54.84,54.84,0,0,1-3.91-22.62c.22-9.72-2.59-19.07-1.69-28.9.58-6.39,1.71-12.84,5.9-17.84,8.15-9.71,20.39-12.82,32.62-11.11a1.9,1.9,0,0,1,1.38,1.82c-.37,5.7,2.36,11.6,5.94,15.86,3.35,4,8.84,6.14,11.8,10.26s1.09,9.73,3.63,13.94c.83,1.37,2.31,2.33,3.18,3.73.73,1.19,1.47,5.93,2.53,7.1,1.64-3.19,4-7.27,7.35-8.41,4.7-1.61,8.53,4.84,8.89,8.73s-1.48,6-3.69,8.74c-2.54,3.18-4.17,7-6.72,10.14l-.15.17a2.13,2.13,0,0,1,.12.58c.54,10.14,1,20.28,1.68,30.42,6.49,3.34,10.49,11.22,13.78,18.61l5.34,2.55c1-2.71.34-5.15-1.61-7.77-1.11-1.49-2.36-2.48-2.7-4.44a11.92,11.92,0,0,1,.71-5.25c1.33-4.62.23-6.6-3.77-8.87-7.11-4-7.11-11.4-6.57-19,.17-2.42,3.84-2.51,3.67-.07-.32,4.5-1,11.22,2.52,14.56,3.08,2.9,7.92,3.1,8.85,8,.48,2.56-.94,4.67-1.38,7.1-.88,5,2.2,4.68,4.11,8.4,1.45,2.81.85,6.14-.44,9q4.77,2.25,9.54,4.45c4.87,2.24,9.91,4.18,14.91,6.17Zm-9.51-11c1.48,1.82-1,4.65-2.54,2.75s-2.45-3.65-2.27-6.22c.24-3.25,1.53-5.59.95-8.93-.66-3.78-2.71-4.21-5.59-6.15-4.85-3.28-6-9.2-5.85-14.79.08-2.43,3.74-2.52,3.66-.07a19.56,19.56,0,0,0,.92,7.38c1.6,4.3,5.44,4.86,8.43,7.77a8.85,8.85,0,0,1,2.82,7C452.88,147.94,449.7,152.06,452.42,155.4Z"/><path class="cls-7" d="M502.59,337.89c.34-22.34-1.91-44.27-5-66.38-2.47-17.85-5.48-35.61-8.09-53.44-1.45-9.88-2.87-19.86-5.73-29.46-1.88-6.3-4.46-14.3-10.85-17.33-2.46-1.17-5-2.24-7.49-3.28,3.15-5-2.66-13.71-2.16-18.56.42-4.19,1.58-7.31.13-11.49-2.05-5.93-7.94-9.59-9-15.75-.48-2.8-.44-5.07-3-6.88-2.25-1.61-5.14-1.95-7.79-2.79a1.62,1.62,0,0,0-.59-1.63c-5-4.21-1.47-13.33-2.7-19.25-.86-4.18-2.25-8.25-3-12.45-2.83-15-.25-30.07-5.91-44.63-4.32-11.1-9.67-22.34-21.53-26.52-3.69-1.3-7.32-1.47-11.06-2.11,0,0-.56-.27-1.39-.83a28.79,28.79,0,0,0-5.21-2.67c-15.28-6.24-28.69.49-41.49,9-9.86,6.52-18.32,13.39-20.85,25.44-2.58,12.29-1.15,25.45-.88,37.9.15,7.28.3,14.6-.21,21.88-.47,6.68-2.38,12-4.47,18.34-1.77,5.3-1,8.53,0,13.83,1.29,6.58-4.81,11-2.09,17.83.85,2.16,2.43,2.77,3.73,4.42,3,3.79,1.33,8.86,1.05,13.2a9.44,9.44,0,0,0,1.71,6.45c.87,1.27,3.27,3,4.49,4.33l-.52.34c-8,5.56-9.29,14.2-10.72,23.41A241.58,241.58,0,0,0,319.31,232c-.15,10.12.91,21.19-.71,31.32a123.78,123.78,0,0,1-7.12-15.65c-3.75-10.54-6-22-10.35-32.28-.6-1.41-2-1.13-2.79-.2-.66-3.27-1.33-6.55-2-9.83-1.22-6.36-.52-11.57.38-18,1-7.2.43-13.76.08-21-.36-7.41.17-14.83.55-22.22a1.93,1.93,0,0,0-1.38-1.82c-9.25-3.46-11.21,8.82-11.72,14.93-.21,2.5,0,5.42-.16,8.22a41.47,41.47,0,0,1-3.71-6.2c-1.28-2.82-1-6.49-1.23-9.55a104.91,104.91,0,0,0-1.47-10.57c-1-5.45-1.13-25.28-12.07-20.45a2,2,0,0,0-1.31,1.87c.24,4.25.6,8.51,1,12.75l-.3-1.23c-1.63-7-5-19.15-14.65-13.77a2,2,0,0,0-.8,2.18c1.26,4.4,2.44,8.83,3.6,13.26-1.69-4.16-4.48-8.25-8.81-4.78s1,13.85,2.29,17.6c.79,2.32,1.64,4.63,2.51,6.92-2.57-3.79-6.19-9.3-10.26-9.29-8,0-1.94,10.44-.34,13.36,3.74,6.86,9.14,15.57,11.84,21.74,2.19,5,3.89,10,6.61,14.83,3.34,5.89,8.15,10.46,11.9,16,4.32,6.36,7,14.23,9.48,21.91a2.27,2.27,0,0,0-.51.55c-1.54,2.45-4.15,8-2.25,11.1,10.27,22.83,17.21,47.43,29,69.51,4.35,8.15,10.19,16.69,19.57,19.35a12.09,12.09,0,0,0,13.15-3.82,162,162,0,0,1-12.7,52.34,2,2,0,0,0-.14,1.05c.19,1.43,1.94,2.4,2.93,1.42a1.76,1.76,0,0,0,.41-.61c8.36-19.74,13.52-41.26,14-62.81v0a135.6,135.6,0,0,0-3.75-35.47c-3.59-14.54-8.81-29.6-5.75-44.73,2.53-12.52,4.93-24.76,5.3-37.59.07-2.45-3.59-2.37-3.66.07-.37,12.74-3,24.79-5.33,37.23-2.44,12.85.65,25.85,3.86,38.29a159.51,159.51,0,0,1,5.14,43.23c-1.56,4.08-4.2,8-9,8.26-5.37.31-10.46-3.63-13.84-7.45-6.95-7.88-11.06-18.48-14.93-28.09-6.52-16.17-12.51-32.49-19.51-48.46,2.25-.7,4.33-2.92,5.7-4.41,5.22-5.69,9.46-12.52,13.29-19.29.64,2.27,1.32,4.83,1.87,6.6,2.24,7.26,4.55,14.51,7.13,21.66,5.54,15.34,15.91,27.83,18.66,44.25.41,2.42,3.91,1.27,3.51-1.09-1.54-9.24-5.44-17.27-9.58-25.24a1.7,1.7,0,0,0,.7-1.1c2-9.42,1.11-19.84,1.2-29.41a279.39,279.39,0,0,1,2-32.84A105.54,105.54,0,0,1,328,187.94c1.45-4.86,3.5-7.24,7.68-10a182.61,182.61,0,0,1,17.21-10,5.91,5.91,0,0,0-.31,2.74,7.49,7.49,0,0,0,2.78,4.4c-3.85,1.47-7.94,3.17-10.95,5.64-4.05,3.32-2.54,8.17-1.95,12.7,1.92,14.77,4.15,29.52,7,44.13,4.06,20.48,8.69,40.85,13.46,61.17a2.13,2.13,0,0,0,.24.57,222.42,222.42,0,0,1,1.39,36.68c-.9,15.25-3.11,30.57-5.53,45.66a1.93,1.93,0,0,0,.73,1.88,1.82,1.82,0,0,0,2.32.08,1.7,1.7,0,0,0,.5-1c2.57-16,5-32.38,5.74-48.59,1-24.16-3.38-48.44-6.18-72.36-2.58-22-.62-43.9,3-65.72,1.43-8.66,2.7-17.63,4.89-26.29,10.63,8.93,25.76,8.5,38,3-.29,1.53-.57,3.06-.87,4.59-4.59,23.52-12.22,46.4-16.1,70-2.63,16-2.78,31.88-2.18,48,.74,19.72.33,39.34-.65,59-.45,9.08-.66,18.36-2,27.38a1.93,1.93,0,0,0,.66,1.81,1.85,1.85,0,0,0,2.36.18,1.67,1.67,0,0,0,.53-1c.94-6.19,1.23-12.53,1.62-18.78,1-17,1.84-34,1.67-51.07,3.56-26.72,13.88-53.23,23.54-78.23a287.74,287.74,0,0,1,18.85-39.85c1.72-3,6.53-8.15,4.91-11.92-1.05-2.43-4.41-3.58-6.44-4.89-1.29-.84-2.57-1.72-3.84-2.61a18.74,18.74,0,0,0,5.24-3.26c3.24-3.38-1.17-8.28-2.76-11.49-.53-1.06-1.05-2.2-1.59-3.39,11,5.29,22,10.48,33.28,15,2.73,1.11,6.22,1.82,8.63,3.5,3.65,2.55,5.38,8,6.7,12,3.2,9.67,4.68,19.88,6.16,29.92,5.61,38.12,13.42,76.33,13.22,115-.09,18.7-1,37.45-2.4,56.1a2,2,0,0,0,.1.8c.5,1.37,2.69,1.3,3.37-.12a2.18,2.18,0,0,0,.2-.75C501.51,371.67,502.33,354.77,502.59,337.89Zm-224-96.51a14.15,14.15,0,0,1,1.34-4.47c.41,1.26.82,2.51,1.23,3.73-.71.54-1.54,1.31-2.37,1.08,0,0-.05,0-.07-.06S278.67,241.47,278.62,241.38Zm5.49-3.53c-3.08-9.13-6.1-18.51-10.54-27-3.1-5.94-8.37-10.46-11.93-16.13-3.35-5.34-5.3-11-7.82-16.74-3.65-8.26-8.73-16.14-13-24.07-.55-1-2.16-2.91-2.23-4.06-.3-4.37,5.67,3.5,6.48,4.52,4.14,5.23,8,10.73,11.62,16.3,1.35,2.05,4.45,0,3.13-2-.5-.75-1-1.49-1.52-2.24-1.94-4.8-3.85-9.61-5.69-14.45-2.33-6.11-5.49-13.17-6-19.8a2.75,2.75,0,0,1,.26-.22,6.65,6.65,0,0,1,3.48,4.43c.28.92.56,1.84.83,2.76,1,3.35,1.86,6.72,3,10A70.37,70.37,0,0,0,263,166.29c1.4,2,4.49,0,3.12-2-.92-1.33-1.76-2.68-2.56-4.05a2,2,0,0,0-.05-.83c-3.26-12.76-6.36-25.59-9.93-38.27,7.12-1.64,9.29,19,10.63,23.7,1.66,5.84,3.35,11.68,5,17.54.65,2.38,4.15,1.25,3.51-1.08-.32-1.15-.63-2.3-.95-3.46a1.76,1.76,0,0,0,.07-.81c-1.39-11.63-3-23.29-3.72-35,4.21-.38,4.27,7.76,4.79,10.89,1.18,7.15,2.38,14.12,2.94,21.35.52,6.66,4,11,7.39,16.55l0,.1c-2.15,5.64-5.15,9.86-6.39,16-.47,2.36,3.07,3.36,3.56.95,1.08-5.41,3.26-9.61,5.67-14.44a12.05,12.05,0,0,0,.72-1.84,1.77,1.77,0,0,0,.34-1.31,20.78,20.78,0,0,0,.33-2.95c.26-4.75-.81-22.27,6.25-21.66-.64,15.28,1,30.43-1.2,45.56-1.49,10.08,1.19,19.56,3.25,29.43-2.19,3.74-4.52,7.42-7,11A68.74,68.74,0,0,1,284.11,237.85ZM363.94,182a402.64,402.64,0,0,0-6.09,43.18c-1,13.45-.15,26.79,1.3,40.11q-2.26-10.31-4.43-20.65-4.17-20.06-7.07-40.33c-.72-5-2.92-11.83-2.25-16.89.77-5.79,9.26-8,14.14-9.92a1.83,1.83,0,0,0,.92-.75,1.72,1.72,0,0,0-.07-2.34,1.57,1.57,0,0,0-.59-.53c-2.24-1.9-4.09-3.08-2.43-6.41,1.78-3.55,5.18-6.88,7.7-9.89s5.26-6.1,8-9.08c0,.6.09,1.19.13,1.79C368.15,160.27,366,171.14,363.94,182Zm43.48-13.31c-11.47,5.62-26.45,6.13-36.22-3.2.59-2,1.23-4,2-6-.07,1-.17,2-.3,2.94-.31,2.37,3.23,3.39,3.55.95a70.32,70.32,0,0,0,.42-12.41,1.86,1.86,0,0,0-.05-.85c-.21-3.82-.62-7.63-1.09-11.37a48,48,0,0,0,10.57-6.55A70.75,70.75,0,0,0,402.66,114c1.25-2-1.92-4-3.2-1.87a64.35,64.35,0,0,1-18,19c-3.55,2.44-8.11,5.19-12.58,5.29-3.35.08-5.26-2.25-7.25-4.74-4.92-6.13-8.57-13.52-11.55-20.76-3.55-8.63-4.31-15.8-4.3-25.06,0-1.87-.12-3.78-.29-5.7a3.88,3.88,0,0,0,2.05,1.1,5.52,5.52,0,0,0-.26,1.64c0,2.76,2,5,4.37,5s4.38-2.25,4.38-5a5.49,5.49,0,0,0-.95-3.09c1.42-.71,1.45-1.62.29-1.85a15.15,15.15,0,0,0-9.29.58,5.81,5.81,0,0,1-.81-.62c-.23-2.13-.51-4.28-.76-6.44a33.08,33.08,0,0,1,13.78.5c1-.2.2-2.25-1.49-3.34-1.9-1.23-3.86-1.57-7.12-1.36a11.54,11.54,0,0,0-5.47,1.58c-.8-7.68-.95-15.36,2.74-22.34,5.49-10.39,18.74-14,29.63-12.92A26.73,26.73,0,0,0,380,45.05a34.88,34.88,0,0,0,8.33,9.89c1.89,1.6,4.88,2.94,6.43,4.84,3.32,4.08,1.31,10.57,4.57,15.07.43.6,1.09,1,1.54,1.62,1.68,2.27,1.71,4.5,2.62,7,.69,1.86,1.37,2.89,3.43,3.27a1.77,1.77,0,0,0,1-.08,1.59,1.59,0,0,0,2.13-.84A35.4,35.4,0,0,1,412.19,82c.59-.89,1.71-2.89,2.79-3.35,2.82-1.19,5,2.65,5.06,5.2,0,3.09-4.87,8.12-6.54,10.81-.73,1.16-4.68,9.1-6.53,5-1-2.24-4.09-.17-3.13,2a4.63,4.63,0,0,0,5.76,2.72c.73,13.94,1.4,27.9,2.51,41.82a2,2,0,0,0,.13.58c-.92,7.32-2.09,14.62-3.42,21.88A1.83,1.83,0,0,0,407.42,168.71Zm25,.64c-.67,1.32-4.18,2.63-6.1,3.53a1.47,1.47,0,0,0-.88.47,1.83,1.83,0,0,0-.21,2.79,2,2,0,0,0,.4.42c1.84,1.4,3.75,2.73,5.68,4,1.63,1.09,3.57,1.75,4.37,3.67s.41,2-.73,3.94q-5.18,8.65-9.76,17.63a327.52,327.52,0,0,0-14.7,34.52c-6.6,17.69-13.54,36-17.87,54.72-.42-13.06-.71-26.07.91-39.11,2.9-23.41,10.54-45.88,15.41-68.91,3-14.31,5.75-28.79,7.37-43.34a2,2,0,0,0-.84-1.91c-.1-1.32-.19-2.64-.28-4,4.42,3.45,7.4,9.68,9.88,15.24a1.59,1.59,0,0,0,.62,1.39c.62,1.4,1.22,2.75,1.81,4C428.54,160.57,433.24,167.72,432.41,169.35Zm5-13.45c1.29-2.84,1.89-6.17.44-9-1.91-3.72-5-3.44-4.11-8.4.44-2.43,1.86-4.54,1.38-7.1-.93-4.92-5.77-5.12-8.85-8-3.55-3.34-2.84-10.06-2.52-14.56.17-2.44-3.5-2.35-3.67.07-.54,7.63-.54,15,6.57,19,4,2.27,5.1,4.25,3.77,8.87a11.92,11.92,0,0,0-.71,5.25c.34,2,1.59,2.95,2.7,4.44,1.95,2.62,2.63,5.06,1.61,7.77l-5.34-2.55c-3.29-7.39-7.29-15.27-13.78-18.61-.64-10.14-1.14-20.28-1.68-30.42a2.13,2.13,0,0,0-.12-.58l.15-.17c2.55-3.15,4.18-7,6.72-10.14,2.21-2.76,4-5,3.69-8.74s-4.19-10.34-8.89-8.73c-3.31,1.14-5.71,5.22-7.35,8.41-1.06-1.17-1.8-5.91-2.53-7.1-.87-1.4-2.35-2.36-3.18-3.73C399.13,67.7,401,62,398,58s-8.45-6.29-11.8-10.26c-3.58-4.26-6.31-10.16-5.94-15.86A1.9,1.9,0,0,0,378.92,30c-12.23-1.71-24.47,1.4-32.62,11.11-4.19,5-5.32,11.45-5.9,17.84-.9,9.83,1.91,19.18,1.69,28.9A54.84,54.84,0,0,0,346,110.5a102.69,102.69,0,0,0,10,19.67c2.36,3.54,5.62,8.75,10,9.91a12.38,12.38,0,0,0,6.07-.11c.15,1.17.28,2.33.41,3.51a235.57,235.57,0,0,0-15.4,18l-.42.53a1.72,1.72,0,0,0-.45,0,.64.64,0,0,0,0-.07c-1.24-2.81,2.26-6.28,2.77-9a8.31,8.31,0,0,0-.91-6.1c-1.2-1.88-3.35-2.63-4.82-4.2-3.42-3.66-2.52-8.55-.19-12.51a1.85,1.85,0,0,0-3.2-1.86c-3.18,5.37-4,12.48.85,17.12,1.08,1,3,1.76,3.8,3,2.12,3.16-.08,5.56-1.42,8.11s-1.27,4.44-.15,7.1q-3.78,1.94-7.51,4c-3.61-5.3,3.49-10.59.26-15.37-1.12-1.65-3.36-2.07-4.74-3.43-4-4-1.33-6.24.22-9.8a6.32,6.32,0,0,0-.21-5.32c-.53-1.3-1.54-2.35-2.14-3.62-2.28-4.8.06-7.27,1.6-11.52a17.6,17.6,0,0,0-1.18-14.24c-1.16-2.18-4.25-.12-3.13,2,2.41,4.49,1.68,8.66-.26,13.16-1.3,3-2.31,5.58-1.6,8.94.86,4.09,4.57,6.18,2.55,10.38-.9,1.88-1.76,3-1.72,5.26a11.22,11.22,0,0,0,2.55,6.69c1.89,2.25,5.15,2.42,4.49,5.92-.61,3.24-2.18,5.19-1.47,8.76a12.35,12.35,0,0,0,1.58,4q-3,1.73-5.89,3.57c-1.92-2.41-5.41-3.79-5.77-7.5-.52-5.35,2.51-11.23-1.2-16.18-1.28-1.7-3-2.21-3.88-4.34-1.46-3.56.53-5.6,1.87-8.53,2.09-4.54,0-8.39-.6-13-.71-5.31,2.24-10,3.78-15s1.85-10.42,2.06-15.63c.54-13.66-.51-27.33-.4-41,.09-10.89,1.28-21.49,9.71-29.25,5.59-5.15,12.46-9.42,19-13.26,8.28-4.85,17.43-7.17,26.84-4.43,3.35,1,5.88,3,9,4.3,1.45.62,5.08.73,7.31,1.2,6.57,1.38,12.59,4.21,16.23,10.07a87.15,87.15,0,0,1,8.94,18.93c4.49,14.11,1.72,29,5.1,43.29,1.06,4.48,2.87,9,2.91,13.62,0,3.59-.67,7.35-.21,10.76-2.18-3.77-3.32-8.7-4.58-12.32a65.43,65.43,0,0,1-2.29-7.2c-.55-2.4-4.05-1.27-3.52,1.08a101.13,101.13,0,0,0,6.49,18.23c3.24,7.29,6.91,7.57,13.62,10.57,3.66,1.64,3.47,3.07,4.12,6.58a12.2,12.2,0,0,0,1.2,3.66c2.49,4.59,7.37,7.69,8.38,13.17.8,4.34-1.53,8.58-.79,13,.45,2.67,5,10.66,2.25,12.6l-.11.09c-5-2-10-3.93-14.91-6.17Q442.14,158.14,437.37,155.9Z"/><path class="cls-7" d="M476,382c-1.6-16.65-2.32-33.4-2.86-50.12-.3-9.3.75-19.47-1.05-28.65C467.78,281.42,458.83,260,451.64,239c-1.05-3.06-2.36-6.16-3.1-9.31-1.44-6.25-.54-13.57.15-19.8.26-2.37-3.28-3.39-3.55-.95-.95,8.52-1.71,17.26,1.05,25.48,3,8.85,6,17.68,9,26.52a1.8,1.8,0,0,0-.72.77c-8.55,16.52-15.55,35.11-17.92,53.6-1.69,13.12.91,25.68,4.69,38.25,2.93,9.74,7.38,19,9.26,29.05a1.61,1.61,0,0,0,.58,1,1.88,1.88,0,0,0,2.53-.49,2,2,0,0,0,.4-1.62c-1.69-9-5.51-17.36-8.32-26-4.29-13.27-7.39-26.9-5.37-40.85,2.46-16.95,8.66-33.86,16.4-49.17,3.75,11.21,7.57,22.44,10.59,33.88,2.2,8.35,1.65,16.82,1.88,25.42.52,19.13,1.25,38.29,3.08,57.34a2,2,0,0,0,.45,1.12,2,2,0,0,0,2.54.37A1.57,1.57,0,0,0,476,382Z"/><path class="cls-7" d="M450.13,137.14c-3-2.91-6.83-3.47-8.43-7.77a19.56,19.56,0,0,1-.92-7.38c.08-2.45-3.58-2.36-3.66.07-.19,5.59,1,11.51,5.85,14.79,2.88,1.94,4.93,2.37,5.59,6.15.58,3.34-.71,5.68-.95,8.93-.18,2.57.68,4.27,2.27,6.22s4-.93,2.54-2.75c-2.72-3.34.46-7.46.53-11.23A8.85,8.85,0,0,0,450.13,137.14Z"/><path class="cls-7" d="M382.11,78.52a15.15,15.15,0,0,0-9.29-.58c-1.16.23-1.13,1.14.29,1.85a5.49,5.49,0,0,0-.95,3.09c0,2.76,2,5,4.38,5s4.37-2.25,4.37-5a5.52,5.52,0,0,0-.26-1.64c3.43-.74,3.18-4.33,3.18-4.33A6.07,6.07,0,0,1,382.11,78.52Z"/><path class="cls-7" d="M378.51,67.26c-3.26-.21-5.22.13-7.11,1.36-1.7,1.09-2.46,3.14-1.5,3.34,0,0,8.56-2.39,16,.09a.5.5,0,0,0,.58-.75C385.6,69.86,383.41,67.57,378.51,67.26Z"/><path class="cls-7" d="M378.5,107c-7.41,2.88-15.3,4.27-22.74,1.66a1.12,1.12,0,0,0-.35-.12c-.49-.18-1-.38-1.46-.59-1.65-.74-2.95,1.78-1.34,2.5l1.56.68c1.62,3.32,3.23,6.64,4.78,10s3.45,6.54,7.59,6.08c6.52-.73,9.15-11.21,11-16.83.58-.2,1.15-.41,1.7-.62C380.92,109.09,380.18,106.32,378.5,107Zm-13.42,17.16c-3.12-.87-4.41-5.88-5.69-8.57-.49-1-1-2.06-1.49-3.1a16,16,0,0,0,5.77.76,57.1,57.1,0,0,0,10.7-1.9C372.67,116.45,369.5,125.35,365.08,124.13Z"/><path class="cls-7" d="M358.42,102.39c2.38.56,4.83.78,7.22,1.34s3.19-3.17.9-3.7c-1.85-.43-3.71-.75-5.58-1.06l-1.08-.23c.26-1.18.42-2.69.54-3.19q1.15-4.71,2.33-9.43c.58-2.34-3-3.33-3.56-.94l-2.94,11.93c-.29,1.21-1,2.85-.29,4A3.51,3.51,0,0,0,358.42,102.39Z"/><path class="cls-1" d="M524.68,134.75l-5.4,10.91-10.79,5.27s9.1,4,11,7.1,5.21,9.05,5.21,9.05,3.23-8.73,7.16-10.79,9-5.37,9-5.37-7.9-2.88-10.34-6.26A105.54,105.54,0,0,1,524.68,134.75Z"/><path class="cls-8" d="M529.54,146.09c-2-2.07-3.49-5.47-4.86-8.48-1.38,3-2.82,6.44-4.9,8.52s-5.33,3.45-8.3,4.8c3,1.36,6.32,2.78,8.35,4.84s3.48,5.47,4.86,8.47c1.38-3,2.81-6.43,4.89-8.52s5.33-3.44,8.3-4.79C534.9,149.57,531.56,148.14,529.54,146.09Z"/><path class="cls-7" d="M542.52,149.49c-3-1.66-8.86-3.88-10.67-5.74s-4.06-7.52-5.77-10.65a1.46,1.46,0,0,0-1.17-.82,1.39,1.39,0,0,0-1.6.77c-1.66,3-3.88,8.86-5.75,10.66s-7.53,4-10.66,5.75a1.74,1.74,0,0,0-.06,2.91c3,1.66,8.86,3.88,10.68,5.74s4.05,7.52,5.76,10.64a1.58,1.58,0,0,0,2.77.06c1.66-3,3.88-8.86,5.75-10.66s7.53-4,10.66-5.75A1.74,1.74,0,0,0,542.52,149.49Zm-12.94,6.23c-2.08,2.09-3.51,5.5-4.89,8.52-1.38-3-2.82-6.4-4.86-8.47s-5.36-3.48-8.35-4.84c3-1.35,6.28-2.78,8.3-4.8s3.52-5.49,4.9-8.52c1.37,3,2.81,6.41,4.86,8.48s5.36,3.48,8.34,4.84C534.91,152.28,531.6,153.7,529.58,155.72Z"/><path class="cls-1" d="M281.19,42.07,275.79,53,265,58.24s9.1,4,11,7.11,5.21,9,5.21,9,3.22-8.72,7.16-10.79,9-5.37,9-5.37S289.48,55.35,287,52A106.91,106.91,0,0,1,281.19,42.07Z"/><path class="cls-8" d="M286,53.4c-2-2.07-3.48-5.47-4.86-8.47-1.38,3-2.81,6.43-4.89,8.52S271,56.9,268,58.25c3,1.35,6.31,2.78,8.34,4.83s3.49,5.47,4.86,8.48c1.38-3,2.82-6.44,4.9-8.52s5.33-3.45,8.29-4.8C291.4,56.88,288.07,55.46,286,53.4Z"/><path class="cls-7" d="M299,56.8c-3-1.66-8.86-3.87-10.68-5.74s-4.05-7.51-5.76-10.64a1.47,1.47,0,0,0-1.17-.82,1.37,1.37,0,0,0-1.6.77c-1.66,3-3.88,8.86-5.75,10.65s-7.53,4-10.66,5.75a1.74,1.74,0,0,0-.06,2.91c3,1.67,8.86,3.88,10.67,5.74s4.06,7.52,5.77,10.65a1.59,1.59,0,0,0,2.77.05c1.66-3,3.88-8.86,5.75-10.65s7.53-4,10.66-5.75A1.75,1.75,0,0,0,299,56.8ZM286.09,63c-2.08,2.08-3.52,5.5-4.9,8.52-1.37-3-2.81-6.4-4.86-8.48S271,59.6,268,58.25c3-1.35,6.28-2.78,8.3-4.8s3.51-5.5,4.89-8.52c1.38,3,2.82,6.4,4.86,8.47s5.36,3.48,8.34,4.84C291.42,59.59,288.11,61,286.09,63Z"/><path class="cls-1" d="M204.2,205.85l-5.4,10.9L188,222s9.1,4,11,7.1,5.21,9,5.21,9,3.23-8.72,7.16-10.78,9-5.38,9-5.38-7.9-2.87-10.34-6.25A105.54,105.54,0,0,1,204.2,205.85Z"/><path class="cls-8" d="M209.06,217.19c-2.05-2.08-3.49-5.47-4.86-8.48-1.38,3-2.82,6.44-4.9,8.52S194,220.68,191,222c3,1.36,6.31,2.78,8.34,4.84s3.48,5.47,4.86,8.47c1.38-3,2.81-6.43,4.89-8.52s5.33-3.45,8.3-4.8C214.42,220.67,211.09,219.24,209.06,217.19Z"/><path class="cls-7" d="M222,220.59c-3-1.67-8.86-3.88-10.67-5.74s-4.06-7.52-5.77-10.65a1.44,1.44,0,0,0-1.17-.82,1.39,1.39,0,0,0-1.6.77c-1.66,3-3.88,8.86-5.75,10.65s-7.53,4-10.66,5.75a1.75,1.75,0,0,0-.06,2.92c3,1.66,8.86,3.87,10.68,5.74s4.05,7.51,5.76,10.64a1.58,1.58,0,0,0,2.77.05c1.66-3,3.88-8.86,5.75-10.65s7.53-4,10.66-5.75A1.74,1.74,0,0,0,222,220.59Zm-12.94,6.23c-2.08,2.09-3.51,5.5-4.89,8.52-1.38-3-2.82-6.4-4.86-8.47S194,223.39,191,222c3-1.35,6.27-2.78,8.29-4.8s3.52-5.5,4.9-8.52c1.37,3,2.81,6.4,4.86,8.48s5.36,3.48,8.34,4.83C214.43,223.37,211.12,224.8,209.1,226.82Z"/><path class="cls-3" d="M329.23,420.75c1.85-2.77,4.51-5.59,5.17-9.73.49-3.09-.09-6.26-.55-9.32-.59-3.95-1.27-7.89-1.82-11.84a67.11,67.11,0,0,1-.95-11.58c.13-3.37,1.67-5,3.85-7.42a39.43,39.43,0,0,0,6.48-9,24.89,24.89,0,0,0,2.13-6.57c.22-1.24.39-2.82,1.41-3.72,2.49-2.21,5.21,2.36,5.83,4.56,1.17,4.11-.86,8.38-3.09,11.74-1,1.49-2.56,2.81-3.05,4.52a23.85,23.85,0,0,0-.37,3.17c-.45,3.52-.82,7.31-2.15,10.62-.47,1.19,1.38,1.77,1.86.57l.15-.44c-.2,2.47-.41,5-.61,7.42q-1,12.53-2.09,25c-.16,1.89-.3,3.78-.45,5.66-.19,2.54-.39,5.07-.58,7.6-.07.92-.5,2.49-.21,3.41a2.82,2.82,0,0,0,.95,1.37,24.75,24.75,0,0,0-.26,10q-9.19,20.13-18.4,40.26a1,1,0,0,0-.07.32c-4.18-.53-19.45-3.35-26.52-16.65l16.21-24.29Q320.66,433.6,329.23,420.75Z"/><path class="cls-3" d="M349.24,345.43h0C349.24,345.55,349.23,345.6,349.24,345.43Z"/><path class="cls-3" d="M351.72,423.31c1.81-6,3.55-12.08,5.32-18.12,1.26-.55,2.45-1.17,3.47-1.7a1,1,0,0,0-.94-1.76c-.76.4-2,1-3.29,1.63a.87.87,0,0,0-.74.32c-2.32,1-4.91,1.69-6.45.85-5.37-2.92,7.43-8.46,9.14-8.89,2-.53,5.62-1.18,7.51.16s2.22,4.62,1.62,6.52c-.95,3-2.87,6.2-4.34,9-3.45,6.6-8.22,12.66-13.12,18.35C350.51,427.56,351.09,425.42,351.72,423.31Z"/><path class="cls-6" d="M349.13,397.83a14,14,0,0,0-3,3c-1.63,2.38-.16,4.8,2.4,5.68a10,10,0,0,0,6.22-.39c-1.68,5.76-3.35,11.52-5.07,17.27-.64,2.12-1.28,4.25-1.91,6.37a36.65,36.65,0,0,1-1.3,4.83l0,.07a3.85,3.85,0,0,1-.3.53c-.63.93-.35.89-1.76.6a4.56,4.56,0,0,0-2.27-.72,1.08,1.08,0,0,0,0-.68c-.35-1.52.29-3.75.41-5.31.38-4.93.77-9.87,1.18-14.79q.74-8.91,1.48-17.81A7.35,7.35,0,0,0,349.13,397.83Z"/><path class="cls-6" d="M349.51,345.26c6.85-4.7,16.84-1.92,21.85,4.11-.88,3-1.75,6-2.63,9a8.26,8.26,0,0,0-2.5-.57c-3.54-.24-5.14,2.73-5.67,5.92s-.18,6.62,2.14,8.5c-4.41.48-9.07,2-10.37,5.39s.32,5.84,2.91,7.06c-1.07.5-2.09,1.07-3,1.57a27.09,27.09,0,0,0-6.53,4.64l1.59-19.08.61-.81a28.55,28.55,0,0,0,4.08-7,12.75,12.75,0,0,0,.07-10,14.17,14.17,0,0,0-2.91-4.07A21.87,21.87,0,0,0,349.51,345.26Z"/><path class="cls-3" d="M366.16,393.75c-3.54-2-9.17-.51-13.68,1.93a.8.8,0,0,0-.75-.08c-1.42.47-5.32.85-5.62-1.39-.24-1.79,3.12-3.59,4.26-4.42,2.39-1.73,5.56-3.72,8.53-4.27h.15c2.43-.42,5.26-.28,7.85-.69a4,4,0,0,1,2.76,4.36,5.57,5.57,0,0,1-3.41,4.52S366.19,393.73,366.16,393.75Z"/><path class="cls-9" d="M375.21,336.87a19.2,19.2,0,0,0-24.79-4.63.86.86,0,0,0-.71-.43A23.74,23.74,0,0,1,353,313.05c3.34-4.93,9.11-8.56,15.21-7.41,14,2.64,14.26,21.28,7.81,31.07A.92.92,0,0,0,375.21,336.87Z"/><path class="cls-3" d="M358.67,383.54a6.78,6.78,0,0,1-3.77-1.2c-2.33-2.21-.47-5.09,1.69-6.25a21.86,21.86,0,0,1,8.11-2,1,1,0,0,0,.37.23.93.93,0,0,0,1-.28,16,16,0,0,1,3.37.28c5.9,1.26,1.87,7.65-2.16,8.45C364.42,383.32,361.48,383.07,358.67,383.54Z"/><path class="cls-10" d="M349.7,342.77c.24-2.72.46-5.44.68-8.16,8.17-5.21,18.28-3.51,24,4.41L372,347.11C366.6,341.38,356.82,338.79,349.7,342.77Z"/><path class="cls-3" d="M365.78,371.49c-3.67-.91-3.94-4.75-3.23-8,.39-1.75,1.11-3.64,3.09-3.74,4.17-.22,5.84,3.34,5.66,7C371.14,370.14,369.16,371.81,365.78,371.49Z"/><path class="cls-7" d="M295.77,470.91l.12-.18,16.21-24.29q8.56-12.84,17.13-25.69c1.85-2.77,4.51-5.59,5.17-9.73.49-3.09-.09-6.26-.55-9.32-.59-3.95-1.27-7.89-1.82-11.84a67.11,67.11,0,0,1-.95-11.58c.13-3.37,1.67-5,3.85-7.42a39.43,39.43,0,0,0,6.48-9,24.89,24.89,0,0,0,2.13-6.57c.22-1.24.39-2.82,1.41-3.72,2.49-2.21,5.21,2.36,5.83,4.56,1.17,4.11-.86,8.38-3.09,11.74-1,1.49-2.56,2.81-3.05,4.52a23.85,23.85,0,0,0-.37,3.17c-.45,3.52-.82,7.31-2.15,10.62-.47,1.19,1.38,1.77,1.86.57l.15-.44c-.2,2.47-.41,5-.61,7.42q-1,12.53-2.09,25c-.16,1.89-.3,3.78-.45,5.66-.19,2.54-.39,5.07-.58,7.6-.07.92-.5,2.49-.21,3.41a2.82,2.82,0,0,0,.95,1.37,24.75,24.75,0,0,0-.26,10q-9.19,20.13-18.4,40.26a1,1,0,0,0-.07.32c-.12,1,1.24,1.79,1.73.72.15-.34.31-.68.47-1l2.61-5.73L341.55,450c1.39,5.53,4.42,12.45,10.33,20.78,3.31,4.64,6.48,8.71,9.57,12.56q1.89,2.34,3.73,4.61c1.21,1.48,2.39,2.93,3.55,4.38,1.43,1.47,2.91,1.5,3.87,1a2.34,2.34,0,0,0,.57-3.2c-.75-.94-1.53-1.9-2.3-2.85l-1.95-2.41c-4.21-5.16-8.55-10.5-13.11-16.92-8.86-12.47-10.59-21.15-10.46-26.29l3.64-8a166.57,166.57,0,0,0,11.11-14,84.77,84.77,0,0,0,6.81-12c1.79-3.71,3.72-7,1.81-11.11a6,6,0,0,0-.92-1.47,7.43,7.43,0,0,0,3.8-6.5,6.57,6.57,0,0,0-1.94-4.55,7.28,7.28,0,0,0,3.83-3.53c1.85-3.57.6-7-3.08-8.08a6.79,6.79,0,0,0,2.82-5.65c.13-3.11-.74-5.84-2.77-7.47q2.88-9.79,5.74-19.59l.05,0,.1-.13a1,1,0,0,0,.08-.11c8.28-10.38,8.52-32.16-7.36-35.71-6.64-1.49-13.06,2-17,7.27a25.77,25.77,0,0,0-3.69,23.32s0,0,0,.08a65.91,65.91,0,0,0-.71,9,4.9,4.9,0,0,0,.07.77,1.09,1.09,0,0,0-.09.47c-.05.13-.1.25-.12.33a17.53,17.53,0,0,0-.37,3.68,2.6,2.6,0,0,0-.25-.1c-2.44-.53-4.16,2.21-4.88,4.16s-.76,4.18-1.51,6.21a26.5,26.5,0,0,1-3.46,6.22c-2.09,2.86-5.2,5.24-7,8.32-1.26,2.21-1.08,5.18-1,7.63.39,8.06,2.2,16,3.2,23.95.56,4.5-.06,8.86-3.07,12.43-.54.64-1.05,1.18-1.53,1.85-11.15,15.53-21.34,31.85-31.9,47.8l-1.77,2.67A1,1,0,0,0,295.77,470.91Zm53.47-125.48h0C349.24,345.55,349.23,345.6,349.24,345.43ZM372,347.11c-5.42-5.73-15.2-8.32-22.32-4.34.24-2.72.46-5.44.68-8.16,8.17-5.21,18.28-3.51,24,4.41Zm4-10.4a.92.92,0,0,0-.83.16,19.2,19.2,0,0,0-24.79-4.63.86.86,0,0,0-.71-.43A23.74,23.74,0,0,1,353,313.05c3.34-4.93,9.11-8.56,15.21-7.41C382.21,308.28,382.49,326.92,376,336.71Zm-10.26,34.78c-3.67-.91-3.94-4.75-3.23-8,.39-1.75,1.11-3.64,3.09-3.74,4.17-.22,5.84,3.34,5.66,7C371.14,370.14,369.16,371.81,365.78,371.49Zm1.46,11.27c-2.82.56-5.76.31-8.57.78a6.78,6.78,0,0,1-3.77-1.2c-2.33-2.21-.47-5.09,1.69-6.25a21.86,21.86,0,0,1,8.11-2,1,1,0,0,0,.37.23.93.93,0,0,0,1-.28,16,16,0,0,1,3.37.28C375.3,375.57,371.27,382,367.24,382.76Zm-1,10.93s-.06,0-.09.06c-3.54-2-9.17-.51-13.68,1.93a.8.8,0,0,0-.75-.08c-1.42.47-5.32.85-5.62-1.39-.24-1.79,3.12-3.59,4.26-4.42,2.39-1.73,5.56-3.72,8.53-4.27h.15c2.43-.42,5.26-.28,7.85-.69a4,4,0,0,1,2.76,4.36A5.57,5.57,0,0,1,366.25,393.69Zm-16.35,36c.61-2.13,1.19-4.27,1.82-6.38,1.81-6,3.55-12.08,5.32-18.12,1.26-.55,2.45-1.17,3.47-1.7a1,1,0,0,0-.94-1.76c-.76.4-2,1-3.29,1.63a.87.87,0,0,0-.74.32c-2.32,1-4.91,1.69-6.45.85-5.37-2.92,7.43-8.46,9.14-8.89,2-.53,5.62-1.18,7.51.16s2.22,4.62,1.62,6.52c-.95,3-2.87,6.2-4.34,9C359.57,417.94,354.8,424,349.9,429.69Zm-6.15-15.44q.74-8.91,1.48-17.81a7.35,7.35,0,0,0,3.9,1.39,14,14,0,0,0-3,3c-1.63,2.38-.16,4.8,2.4,5.68a10,10,0,0,0,6.22-.39c-1.68,5.76-3.35,11.52-5.07,17.27-.64,2.12-1.28,4.25-1.91,6.37a36.65,36.65,0,0,1-1.3,4.83l0,.07a3.85,3.85,0,0,1-.3.53c-.63.93-.35.89-1.76.6a4.56,4.56,0,0,0-2.27-.72,1.08,1.08,0,0,0,0-.68c-.35-1.52.29-3.75.41-5.31C343,424.11,343.34,419.17,343.75,414.25Zm5.38-64.33a21.87,21.87,0,0,0,.38-4.66c6.85-4.7,16.84-1.92,21.85,4.11-.88,3-1.75,6-2.63,9a8.26,8.26,0,0,0-2.5-.57c-3.54-.24-5.14,2.73-5.67,5.92s-.18,6.62,2.14,8.5c-4.41.48-9.07,2-10.37,5.39s.32,5.84,2.91,7.06c-1.07.5-2.09,1.07-3,1.57a27.09,27.09,0,0,0-6.53,4.64l1.59-19.08.61-.81a28.55,28.55,0,0,0,4.08-7,12.75,12.75,0,0,0,.07-10A14.17,14.17,0,0,0,349.13,349.92Z"/><path class="cls-11" d="M161.13,294.13l-.07-.09.09,0Z"/><polygon class="cls-11" points="159.67 311.96 159.67 311.96 159.66 311.96 159.67 311.96"/><path class="cls-3" d="M161.41,291.93c-1-.56-2-1.12-3-1.69l.62-1.13.28-.2,2.93,1.62Z"/><path class="cls-11" d="M129,338.35a22.32,22.32,0,0,1,7.1,3.75l-1.64,2.31a.44.44,0,0,0-.08.11l-4,5.68a16.26,16.26,0,0,0-5.14-2.71C126.47,344.37,127.71,341.36,129,338.35Z"/><path class="cls-6" d="M155.32,275.31c.18-.45.37-.89.55-1.33a19,19,0,0,1,20.3,11.16L166.42,299c-2.29.14-4.45.6-6.16,2.29a8.38,8.38,0,0,0-2.3,8.12,5.12,5.12,0,0,0,.43,1L148,325.16a7,7,0,0,0-2.9,2.19,6.29,6.29,0,0,0-1.44,4l-3.32,4.72c-1,1.48-2.09,2.95-3.14,4.43a24.36,24.36,0,0,0-7.47-4q9.34-22.32,18.67-44.66a21.73,21.73,0,0,0,6.73-.8c-.14.3-.29.59-.44.86a.72.72,0,0,0-.11.32.7.7,0,0,0,.1.47l.05.08h0a.62.62,0,0,0,.53.27h.21c1.56-.39,4.43,1.27,5,2.73a.73.73,0,0,0,1.33.17l5-9a4,4,0,0,0,.9-2.3c-.13-1.44-1.67-2.55-3-3.19,0-.13.08-.26.11-.39.35-2-.52-6-2.76-6.87-.9-.36-2,.31-3,.51A36.11,36.11,0,0,1,155.32,275.31Z"/><path class="cls-11" d="M153,321.38a8.09,8.09,0,0,0,.21,2,5.31,5.31,0,0,0,.47,1.25,12.61,12.61,0,0,0-2.88-.09C151.57,323.47,152.31,322.43,153,321.38Z"/><path class="cls-11" d="M166.21,285a1,1,0,0,1-.2.37,34.5,34.5,0,0,0-1.89,3.42l-.24.43-3-1.64a14,14,0,0,0,3.29-4.59A3.81,3.81,0,0,1,166.21,285Z"/><path class="cls-6" d="M123,352.94a17.78,17.78,0,0,1,.79-1.93c.23-.55.46-1.1.68-1.65a14.2,14.2,0,0,1,4.76,2.46l-.64.9c-.71,1-1.39,2.11-2.18,3.08.54-2.06-2.39-3.69-3.5-1.54l0,0C122.37,353.77,122.7,354,123,352.94Z"/><path class="cls-11" d="M92.42,296.62A25.07,25.07,0,0,0,91,289.36c4.65.29,9.36.79,14,.73,4,0,7-3.25,10.23-5.3,4.19-2.65,8.62-5.1,12.93-7.54,2.8-1.58,4.84-.18,7.74.21a68.56,68.56,0,0,0,10.33.42c2.5-.05,5-.16,7.49-.4a.73.73,0,0,0,.46,0c1-.1,2.05-.22,3.07-.37,1.25-.19,2.48-.57,3.73-.76.16,0,.23-.08.25-.13l.22.23a5.17,5.17,0,0,1,1.22,2c1,3-1.08,6.1-3.8,8.27a1,1,0,0,0-.44.33c-.18.14-.37.27-.56.4a.76.76,0,0,0-.16.11,12.52,12.52,0,0,1-3.95,1.78,24.09,24.09,0,0,1-5.52.46.79.79,0,0,0-.88,0c-2.43-.09-4.86-.36-7.16-.5-.59,0-.92.53-1,1a19.63,19.63,0,0,1-1.92,6.16,15.47,15.47,0,0,1-3.53,4.8c-1.72,1.54-3.85,2.17-5.73,3.43a21.1,21.1,0,0,0-6.55,7.87c-1.3,2.46-2,5.6-3.82,7.77-.79,1,.52,2.42,1.34,1.41,1.92-2.33,2.74-5.52,4.14-8.17a23.33,23.33,0,0,1,3.5-5.12c1.83-1.95,4-2.75,6.22-4.09,4.48-2.69,7.23-7.9,8.11-13,1.74.13,3.55.3,5.39.4q-5.93,14.17-11.84,28.33c-3,7.08-6,14.15-8.88,21.25l-.94,2.29a.49.49,0,0,0-.17,0c-6.78,2-14.78-1.75-20.79-4.27-8.18-3.44-17.3-7.4-26.35-7.93.6-.81,1.19-1.62,1.78-2.45C85.55,319.94,93,308.14,92.42,296.62Z"/><path class="cls-11" d="M156.76,271.85l3.11-7.44a19,19,0,0,1,22.27,12.24l-4.67,6.63A21,21,0,0,0,156.76,271.85Z"/><path class="cls-11" d="M70.15,337.16c-.19.15-.26.09,0,0Z"/><path class="cls-11" d="M155.83,324.26c-2-2.3-.45-6.62,1.32-8.58a7.28,7.28,0,0,1,5.09-2.16A7.91,7.91,0,0,1,167,315c2.84,2.31,1,8.28-1.92,9.84C162.59,326.2,157.86,326.66,155.83,324.26Z"/><path class="cls-1" d="M16.33,270.38A.84.84,0,0,0,17,271q5.41,1.41,10.83,2.78C41,277.09,54.18,280.13,67.45,283c4.61,1,9.22,2,13.83,2.91,1.68.34,4,.42,5.68,1.08a4.35,4.35,0,0,1,.61.68A26.15,26.15,0,0,1,89,290.25a21,21,0,0,1,.9,12.75c-2.38,11.19-9.73,22.22-17,30.92a27.34,27.34,0,0,0-2.52,2.88,1.12,1.12,0,0,1-.24.3,29.34,29.34,0,0,1-3.51,0c-10-.12-19.9-.77-29.85-1-6.31-.17-12.61-.09-18.92,0a1.12,1.12,0,0,0-1.19,1.25S9,326.78,6.53,304.13C4.34,283.79,14.29,272.47,16.33,270.38Z"/><path class="cls-11" d="M138.25,342.35c2-2.88,4.08-5.75,6.11-8.63a8.2,8.2,0,0,0,5.37,3.61c1.22.27,1.74-1.67.52-1.95-2.11-.48-4.21-1.65-4.57-3.54l3.5-5a7.87,7.87,0,0,1,1.7-.33,10.66,10.66,0,0,1,3,.11c1.61.3,3.61.78,4.76,2a3.27,3.27,0,0,1,.41,3.78,1.1,1.1,0,0,0-.15.24l-.09.21a5.14,5.14,0,0,1-3.14,2.36c-1.22.26-.77,2.2.48,1.94l.06,0A12.4,12.4,0,0,1,151,341c-4.25,1.5-9.13,2-13.71,2.65l.83-1.18A.83.83,0,0,0,138.25,342.35Z"/><path class="cls-11" d="M164.07,311.68a7.06,7.06,0,0,1-3-1.22c-2.77-2.13-1.23-6.66,1.24-8.37a8.59,8.59,0,0,1,4.62-1.13,10.72,10.72,0,0,1,4.74,1.28c3.35,2,2.15,7.38-1.18,8.81a11.86,11.86,0,0,1-5.92.71Z"/><path class="cls-6" d="M161.84,254.24a15.91,15.91,0,0,1,28.06,15A24.19,24.19,0,0,0,161.84,254.24Z"/><path class="cls-9" d="M184.56,275.1a1,1,0,0,0-1-.16,20.91,20.91,0,0,0-23.05-12.69,1.14,1.14,0,0,0-.6-.76,16.12,16.12,0,0,1,1-5.21.89.89,0,0,0,.61.06,22.32,22.32,0,0,1,27,14.9s0,0,0,.05A15.68,15.68,0,0,1,184.56,275.1Z"/><path class="cls-11" d="M177.94,286a.76.76,0,0,0,.28-.4l1.33-1.89a6.15,6.15,0,0,1,3.22.5c3.77,2,.45,7-1.63,9.05a20.54,20.54,0,0,1-12.24,5.6Z"/><path class="cls-7" d="M16.74,337.3c0,.28.22.69,1,.81a1.42,1.42,0,0,0,.22.05c10.54-.08,21.05,0,31.62.41,4.91.2,9.82.37,14.73.46a33.3,33.3,0,0,0,5.82.06,3.05,3.05,0,0,0,2.06-1.31c1.29-1.42,2.53-2.9,3.72-4.41l.09,0c10.61.21,21.19,5.47,30.78,9.45,4.91,2,11.45,4.12,17,3l-.87,2.1c-.68,1.67-2.24,4-2.36,5.77a3.2,3.2,0,0,0,1.32,2.52l-.43.88c-1.14,2.41-2.19,4.87-3.23,7.32-7.26,17.24-12.57,35.2-17.61,53.2-2.31,8.24-4.62,16.51-6.48,24.87-.55,2.51,3.18,3.53,3.74,1s1.26-5.31,1.93-7.95c4.19-16.5,8.81-33,14.24-49.13a223.85,223.85,0,0,1,11.33-28.54,3.83,3.83,0,0,0,1,0,3,3,0,0,0,1.68-1,29.71,29.71,0,0,0,2-2.91c1.9-2.67,3.78-5.35,5.67-8l8-1.45c3.42-.62,7.19-.82,10.22-2.68a17.42,17.42,0,0,0,6.45-7.59,5.89,5.89,0,0,0,.72-5.41,4.75,4.75,0,0,0-.52-1,14.56,14.56,0,0,0,4.13-.72c4.18-1.4,7.1-7.67,5.16-11.76a5.5,5.5,0,0,0-1.4-1.8c.51-.08,1-.17,1.46-.28,4.17-1,7.41-6.78,5-10.72a6.45,6.45,0,0,0-2.62-2.31c5.45-1.33,10.69-4.55,13.12-9.53,2.27-4.66,0-8.61-4.46-9l2.7-3.83.13,0a17.85,17.85,0,1,0-25.72-14.26.45.45,0,0,0,0,.11l-3.66,8.75a.81.81,0,0,0-.18.45l-1.1,2.63a100.65,100.65,0,0,1-13.11.28,28.32,28.32,0,0,1-5.59-.62,15,15,0,0,0-3.48-.91c-3.45-.06-6.88,3.33-9.72,4.86a106,106,0,0,0-9.21,5.39c-2.24,1.52-4.17,3.52-7,3.56-5,.07-10.07-.53-15-.8a5.73,5.73,0,0,0-2.21-2.12c-1.89-.93-4.83-1-6.86-1.39q-7.45-1.53-14.89-3.15C51.26,277.41,36.55,274,21.93,270.2c-1.35-.34-2.7-.7-4.05-1.05a2.49,2.49,0,0,0-.36,0,1,1,0,0,0-1.09.57,1.16,1.16,0,0,0-.1.69A.84.84,0,0,0,17,271q5.41,1.41,10.83,2.78C41,277.09,54.18,280.13,67.45,283c4.61,1,9.22,2,13.83,2.91,1.68.34,4,.42,5.68,1.08a4.35,4.35,0,0,1,.61.68A26.15,26.15,0,0,1,89,290.25a21,21,0,0,1,.9,12.75c-2.38,11.19-9.73,22.22-17,30.92a27.34,27.34,0,0,0-2.52,2.88,1.12,1.12,0,0,1-.24.3,29.34,29.34,0,0,1-3.51,0c-10-.12-19.9-.77-29.85-1-6.31-.17-12.61-.09-18.92,0A1.12,1.12,0,0,0,16.74,337.3Zm142.31-62.56a36.11,36.11,0,0,1-3.73.57c.18-.45.37-.89.55-1.33a19,19,0,0,1,20.3,11.16L166.42,299c-2.29.14-4.45.6-6.16,2.29a8.38,8.38,0,0,0-2.3,8.12,5.12,5.12,0,0,0,.43,1L148,325.16a7,7,0,0,0-2.9,2.19,6.29,6.29,0,0,0-1.44,4l-3.32,4.72c-1,1.48-2.09,2.95-3.14,4.43a24.36,24.36,0,0,0-7.47-4q9.34-22.32,18.67-44.66a21.73,21.73,0,0,0,6.73-.8c-.14.3-.29.59-.44.86a.72.72,0,0,0-.11.32.7.7,0,0,0,.1.47l.05.08h0a.62.62,0,0,0,.53.27h.21c1.56-.39,4.43,1.27,5,2.73a.73.73,0,0,0,1.33.17l5-9a4,4,0,0,0,.9-2.3c-.13-1.44-1.67-2.55-3-3.19,0-.13.08-.26.11-.39.35-2-.52-6-2.76-6.87C161.11,273.87,160,274.54,159.05,274.74Zm.21,14.17,2.93,1.62-.78,1.4c-1-.56-2-1.12-3-1.69l.62-1.13Zm5-6a3.81,3.81,0,0,1,2,2,1,1,0,0,1-.2.37,34.5,34.5,0,0,0-1.89,3.42l-.24.43-3-1.64A14,14,0,0,0,164.21,282.94ZM161.06,294l.09,0,0,0ZM130.33,350.2a16.26,16.26,0,0,0-5.14-2.71c1.28-3.12,2.52-6.13,3.78-9.14a22.32,22.32,0,0,1,7.1,3.75l-1.64,2.31a.44.44,0,0,0-.08.11ZM159.67,312h0Zm-5.95,12.64a12.61,12.61,0,0,0-2.88-.09c.73-1,1.47-2.08,2.2-3.13a8.09,8.09,0,0,0,.21,2A5.31,5.31,0,0,0,153.72,324.6Zm23.75-41.32a21,21,0,0,0-20.71-11.43l3.11-7.44a19,19,0,0,1,22.27,12.24Zm12.43-14.06a24.19,24.19,0,0,0-28.06-15,15.91,15.91,0,0,1,28.06,15Zm-5.34,5.88a1,1,0,0,0-1-.16,20.91,20.91,0,0,0-23.05-12.69,1.14,1.14,0,0,0-.6-.76,16.12,16.12,0,0,1,1-5.21.89.89,0,0,0,.61.06,22.32,22.32,0,0,1,27,14.9s0,0,0,.05A15.68,15.68,0,0,1,184.56,275.1ZM168.9,298.84l9-12.86a.76.76,0,0,0,.28-.4l1.33-1.89a6.15,6.15,0,0,1,3.22.5c3.77,2,.45,7-1.63,9.05A20.54,20.54,0,0,1,168.9,298.84Zm-4.34,12.92-.49-.08a7.06,7.06,0,0,1-3-1.22c-2.77-2.13-1.23-6.66,1.24-8.37a8.59,8.59,0,0,1,4.62-1.13,10.72,10.72,0,0,1,4.74,1.28c3.35,2,2.15,7.38-1.18,8.81A11.86,11.86,0,0,1,164.56,311.76Zm.56,13.07c-2.53,1.37-7.26,1.83-9.29-.57s-.45-6.62,1.32-8.58a7.28,7.28,0,0,1,5.09-2.16A7.91,7.91,0,0,1,167,315C169.88,317.3,168,323.27,165.12,324.83Zm-27.81,18.85.83-1.18a.83.83,0,0,0,.11-.15c2-2.88,4.08-5.75,6.11-8.63a8.2,8.2,0,0,0,5.37,3.61c1.22.27,1.74-1.67.52-1.95-2.11-.48-4.21-1.65-4.57-3.54l3.5-5a7.87,7.87,0,0,1,1.7-.33,10.66,10.66,0,0,1,3,.11c1.61.3,3.61.78,4.76,2a3.27,3.27,0,0,1,.41,3.78,1.1,1.1,0,0,0-.15.24l-.09.21a5.14,5.14,0,0,1-3.14,2.36c-1.22.26-.77,2.2.48,1.94l.06,0A12.4,12.4,0,0,1,151,341C146.77,342.53,141.89,343,137.31,343.68Zm-14.47,10.61c-.47-.52-.14-.32.11-1.35a17.78,17.78,0,0,1,.79-1.93c.23-.55.46-1.1.68-1.65a14.2,14.2,0,0,1,4.76,2.46l-.64.9c-.71,1-1.39,2.11-2.18,3.08.54-2.06-2.39-3.69-3.5-1.54ZM77.39,331.44c.6-.81,1.19-1.62,1.78-2.45,6.38-9.05,13.81-20.85,13.25-32.37A25.07,25.07,0,0,0,91,289.36c4.65.29,9.36.79,14,.73,4,0,7-3.25,10.23-5.3,4.19-2.65,8.62-5.1,12.93-7.54,2.8-1.58,4.84-.18,7.74.21a68.56,68.56,0,0,0,10.33.42c2.5-.05,5-.16,7.49-.4a.73.73,0,0,0,.46,0c1-.1,2.05-.22,3.07-.37,1.25-.19,2.48-.57,3.73-.76.16,0,.23-.08.25-.13l.22.23a5.17,5.17,0,0,1,1.22,2c1,3-1.08,6.1-3.8,8.27a1,1,0,0,0-.44.33c-.18.14-.37.27-.56.4a.76.76,0,0,0-.16.11,12.52,12.52,0,0,1-3.95,1.78,24.09,24.09,0,0,1-5.52.46.79.79,0,0,0-.88,0c-2.43-.09-4.86-.36-7.16-.5-.59,0-.92.53-1,1a19.63,19.63,0,0,1-1.92,6.16,15.47,15.47,0,0,1-3.53,4.8c-1.72,1.54-3.85,2.17-5.73,3.43a21.1,21.1,0,0,0-6.55,7.87c-1.3,2.46-2,5.6-3.82,7.77-.79,1,.52,2.42,1.34,1.41,1.92-2.33,2.74-5.52,4.14-8.17a23.33,23.33,0,0,1,3.5-5.12c1.83-1.95,4-2.75,6.22-4.09,4.48-2.69,7.23-7.9,8.11-13,1.74.13,3.55.3,5.39.4q-5.93,14.17-11.84,28.33c-3,7.08-6,14.15-8.88,21.25l-.94,2.29a.49.49,0,0,0-.17,0c-6.78,2-14.78-1.75-20.79-4.27C95.56,335.93,86.44,332,77.39,331.44Zm-7.24,5.72c-.19.15-.26.09,0,0Z"/><path class="cls-9" d="M99.94,131.57a36.11,36.11,0,0,0-4.1,3.05,49.57,49.57,0,0,0-4,3.73q-2.14,13.36-4.3,26.73c.54.39,1.09.76,1.66,1.1,1.57.91,3.15,1.73,4.75,2.5Q96.95,150.13,99.94,131.57ZM95.69,150l-.81,5.54a2,2,0,0,1-2,2,2,2,0,0,1-1.9-2.05l.81-5.54a2,2,0,0,1,2-2A2,2,0,0,1,95.69,150Z"/><path class="cls-9" d="M168.78,191.1l3.15.54c.86.14,2.93.94,3.72.27.4-.33.45-2,.54-2.62q.54-3.28,1.06-6.57,3.06-18.91,6.1-37.82a12.88,12.88,0,0,0,.54-3.35c-.35-2.28-2.18-2.21-3.73-2.47l-3.24-.56Q172.86,164.82,168.78,191.1Zm7.11-25.68a1.76,1.76,0,0,1,.47-3.44,1.65,1.65,0,0,1,1.24,1.93A1.62,1.62,0,0,1,175.89,165.42Zm-1.54,3.2a1.1,1.1,0,1,1,2.16.3,1.17,1.17,0,0,1-1.25,1.11A1.19,1.19,0,0,1,174.35,168.62Z"/><path class="cls-3" d="M179.78,179.13c2-12.13,4.41-24.3,5.88-36.5.5-4.1-2.23-5-5.54-5.59l-17.71-3-30.5-5.23a4.83,4.83,0,0,0,.3-.55l20.73,3.55,27.46,4.7c2.12.37,6.25.23,6.62,3.34.23,1.85-.7,4.37-1,6.19l-4.68,29-1.86,11.58a21.17,21.17,0,0,1-.45,2.76,2.79,2.79,0,0,1-1.09,1.7C179,187.26,179.16,183,179.78,179.13Z"/><path class="cls-6" d="M87.61,152.6a1.46,1.46,0,0,0-.21.16l-4.62,5.29c0-.31-.1-.61-.11-.93-.1-2.88,1.52-6.42,2.56-9a28.5,28.5,0,0,1,4.24-7.05Z"/><path class="cls-6" d="M87,156.17l-1.2,7.49a10.83,10.83,0,0,1-2.41-3.35Z"/><path class="cls-3" d="M167.78,141.72a.86.86,0,1,1-.86.86A.86.86,0,0,1,167.78,141.72Z"/><path class="cls-3" d="M132.05,183.62a5.81,5.81,0,0,1,.56,1.28l31.26,5.36,3,.51Q171,164.49,175,138.2l-10.3-1.77-34.47-5.9c-2.39,1.68-5.79,1.66-8.58,1.58A105.28,105.28,0,0,1,108,130.37a13.51,13.51,0,0,0-4.43-.32,7.22,7.22,0,0,0-1.51.45q-3.15,19.51-6.29,39A70.12,70.12,0,0,0,115,175C121,175.8,128.62,178.09,132.05,183.62Zm33.53-41a2.2,2.2,0,1,1,2.2,2.2A2.2,2.2,0,0,1,165.58,142.58Zm-4.91,1.07.13-.74,1.8.32.62-3.5.79.14-.75,4.24Zm-1.74-.31.75-4.24.79.14-.75,4.24Zm-3.44-5,.77.14.33,3.19h0l1.43-2.87.82.15-2.05,4-.8-.14Zm-4.37,3.59.12-.7,1.95.35.2-1.11-1.63-.3.12-.7,1.63.29.18-1-1.9-.34.12-.7,2.7.48-.75,4.23Z"/><path class="cls-6" d="M1.87,168.91h0a.74.74,0,0,0,.83.49l2.22-.28C15.84,167.7,26.86,166,37.47,163c4-1.13,8.65-2.38,11.81-5.22,5.93-5.34,9.89-13.15,14.3-19.69,1.83-2.72,3.66-5.56,6.39-7.47a56.32,56.32,0,0,1,9.25-4.88c3.28-1.48,6.61-2.83,9.9-4.27s6-3.13,9.57-3.32c5.34-.3,10.82,1,16,1.95,4.22.8,8.72,1.28,12.84,2.41,1.82.5,4.21,2.09,3.16,4.32a5.42,5.42,0,0,1-3.71,3c-2.55.67-5.59.35-8.19.12-4.23-.36-8.36-1.34-12.57-1.83-6.08-.7-11.93,4.41-16.07,9.16h0c-.84,1-1.62,1.92-2.3,2.8A35.85,35.85,0,0,0,82,151.51c-.63,1.94-1.42,4-1.26,6,.29,3.92,2.4,6.66,5.19,8.79l.09.07a45.28,45.28,0,0,0,8.16,4.53,65,65,0,0,0,12.45,4.66c3.13.74,6.32,1,9.49,1.56a26.06,26.06,0,0,1,10.74,4.19c3.32,2.27,4.72,4.47,3.61,8.26-.54,1.85-1.29,2.29-3.23,2.07a43.72,43.72,0,0,1-5.16-1.17c-4.56-1.11-9.24-1.4-13.78-2.62-3.57-1-7-1.94-10.78-1.58-4.84.45-9.52,2.5-14.1,4-5,1.6-10.09,3.27-15.33,3.47A71.61,71.61,0,0,1,57.79,193c-4.45-.49-8.2-1.27-12.53.09a110.59,110.59,0,0,0-14.88,6.33c-7.83,3.82-15.53,7.93-23.09,12.25A1.07,1.07,0,0,0,7,212c-2.14-2.62-5.27-10.3-6.59-20.43C-1,181,1.87,168.91,1.87,168.91Z"/><path class="cls-7" d="M7,212c-.51.75.3,2,1.27,1.46L9,213l1.37-.77c10-5.62,20.26-11.26,31-15.57,4.1-1.65,7.46-2.68,11.84-2.17,7.71.9,15.08,1.94,22.74.11,5.53-1.33,10.84-3.36,16.27-5a24.07,24.07,0,0,1,14.33-.11c4.52,1.23,9.07,1.61,13.62,2.63,2.81.64,6.38,2.23,9.32,1.62,2.64-.54,3.69-3.83,3.53-6.71l36.83,6.31c1.87.32,4.48,1.22,6.26.5a.67.67,0,0,0,.31,0c2.25-.75,3.77-1,4.49-3.57.21-.77.26-1.62.39-2.4q1.13-7,2.27-14.07l4.8-29.81c.36-2.21,1.28-5-.23-7s-4.25-1.89-6.38-2.25l-48.84-8.37a4.84,4.84,0,0,0-1.26-4.71c-1-.86-2.32-.86-3.58-1-2.56-.36-5.1-.89-7.63-1.39-4.89-1-9.79-2-14.73-2.62-4-.53-8.54-1-12.38.71-6,2.66-12.21,5.3-18.16,8.19a33.6,33.6,0,0,0-8,4.89c-2.39,2.19-4.17,5.16-6,7.83-2.45,3.71-4.82,7.47-7.41,11.09-2,2.79-4.17,6.15-7.13,8-4.58,2.93-10.56,4.1-15.79,5.3a269,269,0,0,1-28.1,4.77,1,1,0,0,0-.62.32,1.24,1.24,0,0,0-.25,1.21.74.74,0,0,0,.83.49l2.22-.28C15.84,167.7,26.86,166,37.47,163c4-1.13,8.65-2.38,11.81-5.22,5.93-5.34,9.89-13.15,14.3-19.69,1.83-2.72,3.66-5.56,6.39-7.47a56.32,56.32,0,0,1,9.25-4.88c3.28-1.48,6.61-2.83,9.9-4.27s6-3.13,9.57-3.32c5.34-.3,10.82,1,16,1.95,4.22.8,8.72,1.28,12.84,2.41,1.82.5,4.21,2.09,3.16,4.32a5.42,5.42,0,0,1-3.71,3c-2.55.67-5.59.35-8.19.12-4.23-.36-8.36-1.34-12.57-1.83-6.08-.7-11.93,4.41-16.07,9.16h0c-.84,1-1.62,1.92-2.3,2.8A35.85,35.85,0,0,0,82,151.51c-.63,1.94-1.42,4-1.26,6,.29,3.92,2.4,6.66,5.19,8.79l.09.07a45.28,45.28,0,0,0,8.16,4.53,65,65,0,0,0,12.45,4.66c3.13.74,6.32,1,9.49,1.56a26.06,26.06,0,0,1,10.74,4.19c3.32,2.27,4.72,4.47,3.61,8.26-.54,1.85-1.29,2.29-3.23,2.07a43.72,43.72,0,0,1-5.16-1.17c-4.56-1.11-9.24-1.4-13.78-2.62-3.57-1-7-1.94-10.78-1.58-4.84.45-9.52,2.5-14.1,4-5,1.6-10.09,3.27-15.33,3.47A71.61,71.61,0,0,1,57.79,193c-4.45-.49-8.2-1.27-12.53.09a110.59,110.59,0,0,0-14.88,6.33c-7.83,3.82-15.53,7.93-23.09,12.25A1.07,1.07,0,0,0,7,212Zm76.46-51.65L87,156.17l-1.2,7.49A10.83,10.83,0,0,1,83.42,160.31Zm6-19.25L87.61,152.6a1.46,1.46,0,0,0-.21.16l-4.62,5.29c0-.31-.1-.61-.11-.93-.1-2.88,1.52-6.42,2.56-9A28.5,28.5,0,0,1,89.47,141.06Zm6.37-6.44a36.11,36.11,0,0,1,4.1-3.05q-3,18.56-6,37.11c-1.6-.77-3.18-1.59-4.75-2.5-.57-.34-1.12-.71-1.66-1.1q2.15-13.37,4.3-26.73A49.57,49.57,0,0,1,95.84,134.62ZM178,191.05c1-3.79,1.21-8.1,1.83-11.92,2-12.13,4.41-24.3,5.88-36.5.5-4.1-2.23-5-5.54-5.59l-17.71-3-30.5-5.23a4.83,4.83,0,0,0,.3-.55l20.73,3.55,27.46,4.7c2.12.37,6.25.23,6.62,3.34.23,1.85-.7,4.37-1,6.19l-4.68,29-1.86,11.58a21.17,21.17,0,0,1-.45,2.76A2.79,2.79,0,0,1,178,191.05Zm-9.17,0q4.07-26.29,8.14-52.58l3.24.56c1.55.26,3.38.19,3.73,2.47a12.88,12.88,0,0,1-.54,3.35q-3,18.91-6.1,37.82-.52,3.28-1.06,6.57c-.09.6-.14,2.29-.54,2.62-.79.67-2.86-.13-3.72-.27Zm-36.17-6.2a5.81,5.81,0,0,0-.56-1.28c-3.43-5.53-11-7.82-17.07-8.67a70.12,70.12,0,0,1-19.21-5.42q3.15-19.51,6.29-39a7.22,7.22,0,0,1,1.51-.45,13.51,13.51,0,0,1,4.43.32,105.28,105.28,0,0,0,13.68,1.74c2.79.08,6.19.1,8.58-1.58l34.47,5.9L175,138.2q-4.07,26.28-8.14,52.57l-3-.51Z"/><path class="cls-7" d="M94.88,155.55a2,2,0,0,1-2,2,2,2,0,0,1-1.9-2.05l.81-5.54a2,2,0,0,1,2-2,2,2,0,0,1,1.9,2Z"/><path class="cls-3" d="M174.65,163.5a1.63,1.63,0,0,1,1.71-1.52,1.65,1.65,0,0,1,1.24,1.93,1.51,1.51,0,1,1-2.95-.41Z"/><path class="cls-3" d="M175.6,167.51a1.19,1.19,0,0,1,.91,1.41,1.17,1.17,0,0,1-1.25,1.11,1.29,1.29,0,0,1,.34-2.52Z"/><path class="cls-7" d="M165.58,142.58a2.2,2.2,0,1,0,2.2-2.2A2.21,2.21,0,0,0,165.58,142.58Zm1.34,0a.86.86,0,1,1,.86.85A.86.86,0,0,1,166.92,142.58Z"/><polygon points="162.6 143.22 163.22 139.73 164.01 139.87 163.26 144.11 160.67 143.65 160.8 142.91 162.6 143.22"/><rect x="157.55" y="140.89" width="4.3" height="0.8" transform="translate(-7.4 273.75) rotate(-79.9)"/><polygon points="156.59 141.68 156.62 141.68 158.05 138.81 158.87 138.96 156.82 142.96 156.02 142.82 155.49 138.35 156.26 138.49 156.59 141.68"/><polygon points="153.19 141.59 153.39 140.48 151.76 140.19 151.88 139.48 153.51 139.77 153.69 138.76 151.79 138.42 151.91 137.72 154.61 138.2 153.86 142.43 151.12 141.94 151.24 141.24 153.19 141.59"/><path class="cls-1" d="M135,178.53a27.49,27.49,0,0,0,.22-2.88c.1-2.07.14-4.14.07-6.21a24.46,24.46,0,0,1,.23-5.06c.41-2.49,1.21-4.9,1.69-7.37l.09-.49a3.8,3.8,0,0,1-4-.31c-.23.91-.36,1.86-.51,2.77a24.72,24.72,0,0,0-.32,6.92,47.5,47.5,0,0,1,.65,7.62,44,44,0,0,1-.6,5.11.23.23,0,0,1,0,.11c.57,0,2,0,2.6,0A.23.23,0,0,1,135,178.53Z"/><path class="cls-2" d="M146.9,173.36c0-4.07-.81-8.09-1.4-12.11a18.92,18.92,0,0,0-.64-3.15,2.52,2.52,0,0,0-.71-1.26,5.25,5.25,0,0,0-.91-.37c-1.19-.48-2.35-1-3.5-1.58,0,.13.11.25.16.36.17.34.64.85.3,1.21a2,2,0,0,1-.56.34l.41.28c.21.13.57.25.68.51s-.34.94-.52,1.26a29.21,29.21,0,0,0-2,4.19,37.8,37.8,0,0,0-2.48,8.24c0,1.79-.06,3.59-.17,5.38,0,.65-.07,1.32-.17,2a.17.17,0,0,1-.06.11,61.52,61.52,0,0,0,6.52,0,.18.18,0,0,1-.07-.11,27.85,27.85,0,0,0-1-3.06,9.51,9.51,0,0,1-.49-4,17.46,17.46,0,0,1,1.88-5.64.2.2,0,0,1,.08-.08c-.32-.93-.64-1.86-.95-2.79a6.25,6.25,0,0,1-.11-2.69c0-.25.4-.15.37.1a6.37,6.37,0,0,0,0,2.09,8.62,8.62,0,0,0,.32,1,52.18,52.18,0,0,1,2.15,6.77,18.86,18.86,0,0,1,.11,3c.06,1.76.13,3.53.3,5.28a.17.17,0,0,1-.07.17c.83.14,1.56.52,2.25.6,0,0,0,0,0-.08C146.79,177.3,146.89,175.33,146.9,173.36Z"/><path class="cls-3" d="M124,163.69c0-.13-.08-.26-.13-.39a1.62,1.62,0,0,0-.14.47l0,0h0C123.8,163.83,123.89,163.75,124,163.69Z"/><path class="cls-2" d="M132.17,178.53c.25-1.58.48-3.2.58-4.8a23.82,23.82,0,0,0-.15-3.87.08.08,0,0,1,0-.05c-.51-2.14-1-4.29-1.42-6.45-.31-1.54-.54-3.09-.74-4.64-.07-.48-.22-1,.2-1.34a4.09,4.09,0,0,1,1.16-.59.8.8,0,0,1-.3-.47.59.59,0,0,1,0-.29,20.56,20.56,0,0,0-1.82,1.06,1.71,1.71,0,0,0-.81,1,11.6,11.6,0,0,0-.32,1.76,28.52,28.52,0,0,0-.21,3.45,16,16,0,0,1-.13,3.1.2.2,0,0,1-.07.12,9.32,9.32,0,0,1,1,2.65c0,.25-.33.37-.37.12-.29-1.73-1.39-3-2-4.66-.27-.75-.51-1.52-.75-2.28-.06-.19-.13-.46-.2-.7a10.31,10.31,0,0,1-1.4,2,1.49,1.49,0,0,1-.6.47c.74,1.68,1.37,3.4,2.06,5.1a10.26,10.26,0,0,0,1.57,3A2,2,0,0,0,129,173c.5,0,.78-.44.95-.87a17,17,0,0,0-.55-4.55,9.36,9.36,0,0,1-.4-4,24.68,24.68,0,0,0,.56-3.92c0-.26.39-.26.38,0a24,24,0,0,1-.55,4c-.33,1.59.22,3.18.6,4.71a14.73,14.73,0,0,1,.4,3.74h0a18.33,18.33,0,0,1-1.48,6.61.43.43,0,0,1,0,.07c.5,0,2.71,0,3.4,0A.2.2,0,0,1,132.17,178.53Z"/><path class="cls-4" d="M125.15,158.5a45.19,45.19,0,0,0,.13-4.8c-.75-.06-.63,1.78-.66,2.28a2.91,2.91,0,0,1,0,.31.17.17,0,0,1,0,.14,1.54,1.54,0,0,1-.08.19,6.25,6.25,0,0,0-.6,1.52c-.05.26-.42.15-.37-.1a10.81,10.81,0,0,1,.67-1.69h0a3.71,3.71,0,0,1-.78-1.74c-.06-.76-.19-1.49-.31-2.25-.06-.33-.06-1.18-.51-1.14.08,1.23.25,2.45.4,3.68a.19.19,0,0,1,0,.08l.1.37a.19.19,0,0,1-.37.11l-.52-1.84c-.14-.5-.37-2.67-1.12-2.5.37,1.34.7,2.69,1,4a.28.28,0,0,1,0,.09,4.94,4.94,0,0,0,.27.42.2.2,0,0,1-.33.21,7.32,7.32,0,0,1-.93-1.8c-.13-.35-.22-.7-.32-1.06l-.09-.29a.67.67,0,0,0-.37-.46l0,0a7.58,7.58,0,0,0,.63,2.08q.28.77.6,1.53l.16.23a.2.2,0,0,1-.33.21c-.39-.58-.79-1.16-1.22-1.72-.09-.1-.72-.93-.69-.47,0,.12.18.32.24.43.45.83,1,1.66,1.37,2.53a12.84,12.84,0,0,0,.83,1.76c.37.6.93,1.08,1.25,1.7a19.33,19.33,0,0,1,1.11,2.85c.18-.21.34-.44.49-.65.26-.37.5-.76.73-1.15A8.83,8.83,0,0,1,125.15,158.5Z"/><path class="cls-4" d="M132,150.2c.05.1.11.21.16.32.13.28.27.81.6.9s.8-.8,1-1.35a5.08,5.08,0,0,1-1.12.2A1.79,1.79,0,0,1,132,150.2Z"/><path class="cls-4" d="M137.75,153.74c-.12-1.46-.19-2.93-.27-4.4a.49.49,0,0,1-.6-.29c-.1-.23.22-.44.33-.21.19.44.61-.4.69-.52.17-.29.69-.82.68-1.14s-.23-.67-.53-.55c-.11.05-.23.26-.29.35a3.38,3.38,0,0,0-.24.41.16.16,0,0,1-.22.08.11.11,0,0,1-.1,0c-.22,0-.29-.14-.36-.34a2.4,2.4,0,0,0-.28-.73c-.05-.07-.12-.11-.16-.18-.35-.47-.13-1.15-.48-1.58a5.74,5.74,0,0,0-.68-.51,3.81,3.81,0,0,1-.88-1,2.87,2.87,0,0,1-.35-1.21,3.14,3.14,0,0,0-3.12,1.36,4,4,0,0,0-.29,2.35,1.33,1.33,0,0,1,.58-.17,1.14,1.14,0,0,1,.75.15c.18.11.26.33.16.35a3.57,3.57,0,0,0-1.46-.05c0,.23.06.45.08.68l.09.06a1.64,1.64,0,0,1,1-.06c.12,0,.12.12,0,.19a.61.61,0,0,1,.1.33.5.5,0,0,1-.46.53.5.5,0,0,1-.46-.53.88.88,0,0,1,0-.17.43.43,0,0,1-.21-.12q0,.3,0,.6a6.42,6.42,0,0,0,.45,2.64,8.88,8.88,0,0,0,1.22,2.19c.21.26.41.5.76.5a2.6,2.6,0,0,0,1.32-.56,6.87,6.87,0,0,0,1.9-2c.13-.22.47,0,.33.2a7.39,7.39,0,0,1-1.72,1.93,5,5,0,0,1-1.12.69c.05.39.1.79.12,1.2a.14.14,0,0,1,0,.09,7.07,7.07,0,0,1,0,1.3c0,.26-.41.15-.37-.1l0-.31q-.12.32-.21.63a3.4,3.4,0,0,0,3.82.34.14.14,0,0,1,.14,0c.14-.77.27-1.54.36-2.31C137.76,153.78,137.75,153.76,137.75,153.74Zm-5.88-5.16c.1-.42.2-.84.31-1.26a.19.19,0,1,1,.37.1l-.24,1c0,.06,0,.22-.06.34l.11,0c.2,0,.4.07.59.12s.15.44-.09.39-.51-.09-.76-.15c-.1,0-.21,0-.26-.13S131.84,148.71,131.87,148.58Zm2.42,1.33-.18.06c-.2.59-.47,1.7-1.16,1.77-.44,0-.64-.3-.8-.64s-.33-.7-.5-1l-.17-.07c-.17-.08,0-.34.14-.26l.16.06h0a3.42,3.42,0,0,0,2.39-.17C134.39,149.55,134.47,149.84,134.29,149.91Zm.15-3a.88.88,0,0,1,0,.17.5.5,0,0,1-.46.53.5.5,0,0,1-.46-.53.61.61,0,0,1,.1-.33c-.15-.07-.15-.17,0-.19a1.64,1.64,0,0,1,1,.06.58.58,0,0,0,.18-.17A.44.44,0,0,1,134.44,146.91Zm.55-1a3.34,3.34,0,0,0-1.69,0c-.1,0,0-.24.16-.35a1.14,1.14,0,0,1,.75-.15,1,1,0,0,1,.84.43A.05.05,0,0,1,135,145.94Z"/><path class="cls-5" d="M133.64,154c-.29.32-.57.63-.84,1a5.71,5.71,0,0,0-.81,1c-.18.35,0,.47.25.67l.06.06a.19.19,0,0,1,0,.25.21.21,0,0,1-.1.08c-.51.19-1.4.43-1.49,1a7.78,7.78,0,0,0,.24,1.78c.21,1.42.45,2.84.75,4.25.15.72.3,1.45.46,2.17a22.89,22.89,0,0,1-.13-4.22,40.82,40.82,0,0,1,.64-4.55,12.09,12.09,0,0,1,1-3.34C133.65,154.12,133.64,154.05,133.64,154Z"/><path class="cls-5" d="M139.18,154.61a.16.16,0,0,1-.07-.14,4.19,4.19,0,0,0-1-1.61l0,.42a.22.22,0,0,1,.09.2c-.17,1.54-.46,3.06-.78,4.57-.51,2.42-1.31,4.79-1.62,7.25a25.8,25.8,0,0,0-.09,4.12,45.59,45.59,0,0,1,1.88-5.76,36.41,36.41,0,0,1,1.54-3.64c.33-.63.67-1.24,1-1.85.12-.2.17-.2.08-.42s-.29-.27-.46-.38l-.6-.43,0,0a.19.19,0,0,1,0-.29.14.14,0,0,1,.09-.05c.21-.1.58-.24.65-.38s-.41-.92-.52-1.15S139.24,154.76,139.18,154.61Z"/><path class="cls-6" d="M143,155.88c.28-.21-.19-1-.24-1.33-.08-.46.17-.91.08-1.37s-.62-.9-.88-1.38a1.38,1.38,0,0,1-.13-.39c-.07-.37-.05-.52-.43-.69-.71-.32-1.09-.35-1.44-1.11a11,11,0,0,1-.68-1.92c-.05-.25.31-.37.37-.12s.16.51.24.76a8.35,8.35,0,0,0,.49,1.3,8.74,8.74,0,0,1,0-1.14,7.17,7.17,0,0,0-.31-1.43c-.35-1.5-.06-3.07-.54-4.56a9.06,9.06,0,0,0-.94-2,2.45,2.45,0,0,0-1.71-1.06,6.46,6.46,0,0,1-.77-.13,7.39,7.39,0,0,0-.94-.45,3.51,3.51,0,0,0-2.83.47,11.92,11.92,0,0,0-2,1.39,4,4,0,0,0-1,3.08c0,1.44.1,2.88,0,4.32a6.41,6.41,0,0,1-.21,1.64,3.56,3.56,0,0,0-.4,1.58c.06.48.28.89.06,1.37-.14.3-.35.52-.19.89s.27.28.4.46c.39.52.08,1.14.13,1.7,0,.4.41.54.61.79.2-.13.41-.25.62-.37a1.28,1.28,0,0,1-.17-.42c-.07-.38.09-.58.16-.92s-.28-.39-.48-.63a1.21,1.21,0,0,1-.26-.7,1,1,0,0,1,.18-.56c.21-.44-.18-.66-.27-1.09a1.41,1.41,0,0,1,.17-.94,1.49,1.49,0,0,0,0-1.39c-.11-.22.21-.44.33-.21a1.83,1.83,0,0,1,.13,1.5c-.16.45-.41.71-.17,1.22.06.13.17.24.22.38a.69.69,0,0,1,0,.56c-.17.37-.45.61,0,1,.15.14.38.19.5.36.34.5-.4,1.06,0,1.62l.79-.42a.77.77,0,0,1,0-.75c.14-.27.37-.52.15-.85-.08-.13-.29-.2-.4-.31a1.46,1.46,0,0,1-.09-1.81.2.2,0,0,1,.34.2,1.07,1.07,0,0,0,0,1.32c.15.16.38.24.51.44a.89.89,0,0,1,.09.64c0,.29-.42.65-.29.95h0l0,0c.51-.66,1.06-1.29,1.63-1.9,0-.12,0-.25-.05-.37a1.26,1.26,0,0,1-.64,0c-.46-.12-.81-.67-1.06-1a10.6,10.6,0,0,1-1.05-2.07,5.72,5.72,0,0,1-.41-2.38c0-1-.28-2-.18-3.05a3.25,3.25,0,0,1,.62-1.87,3.63,3.63,0,0,1,3.43-1.17.2.2,0,0,1,.15.19,2.47,2.47,0,0,0,.63,1.67c.35.41.93.64,1.24,1.08s.11,1,.38,1.46c.09.15.24.25.33.4s.16.62.27.75a1.72,1.72,0,0,1,.78-.89c.49-.17.89.51.93.92a1.16,1.16,0,0,1-.39.92c-.27.33-.44.74-.7,1.07l0,0s0,0,0,.06c.06,1.06.11,2.13.18,3.2a3.89,3.89,0,0,1,1.45,2l.56.27a.79.79,0,0,0-.17-.82c-.11-.16-.25-.26-.28-.47a1.29,1.29,0,0,1,.07-.55.67.67,0,0,0-.39-.93c-.75-.43-.75-1.21-.7-2,0-.25.41-.26.39,0,0,.48-.11,1.19.27,1.54s.83.32.93.84c.05.27-.1.49-.15.75-.09.52.23.49.44.88a1.13,1.13,0,0,1-.05,1l1,.47c.52.23,1.05.44,1.57.65Zm-1-1.16c.16.19-.1.49-.26.29a.86.86,0,0,1-.24-.66,3.71,3.71,0,0,0,.1-.94c-.07-.4-.29-.44-.59-.65a1.71,1.71,0,0,1-.62-1.55c0-.26.4-.27.39,0a2.09,2.09,0,0,0,.09.78c.17.45.58.51.89.81a.91.91,0,0,1,.3.74C142,153.93,141.71,154.36,142,154.72Z"/><path class="cls-7" d="M147.28,173.93a45.51,45.51,0,0,0-.53-7c-.26-1.88-.57-3.75-.85-5.62a21.89,21.89,0,0,0-.6-3.11,2.74,2.74,0,0,0-1.15-1.82l-.78-.35c.33-.52-.28-1.44-.23-1.95a2.48,2.48,0,0,0,0-1.21c-.21-.63-.83-1-.94-1.66-.05-.29-.05-.53-.32-.72a2.77,2.77,0,0,0-.82-.3A.15.15,0,0,0,141,150c-.52-.44-.15-1.4-.28-2-.1-.44-.24-.87-.32-1.31-.3-1.58,0-3.16-.63-4.7a4.18,4.18,0,0,0-2.26-2.79,6.7,6.7,0,0,0-1.17-.22l-.14-.09a3.55,3.55,0,0,0-.55-.28c-1.61-.66-3,0-4.37.94a4.34,4.34,0,0,0-2.2,2.68,17.75,17.75,0,0,0-.09,4c0,.77,0,1.54,0,2.31a7.67,7.67,0,0,1-.47,1.93,2.39,2.39,0,0,0,0,1.45c.14.7-.51,1.16-.22,1.88.09.23.26.29.39.47.32.4.14.93.11,1.39a1.09,1.09,0,0,0,.18.68c.1.13.35.31.48.45l-.06,0a3.24,3.24,0,0,0-1.13,2.46,25.67,25.67,0,0,0-.28,3.5,24.25,24.25,0,0,1-.08,3.3,14.55,14.55,0,0,1-.75-1.65c-.39-1.11-.62-2.32-1.09-3.4-.06-.15-.21-.12-.29,0l-.21-1a5.47,5.47,0,0,1,0-1.89,10.78,10.78,0,0,0,0-2.2,22.85,22.85,0,0,1,.06-2.34.2.2,0,0,0-.15-.19c-1-.37-1.18.92-1.23,1.57,0,.26,0,.57,0,.86a4.86,4.86,0,0,1-.39-.65,3.35,3.35,0,0,1-.13-1c0-.38-.09-.75-.15-1.12-.11-.57-.12-2.66-1.27-2.15a.19.19,0,0,0-.14.19c0,.45.06.9.11,1.35l0-.13c-.18-.74-.53-2-1.55-1.45a.22.22,0,0,0-.08.23c.13.46.25.93.38,1.39-.18-.43-.48-.87-.93-.5s.11,1.46.24,1.85.17.49.26.73c-.27-.4-.65-1-1.08-1-.84,0-.2,1.1,0,1.41.39.72,1,1.64,1.25,2.29a14.49,14.49,0,0,0,.69,1.56c.35.62.86,1.1,1.25,1.69a8.81,8.81,0,0,1,1,2.3l0,.06c-.16.26-.44.84-.24,1.17,1.08,2.4,1.81,5,3.06,7.32a3.69,3.69,0,0,0,2.06,2,1.27,1.27,0,0,0,1.38-.4,17,17,0,0,1-1.34,5.51.2.2,0,0,0,0,.11c0,.15.2.25.31.15a.43.43,0,0,0,0-.07,18.33,18.33,0,0,0,1.48-6.61h0a14.73,14.73,0,0,0-.4-3.74c-.38-1.53-.93-3.12-.6-4.71a24,24,0,0,0,.55-4c0-.25-.37-.25-.38,0a24.68,24.68,0,0,1-.56,3.92,9.36,9.36,0,0,0,.4,4,17,17,0,0,1,.55,4.55c-.17.43-.45.85-.95.87a2,2,0,0,1-1.46-.78,10.26,10.26,0,0,1-1.57-3c-.69-1.7-1.32-3.42-2.06-5.1a1.49,1.49,0,0,0,.6-.47,10.31,10.31,0,0,0,1.4-2c.07.24.14.51.2.7.24.76.48,1.53.75,2.28.58,1.62,1.68,2.93,2,4.66,0,.25.41.13.37-.12a9.32,9.32,0,0,0-1-2.65.2.2,0,0,0,.07-.12,16,16,0,0,0,.13-3.1,28.52,28.52,0,0,1,.21-3.45,11.6,11.6,0,0,1,.32-1.76,1.71,1.71,0,0,1,.81-1,20.56,20.56,0,0,1,1.82-1.06.59.59,0,0,0,0,.29.8.8,0,0,0,.3.47,4.09,4.09,0,0,0-1.16.59c-.42.35-.27.86-.2,1.34.2,1.55.43,3.1.74,4.64.43,2.16.91,4.31,1.42,6.45a.08.08,0,0,0,0,.05,23.82,23.82,0,0,1,.15,3.87c-.1,1.6-.33,3.22-.58,4.8a.21.21,0,0,0,.32.21.23.23,0,0,0,0-.11,44,44,0,0,0,.6-5.11,47.5,47.5,0,0,0-.65-7.62,24.72,24.72,0,0,1,.32-6.92c.15-.91.28-1.86.51-2.77a3.8,3.8,0,0,0,4,.31l-.09.49c-.48,2.47-1.28,4.88-1.69,7.37a24.46,24.46,0,0,0-.23,5.06c.07,2.07,0,4.14-.07,6.21a27.49,27.49,0,0,1-.22,2.88.23.23,0,0,0,.07.2.2.2,0,0,0,.25,0,.17.17,0,0,0,.06-.11c.1-.65.13-1.32.17-2,.11-1.79.19-3.59.17-5.38a37.8,37.8,0,0,1,2.48-8.24,29.21,29.21,0,0,1,2-4.19c.18-.32.69-.86.52-1.26s-.47-.38-.68-.51l-.41-.28a2,2,0,0,0,.56-.34c.34-.36-.13-.87-.3-1.21-.05-.11-.11-.23-.16-.36,1.15.56,2.31,1.1,3.5,1.58a5.25,5.25,0,0,1,.91.37,2.52,2.52,0,0,1,.71,1.26,18.92,18.92,0,0,1,.64,3.15c.59,4,1.42,8,1.4,12.11,0,2-.11,3.94-.26,5.91,0,0,0,.06,0,.08a.2.2,0,0,0,.36,0,.19.19,0,0,0,0-.08C147.16,177.49,147.25,175.71,147.28,173.93Zm-23.59-10.16a1.62,1.62,0,0,1,.14-.47c0,.13.09.26.13.39s-.16.14-.25.12h0Zm.58-.37a19.33,19.33,0,0,0-1.11-2.85c-.32-.62-.88-1.1-1.25-1.7a12.84,12.84,0,0,1-.83-1.76c-.38-.87-.92-1.7-1.37-2.53-.06-.11-.23-.31-.24-.43,0-.46.6.37.69.47.43.56.83,1.14,1.22,1.72a.2.2,0,0,0,.33-.21l-.16-.23q-.31-.76-.6-1.53a7.58,7.58,0,0,1-.63-2.08l0,0a.67.67,0,0,1,.37.46l.09.29c.1.36.19.71.32,1.06a7.32,7.32,0,0,0,.93,1.8.2.2,0,0,0,.33-.21,4.94,4.94,0,0,1-.27-.42.28.28,0,0,0,0-.09c-.34-1.34-.67-2.69-1-4,.75-.17,1,2,1.12,2.5l.52,1.84a.19.19,0,0,0,.37-.11L123,155a.19.19,0,0,0,0-.08c-.15-1.23-.32-2.45-.4-3.68.45,0,.45.81.51,1.14.12.76.25,1.49.31,2.25a3.71,3.71,0,0,0,.78,1.74h0a10.81,10.81,0,0,0-.67,1.69c0,.25.32.36.37.1a6.25,6.25,0,0,1,.6-1.52,1.54,1.54,0,0,0,.08-.19.17.17,0,0,0,0-.14,2.91,2.91,0,0,0,0-.31c0-.5-.09-2.34.66-2.28a45.19,45.19,0,0,1-.13,4.8,8.83,8.83,0,0,0,.34,3.1c-.23.39-.47.78-.73,1.15C124.61,163,124.45,163.19,124.27,163.4Zm8.41-5.88a40.82,40.82,0,0,0-.64,4.55,22.89,22.89,0,0,0,.13,4.22c-.16-.72-.31-1.45-.46-2.17-.3-1.41-.54-2.83-.75-4.25a7.78,7.78,0,0,1-.24-1.78c.09-.61,1-.85,1.49-1a.21.21,0,0,0,.1-.08.19.19,0,0,0,0-.25l-.06-.06c-.24-.2-.43-.32-.25-.67a5.71,5.71,0,0,1,.81-1c.27-.33.55-.64.84-1,0,.06,0,.13,0,.19A12.09,12.09,0,0,0,132.68,157.52Zm4.58-1.4a3.4,3.4,0,0,1-3.82-.34q.09-.32.21-.63l0,.31c0,.25.34.36.37.1a7.07,7.07,0,0,0,0-1.3.14.14,0,0,0,0-.09c0-.41-.07-.81-.12-1.2a5,5,0,0,0,1.12-.69,7.39,7.39,0,0,0,1.72-1.93c.14-.21-.2-.42-.33-.2a6.87,6.87,0,0,1-1.9,2,2.6,2.6,0,0,1-1.32.56c-.35,0-.55-.24-.76-.5a8.88,8.88,0,0,1-1.22-2.19,6.42,6.42,0,0,1-.45-2.64q0-.3,0-.6a.43.43,0,0,0,.21.12.88.88,0,0,0,0,.17.5.5,0,0,0,.46.53.5.5,0,0,0,.46-.53.61.61,0,0,0-.1-.33c.15-.07.15-.17,0-.19a1.64,1.64,0,0,0-1,.06l-.09-.06c0-.23-.05-.45-.08-.68a3.57,3.57,0,0,1,1.46.05c.1,0,0-.24-.16-.35a1.14,1.14,0,0,0-.75-.15,1.33,1.33,0,0,0-.58.17,4,4,0,0,1,.29-2.35,3.14,3.14,0,0,1,3.12-1.36,2.87,2.87,0,0,0,.35,1.21,3.81,3.81,0,0,0,.88,1,5.74,5.74,0,0,1,.68.51c.35.43.13,1.11.48,1.58,0,.07.11.11.16.18a2.4,2.4,0,0,1,.28.73c.07.2.14.3.36.34a.11.11,0,0,0,.1,0,.16.16,0,0,0,.22-.08,3.38,3.38,0,0,1,.24-.41c.06-.09.18-.3.29-.35.3-.12.53.28.53.55s-.51.85-.68,1.14c-.08.12-.5,1-.69.52-.11-.23-.43,0-.33.21a.49.49,0,0,0,.6.29c.08,1.47.15,2.94.27,4.4,0,0,0,0,0,.06-.09.77-.22,1.54-.36,2.31A.14.14,0,0,0,137.26,156.12Zm2.63.06c-.07.14-.44.28-.65.38a.14.14,0,0,0-.09.05.19.19,0,0,0,0,.29l0,0,.6.43c.17.11.38.18.46.38s0,.22-.08.42c-.36.61-.7,1.22-1,1.85a36.41,36.41,0,0,0-1.54,3.64,45.59,45.59,0,0,0-1.88,5.76,25.8,25.8,0,0,1,.09-4.12c.31-2.46,1.11-4.83,1.62-7.25.32-1.51.61-3,.78-4.57a.22.22,0,0,0-.09-.2l0-.42a4.19,4.19,0,0,1,1,1.61.16.16,0,0,0,.07.14c.06.15.13.29.19.42S140,156,139.89,156.18Zm.52-1.41a1.13,1.13,0,0,0,.05-1c-.21-.39-.53-.36-.44-.88,0-.26.2-.48.15-.75-.1-.52-.61-.54-.93-.84s-.3-1.06-.27-1.54c0-.25-.37-.24-.39,0-.05.8-.05,1.58.7,2a.67.67,0,0,1,.39.93,1.29,1.29,0,0,0-.07.55c0,.21.17.31.28.47a.79.79,0,0,1,.17.82l-.56-.27a3.89,3.89,0,0,0-1.45-2c-.07-1.07-.12-2.14-.18-3.2,0,0,0,0,0-.06l0,0c.26-.33.43-.74.7-1.07a1.16,1.16,0,0,0,.39-.92c0-.41-.44-1.09-.93-.92a1.72,1.72,0,0,0-.78.89c-.11-.13-.19-.63-.27-.75s-.24-.25-.33-.4c-.27-.44-.07-1-.38-1.46s-.89-.67-1.24-1.08a2.47,2.47,0,0,1-.63-1.67.2.2,0,0,0-.15-.19,3.63,3.63,0,0,0-3.43,1.17,3.25,3.25,0,0,0-.62,1.87c-.1,1,.2,2,.18,3.05a5.72,5.72,0,0,0,.41,2.38,10.6,10.6,0,0,0,1.05,2.07c.25.37.6.92,1.06,1a1.26,1.26,0,0,0,.64,0c0,.12,0,.25.05.37-.57.61-1.12,1.24-1.63,1.9l0,0h0c-.13-.3.24-.66.29-.95a.89.89,0,0,0-.09-.64c-.13-.2-.36-.28-.51-.44a1.07,1.07,0,0,1,0-1.32.2.2,0,0,0-.34-.2,1.46,1.46,0,0,0,.09,1.81c.11.11.32.18.4.31.22.33,0,.58-.15.85a.77.77,0,0,0,0,.75l-.79.42c-.38-.56.36-1.12,0-1.62-.12-.17-.35-.22-.5-.36-.42-.42-.14-.66,0-1a.69.69,0,0,0,0-.56c0-.14-.16-.25-.22-.38-.24-.51,0-.77.17-1.22a1.83,1.83,0,0,0-.13-1.5c-.12-.23-.44,0-.33.21a1.49,1.49,0,0,1,0,1.39,1.41,1.41,0,0,0-.17.94c.09.43.48.65.27,1.09a1,1,0,0,0-.18.56,1.21,1.21,0,0,0,.26.7c.2.24.55.26.48.63s-.23.54-.16.92a1.28,1.28,0,0,0,.17.42c-.21.12-.42.24-.62.37-.2-.25-.57-.39-.61-.79,0-.56.26-1.18-.13-1.7-.13-.18-.31-.23-.4-.46s.05-.59.19-.89c.22-.48,0-.89-.06-1.37a3.56,3.56,0,0,1,.4-1.58,6.41,6.41,0,0,0,.21-1.64c.06-1.44,0-2.88,0-4.32a4,4,0,0,1,1-3.08,11.92,11.92,0,0,1,2-1.39,3.51,3.51,0,0,1,2.83-.47,7.39,7.39,0,0,1,.94.45,6.46,6.46,0,0,0,.77.13,2.45,2.45,0,0,1,1.71,1.06,9.06,9.06,0,0,1,.94,2c.48,1.49.19,3.06.54,4.56a7.17,7.17,0,0,1,.31,1.43,8.74,8.74,0,0,0,0,1.14,8.35,8.35,0,0,1-.49-1.3c-.08-.25-.18-.5-.24-.76s-.42-.13-.37.12a11,11,0,0,0,.68,1.92c.35.76.73.79,1.44,1.11.38.17.36.32.43.69a1.38,1.38,0,0,0,.13.39c.26.48.78.81.88,1.38s-.16.91-.08,1.37c.05.28.52,1.12.24,1.33h0c-.52-.21-1-.42-1.57-.65Z"/><path class="cls-7" d="M144.47,178.58c-.17-1.75-.24-3.52-.3-5.28a18.86,18.86,0,0,0-.11-3,52.18,52.18,0,0,0-2.15-6.77,8.62,8.62,0,0,1-.32-1,6.37,6.37,0,0,1,0-2.09c0-.25-.34-.35-.37-.1a6.25,6.25,0,0,0,.11,2.69c.31.93.63,1.86.95,2.79a.2.2,0,0,0-.08.08,17.46,17.46,0,0,0-1.88,5.64,9.51,9.51,0,0,0,.49,4,27.85,27.85,0,0,1,1,3.06.18.18,0,0,0,.07.11.19.19,0,0,0,.26-.05.17.17,0,0,0,0-.17,22.48,22.48,0,0,0-.87-2.75,9.56,9.56,0,0,1-.57-4.3,17,17,0,0,1,1.73-5.17c.39,1.18.8,2.36,1.11,3.56a10.9,10.9,0,0,1,.2,2.68c.06,2,.13,4,.33,6a.21.21,0,0,0,0,.12.23.23,0,0,0,.27,0A.17.17,0,0,0,144.47,178.58Z"/><path class="cls-7" d="M141.75,152.79c-.31-.3-.72-.36-.89-.81a2.09,2.09,0,0,1-.09-.78c0-.26-.38-.25-.39,0a1.71,1.71,0,0,0,.62,1.55c.3.21.52.25.59.65a3.71,3.71,0,0,1-.1.94.86.86,0,0,0,.24.66c.16.2.42-.1.26-.29-.28-.36,0-.79.06-1.19A.91.91,0,0,0,141.75,152.79Z"/><path class="cls-7" d="M134.59,146.62a1.64,1.64,0,0,0-1-.06c-.12,0-.12.12,0,.19a.61.61,0,0,0-.1.33.5.5,0,0,0,.46.53.5.5,0,0,0,.46-.53.88.88,0,0,0,0-.17.44.44,0,0,0,.33-.46A.58.58,0,0,1,134.59,146.62Z"/><path class="cls-7" d="M134.21,145.43a1.14,1.14,0,0,0-.75.15c-.18.11-.26.33-.16.35a3.34,3.34,0,0,1,1.69,0,.05.05,0,0,0,.06-.08A1,1,0,0,0,134.21,145.43Z"/><path class="cls-7" d="M134.21,149.62a3.42,3.42,0,0,1-2.39.17h0l-.16-.06c-.17-.08-.31.18-.14.26l.17.07c.17.35.34.7.5,1s.36.69.8.64c.69-.07,1-1.18,1.16-1.77l.18-.06C134.47,149.84,134.39,149.55,134.21,149.62Zm-1.41,1.8c-.33-.09-.47-.62-.6-.9,0-.11-.11-.22-.16-.32a1.79,1.79,0,0,0,.61.07,5.08,5.08,0,0,0,1.12-.2C133.6,150.62,133.26,151.55,132.8,151.42Z"/><path class="cls-7" d="M132.1,149.13c.25.06.5.09.76.15s.33-.34.09-.39-.39-.08-.59-.12l-.11,0c0-.12,0-.28.06-.34l.24-1a.19.19,0,1,0-.37-.1c-.11.42-.21.84-.31,1.26,0,.13-.11.3,0,.42S132,149.11,132.1,149.13Z"/></g></g></svg>