<svg xmlns="http://www.w3.org/2000/svg" viewBox="0 0 550.44 438.43"><defs><style>.cls-1{fill:#0dabff;}.cls-2{fill:#fffc19;}.cls-3{fill:#1e181c;}.cls-4{fill:#231f20;}</style></defs><g id="レイヤー_2" data-name="レイヤー 2"><g id="レイヤー_4" data-name="レイヤー 4"><path class="cls-1" d="M136.38,84.91s23.8,19.34,30.24,29.58,19.25,30.42,27,38.67,31.55,64.69,34.93,72,11.82,23.76,13,35.53a177.88,177.88,0,0,1-4.71,60.18c-6.56,25.56-14.39,52.2-14.39,52.2s34.8,26,95.18,24.37c0,0,31.43-3.28,53-20.45,0,0-14.65-52.37-15.46-95.14s5.21-43,13.76-57.29,34.87-69.47,41-81.23,19.55-44.9,27.17-54.59,13.46-15.95,13.46-15.95-16.1-13-28.23-12c0,0-28.48,42.34-36.62,62.5s-29.88,47.92-36.26,55.05-14.59,21-23.79,21.37-10.14-.15-10.14-.15,9,20.77,5,33.71-20.8,24.3-24.79,30.81-9.21,16.09,1.46,27.42c0,0-28.18-2.32-23.94-18.77s1.12-12,1.12-12-7.71-6.63-3.9-20.4,5.73-21.54,5.73-21.54-9.74-9.68-5.73-20l-7.67-.49L242.37,173.1s-30.31-52.77-42.84-66.86-40-42.89-40-42.89S139.22,69.53,136.38,84.91Z"/><path class="cls-2" d="M303.77,91.57s-33.49-1.25-40.11,25.55,9.64,61.29,9.64,61.29-8.7,19.61,1.14,40.31c0,0-9,19.44-4.52,30.69,0,0-.12,5.25,4.5,11.25,0,0-11.48,26.83,22.82,30.79,0,0-16.18-14.73-1.7-28.54s29.1-21.37,23.56-48.5l-4.06-13s1-5.59-1.22-14.93c0,0,2.68-4.68,7.95-13.38s14.37-39.69,11.19-55.19S315.75,91.74,303.77,91.57Z"/><path class="cls-3" d="M226.31,434.19s-6.13-35.42,6.43-54.73c0,0,66.23,34.54,124.33,6.12,0,0,12,19.58,5.8,50.7Z"/><path class="cls-4" d="M272.62,172.34c-5.45-12.59-9.08-27-9-40.72.11-21,14-37.38,35.4-37.92,22.17-.55,34.05,20.15,31.35,40.44a147.26,147.26,0,0,1-13.52,44.93c-1.21,2.45,2.34,4.81,3.63,2.2,6.46-13.06,10.69-27.64,13.24-41.92,2.87-16,.35-33.21-13.46-43.6C309,87.25,293,87.4,280.63,93.55c-14.44,7.19-21.06,22.58-21.17,38.15-.1,14.55,3.85,29.66,9.61,43,1.15,2.67,4.62.15,3.55-2.33Z"/><path class="cls-4" d="M285.68,153.39c-3-5.43-4.28-13,1.54-17.12,6.26-4.43,13.84-.59,14.21,7a14.41,14.41,0,0,1-3.86,9.77,2.4,2.4,0,0,0-.28,2.73,97.93,97.93,0,0,1,12.45,24.85c2.16,6.8,4.51,15.62,3.76,22.88-.29,2.86,3.87,2.73,4.16-.08.77-7.53-1.71-17.06-3.93-24.07a102.08,102.08,0,0,0-12.89-25.92l-.27,2.73c7.66-8.45,6.17-27.83-8.55-26.33-13.58,1.38-15.42,16.05-9.88,25.94,1.42,2.54,4.88.05,3.54-2.34Z"/><path class="cls-4" d="M299,149.17c-4.61-.39-11.19-1-14.79,2.52-3.18,3.1-3.82,8.3-5.27,12.24-1.13,3.07-2.78,5.92-4.14,8.9-7.49,16.35-8.21,33.36-1.06,50.06,1.15,2.67,4.61.15,3.55-2.34-6.34-14.8-5.6-30.85,1.14-45.52,2.18-4.75,4-9.19,5.79-14.09,2.67-7.43,7.74-7.87,14.86-7.27,2.68.23,2.59-4.27-.08-4.5Z"/><path class="cls-4" d="M276.08,205.82c-.77,10.88-4.77,20.71-7.05,31.23-1.83,8.4-2.33,18.54,4,25.23,2,2.1,4.72-1.28,2.88-3.24-8.6-9.15-1.55-24.24,1.12-34.34a102.32,102.32,0,0,0,3.26-19c.2-2.87-4-2.76-4.16.08Z"/><path class="cls-4" d="M283.56,192.05c4.85,11,3.53,22.95-.36,34-2.35,6.65-7.32,14.59-4,21.67,1.24,2.63,4.7.12,3.55-2.34-2.16-4.58,1.92-11.29,3.47-15.48,1.95-5.27,3.84-10.63,4.46-16.24a47.56,47.56,0,0,0-3.59-23.94c-1.17-2.66-4.64-.14-3.54,2.33Z"/><path class="cls-4" d="M308,195.45a62.75,62.75,0,0,1,9.74,22.09C321.37,233,315,243,304.1,253.19c-7.17,6.74-15.72,13-15.56,23.88.1,6.48,3.46,13.54,9.52,16.39.32-1.4.64-2.8,1-4.21a33,33,0,0,1-14.59-3.09c-12.52-6.11-9.39-19.68-4.46-30.14,1.16-2.48-2.39-4.85-3.64-2.21-5.23,11.14-8.84,25.9,2.81,34.32,5.55,4,13.16,5.72,20,5.62,2,0,2.88-3.31,1-4.21-4.71-2.22-7.31-7.45-7.38-12.55-.09-7,4.66-11.68,9.42-16.09,7.25-6.71,15.46-13.46,19.16-22.94,5.56-14.24-1.17-33-9.72-44.85-1.69-2.34-5.16.11-3.55,2.34Z"/><path class="cls-4" d="M304.31,214.44c.7,9.74,0,23.57-8.15,30.19-2,1.66,0,5.62,2.18,3.84,9.53-7.75,11-22.59,10.12-34.1-.2-2.85-4.36-2.8-4.15.07Z"/><path class="cls-4" d="M265.93,155.47c-5.92-2.11-9.58,2.59-9,8.24.8,8.26,7.44,16.94,13.91,21.75,2.26,1.69,4.14-2.35,2-3.92a35.14,35.14,0,0,1-10.15-13c-1.38-2.92-3.44-10.77,2.22-8.75,2.59.92,3.52-3.47,1-4.36Z"/><path class="cls-4" d="M327.73,161.64c6,0,2.35,7.34,1.07,10.54-1.42,3.55-5,13.68-10.21,12.12-2.64-.8-3.57,3.59-1,4.36,8.92,2.68,13.75-11.09,16-17.21s3-14.33-5.9-14.31c-2.7,0-2.62,4.51.09,4.5Z"/><path class="cls-4" d="M334,194.57c-5.67-4.28-13-6.1-19.65-8.07-2.65-.77-3.58,3.61-1,4.36,6.38,1.87,13.25,3.56,18.64,7.63,2.25,1.7,4.13-2.34,2-3.92Z"/><path class="cls-4" d="M270.75,187.64a52.34,52.34,0,0,0-10.29,4.72c-2.25,1.42-.22,5.36,2.17,3.84a47.39,47.39,0,0,1,9.31-4.24c2.5-.9,1.41-5.26-1.19-4.32Z"/><path class="cls-4" d="M315.65,201.76c5.89.53,12.7,1.17,17.67-2.53,7.43-5.53,13.73-13.3,19.65-20.33C365.54,164,379.35,147,386,128.54c7.74-21.62,20.71-41.11,33.56-60,.82-1.21,3.44-3.82,3.71-5.35.32-1.81-1-.62-.3-.16,2.3,1.53,7.4,1.62,10.09,2.5a44.82,44.82,0,0,1,16.18,8.81l-.06-3.18C442.3,78,435.44,85.8,431.27,94.56c-4.95,10.4-9.45,21-14.6,31.31-5.41,10.81-11.58,21.22-16.82,32.11-7.23,15-13.58,30.45-21,45.35-11.07,22.1-28.87,41.19-26.63,67.41,1.52,17.77,3.21,35.54,5.41,53.24,1.35,10.95,2.85,21.9,4.93,32.74,1.36,7,2.55,15.2,6.4,21.41l.69-3.09c-19.14,14.58-45.73,21.46-69.44,19.89-26.4-1.75-54.7-8.55-76.66-23.85l1,2.52C229,359.53,233,345.28,236.57,331c5.22-20.68,10-41.3,7.9-62.69-.84-8.45-1.1-17.9-4.66-25.78-3-6.6-6.87-12.83-9.89-19.47-10.67-23.51-20.44-48.21-34-70.25-4.27-6.95-10.33-12.7-14.9-19.49s-8.58-14.14-13.27-20.95c-7.91-11.48-19.48-20-29.91-29,.13.91.25,1.82.38,2.72a52.5,52.5,0,0,1,8.22-11.88c3-3.28,6.79-6.61,11.15-7.93,1.85-.56-.31-1.61,2.05.33,9.4,7.74,17.58,18.14,25.79,27.08,10.45,11.4,20.65,22.89,28.68,36.17,9.07,15,16.63,31.16,27.09,45.29,5.49,7.42,12.41,13.31,17.54,21.08,1,1.53,2,3.31,3.49,4.4,3.23,2.31,5,.16,8.36.43,2.68.21,2.59-4.29-.09-4.5-3.58-.29-5.42.78-7.92-2.2-2-2.41-3.46-5.38-5.44-7.87-5.75-7.25-12.3-13-17.34-20.93-10.05-15.73-17.85-32.9-28.67-48.13C202.36,105.05,191.74,94,181.43,83q-7.11-7.57-14.36-15c-1.69-1.74-3.9-5.15-6.12-6.24-5.08-2.49-13,4.63-16.34,8a55.19,55.19,0,0,0-10,14,2.4,2.4,0,0,0,.37,2.72c8.73,7.61,18.77,14.8,26.06,23.82,9.4,11.64,15.53,25.54,25.24,37,8.35,9.87,13.74,21.82,19.58,33.32,5.61,11.07,10.61,22.46,15.68,33.79,3.74,8.37,7.16,17.11,11.76,25.07,4.2,7.24,5.47,14,6.39,22.38,1.18,10.68,2,20.61.5,31.28s-3.82,21.11-6.34,31.51c-3.9,16-8.34,32-13.33,47.75a2.36,2.36,0,0,0,1,2.52c22.6,15.74,51.64,22.63,78.78,24.43,24.37,1.62,51.85-5.57,71.52-20.55a2.38,2.38,0,0,0,.69-3.09c-3.3-5.3-4.35-12.3-5.56-18.31-2-9.73-3.37-19.57-4.64-29.41-2.29-17.75-4-35.56-5.59-53.38-.66-7.63-1.18-14.83,1-22.38,4.37-15.19,14.53-28.05,22.09-41.71s13.45-28.32,20-42.5c4.88-10.58,10.56-20.64,15.92-31,11.25-21.66,18.81-45.35,36.47-62.82a2.4,2.4,0,0,0-.06-3.18c-8-7.06-18.64-11.13-29.16-12.58a2,2,0,0,0-2,.61c-16.11,21.25-31.1,45.27-39.78,70.56-2.31,6.73-6.46,12.45-10.51,18.29-6.34,9.12-12.74,18.25-19.86,26.79-5.6,6.72-11.48,13.52-18.09,19.28-4.86,4.23-11,3.73-17.11,3.17-2.68-.24-2.59,4.26.08,4.5Z"/><path class="cls-4" d="M230.92,378.36c-8.13,17.24-10.72,37.91-6.6,56.47.63,2.84,4.59,1.46,4-1.27-3.85-17.36-1.36-36.87,6.24-53,1.17-2.47-2.39-4.84-3.63-2.21Z"/><path class="cls-4" d="M356.57,385c5.65,15.72,9,34.45,4.28,50.72a2.1,2.1,0,1,0,4,1.12c4.91-17,1.56-36.7-4.34-53.12-1-2.71-4.94-1.38-4,1.28Z"/><path class="cls-4" d="M158.8,62.29l-8.63-8.4a2,2,0,0,0-2.52-.3c-6,3.72-12.17,8.78-15.75,15-1.53,2.65-3.42,6.7-1.23,9.3,1.71,2,4.76,3.55,6.9,5.14s4.13-2.35,2-3.92l-6.9-5.15,1.07,1.93c.73-8,9.78-14.54,16.06-18.43l-2.53-.3,8.63,8.39c2.07,2,4.81-1.36,2.88-3.23Z"/><path class="cls-4" d="M148,55.34a142,142,0,0,0-13.7-14.05c-5.75-5.16-13.3-12-21.48-12.32-4.84-.18-10.11,2-14.32,4.17s-8.16,6.61-12.9,7.28c-6.66.93-17.88-3.56-21.21,5a2.35,2.35,0,0,0,1.3,3.28c6.63,2,13.6,3.83,20.55,4,2.7.06,2.62-4.44-.08-4.49C79.57,48,73,46.2,66.71,44.33L68,47.61c2.53-6.48,15.91-1.35,21.32-3.4,8.59-3.25,14.78-12.49,25.26-10.48,11.78,2.25,23.07,16.06,30.52,24.85,1.86,2.2,4.6-1.2,2.88-3.24Z"/><path class="cls-4" d="M72.33,46.52C65,51.29,58.86,49,50.8,49.59c-3.78.29-11.8,2-10.62,7.48,1.12,5.19,9.23,4.28,13.09,4.53,7.25.46,14.72,1.4,22,.93,2.69-.17,2.62-4.67-.08-4.5-3.19.21-30-.09-29.95-2.51,0-2.67,15.14-1.11,17-1.05,4.53.13,8.48-1.65,12.25-4.1,2.22-1.46.2-5.4-2.17-3.85Z"/><path class="cls-4" d="M47.34,56.66C40.88,56.17,36,59.9,36.48,66.59A2.22,2.22,0,0,0,38.6,68.8c17.58.89,38.73,5.32,54.58-3.72,5.76-3.29,12.85-5.66,18.26-9.37.89-.61-1.32-1.84-.36-.1.62,1.13,2.54,2.3,3.48,3.15L131.1,73.68c2.13,1.93,4.88-1.43,2.88-3.24L113.11,51.61a2,2,0,0,0-2-.54,126.67,126.67,0,0,0-16.77,8.27c-7.67,4.33-13.2,6.44-22.11,6.3C61,65.48,49.73,64.87,38.52,64.3c.7.74,1.41,1.48,2.12,2.21-.33-4.53,3-5.63,6.78-5.35,2.68.2,2.6-4.3-.08-4.5Z"/><path class="cls-4" d="M423.92,62.3l3.69-5.16C428.4,56,429.33,55,430,53.78c1-1.75,1.77-1.18-.08-1.11,7.07-.28,15.74,4.2,20.57,8.9-.12-.91-.25-1.81-.37-2.72l-5,9.8c-1.26,2.43,2.3,4.79,3.63,2.2l5-9.8a2.42,2.42,0,0,0-.38-2.72,34.61,34.61,0,0,0-13-7.85c-2.64-.92-7.34-2.83-10.24-2.28-3.9.74-7,7.84-9.21,11-1.54,2.16,1.33,5.47,3,3.13Z"/><path class="cls-4" d="M431.62,51.52c3.59-5.45,7.19-10.9,10.75-16.36s5.41-13,11-16.86c5.37-3.75,12.93-2.74,19.08-2.12,3.25.33,7.42,1.5,10.55,0,5.73-2.73,14.6-15,21.86-11.25-.16-1.17-.32-2.35-.49-3.52-3,3.79-6.16,7.48-9.51,11-5,5.19-8.91,6.76-15.65,8.81-2.55.77-1.46,5.12,1.19,4.31,6.38-1.93,10.41-3.07,15.22-7.72A136.94,136.94,0,0,0,507.35,4.54,2.37,2.37,0,0,0,506.87,1C499.5-2.82,490,5.12,484.58,9.37c-4.33,3.37-6.73,2.87-12.24,2.31-6.25-.63-13.41-1.38-19.21,1.61-6.88,3.56-8.94,10.44-12.47,16.68-3.77,6.67-8.45,13-12.67,19.34-1.52,2.3,2,4.62,3.63,2.21Z"/><path class="cls-4" d="M497.29,16c3.84-3.26,15.3-12.76,20.06-7.71l-.06-3.18c-7.35,7.45-15,13.46-25.16,16.46-2.56.75-1.47,5.1,1.19,4.32,10.89-3.21,19.11-9.68,27-17.65a2.4,2.4,0,0,0-.06-3.18c-6.88-7.3-19.5,2.33-25.12,7.09-2,1.7,0,5.67,2.18,3.85Z"/><path class="cls-4" d="M510.34,17.17c4-1.72,12.49-4.85,15.3.11.4-1.11.79-2.22,1.18-3.33C516.4,17,507.38,22.69,497.25,26.3c-7.54,2.69-14.62,2.33-22.44,2.14-3.25-.08-9.29-.77-12.13,1.3-3.22,2.35-5.66,8.64-7.77,11.92l-8.86,13.79c-1.48,2.31,2.07,4.63,3.64,2.2q4-6.27,8.05-12.53c2.35-3.66,5.54-11.29,9.37-12.27,5.26-1.35,12.37.58,17.81.41a46,46,0,0,0,16-3.61c9.15-3.71,17.54-8.59,27.09-11.38a2.33,2.33,0,0,0,1.18-3.33c-4.05-7.13-13.79-4.74-20-2.09-2.43,1-1.35,5.39,1.19,4.32Z"/><path class="cls-4" d="M482.3,33c4.6,3.17,11,5.52,16.5,3.72s10.11-6.78,13.26-11.36c1.5-2.17-1.38-5.49-3-3.13a29.83,29.83,0,0,1-9.33,9.18c-5.06,2.87-11,.74-15.41-2.33-2.32-1.6-4.2,2.42-2,3.92Z"/><path class="cls-4" d="M362,337.41l-12,9.4c-2.07,1.63-.05,5.59,2.17,3.85l12-9.41c2.07-1.62.05-5.59-2.17-3.84Z"/><path class="cls-4" d="M229.23,335.12l7.89,11.26c1.66,2.36,5.13-.09,3.55-2.34l-7.89-11.26c-1.66-2.36-5.13.09-3.55,2.34Z"/><path class="cls-4" d="M519.64,346.44h-.16a2.24,2.24,0,0,1-2.08-2.4,49,49,0,0,1,29.93-41.57,2.25,2.25,0,1,1,1.72,4.16,44.51,44.51,0,0,0-27.17,37.72A2.24,2.24,0,0,1,519.64,346.44Z"/><path class="cls-4" d="M420.48,395.31a2.24,2.24,0,0,1-2.2-1.78,49.23,49.23,0,0,1,88.35-40.38,2.25,2.25,0,0,1-3.73,2.52,44.74,44.74,0,0,0-80.25,36.79,2,2,0,0,1,.08.59A2.26,2.26,0,0,1,420.48,395.31Z"/><path class="cls-4" d="M387.34,432.27a2.25,2.25,0,0,1-2.25-2.25,39.31,39.31,0,0,1,35-39.17,2,2,0,0,1,.42,0,2.24,2.24,0,0,1,2.25,2.24h0a2.25,2.25,0,0,1-2,2.24A34.83,34.83,0,0,0,389.59,430,2.25,2.25,0,0,1,387.34,432.27Z"/><path class="cls-4" d="M496.86,380.62a2.25,2.25,0,0,1-2.25-2.25,38.68,38.68,0,0,1,52.95-35.93,2.25,2.25,0,0,1-1.66,4.19,34.16,34.16,0,0,0-46.79,31.74A2.25,2.25,0,0,1,496.86,380.62Z"/><path class="cls-4" d="M81.93,354.35a2.21,2.21,0,0,1-1.1-.29A2.25,2.25,0,0,1,80,351a2.65,2.65,0,0,1,.44-.56,43.73,43.73,0,0,0-47.52-72,2.25,2.25,0,1,1-1.83-4.11,48.24,48.24,0,0,1,52.45,79.41A2.3,2.3,0,0,1,81.93,354.35Z"/><path class="cls-4" d="M90.3,402.21a2.29,2.29,0,0,1-1.19-.34,2.25,2.25,0,0,1-.71-3.1,34,34,0,0,0-7.85-44.89,2.25,2.25,0,1,1,2.92-3.43,38.53,38.53,0,0,1,8.74,50.7A2.25,2.25,0,0,1,90.3,402.21Z"/><path class="cls-4" d="M26.13,302.6a2.25,2.25,0,0,1-1.91-3.44,33.41,33.41,0,0,0-10.65-46,33.15,33.15,0,0,0-11.72-4.54,2.25,2.25,0,0,1,.8-4.43A37.82,37.82,0,0,1,16,249.36,37.91,37.91,0,0,1,28,301.54,2.23,2.23,0,0,1,26.13,302.6Z"/><path class="cls-4" d="M152.21,401.1a2.25,2.25,0,0,1-2.17-1.67A33.39,33.39,0,0,0,97.92,381.1a2.25,2.25,0,1,1-2.68-3.61,37.89,37.89,0,0,1,59.15,20.79,2.25,2.25,0,0,1-1.6,2.75A2.3,2.3,0,0,1,152.21,401.1Z"/></g></g></svg>