<svg xmlns="http://www.w3.org/2000/svg" viewBox="0 0 572.65 626.87"><defs><style>.cls-1{fill:#fffc19;}.cls-2{fill:#fff;}.cls-3{fill:#231f20;}</style></defs><g id="レイヤー_2" data-name="レイヤー 2"><g id="character"><path class="cls-1" d="M148.26,262.83s6.5,65.5,8,85,1.77,133.15,0,157-20.2,114-20.2,114l143.2-3.3s-27.88-100.17-26-122.7-11.5-190-11.5-190l-5.5-33s-28,17-52.5,12-31.5-19-31.5-19Z"/><path class="cls-2" d="M9.43,606.47s-6.67-43,0-98.31L41.48,283.3,130,252.83a209.92,209.92,0,0,0-20.58,57.33l20.69,12.67s-24,17.33-25.36,22.66,39.34,161.34,43.34,184l-12,86S32.76,620.11,9.43,606.47Z"/><path class="cls-2" d="M279.26,615.53s49.74,2.66,61-18c0,0-22.12-35.61-20.12-76.14s4.66-67.88,4.66-67.88,4.91,22,19.34,28.71l36,29.29s8.65,17.67,12.66,15.34c0,0,22.66,1.58,41.5-19l56.5-36.5,3-17.84-14.5,10.34-8,6.5s-20-6.5-17.77-24.5,7.77-27.5,7.77-27.5l-1.6-14.61-15.4,18.11-33.5,19-7.5-11s1.5-9.72-7.5-26.11-18-29.39-18-29.39-4-17.5-11.5-28-25-53.5-25-53.5-3.5-18.5-16.5-21-73.5-23.5-73.5-23.5l32,57-13,12,16.07,13.5-2.07,92s-15.39,104-22.69,122.77C261.57,545.6,268.26,596.73,279.26,615.53Z"/><path class="cls-3" d="M572.26,321.62a3,3,0,0,0-2.34-1.51c-.75-.08-18.4-1.45-26.28,13.92l-9.38,17.05-12.63,13.5c-8.54,5.81-18.64,12-24,14.4l1.74-20.82c.59-1.6,2.08-6.58,3.26-18.47,1.61-16.16-6.25-19.19-7.15-19.49l-.29-.08a11.93,11.93,0,0,0-10.79,2.53c-8.86,7.75-7.88,29.07-7.58,33.47L472,372.78a77.85,77.85,0,0,0-12.31,30.94,3,3,0,0,0-.88.17c-5.86,2.2-14.57,12.89-16.57,15.43-2,1.29-11.52,7.18-26.3,15.07-1.14.6-2.21,1.24-3.22,1.9a16.29,16.29,0,0,0-5.73-5.73c-.71-24.48-20.27-50.76-25.17-57,.58-10.26-6.35-23.57-13.94-31.92-4.83-5.32-16.06-31.41-22.43-47.66-.05-.12-.12-.22-.18-.34.28-3.63.43-5.72.44-5.87v0a2.71,2.71,0,0,0,0-.29,3.09,3.09,0,0,0,0-.53h0c-2-13.77-8.68-17.12-24-19.8-14.36-2.52-69.44-22.61-70-22.82-.14-.05-.29-.07-.44-.11-8.27-11.8-15.22-20.59-18-24-.15-3.41-.21-6.23-.24-7.86,8-8.65,15.76-19.23,18.18-28.92.38-1.53.75-3.33,1.1-5.32a15.84,15.84,0,0,0,8.93-4.47c7.38-7,10.95-20.5,10.14-29.49-.38-4.11-2.22-6.28-3.93-7.42,12.15-16.62,13.15-48,9.64-66.59-3.63-19.22-31.74-56.55-53.17-65.89-24.43-10.66-50.34,2.17-53.22,3.67-7.17,3.75-16.22,13-19.46,16.5a85.44,85.44,0,0,0-17.32,2.51c-10.78,3-14.66,8.94-25.27,27.33C99,70.91,104.38,83.87,107,88.47a64,64,0,0,0-1.44,12.27c-.35,9.44,11.13,29.27,14.42,34.76-2,1-4.39,3.27-4.87,8.6-.82,9,2.75,22.48,10.13,29.49a15.82,15.82,0,0,0,9,4.48c1.48,6.12,3.22,11.36,5.28,14.89a89.33,89.33,0,0,0,8.73,12,110.17,110.17,0,0,1-.83,20.23,4,4,0,0,0-2.95,2.65c-1.53.48-9.8,3.81-19,20.85a3.94,3.94,0,0,0-2.75,0c-2.58.94-63.28,23.25-75.72,30.74-9.58,5.76-10.31,9.7-10.31,14.65a10.68,10.68,0,0,1-.58,4.17c0,.13-.06.25-.09.38s-.08.24-.11.37v0h0C34.4,308.05.8,509.62.1,545.72-.84,594.19,5.2,607,5.9,608.34a3.94,3.94,0,0,0,3.5,2.11,4,4,0,0,0,3.6-5.79c-.06-.12-5.8-12.49-4.9-58.78.68-35.14,34.53-238.52,35.68-245.42A18.94,18.94,0,0,0,44.7,294c0-1.63,0-2.75,1.55-4.3a380.63,380.63,0,0,1,5,49.59c.86,29.83,3.49,84.73,3.52,85.28a4,4,0,0,0,4,3.81h.19a4,4,0,0,0,3.81-4.19c0-.55-2.65-55.38-3.52-85.13a387.58,387.58,0,0,0-5.69-54.17c13.37-6.85,54.07-22.13,67.56-27.14-5.2,12.08-10.4,29-14.56,52.57a3,3,0,0,0,1.38,3.08l16.35,10.09c-8.13,5.53-17.47,13-21.75,20.3a3.08,3.08,0,0,0-.41,1.48c-.18,16.35,11.06,56.85,21.94,96,3.84,13.83,7.47,26.89,10.55,38.73,8,30.57,10.07,49.33,10.58,58.56a721.33,721.33,0,0,1-15.93,83.27,4,4,0,0,0,2.88,4.87,3.87,3.87,0,0,0,1,.13,4,4,0,0,0,3.87-3c36.57-142.37,23.28-304.5,18-337-1.19-7.34-2-14.17-2.52-20.38,6.08,7.39,19.11,19.33,39.92,19.33,1.09,0,2.19,0,3.32-.1,20.57-1.23,31.28-6.4,36.79-11,4.73,32,11,83.41,11.64,134.52,1.08,85.35,16.44,185.39,32.23,209.89a4,4,0,0,0,3.37,1.83,3.91,3.91,0,0,0,2.16-.64,4,4,0,0,0,1.2-5.52c-6.19-9.6-12.4-32.54-17.63-62,.77-9.69,4.21-26.06,8.06-44.41,4.39-20.86,9.36-44.5,12.12-66.2,6-46.77,4.54-112,4.52-112.71a3,3,0,0,0-1.84-2.69,113.1,113.1,0,0,1-15.2-8.54l11.52-10.08a3,3,0,0,0,.82-3.36c-6.86-17.21-17-34.72-26.69-49.44C275.63,261.4,309,273,320.28,275c14.26,2.5,16.2,4.68,17.39,12.64-.6,8.15-9.29,124.05-17.46,171.33-10.18,59-.65,122.85,14.35,138.43a4,4,0,1,0,5.76-5.56c-11.44-11.87-22-67.45-13.11-126,2.76,6.29,6.71,13,12.06,17,4.36,3.32,10,8.38,15.35,13.28,8.67,7.85,16.86,15.27,22.08,17.64,1.68.77,3.47,3.64,5.19,6.43,3.2,5.15,7.75,12.48,16.41,12.48a19,19,0,0,0,5.95-1c14.43-4.76,29.48-18.31,32.37-21,13.45-6.49,54.49-27.1,58.21-39,3.54-11.34,3.72-15.38,3.72-16.07a3.93,3.93,0,0,0-1.57-3.14c14.11-12.58,35.65-33.62,49.33-55.73a3,3,0,0,0,.1-3l-.14-.22a3,3,0,0,0,.3-.59l8.89-24.15s0-.06,0-.08.06-.16.08-.25l4.75-19.54,12-24.48A3,3,0,0,0,572.26,321.62ZM257,169.24a11.07,11.07,0,0,1-3.81,2.47c1.18-8.6,2.14-19.21,2.82-29.17a21.68,21.68,0,0,1,4-1.16,4.06,4.06,0,0,0,1.33.24,3.88,3.88,0,0,0,1.6-.35,3.55,3.55,0,0,1,.92.3c.3.16,1.23.65,1.45,3.08C266,152.08,262.84,163.74,257,169.24Zm-127.67,0c-5.8-5.5-9-17.16-8.29-24.59.13-1.43.51-3.25,1.59-3.79,1.42-.71,4.33.28,6.08,1.26.94,9.59,2.26,20.12,4.08,29.44A11.42,11.42,0,0,1,129.37,169.24Zm18.79,344.43c-1.63-9.4-4.08-21-7.76-35.14-3.1-11.88-6.73-25-10.58-38.83-10.09-36.33-21.5-77.43-21.72-93.53C116,333.74,141.28,320.1,141.54,320a3,3,0,1,0-2.83-5.29c-.41.22-4,2.17-8.9,5.23l-17-10.5c9.95-54.72,25.13-70.35,31-74.48a253.6,253.6,0,0,0,3.32,53.21C151,312.18,159.33,407.94,148.16,513.67Zm47.22-233.95c-27.91,1.67-41.14-20.88-41.7-21.87a3,3,0,0,0-1.85-1.42,207.23,207.23,0,0,1,.08-22.92,95.44,95.44,0,0,0,2.49-21.8c7.49,7.73,16,14.77,22.93,17.95,4.41,2,11.08,3.4,18.07,3.4,8.07,0,16.59-1.84,22.6-6.64,2-1.63,4.52-3.78,7.18-6.28a184.86,184.86,0,0,0,2,22.13,0,0,0,0,1,0,0,.06.06,0,0,0,0,0c0,.27,1.8,9.58,4.16,24.89C228.82,270.7,220.4,278.22,195.38,279.72ZM226.12,208l0,.05A132.67,132.67,0,0,1,213,220.17c-8.15,6.52-24.85,5.65-32.33,2.22-10-4.58-27.24-21.47-34.24-33.46-7.57-13-11-57.88-11.73-75.63,3.16-6.1,5.42-22.22,6.83-35.75,1-1.39,4.57-4.91,7.47-7.79,3.24-3.22,6.84-6.79,10.15-10.39,6.25,3.73,21.37,10.07,45.07,3.66,19.59-5.29,22.79-.15,27.22,7,2.58,4.14,5.75,9.23,12.26,12.14,1.5,2.52,6,11.64,5.71,30.07,0,.1,0,.2,0,.3a4.05,4.05,0,0,0-.26,1.52c.26,11.09-2.11,52.71-5.79,67.42C241.29,189.78,233.9,199.68,226.12,208Zm53,97.13L268,314.86c-5.22-3.5-9.17-6.35-9.25-6.41a3,3,0,0,0-3.52,4.86c.77.56,18.13,13.1,29.06,18.23.19,11,.84,68-4.51,109.91-2.74,21.46-7.68,45-12,65.72-2,9.67-3.89,18.55-5.35,26.3a963.91,963.91,0,0,1-10.17-124.34c-1-83.05-16.8-166.85-17.07-168.27-.54-3.09-.94-6.63-1.24-10.17,3.33,4.32,7.67,10.13,12.47,17a4,4,0,0,0,2.59,4.17l.38.14C259.63,267.08,271.34,286.22,279.13,305.08ZM432.6,503.7a4.12,4.12,0,0,0-1,.72c-.15.15-15.8,15-29.82,19.64-6.07,2-8.52-.77-13.05-8.07-2.36-3.8-4.79-7.72-8.68-9.49-4.08-1.86-12.55-9.52-20-16.29-5.52-5-11.24-10.19-15.87-13.72-8.94-6.8-13.42-24.47-14.19-27.78,5.61-38.62,11.15-102.88,13.92-137.36,5.46,12.95,13.34,30.47,18.09,35.69,6.55,7.21,12.91,19.65,11.75,27.17a4,4,0,0,0,.88,3.17c.23.27,21.75,26.41,24.19,50.26q-10.2-1.81-26.45,1.94c-.71.17-1.23.29-1.52.34a3,3,0,0,0,.21,6,12.58,12.58,0,0,0,2.67-.5q16.95-3.93,25.87-1.52c0,.05.06.11.1.17a21.77,21.77,0,0,0-7.82,1.76c-11.39,4.93-16.1,18.21-16.3,18.77a3,3,0,0,0,1.85,3.82,3.12,3.12,0,0,0,1,.17,3,3,0,0,0,2.83-2c0-.11,4-11.34,13-15.23a17.52,17.52,0,0,1,12.55-.25,33.63,33.63,0,0,0-10.13,20.74,3,3,0,0,0,2.86,3.13h.13a3,3,0,0,0,3-2.86c0-.14.81-14.24,16.13-22.42,16.91-9,27-15.51,27.13-15.58a2.67,2.67,0,0,0,.74-.68c3-3.84,8.31-9.86,12.08-12.63-2.75,6.34-13.76,33.9-4.64,51.22a23.51,23.51,0,0,0,8.6,9.2c-4.77.83-10.9,2-15.87,3.06-10.27,2.28-27.28,29-30.59,34.29a3,3,0,0,0,1,4.13,2.94,2.94,0,0,0,1.58.45,3,3,0,0,0,2.55-1.42c7.67-12.35,21-30.32,26.79-31.6,9.37-2.08,23.07-4.25,23.2-4.27a3,3,0,0,0,1.57-.76c.42.08.81.19,1.23.26a19.83,19.83,0,0,0,4.86.59c.64,0,1.31,0,2-.1C471,483.56,450.93,494.9,432.6,503.7ZM541.46,389.44a8.26,8.26,0,0,0-2.85-.55h-.19c-5.54,0-11.26,5-17.46,15.2-4.5,1.18-19,5.9-24.89,19.1a3,3,0,1,0,5.47,2.46c5.65-12.55,21.78-16,21.94-16a3,3,0,0,0,2-1.42c7.07-12,11.41-13.34,12.95-13.34h0a2.78,2.78,0,0,1,1.59.54c-21,32.82-60.4,63.87-60.8,64.18a3,3,0,0,0,1.85,5.36,3,3,0,0,0,1.85-.63c.41-.33,3.07-2.43,7.15-5.89-.32,1.6-.87,3.92-1.79,7.14-4.42,5.85-11.83,4.19-12.81,3.94l-.29-.07c-7.7-1.27-12.88-4.62-15.84-10.23-5.24-10-2.34-24.79.87-35.17.08.36.14.71.23,1.07a2.92,2.92,0,0,0,1.46,1.87c-1.52,5.32-2.93,11.24-2.93,14.84,0,4.75,1.64,11.09,6.22,14.67a11.14,11.14,0,0,0,7,2.41,13.78,13.78,0,0,0,3.25-.41,3,3,0,0,0-1.45-5.82,5.62,5.62,0,0,1-5.08-.9C466.56,450,465,446,465,441.83c0-5.35,4.47-19.3,6.19-24.22a3,3,0,0,0-5.66-2c-.07.19-.2.56-.35,1-1.77-21.71,11.81-40.57,12-40.78a3,3,0,0,0,.46-.93l5.15-17.68a3,3,0,0,0,.1-1.08c-.47-5.86-.48-23.78,5.5-29a5.86,5.86,0,0,1,5.34-1.23c.5.29,4,2.76,3,13.15-1.31,13.15-3,17.1-3,17.1a3,3,0,0,0-.28,1l-1.86,22.31a3.17,3.17,0,0,0,.11,1.07c-6,1.92-12,8.42-12.8,9.26a3,3,0,0,0,4.44,4c2.88-3.17,8.32-7.7,11.37-7.83,6.05-.27,25-12.86,30.61-16.72a2.53,2.53,0,0,0,.5-.43l13.11-14a2.85,2.85,0,0,0,.43-.6l2.79-5.06a23.79,23.79,0,0,0-1.26,4.53l-3.6,8.44-6.55,9.28c-4.09,1.13-15.22,4.62-18.8,9.89a3,3,0,1,0,5,3.37c1.93-2.83,10.2-6.06,15.82-7.58-.15.41-.31.8-.45,1.22l-6.06,7.85c-3.35.71-12.28,3.33-16.44,11.68a3,3,0,0,0,1.34,4,3.05,3.05,0,0,0,1.34.31,3,3,0,0,0,2.69-1.66c3.62-7.27,13-8.63,13.12-8.64a3,3,0,0,0,2-1.14l7.08-9.18a2.94,2.94,0,0,0,.48-.93c1.7-5.35,4.12-8.76,7.19-10.14a7.93,7.93,0,0,1,3.68-.69Zm9-25.38a14,14,0,0,0-7.82,1l-.12.06a1.88,1.88,0,0,0,.14-.24l3.86-9.06a3.31,3.31,0,0,0,.2-.68c1.2-7.29,5.34-9.64,8.43-10.37Zm8.29-25.57a16.45,16.45,0,0,0-14.33,6.56l4.52-8.2c3.91-7.64,11.07-9.92,15.8-10.57Z"/><path class="cls-3" d="M58.62,432.27a4,4,0,0,0-3.88,4.11c0,.69,2,69.05,0,105.72-1.12,20.78-3.21,63.74-3.23,64.18a4,4,0,0,0,3.8,4.19h.2a4,4,0,0,0,4-3.81c0-.43,2.11-43.37,3.23-64.13,2-37,0-105.69,0-106.38A3.93,3.93,0,0,0,58.62,432.27Z"/><path class="cls-3" d="M213.55,178.7c-25.24,11.47-39.91.8-40.53.34a3,3,0,0,0-3.65,4.77,22.73,22.73,0,0,0,2.24,1.42c0,.12,0,.24,0,.37,1.36,7,7.59,20.31,21.46,20.31,6.21,0,17.11-2.78,21.05-20.95.63-.27,1.24-.51,1.88-.8a3,3,0,0,0-2.48-5.46ZM193.1,199.91c-8.59,0-12.69-7.15-14.44-11.73A43.67,43.67,0,0,0,191.27,190a55.14,55.14,0,0,0,16-2.54C205.21,193.86,201.12,199.91,193.1,199.91Z"/><ellipse class="cls-3" cx="168.56" cy="134.6" rx="5.51" ry="6.58"/><path class="cls-3" d="M175,111.85s2.51.62,2.94-1.14a3.27,3.27,0,0,0-2.76-4.2c-8.89-2.13-17.77,1.25-22,3.91s-2.67,5.16-2.67,5.16C162.35,108.65,172.31,110.71,175,111.85Z"/><ellipse class="cls-3" cx="218.34" cy="134.6" rx="5.51" ry="6.58"/><path class="cls-3" d="M233.79,110.42c-4.26-2.66-13.15-6-22-3.91a3.26,3.26,0,0,0-2.75,4.2c.43,1.76,2.93,1.14,2.93,1.14,2.67-1.14,12.62-3.2,24.53,3.73C236.46,115.58,238.06,113.09,233.79,110.42Z"/><path class="cls-3" d="M193.55,167.74a13.37,13.37,0,0,0,9.76-4.58,1.07,1.07,0,0,0-1.05-1.78,34.28,34.28,0,0,1-7.73,1.21,24.59,24.59,0,0,1-7.76-1.77,1.41,1.41,0,0,0-1.6,2.18C187,165.35,190.14,167.74,193.55,167.74Z"/><path class="cls-3" d="M135.51,552.42c1.38-4.93.08-9.6-2.9-10.43s-6.51,2.49-7.88,7.43-.08,9.61,2.9,10.44S134.14,557.36,135.51,552.42Z"/><path class="cls-3" d="M119.17,597.53c-3-.82-6.5,2.5-7.88,7.44s-.07,9.6,2.9,10.43,6.51-2.49,7.89-7.43S122.15,598.36,119.17,597.53Z"/><path class="cls-3" d="M444.05,486c-3,3.3-4,7.26-2.24,8.85s5.6.2,8.58-3.1,4-7.26,2.24-8.84S447,482.66,444.05,486Z"/></g></g></svg>