<svg xmlns="http://www.w3.org/2000/svg" viewBox="0 0 686.09 539.52"><defs><style>.cls-1{fill:#fffc19;}.cls-2{fill:#231f20;}.cls-3{fill:#fff;}</style></defs><g id="レイヤー_2" data-name="レイヤー 2"><g id="character"><path class="cls-1" d="M334.19,367.92s7.52-51.06,17.69-59.47,53.21-26.11,53.21-26.11l1.84,37.13,23.52-23.38,3.46,17.47,15.45-20s19.43,15,26.78,25.94l24.13-46.41s70.09,25.21,75.49,31.48,42.37,63.72,48,82.68,24.8,41.2,19.71,59.52-3.69,22-24.39,24.18c0,0-9.34,13.26-26,7.64,0,0,16.63-14.2,7.88-27.16S574.17,440,574.17,440l8-8.72,3-10.69-19.88-24.5,1.92,47.29-21.57,8.73h-6.93l-9,4.36s-28.41-13.64-36.55-14.13S466,449.42,466,449.42l-20.49-2.68-11.92-59.68-6.75-5.82Z"/><path class="cls-2" d="M443.62,209.89c2.56.15,4.8-2.37,5-5.64s-1.66-6.05-4.22-6.2-4.8,2.36-5,5.63S441.07,209.73,443.62,209.89Z"/><path class="cls-2" d="M447.72,188c3.39.24,6.7,1.54,10.4,4.39a1.21,1.21,0,0,0,1.93-.73,3.74,3.74,0,0,0-1.27-3.13c-2.56-2.62-8.59-6.11-13.16-6.37,0,0-3.11,0-3.29,2.27S444,187.74,447.72,188Z"/><path class="cls-2" d="M414.89,200.3c-.22-3.27-2.47-5.79-5-5.64s-4.44,2.94-4.22,6.21,2.47,5.79,5,5.63S415.11,203.57,414.89,200.3Z"/><path class="cls-2" d="M423.19,226.94s4.07-.68,2.54-1.36-3,.49-7.63-4.22c-1.31-1.32-2.84-1.16-2.84.73C415.26,223.16,417.19,227.33,423.19,226.94Z"/><path class="cls-2" d="M424.71,252.77a11.88,11.88,0,0,0,3.64-.58c2.83-.91,9.45-4.31,11.61-16.11a1.83,1.83,0,0,0,.25-.06A2.25,2.25,0,1,0,439,231.7c-16.39,4.75-27.39-1.77-27.51-1.85a2.25,2.25,0,0,0-2.37,3.83l.12.07a2.07,2.07,0,0,0,.12.73c.41,1.16,4.08,11.4,7.57,15A10.77,10.77,0,0,0,424.71,252.77ZM427,238a46.31,46.31,0,0,0,8.12-.77c-1.45,5.58-4.38,9.5-8.16,10.72a6.48,6.48,0,0,1-6.83-1.54c-1.77-1.83-3.95-6.69-5.38-10.26A40.52,40.52,0,0,0,427,238Z"/><path class="cls-2" d="M355.79,464l-11.73,10.29a2.25,2.25,0,1,0,3,3.38l11.73-10.29a2.25,2.25,0,1,0-3-3.38Z"/><path class="cls-2" d="M345.11,470.75a2.28,2.28,0,0,0,1.48-.56l5.74-5a2.25,2.25,0,0,0-3-3.38l-5.75,5a2.25,2.25,0,0,0,1.49,3.94Z"/><path class="cls-2" d="M528.85,379.09l-50.2-15.93a2.25,2.25,0,1,0-1.36,4.29l50.2,15.93a2.3,2.3,0,0,0,.68.11,2.25,2.25,0,0,0,.68-4.4Z"/><path class="cls-2" d="M683.43,473.91l-48.21-5.58c5.19-3.86,7.55-9.5,10.42-17.31,5.05-13.71-14.33-54.6-16.5-59.1-5.26-12.31-40.88-85.59-55.21-92.41-11.33-5.39-63.53-25.73-71.59-28.86a58.34,58.34,0,0,0-11.48-14.55,3,3,0,0,0-2.24-.68,3,3,0,0,0-1.37.52,63.26,63.26,0,0,1-1.64-11.22,2.38,2.38,0,0,0,.55-.28c23.51-16.86,37.9-49.48,31.42-71.22-5.05-16.94-14-24.24-20-27.35,2.63-6.59,3.87-17.39-5.27-24.73-7.68-6.17-14.61-5.15-17.2-4.45-5.07-2.52-8.53-2.22-10.2-1.78-2.35-.91-8.09-2.86-12.06-2a18.63,18.63,0,0,0-15.81-.83c-6.28-2.28-20.32-.23-23.23.24h0a2.72,2.72,0,0,0-.61.2l-.11.06a2.23,2.23,0,0,0-.5.37l-.07.09a1.81,1.81,0,0,0-.18.21,31.69,31.69,0,0,0-4.1,8h0c-19.81,19.33-7.63,38.68-3.47,44.12-4.29,7.86-8.44,18.83-10.12,33.45-3.29,28.51,9.64,54.77,16.26,63a51.31,51.31,0,0,0-6.6,17.6c-9.87,3-48.52,15.48-55.62,28.58-7.28,13.43-16.57,53.25-17.3,56.42l-70.92-10.61a8.37,8.37,0,0,0-9.66,10.21l12.59,61.29-67.2-7.77a3,3,0,1,0-.69,6l69.16,8L275.16,483a3,3,0,0,0,2.5,2.36l180.3,27a3.15,3.15,0,0,0,.44,0,3,3,0,0,0,2.18-.93,3,3,0,0,0,.71-1.26l46.62-30.36c6.22,2.09,13,3.26,18.77,1.56l4.65-.55.72,1a2.27,2.27,0,0,0,1.85,1h13.16a2.26,2.26,0,0,0,1.79-.89c0-.07.33-.45.73-1.09a2.27,2.27,0,0,0,1.5.57h.12l32.27-1.77a2.28,2.28,0,0,0,1.65.73,23.28,23.28,0,0,0,6-.76,2.23,2.23,0,0,0,1.43,1.14,28.75,28.75,0,0,0,6.53.66A36.25,36.25,0,0,0,612.21,479a18.75,18.75,0,0,0,7.13-5.05h.18c1.57-.24,3-.52,4.39-.82l58.83,6.8.35,0a3,3,0,0,0,.34-6ZM489.19,262.84A59.09,59.09,0,0,1,497,273.29c-4.19,10.28-14.09,32.91-20.77,41.64-4.28-4.9-13.82-15.43-21.72-21.49a66.72,66.72,0,0,1,5.89-3.41C470.47,284.76,484,269.09,489.19,262.84Zm-41.77,28.39-.11.1a10.28,10.28,0,0,0-3.22,4.31c-.88,1.46-4.07,6.8-7.65,12.81a53.38,53.38,0,0,0-3.22-13.52c-3-7.25-4-10.07-4.23-10.69v0l0-.1h0c-1.44-4.36-4.21-11.47-5.94-15.8a32.35,32.35,0,0,0,6,.58,33.51,33.51,0,0,0,12-2.21c9.24-3.52,26.28-14.1,32.79-27.48,1.79,1.68,4.27,4.06,5.8,5.74a62.42,62.42,0,0,0,3,16.4c-5.86,6.88-17,19.18-25.05,23.38A53,53,0,0,0,447.42,291.23Zm-46.89-91.69a95.79,95.79,0,0,1,3.13-15.72,15.91,15.91,0,0,1,5.55-.19c3.73.45,5.74-.23,6-2.49s-2.76-2.84-2.76-2.84a20.92,20.92,0,0,0-7.15.4c6.18-17,15.35-24.47,15.51-24.6a3,3,0,0,0,1-1.47,17.51,17.51,0,0,1,16.26.14,3,3,0,0,0,2.53,2c1.07.1,26.18,2.67,27.5,22.34a61.19,61.19,0,0,1-1.6,18.14c-1.32,6.27-2.45,11.7,2.14,18.27a3,3,0,0,0,5-.12c1.58-2.48,7.08-9.22,11.56-7.62a3.47,3.47,0,0,1,2.31,1.85c1.15,2.65-1,7.74-2.48,11.1L485,219c-3.18,7.4-9.32,14.63-17,12.7a3,3,0,1,0-1.46,5.82c.43.11.85.17,1.28.24-5.89,10.72-20.23,20-28.92,23.36s-18.32,1.64-22.32-1.8C412.29,255.59,397.21,228.39,400.53,199.54Zm9.4,82.42a44.51,44.51,0,0,1,5.58-16.21l.26.14a3,3,0,0,0,.2,1c1.63,4,5.6,14,7.26,19.07l.15.45c.22.68.39,1.26.5,1.69a3,3,0,0,0,.53,1.1c.57,1.5,1.41,3.59,2.6,6.46-2.26.83-5.28,2.91-8.78,7.79a71.08,71.08,0,0,1-8.3,9.39Zm-56,28.94c5-9.29,34.92-20.3,50-25.06v33.63a3,3,0,0,0,3,3,3,3,0,0,0,1.86-.64,83.51,83.51,0,0,0,14.31-14.92c2.91-4,5-5.25,5.92-5.61a76.15,76.15,0,0,1,2.06,16.14c-2,3.32-3.77,6.35-5.05,8.54-4.14,7.06-5.59,17.51-4.3,31,.56,5.85-1,16.77-1.67,20.72l-52.92-7.91V346.23a2.25,2.25,0,0,0-4.5,0v22.92l-25.38-3.8C338.49,360.12,347.32,323,353.89,310.9ZM280.62,479.73l-24-116.87a2.64,2.64,0,0,1,.53-2.41,2.61,2.61,0,0,1,2.36-.67l167,25a5.09,5.09,0,0,1,4,3.84L454.6,505.75Zm173.14-22.07-2.58,1.64-2-9.82,3.91.51a2.22,2.22,0,0,0-1.48,2.08A8.38,8.38,0,0,0,453.76,457.66Zm.75,10-1.39,1.13-.47-2.31A9,9,0,0,0,454.51,467.63Zm.16,8.67a9.35,9.35,0,0,0,1.48.77,2.89,2.89,0,0,0,.08.58,7.31,7.31,0,0,0,4,4.65,6.63,6.63,0,0,0,2.51.48,10.78,10.78,0,0,0,5.38-1.69,38.39,38.39,0,0,0,10-8.07l12.14-1.77c1,.62,2.82,1.76,5.25,3.07L459.13,498Zm5.95,28.93-.52-2.49,39.66-25.82a3,3,0,0,0,.34-.28q1.26.6,2.61,1.17Zm73.68-29.31-8.35,1a2,2,0,0,0-.4.08c-5,1.55-11.27.31-17-1.75l-.13,0A87,87,0,0,1,492,467a2.24,2.24,0,0,0-1.57-.36l-13.86,2a2.29,2.29,0,0,0-1.52.93s-2.74,3.83-9.19,7.58c-1.64.95-3,1.29-3.9.94a2,2,0,0,1-.76-.55c3.06-2.68,10.68-9.25,14.32-11.35,4.75-2.74,14-7.59,14.08-7.64a2.25,2.25,0,1,0-2.09-4c-.38.2-9.41,4.94-14.24,7.72-3.62,2.09-10.35,7.78-14,10.92a5,5,0,0,1-2.95-1.34c3.73-3.07,13.71-11.14,18.18-13.28,5.64-2.69,19.13-7,19.27-7a2.25,2.25,0,0,0-1.36-4.28c-.57.18-13.93,4.44-19.85,7.26-3.34,1.6-9.09,5.89-13.67,9.49a4.92,4.92,0,0,1-4.1-1.77l4.18-2.66a2.18,2.18,0,0,0,1-.67c4.83-3.1,10.57-6.83,11.69-7.8,1.36-1.1,14.55-6.61,23.62-6.61h0c4.33,0,22.71,8.52,33.27,13.88a2.22,2.22,0,0,0,1.06.24l0,0c.29.11,6.93,2.92,6.64,9.79C536.17,474,534.73,475.56,534.3,475.92ZM456.48,453.8l5-1.08-3.63,2.34A2.55,2.55,0,0,1,456.48,453.8Zm89.37,24.51H538.2c1.24-1.61,2.48-4.48,2.7-9.63,0-.53,0-1,0-1.52a9.66,9.66,0,0,0,3,.49,7,7,0,0,0,4.94-1.87c.09-.08.15-.19.24-.28A22.52,22.52,0,0,1,545.85,478.31Zm-8.39-21.17a2.09,2.09,0,0,1,.6-1.59,2.63,2.63,0,0,1,1.84-.61,6.56,6.56,0,0,1,4.36,2,5.91,5.91,0,0,1,2,4,2.11,2.11,0,0,1-.6,1.6c-1.13,1.07-3.95.79-6.19-1.35A5.91,5.91,0,0,1,537.46,457.14Zm54.33,17.52-40.21,2.21a25.75,25.75,0,0,0,1.72-13.59A15.53,15.53,0,0,0,548,453.6c3.76-1.37,12.53-4.6,19.23-7.25a3,3,0,0,0,2-.78c2.63-1.07,4.76-2,5.84-2.56,3.78-.9,8.49-1.35,12.48.32,9.82,4.13,13.68,9.46,13.33,18.43A13.87,13.87,0,0,1,591.79,474.66Zm-11.63-42.38a26.88,26.88,0,0,0-4.35,5.42,2.19,2.19,0,0,0-.23.6,41.38,41.38,0,0,0-5.41,1.43c0-12.43-.79-26.26-1.43-35.8,5.63,8.71,11,17,13.38,20.39a29.49,29.49,0,0,0-2.19,6.53A2.25,2.25,0,0,0,580.16,432.28Zm38.75,34.44a7.29,7.29,0,0,0-2.84,4.13,14.42,14.42,0,0,1-5.5,3.9,31.55,31.55,0,0,1-13.3,2.08,18.4,18.4,0,0,0,8.05-14.9c.54-13.94-8.31-19.48-16.09-22.75a20.54,20.54,0,0,0-8-1.46c1.71-2.14,4.75-5.19,8.69-6.13,6.34-1.51,27.71-.59,30.93,12.64C622.92,452.53,622,460.76,618.91,466.72Zm4.77.25a38,38,0,0,0,1.59-23.8c-3.4-14-21.14-17.24-31.69-16.59a19.91,19.91,0,0,1,13.18-3.67,2.25,2.25,0,0,0,.49-4.48c-10-1.08-17.73,5-21.47,8.73.14-.33.28-.66.44-1a2.62,2.62,0,0,0,.65-.32,3,3,0,0,0,1.19-3,21.78,21.78,0,0,1,13.46-9.72,2.25,2.25,0,1,0-1.06-4.38,25.94,25.94,0,0,0-15,9.89c-7.48-11.19-28.36-43.84-28.6-44.21a3,3,0,1,0-5,3.23c.43.68,4.78,7.47,10.11,15.76.37,4.56,2.36,29.51,2.21,49.33-5.94,2.32-13.59,5.16-19.34,7.25a2.27,2.27,0,0,0-1.13.93,14.27,14.27,0,0,0-3.16-1,2.2,2.2,0,0,0-2.1.73,6.7,6.7,0,0,0-2.75,1.15,13.21,13.21,0,0,0-5.53,2.4c-4.69-2.37-28.24-14.08-34.74-14.09h0c-7.23,0-17.22,3.16-22.77,5.63l-6.67,1.45-17.72-2.32-11.8-57.43a11,11,0,0,0-9-8.56l-1.38-.21c.67-4.21,2.33-15.61,1.7-22.18-1.16-12.24,0-21.47,3.51-27.42,5.05-8.62,18.13-30.47,18.26-30.69a3.06,3.06,0,0,0,.35-.88c9.77,7.08,23.87,23.77,24,23.95a3,3,0,0,0,4.32.29c7.92-7.25,19.89-35.32,23.77-44.76,11.94,4.65,59.06,23.07,69.41,28,10.06,4.78,42.25,65.89,52.32,89.47,8,16.56,19.48,46,16.34,54.55C636,459.73,633.76,464.47,623.68,467Z"/><path class="cls-2" d="M444.09,335.41a5,5,0,1,0-5,4.77A4.89,4.89,0,0,0,444.09,335.41Z"/><path class="cls-2" d="M443.36,375a4.77,4.77,0,1,0,5,4.77A4.89,4.89,0,0,0,443.36,375Z"/><path class="cls-2" d="M666.51,485.12c-3.88-3.59-11.57-5.93-20.85-5.93-13.42,0-23.54,4.9-23.54,11.39v37.54c0,6.5,10.12,11.4,23.54,11.4s23.55-4.9,23.55-11.4v-7.49c4.13-2.54,7.78-8.73,9.7-14.24,2.41-6.88,2.49-13.05.23-16.94C675.86,483.82,669.62,484.12,666.51,485.12Zm-1.8,43c0,2.81-7.42,6.9-19.05,6.9s-19-4.09-19-6.9V497.43c4.21,2.79,11,4.55,19,4.55s14.84-1.76,19.05-4.55Zm-.84-35.78c-4.39-2.55-11-4-18.21-4s-13.84,1.5-18.19,4a2.77,2.77,0,0,1-.85-1.77c0-2.81,7.42-6.89,19-6.89s19.05,4.08,19.05,6.89A2.75,2.75,0,0,1,663.87,492.34Zm10.8,12.56a31.25,31.25,0,0,1-5.46,9.83v-7.66a2.33,2.33,0,0,0,.84-.89c2.45-4.69,3-8.05,1.64-10.27a4.32,4.32,0,0,0-2.48-1.91v-3.42a6.32,6.32,0,0,0-.19-1.44,5.71,5.71,0,0,1,6.23,2.58C676.83,494.42,676.61,499.35,674.67,504.9Z"/><path class="cls-2" d="M258.51,236.11c-38.28,0-73.35-15.76-90-40.28H45.88A45.93,45.93,0,0,1,0,150V45.88A45.93,45.93,0,0,1,45.88,0H277.49a45.93,45.93,0,0,1,45.88,45.88V150a45.93,45.93,0,0,1-45.88,45.88H214.06c17,18.3,46,29.59,77.59,29.84a3.16,3.16,0,0,1,.76,6.23A136.3,136.3,0,0,1,258.51,236.11ZM45.88,6.33A39.59,39.59,0,0,0,6.33,45.88V150A39.59,39.59,0,0,0,45.88,189.5H170.23A3.17,3.17,0,0,1,172.9,191c15.07,23.58,48.68,38.82,85.61,38.82q4.08,0,8.12-.25c-26.12-5-48.68-17.52-61.88-34.95a3.19,3.19,0,0,1-.31-3.32,3.15,3.15,0,0,1,2.83-1.76h70.22A39.59,39.59,0,0,0,317,150V45.88A39.59,39.59,0,0,0,277.49,6.33Z"/><path class="cls-3" d="M45.88,6.33A39.59,39.59,0,0,0,6.33,45.88V150A39.59,39.59,0,0,0,45.88,189.5H170.23A3.17,3.17,0,0,1,172.9,191c15.07,23.58,48.68,38.82,85.61,38.82q4.08,0,8.12-.25c-26.12-5-48.68-17.52-61.88-34.95a3.19,3.19,0,0,1-.31-3.32,3.15,3.15,0,0,1,2.83-1.76h70.22A39.59,39.59,0,0,0,317,150V45.88A39.59,39.59,0,0,0,277.49,6.33Z"/></g></g></svg>