<svg xmlns="http://www.w3.org/2000/svg" viewBox="0 0 426.41 533.06"><defs><style>.cls-2{fill:#fff}</style></defs><g id="レイヤー_2" data-name="レイヤー 2"><g id="Layer"><path d="M419.74 31.79a21.74 21.74 0 00-18.27-13.27L176.87.07A21.79 21.79 0 00153.41 20L144 134.57a3 3 0 006 .5l9.41-114.61a15.76 15.76 0 0117-14.41L401 24.5a15.76 15.76 0 0114.41 17l-26.84 326.9a15.79 15.79 0 01-17 14.41L147 364.35a15.77 15.77 0 01-14.41-17L145.05 191a3 3 0 10-6-.48l-12.5 156.37a21.78 21.78 0 009.96 20.11c4.22 4.73 10.83 9.06 16.57 9.53l224.6 18.45c.57 0 1.12.07 1.68.07a20.28 20.28 0 0020.16-18.6L426.37 49.5c.43-5.32-2.73-12.57-6.63-17.71zm3.64 17.47l-26.85 326.9a17.28 17.28 0 01-18.6 15.78l-224.61-18.45a19.42 19.42 0 01-8.52-3.38c.55.08 1.1.17 1.67.22l224.6 18.44c.6.05 1.2.07 1.8.07a21.78 21.78 0 0021.66-20L421.37 42c0-.47 0-.94.05-1.41a19.33 19.33 0 011.96 8.67z"/><path d="M168.5 28.65l-25.63 312.12a5.93 5.93 0 005.42 6.38l224.77 18.46h.49a5.93 5.93 0 005.89-5.43l25.63-312.1a5.92 5.92 0 00-5.41-6.38L174.88 23.24a5.92 5.92 0 00-6.38 5.41zm232.08 19.06L375 359.83a1.42 1.42 0 01-1.52 1.29l-224.83-18.46a1.4 1.4 0 01-1.29-1.52L173 29a1.4 1.4 0 011.52-1.3l224.77 18.48a1.41 1.41 0 011.29 1.53zM246.5 360.23a5.25 5.25 0 10-.86 10.47l16.19 1.3a3.1 3.1 0 00.43 0 5.25 5.25 0 00.42-10.48zM279.81 29.12a4.79 4.79 0 004.76-4.4 4.78 4.78 0 00-7.87-4 4.79 4.79 0 002.71 8.42zm-3.29-5.06a3.29 3.29 0 013.28-3h.27a3.29 3.29 0 11-3.55 3zM322 31.51a3.65 3.65 0 002.4-.88 3.72 3.72 0 10-6.11-3.14 3.72 3.72 0 003.4 4zm-2.22-3.9a2.23 2.23 0 012.21-2h.19a2.2 2.2 0 011.51.77 2.23 2.23 0 01.52 1.62 2.22 2.22 0 11-4.43-.36zM310.61 29.87h.25a3 3 0 00.25-6l-21.31-1.73a3 3 0 00-.49 6z"/><path fill="#fffc19" d="M171.51 26.88l230.61 18.55-26 316.87-230.09-18.62 25.48-316.8z"/><path class="cls-2" d="M3 338.74s56.92-28.1 67.81-48.82 24.33-67.36 29.43-79.11A133.81 133.81 0 01111 190.74L129.5 149l8.38-16.3s14.88-1.94 18.08 17.64L141.16 193s-1.28 36.21-1.94 42.76-9.72 98.53-9.72 98.53-19.47 7.67-27.9 15-64.1 66-64.1 66S7.92 362.36 3 338.74z"/><path d="M147.13 130.9a9.26 9.26 0 00-14.47 3.58c-3.62 8.7-10.07 22.38-15.76 34.44l-2.61 5.54a119.53 119.53 0 00-5.13 13.92c-.09.08-.19.15-.28.24-8.39 8.38-14.94 30.31-21.88 53.52-3.46 11.61-7 23.62-10.8 33.53-10.47 27.58-73.92 60.07-74.56 60.39a3 3 0 102.72 5.35c2.7-1.37 66.16-33.87 77.45-63.61 3.83-10.11 7.45-22.23 11-33.94 2.75-9.23 5.55-18.59 8.43-26.86-4.39 17.23-7.85 32.85-8.12 34.09a3 3 0 105.86 1.29c.09-.4 6.16-27.83 12.47-50.39H119a2.25 2.25 0 000-4.5h-6.32c.47-1.61.93-3.19 1.4-4.71a2.18 2.18 0 00.92.21h10.32a2.25 2.25 0 000-4.5h-9.89a103.79 103.79 0 014.28-11.49l2.61-5.53c1.19-2.52 2.42-5.12 3.64-7.73 3.11-.32 9.07-.75 13 .21a2.26 2.26 0 002.38-.9c2-2.91 8.49-12.74 7.33-17.37-.75-3-2.86-6.81-6.51-8.31a9 9 0 00-4-.63 3.25 3.25 0 012.24-1.9 3.2 3.2 0 012.84.66c6.31 5.27 12.3 15.1 4.93 32.1l-13 32a3 3 0 00-.18 1.61c.06.36 5.74 36.47-4.82 62.39a3 3 0 005.56 2.26c10.39-25.51 6.16-58.91 5.31-64.77l12.66-31.17c9.3-21.4-.11-33.63-6.57-39.02zm-6.68 10.64c2.1.87 3.4 3.37 3.87 5.24.37 1.49-2.29 7.13-5.85 12.5a47.72 47.72 0 00-10.3-.24c2.86-6.12 5.62-12.11 7.85-17.19a5.64 5.64 0 014.43-.31zM128.3 330a170.9 170.9 0 00-27 15.79c-15.11 10.58-63.95 65.14-66 67.46a3 3 0 00.24 4.23 3 3 0 002 .77 3 3 0 002.24-1c.5-.57 50.43-56.36 65-66.54a168.65 168.65 0 0126-15.21 3 3 0 00-2.4-5.5z"/><path class="cls-2" d="M253.1 520.06s21.55-74.41 21-81-11.05-42.69-12.26-54.64-5.51-34.36-5.37-36.86 3.17-47.4 5.93-51.42 28.2-35.08 28.2-35.08 18 7.89 8.14 26l-13.62 21.63 5 30.89 5-3.45 6.47-35.8 4.5-64.25s-.49-20.61 12.5-22c0 0 10.84.15 11 24.12s0 49.73 0 48.86 3.4-17.16 12.45-15.46 18.13 3.73 17.33 11.73-1.17 10.25-1.17 10.25 14.17-1.26 16.68 7.49.42 22.94.42 22.94 19.57-2.67 22.21 6.57-9.16 19.5-10.82 24.5-2.69 16.47-3.69 20.28-31 62.56-31 62.56-17.78 31.99-21 61.08l-5.43 31.08z"/><path d="M399.35 327.71a17.15 17.15 0 00-11.49-6.53 73.26 73.26 0 00-8.9-.1c0-.14.05-.29.08-.43 2-10.25 2.79-17-4.24-24.62a17.89 17.89 0 00-13-5.75c.79-5.43.84-8.73.05-10.57-2.56-6-10.22-11.74-19.94-11.12-3.83.23-6.8 2.82-9.05 6.11.1-10-.16-27.73-.27-34.41.45-12.42-1.73-21.11-6.49-25.81a11.07 11.07 0 00-7.31-3.42 10 10 0 00-7 2.2c-4.83 3.66-7.75 11.25-8.69 22.56-.07.89-1.23 15.64-1.79 28.43a15.73 15.73 0 00-6.71-6.13c-3.39-1.4-5.42.11-6.13.82-3.08 3.08-27 32.95-27.22 33.25-4.71 5.9-6 23.58-7 42.73-.22 4.29-.41 8-.64 9.74-.56 4.21.34 8.32 1.48 13.52a118.83 118.83 0 013 20.05c.51 9 3.86 21.08 7.09 32.76 3 10.87 6.14 22.12 5.9 27.95-.38 9.59-13.82 56.69-20.87 80.26a3 3 0 002 3.73 2.9 2.9 0 00.86.13 3 3 0 002.87-2.14c.85-2.81 20.62-69 21.13-81.74.27-6.76-2.83-17.95-6.12-29.8-3.15-11.37-6.41-23.13-6.88-31.49a123.93 123.93 0 00-3.13-21c-1.06-4.8-1.82-8.27-1.4-11.43.27-2 .46-5.62.7-10.23.57-11.17 1.78-34.41 5.68-39.3l.28-.34c2.54.2 5.8 1 6.77 3.26a1.49 1.49 0 001.38.91 1.59 1.59 0 00.59-.12 1.51 1.51 0 00.79-2c-1.31-3.06-4.53-4.31-7.35-4.81 2.85-3.55 6.38-7.94 9.89-12.27a12.58 12.58 0 016.93 3.72 1.49 1.49 0 001.12.5 1.5 1.5 0 001.13-.55c1.39-1.68 8.33-10.29 8.34-13.93a8.72 8.72 0 00-2.66-6.18 13.94 13.94 0 015.41 10.91c0 8.38-9.4 26.58-13.87 30.16a3 3 0 00-1.1 2.76c0 .21 3 21 3.47 31.72a3.07 3.07 0 00.43 1.38c-4.31 5.66-10.11 13.39-12.69 17.34a3 3 0 105 3.28c4.14-6.32 17.51-23.57 17.64-23.75a2.91 2.91 0 00.62-1.65c.19-3 1.16-6.87 2.39-11.78.92-3.65 1.95-7.79 3-12.78 2.52-12.08 3.55-32 3.6-32.8v-.28c-.49-11 2-42.05 2-42.35 1-12.21 4.27-16.59 6.13-18.11A4.48 4.48 0 01318 217a1.3 1.3 0 00.62.05 5.29 5.29 0 013.42 1.88c2.33 2.46 5 8.14 4.52 21.21v.16c.23 14.3.47 37.85.11 40.2a3.66 3.66 0 000 .57l.23 39a3 3 0 003 3 3 3 0 003-3l-.08-13.53c1.62-2.29 3.21-6.5 4.74-12.58a1.5 1.5 0 10-2.9-.74 73.5 73.5 0 01-1.88 6.23v-8.27a1.89 1.89 0 00.11-.36c1.31-6.38 5.22-16 9.45-16.22 7.31-.45 12.62 4.12 14.05 7.45.86 2.74-2.33 18.25-4.44 28.52-1.42 6.9-2.89 14-3.75 19.56a3 3 0 002.5 3.42 2.38 2.38 0 00.46 0 3 3 0 003-2.54c.85-5.38 2.3-12.44 3.7-19.27 1.27-6.16 2.3-11.26 3.06-15.48a12.2 12.2 0 019.57 3.83c5 5.4 4.72 9.6 2.77 19.37-2.08 10.38-4.56 28.43-5.05 35.38a3 3 0 002.78 3.2h.21a3 3 0 003-2.79c.12-1.67.37-4 .69-6.8a1.56 1.56 0 00.27-.51c0-.09 2.49-8.84 8.14-11.27a1.5 1.5 0 00-1.18-2.76 12.2 12.2 0 00-1.67.91h-3.71c.4-2.63.81-5.25 1.23-7.69a73.07 73.07 0 019.48 0 11.11 11.11 0 017.12 4.05 3.68 3.68 0 01.73 3.13c-.53 2.13-2.8 5.6-5 9-3.32 5.08-7.09 10.85-8 16.25-.38 2.14-.62 4.36-.87 6.7-.74 7-1.5 14.17-6.15 19.94a2.41 2.41 0 00-.33.5c-.22.41-21.38 41.3-32.83 64.56-11.64 23.66-19 76.18-19.34 78.41a3 3 0 002.56 3.38h.41a3 3 0 003-2.59c.08-.53 7.57-53.78 18.79-76.59 10.94-22.23 30.8-60.64 32.63-64.18 5.59-7.09 6.48-15.44 7.26-22.83.24-2.23.46-4.35.81-6.29.73-4.19 4.14-9.4 7.15-14 2.7-4.12 5-7.68 5.8-10.78a9.62 9.62 0 00-1.84-8.08zm-113.13-46.63a15.49 15.49 0 00-5.84-3.06c4-4.93 7.76-9.51 10.11-12.29a6.18 6.18 0 012.36 4.6c0 1.53-3.27 6.51-6.63 10.75zm11.41 29.44c-1 4.87-2 9-2.94 12.54s-1.64 6.56-2.11 9.25c-.81-9-2.25-19.68-2.79-23.63 3.17-3.34 7.28-10.11 10.37-17.18a180.7 180.7 0 01-2.53 19.02zM377 337.84q-.53.63-1 1.29l.18-1.29z"/><path d="M336.1 354.31a2.2 2.2 0 001.15-.32c7-4.17 7.1-10.66 7.1-10.93a2.25 2.25 0 00-4.5 0s-.13 4.23-4.9 7.07a2.25 2.25 0 001.15 4.18zM356.55 368a2.27 2.27 0 001.71.78 2.24 2.24 0 001.46-.54c5.39-4.63 4.58-15.22 4.47-16.42a2.28 2.28 0 00-2.45-2 2.24 2.24 0 00-2 2.44c.23 2.61.16 9.95-2.92 12.59a2.26 2.26 0 00-.27 3.15zM325.6 325.31a2.25 2.25 0 00-2.25 2.25c0 .09-.08 9.56-5 13.8a2.25 2.25 0 002.95 3.4c6.45-5.6 6.52-16.73 6.52-17.2a2.25 2.25 0 00-2.22-2.25zM312.65 235.28c.06 0 6.19-1.25 11 .51a1.54 1.54 0 00.52.09 1.5 1.5 0 001.49-1.38c0-.36.69-8.91-3.17-13a5.89 5.89 0 00-4.27-2 5.28 5.28 0 00-3.86 1.81c-1.82 2-3.91 5.8-3.5 12.62a1.48 1.48 0 001.8 1.38zm3.91-12a2.27 2.27 0 011.67-.83 3 3 0 012.08 1.06c1.91 2 2.39 6.16 2.42 8.86a23.81 23.81 0 00-5.23-.55 30.61 30.61 0 00-3.72.23c.04-4.7 1.49-7.34 2.78-8.75zM322.72 269.56a1.5 1.5 0 00.58-2.88c-7.77-3.26-13.33-.05-13.56.09a1.5 1.5 0 101.53 2.58s4.48-2.59 10.87.09a1.51 1.51 0 00.58.12z"/></g></g></svg>