<svg xmlns="http://www.w3.org/2000/svg" viewBox="0 0 1680 690"><defs><style>.cls-1,.cls-2{fill:#fff;}.cls-2{font-size:33px;letter-spacing:0.15em;}.cls-2,.cls-3{font-family:KozGoPr6N-Bold-83pv-RKSJ-H, Kozuka Gothic Pr6N;}.cls-3{font-size:24px;}.cls-4,.cls-5{fill:none;stroke:#000;stroke-linecap:round;stroke-miterlimit:10;}.cls-4{stroke-width:2px;}.cls-5{stroke-width:4px;}.cls-6{font-size:18px;font-family:KozGoPr6N-Medium-83pv-RKSJ-H, Kozuka Gothic Pr6N;}.cls-7{letter-spacing:-0.5em;}</style></defs><g id="レイヤー_2" data-name="レイヤー 2"><g id="レイヤー_2-2" data-name="レイヤー 2"><rect class="cls-1" y="57" width="1680" height="633"/></g><g id="レイヤー_3" data-name="レイヤー 3"><rect width="450" height="57"/><text class="cls-2" transform="translate(37.73 43.14)">サービスご利用の流れ</text><rect x="925" y="223" width="80" height="38"/><path class="cls-1" d="M937.67,237.67c.31-3,2.12-6.12,7.09-6.12s6.89,2.75,6.89,5.65a4.42,4.42,0,0,1-2.79,4.24v.07a5.17,5.17,0,0,1,3.66,5.27c0,3.14-2.08,6.63-7.78,6.63-5.06,0-7.24-2.88-7.47-6.17h4.24a3.11,3.11,0,0,0,3.41,2.82c2.19,0,3.18-1.27,3.18-3.24,0-2.3-1.28-3.28-3.71-3.28h-1.62v-3.42h1.31c2.21,0,3.25-.62,3.25-2.61a2.41,2.41,0,0,0-2.72-2.67c-1.83,0-2.73,1-3,2.83Z"/><path class="cls-1" d="M960.47,242.14c0-2.72,0-4.47-.06-5.61h4.24a29,29,0,0,1,.11,2.9,5.1,5.1,0,0,1,5-3.17v4.4c-3.42,0-5,1.1-5,4.9v7.53h-4.35Z"/><path class="cls-1" d="M991.42,229.82v18.65c0,1.94,0,3.65.06,4.62h-4.24c0-.44-.14-1.42-.14-2-.79,1.45-2,2.28-4.65,2.28-4.22,0-6.41-3.45-6.41-8.57s2.67-8.63,7.13-8.63c2.47,0,3.53.84,3.9,1.51v-7.9Zm-10.93,14.87c0,3.1,1,5.19,3.39,5.19,2.84,0,3.39-1.92,3.39-5.16,0-3.54-.71-5-3.25-5C981.88,239.76,980.49,241.39,980.49,244.69Z"/><rect x="675" y="223" width="80" height="38"/><path class="cls-1" d="M684.56,253.09v-.16c0-2.87.93-6.23,6.41-10.42,2.58-2,3.51-2.93,3.51-4.77a2.54,2.54,0,0,0-2.7-2.84c-2,0-2.85,1.33-3,3.48h-4.15c.14-3.58,2.24-6.83,7.33-6.83,4.6,0,7,2.75,7,6.18,0,2.74-1.07,4.41-4.94,7.22-2.07,1.51-3.63,3.08-4.17,4.56h9.67l-.54,3.58Z"/><path class="cls-1" d="M706.89,241.69c0-3.41,0-4.43-.06-5.16h4.23a15.85,15.85,0,0,1,.15,2.14,5,5,0,0,1,4.61-2.46c3.48,0,5.24,2.22,5.24,6v10.85H716.7v-10c0-1.87-.46-3.28-2.52-3.28s-2.94,1.16-2.94,4.06v9.24h-4.35Z"/><path class="cls-1" d="M744.26,229.82v18.65c0,1.94,0,3.65.07,4.62h-4.24a19.08,19.08,0,0,1-.15-2c-.78,1.45-2,2.28-4.65,2.28-4.22,0-6.4-3.45-6.4-8.57s2.66-8.63,7.13-8.63c2.47,0,3.53.84,3.9,1.51v-7.9Zm-10.93,14.87c0,3.1,1,5.19,3.4,5.19,2.84,0,3.39-1.92,3.39-5.16,0-3.54-.71-5-3.26-5C734.72,239.76,733.33,241.39,733.33,244.69Z"/><rect x="425" y="223" width="80" height="38"/><path class="cls-1" d="M445.72,253.09V236.8a24.88,24.88,0,0,1-2.8.13V233.8a6.83,6.83,0,0,0,4.19-2H450v21.24Z"/><path class="cls-1" d="M462.28,248a2.54,2.54,0,0,0,2.84,2.23c1.54,0,2.35-.58,2.35-1.65s-1-1.51-3.46-2.22c-4.41-1.24-5.44-2.79-5.44-5.14,0-2.09,1.31-5,6.3-5,4.4,0,6.25,2.25,6.44,5h-4.23a2.11,2.11,0,0,0-2.41-1.89c-1.18,0-1.86.51-1.86,1.46s.66,1.31,3.05,1.91c4.52,1.17,5.88,2.81,5.88,5.46,0,3.39-2.84,5.2-6.74,5.2-4.06,0-6.62-1.81-7-5.38Z"/><path class="cls-1" d="M477.55,236.53h2.33V232h4.33v4.5h3v3.37h-3v8.51c0,1.13.27,1.61,1.62,1.61a5.12,5.12,0,0,0,1-.08v3a10,10,0,0,1-2.66.31c-3.2,0-4.28-1.29-4.28-4.37v-9h-2.33Z"/><rect x="1175" y="223" width="80" height="38"/><path class="cls-1" d="M1197.71,253.09v-4.88h-9.32v-3.82l8-12.58h5.35v12.88H1204l-.39,3.52h-1.89v4.88Zm0-13c0-2.41,0-3.58.09-5-1.13,2.28-4,6.92-5.49,9.64h5.4Z"/><path class="cls-1" d="M1209.36,236.53h2.33V232H1216v4.5h3v3.37h-3v8.51c0,1.13.27,1.61,1.62,1.61a5.12,5.12,0,0,0,1-.08v3a10,10,0,0,1-2.67.31c-3.19,0-4.27-1.29-4.27-4.37v-9h-2.33Z"/><path class="cls-1" d="M1230.76,229.82v8.7a4.9,4.9,0,0,1,4.6-2.31c3,0,5.22,1.63,5.22,6v10.88h-4.3V242.87c0-1.79-.57-3.08-2.6-3.08s-2.92,1.42-2.92,4.08v9.22h-4.35V229.82Z"/><circle cx="215" cy="242" r="19"/><text class="cls-3" transform="translate(107 359.08)">無料はじめて申込み</text><line class="cls-4" x1="1465" y1="270" x2="1465" y2="570"/><line class="cls-4" x1="1215" y1="270" x2="1215" y2="520"/><line class="cls-4" x1="965" y1="270" x2="965" y2="470"/><line class="cls-4" x1="715" y1="270" x2="715" y2="420"/><line class="cls-4" x1="465" y1="270" x2="465" y2="370"/><line class="cls-4" x1="215" y1="270" x2="215" y2="320"/><text class="cls-3" transform="translate(393 409.08)">コーチと対話</text><text class="cls-3" transform="translate(595 459.08)">振り返りシートの記入</text><text class="cls-3" transform="translate(869 509.08)">レポートの受取り</text><text class="cls-3" transform="translate(1083 559.08)">効果の実感・継続の意向</text><text class="cls-3" transform="translate(1393 609.08)">次回の申込み</text><circle cx="1465" cy="242" r="19"/><line class="cls-5" x1="234" y1="242" x2="404.11" y2="242"/><polygon points="395.27 252.91 393.45 250.95 403.08 242 393.45 233.05 395.27 231.1 407 242 395.27 252.91"/><line class="cls-5" x1="505" y1="242" x2="653.11" y2="242"/><polygon points="644.27 252.91 642.45 250.95 652.08 242 642.45 233.05 644.27 231.1 656 242 644.27 252.91"/><line class="cls-5" x1="755" y1="242" x2="903.11" y2="242"/><polygon points="894.27 252.91 892.45 250.95 902.08 242 892.45 233.05 894.27 231.1 906 242 894.27 252.91"/><line class="cls-5" x1="1005" y1="242" x2="1153.11" y2="242"/><polygon points="1144.27 252.91 1142.45 250.95 1152.09 242 1142.45 233.05 1144.27 231.1 1156 242 1144.27 252.91"/><line class="cls-5" x1="1255" y1="242" x2="1425.11" y2="242"/><polygon points="1416.27 252.91 1414.45 250.95 1424.08 242 1414.45 233.05 1416.27 231.1 1428 242 1416.27 252.91"/><polyline class="cls-5" points="1465 242 1465 163 465 163 465 208.11"/><polygon points="454.09 199.27 456.05 197.45 465 207.08 473.95 197.45 475.9 199.27 465 211 454.09 199.27"/><text class="cls-6" transform="translate(789.5 146.19)">次回の来訪時に初回のお支払いとなります<tspan class="cls-7" x="342" y="0">。</tspan></text></g></g></svg>