<svg xmlns="http://www.w3.org/2000/svg" viewBox="0 0 426.41 533.06"><defs><style>.cls-1{fill:#fffc19;}.cls-2{fill:#fff;}</style></defs><g id="レイヤー_2" data-name="レイヤー 2"><g id="Layer"><path d="M419.74,31.79a21.74,21.74,0,0,0-18.27-13.27L176.87.07A21.79,21.79,0,0,0,153.41,20L144,134.57a3,3,0,0,0,6,.5l9.41-114.61a15.76,15.76,0,0,1,17-14.41L401,24.5a15.76,15.76,0,0,1,14.41,17l-26.84,326.9a15.79,15.79,0,0,1-17,14.41L147,364.35a15.77,15.77,0,0,1-14.41-17L145.05,191a3,3,0,1,0-6-.48l-12.5,156.37A21.78,21.78,0,0,0,136.51,367c4.22,4.73,10.83,9.06,16.57,9.53l224.6,18.45c.57,0,1.12.07,1.68.07a20.28,20.28,0,0,0,20.16-18.6L426.37,49.5C426.8,44.18,423.64,36.93,419.74,31.79Zm3.64,17.47-26.85,326.9a17.28,17.28,0,0,1-18.6,15.78L153.32,373.49a19.42,19.42,0,0,1-8.52-3.38c.55.08,1.1.17,1.67.22l224.6,18.44c.6.05,1.2.07,1.8.07a21.78,21.78,0,0,0,21.66-20L421.37,42c0-.47,0-.94.05-1.41A19.33,19.33,0,0,1,423.38,49.26Z"/><path d="M168.5,28.65,142.87,340.77a5.93,5.93,0,0,0,5.42,6.38l224.77,18.46.49,0a5.93,5.93,0,0,0,5.89-5.43L405.07,48.08a5.92,5.92,0,0,0-5.41-6.38L174.88,23.24A5.92,5.92,0,0,0,168.5,28.65ZM400.58,47.71,375,359.83a1.42,1.42,0,0,1-1.52,1.29L148.65,342.66a1.4,1.4,0,0,1-1.29-1.52L173,29a1.4,1.4,0,0,1,1.52-1.3L399.29,46.18A1.41,1.41,0,0,1,400.58,47.71Z"/><path d="M246.5,360.23a5.25,5.25,0,1,0-.86,10.47L261.83,372a3.1,3.1,0,0,0,.43,0,5.25,5.25,0,0,0,.42-10.48Z"/><path d="M279.81,29.12a4.79,4.79,0,0,0,4.76-4.4h0a4.78,4.78,0,0,0-7.87-4,4.79,4.79,0,0,0,2.71,8.42Zm-3.29-5.06a3.29,3.29,0,0,1,3.28-3h.27a3.29,3.29,0,1,1-3.55,3Z"/><path d="M322,31.51a3.65,3.65,0,0,0,2.4-.88,3.72,3.72,0,1,0-6.11-3.14,3.72,3.72,0,0,0,3.4,4Zm-2.22-3.9a2.23,2.23,0,0,1,2.21-2h.19a2.2,2.2,0,0,1,1.51.77,2.23,2.23,0,0,1,.52,1.62h0a2.22,2.22,0,1,1-4.43-.36Z"/><path d="M310.61,29.87h.25a3,3,0,0,0,.25-6L289.8,22.14a3,3,0,0,0-.49,6Z"/><polygon class="cls-1" points="171.51 26.88 402.12 45.43 376.12 362.3 146.03 343.68 171.51 26.88"/><path class="cls-2" d="M3,338.74s56.92-28.1,67.81-48.82,24.33-67.36,29.43-79.11A133.81,133.81,0,0,1,111,190.74L129.5,149l8.38-16.3s14.88-1.94,18.08,17.64L141.16,193s-1.28,36.21-1.94,42.76-9.72,98.53-9.72,98.53-19.47,7.67-27.9,15-64.1,66-64.1,66S7.92,362.36,3,338.74Z"/><path d="M147.13,130.9a9.26,9.26,0,0,0-14.47,3.58c-3.62,8.7-10.07,22.38-15.76,34.44l-2.61,5.54a119.53,119.53,0,0,0-5.13,13.92c-.09.08-.19.15-.28.24C100.49,197,93.94,218.93,87,242.14,83.54,253.75,80,265.76,76.2,275.67,65.73,303.25,2.28,335.74,1.64,336.06a3,3,0,1,0,2.72,5.35c2.7-1.37,66.16-33.87,77.45-63.61,3.83-10.11,7.45-22.23,11-33.94,2.75-9.23,5.55-18.59,8.43-26.86-4.39,17.23-7.85,32.85-8.12,34.09a3,3,0,1,0,5.86,1.29c.09-.4,6.16-27.83,12.47-50.39H119a2.25,2.25,0,0,0,0-4.5h-6.32c.47-1.61.93-3.19,1.4-4.71a2.18,2.18,0,0,0,.92.21h10.32a2.25,2.25,0,0,0,0-4.5h-9.89A103.79,103.79,0,0,1,119.71,177l2.61-5.53c1.19-2.52,2.42-5.12,3.64-7.73,3.11-.32,9.07-.75,13,.21a2.26,2.26,0,0,0,2.38-.9c2-2.91,8.49-12.74,7.33-17.37-.75-3-2.86-6.81-6.51-8.31a9,9,0,0,0-4-.63,3.25,3.25,0,0,1,2.24-1.9,3.2,3.2,0,0,1,2.84.66c6.31,5.27,12.3,15.1,4.93,32.1l-13,32a3,3,0,0,0-.18,1.61c.06.36,5.74,36.47-4.82,62.39a3,3,0,0,0,5.56,2.26c10.39-25.51,6.16-58.91,5.31-64.77l12.66-31.17C163,148.52,153.59,136.29,147.13,130.9Zm-6.68,10.64c2.1.87,3.4,3.37,3.87,5.24.37,1.49-2.29,7.13-5.85,12.5a47.72,47.72,0,0,0-10.3-.24c2.86-6.12,5.62-12.11,7.85-17.19A5.64,5.64,0,0,1,140.45,141.54Z"/><path d="M128.3,330a170.9,170.9,0,0,0-27,15.79c-15.11,10.58-63.95,65.14-66,67.46a3,3,0,0,0,.24,4.23,3,3,0,0,0,2,.77,3,3,0,0,0,2.24-1c.5-.57,50.43-56.36,65-66.54a168.65,168.65,0,0,1,26-15.21,3,3,0,0,0-2.4-5.5Z"/><path class="cls-2" d="M253.1,520.06s21.55-74.41,21-81-11.05-42.69-12.26-54.64-5.51-34.36-5.37-36.86,3.17-47.4,5.93-51.42,28.2-35.08,28.2-35.08,18,7.89,8.14,26l-13.62,21.63,5,30.89,5-3.45,6.47-35.8,4.5-64.25s-.49-20.61,12.5-22c0,0,10.84.15,11,24.12s0,49.73,0,48.86,3.4-17.16,12.45-15.46,18.13,3.73,17.33,11.73-1.17,10.25-1.17,10.25,14.17-1.26,16.68,7.49.42,22.94.42,22.94,19.57-2.67,22.21,6.57-9.16,19.5-10.82,24.5S384,371.55,383,375.36,352,437.92,352,437.92,334.22,469.91,331,499l-5.43,31.08Z"/><path d="M399.35,327.71a17.15,17.15,0,0,0-11.49-6.53,73.26,73.26,0,0,0-8.9-.1c0-.14.05-.29.08-.43,2-10.25,2.79-17-4.24-24.62a17.89,17.89,0,0,0-13-5.75c.79-5.43.84-8.73.05-10.57-2.56-6-10.22-11.74-19.94-11.12-3.83.23-6.8,2.82-9.05,6.11.1-10-.16-27.73-.27-34.41.45-12.42-1.73-21.11-6.49-25.81a11.07,11.07,0,0,0-7.31-3.42,10,10,0,0,0-7,2.2c-4.83,3.66-7.75,11.25-8.69,22.56-.07.89-1.23,15.64-1.79,28.43a15.73,15.73,0,0,0-6.71-6.13c-3.39-1.4-5.42.11-6.13.82-3.08,3.08-27,32.95-27.22,33.25-4.71,5.9-6,23.58-7,42.73-.22,4.29-.41,8-.64,9.74-.56,4.21.34,8.32,1.48,13.52a118.83,118.83,0,0,1,3,20.05c.51,9,3.86,21.08,7.09,32.76,3,10.87,6.14,22.12,5.9,27.95-.38,9.59-13.82,56.69-20.87,80.26a3,3,0,0,0,2,3.73,2.9,2.9,0,0,0,.86.13,3,3,0,0,0,2.87-2.14c.85-2.81,20.62-69,21.13-81.74.27-6.76-2.83-17.95-6.12-29.8-3.15-11.37-6.41-23.13-6.88-31.49a123.93,123.93,0,0,0-3.13-21c-1.06-4.8-1.82-8.27-1.4-11.43.27-2,.46-5.62.7-10.23.57-11.17,1.78-34.41,5.68-39.3l.28-.34c2.54.2,5.8,1,6.77,3.26a1.49,1.49,0,0,0,1.38.91,1.59,1.59,0,0,0,.59-.12,1.51,1.51,0,0,0,.79-2c-1.31-3.06-4.53-4.31-7.35-4.81,2.85-3.55,6.38-7.94,9.89-12.27a12.58,12.58,0,0,1,6.93,3.72,1.49,1.49,0,0,0,1.12.5h0a1.5,1.5,0,0,0,1.13-.55c1.39-1.68,8.33-10.29,8.34-13.93a8.72,8.72,0,0,0-2.66-6.18,13.94,13.94,0,0,1,5.41,10.91c0,8.38-9.4,26.58-13.87,30.16a3,3,0,0,0-1.1,2.76c0,.21,3,21,3.47,31.72a3.07,3.07,0,0,0,.43,1.38c-4.31,5.66-10.11,13.39-12.69,17.34a3,3,0,1,0,5,3.28c4.14-6.32,17.51-23.57,17.64-23.75a2.91,2.91,0,0,0,.62-1.65c.19-3,1.16-6.87,2.39-11.78.92-3.65,1.95-7.79,3-12.78,2.52-12.08,3.55-32,3.6-32.8v-.28c-.49-11,2-42.05,2-42.35,1-12.21,4.27-16.59,6.13-18.11A4.48,4.48,0,0,1,318,217h0a1.3,1.3,0,0,0,.62.05,5.29,5.29,0,0,1,3.42,1.88c2.33,2.46,5,8.14,4.52,21.21v.16c.23,14.3.47,37.85.11,40.2a3.66,3.66,0,0,0,0,.57l.23,39a3,3,0,0,0,3,3h0a3,3,0,0,0,3-3l-.08-13.53c1.62-2.29,3.21-6.5,4.74-12.58a1.5,1.5,0,1,0-2.9-.74c-.56,2.19-1.21,4.34-1.88,6.23l0-8.27a1.89,1.89,0,0,0,.11-.36c1.31-6.38,5.22-16,9.45-16.22,7.31-.45,12.62,4.12,14.05,7.45.86,2.74-2.33,18.25-4.44,28.52-1.42,6.9-2.89,14-3.75,19.56a3,3,0,0,0,2.5,3.42,2.38,2.38,0,0,0,.46,0,3,3,0,0,0,3-2.54c.85-5.38,2.3-12.44,3.7-19.27,1.27-6.16,2.3-11.26,3.06-15.48a12.2,12.2,0,0,1,9.57,3.83c5,5.4,4.72,9.6,2.77,19.37-2.08,10.38-4.56,28.43-5.05,35.38a3,3,0,0,0,2.78,3.2h.21a3,3,0,0,0,3-2.79c.12-1.67.37-4,.69-6.8a1.56,1.56,0,0,0,.27-.51c0-.09,2.49-8.84,8.14-11.27a1.5,1.5,0,0,0-1.18-2.76,12.2,12.2,0,0,0-1.67.91h-3.71c.4-2.63.81-5.25,1.23-7.69a73.07,73.07,0,0,1,9.48,0,11.11,11.11,0,0,1,7.12,4.05,3.68,3.68,0,0,1,.73,3.13c-.53,2.13-2.8,5.6-5,9-3.32,5.08-7.09,10.85-8,16.25-.38,2.14-.62,4.36-.87,6.7-.74,7-1.5,14.17-6.15,19.94a2.41,2.41,0,0,0-.33.5c-.22.41-21.38,41.3-32.83,64.56-11.64,23.66-19,76.18-19.34,78.41a3,3,0,0,0,2.56,3.38l.41,0a3,3,0,0,0,3-2.59c.08-.53,7.57-53.78,18.79-76.59,10.94-22.23,30.8-60.64,32.63-64.18,5.59-7.09,6.48-15.44,7.26-22.83.24-2.23.46-4.35.81-6.29.73-4.19,4.14-9.4,7.15-14,2.7-4.12,5-7.68,5.8-10.78A9.62,9.62,0,0,0,399.35,327.71ZM286.22,281.08a15.49,15.49,0,0,0-5.84-3.06c4-4.93,7.76-9.51,10.11-12.29a6.18,6.18,0,0,1,2.36,4.6C292.85,271.86,289.58,276.84,286.22,281.08Zm11.41,29.44c-1,4.87-2,9-2.94,12.54s-1.64,6.56-2.11,9.25c-.81-9-2.25-19.68-2.79-23.63,3.17-3.34,7.28-10.11,10.37-17.18A180.7,180.7,0,0,1,297.63,310.52ZM377,337.84q-.53.63-1,1.29l.18-1.29Z"/><path d="M336.1,354.31a2.2,2.2,0,0,0,1.15-.32c7-4.17,7.1-10.66,7.1-10.93a2.25,2.25,0,0,0-4.5,0s-.13,4.23-4.9,7.07a2.25,2.25,0,0,0,1.15,4.18Z"/><path d="M356.55,368a2.27,2.27,0,0,0,1.71.78,2.24,2.24,0,0,0,1.46-.54c5.39-4.63,4.58-15.22,4.47-16.42a2.28,2.28,0,0,0-2.45-2,2.24,2.24,0,0,0-2,2.44c.23,2.61.16,9.95-2.92,12.59A2.26,2.26,0,0,0,356.55,368Z"/><path d="M325.6,325.31h0a2.25,2.25,0,0,0-2.25,2.25c0,.09-.08,9.56-5,13.8a2.25,2.25,0,0,0,2.95,3.4c6.45-5.6,6.52-16.73,6.52-17.2A2.25,2.25,0,0,0,325.6,325.31Z"/><path d="M312.65,235.28c.06,0,6.19-1.25,11,.51a1.54,1.54,0,0,0,.52.09,1.5,1.5,0,0,0,1.49-1.38c0-.36.69-8.91-3.17-13a5.89,5.89,0,0,0-4.27-2h0a5.28,5.28,0,0,0-3.86,1.81c-1.82,2-3.91,5.8-3.5,12.62a1.48,1.48,0,0,0,1.8,1.38Zm3.91-12a2.27,2.27,0,0,1,1.67-.83h0a3,3,0,0,1,2.08,1.06c1.91,2,2.39,6.16,2.42,8.86a23.81,23.81,0,0,0-5.23-.55,30.61,30.61,0,0,0-3.72.23C313.82,227.35,315.27,224.71,316.56,223.3Z"/><path d="M322.72,269.56a1.5,1.5,0,0,0,.58-2.88c-7.77-3.26-13.33-.05-13.56.09a1.5,1.5,0,1,0,1.53,2.58s4.48-2.59,10.87.09A1.51,1.51,0,0,0,322.72,269.56Z"/></g></g></svg>