<svg xmlns="http://www.w3.org/2000/svg" viewBox="0 0 840 840"><defs><style>.cls-1,.cls-3{fill:#fff;}.cls-2,.cls-8{fill:#fffc19;}.cls-3{writing-mode:tb;text-orientation:upright;glyph-orientation-vertical:0deg;font-size:120px;font-family:KozGoPr6N-Regular-83pv-RKSJ-H, Kozuka Gothic Pr6N;}.cls-4{font-size:24px;}.cls-4,.cls-7,.cls-9{font-family:KozGoPr6N-Bold-83pv-RKSJ-H, Kozuka Gothic Pr6N;}.cls-5,.cls-6{fill:none;stroke-linecap:round;}.cls-5,.cls-6,.cls-8{stroke:#000;stroke-miterlimit:10;}.cls-5{stroke-width:2px;}.cls-6{stroke-width:4px;}.cls-7{font-size:19.5px;}.cls-8{stroke-width:7px;}.cls-9{font-size:21px;}.cls-10{letter-spacing:-0.5em;}.cls-11{font-size:16px;}</style></defs><g id="レイヤー_2" data-name="レイヤー 2"><g id="レイヤー_2-2" data-name="レイヤー 2"><rect class="cls-1" width="840" height="840" transform="translate(840) rotate(90)"/></g><g id="レイヤー_3" data-name="レイヤー 3"><rect class="cls-2" x="47.5" y="168" width="330" height="450"/><text class="cls-3" transform="translate(97 198.29)">無<tspan x="0" y="120"> </tspan><tspan x="0" y="147.96">料</tspan></text><rect x="497" y="206" width="80" height="38"/><path class="cls-1" d="M517.72,236.09V219.8a24.88,24.88,0,0,1-2.8.13V216.8a6.83,6.83,0,0,0,4.19-2H522v21.24Z"/><path class="cls-1" d="M534.28,231a2.54,2.54,0,0,0,2.84,2.23c1.54,0,2.35-.58,2.35-1.65s-1-1.51-3.46-2.22c-4.41-1.24-5.44-2.79-5.44-5.14,0-2.09,1.31-5,6.3-5,4.4,0,6.25,2.25,6.44,5h-4.23a2.11,2.11,0,0,0-2.41-1.88c-1.18,0-1.86.5-1.86,1.45s.66,1.31,3.05,1.91c4.52,1.17,5.88,2.82,5.88,5.46,0,3.4-2.84,5.2-6.74,5.2-4.06,0-6.62-1.81-7-5.38Z"/><path class="cls-1" d="M549.55,219.53h2.33V215h4.33v4.5h2.95v3.37h-2.95v8.51c0,1.13.27,1.61,1.62,1.61a5.12,5.12,0,0,0,1-.08v3a10,10,0,0,1-2.66.31c-3.2,0-4.28-1.29-4.28-4.37v-9h-2.33Z"/><circle cx="537" cy="106" r="19"/><text class="cls-4" transform="translate(134 114.7)">無料はじめて申込み</text><line class="cls-5" x1="509" y1="106" x2="359" y2="106"/><circle cx="537" cy="731" r="19"/><line class="cls-6" x1="537" y1="125" x2="537" y2="194.11"/><polygon points="526.09 185.27 528.05 183.45 537 193.09 545.95 183.45 547.9 185.27 537 197 526.09 185.27"/><polyline class="cls-6" points="557 731 692 731 692 225 590.89 225"/><polygon points="599.73 214.09 601.55 216.05 591.92 225 601.55 233.95 599.73 235.9 588 225 599.73 214.09"/><line class="cls-6" x1="537" y1="244" x2="537" y2="313.11"/><polygon points="526.09 304.27 528.05 302.45 537 312.08 545.95 302.45 547.9 304.27 537 316 526.09 304.27"/><rect x="497" y="325" width="80" height="38"/><path class="cls-1" d="M506.56,355.09v-.16c0-2.87.93-6.22,6.41-10.42,2.58-2,3.51-2.93,3.51-4.77a2.53,2.53,0,0,0-2.7-2.83c-2,0-2.85,1.32-3,3.47h-4.15c.14-3.58,2.24-6.83,7.33-6.83,4.6,0,7,2.75,7,6.18,0,2.74-1.07,4.41-4.94,7.22-2.07,1.51-3.63,3.08-4.17,4.56h9.67l-.54,3.58Z"/><path class="cls-1" d="M528.89,343.69c0-3.41,0-4.43-.06-5.16h4.23a15.85,15.85,0,0,1,.15,2.14,5,5,0,0,1,4.61-2.46c3.48,0,5.24,2.22,5.24,6v10.85H538.7v-10c0-1.87-.46-3.28-2.52-3.28s-2.94,1.16-2.94,4.06v9.24h-4.35Z"/><path class="cls-1" d="M566.26,331.82v18.65c0,1.94,0,3.65.07,4.62h-4.24a19.08,19.08,0,0,1-.15-2c-.78,1.45-2,2.28-4.65,2.28-4.22,0-6.4-3.45-6.4-8.57s2.66-8.63,7.13-8.63c2.47,0,3.53.84,3.9,1.51v-7.9Zm-10.93,14.87c0,3.1,1,5.19,3.4,5.19,2.84,0,3.39-1.92,3.39-5.16,0-3.54-.71-5-3.26-5C556.72,341.76,555.33,343.39,555.33,346.69Z"/><line class="cls-6" x1="537" y1="363" x2="537" y2="432.11"/><polygon points="526.09 423.27 528.05 421.45 537 431.08 545.95 421.45 547.9 423.27 537 435 526.09 423.27"/><rect x="497" y="444" width="80" height="38"/><path class="cls-1" d="M509.67,458.67c.31-3,2.12-6.12,7.09-6.12s6.89,2.75,6.89,5.65a4.42,4.42,0,0,1-2.8,4.24v.07a5.17,5.17,0,0,1,3.67,5.27c0,3.14-2.08,6.63-7.78,6.63-5.06,0-7.24-2.88-7.47-6.17h4.24a3.11,3.11,0,0,0,3.41,2.82c2.19,0,3.18-1.27,3.18-3.24,0-2.3-1.28-3.28-3.71-3.28h-1.62v-3.42h1.31c2.21,0,3.25-.62,3.25-2.61a2.41,2.41,0,0,0-2.72-2.67c-1.83,0-2.73,1-3,2.83Z"/><path class="cls-1" d="M532.47,463.14c0-2.72,0-4.47-.06-5.61h4.24a29,29,0,0,1,.11,2.9,5.1,5.1,0,0,1,5-3.17v4.4c-3.41-.05-4.95,1.1-4.95,4.9v7.53h-4.35Z"/><path class="cls-1" d="M563.42,450.82v18.65c0,1.94,0,3.65.06,4.62h-4.24a19.2,19.2,0,0,1-.14-2c-.79,1.45-2,2.28-4.65,2.28-4.22,0-6.41-3.45-6.41-8.57s2.67-8.63,7.13-8.63c2.47,0,3.53.84,3.9,1.51v-7.9Zm-10.93,14.87c0,3.1,1,5.19,3.39,5.19,2.84,0,3.39-1.92,3.39-5.16,0-3.54-.71-5-3.25-5C553.88,460.76,552.49,462.39,552.49,465.69Z"/><line class="cls-6" x1="537" y1="482" x2="537" y2="551.11"/><polygon points="526.09 542.27 528.05 540.45 537 550.08 545.95 540.45 547.9 542.27 537 554 526.09 542.27"/><rect x="497" y="563" width="80" height="38"/><path class="cls-1" d="M519.71,593.09v-4.88h-9.32v-3.82l8-12.58h5.35v12.88H526l-.39,3.52H523.7v4.88Zm0-13c0-2.41,0-3.58.09-5-1.13,2.28-4,6.92-5.49,9.64h5.4Z"/><path class="cls-1" d="M531.36,576.53h2.33V572H538v4.5h3v3.37h-3v8.51c0,1.13.28,1.61,1.63,1.61a5.12,5.12,0,0,0,1-.08v3a10,10,0,0,1-2.67.31c-3.2,0-4.27-1.29-4.27-4.37v-9h-2.33Z"/><path class="cls-1" d="M552.76,569.82v8.7a4.9,4.9,0,0,1,4.59-2.31c3,0,5.23,1.63,5.23,6v10.88h-4.3V582.87c0-1.79-.57-3.08-2.6-3.08s-2.92,1.42-2.92,4.08v9.22h-4.35V569.82Z"/><line class="cls-6" x1="537" y1="601" x2="537" y2="700.11"/><polygon points="526.09 691.27 528.05 689.45 537 699.08 545.95 689.45 547.9 691.27 537 703 526.09 691.27"/><text class="cls-4" transform="translate(206 233.7)">コーチと対話</text><line class="cls-5" x1="488" y1="225" x2="359" y2="225"/><text class="cls-4" transform="translate(110 352.7)">振り返りシートの記入</text><line class="cls-5" x1="488" y1="344" x2="359" y2="344"/><text class="cls-7" transform="translate(110.53 323)">ご自宅などからメールで</text><text class="cls-4" transform="translate(158 471.7)">レポートの受取り</text><line class="cls-5" x1="488" y1="463" x2="359" y2="463"/><text class="cls-7" transform="translate(158.08 442)">メールで</text><text class="cls-4" transform="translate(86 590.7)">効果の実感・継続の意向</text><line class="cls-5" x1="488" y1="582" x2="359" y2="582"/><text class="cls-4" transform="translate(206 739.7)">次回の申込み</text><line class="cls-5" x1="509" y1="731" x2="359" y2="731"/><circle class="cls-8" cx="692" cy="478" r="97.5"/><text class="cls-9" transform="translate(618.5 450.46)">次回の来訪時に<tspan x="-10.5" y="36.75">今回のお支払いと</tspan><tspan x="26.25" y="73.5">なります</tspan><tspan class="cls-10" x="110.25" y="73.5">。</tspan></text><text class="cls-7" transform="translate(206.67 204)">スタジオで</text><line class="cls-6" x1="499" y1="599" x2="457.04" y2="640.95"/><polygon points="455.58 627 458.25 627.09 457.77 640.23 470.91 639.75 471 642.42 455 643 455.58 627"/><text class="cls-4" transform="translate(365.78 672.22)">つづけない<tspan class="cls-11"><tspan x="-20" y="19.96">（事後の連絡もなし</tspan><tspan class="cls-10" x="124" y="19.96">）</tspan></tspan></text><text class="cls-9" transform="translate(435 615.62)">なし</text><text class="cls-9" transform="translate(541.58 657.38)">あり</text></g></g></svg>