<svg xmlns="http://www.w3.org/2000/svg" viewBox="0 0 759.45 717.98"><defs><style>.cls-1{fill:#fffc19}.cls-2{fill:#231f20}</style></defs><g id="レイヤー_2" data-name="レイヤー 2"><g id="character"><path class="cls-1" d="M116.49 581.72c0-.65.94-21 6.17-35.38s10-28.86 8.92-39.43-5.23-30.81-5.23-30.81-4.87 28-5.79 32.2-6.26 16.7-6.26 16.7-21 4.53-37.63-10.46l9.92-20.3s4.65-59.85 5.59-69.77 2-39.42 5.33-46.82 6.7-10.72 6.7-10.72-.21 18.31 8.24 27.07 27.34 20.51 36 22.51c0 0 14 17.95 28 18.49 0 0-15-25.36-4.13-42 0 0 8.86 8.63 7.75 16.16 0 0 2.63-17.49.09-26.13s-7.37-24.64-7.37-24.64l43.71 8.11s16.18 2.26 19.42 15.68 15.84 65 15.84 65l5.85 16.88a37.43 37.43 0 015.1 15.91s8 3.39 7.17 10.68-12.27 14-12.27 14-13.55-.06-22.63-16.89-12.14-21.9-12.14-21.9-8.66 22.52-8.78 31-3.53 22.63 2.75 29.17 16.52 23 16.52 23-14 15.31-29 22.28c0 0-18.1 12.1-50.34 12.65s-37.5-2.24-37.5-2.24z"/><path class="cls-2" d="M233.35 549.11l72.22 9.08s16 26.61-18.32 41.67c0 0-72.58 29.63-105.37 29.43 0 0-34.79 7.54-52.16-16.36 0 0-10.57-14-9.88-30 0 0 46.52 5.46 69.1-4.95s40.33-20.29 44.41-28.87z"/><path class="cls-1" d="M447.8 566s6.66-45.22 15.67-52.67 47.12-23.13 47.12-23.13l1.63 32.89 20.83-20.71 3.06 15.47 13.68-17.74s17.21 13.27 23.72 23L594.89 482s62.06 22.33 66.85 27.89 37.52 56.43 42.5 73.22 22 36.48 17.46 52.71-3.27 19.52-21.61 21.41c0 0-8.27 11.75-23 6.77 0 0 14.72-12.57 7-24s-23.76-10.13-23.76-10.13l7.07-7.72 2.63-9.47-17.6-21.7 1.69 41.89-19.12 7.67h-6.14l-7.94 3.86s-25.16-12.08-32.37-12.52-24 6.3-24 6.3l-18.15-2.37L535.86 583l-6-5.15z"/><path class="cls-2" d="M544.72 426.05c2.26.14 4.25-2.1 4.44-5s-1.48-5.36-3.74-5.5-4.25 2.1-4.44 5 1.48 5.36 3.74 5.5zM548.34 406.66a16.82 16.82 0 019.22 3.89 1.07 1.07 0 001.71-.65 3.33 3.33 0 00-1.13-2.77c-2.27-2.32-7.61-5.41-11.66-5.64 0 0-2.75 0-2.91 2s1.43 2.94 4.77 3.17zM519.27 417.55c-.2-2.89-2.19-5.13-4.45-5s-3.93 2.6-3.74 5.5 2.19 5.13 4.45 5 3.93-2.6 3.74-5.5zM526.62 441.15s3.6-.6 2.25-1.2-2.66.43-6.76-3.74c-1.16-1.18-2.52-1-2.52.64 0 .95 1.71 4.65 7.03 4.3zM528 464a10.43 10.43 0 003.23-.52c2.5-.81 8.36-3.82 10.28-14.26l.22-.06a2 2 0 00-1.1-3.83c-14.52 4.21-24.26-1.57-24.37-1.63a2 2 0 00-2.09 3.39l.1.06a2.14 2.14 0 00.1.65c.36 1 3.62 10.09 6.71 13.3A9.54 9.54 0 00528 464zm2-13.13a40 40 0 007.18-.68c-1.28 4.95-3.87 8.42-7.22 9.5a5.76 5.76 0 01-6.05-1.36c-1.57-1.62-3.5-5.93-4.77-9.09A36 36 0 00530 450.9zM466.93 651.07l-10.39 9.12a2 2 0 002.63 3l10.39-9.12a2 2 0 00-2.63-3zM457.47 657.07a2 2 0 001.31-.49l5.09-4.47a2 2 0 00-2.63-3l-5.09 4.46a2 2 0 001.32 3.49zM620.19 575.9l-44.46-14.11a2 2 0 10-1.2 3.79L619 579.7a2.08 2.08 0 00.6.09 2 2 0 00.6-3.89z"/><path class="cls-2" d="M757.1 659.87l-42.7-4.94c4.6-3.42 6.68-8.41 9.23-15.33 4.47-12.14-12.7-48.36-14.62-52.34-4.65-10.9-36.2-75.81-48.89-81.84-10-4.78-56.27-22.79-63.4-25.56A52 52 0 00586.55 467a2.69 2.69 0 00-2-.6 2.63 2.63 0 00-1.21.46 56.39 56.39 0 01-1.46-9.94 2.47 2.47 0 00.49-.24c20.82-14.94 33.56-43.82 27.82-63.08-4.47-15-12.39-21.47-17.74-24.22 2.32-5.83 3.42-15.4-4.67-21.9-6.8-5.46-12.94-4.56-15.23-3.94-4.5-2.23-7.56-2-9-1.58-2.08-.8-7.16-2.53-10.68-1.79a16.51 16.51 0 00-14-.73c-5.56-2-18-.2-20.58.21a2 2 0 00-.54.18l-.1.05a2 2 0 00-.44.33l-.06.07c-.06.07-.12.12-.17.19a28.43 28.43 0 00-3.63 7.13c-17.54 17.13-6.76 34.26-3.08 39.07a80.7 80.7 0 00-9 29.64c-2.91 25.24 8.54 48.49 14.4 55.8a45.36 45.36 0 00-5.84 15.58c-8.74 2.66-43 13.71-49.26 25.31-6.45 11.9-14.68 47.16-15.33 50l-62.8-9.39a7.39 7.39 0 00-8.55 9L385 616.86l-52.23-6.3a2.66 2.66 0 00.32-1.51c-2.35-27.89-6.5-37.68-12.88-45.17-2.9-3.39-9.16-5.55-12.12-6.43a2.65 2.65 0 00-2-1.87c-1.9-.38-45.84-9.05-70.84-9.13-2.15-5.89-5.85-10.4-9.45-14.76-4.3-5.19-8.36-10.1-9.92-17.24-2.36-10.72 4.52-33.32 7.78-43.07 5.51 9.63 12.12 21 14.86 24.91 4.06 5.8 9.12 9.48 14.26 10.34a13.54 13.54 0 002.37.2 14.46 14.46 0 002.08-.16 1.45 1.45 0 00.28 0c.78.05 1.53.07 2.26.07 15.69 0 19.64-10.66 20.63-16.11a2.34 2.34 0 00.45-.49l31.36-44.91c9.58-1.41 22.42-4.73 23.08-4.9a2.37 2.37 0 00.73-.31l15.92-9.82a2.7 2.7 0 001-1l7-13.6a2.63 2.63 0 00.22-.65 2 2 0 00-.49-3.81 11.31 11.31 0 00-6.63 1.42l8.03-12.56a2 2 0 00-.5-2.68 7.25 7.25 0 00-5.69-1.57 3.48 3.48 0 00-.41.1l.35-.87a2 2 0 00-.41-2.11l-1.62-1.7a2 2 0 00-1.92-.56c-3.25.8-5.83 3.4-8 6.3l.6-2.09a2 2 0 00-1.17-2.39 4.87 4.87 0 00-4 .13c-2.81 1.3-5.07 5.12-6.54 8.32l.33-3.53a.27.27 0 000-.09v-.1-.1a1.49 1.49 0 000-.21 1.16 1.16 0 000-.18 1.06 1.06 0 00-.06-.19l-.07-.18-.09-.16-.11-.17-.12-.14-.14-.14-.14-.12-.16-.1-.17-.1-.18-.07-.18-.06h-.72c-1.25.1-6.47 1.15-8.72 12.11l-2.66 8.18a2.55 2.55 0 00-.87 0c-21.95 4.79-27.1 17.87-28.12 21.53l-28.65 26.84c-.53.06-1 .14-1.47.23-3.43-9.09-12.25-46.26-17.12-66.8-2.47-10.39-3.77-15.86-4.15-17-1.6-5-7.86-14-21.17-16.33-4.71-.82-12.58-2.27-20.46-3.74C193.07 350.63 182 347 175 345.61c2.36-.94 5.86-.4 9.56.19a47.16 47.16 0 007.34.78 17.69 17.69 0 003.1-.25 7.44 7.44 0 005.15-3.44c1.88-3 1.55-7.17 1.11-9.64a17.21 17.21 0 002.85-3.11 2.67 2.67 0 00.38-2.41 2.63 2.63 0 00-1.75-1.7 13.91 13.91 0 01-2.6-1.07 13.28 13.28 0 009.79-7.42 2.69 2.69 0 00.1-1.75l-1.25-4.38c6.37-2.73 7.12-7.9 7.16-8.15a2.67 2.67 0 00-1.63-2.8c-7.27-3-7.41-12-7.42-12.31.49-20.28-6.06-29.38-10.12-33.06a28.54 28.54 0 004.32-2.59c9.42-7.12 8.83-15.69 7.16-19.38-2.11-6.16-7.71-4.9-12.65-3.78-4.72 1.07-10.6 2.41-17.52.17l-1.54-.5c-9.5-3.09-18.48-6-36.66-1.16-28.12 7.5-34.3 22.4-35 24.42-11.6 24.88-6.14 38.78-.85 52.22 4 10.23 7.82 19.89 4.6 34.74a65.31 65.31 0 01-2.57 8.45c-1.86 5.24-3.75 10.63-3.7 19.25-3.07 2.6-11 10.86-10.62 26.5.2 8.23-1.94 28.84-4 48.77-2.46 23.21-4.74 45.14-3.74 50.91 0 .12.06.21.08.33A157.08 157.08 0 0076.79 512a2 2 0 00-3 1.48c-.34 2.68-1.71 15 .29 20.91-.17.57-16.73 56.42-21.2 67.85A30 30 0 0130 611.55a2.79 2.79 0 00-.81.08c-.73.2-18.06 4.91-25.86 15A2.82 2.82 0 002.8 628l-1.25 11.31-.69.48A2 2 0 000 641.2a2 2 0 00.51 1.56c1.41 1.57 4.19 3.61 7.15 3.61a6.08 6.08 0 002.94-.78 10.06 10.06 0 005 1.69 5.31 5.31 0 001.62-.25 45.07 45.07 0 005.2-2 2.64 2.64 0 001.48.73 13.55 13.55 0 001.89.13c7.83 0 13.85-6.6 16-9.26 3.6-.23 14.2-1 21.43-2C73.06 633.17 77 617.76 77.6 615l29.85-72.31a2.45 2.45 0 00.18-.79c3.66-3.58 10.85-11.15 10.85-15.23a3.29 3.29 0 00-1-2.5.88.88 0 00-.15-.12 40.93 40.93 0 003.36-7.71c1.64-5 4-19.09 5.64-30 2.16 12.81 3.36 25 2.12 32.89-1.08 6.82-3.48 13.25-6 20.06-4.37 11.68-9.32 24.91-8.56 43.26a2.34 2.34 0 000 .26 2 2 0 000 .26l.07.21c0 .09.06.19.1.27a1.86 1.86 0 00.11.19l.15.25.15.16.19.21.18.15a1.7 1.7 0 00.22.15l.2.11c.09 0 .17.09.26.12l.21.06.3.08H116.2a57.34 57.34 0 006.8 22.61c6.29 11.36 19.7 24.91 47.9 24.91h.07c30.29 0 77.27-15.52 100.85-24a2.82 2.82 0 00.52.11l113.85 13.73 9.36 45.57a2.66 2.66 0 002.21 2.09l159.68 23.89h.39a2.65 2.65 0 002.56-1.95l41.29-26.88c5.5 1.85 11.54 2.89 16.62 1.38l4.12-.49.64.91a2 2 0 001.63.86h11.66a2 2 0 001.58-.78c.05-.06.3-.41.66-1a2 2 0 001.32.5h.09l28.58-1.56a2 2 0 001.46.64 21.18 21.18 0 005.32-.66 2 2 0 001.27 1 25.54 25.54 0 005.78.59 32.28 32.28 0 0011.59-2.16 16.58 16.58 0 006.31-4.48h.16c1.4-.21 2.69-.45 3.89-.73l52.11 6h.3a2.65 2.65 0 00.31-5.29zm-447.6-96.35c2.69 1 5.47 2.38 6.69 3.81 5.68 6.66 9.41 15.7 11.63 42.17a3.55 3.55 0 00.09.47l-31.53-3.81-.4-4.3a24.36 24.36 0 004.71.48 19.27 19.27 0 009.62-2.46 2 2 0 10-2-3.46c-4.2 2.4-8.81 2.13-12.11 1.41 7.7-5.53 16.38-16 13.3-34.31zm-15.74-123.15a2.58 2.58 0 00.8-1.48c0-.13 2.61-13.48 24.25-18.2a2.57 2.57 0 001.22-.64 2 2 0 001.65-1.34l3.32-10.29a1.8 1.8 0 00.06-.22 18.34 18.34 0 012.68-7.06l-.85 8.89c-2 3.6-3.62 7.33-3.62 8.07a2 2 0 003.93.48 59.44 59.44 0 013.41-7.06 30.79 30.79 0 012.77-4.17 2 2 0 00.36-.65c1-3 2.94-7.27 4.85-9.39l-2.7 9.45c-2.69 3.43-7.18 9.88-7.41 10.2a2 2 0 003.27 2.28c1.53-2.19 5.4-7.66 7.5-10.3.34-.42.63-.77.86-1a35.23 35.23 0 003.05-4.35c2-3.19 4.5-7.07 7.33-8.57l-2.25 5.6a1.85 1.85 0 00-.11.45c-.92 1.25-1.83 2.65-2.77 4.1s-2 3-3 4.5c-.49.67-5.1 5.69-9.18 10.07a2 2 0 102.91 2.72c1.44-1.54 8.63-9.27 9.49-10.44 1.13-1.55 2.17-3.14 3.16-4.67 2.43-3.73 4.73-7.26 6.87-7.65a2.21 2.21 0 01.93 0L349 411.51l-10.25 11.21a2.41 2.41 0 00-.32.53l-4.84 1.18a81.88 81.88 0 00-9.4-2.32 2 2 0 10-.74 3.91 71.92 71.92 0 019.27 2.34 2.12 2.12 0 00.75.14 2.59 2.59 0 00.47-.05L344 426a2 2 0 001.16-.79 36.65 36.65 0 018-8.12l-4.65 9-14.94 9.23c-2.77.7-19.78 5-27.48 5.24a2.65 2.65 0 00-.7 5.18l-25.14 36c-1.1-5.1-4-9.89-8.63-14.32a13.1 13.1 0 00-4-2.61zm-31 28.1a2.66 2.66 0 001.54-.51 8.85 8.85 0 014.61 2.36c5.37 5.12 8 10.51 7.9 16.41l-.28.4a2.66 2.66 0 000 3c-.71 3.84-3 9.56-10.1 11.77a21.21 21.21 0 004.63-7.41c3.22-8.44-2-14.67-5.71-17.16a21.32 21.32 0 00-3-8.89 2.42 2.42 0 00.38.03zm-84-177.63c-1.68-4.75-3.26-9.24-3.26-13.68 0-11.64 7.84-15.82 15.84-19.51l.12.08c.11 0 10.72 5.53 10.13 30.35 0 .49.1 11 8.29 16.06a8.64 8.64 0 01-5 3 2.64 2.64 0 00-1.88 3.3l1.65 5.77c-1.1 1.71-4.63 5.57-13.15 2.72a2.66 2.66 0 10-1.68 5 27 27 0 002.71.74 11.6 11.6 0 004.81 4.76 2.65 2.65 0 00-1.62 3.23c.55 1.92 1 5.63-.07 7.39a2.14 2.14 0 01-1.58 1c-2.44.44-5.6-.06-8.66-.55-4.21-.67-8.55-1.35-12.23.06.66-1.76 1.51-3.57 2.47-5.6a101.8 101.8 0 005.46-13.36c4-12.6.61-22.27-2.38-30.76zm13 68.48c-8.14-1.52-15.58-2.93-18.71-3.52a28.59 28.59 0 01-1.29-6.69c5.01.74 15.63 3.1 19.93 10.21zM72.6 613.22a2.15 2.15 0 00-.14.45c-.83 3.81-4.45 14.86-10 15.65-8.43 1.21-22.09 2-22.23 2a2.64 2.64 0 00-2 1.15c-.06.07-4.74 6.77-10.77 7.86l10.9-10.71a2 2 0 10-2.79-2.84L20.7 641.41a44.53 44.53 0 01-4.64 1.83 3.33 3.33 0 01-2.09-.37l9.2-8.2.11-.1 9.71-10a2 2 0 10-2.86-2.78l-9.66 10-11.17 9.9a2.91 2.91 0 01-3.39.23 2.68 2.68 0 00.81-1.34l7.63-5.27a1.86 1.86 0 00.31-.26l11.09-11.61a2 2 0 00-2.88-2.76l-11 11.47-4.58 3.16.66-6c6.34-7.55 19.79-11.73 22.2-12.43a35 35 0 0027.06-11.56 2.32 2.32 0 00.42-.69c3.87-9.56 17.56-55.38 20.84-66.42 4.71 2.11 14.48 6 22.29 6h.27zm32.26-74.16a2.62 2.62 0 00-2 1.05c-6.92 1-18.24-3.43-23.79-6a2.66 2.66 0 00-1.37-1.39c-.88-3-.8-9.26-.36-14.75C91 529.75 107.83 528.85 114.08 528c-1.22 2.37-4.91 6.82-9.22 11.06zm22.51 2.15c2.65-7.07 5.15-13.74 6.31-21.09 3.93-24.87-14.2-86.93-15-89.56a2.66 2.66 0 10-5.1 1.5c.11.36 6 20.52 10.44 42.29-1.12 7.93-4.92 34-7.17 40.77-1.89 5.71-3.73 8.21-4.45 9-6.32.64-20.75.75-32.32-9.13 1-4.46 3.77-11.27 5.83-16a17.32 17.32 0 0010.91 8.46 3.29 3.29 0 00.54.05 2.66 2.66 0 00.53-5.26 12 12 0 01-8.7-10c-.85-5.06 1.6-28.66 3.76-49.48 2.09-20.1 4.25-40.88 4-49.45-.23-9.44 3-15.61 5.75-19.15.31 2.84.8 6 1.51 9.44 4.54 22.25 41.11 36.4 42.66 37a2.74 2.74 0 001.38.14c12.24 16.73 28.19 18.47 29.1 18.56h.25a2.66 2.66 0 002-4.44c-.06-.06-5.57-6.35-7.86-20.48-1.35-8.37 0-13.94 1.33-17.05 4.07 6.83 2.1 14.34 2 14.69a2.66 2.66 0 005 1.71c5.62-14.05 4-30.61-5-52.11 9.62 1.82 31.53 5.93 40.94 7.59 10.84 1.9 15.88 9.15 17 12.72.33 1 2 8.26 4 16.64 7.57 31.91 15.21 63.56 18.13 69.35a2.64 2.64 0 00.53.71 15.92 15.92 0 013.79 14.76 2.66 2.66 0 001.95 3.22 2.8 2.8 0 00.64.08 2.64 2.64 0 002.57-2 20.21 20.21 0 00.42-2.2 9.65 9.65 0 012.1 10.59c-2.14 5.6-5.32 7.38-5.44 7.44a1.83 1.83 0 00-.26.16 10.43 10.43 0 01-8.12 2.06c-4.07-.69-8.22-3.78-11.66-8.7-2.91-4.17-10.66-17.57-16.4-27.66a2.64 2.64 0 00-1.68-3c-2.93-5.16-5-8.89-5.08-9a2 2 0 00-3.48 1.95c.25.44 2.28 4.06 5.07 9-1.38 3.81-12.7 35.64-9.47 50.34 1.84 8.41 6.5 14 11 19.49 3.59 4.34 7 8.45 8.78 13.75-1.34 1.85-7 8.11-29.56 21.51-25.34 15.07-71.21 11-81.83 9.81-.16-16.17 4.16-27.78 8.36-39.02zm43.56 86h-.06c-41.87 0-48.28-31.44-49.26-41.46 5.2.51 13.62 1.15 23.45 1.15 18.59 0 42.2-2.28 58.57-12 21.78-13 28.92-19.87 31.24-23.14 21.83 0 60.24 7.12 68.57 8.72 7.45 29.52-17.84 37.24-18.93 37.52l-.25.08c-.73.33-73.44 29.12-113.33 29.15zm115.2-24.14a34.72 34.72 0 005.56-2.43l.18.06.46 4.95-9.79-1.18c1.9-.71 3.14-1.2 3.59-1.38zM585.07 473a51.51 51.51 0 016.87 9.25c-3.7 9.1-12.47 29.14-18.39 36.87-3.79-4.33-12.24-13.66-19.23-19a58.26 58.26 0 015.2-3c8.97-4.77 20.98-18.65 25.55-24.12zm-37 25.14l-.1.08a9.1 9.1 0 00-2.85 3.82l-6.78 11.34a47 47 0 00-2.85-12c-2.7-6.43-3.56-8.93-3.74-9.47v-.09c-1.27-3.86-3.73-10.15-5.26-14a28.6 28.6 0 005.33.51 30 30 0 0010.62-2c8.18-3.12 23.27-12.49 29-24.35 1.58 1.49 3.78 3.61 5.13 5.09a55.64 55.64 0 002.67 14.53c-5.18 6.09-15 17-22.18 20.7a46.22 46.22 0 00-8.98 5.79zm-41.53-81.21a85.21 85.21 0 012.78-13.93 13.79 13.79 0 014.92-.16c3.3.39 5.08-.22 5.33-2.22s-2.44-2.51-2.44-2.51a18.4 18.4 0 00-6.33.36c5.48-15.08 13.6-21.68 13.74-21.79a2.65 2.65 0 00.9-1.3 15.51 15.51 0 0114.4.12 2.65 2.65 0 002.24 1.73c.95.09 23.19 2.37 24.36 19.79a54.57 54.57 0 01-1.44 16.03c-1.17 5.55-2.17 10.36 1.89 16.18a2.62 2.62 0 002.24 1.13 2.68 2.68 0 002.19-1.24c1.39-2.2 6.26-8.16 10.24-6.74a3 3 0 012 1.63c1 2.35-.91 6.85-2.19 9.83l-.1.23c-2.81 6.56-8.25 13-15 11.25a2.65 2.65 0 10-1.29 5.15c.38.1.76.15 1.13.22-5.21 9.49-17.91 17.75-25.6 20.68s-16.23 1.45-19.77-1.59c-3.74-3.25-17.13-27.35-14.19-52.9zm8.33 73a39.23 39.23 0 014.94-14.36l.23.12a2.37 2.37 0 00.18.86c1.44 3.55 4.95 12.41 6.43 16.89 0 .08.07.21.13.4.19.6.34 1.12.44 1.5a2.62 2.62 0 00.47 1c.51 1.32 1.24 3.17 2.3 5.72-2 .73-4.67 2.57-7.78 6.89a61.7 61.7 0 01-7.34 8.31zm-49.63 25.57c4.46-8.22 30.93-18 44.32-22.19v29.79a2.67 2.67 0 001.5 2.39 2.62 2.62 0 001.16.26 2.69 2.69 0 001.64-.56A74 74 0 00526.54 512c2.57-3.59 4.39-4.66 5.24-5a67.74 67.74 0 011.83 14.3c-1.75 2.94-3.34 5.63-4.47 7.56-3.67 6.26-5 15.5-3.81 27.48.49 5.18-.93 14.85-1.48 18.36l-46.87-7v-20.9a2 2 0 00-4 0v20.3l-22.48-3.36c1.1-4.64 8.93-37.5 14.74-48.24zM400.35 665l-21.26-103.5a2.11 2.11 0 012.56-2.72l147.89 22.12a4.47 4.47 0 013.58 3.4l21.31 103.75zm153.34-19.54l-2.28 1.45-1.79-8.69 3.46.45a2 2 0 00-1.31 1.84 7.41 7.41 0 001.92 4.97zm.66 8.83l-1.22 1-.42-2a7.68 7.68 0 001.64 1.02zm.15 7.68a8.47 8.47 0 001.31.68 1.86 1.86 0 00.07.52 6.48 6.48 0 003.55 4.11 5.79 5.79 0 002.23.43 9.55 9.55 0 004.76-1.5 33.58 33.58 0 008.84-7.15l10.74-1.55c.86.55 2.5 1.56 4.65 2.72l-32.21 21zm5.26 25.62l-.45-2.21 35.12-22.87a1.76 1.76 0 00.3-.24c.74.35 1.52.7 2.32 1zm65.26-26l-7.39.87a2 2 0 00-.35.08c-4.43 1.37-10 .27-15.11-1.55h-.11a76.72 76.72 0 01-14.49-7.24 2 2 0 00-1.4-.32l-12.27 1.79a2 2 0 00-1.34.82s-2.43 3.4-8.14 6.72c-1.45.84-2.68 1.14-3.45.83a1.8 1.8 0 01-.68-.49c2.71-2.38 9.46-8.19 12.68-10 4.21-2.43 12.39-6.72 12.48-6.76a2 2 0 00-1.85-3.53c-.34.18-8.34 4.37-12.62 6.84-3.2 1.84-9.16 6.89-12.36 9.66a4.42 4.42 0 01-2.62-1.18c3.31-2.72 12.15-9.87 16.11-11.76 5-2.38 16.94-6.19 17.06-6.23a2 2 0 10-1.21-3.8c-.5.16-12.33 3.93-17.57 6.43-3 1.42-8 5.22-12.11 8.41a4.36 4.36 0 01-3.63-1.57c1-.6 2.26-1.43 3.7-2.36a1.91 1.91 0 00.93-.59c4.27-2.74 9.35-6 10.35-6.91 1.2-1 12.88-5.86 20.91-5.86 3.84 0 20.11 7.55 29.47 12.3a1.83 1.83 0 00.93.21c.25.1 6.14 2.58 5.88 8.67-.14 4.83-1.41 6.26-1.82 6.59zm-68.92-19.6l4.4-.95-3.21 2.07a2.26 2.26 0 01-1.19-1.05zm79.15 21.71h-6.78c1.1-1.43 2.2-4 2.39-8.53a12.09 12.09 0 000-1.35 8.43 8.43 0 002.63.44 6.18 6.18 0 004.37-1.66 2.41 2.41 0 00.21-.24 19.9 19.9 0 01-2.82 11.41zm-7.43-18.7a1.88 1.88 0 01.53-1.41 2.35 2.35 0 011.63-.54 5.83 5.83 0 013.86 1.73 5.24 5.24 0 011.78 3.57 1.89 1.89 0 01-.53 1.42c-1 1-3.5.7-5.49-1.2a5.26 5.26 0 01-1.78-3.57zm48.11 15.52l-35.6 2a22.86 22.86 0 001.52-12 13.74 13.74 0 00-4.72-8.57c3.34-1.22 11.11-4.08 17-6.43a2.61 2.61 0 001.73-.69c2.34-.94 4.22-1.75 5.18-2.26 3.34-.8 7.52-1.2 11 .28 8.69 3.65 12.11 8.38 11.8 16.32a12.29 12.29 0 01-7.91 11.37zM665.63 623a23.74 23.74 0 00-3.85 4.8 1.8 1.8 0 00-.2.53 35.89 35.89 0 00-4.79 1.28c0-11-.7-23.26-1.26-31.71 5 7.71 9.78 15.07 11.84 18.05a27 27 0 00-1.94 5.78 2 2 0 00.2 1.27zM700 653.5a6.46 6.46 0 00-2.51 3.66 12.9 12.9 0 01-4.87 3.46 28 28 0 01-11.78 1.84 16.3 16.3 0 007.12-13.19c.48-12.36-7.36-17.26-14.24-20.15a18 18 0 00-7-1.3c1.52-1.89 4.21-4.59 7.7-5.43 5.62-1.34 24.54-.52 27.4 11.2 1.69 7.35.87 14.64-1.82 19.91zm4.23.22a33.68 33.68 0 001.41-21.07c-3-12.38-18.73-15.27-28.07-14.69a17.66 17.66 0 0111.67-3.26 2 2 0 10.44-4c-8.85-1-15.71 4.43-19 7.73.13-.29.25-.59.4-.9a2.79 2.79 0 00.57-.29 2.64 2.64 0 001-2.67 19.34 19.34 0 0111.9-8.57 2 2 0 10-.93-3.87 23 23 0 00-13.26 8.76c-6.63-9.91-25.12-38.83-25.33-39.16a2.66 2.66 0 00-4.48 2.86c.39.6 4.23 6.62 9 14 .34 4 2.1 26.14 2 43.69-5.26 2-12 4.57-17.13 6.42a1.92 1.92 0 00-1 .83 13.29 13.29 0 00-2.81-.91 2 2 0 00-1.85.64 6 6 0 00-2.43 1 11.79 11.79 0 00-4.91 2.12c-4.15-2.1-25-12.47-30.76-12.48-6.4 0-15.25 2.8-20.16 5l-5.91 1.28-15.7-2-10.44-50.86a9.78 9.78 0 00-8-7.58l-1.23-.19c.6-3.73 2.07-13.83 1.52-19.64-1-10.85 0-19 3.1-24.29 4.47-7.63 16.06-27 16.17-27.18a2.44 2.44 0 00.31-.77c8.66 6.26 21.15 21 21.28 21.21a2.69 2.69 0 001.86.94 2.64 2.64 0 002-.69c7-6.42 17.61-31.28 21.05-39.64 10.57 4.12 52.3 20.43 61.48 24.8 8.9 4.23 37.41 58.35 46.33 79.24 7.07 14.67 17.25 40.75 14.47 48.3-3.67 9.49-5.68 13.68-14.61 15.89z"/><path class="cls-2" d="M545.13 537.21a4.43 4.43 0 10-4.43 4.22 4.33 4.33 0 004.43-4.22zM544.48 572.24a4.22 4.22 0 104.42 4.22 4.32 4.32 0 00-4.42-4.22zM742.11 669.8c-3.43-3.18-10.25-5.25-18.46-5.25-11.89 0-20.85 4.34-20.85 10.09v33.24c0 5.76 9 10.1 20.85 10.1s20.85-4.34 20.85-10.1v-6.63c3.66-2.25 6.89-7.73 8.59-12.61 2.14-6.1 2.21-11.56.2-15-2.9-4.99-8.43-4.73-11.18-3.84zm-1.6 38.08c0 2.49-6.57 6.11-16.86 6.11s-16.87-3.62-16.87-6.11V680.7c3.73 2.47 9.77 4 16.87 4s13.14-1.56 16.86-4zm-.74-31.69c-3.89-2.25-9.73-3.54-16.12-3.54s-12.26 1.32-16.12 3.55a2.48 2.48 0 01-.75-1.56c0-2.49 6.57-6.11 16.87-6.11s16.86 3.62 16.86 6.11a2.44 2.44 0 01-.74 1.55zm9.56 11.13a27.48 27.48 0 01-4.83 8.68v-6.79a2 2 0 00.74-.79c2.18-4.15 2.65-7.12 1.46-9.1a3.88 3.88 0 00-2.2-1.69v-3a5.48 5.48 0 00-.17-1.28 5.07 5.07 0 015.52 2.28c1.4 2.37 1.2 6.77-.52 11.69zM185.36 284.78a12 12 0 002.89 1.92c-.48.37-.77.63-.77.63a6.7 6.7 0 002.92.37 10.17 10.17 0 00-.45 3c0 3.53 1.66 6.39 3.7 6.39s3.71-2.86 3.71-6.39a8.05 8.05 0 00-1.79-5.44c.55-.71.54-1.36-.37-1.57-1.45-.35-3.44.62-5 1.64a16.7 16.7 0 01-4.84-.55zM193.38 273s.57-2.81-3.84-1.58a12.45 12.45 0 00-7.85 7.57c-.52 3.16.62 4.76.62 4.76C183.68 276 193.38 273 193.38 273zM514.88 300.1a3 3 0 01-2.28-1l-47.07-54.6H443.3a50.82 50.82 0 01-50.76-50.77V127a50.82 50.82 0 0150.76-50.81h216.13A50.82 50.82 0 01710.19 127v66.74a50.82 50.82 0 01-50.76 50.77h-162.5L517.66 296a3 3 0 01-2.78 4.12zM443.3 82.19A44.81 44.81 0 00398.54 127v66.74a44.81 44.81 0 0044.76 44.77h23.61a3 3 0 012.27 1l36.17 41.95-15.64-38.87a3 3 0 012.78-4.12h166.94a44.81 44.81 0 0044.76-44.77V127a44.81 44.81 0 00-44.76-44.76zM234.71 230.56a3.07 3.07 0 01-1.56-.44 3 3 0 01-1.22-3.68L253 174H77.76A50.82 50.82 0 0127 123.24V50.76A50.82 50.82 0 0177.76 0h235.86a50.82 50.82 0 0150.76 50.76v72.48A50.82 50.82 0 01313.62 174h-28.78L237 229.52a3 3 0 01-2.29 1.04zM77.76 6A44.81 44.81 0 0033 50.76v72.48A44.81 44.81 0 0077.76 168h179.71a3 3 0 012.78 4.12l-16 39.79 37-42.87a3 3 0 012.27-1h30.15a44.81 44.81 0 0044.76-44.76V50.76A44.81 44.81 0 00313.62 6z"/></g></g></svg>