<svg xmlns="http://www.w3.org/2000/svg" viewBox="0 0 758.63 529.12"><defs><style>.cls-1{fill:#231f20}</style></defs><g id="レイヤー_2" data-name="レイヤー 2"><g id="character"><path class="cls-1" d="M633.16 182.69a3 3 0 01-1.19-5.76 27.18 27.18 0 0011.38-10c1.7-2.66 4.24-7.82 2.24-12.46-.83-1.93-2.22-4.28-4.15-4.58-1.63-.25-3.84.95-5.74 3.14-1.59 1.84-3 7.37-3.51 10.7a3 3 0 01-5.94-.88c.15-1 1.55-9.86 4.92-13.75s7.41-5.72 11.19-5.14c2.55.4 6.15 2.13 8.74 8.13 2.29 5.32 1.34 11.73-2.68 18.06a33.14 33.14 0 01-14.07 12.32 3 3 0 01-1.19.22zM616.17 247.12a3 3 0 01-2.78-1.88L602.85 219a3 3 0 015.57-2.24L619 243a3 3 0 01-1.67 3.9 2.94 2.94 0 01-1.16.22zM655.55 233.11a3 3 0 01-2.84-2l-7.5-21.62c0-.14-.08-.28-.11-.42-1.67-8.74 4.61-14.41 8.17-16.19a3 3 0 012.69 5.36c-.28.15-6.07 3.24-5 9.5l7.42 21.4a3 3 0 01-1.85 3.82 3.09 3.09 0 01-.98.15z"/><path class="cls-1" d="M596.85 293.72a3 3 0 01-3-2.78l-1.31-17.78a3.09 3.09 0 01.36-1.66c27.15-49.6 64.16-44.4 65.73-44.16a3 3 0 012.32 1.84l5.57 13.82a3 3 0 01-5.57 2.24l-4.88-12.12c-7.12-.41-35.35.71-57.47 40.49l1.24 16.89a3 3 0 01-2.77 3.22z"/><path class="cls-1" d="M574.94 348a3.25 3.25 0 01-.69-.08 3 3 0 01-2.23-3.61c.41-1.77 10.42-43.58 33.23-70.76 33.49-39.9 60.85-32.65 62-32.33a3 3 0 01-1.64 5.78c-.37-.1-25.08-6.16-55.76 30.41-21.9 26.09-31.89 67.85-32 68.27a3 3 0 01-2.91 2.32zM648.41 526.79a3.27 3.27 0 01-.87-.13 3 3 0 01-2-3.74s2.3-7.59 5.17-17.27a3 3 0 015.76 1.71c-2.89 9.7-5.18 17.29-5.18 17.29a3 3 0 01-2.88 2.14zM659.6 489.67a2.72 2.72 0 01-.84-.13 3 3 0 01-2-3.71l5.09-17.48a3 3 0 115.76 1.67c-1 3.47-3.83 13.16-5.09 17.48a3 3 0 01-2.92 2.17z"/><path class="cls-1" d="M693.75 360.7h-.3a3 3 0 01-2.68-3.28c1-9.83 1.81-20.42 2.66-34.34 2.15-35.19-29.08-76.71-29.4-77.12a3 3 0 014.78-3.64c1.34 1.77 32.9 43.69 30.61 81.13-.86 14-1.69 24.66-2.68 34.57a3 3 0 01-2.99 2.68zM536.3 388.37a3 3 0 01-2.06-5.19c.15-.14 15.18-14.31 35.45-36.82s54.73-62.73 55.08-63.13a3 3 0 014.56 3.9c-.35.41-34.77 40.6-55.18 63.25s-35.65 37-35.8 37.17a3 3 0 01-2.05.82zM571.92 418.87a3 3 0 01-2.16-5.08l51.53-53.62a3 3 0 114.33 4.15L574.09 418a3 3 0 01-2.17.87zM418.63 305.45c-11.21 0-20.33-9.45-20.33-21.07 0-11.44 8.61-20.7 19.61-21.09a2.2 2.2 0 012.33 2.17 2.25 2.25 0 01-2.17 2.33c-8.56.3-15.27 7.59-15.27 16.59S409.9 301 418.63 301a13.23 13.23 0 002.91-.29 2.25 2.25 0 011 4.4 18.42 18.42 0 01-3.91.34z"/><path class="cls-1" d="M419.31 298.78c-6.85 0-12.85-6.64-12.85-14.21 0-7.05 4.82-12.49 12.29-13.84a2.25 2.25 0 01.8 4.42c-5.38 1-8.59 4.5-8.59 9.42 0 5.47 4.49 9.71 8.35 9.71a2.25 2.25 0 010 4.5zM482.63 356.16a3 3 0 01-2.85-2l-14.62-43.43a3 3 0 115.68-1.92l14.63 43.43a3 3 0 01-1.89 3.8 2.87 2.87 0 01-.95.12zM507.82 341.15a3 3 0 01-2.74-1.79l-15.61-35.53a2.77 2.77 0 01-.1-.26c-.93-2.77-2.13-7.11-3.52-12.13-2.43-8.8-5.45-19.75-7.43-23.39-.2-.36-.43-.82-.69-1.34-1.62-3.25-4.63-9.3-10.33-10.46-2.8-.57-7.21-.3-8 .5a3 3 0 01-4.18.65 3 3 0 01-.66-4.2c3.5-4.83 13.94-2.85 14.05-2.83 8.57 1.74 12.58 9.8 14.5 13.66.22.45.42.84.59 1.15 2.31 4.25 5.31 15.09 7.95 24.66 1.29 4.66 2.5 9.07 3.37 11.7L510.57 337a3 3 0 01-2.75 4.2z"/><path class="cls-1" d="M450.42 291.68a21.71 21.71 0 01-4.14-.4c-5.56-1.09-23.71-2.41-23.89-2.42-8.56-.37-9.47-4.92-9.47-6.87 0-5.8 4.46-6.74 6.14-7.09l.55-.12h.18c12.49-2.63 40.55-1.5 43.71-1.36a2.3 2.3 0 012.22 2.3 2.19 2.19 0 01-2.17 2.2h-.25c-1.23-.06-30.31-1.29-42.5 1.25l-.82.19c-1.77.37-2.56.62-2.56 2.68s3.53 2.3 5 2.37a2.18 2.18 0 01.35 0c.66 0 18.5 1.34 24.33 2.48 5.3 1 8.64-.68 8.78-.76a2.27 2.27 0 013 .93 2.24 2.24 0 01-.9 3 16.84 16.84 0 01-7.56 1.62z"/><path class="cls-1" d="M448.26 300.9h-.18c-5.84-.47-25.17-2.22-29.07-4.84-4.23-2.84-3.2-8-2.07-10.39a2.25 2.25 0 014.06 1.93c-.07.15-1.53 3.34.51 4.71s15.54 3.17 26.93 4.09a2.25 2.25 0 01-.18 4.5z"/><path class="cls-1" d="M457.11 312.38H457c-7.46 0-31.77-3.85-36.42-7.81-4.95-4.23-2.51-10.9-2.41-11.18a2.25 2.25 0 014.22 1.57c-.06.17-1.42 4 1.11 6.19 3 2.54 25.1 6.7 33.51 6.73h.12c9 0 19.82-3.84 19.93-3.88a2.25 2.25 0 011.52 4.24c-.5.17-11.72 4.14-21.47 4.14zM465.3 260.89a2.25 2.25 0 01-2.06-1.34 16.33 16.33 0 00-4.5-1.2 102 102 0 00-16.39-1.14c-11.62 0-20 1.36-21.93 2.38a2.25 2.25 0 01-4.29-.95c0-4.9 14.26-5.93 26.22-5.93a105 105 0 0117.15 1.21c4 .66 8.05 1.74 8.05 4.72a2.25 2.25 0 01-2.25 2.25z"/><path class="cls-1" d="M453.52 312.38H425.8a2.24 2.24 0 01-2.23-2l-.55-5.08a2.26 2.26 0 012-2.48 2.28 2.28 0 012.48 2l.33 3.07h25.69a2.25 2.25 0 010 4.5zM420.26 277.74a2.26 2.26 0 01-2.24-2l-1.89-16.8a2.25 2.25 0 114.45-.66v.19l1.88 16.77a2.25 2.25 0 01-2 2.49zM461 276.6a2.25 2.25 0 01-1.3-4.08c5.45-3.88 3.47-13.3 3.45-13.4a2.25 2.25 0 014.4-1c.11.51 2.64 12.42-5.24 18a2.27 2.27 0 01-1.31.48zM433.74 250.31a2.26 2.26 0 01-1.9-1c-.17-.27-4.16-6.74 1.83-15.47 5.84-8.5.55-13.62-.07-14.17a2.25 2.25 0 013-3.39c3.17 2.74 7.43 10.48.82 20.11-4.25 6.2-1.77 10.46-1.74 10.5A2.25 2.25 0 01435 250a2.21 2.21 0 01-1.26.31z"/><path class="cls-1" d="M443.85 247a2.22 2.22 0 01-1.85-1c-.18-.27-4.16-6.73 1.82-15.46s.2-14 0-14.17a2.25 2.25 0 112.94-3.4c3.17 2.75 7.43 10.48.83 20.11-4.26 6.21-1.78 10.47-1.75 10.51a2.26 2.26 0 01-1.9 3.46zM487.32 376.43a3 3 0 01-2.85-2.08l-5.89-18.29a3 3 0 01.15-2.21c.31-.65 7.81-15.87 29.81-18.67a3 3 0 013.1 1.72l7.15 15.49a3 3 0 01-5.45 2.51l-6.21-13.44c-14.27 2.53-20.64 11.07-22.44 14l5.49 17.05a3 3 0 01-1.94 3.78 3.21 3.21 0 01-.92.14z"/><path class="cls-1" d="M526.88 457.76a9.64 9.64 0 01-4.28-.95c-16.91-8.26-39.49-62.59-42-68.75a3.12 3.12 0 01-.22-1.31c.06-1 1.77-24 35.46-36.13a3 3 0 012 5.65c-27.14 9.8-30.94 26.7-31.44 30.22 6.88 16.68 26.4 58.87 38.81 64.93 7.12 3.48 26.34-15.69 37.71-30.42a3 3 0 014.75 3.67c-4.56 5.95-26.3 33.09-40.79 33.09z"/><path class="cls-1" d="M545.3 415.87a2.25 2.25 0 01-2.25-2.16 49 49 0 00-5.36-18.9c-5.17-9.61-22.62-39.94-22.79-40.24a2.25 2.25 0 013.9-2.25c.18.31 17.65 30.69 22.85 40.36a52.76 52.76 0 015.9 20.86 2.26 2.26 0 01-2.17 2.33zM586.88 442.91a2.23 2.23 0 01-1.84-1l-29.25-41.61-1.35.95 21.42 30.52a2.25 2.25 0 11-3.68 2.58L549.47 402a2.26 2.26 0 01.55-3.14l5-3.54a2.28 2.28 0 011.68-.37 2.23 2.23 0 011.46.92l30.54 43.5a2.24 2.24 0 01-.55 3.13 2.2 2.2 0 01-1.27.41zM595 465.14a2.26 2.26 0 01-1.84-.95l-6.16-8.78a2.25 2.25 0 113.68-2.58l4.87 6.93 1.77-1.23a2.25 2.25 0 014.09-1.13l.48.69a2.24 2.24 0 01-.56 3.12l-5 3.53a2.26 2.26 0 01-1.33.4z"/><path class="cls-1" d="M609.17 480a2.25 2.25 0 01-1.63-.7l-14.2-14.89a2.24 2.24 0 01.34-3.39l5-3.53a2.33 2.33 0 011.85-.34 2.25 2.25 0 011.46 1.18l9.17 18.41a2.25 2.25 0 01-2 3.26zm-10.77-16.8l2.11 2.21-1.36-2.73zM551.32 403a2.27 2.27 0 01-1.85-1l-5-7.07a2.25 2.25 0 01.55-3.13l5-3.53a2.23 2.23 0 013.13.55l5 7.07a2.24 2.24 0 01-.54 3.13l-5 3.53a2.29 2.29 0 01-1.29.45zm-1.83-8.77l2.38 3.38 1.34-.94-2.38-3.39zM595.32 447.88a10 10 0 01-4.6-1.18 19.75 19.75 0 01-5.53-4.55 44.27 44.27 0 01-5.13-7.28 2.25 2.25 0 113.88-2.27 41.31 41.31 0 004.61 6.56 15.23 15.23 0 004.23 3.54 5.74 5.74 0 002.66.68 3.87 3.87 0 001.22-.25c-3.13-6.19-8-15-10.08-16.81-2.63-2.26-10.71-5.72-13.61-6.86a2.25 2.25 0 111.65-4.18c1.14.45 11.22 4.47 14.89 7.63s11.22 18.26 12.06 20a2.26 2.26 0 01-.33 2.48 8.17 8.17 0 01-5.66 2.52z"/><path class="cls-1" d="M591.75 447a2 2 0 01-.41 0c-1.23-.23-2.06-.31-2.1-.32a2.18 2.18 0 01-1.15-.45c-.09-.07-9-6.87-15.34-11.23-1.93-1.32-3.5-2.33-4.55-2.91a2.25 2.25 0 012.19-3.94c1.18.66 2.84 1.72 4.91 3.15 5.57 3.82 13.06 9.49 15 11 .44.06 1.07.16 1.83.3a2.25 2.25 0 01-.41 4.46z"/><path class="cls-1" d="M603.37 461.72a14.94 14.94 0 01-4.54-.9 95.55 95.55 0 01-9.84-4.13l-1.13-.53c-2.78-1.28-5.69-2.6-8.05-3.41-8-2.78-16.68-10.25-17-10.56a2.25 2.25 0 012.94-3.41c.08.07 8.42 7.22 15.59 9.72 2.55.88 5.45 2.19 8.45 3.58l1.14.52a91.59 91.59 0 009.33 3.94c2.46.8 3.35.7 3.56.64.79-.19.85-.56.87-.74.2-1.28-1.3-4.23-6.23-7.13a16.82 16.82 0 00-3.57-1.53 2.25 2.25 0 011.32-4.3 20.88 20.88 0 014.53 1.95c5.85 3.44 9 7.81 8.4 11.68a5.35 5.35 0 01-4.28 4.45 6.48 6.48 0 01-1.49.16zM596.22 466.46a2.35 2.35 0 01-.69-.1c-.18-.06-18.24-5.87-26.85-8.33-9.14-2.61-12.49-6.29-12.84-6.7a2.25 2.25 0 013.4-2.94c.09.09 2.93 3.1 10.67 5.32 8.69 2.48 26.82 8.3 27 8.36a2.25 2.25 0 01-.69 4.39z"/><path class="cls-1" d="M577.54 469c-6 0-13.76-2.58-17.52-4-9.7-3.56-12.36-7.5-12.63-7.94a2.25 2.25 0 013.79-2.42c.1.14 2.36 3.18 10.39 6.14 9.73 3.58 16.94 4.31 19 3.19.51-.28.74-.54.77-.68a1 1 0 00-.09-.46 2.25 2.25 0 013.74-2.51 5.32 5.32 0 01.72 4.06 5.59 5.59 0 01-3 3.55 11.1 11.1 0 01-5.17 1.07z"/><path class="cls-1" d="M581.67 477.84h-.35c-.77-.12-19.09-3-29.07-5.51-10.81-2.7-18.8-16.48-19.13-17.06A2.25 2.25 0 01537 453c.08.13 7.38 12.7 16.32 14.94 8.25 2.06 22.82 4.47 27.32 5.2a1.41 1.41 0 00.08-.74c-.07-.42-.65-1.91-4.73-3.64a2.25 2.25 0 011.75-4.15c4.45 1.89 7 4.26 7.42 7.06a6.42 6.42 0 01-2 5.58 2.22 2.22 0 01-1.49.59z"/><path class="cls-1" d="M529 519.6a3 3 0 01-2.83-4l16.45-48a3 3 0 115.67 1.94l-16.45 48a3 3 0 01-2.84 2.06zM577.29 154.49c-.23 3.51-2.14 6.25-4.27 6.12s-3.69-3.1-3.47-6.61 2.14-6.25 4.28-6.12 3.68 3.12 3.46 6.61zM583.17 145.62a3 3 0 01-2.58-1.47c-4-6.72-9-7.29-9.08-7.29a3 3 0 11.45-6c.33 0 8.19.73 13.79 10.21a3 3 0 01-1 4.11 2.94 2.94 0 01-1.58.44zM667.52 480a3.13 3.13 0 01-.86-.12c-3.37-1-6.36-5-3-27.2 2.21-14.71 6.7-33.77 12.62-53.68s12.57-38.3 18.72-51.82c9.33-20.4 14-22.13 17.4-21.12a3 3 0 01-1.23 5.85c-4.27 2.2-16.9 27.5-29.19 68.83s-15.55 69.4-13.17 73.59a3 3 0 01-1.32 5.69zM711.57 528a3 3 0 01-2.63-4.45c7.47-13.54 12.91-30.07 15.75-47.79 5.86-36.56.69-67.52-13.83-82.84a3 3 0 114.35-4.13c15.8 16.66 21.56 49.53 15.41 87.91-3 18.41-8.63 35.61-16.42 49.75a3 3 0 01-2.63 1.55zm-22-1.51a3 3 0 01-1.74-.55 3 3 0 01-.71-4.18c8.72-12.28 15.22-29.72 18.33-49.09 3.6-22.42 2.66-40.78-2.77-54.56a3 3 0 015.58-2.2c5.83 14.79 6.88 34.21 3.11 57.71-3.24 20.26-10.12 38.59-19.35 51.61a3 3 0 01-2.46 1.3z"/><path class="cls-1" d="M676.92 482.37a13.28 13.28 0 01-3.77-.55l-6.5-1.93a3 3 0 111.72-5.75l6.49 1.93a7.27 7.27 0 009-4.89l38.54-129.43a6.21 6.21 0 00-.49-4.72 6.15 6.15 0 00-3.69-3l-7.51-2.24a3 3 0 111.71-5.75l7.51 2.24a12.2 12.2 0 018.22 15.17l-38.51 129.44a13.29 13.29 0 01-12.72 9.48zM572.5 520.27a3 3 0 01-1.56-5.56c13.58-8.27 32.54-12.61 56.33-12.9 14.83-.17 29.17 1.69 41.42 5.4A3 3 0 11667 513a133.11 133.11 0 00-39.6-5.14c-22.71.28-40.64 4.32-53.29 12a3 3 0 01-1.61.41zm-27.07-3a3 3 0 01-2.4-4.79c13.73-18.41 45.13-29.68 84-30.16 18.61-.23 36.56 2.44 51.82 7.71a3 3 0 01-2 5.67c-14.61-5.05-31.85-7.6-49.78-7.38-37 .45-66.65 10.83-79.27 27.75a3 3 0 01-2.37 1.19zM468 517.87a3 3 0 01-3-3v-12a3 3 0 013-3h16.55v-14.62a3 3 0 016 0v17.62a3 3 0 01-3 3H471v9a3 3 0 01-3 3zM22.55 517.87a3 3 0 01-3-3v-9H3a3 3 0 01-3-3v-8.25a3 3 0 016 0v5.25h16.55a3 3 0 013 3v12a3 3 0 01-3 3zM325.8 440.36h-99a2.25 2.25 0 010-4.5h99a2.25 2.25 0 110 4.5zM325.8 448.37h-99a2.25 2.25 0 010-4.5h99a2.25 2.25 0 110 4.5zM325.8 456.38h-99a2.25 2.25 0 010-4.5h99a2.25 2.25 0 110 4.5zM325.8 464.39h-99a2.25 2.25 0 010-4.5h99a2.25 2.25 0 110 4.5zM243.69 472.39H226.8a2.25 2.25 0 010-4.5h16.89a2.25 2.25 0 010 4.5zM325.8 472.39h-68.16a2.25 2.25 0 010-4.5h68.16a2.25 2.25 0 110 4.5zM239.8 480.4h-13a2.25 2.25 0 010-4.5h13a2.25 2.25 0 110 4.5z"/><path class="cls-1" d="M487.55 488.25H3a3 3 0 010-6h484.55a3 3 0 010 6zM217.75 428.66a23.24 23.24 0 01-22.9-19.55l-25.76-159.37a23.26 23.26 0 0119.24-26.66 3 3 0 013.44 2.49L224 424.92a3 3 0 01-.53 2.23 3 3 0 01-2 1.21 23.92 23.92 0 01-3.72.3zm-31.38-198.92a17.25 17.25 0 00-11.36 19l25.76 159.37a17.27 17.27 0 0016.78 14.49z"/><path class="cls-1" d="M217.55 488.25h-80.16a15.62 15.62 0 01-14.06-22.45l61-125.33a3 3 0 115.39 2.63l-61 125.32a9.62 9.62 0 008.66 13.83h76.88a16.51 16.51 0 00-16.22-13.5h-42.2a7.67 7.67 0 01-6.89-11l40.75-83.77a3 3 0 115.39 2.62l-40.75 83.78a1.67 1.67 0 001.5 2.41h42.2a22.53 22.53 0 0122.5 22.5 3 3 0 01-2.99 2.96zM83.92 448.37c-7.61 0-8-24.4-8-29.29a71.65 71.65 0 016-28 2.24 2.24 0 012-1.29 2.26 2.26 0 012 1.29 71.74 71.74 0 016 28c0 4.92-.38 29.29-8 29.29zm0-50a67.74 67.74 0 00-3.5 20.75c0 13.81 2.11 22.13 3.5 24.38 1.39-2.25 3.5-10.57 3.5-24.38a67.74 67.74 0 00-3.5-20.79z"/><path class="cls-1" d="M83.92 418.64a2.25 2.25 0 01-2.25-2.25v-2.89a2.25 2.25 0 014.5 0v2.89a2.24 2.24 0 01-2.25 2.25zM83.92 431.27a2.25 2.25 0 01-2.25-2.27v-2.9a2.25 2.25 0 014.5 0v2.9a2.25 2.25 0 01-2.25 2.27zM80.53 449.6c-5.71 0-14.53-13-17.32-17.39A59.35 59.35 0 0154.87 410a2.23 2.23 0 011-2.17 2.28 2.28 0 012.41 0A59.48 59.48 0 0175 424.68c3.09 4.84 12.78 20.92 7.32 24.41a3.22 3.22 0 01-1.79.51zM60.6 415.16a54.57 54.57 0 006.4 14.62c5.44 8.51 10.18 13.31 12.43 14.82-.44-2.67-2.8-9-8.24-17.49a55 55 0 00-10.59-11.95z"/><path class="cls-1" d="M67.9 428.83a2.23 2.23 0 01-1.89-1l-1.29-2a2.25 2.25 0 113.79-2.42l1.29 2a2.26 2.26 0 01-1.9 3.46zM73.5 437.58a2.25 2.25 0 01-1.9-1l-1.28-2a2.25 2.25 0 113.79-2.43l1.29 2a2.26 2.26 0 01-.69 3.11 2.21 2.21 0 01-1.21.32zM87.83 449.6a3.22 3.22 0 01-1.77-.51c-5.45-3.49 4.23-19.57 7.32-24.41a59.48 59.48 0 0116.68-16.9 2.28 2.28 0 012.41 0 2.23 2.23 0 011 2.17 59.35 59.35 0 01-8.34 22.24c-2.77 4.38-11.59 17.41-17.3 17.41zm1.07-3.82zm18.86-30.62a54.75 54.75 0 00-10.59 11.95c-5.44 8.51-7.8 14.82-8.24 17.49 2.25-1.52 7-6.31 12.43-14.82a54.9 54.9 0 006.4-14.62zm-12.48 10.73z"/><path class="cls-1" d="M100.46 428.83a2.26 2.26 0 01-1.9-3.46l1.29-2a2.25 2.25 0 113.79 2.42l-1.29 2a2.23 2.23 0 01-1.89 1.04zM94.86 437.58a2.21 2.21 0 01-1.21-.35 2.26 2.26 0 01-.69-3.11l1.29-2a2.25 2.25 0 013.75 2.42l-1.28 2a2.25 2.25 0 01-1.86 1.04zM104.72 488.25h-41.6a3 3 0 01-3-2.62A139.47 139.47 0 0159.05 468a136.3 136.3 0 011.59-21.09 3 3 0 013-2.53h40.63a3 3 0 013 2.53A136.29 136.29 0 01108.8 468a137.73 137.73 0 01-1.11 17.64 3 3 0 01-2.97 2.61zm-38.93-6h36.26a133.69 133.69 0 00.75-14.25 131.36 131.36 0 00-1.16-17.62H66.2A131.27 131.27 0 0065.05 468a136.38 136.38 0 00.74 14.25z"/><path class="cls-1" d="M105.1 456.36H62.74a2.25 2.25 0 010-4.5h42.36a2.25 2.25 0 110 4.5zM345.3 488.24a3 3 0 01-3-3 5.1 5.1 0 00-4.69-5.11l-90-7.86a4.47 4.47 0 00-2.48.51 4.41 4.41 0 00-2.32 3.88v8.58a3 3 0 01-6 0v-8.58a10.41 10.41 0 0111.33-10.36l90 7.85a11.07 11.07 0 0110.18 11.09 3 3 0 01-3.02 3z"/><path class="cls-1" d="M269.8 480h-19a2.25 2.25 0 010-4.5h19a2.25 2.25 0 010 4.5zM408.71 488.24a3 3 0 01-3-3c0-6.81-9.72-12.57-21.21-12.57s-21.2 5.76-21.2 12.57a3 3 0 01-6 0c0-10.41 11.95-18.57 27.2-18.57s27.21 8.16 27.21 18.57a3 3 0 01-3 3zM755.63 529.12h-78.69a3 3 0 010-6h78.69a3 3 0 010 6zM519.32 529.12h-63.54a3 3 0 010-6h63.54a3 3 0 010 6zM560.05 182.69H560c-10.91-.21-14.44-6.37-14.44-9.32 0-1.38.54-2.07 4.07-6.6s9.14-11.72 10.61-15.69c.86-2.32.37-6.08-.21-10.44-.81-6.16-1.81-13.84.09-22.66 3.5-16.14 20.87-25.89 21.61-26.3a3 3 0 112.9 5.25c-.27.16-15.74 8.92-18.64 22.32-1.69 7.8-.8 14.61 0 20.61.68 5.15 1.26 9.59-.11 13.3-1.79 4.85-7.41 12.05-11.51 17.3-.89 1.14-1.86 2.39-2.47 3.22.72 1 2.8 2.91 8.22 3a3 3 0 01-.05 6z"/><path class="cls-1" d="M567.91 194.07c-4.46 0-8.39-1-10.49-2.69a4.59 4.59 0 01-1.83-4.69 20.66 20.66 0 000-6.53 3 3 0 015.93-.95 28.46 28.46 0 01.12 7.8c2.23 1.12 9.8 2 16.38-1.1a3 3 0 112.57 5.42 30.17 30.17 0 01-12.68 2.74z"/><path class="cls-1" d="M565.8 207.37a3 3 0 01-.74-5.91c12.86-3.27 11.36-11.91 11.29-12.28a3 3 0 015.89-1.13c1 5-1.08 15.51-15.7 19.23a3.18 3.18 0 01-.74.09z"/><path class="cls-1" d="M585.49 228.27a13.89 13.89 0 01-2.35-.19 9.15 9.15 0 01-6.32-3.7c-2.56-3.74-4.7-9.47-5.68-12.36-7.32-1.49-8.23-5-8.33-6.13a3 3 0 015.85-1.17c.27.26 1.45 1.17 5.16 1.68a3 3 0 012.47 2.09c0 .08 2.53 8.19 5.48 12.5a3.47 3.47 0 002.33 1.17c1.52.25 7.26.51 16.63-6.61C608 210 617.57 201.25 621.5 191a3 3 0 015.6 2.16c-4.43 11.52-14.81 21.11-22.74 27.13-6.82 5.22-13.42 7.98-18.87 7.98zm-16.71-22.93zm0 0zM629.22 142.12a3 3 0 01-1.32-.31 277.89 277.89 0 01-27.82-15.94c-14.22-9.41-18.38-31.77-18.55-32.72a3 3 0 015.91-1.06c0 .2 3.89 20.79 15.95 28.78a276.77 276.77 0 0027.15 15.55 3 3 0 01-1.32 5.7z"/><path class="cls-1" d="M629.22 163.12a2.69 2.69 0 01-.79-.11c-18.16-5-21.12-30.91-21.24-32a3 3 0 116-.64c.05.36 2.7 23 16.86 26.87a3 3 0 01-.79 5.89zM689.29 158.81a3 3 0 01-3-2.57 81.12 81.12 0 01-.56-12.14c0-12 .09-25.54-15.45-43.92-21.16-25-59.5-19.9-80.47-14.62l-.91.22a20.77 20.77 0 01-8.49-.09c-3.64-.57-5.14-.65-6.59.8a.93.93 0 00-.28.78c0 2.36 3.48 6.63 5.79 8.77a3 3 0 11-4.08 4.4c-1.27-1.18-7.6-7.34-7.71-13.06a6.9 6.9 0 012-5.13c3.75-3.75 8.19-3 11.77-2.49a15.66 15.66 0 006.15.19l.86-.21c22.33-5.62 63.26-10.95 86.51 16.56 17 20.08 16.92 35.46 16.87 47.82a77.4 77.4 0 00.49 11.25 3 3 0 01-2.53 3.4 2.18 2.18 0 01-.37.04z"/><path class="cls-1" d="M655.55 198.56a3 3 0 01-1.31-5.7c20.58-10 22.11-36 22.12-36.26a3 3 0 016 .28c-.06 1.22-1.67 29.86-25.51 41.38a3 3 0 01-1.3.3z"/><path class="cls-1" d="M653.5 198.56a2.88 2.88 0 01-1.18-.25c-10-4.27-15.91-10.21-17.63-17.65l-.05-.21a3 3 0 015.81-1.52l.09.38c1.26 5.47 6 10 14.14 13.49a3 3 0 01-1.18 5.76zM694.17 303.91h-.26a3 3 0 01-2.74-3.25c.56-6.51 2.77-16.42 5.33-27.9 4.46-20 10-44.91 9.55-64-.7-28.5-12.86-39.58-13-39.69a3 3 0 013.94-4.53c.58.51 14.26 12.68 15 44.08.49 19.81-5.16 45.11-9.69 65.44-2.51 11.26-4.68 21-5.21 27.11a3 3 0 01-2.92 2.74zM682.21 272.79a3 3 0 01-3-2.77c-.21-2.66-.67-6.44-1.3-11.67-1.1-9.05-2.76-22.72-4.36-41.48-2.25-26.25 6.31-37.69 9.13-41.44.15-.21.28-.37.37-.51a3 3 0 015.68 1.83 5.56 5.56 0 01-1.25 2.27c-2.47 3.31-10 13.37-8 37.34 1.59 18.66 3.24 32.26 4.34 41.26.64 5.31 1.1 9.15 1.32 11.94a3 3 0 01-2.76 3.22zm.65-97.25z"/><path class="cls-1" d="M684.77 177.82a9.5 9.5 0 01-5.89-2.13 3 3 0 014-4.52c.75.6 2.89 1.71 5.63-1.69 1.17-1.44 2.5-3.58 2.21-5.55a4.31 4.31 0 00-1.56-2.64 3 3 0 113.37-5 10.36 10.36 0 014.13 6.73c.49 3.31-.68 6.75-3.48 10.21-2.24 2.76-4.8 4.29-7.6 4.53z"/><path class="cls-1" d="M679.36 172.49a3 3 0 01-.83-5.88c.33-.1 7.77-2.39 7.77-9.87a3 3 0 016 0c0 9.66-7.93 14.45-12.12 15.64a2.94 2.94 0 01-.82.11z"/><path d="M303.5 51.67S285.16 57.89 285.18 74c0 19.27 7.24 16.5 9.12 25.75s3.14 21.54 3.14 21.54h26.9s-1.95-15 3.45-24.27 13.3-24.12 1.8-39.08c-9.76-12.75-26.09-6.27-26.09-6.27z" fill="#ffff3b"/><path class="cls-1" d="M324.34 121.24a2.25 2.25 0 01-2.25-2.25c0-10.32 2.24-20.09 6.13-26.82a2 2 0 01.29-.42c.72-.84 2-2.76 2.44-3.43a24.06 24.06 0 003.24-12.1 23.33 23.33 0 10-46.65 0 24 24 0 005.8 15.67 2.27 2.27 0 01.29.4c3.85 6.72 6.06 16.45 6.06 26.7a2.25 2.25 0 11-4.5 0c0-9.39-1.95-18.22-5.36-24.27a28.5 28.5 0 01-6.83-18.5 27.83 27.83 0 1155.65 0 28.57 28.57 0 01-3.91 14.46c-.22.34-1.67 2.56-2.71 3.82-3.48 6.06-5.48 15-5.48 24.49a2.24 2.24 0 01-2.21 2.25z"/><path class="cls-1" d="M325.28 123.73h-30.14a2.25 2.25 0 010-4.5h30.14a2.25 2.25 0 010 4.5z"/><path class="cls-1" d="M303.5 123.73a2.24 2.24 0 01-2.25-2.25V80.4a2.25 2.25 0 114.5 0v41.08a2.25 2.25 0 01-2.25 2.25zM317.58 123.73a2.24 2.24 0 01-2.25-2.25V80.4a2.25 2.25 0 014.5 0v41.08a2.25 2.25 0 01-2.25 2.25zM310.53 86.89a2.25 2.25 0 01-.44 0l-.42-.12-.39-.21a2.37 2.37 0 01-.34-.29 1.27 1.27 0 01-.27-.34 1.62 1.62 0 01-.21-.39 2.07 2.07 0 01-.14-.42 2.12 2.12 0 010-.44 2 2 0 010-.43 1.88 1.88 0 01.14-.42 1.83 1.83 0 01.21-.39 1.73 1.73 0 01.27-.35 3.17 3.17 0 01.34-.28 2.05 2.05 0 01.39-.2 2.51 2.51 0 01.42-.13 2.22 2.22 0 01.89 0 2.51 2.51 0 01.42.13 2.05 2.05 0 01.39.2 3.17 3.17 0 01.34.28 1.73 1.73 0 01.27.35 1.83 1.83 0 01.21.39 1.88 1.88 0 01.14.42 2 2 0 010 .43 2.12 2.12 0 010 .44 2.07 2.07 0 01-.14.42 1.62 1.62 0 01-.21.39 1.27 1.27 0 01-.27.34 2.37 2.37 0 01-.34.29l-.39.21-.42.12a2.28 2.28 0 01-.45 0z"/><path class="cls-1" d="M317.85 131.17h-15.28a9.7 9.7 0 01-9.68-9.69 2.25 2.25 0 012.25-2.25h30.14a2.25 2.25 0 012.25 2.25 9.7 9.7 0 01-9.68 9.69zm-20-7.44a5.19 5.19 0 004.67 2.94h15.28a5.16 5.16 0 004.66-2.94zM320 137.36h-20a2.25 2.25 0 010-4.5h20a2.25 2.25 0 010 4.5zM320 143.9h-20a2.25 2.25 0 010-4.5h20a2.25 2.25 0 010 4.5zM313.48 150.43h-6.61a2.25 2.25 0 010-4.5h6.61a2.25 2.25 0 010 4.5zM258.5 124.94a1.5 1.5 0 010-3h4.63a1.5 1.5 0 010 3zM237.28 125a1.5 1.5 0 010-3h15.5a1.5 1.5 0 010 3h-15.5zM229.46 125a1.5 1.5 0 010-3h2.3a1.5 1.5 0 110 3zM257.36 97a2 2 0 01-.42 0l-12.48-3.56a1.5 1.5 0 01.82-2.89L257.77 94a1.5 1.5 0 01-.41 2.94zM239.77 92a1.48 1.48 0 01-.41 0l-2.49-.71a1.5 1.5 0 01.83-2.89l2.48.71a1.5 1.5 0 01-.41 2.94zM230.37 89.28a1.51 1.51 0 01-.42 0l-5-1.44a1.5 1.5 0 01.82-2.89l5.05 1.44a1.5 1.5 0 01-.41 2.94zM262.69 70.52a1.52 1.52 0 01-.81-.24l-1.08-.7a1.5 1.5 0 111.63-2.52l1.08.7a1.5 1.5 0 01-.82 2.76zM256 66.16a1.56 1.56 0 01-.82-.24l-5.43-3.51a1.5 1.5 0 011.63-2.52l5.43 3.51a1.5 1.5 0 01-.81 2.76zM246.41 60a1.5 1.5 0 01-.81-.24l-1.83-1.18A1.5 1.5 0 01245.4 56l1.83 1.18a1.5 1.5 0 01-.82 2.76zM240.66 56.26a1.5 1.5 0 01-.81-.24l-9.54-6.18a1.49 1.49 0 111.62-2.51l9.55 6.17a1.5 1.5 0 01-.82 2.76zM275.93 48.39a1.51 1.51 0 01-1.19-.59l-4.28-5.62a1.5 1.5 0 112.38-1.82l4.28 5.64a1.49 1.49 0 01-.28 2.1 1.47 1.47 0 01-.91.29zM266.59 36.14a1.51 1.51 0 01-1.2-.59l-8.63-11.32a1.5 1.5 0 012.38-1.82l8.64 11.32a1.5 1.5 0 01-1.19 2.41zM254 19.67a1.54 1.54 0 01-1.2-.59l-1.8-2.41a1.5 1.5 0 01.28-2.1 1.52 1.52 0 012.11.28l1.83 2.41a1.5 1.5 0 01-.28 2.1 1.47 1.47 0 01-.94.31zM297 35a1.5 1.5 0 01-1.46-1.15l-.23-1a1.5 1.5 0 112.91-.69l.24 1a1.5 1.5 0 01-1.1 1.84 2.09 2.09 0 01-.36 0zM295.59 29a1.5 1.5 0 01-1.46-1.16L291.56 17a1.5 1.5 0 012.92-.7l2.57 10.8a1.51 1.51 0 01-1.12 1.9 2 2 0 01-.34 0zM291.5 11.79a1.51 1.51 0 01-1.5-1.16l-1.21-5.11a1.5 1.5 0 112.91-.7l1.3 5.12a1.51 1.51 0 01-1.11 1.81 2.21 2.21 0 01-.39.04zM323.55 29.8a2.09 2.09 0 01-.35 0 1.51 1.51 0 01-1.12-1.8l.38-1.62a1.5 1.5 0 012.92.68l-.38 1.57a1.49 1.49 0 01-1.45 1.17zM325.25 22.48a1.37 1.37 0 01-.34 0 1.51 1.51 0 01-1.12-1.8l2.83-12.18a1.5 1.5 0 012.93.68l-2.84 12.14a1.5 1.5 0 01-1.46 1.16zM329.29 5.19a1.32 1.32 0 01-.34 0 1.49 1.49 0 01-1.12-1.8l.51-2.19a1.48 1.48 0 011.8-1.2 1.5 1.5 0 011.12 1.8l-.51 2.2a1.5 1.5 0 01-1.46 1.19zM344.24 47.24a1.49 1.49 0 01-1.19-2.4l6.6-8.73a1.5 1.5 0 012.35 1.81l-6.6 8.73a1.51 1.51 0 01-1.16.59zM354.2 34.09a1.47 1.47 0 01-.91-.31 1.5 1.5 0 01-.29-2.1l5.51-7.28a1.5 1.5 0 012.39 1.81l-5.51 7.28a1.49 1.49 0 01-1.19.6zM358 69.52a.89.89 0 01-.28 0 1.23 1.23 0 01-.29-.07 1.5 1.5 0 01-.25-.15.84.84 0 01-.23-.18A1.49 1.49 0 01357 67a1.55 1.55 0 012.12 0 1.5 1.5 0 01-1.12 2.52zM363.2 66.16a1.5 1.5 0 01-.82-2.76l7.43-4.85a1.5 1.5 0 111.64 2.51L364 65.92a1.56 1.56 0 01-.8.24zM374.77 58.6a1.5 1.5 0 01-.82-2.75l12.35-8.06a1.5 1.5 0 011.64 2.51l-12.35 8.06a1.51 1.51 0 01-.82.24zM391.43 47.73a1.51 1.51 0 01-1.26-.68 1.49 1.49 0 01.43-2.05l3.19-2.08a1.5 1.5 0 111.64 2.51l-3.19 2.08a1.42 1.42 0 01-.81.22zM360.83 97.18a1.51 1.51 0 01-.42-3l1.76-.5a1.5 1.5 0 01.83 2.88l-1.75.51a1.52 1.52 0 01-.42.11zM368.1 95.07a1.5 1.5 0 01-.41-2.94l11.59-3.35a1.5 1.5 0 11.83 2.88L368.52 95a1.52 1.52 0 01-.42.07zM385.67 90a1.5 1.5 0 01-.42-2.94l3.4-1a1.5 1.5 0 01.83 2.88l-3.39 1a1.52 1.52 0 01-.42.06zM356.29 124.75a1.5 1.5 0 010-3h6.58a1.5 1.5 0 010 3h-6.58zM369.17 124.72a1.5 1.5 0 010-3h12.88a1.5 1.5 0 110 3h-12.87z"/></g></g></svg>