<svg xmlns="http://www.w3.org/2000/svg" viewBox="0 0 768.19 520.46"><defs><style>.cls-1{fill:#fff;}.cls-2{fill:#fffc19;}.cls-3{fill:#d5d5d2;}.cls-4{fill:#32b0ff;}.cls-5{fill:#1e181c;}.cls-6{fill:#231f20;}.cls-7{fill:none;}</style></defs><g id="レイヤー_2" data-name="レイヤー 2"><g id="character"><rect class="cls-1" y="2.2" width="507.22" height="499.46"/><path class="cls-1" d="M260.64,254.54c5.23-3.91,11.28-6.88,17.62-7.56a34.44,34.44,0,0,0-3.84-4.49A72.86,72.86,0,0,0,260.64,254.54Z"/><path class="cls-1" d="M316.9,410.17q-.4-4.21-.82-8.45c-1,.82-2.06,1.67-3.07,2.52Q315,407.19,316.9,410.17Z"/><path class="cls-2" d="M270.17,321.72c7.94-7.33,16-15,25-20.89-.75-2.59-1.5-5.34-2.33-8.13-8.6,5.84-16.36,13.27-24,20.3C269.26,315.91,269.71,318.81,270.17,321.72Z"/><path class="cls-3" d="M318.49,414.62h0v0Z"/><path class="cls-1" d="M267.37,299.73c.14,3,.39,6,.83,9.08,0,.1,0,.2.05.3,7.49-6.91,15.14-14.07,23.58-19.71-.84-2.65-1.76-5.29-2.83-7.85A95.18,95.18,0,0,0,267.37,299.73Z"/><path class="cls-1" d="M276.44,238.31c4,4.28,7.1,7.58,7.74,13.49.05.53.08,1.06.12,1.59a2.27,2.27,0,0,1,.82.79c.48.77,1,1.53,1.46,2.3-3-9.67-6.78-19.2-10.43-28.59q-1,2.79-2,5.57a2.91,2.91,0,0,1,.2.35Q275.38,236.06,276.44,238.31Z"/><path class="cls-2" d="M274,279.37c-2,1.55-4.11,3.75-6.37,5.08-.25,3.55-.38,7.08-.37,10.63a95.25,95.25,0,0,1,20.36-16.56,45.07,45.07,0,0,0-3.41-5.86A65.14,65.14,0,0,0,274,279.37Z"/><path class="cls-1" d="M282.15,270c-.32-.37-.66-.73-1-1.08a14.24,14.24,0,0,0-12.22,1.57c-.34,3.31-.68,6.54-1,9.72,1.55-1.23,3-2.67,4.5-3.78A68,68,0,0,1,282.15,270Z"/><path class="cls-2" d="M261.73,263.85c4.67-5.09,11.74-7.7,18.53-8.25v-.2a27.53,27.53,0,0,0-.54-5.16c-8.41.43-16.43,5.61-22.42,11.46l2.94,1.51C260.57,263.38,261.11,263.6,261.73,263.85Z"/><path class="cls-3" d="M130.73,28.16h0Z"/><path class="cls-1" d="M226.28,246.55a2.84,2.84,0,0,1,.23.25c5.67,7.78,12.49,14.83,19.19,21.77A82.63,82.63,0,0,1,272,238.83c-.44-.94-.89-1.88-1.33-2.83a2.35,2.35,0,0,1-.23-.86c-20.09-3.66-46.15-17.53-52.36-38.57a18,18,0,0,0-2.8,3.85c1.93,13.22,4,27,8.58,39.59C224.63,242.19,225.46,244.37,226.28,246.55Z"/><path class="cls-1" d="M271.12,264.54a16.87,16.87,0,0,1,9.16-.52c.06-1.68.08-3.37.06-5.06-5.52.46-11.24,2.45-15.36,6.24a8.74,8.74,0,0,1,2.07,1.25C267.94,265.52,269.94,264.94,271.12,264.54Z"/><path class="cls-4" d="M303.24,517a340.31,340.31,0,0,0,15-43.52,39.65,39.65,0,0,1-9.83,2.63c-6,.86-12.21.43-18.25.49-4.39,0-9.2,1.17-13.57.46-2.21,2.31-5.14,2.3-9.78,2.7a28.44,28.44,0,0,1-3.09,3.51c-3,2.87-7.53,1.22-11.52,1-9.79-.45-19.6-.45-29.39-.5-19.61-.11-39.28.17-58.87-.78-5-.25-9.91-.77-14.82-1.5q-1.41,16.35-2.81,32.69c0,.16,0,.31-.08.45,16,.58,150.73,5.46,157.52,5.06h0A2.53,2.53,0,0,1,303.24,517Z"/><path class="cls-4" d="M344.7,466.62a2.36,2.36,0,0,1,.79-2.15,36.17,36.17,0,0,1-10.11-.54,16,16,0,0,1-7.4-4.2,11.62,11.62,0,0,1-4.52,10.65,361.24,361.24,0,0,1-16.65,49h0c10.57-1.64,38-8.11,46.11-11.12a2.52,2.52,0,0,1-.22-.5C348.34,494.58,346.69,480.27,344.7,466.62Z"/><path class="cls-4" d="M305.12,249.56a13.64,13.64,0,0,1-1.72,4.57c3.11,2.75,7.32,5.69,9.15,8.93,1.3,2.28,1.3,6.17,1.75,8.66,3.44,19,6,38.28,7.64,57.57a474.41,474.41,0,0,1,1.24,65c-.33,6.16-.62,12.52-1.86,18.58a2.36,2.36,0,0,1-.09.78c4.81-2.16,9-6.18,14.32-6.54.8-.06,1.63-.09,2.47-.11a2.27,2.27,0,0,1-.19-.86c-1.58-35.82-6.5-71.62-3.2-107.5.26-2.84,4.45-2.78,4.19.09-3.31,35.88,1.61,71.67,3.19,107.5a2.53,2.53,0,0,1-.1.81,37.16,37.16,0,0,1,11.59,2.2c3.52,1.39,5.74,3.27,7,6.38,13,1.88,16.74,14.62,15.47,26.44-.81,7.51-2.93,16.75-8.65,22.32,5.86-3.48,11-9.64,13.78-14.41,7.81-13.48,5.31-30.2-.38-44.06-6.37-15.53-10.86-31.41-15.17-47.65-5.78-21.77-12.43-43.65-16.28-65.85-1.57-9.07-1.69-21.74-7.5-29.37-3.86-5.06-11.93-8-17.36-11-8.64-4.77-17.33-9.44-26-14.09l.24.33C300.79,241.16,305.52,245.79,305.12,249.56Z"/><path class="cls-1" d="M363.11,455c-.73,2.7-.58,5-2.82,7a9.22,9.22,0,0,1-3.34,1.89,10.72,10.72,0,0,0,5.11-1c6.62-3.38,8.77-13.57,9.63-20.22,1.17-9-.37-20-10-22.41.13,2.82-.62,5.87.44,8.57.9,2.31,2.73,3.82,3.11,6.47.42,3-1.25,5.7-1,8.65.16,2.05,1.24,3.5.91,5.66C364.85,451.6,363.61,453.19,363.11,455Z"/><path class="cls-1" d="M298.21,311.64c-.68-2.49-1.38-5-2.09-7.47-9.09,6.11-17.27,14-25.33,21.41q.65,3.93,1.33,7.85c8.27-7.63,16.68-15.65,26.07-21.78Z"/><path class="cls-2" d="M315.68,397.91q-.48-4.61-1-9.21a63,63,0,0,0-7.84,6.18l4.37,6.61C312.67,400.26,314.16,399.06,315.68,397.91Z"/><path class="cls-1" d="M323.77,461c-1.84.15-3.4-2.35-1.68-3.76a12.16,12.16,0,0,0,1.54-1.51l.12-.13c1.92-2.3,3-5.3,1.25-7.51a15.65,15.65,0,0,1-2.39,1.3c-2.57,1.13-4.47-2.85-2-3.93,3.06-1.34,5.83-3.29,5.09-7a3.22,3.22,0,0,0-2.64-3,16,16,0,0,0-1.79-.05h-.09a46.53,46.53,0,0,1-4.66,1.57c-2.68.74-3.61-3.64-1-4.37,1.06-.29,2.44-.66,3.83-1.15a1.86,1.86,0,0,1,.92-.41c.09,0,.18,0,.27,0,3.72-1.46,7-3.76,4.07-7.54-3.15-4.11-11.48-1.4-15.84-1-4.13.38-13,1.2-13.49-5-.22-2.87,4-2.74,4.19.09.12,1.59,10.18.34,15.75-.31-3.47-5-7.47-5.47-13.68-5.52-5.7,0-11.6-.78-15.91,3.78-3.82,4-6.47,9.7-8.79,14.92a.05.05,0,0,1,0,0c7,12.75,7.19,28,2.48,41.51-.08.25-.17.46-.26.69,2.63.07,5.38-.56,8-.67,4.23-.18,8.48,0,12.72-.08C307.44,472,323.52,470.61,323.77,461Z"/><path class="cls-1" d="M352.38,460.25c2.65-.18,5.08-1,6.23-3.36.67-1.38.74-3.79,1.14-5.33,1-3.82.27-6.24.31-10s.91-6-1-9.54c-.59-1.1-1.51-1.93-1.88-3.17-.94-3.08.83-6.13,0-9.14-1.65-6-6.83-7.33-12.57-7.82-4.77-.41-9.25-.76-13.56,1.36-2.76,1.36-5.22,3.06-7.94,4.35a9.41,9.41,0,0,1,4.77,3.06,60.61,60.61,0,0,0,17.28-5c2.56-1.18,4.46,2.81,2,3.93a64.67,64.67,0,0,1-17.19,5.25,6.43,6.43,0,0,1-1.14,5.42,36.12,36.12,0,0,0,21.31-.76c2.63-.87,3.56,3.52,1,4.36a40.06,40.06,0,0,1-22.44,1,9.45,9.45,0,0,1,.81,2,10.44,10.44,0,0,1,.34,3.36c7.37,3,15.64,3.87,23.26,1.19,2.62-.92,3.54,3.48,1,4.36-8.31,2.92-17.6,2.05-25.64-1.3-.15.24-.31.47-.47.69a8.7,8.7,0,0,1,1.57,3.07c6.08,4.68,14.41,4.66,21.59,3,2.71-.62,3.64,3.76,1,4.36-7.38,1.68-16,1.83-22.67-2.09v0A2.15,2.15,0,0,1,330,455c-.12,3.69,7.83,4.9,10.72,5a82.07,82.07,0,0,0,10-.4A1.62,1.62,0,0,1,352.38,460.25Z"/><path class="cls-4" d="M293.13,264.08c13.92,40.61,21.3,84.17,26,127A483.31,483.31,0,0,0,318,332c-1.53-19.61-4.15-39.16-7.62-58.51-.4-2.21-.95-4.45-1.24-6.67-.1-.73-.61-1.86-.48-1.83-1.89-2.51-4.85-4.8-7.43-7-.26.47-.5.92-.7,1.34-1.25,2.63-4.74.12-3.57-2.35.29-.62.83-1.5,1.43-2.49a2.45,2.45,0,0,1,1.17-2c1-1.83,1.94-3.69,1.8-4.8.27,2.1-4.27-4.35-4.7-5-1.57-2.19-3.18-4.36-4.8-6.51-.81-1.08-1.64-2.13-2.45-3.2a1.85,1.85,0,0,1-.55-.72Q284,226,279.1,219.85c-.26.68-.51,1.37-.76,2.05C283.65,235.69,289.42,249.73,293.13,264.08Z"/><path class="cls-1" d="M273.67,474.5c.14-.16.27-.32.4-.49a2.49,2.49,0,0,1,.65-1.05c1.64-3.09,2.18-7.78,2.74-10.54,1.94-9.7.16-17.86-3-26.94a11.9,11.9,0,0,0-.7-1.55l-.08,0a8.51,8.51,0,0,1-2.29.14c3.26,12.63,4.39,28.76-1.59,40.82l.83-.09a16,16,0,0,0,3-.32Z"/><path class="cls-4" d="M264.35,475.69c8-12.3,6-30.63,2-43.76-15.77.32-32,.1-47.5-2.62-5.26-.92-9.88-2.72-14.94-4.36-6.84-2.22-13.86-3.24-20.93-4.43-3.24-.55-6.93-.85-9.46-3.11-1.36-1.21-1.71-3.22-3.23-4.37-2.13-1.62-7.7-2.61-10.35-1.42s-4.47-2.83-2-3.93c3.24-1.45,7.27-1.15,10.62-.19a9,9,0,0,1,1.73.68c1.75-3.39-.07-8.07-.33-11.76a68.71,68.71,0,0,1,0-8c.4-8.27,1.12-16.53,1.83-24.77q1.74-20.3,3.79-40.55c.29-2.83,4.47-2.78,4.19.09q-2.2,21.82-4.06,43.69c-.7,8.26-1.52,16.56-1.7,24.85-.13,6.26,3,13.41-.34,19.09l-.07.09a16,16,0,0,0,4.39,4c4.75,2.51,12.36,2.14,17.65,3.24,6.45,1.34,12.4,4,18.72,5.65,17,4.5,36.07,4,53.53,3.61a2.17,2.17,0,0,1,2,1.69c0,.12.08.24.11.36h2.64c3.55-8.08,8.22-19.09,17.31-21.5a43.3,43.3,0,0,1,12.68-.93c-18.37-21.1-40.12-38.65-59.76-58.49a409.3,409.3,0,0,1-51-63.79,2.42,2.42,0,0,1,.38-2.72l14-17.91L196,259.81a2.29,2.29,0,0,1-1.49-2.2c.39-13.67.35-28.63,2.94-42.39q-15,8.7-30,17.52c-8.44,5-16.87,10-25.24,15.13-5,3.06-12.1,6-15.66,10.87-7.77,10.56-8.87,28.15-10.6,40.62-2.5,18.14-3.92,36.45-5.06,54.73q-1.47,23.6-2.38,47.25c-.51,12.68-.91,25.49.33,38.15,1,10.53,2.82,23.17,12.49,29.29,7.27,4.6,16,7,25.08,8.3a2.16,2.16,0,0,1,2.42.32c8.13,1,16.39,1.22,23.91,1.42,18.17.51,36.35.37,54.53.49,8,.06,15.91.11,23.86.43a74.32,74.32,0,0,1,8,.51c.74.11,1,.3,1,.45a6.5,6.5,0,0,1,.47-.52,25.8,25.8,0,0,0,2.59-2.95A2.41,2.41,0,0,1,264.35,475.69Z"/><path class="cls-1" d="M319.47,122.64c-.23,0-.46-.07-.72-.14-3.56-1-5.89-1.55-10.16-.58-2.48.57-5.88,1.64-6.46.78-.4-.59,0-2.4,2.47-3.78a14.5,14.5,0,0,1,7-1.78,14.16,14.16,0,0,1,8,2.32c.44-9.34.91-18.69-.46-27.85,0,.21-.81-2.47-1.35-3.57a23.53,23.53,0,0,0-7.17-8.49c-13.32-9.84-32.38-5.72-47-1.15a70.07,70.07,0,0,1-4.56,17.7c-2,4.91-5.31,8.7-7.65,13.3-2.87,5.65-.39,11.07,2,16.37,2.9,6.46,6.13,12.6,1.89,19.22-1.93,3-5.88,6.75-9.63,4.66a1.71,1.71,0,0,1-1.27-1.15c-2.11-5-6.56-14.79-13.22-12.22-9.59,3.7,2.75,24.72,8.64,28.2,2.31,1.37.25,5.29-2.19,3.85-.37-.22-.72-.46-1.07-.7-5.28,1.57-6.15,9.7-7.86,14a62.36,62.36,0,0,1-6.87,12.73c5.3,19.77,29.94,32.55,48.83,36.27q4.48-12.26,9-24.49a39.64,39.64,0,0,1-5.25-2.86c-10-6.46-20.54-13.85-25.49-25.05-1.11-2.5,2.48-4.86,3.65-2.19,7.56,17.08,46.72,44.4,56.91,16.54,5.65-15.42,11.88-33.21,10.21-49.77A141.61,141.61,0,0,1,319.47,122.64Zm-50.91.72a.79.79,0,0,1-.38-1.4c2.37-1.9,5.28-4,10.35-4a14.5,14.5,0,0,1,7,1.78c2.44,1.39,2.87,3.2,2.48,3.78-.59.87-4-.21-6.47-.77-4.27-1-6.6-.38-10.16.57A6.19,6.19,0,0,1,268.56,123.36Zm6,10a5.18,5.18,0,1,1,5.15,5.68A5.43,5.43,0,0,1,274.54,133.39Zm32.7,39.74c-7.79,4-17.44,3.36-25.45.14-1.86-.74-1-4,.9-3.23,7.19,2.88,16,3.79,23,.14C307.6,169.2,309,172.2,307.24,173.13Zm-11.32-10.46c-2.72.47-3.66-3.9-1-4.36,2.83-.49,6.1-.52,8.87-1.3,5.56-1.58,2.51-5.42.9-9.19-2.05-4.77-4.51-9.35-6.59-14.1-1.1-2.51,2.49-4.87,3.66-2.2,3.13,7.13,8.74,14.93,9.68,22.76C312.42,162.67,301.35,161.73,295.92,162.67Zm14.55-24.37a5.71,5.71,0,1,1,5.15-5.68A5.44,5.44,0,0,1,310.47,138.3Z"/><path class="cls-4" d="M198.72,256.15,210.33,261a2.36,2.36,0,0,1,.85,3.78l-14.82,19a399.16,399.16,0,0,0,51.23,63.33C268,367.41,290.45,385.53,309,407.78c.52.11,1,.23,1.52.38q-13.68-21-27.41-41.9-6.34-9.72-12.32-19.61a2,2,0,0,1-.79-1.3,564,564,0,0,1-38.15-74.91C227,258.93,221.33,247.38,218,235.36a257.65,257.65,0,0,1-6.06-29.07,1.89,1.89,0,0,1-2.05-2.18,15.22,15.22,0,0,1,1.35-4.93.08.08,0,0,1,0-.05,18,18,0,0,1,1.1-2.08c-8.32,2.68-10.14,15.81-11,23.24C199.94,232.18,199.1,244.17,198.72,256.15Z"/><path class="cls-1" d="M290.4,270.25q-3-4.49-5.87-9c0,1.6-.07,3.2-.15,4.79,7.3,7.76,10.67,19.79,13.64,29.62.52,1.72,1,3.45,1.52,5.18q-3.78-15.18-8.59-29.95A2.51,2.51,0,0,1,290.4,270.25Z"/><path class="cls-1" d="M304.54,335.7c-.68-2.67-1.37-5.33-2.06-8-9,6.24-17.17,14.17-25.22,21.54,1.33,2.14,2.66,4.28,4,6.42C288.61,348.66,296.13,341.34,304.54,335.7Z"/><path class="cls-2" d="M301.6,324.31c-.82-3.1-1.63-6.21-2.47-9.31-9.49,6.3-18,14.56-26.35,22.25q.59,3.31,1.18,6.62c.51.85,1,1.7,1.55,2.55C283.82,338.79,292.24,330.66,301.6,324.31Z"/><path class="cls-1" d="M267.93,333.79c-1.46-8.43-2.82-16.88-4-25.36-1.82-13.09-.57-24.89.8-37.94l-11.7-6a82.21,82.21,0,0,0-5,8.94,2,2,0,0,1-3.3.39c-4.45-4.64-9-9.29-13.31-14.15a585.59,585.59,0,0,0,26.9,57.07Q262.95,325.36,267.93,333.79Z"/><path class="cls-5" d="M233.06,164.42c-3.52-4.13-5.46-9.58-7.73-14.53-2.47-5.41-4-11.61,1.24-16.07,9.6-8.11,17.69,3.85,21.23,11.91,2.9,1.05,5.6-6.74,5.46-8.63-.23-3.36-2.52-6.9-3.88-9.92-2.18-4.87-4.34-10.15-3.23-15.57.71-3.51,2.76-5.86,4.69-8.79A49.92,49.92,0,0,0,256.45,91a64.13,64.13,0,0,0,3.18-14.41,2.34,2.34,0,0,1,1.58-2.14C278.34,69,302,64.28,316.36,78.72a22.89,22.89,0,0,1,6.87,13.72c9.47-9.68,14.11-23.74,14-37.26a74.79,74.79,0,0,1-20.38-1c-15.64-2.64-29.25-11.13-45.16-12.56-22.64-2-58.15,4.87-56.54,34.12.13,2.33-2.6,2.69-3.72,1.23-17.12,14.22-13.72,39.73-6.27,58.17,5.5,13.61,16.91,28.67,19.45,44.12,1-2.53,1.95-5.1,3-7.69A16.65,16.65,0,0,1,233.06,164.42Z"/><path class="cls-1" d="M310.38,358.26l0,0c-.79-3-1.56-6-2.33-8.93-7.14,4.94-13.5,11.36-19.64,17.49q2.28,3.52,4.58,7C298.38,368.3,304.05,362.7,310.38,358.26Z"/><path class="cls-2" d="M312.47,370.66q-.6-4.5-1.24-9c-6,4.3-11.31,9.68-16.44,14.93,1.33,2,2.66,4.05,4,6.07A79.77,79.77,0,0,1,312.47,370.66Z"/><path class="cls-1" d="M314.27,385q-.63-5.34-1.31-10.7a80.6,80.6,0,0,0-12.33,11.16l4.39,6.65A69.93,69.93,0,0,1,314.27,385Z"/><path class="cls-2" d="M307.16,345.9q-.89-3.39-1.75-6.8c-8.05,5.53-15.29,12.63-22.36,19.36,1.17,1.85,2.35,3.69,3.54,5.54C293,357.6,299.65,351,307.16,345.9Z"/><path class="cls-6" d="M356.7,506.44c-4-12.22-5.74-25.45-7.55-38.23,15.37,11.76,34.65-10,39.23-23.88,7-21.13-5.53-41.13-11.4-60.75-7-23.47-12.75-47.33-19-71-3.52-13.29-4.84-26.95-8-40.29-1.86-7.78-4.73-13.4-11.66-17.55-15-9-30.66-17-46.12-25.17q-5.56-7.31-11.34-14.45c.91-2.49,1.83-5,2.74-7.48a26.84,26.84,0,0,0,19.77-1.53c7.12-3.37,9-8.74,11.37-15.81a293,293,0,0,0,8.17-29.22c2.39-10.74,0-20.77.28-31.58.31-10.61.62-21.13.36-31.74a2.05,2.05,0,0,0,1.06-.55c12-11,17.61-28.41,16.73-44.49a2.18,2.18,0,0,0-2.61-2.23c-11.61,1.93-24.47-.58-35.41-4.32-8.15-2.79-15.58-6.48-24.15-8a86,86,0,0,0-23.44-.93C235,39.21,212.06,49,211,71.82c-15.19,11.21-18.63,31.62-14.77,49,3,13.49,9.37,25.81,15.65,38,4.43,8.61,9.71,18.95,9,29-.43.81-.88,1.6-1.36,2.39a2.25,2.25,0,0,0-1.66.55q-.72.65-1.41,1.32c-8.87-.53-15.09,7.84-17.23,15.57-.16.56-.3,1.13-.44,1.69q-15.94,9.21-31.8,18.58c-8.5,5-17,10.06-25.43,15.21-5.24,3.19-11.63,6.15-16.14,10.38-8.76,8.23-10.33,25.14-12.14,36.19-3.21,19.55-4.85,39.35-6.16,59.1-1.13,17-2,34-2.66,51-.58,13.93-1,28,.52,41.91.93,8.4,2.42,18.24,7.76,25.14,6.69,8.64,19,11.37,29.09,13.36,1.09.21,2.17.39,3.26.58q-1.44,16.64-2.87,33.27a2.49,2.49,0,0,0,0,.68c.4,2,3.5,2,4.07-.14,0-.14.06-.29.08-.45q1.41-16.35,2.81-32.69c4.91.73,9.81,1.25,14.82,1.5,19.59.95,39.26.67,58.87.78,9.79,0,19.6,0,29.39.5,4,.18,8.51,1.83,11.52-1a28.44,28.44,0,0,0,3.09-3.51c4.64-.4,7.57-.39,9.78-2.7,4.37.71,9.18-.42,13.57-.46,6-.06,12.24.37,18.25-.49a39.65,39.65,0,0,0,9.83-2.63,340.31,340.31,0,0,1-15,43.52,2.53,2.53,0,0,0,.52,2.73c.89.95,2.37,1.18,3.05-.38h0a361.24,361.24,0,0,0,16.65-49A11.62,11.62,0,0,0,328,459.73a16,16,0,0,0,7.4,4.2,36.17,36.17,0,0,0,10.11.54,2.36,2.36,0,0,0-.79,2.15c2,13.65,3.64,28,8,41.09a2.52,2.52,0,0,0,.22.5c1.2,2.07,4.66.89,3.83-1.61A.75.75,0,0,0,356.7,506.44ZM364.23,444c-.24-2.95,1.43-5.66,1-8.65-.38-2.65-2.21-4.16-3.11-6.47-1.06-2.7-.31-5.75-.44-8.57,9.63,2.41,11.17,13.37,10,22.41-.86,6.65-3,16.84-9.63,20.22a10.72,10.72,0,0,1-5.11,1,9.22,9.22,0,0,0,3.34-1.89c2.24-2.05,2.09-4.32,2.82-7,.5-1.84,1.74-3.43,2-5.34C365.47,447.53,364.39,446.08,364.23,444ZM324.44,252c5.43,3,13.5,6,17.36,11,5.81,7.63,5.93,20.3,7.5,29.37,3.85,22.2,10.5,44.08,16.28,65.85,4.31,16.24,8.8,32.12,15.17,47.65,5.69,13.86,8.19,30.58.38,44.06-2.77,4.77-7.92,10.93-13.78,14.41,5.72-5.57,7.84-14.81,8.65-22.32,1.27-11.82-2.43-24.56-15.47-26.44-1.29-3.11-3.51-5-7-6.38a37.16,37.16,0,0,0-11.59-2.2,2.53,2.53,0,0,0,.1-.81c-1.58-35.83-6.5-71.62-3.19-107.5.26-2.87-3.93-2.93-4.19-.09-3.3,35.88,1.62,71.68,3.2,107.5a2.27,2.27,0,0,0,.19.86c-.84,0-1.67,0-2.47.11-5.35.36-9.51,4.38-14.32,6.54a2.36,2.36,0,0,0,.09-.78c1.24-6.06,1.53-12.42,1.86-18.58a474.41,474.41,0,0,0-1.24-65c-1.62-19.29-4.2-38.52-7.64-57.57-.45-2.49-.45-6.38-1.75-8.66-1.83-3.24-6-6.18-9.15-8.93a13.64,13.64,0,0,0,1.72-4.57c.4-3.77-4.33-8.4-6.48-11.35l-.24-.33C307.11,242.53,315.8,247.2,324.44,252Zm-106.38-55.4c6.21,21,32.27,34.91,52.36,38.57a2.35,2.35,0,0,0,.23.86c.44.95.89,1.89,1.33,2.83a82.63,82.63,0,0,0-26.28,29.74c-6.7-6.94-13.52-14-19.19-21.77a2.84,2.84,0,0,0-.23-.25c-.82-2.18-1.65-4.36-2.44-6.54-4.55-12.58-6.65-26.37-8.58-39.59A18,18,0,0,1,218.06,196.57Zm58.09,31.32c3.65,9.39,7.39,18.92,10.43,28.59-.49-.77-1-1.53-1.46-2.3a2.27,2.27,0,0,0-.82-.79c0-.53-.07-1.06-.12-1.59-.64-5.91-3.78-9.21-7.74-13.49q-1.06-2.25-2.14-4.5a2.91,2.91,0,0,0-.2-.35Q275.12,230.69,276.15,227.89Zm42.34,186.73h0v0Zm-1.59-4.45q-1.93-3-3.89-5.93c1-.85,2-1.7,3.07-2.52Q316.5,406,316.9,410.17ZM274.42,242.49a34.44,34.44,0,0,1,3.84,4.49c-6.34.68-12.39,3.65-17.62,7.56A72.86,72.86,0,0,1,274.42,242.49Zm20.75,58.34c-9,5.92-17.06,13.56-25,20.89-.46-2.91-.91-5.81-1.34-8.72,7.65-7,15.41-14.46,24-20.3C293.67,295.49,294.42,298.24,295.17,300.83Zm-26.92,8.28c0-.1,0-.2-.05-.3-.44-3.1-.69-6.11-.83-9.08A95.18,95.18,0,0,1,289,281.55c1.07,2.56,2,5.2,2.83,7.85C283.39,295,275.74,302.2,268.25,309.11Zm.68-38.62a14.24,14.24,0,0,1,12.22-1.57c.34.35.68.71,1,1.08a68,68,0,0,0-9.68,6.43c-1.46,1.11-3,2.55-4.5,3.78C268.25,277,268.59,273.8,268.93,270.49Zm-1.67,24.59c0-3.55.12-7.08.37-10.63,2.26-1.33,4.33-3.53,6.37-5.08a65.14,65.14,0,0,1,10.21-6.71,45.07,45.07,0,0,1,3.41,5.86A95.25,95.25,0,0,0,267.26,295.08Zm12.46-44.84a27.53,27.53,0,0,1,.54,5.16v.2c-6.79.55-13.86,3.16-18.53,8.25-.62-.25-1.16-.47-1.49-.64l-2.94-1.51C263.29,255.85,271.31,250.67,279.72,250.24Zm.62,8.72c0,1.69,0,3.38-.06,5.06a16.87,16.87,0,0,0-9.16.52c-1.18.4-3.18,1-4.07,1.91A8.74,8.74,0,0,0,265,265.2C269.1,261.41,274.82,259.42,280.34,259Zm-9.55,66.62c8.06-7.42,16.24-15.3,25.33-21.41.71,2.48,1.41,5,2.09,7.47h0c-9.39,6.13-17.8,14.15-26.07,21.78Q271.43,329.52,270.79,325.58ZM298,295.63c-3-9.83-6.34-21.86-13.64-29.62.08-1.59.13-3.19.15-4.79q2.91,4.54,5.87,9a2.51,2.51,0,0,0,.55.61q4.82,14.76,8.59,29.95C299,299.08,298.54,297.35,298,295.63Zm-53.31-21.82a2,2,0,0,0,3.3-.39,82.21,82.21,0,0,1,5-8.94l11.7,6c-1.37,13.05-2.62,24.85-.8,37.94,1.17,8.48,2.53,16.93,4,25.36q-5-8.44-9.63-17.06a585.59,585.59,0,0,1-26.9-57.07C235.7,264.52,240.26,269.17,244.71,273.81ZM274,343.87q-.6-3.3-1.18-6.62c8.38-7.69,16.86-15.95,26.35-22.25.84,3.1,1.65,6.21,2.47,9.31-9.36,6.35-17.78,14.48-26.09,22.11C275,345.57,274.47,344.72,274,343.87Zm28.52-16.17c.69,2.67,1.38,5.33,2.06,8-8.41,5.64-15.93,13-23.27,20-1.35-2.14-2.68-4.28-4-6.42C285.31,341.87,293.45,333.94,302.48,327.7Zm2.93,11.4q.87,3.4,1.75,6.8C299.65,351,293,357.6,286.59,364c-1.19-1.85-2.37-3.69-3.54-5.54C290.12,351.73,297.36,344.63,305.41,339.1ZM308,349.3c.77,3,1.54,5.95,2.33,8.93l0,0c-6.33,4.44-12,10-17.41,15.56q-2.3-3.51-4.58-7C294.53,360.66,300.89,354.24,308,349.3Zm3.2,12.38q.64,4.49,1.24,9a79.77,79.77,0,0,0-13.68,12c-1.34-2-2.67-4.05-4-6.07C299.92,371.36,305.27,366,311.23,361.68ZM313,374.31q.69,5.35,1.31,10.7a69.93,69.93,0,0,0-9.25,7.11l-4.39-6.65A80.6,80.6,0,0,1,313,374.31Zm1.72,14.39q.52,4.6,1,9.21c-1.52,1.15-3,2.35-4.47,3.58l-4.37-6.61A63,63,0,0,1,314.68,388.7ZM288.84,232.31a1.85,1.85,0,0,0,.55.72c.81,1.07,1.64,2.12,2.45,3.2,1.62,2.15,3.23,4.32,4.8,6.51.43.61,5,7.06,4.7,5,.14,1.11-.75,3-1.8,4.8a2.45,2.45,0,0,0-1.17,2c-.6,1-1.14,1.87-1.43,2.49-1.17,2.47,2.32,5,3.57,2.35.2-.42.44-.87.7-1.34,2.58,2.22,5.54,4.51,7.43,7-.13,0,.38,1.1.48,1.83.29,2.22.84,4.46,1.24,6.67,3.47,19.35,6.09,38.9,7.62,58.51a483.31,483.31,0,0,1,1.16,59.08c-4.71-42.85-12.09-86.41-26-127-3.71-14.35-9.48-28.39-14.79-42.18.25-.68.5-1.37.76-2.05Q284,226,288.84,232.31Zm20.62-39.71c-10.19,27.86-49.35.54-56.91-16.54-1.17-2.67-4.76-.31-3.65,2.19,4.95,11.2,15.52,18.59,25.49,25.05a39.64,39.64,0,0,0,5.25,2.86q-4.5,12.24-9,24.49c-18.89-3.72-43.53-16.5-48.83-36.27a62.36,62.36,0,0,0,6.87-12.73c1.71-4.32,2.58-12.45,7.86-14,.35.24.7.48,1.07.7,2.44,1.44,4.5-2.48,2.19-3.85-5.89-3.48-18.23-24.5-8.64-28.2,6.66-2.57,11.11,7.24,13.22,12.22a1.71,1.71,0,0,0,1.27,1.15c3.75,2.09,7.7-1.65,9.63-4.66,4.24-6.62,1-12.76-1.89-19.22-2.38-5.3-4.86-10.72-2-16.37,2.34-4.6,5.67-8.39,7.65-13.3a70.07,70.07,0,0,0,4.56-17.7c14.63-4.57,33.69-8.69,47,1.15A23.53,23.53,0,0,1,317.81,88c.54,1.1,1.38,3.78,1.35,3.57,1.37,9.16.9,18.51.46,27.85a14.16,14.16,0,0,0-8-2.32,14.5,14.5,0,0,0-7,1.78c-2.44,1.38-2.87,3.19-2.47,3.78.58.86,4-.21,6.46-.78,4.27-1,6.6-.37,10.16.58.26.07.49.1.72.14a141.61,141.61,0,0,0,.2,20.19C321.34,159.39,315.11,177.18,309.46,192.6ZM205.14,135.15c-7.45-18.44-10.85-43.95,6.27-58.17,1.12,1.46,3.85,1.1,3.72-1.23C213.52,46.5,249,39.6,271.67,41.63c15.91,1.43,29.52,9.92,45.16,12.56a74.79,74.79,0,0,0,20.38,1c.13,13.52-4.51,27.58-14,37.26a22.89,22.89,0,0,0-6.87-13.72c-14.32-14.44-38-9.72-55.15-4.25a2.34,2.34,0,0,0-1.58,2.14A64.13,64.13,0,0,1,256.45,91a49.92,49.92,0,0,1-5.61,11.8c-1.93,2.93-4,5.28-4.69,8.79-1.11,5.42,1,10.7,3.23,15.57,1.36,3,3.65,6.56,3.88,9.92.14,1.89-2.56,9.68-5.46,8.63-3.54-8.06-11.63-20-21.23-11.91-5.26,4.46-3.71,10.66-1.24,16.07,2.27,5,4.21,10.4,7.73,14.53a16.65,16.65,0,0,0-5.43,7.16c-1.09,2.59-2,5.16-3,7.69C222.05,163.82,210.64,148.76,205.14,135.15Zm7.21,61.9a18,18,0,0,0-1.1,2.08.08.08,0,0,0,0,.05,15.22,15.22,0,0,0-1.35,4.93,1.89,1.89,0,0,0,2.05,2.18A257.65,257.65,0,0,0,218,235.36c3.34,12,9,23.57,13.83,35.08A564,564,0,0,0,270,345.35a2,2,0,0,0,.79,1.3q6,9.89,12.32,19.61,13.71,21,27.41,41.9c-.48-.15-1-.27-1.52-.38-18.52-22.25-40.94-40.37-61.38-60.69a399.16,399.16,0,0,1-51.23-63.33l14.82-19a2.36,2.36,0,0,0-.85-3.78l-11.61-4.85c.38-12,1.22-24,2.61-35.86C202.21,212.86,204,199.73,212.35,197.05ZM260.21,480.7c-.06-.15-.31-.34-1-.45a74.32,74.32,0,0,0-8-.51c-8-.32-15.91-.37-23.86-.43-18.18-.12-36.36,0-54.53-.49-7.52-.2-15.78-.42-23.91-1.42a2.16,2.16,0,0,0-2.42-.32c-9-1.31-17.81-3.7-25.08-8.3-9.67-6.12-11.47-18.76-12.49-29.29-1.24-12.66-.84-25.47-.33-38.15q.94-23.64,2.38-47.25c1.14-18.28,2.56-36.59,5.06-54.73,1.73-12.47,2.83-30.06,10.6-40.62,3.56-4.82,10.66-7.81,15.66-10.87,8.37-5.12,16.8-10.14,25.24-15.13q15-8.82,30-17.52c-2.59,13.76-2.55,28.72-2.94,42.39a2.29,2.29,0,0,0,1.49,2.2l10.31,4.31-14,17.91a2.42,2.42,0,0,0-.38,2.72,409.3,409.3,0,0,0,51,63.79c19.64,19.84,41.39,37.39,59.76,58.49A43.3,43.3,0,0,0,290,408c-9.09,2.41-13.76,13.42-17.31,21.5H270c0-.12-.07-.24-.11-.36a2.17,2.17,0,0,0-2-1.69c-17.46.38-36.55.89-53.53-3.61-6.32-1.68-12.27-4.31-18.72-5.65-5.29-1.1-12.9-.73-17.65-3.24a16,16,0,0,1-4.39-4l.07-.09c3.38-5.68.21-12.83.34-19.09.18-8.29,1-16.59,1.7-24.85q1.83-21.87,4.06-43.69c.28-2.87-3.9-2.92-4.19-.09q-2,20.26-3.79,40.55c-.71,8.24-1.43,16.5-1.83,24.77a68.71,68.71,0,0,0,0,8c.26,3.69,2.08,8.37.33,11.76a9,9,0,0,0-1.73-.68c-3.35-1-7.38-1.26-10.62.19-2.44,1.1-.54,5.08,2,3.93s8.22-.2,10.35,1.42c1.52,1.15,1.87,3.16,3.23,4.37,2.53,2.26,6.22,2.56,9.46,3.11,7.07,1.19,14.09,2.21,20.93,4.43,5.06,1.64,9.68,3.44,14.94,4.36,15.54,2.72,31.73,2.94,47.5,2.62,4,13.13,6,31.46-2,43.76a2.41,2.41,0,0,0-1.08,1.54,25.8,25.8,0,0,1-2.59,2.95A6.5,6.5,0,0,0,260.21,480.7Zm9.57-5.78c6-12.06,4.85-28.19,1.59-40.82a8.51,8.51,0,0,0,2.29-.14l.08,0a11.9,11.9,0,0,1,.7,1.55c3.18,9.08,5,17.24,3,26.94-.56,2.76-1.1,7.45-2.74,10.54a2.49,2.49,0,0,0-.65,1.05c-.13.17-.26.33-.4.49h0a16,16,0,0,1-3,.32Zm29.91-2.86c-4.24.06-8.49-.1-12.72.08-2.57.11-5.32.74-8,.67.09-.23.18-.44.26-.69,4.71-13.55,4.53-28.76-2.48-41.51a.05.05,0,0,0,0,0c2.32-5.22,5-10.88,8.79-14.92,4.31-4.56,10.21-3.82,15.91-3.78,6.21.05,10.21.49,13.68,5.52-5.57.65-15.63,1.9-15.75.31-.22-2.83-4.41-3-4.19-.09.48,6.19,9.36,5.37,13.49,5,4.36-.41,12.69-3.12,15.84,1,2.9,3.78-.35,6.08-4.07,7.54-.09,0-.18,0-.27,0a1.86,1.86,0,0,0-.92.41c-1.39.49-2.77.86-3.83,1.15-2.58.73-1.65,5.11,1,4.37a46.53,46.53,0,0,0,4.66-1.57h.09a16,16,0,0,1,1.79.05,3.22,3.22,0,0,1,2.64,3c.74,3.68-2,5.63-5.09,7-2.44,1.08-.54,5.06,2,3.93a15.65,15.65,0,0,0,2.39-1.3c1.72,2.21.67,5.21-1.25,7.51l-.12.13a12.16,12.16,0,0,1-1.54,1.51c-1.72,1.41-.16,3.91,1.68,3.76C323.52,470.61,307.44,472,299.69,472.06Zm41-12.12c-2.89-.08-10.84-1.29-10.72-5a2.15,2.15,0,0,0-.38-1.36v0c6.7,3.92,15.29,3.77,22.67,2.09,2.62-.6,1.69-5-1-4.36-7.18,1.63-15.51,1.65-21.59-3a8.7,8.7,0,0,0-1.57-3.07c.16-.22.32-.45.47-.69,8,3.35,17.33,4.22,25.64,1.3,2.51-.88,1.59-5.28-1-4.36-7.62,2.68-15.89,1.84-23.26-1.19a10.44,10.44,0,0,0-.34-3.36,9.45,9.45,0,0,0-.81-2,40.06,40.06,0,0,0,22.44-1c2.54-.84,1.61-5.23-1-4.36a36.12,36.12,0,0,1-21.31.76,6.43,6.43,0,0,0,1.14-5.42,64.67,64.67,0,0,0,17.19-5.25c2.43-1.12.53-5.11-2-3.93a60.61,60.61,0,0,1-17.28,5,9.41,9.41,0,0,0-4.77-3.06c2.72-1.29,5.18-3,7.94-4.35,4.31-2.12,8.79-1.77,13.56-1.36,5.74.49,10.92,1.78,12.57,7.82.82,3-1,6.06,0,9.14.37,1.24,1.29,2.07,1.88,3.17,1.87,3.5,1,5.93,1,9.54s.67,6.17-.31,10c-.4,1.54-.47,3.95-1.14,5.33-1.15,2.38-3.58,3.18-6.23,3.36a1.62,1.62,0,0,0-1.61-.71A82.07,82.07,0,0,1,340.73,459.94Z"/><path class="cls-6" d="M281.57,122.7c2.48.56,5.88,1.64,6.47.77.39-.58,0-2.39-2.48-3.78a14.5,14.5,0,0,0-7-1.78c-5.07,0-8,2.15-10.35,4a.79.79,0,0,0,.38,1.4,6.19,6.19,0,0,0,2.85-.09C275,122.32,277.3,121.73,281.57,122.7Z"/><path class="cls-6" d="M284.85,133.39a5.18,5.18,0,1,0-5.16,5.68A5.43,5.43,0,0,0,284.85,133.39Z"/><ellipse class="cls-6" cx="310.47" cy="132.62" rx="5.16" ry="5.68"/><path class="cls-6" d="M301.74,131.52c-1.17-2.67-4.76-.31-3.66,2.2,2.08,4.75,4.54,9.33,6.59,14.1,1.61,3.77,4.66,7.61-.9,9.19-2.77.78-6,.81-8.87,1.3-2.64.46-1.7,4.83,1,4.36,5.43-.94,16.5,0,15.5-8.39C310.48,146.45,304.87,138.65,301.74,131.52Z"/><path class="cls-6" d="M305.71,170.18c-7,3.65-15.83,2.74-23-.14-1.92-.78-2.76,2.49-.9,3.23,8,3.22,17.66,3.9,25.45-.14C309,172.2,307.6,169.2,305.71,170.18Z"/><path class="cls-6" d="M497.88,2.11V411.7a2.1,2.1,0,1,0,4.19.09V2.2a2.1,2.1,0,1,0-4.19-.09Z"/><path class="cls-1" d="M661,203a68.87,68.87,0,0,0-33.39,10.46A66.9,66.9,0,0,0,611.45,228c16.26-12.27,36.5-18.92,57.07-21.17a67.07,67.07,0,0,1,15.66.16,13.72,13.72,0,0,0-3.58-3C676.07,201.68,666.18,202.76,661,203Z"/><path class="cls-4" d="M690,212.59a1.94,1.94,0,0,1-.85-.21c-7.64-1.9-16.27-1.65-22.61-.79-22.94,3.09-45.52,11.48-61.7,27.94,23.67-13,49.58-21.83,76.94-21.6A81.57,81.57,0,0,1,703.34,221C700.27,216.7,695.4,214.07,690,212.59Z"/><path class="cls-5" d="M577.36,64.77c21.33-2.26,20.3,18.43,19,33.69-1.38,16,11.17,28.2,15.12,42.82h1.67c2-8.29,6-27.74,17.16-17.22,11.93,11.25,5.39,29.15-4.35,39.43a54.43,54.43,0,0,0,7,10.88c6.41,7.72,14.92,10.25,24.16,13.24,3.76,1.22,8.11,1.94,11.71,3.58l1.46.38a3.42,3.42,0,0,1,.11-.35c.15-.82.16-1.72.25-2.55.93-8.62,2.32-17.08,5.79-25.09,11.62-26.8,36.51-52.53,26.17-84.05A88.23,88.23,0,0,0,687,51.16c-3-3.77-4-9.25-6.69-13.45-8.63-13.32-21.38-14.8-36-12.85-14.83,2-29.34,5.75-44,8.45a97.41,97.41,0,0,1-16.13,2.08c-6,.09-11.71-2.42-17.62-2.62s-5.84,3.9-6,8.75a26,26,0,0,0,2,11.82c2.07,4.31,9,11.36,14.51,11.43Z"/><path class="cls-1" d="M605.3,200.93q4.25,9,8.48,18A73.4,73.4,0,0,1,628,208.1a74.29,74.29,0,0,1,36.11-9.67c2.18,0,5-.19,7.88-.16l-1.35-1.91c-2.51,0-6-1.69-8.18-2.36-5.12-1.56-10.21-3.24-15.27-5-12.12-4.16-20.5-13.26-25.69-24.89a2.43,2.43,0,0,1,.38-2.72c8.26-8,14.24-20.47,7.66-31.28-1.95-3.2-6.85-3.43-8.83-.55-.94,1.36-1.2,4.36-1.63,5.94l-2.37,8.65a2.17,2.17,0,0,1-2.05,1.61H609.8a2.17,2.17,0,0,1-2-1.69c-2.76-12.58-12-23.27-15-36-3.12-13.3,7.76-40.56-14.66-38.87a56.2,56.2,0,0,0-12.29,21.67c-2.2,7.27-2,14.41-1.91,21.7a37.81,37.81,0,0,1,5,3.66c4.65,3.61,4.32,7.69,3.57,8.44s-1.69-.94-6.75-2.44l-1.66-.5c.33,4,1,8.38.11,11.87-1,3.71-4.06,7.31-6,10.55-2.41,4.11-9.09,13.72-6,17.42,1.56,1.87,5.24,2.9,8.41,4.07-.13-1.06-.27-2.12-.39-3.17-.32-2.75,3.72-4,4.06-1.11.29,2.5.63,5,1,7.51v.05a200,200,0,0,0,5,24.19c1.76,6.34,3.88,15.32,10.09,18.9,6.66,3.83,17.61,1.36,23.81-3.34l-2.61-5.55C600.48,200.64,604.06,198.3,605.3,200.93Z"/><path class="cls-4" d="M732.48,420.59c4.55-28.49,13-56.19,17.74-84.64.48-2.87,4.47-1.46,4,1.28-4.65,27.76-12.86,54.8-17.4,82.57-3.69,22.52-6.25,45.3-8.06,68.08,11.7-15.07,18.54-35.69,23.07-53.48,7.71-30.27,10.58-62,11.62-93.18.86-25.72.52-52-10.39-75.86C748.38,255.11,742.8,249,733.89,242c-9.69-7.65-20.71-14.33-32.78-17.38-14.53-3.67-30.53-2.54-45.09.29-31.32,6.07-57.36,22.84-83.64,40-11.36,7.42-22.73,15-34.93,21-8.57,4.19-11.91,9.72-14.33,19-5.59,21.37-5,44.12-8.15,65.91-3.35,23.28-13,42.38-24.34,62.76-11.46,20.65-29.14,48.31-18.58,72.56a2.39,2.39,0,0,1-.91,3h0s51.71.83,62.27-2.4h0a2.19,2.19,0,0,1-1-3.16c17.44-28.36,32.4-58.36,47.31-88.1,7.16-14.26,15.32-27.6,14.23-44.16a92.8,92.8,0,0,0-9.08-33.53c-1.21-2.48,2.38-4.82,3.65-2.2A99.22,99.22,0,0,1,598,369c1.52,16.17-4.48,28.31-11.45,42.32-15.88,31.91-31.84,64.11-50.51,94.5a2.92,2.92,0,0,1-.29.38c16.56-1.94,88,5.24,131,1.7,37-3.05,52.49-5.6,57-6.45a2.29,2.29,0,0,1-.1-.85C725.44,473.86,728.26,447.07,732.48,420.59Z"/><path class="cls-6" d="M586.52,411.33c7-14,13-26.15,11.45-42.32a99.22,99.22,0,0,0-9.42-33.52c-1.27-2.62-4.86-.28-3.65,2.2A92.8,92.8,0,0,1,594,371.22c1.09,16.56-7.07,29.9-14.23,44.16-14.91,29.74-29.87,59.74-47.31,88.1a2.19,2.19,0,0,0,1,3.16,1.87,1.87,0,0,0,2.3-.43,2.92,2.92,0,0,0,.29-.38C554.68,475.44,570.64,443.24,586.52,411.33Z"/><path class="cls-6" d="M728.21,495.28c12.34-13.6,19.78-33.36,25.1-50.53,8.41-27.12,11.49-56.22,13.38-84.44,1.87-28,3.53-57.53-5.14-84.6-3.38-10.55-7.79-21.46-15.91-29.25-10.83-10.4-23-18.65-36.54-23.56a1.46,1.46,0,0,0-.1-.34c-3-7.66-10-12-17.88-14.17-2.46-2.58-5-6.06-7.88-7.92a14.81,14.81,0,0,0-5.89-1.85,3,3,0,0,0-.36-.69l-2.82-4a24.25,24.25,0,0,0,.58-4.49c1.14-10.51,3.11-20.43,8.41-29.73,4.06-7.14,8.41-14.1,12.24-21.38,7.86-15,15.38-32.28,13.61-49.58-1.34-13.1-8.17-30.44-17.94-39.8-.42-.4-.91-.76-1.37-1.14a8.19,8.19,0,0,1-.45-1.33c-1.15-4.42-3.74-8.84-6.31-12.55-8.67-12.47-20.79-15.5-35.33-14-17.81,1.9-35.1,6.89-52.75,9.75-9.32,1.52-17.06.7-26.31-1.11-7.09-1.39-10.78.05-11.75,7.7s-.56,16.61,4.49,22.95c2.61,3.28,7.14,7.48,11.78,9.21a62.79,62.79,0,0,0-10.53,19.07c-2.82,8.17-2.77,16.28-2.74,24.58-1.32.66-3.85,2.35-2.4,5.18a6.49,6.49,0,0,0,2.42,2.69c.22,5.34,1.39,11-1.35,15.65-3.45,5.86-7.11,11.55-9.58,17.93-1.4,3.6-3.64,7.54-.69,10.64,3.19,3.33,9.1,4.16,13.16,6.53,1.63,11.69,4,23.6,8.59,34.3,3.07,7.19,8,12.53,16.23,13.21a32.38,32.38,0,0,0,20-5.56l4.48,9.54a53.6,53.6,0,0,0-8.94,13.45,2.38,2.38,0,0,0-.2,1.12,83.58,83.58,0,0,0-7.68,9.12c-14,8.63-27.45,18-41.46,26.57-5.51,3.37-11.13,6.61-16.93,9.45-3.75,1.84-6.94,3.27-9.61,6.56-5.27,6.5-7.11,15.6-8.51,23.61-2,11.56-2.85,23.31-3.91,35-1.28,14-2.5,28.29-6.33,41.91-4.11,14.63-12.13,28-19.45,41.17-12.53,22.58-30.74,51.63-19.21,78.08a2.2,2.2,0,0,0,.39.62,1.72,1.72,0,0,0,2.35.17,2.39,2.39,0,0,0,.91-3c-10.56-24.25,7.12-51.91,18.58-72.56,11.3-20.38,21-39.48,24.34-62.76,3.13-21.79,2.56-44.54,8.15-65.91,2.42-9.24,5.76-14.77,14.33-19,12.2-6,23.57-13.54,34.93-21,26.28-17.17,52.32-33.94,83.64-40,14.56-2.83,30.56-4,45.09-.29,12.07,3,23.09,9.73,32.78,17.38,8.91,7,14.49,13.12,19.18,23.37,10.91,23.84,11.25,50.14,10.39,75.86-1,31.15-3.91,62.91-11.62,93.18-4.53,17.79-11.37,38.41-23.07,53.48,1.81-22.78,4.37-45.56,8.06-68.08,4.54-27.77,12.75-54.81,17.4-82.57.46-2.74-3.53-4.15-4-1.28-4.76,28.45-13.19,56.15-17.74,84.64-4.22,26.48-7,53.27-8.85,80a2.29,2.29,0,0,0,.1.85c.59,2,3.91,1.78,4.09-.76,0-.75.11-1.5.16-2.24C728.05,497.4,728.13,496.34,728.21,495.28ZM684.18,207a67.07,67.07,0,0,0-15.66-.16c-20.57,2.25-40.81,8.9-57.07,21.17a66.9,66.9,0,0,1,16.19-14.5A68.87,68.87,0,0,1,661,203c5.15-.28,15-1.36,19.57.94A13.72,13.72,0,0,1,684.18,207ZM562.62,53.34a26,26,0,0,1-2-11.82c.12-4.85-.07-9,6-8.75s11.62,2.71,17.62,2.62a97.41,97.41,0,0,0,16.13-2.08c14.69-2.7,29.2-6.47,44-8.45,14.66-1.95,27.41-.47,36,12.85,2.71,4.2,3.73,9.68,6.69,13.45a88.23,88.23,0,0,1,15.55,28.37c10.34,31.52-14.55,57.25-26.17,84.05-3.47,8-4.86,16.47-5.79,25.09-.09.83-.1,1.73-.25,2.55a3.42,3.42,0,0,0-.11.35l-1.46-.38c-3.6-1.64-7.95-2.36-11.71-3.58-9.24-3-17.75-5.52-24.16-13.24a54.43,54.43,0,0,1-7-10.88c9.74-10.28,16.28-28.18,4.35-39.43-11.16-10.52-15.13,8.93-17.16,17.22h-1.67c-4-14.62-16.5-26.81-15.12-42.82,1.32-15.26,2.35-35.95-19-33.69h-.23C571.58,64.7,564.69,57.65,562.62,53.34ZM580.45,212c-6.21-3.58-8.33-12.56-10.09-18.9a200,200,0,0,1-5-24.19v-.05c-.37-2.5-.71-5-1-7.51-.34-2.89-4.38-1.64-4.06,1.11.12,1.05.26,2.11.39,3.17-3.17-1.17-6.85-2.2-8.41-4.07-3.07-3.7,3.61-13.31,6-17.42,1.89-3.24,5-6.84,6-10.55.89-3.49.22-7.89-.11-11.87l1.66.5c5.06,1.5,6,3.19,6.75,2.44s1.08-4.83-3.57-8.44a37.81,37.81,0,0,0-5-3.66c-.09-7.29-.29-14.43,1.91-21.7a56.2,56.2,0,0,1,12.29-21.67c22.42-1.69,11.54,25.57,14.66,38.87,3,12.74,12.23,23.43,15,36a2.17,2.17,0,0,0,2,1.69h4.88a2.17,2.17,0,0,0,2.05-1.61l2.37-8.65c.43-1.58.69-4.58,1.63-5.94,2-2.88,6.88-2.65,8.83.55,6.58,10.81.6,23.27-7.66,31.28a2.43,2.43,0,0,0-.38,2.72c5.19,11.63,13.57,20.73,25.69,24.89,5.06,1.74,10.15,3.42,15.27,5,2.21.67,5.67,2.35,8.18,2.36l1.35,1.91c-2.88,0-5.7.12-7.88.16A74.29,74.29,0,0,0,628,208.1a73.4,73.4,0,0,0-14.24,10.84q-4.24-9-8.48-18c-1.24-2.63-4.82-.29-3.65,2.2l2.61,5.55C598.06,213.38,587.11,215.85,580.45,212Zm101.28,5.91c-27.36-.23-53.27,8.61-76.94,21.6,16.18-16.46,38.76-24.85,61.7-27.94,6.34-.86,15-1.11,22.61.79a1.94,1.94,0,0,0,.85.21c5.45,1.48,10.32,4.11,13.39,8.45A81.57,81.57,0,0,0,681.73,217.93Z"/><path class="cls-2" d="M390.44,97.17l-5.4,10.9-10.79,5.27s9.1,4,11,7.11,5.21,9,5.21,9,3.23-8.73,7.16-10.79,9-5.37,9-5.37-7.9-2.88-10.34-6.25A106.91,106.91,0,0,1,390.44,97.17Z"/><path class="cls-7" d="M395.3,108.5c-2.05-2.07-3.49-5.47-4.86-8.47-1.38,3-2.82,6.43-4.9,8.52s-5.33,3.44-8.3,4.79c3,1.36,6.32,2.79,8.35,4.84s3.48,5.47,4.86,8.48c1.38-3,2.81-6.44,4.89-8.52s5.33-3.45,8.3-4.8C400.66,112,397.32,110.56,395.3,108.5Z"/><path class="cls-6" d="M408.28,111.9c-3-1.66-8.86-3.88-10.67-5.74s-4.06-7.51-5.77-10.64a1.44,1.44,0,0,0-1.17-.82,1.37,1.37,0,0,0-1.6.76c-1.66,3-3.88,8.87-5.75,10.66s-7.53,4-10.66,5.75a1.74,1.74,0,0,0-.06,2.91c3,1.67,8.86,3.88,10.68,5.74s4.05,7.52,5.76,10.65a1.59,1.59,0,0,0,2.77.05c1.66-3,3.88-8.86,5.75-10.66s7.53-4,10.66-5.74A1.75,1.75,0,0,0,408.28,111.9Zm-12.94,6.24c-2.08,2.08-3.51,5.5-4.89,8.52-1.38-3-2.82-6.41-4.86-8.48s-5.36-3.48-8.35-4.84c3-1.35,6.28-2.77,8.3-4.79s3.52-5.5,4.9-8.52c1.37,3,2.81,6.4,4.86,8.47s5.36,3.48,8.34,4.84C400.67,114.69,397.36,116.12,395.34,118.14Z"/><path class="cls-2" d="M413.19,278.92l-5.4,10.9L397,295.09s9.1,4,11,7.11,5.21,9,5.21,9,3.22-8.72,7.16-10.79,9-5.37,9-5.37-7.9-2.88-10.34-6.25A106.91,106.91,0,0,1,413.19,278.92Z"/><path class="cls-7" d="M418,290.26c-2-2.08-3.48-5.47-4.86-8.48-1.37,3-2.81,6.44-4.89,8.52s-5.33,3.45-8.3,4.8c3,1.35,6.32,2.78,8.35,4.83s3.48,5.47,4.85,8.48c1.38-3,2.82-6.44,4.9-8.52s5.33-3.45,8.3-4.8C423.4,293.73,420.07,292.31,418,290.26Z"/><path class="cls-6" d="M431,293.65c-3-1.66-8.86-3.87-10.68-5.73s-4.05-7.52-5.76-10.65a1.47,1.47,0,0,0-1.17-.82,1.38,1.38,0,0,0-1.6.77c-1.66,3-3.88,8.86-5.75,10.65s-7.53,4-10.66,5.75a1.75,1.75,0,0,0-.06,2.92c3,1.66,8.86,3.87,10.67,5.73s4.06,7.52,5.77,10.65a1.58,1.58,0,0,0,2.77.05c1.66-3,3.88-8.86,5.75-10.65s7.53-4,10.66-5.75A1.75,1.75,0,0,0,431,293.65Zm-12.94,6.24c-2.08,2.08-3.52,5.5-4.9,8.52-1.37-3-2.81-6.4-4.85-8.48S403,296.45,400,295.1c3-1.35,6.28-2.78,8.3-4.8s3.52-5.5,4.89-8.52c1.38,3,2.82,6.4,4.86,8.48s5.36,3.47,8.35,4.83C423.42,296.44,420.11,297.87,418.09,299.89Z"/><path class="cls-2" d="M137.44,180.88,132,191.79l-10.79,5.27s9.1,4,11,7.1,5.21,9.05,5.21,9.05,3.23-8.73,7.16-10.79,9-5.37,9-5.37-7.9-2.88-10.34-6.26A105.54,105.54,0,0,1,137.44,180.88Z"/><path class="cls-7" d="M142.3,192.22c-2.05-2.07-3.49-5.47-4.86-8.48-1.38,3-2.82,6.44-4.9,8.52s-5.33,3.45-8.3,4.8c3,1.36,6.32,2.78,8.35,4.84s3.48,5.47,4.86,8.47c1.38-3,2.81-6.43,4.89-8.52s5.33-3.44,8.3-4.79C147.66,195.7,144.32,194.27,142.3,192.22Z"/><path class="cls-6" d="M155.28,195.62c-3-1.66-8.86-3.88-10.67-5.74s-4.06-7.52-5.77-10.65a1.46,1.46,0,0,0-1.17-.82,1.38,1.38,0,0,0-1.6.77c-1.66,3-3.88,8.86-5.75,10.66s-7.53,4-10.66,5.75a1.74,1.74,0,0,0-.06,2.91c3,1.66,8.86,3.88,10.68,5.74s4.05,7.52,5.76,10.64a1.58,1.58,0,0,0,2.77.06c1.66-3,3.88-8.86,5.75-10.66s7.53-4,10.66-5.75A1.74,1.74,0,0,0,155.28,195.62Zm-12.94,6.23c-2.08,2.09-3.51,5.5-4.89,8.52-1.38-3-2.82-6.4-4.86-8.47s-5.36-3.48-8.35-4.84c3-1.35,6.28-2.78,8.3-4.8s3.52-5.49,4.9-8.52c1.37,3,2.81,6.41,4.86,8.48s5.36,3.48,8.34,4.84C147.67,198.41,144.36,199.83,142.34,201.85Z"/><path class="cls-6" d="M395.69,196a1.5,1.5,0,0,1-.92-2.69l35-27.17a1.5,1.5,0,0,1,1.84,2.37l-35,27.17A1.45,1.45,0,0,1,395.69,196Z"/><path class="cls-6" d="M391.06,217.27a1.5,1.5,0,0,1-.92-2.68l35-27.18a1.5,1.5,0,1,1,1.84,2.37L392,217A1.48,1.48,0,0,1,391.06,217.27Z"/><path class="cls-6" d="M405.33,473.51a1.51,1.51,0,0,1-1.19-.58,1.49,1.49,0,0,1,.27-2.1l35-27.18a1.5,1.5,0,0,1,1.84,2.37l-35,27.18A1.52,1.52,0,0,1,405.33,473.51Z"/><path class="cls-6" d="M400.7,494.75a1.49,1.49,0,0,1-1.18-.58,1.51,1.51,0,0,1,.26-2.11l35-27.17a1.5,1.5,0,1,1,1.84,2.37l-35,27.17A1.51,1.51,0,0,1,400.7,494.75Z"/><path class="cls-6" d="M130.54,128.42a1.48,1.48,0,0,1-1.18-.58,1.5,1.5,0,0,1,.26-2.1l35-27.18a1.5,1.5,0,1,1,1.84,2.37l-35,27.18A1.5,1.5,0,0,1,130.54,128.42Z"/><path class="cls-6" d="M125.92,149.65a1.51,1.51,0,0,1-1.19-.58A1.49,1.49,0,0,1,125,147l35-27.18a1.5,1.5,0,0,1,1.84,2.37l-35,27.18A1.52,1.52,0,0,1,125.92,149.65Z"/><path class="cls-6" d="M46.64,343.57a1.5,1.5,0,0,1-.92-2.68l35-27.18a1.5,1.5,0,1,1,1.84,2.37l-35,27.18A1.48,1.48,0,0,1,46.64,343.57Z"/><path class="cls-6" d="M42,364.81a1.5,1.5,0,0,1-.92-2.69l35-27.18a1.5,1.5,0,0,1,1.84,2.37l-35,27.18A1.53,1.53,0,0,1,42,364.81Z"/><path class="cls-3" d="M186.74,427.53a1.5,1.5,0,0,1-.92-2.69l40-31.08a1.5,1.5,0,0,1,1.84,2.37l-40,31.08A1.45,1.45,0,0,1,186.74,427.53Z"/><path class="cls-3" d="M183.9,448.46a1.5,1.5,0,0,1-.92-2.69l37.59-29.19a1.5,1.5,0,0,1,1.84,2.37l-37.59,29.19A1.47,1.47,0,0,1,183.9,448.46Z"/><path class="cls-3" d="M317.56,327.4a1.49,1.49,0,0,1-1.18-.58,1.51,1.51,0,0,1,.26-2.11l32.95-25.58a1.5,1.5,0,0,1,1.84,2.37l-32.95,25.58A1.49,1.49,0,0,1,317.56,327.4Z"/><path class="cls-3" d="M315.22,344.62a1.5,1.5,0,0,1-.92-2.68l30.94-24a1.5,1.5,0,1,1,1.84,2.37l-30.94,24A1.48,1.48,0,0,1,315.22,344.62Z"/></g></g></svg>