<svg xmlns="http://www.w3.org/2000/svg" viewBox="0 0 840 840"><defs><style>.cls-1{fill:#fff}.cls-4{font-size:24px}.cls-4,.cls-7,.cls-9{font-family:KozGoPr6N-Bold-83pv-RKSJ-H,Kozuka Gothic Pr6N}.cls-5,.cls-6{fill:none;stroke-linecap:round;stroke:#000;stroke-miterlimit:10}.cls-5{stroke-width:2px}.cls-6{stroke-width:4px}.cls-7{font-size:19.5px}.cls-9{font-size:21px}.cls-10{letter-spacing:-.5em}</style></defs><g id="レイヤー_2" data-name="レイヤー 2"><path class="cls-1" transform="rotate(90 420 420)" d="M0 0h840v840H0z" id="レイヤー_2-2" data-name="レイヤー 2"/><g id="レイヤー_3" data-name="レイヤー 3"><path fill="#fffc19" d="M47.5 168h330v450h-330z"/><text transform="translate(97 198.29)" style="text-orientation:upright" writing-mode="tb" glyph-orientation-vertical="0deg" font-size="120" font-family="KozGoPr6N-Regular-83pv-RKSJ-H,Kozuka Gothic Pr6N" fill="#fff">無<tspan x="0" y="120"> </tspan><tspan x="0" y="147.96">料</tspan></text><path d="M497 206h80v38h-80z"/><path class="cls-1" d="M517.72 236.09V219.8a24.88 24.88 0 01-2.8.13v-3.13a6.83 6.83 0 004.19-2H522v21.24zM534.28 231a2.54 2.54 0 002.84 2.23c1.54 0 2.35-.58 2.35-1.65s-1-1.51-3.46-2.22c-4.41-1.24-5.44-2.79-5.44-5.14 0-2.09 1.31-5 6.3-5 4.4 0 6.25 2.25 6.44 5h-4.23a2.11 2.11 0 00-2.41-1.88c-1.18 0-1.86.5-1.86 1.45s.66 1.31 3.05 1.91c4.52 1.17 5.88 2.82 5.88 5.46 0 3.4-2.84 5.2-6.74 5.2-4.06 0-6.62-1.81-7-5.38zM549.55 219.53h2.33V215h4.33v4.5h2.95v3.37h-2.95v8.51c0 1.13.27 1.61 1.62 1.61a5.12 5.12 0 001-.08v3a10 10 0 01-2.66.31c-3.2 0-4.28-1.29-4.28-4.37v-9h-2.33z"/><circle cx="537" cy="106" r="19"/><text class="cls-4" transform="translate(134 114.7)">無料はじめて申込み</text><path class="cls-5" d="M509 106H359"/><circle cx="537" cy="731" r="19"/><path class="cls-6" d="M537 125v69.11"/><path d="M526.09 185.27l1.96-1.82 8.95 9.64 8.95-9.64 1.95 1.82L537 197l-10.91-11.73z"/><path class="cls-6" d="M557 731h135V225H590.89"/><path d="M599.73 214.09l1.82 1.96-9.63 8.95 9.63 8.95-1.82 1.95L588 225l11.73-10.91z"/><path class="cls-6" d="M537 244v69.11"/><path d="M526.09 304.27l1.96-1.82 8.95 9.63 8.95-9.63 1.95 1.82L537 316l-10.91-11.73zM497 325h80v38h-80z"/><path class="cls-1" d="M506.56 355.09v-.16c0-2.87.93-6.22 6.41-10.42 2.58-2 3.51-2.93 3.51-4.77a2.53 2.53 0 00-2.7-2.83c-2 0-2.85 1.32-3 3.47h-4.15c.14-3.58 2.24-6.83 7.33-6.83 4.6 0 7 2.75 7 6.18 0 2.74-1.07 4.41-4.94 7.22-2.07 1.51-3.63 3.08-4.17 4.56h9.67l-.54 3.58zM528.89 343.69c0-3.41 0-4.43-.06-5.16h4.23a15.85 15.85 0 01.15 2.14 5 5 0 014.61-2.46c3.48 0 5.24 2.22 5.24 6v10.85h-4.36v-10c0-1.87-.46-3.28-2.52-3.28s-2.94 1.16-2.94 4.06v9.24h-4.35zM566.26 331.82v18.65c0 1.94 0 3.65.07 4.62h-4.24a19.08 19.08 0 01-.15-2c-.78 1.45-2 2.28-4.65 2.28-4.22 0-6.4-3.45-6.4-8.57s2.66-8.63 7.13-8.63c2.47 0 3.53.84 3.9 1.51v-7.9zm-10.93 14.87c0 3.1 1 5.19 3.4 5.19 2.84 0 3.39-1.92 3.39-5.16 0-3.54-.71-5-3.26-5-2.14.04-3.53 1.67-3.53 4.97z"/><path class="cls-6" d="M537 363v69.11"/><path d="M526.09 423.27l1.96-1.82 8.95 9.63 8.95-9.63 1.95 1.82L537 435l-10.91-11.73zM497 444h80v38h-80z"/><path class="cls-1" d="M509.67 458.67c.31-3 2.12-6.12 7.09-6.12s6.89 2.75 6.89 5.65a4.42 4.42 0 01-2.8 4.24v.07a5.17 5.17 0 013.67 5.27c0 3.14-2.08 6.63-7.78 6.63-5.06 0-7.24-2.88-7.47-6.17h4.24a3.11 3.11 0 003.41 2.82c2.19 0 3.18-1.27 3.18-3.24 0-2.3-1.28-3.28-3.71-3.28h-1.62v-3.42h1.31c2.21 0 3.25-.62 3.25-2.61a2.41 2.41 0 00-2.72-2.67c-1.83 0-2.73 1-3 2.83zM532.47 463.14c0-2.72 0-4.47-.06-5.61h4.24a29 29 0 01.11 2.9 5.1 5.1 0 015-3.17v4.4c-3.41-.05-4.95 1.1-4.95 4.9v7.53h-4.35zM563.42 450.82v18.65c0 1.94 0 3.65.06 4.62h-4.24a19.2 19.2 0 01-.14-2c-.79 1.45-2 2.28-4.65 2.28-4.22 0-6.41-3.45-6.41-8.57s2.67-8.63 7.13-8.63c2.47 0 3.53.84 3.9 1.51v-7.9zm-10.93 14.87c0 3.1 1 5.19 3.39 5.19 2.84 0 3.39-1.92 3.39-5.16 0-3.54-.71-5-3.25-5-2.14.04-3.53 1.67-3.53 4.97z"/><path class="cls-6" d="M537 482v69.11"/><path d="M526.09 542.27l1.96-1.82 8.95 9.63 8.95-9.63 1.95 1.82L537 554l-10.91-11.73zM497 563h80v38h-80z"/><path class="cls-1" d="M519.71 593.09v-4.88h-9.32v-3.82l8-12.58h5.35v12.88H526l-.39 3.52h-1.91v4.88zm0-13c0-2.41 0-3.58.09-5-1.13 2.28-4 6.92-5.49 9.64h5.4zM531.36 576.53h2.33V572H538v4.5h3v3.37h-3v8.51c0 1.13.28 1.61 1.63 1.61a5.12 5.12 0 001-.08v3a10 10 0 01-2.67.31c-3.2 0-4.27-1.29-4.27-4.37v-9h-2.33zM552.76 569.82v8.7a4.9 4.9 0 014.59-2.31c3 0 5.23 1.63 5.23 6v10.88h-4.3v-10.22c0-1.79-.57-3.08-2.6-3.08s-2.92 1.42-2.92 4.08v9.22h-4.35v-23.27z"/><path class="cls-6" d="M537 601v99.11"/><path d="M526.09 691.27l1.96-1.82 8.95 9.63 8.95-9.63 1.95 1.82L537 703l-10.91-11.73z"/><text class="cls-4" transform="translate(206 233.7)">コーチと対話</text><path class="cls-5" d="M488 225H359"/><text class="cls-4" transform="translate(110 352.7)">振り返りシートの記入</text><path class="cls-5" d="M488 344H359"/><text class="cls-7" transform="translate(110.53 323)">ご自宅などからメールで</text><text class="cls-4" transform="translate(158 471.7)">レポートの受取り</text><path class="cls-5" d="M488 463H359"/><text class="cls-7" transform="translate(158.08 442)">メールで</text><text class="cls-4" transform="translate(86 590.7)">効果の実感・継続の意向</text><path class="cls-5" d="M488 582H359"/><text class="cls-4" transform="translate(206 739.7)">次回の申込み</text><path class="cls-5" d="M509 731H359"/><circle cx="692" cy="478" r="97.5" stroke-width="7" stroke="#000" stroke-miterlimit="10" fill="#fffc19"/><text class="cls-9" transform="translate(618.5 450.46)">次回の来訪時に<tspan x="-10.5" y="36.75">今回のお支払いと</tspan><tspan x="26.25" y="73.5">なります</tspan><tspan class="cls-10" x="110.25" y="73.5">。</tspan></text><text class="cls-7" transform="translate(206.67 204)">スタジオで</text><path class="cls-6" d="M499 599l-41.96 41.95"/><path d="M455.58 627l2.67.09-.48 13.14 13.14-.48.09 2.67-16 .58.58-16z"/><text class="cls-4" transform="translate(365.78 672.22)">つづけない<tspan font-size="16"><tspan x="-20" y="19.96">（事後の連絡もなし</tspan><tspan class="cls-10" x="124" y="19.96">）</tspan></tspan></text><text class="cls-9" transform="translate(435 615.62)">なし</text><text class="cls-9" transform="translate(541.58 657.38)">あり</text></g></g></svg>