<svg xmlns="http://www.w3.org/2000/svg" viewBox="0 0 1680 813"><defs><style>.cls-1{fill:#fff}.cls-3{font-size:24px}.cls-3,.cls-7,.cls-9{font-family:KozGoPr6N-Bold-83pv-RKSJ-H,Kozuka Gothic Pr6N}.cls-4,.cls-5{fill:none;stroke-linecap:round;stroke:#000;stroke-miterlimit:10}.cls-4{stroke-width:2px}.cls-5{stroke-width:4px}.cls-7{font-size:21px}.cls-8{letter-spacing:-.5em}.cls-9{font-size:19.5px}</style></defs><g id="レイヤー_2" data-name="レイヤー 2"><path class="cls-1" d="M0 0h1680v813H0z" id="レイヤー_2-2" data-name="レイヤー 2"/><g id="レイヤー_3" data-name="レイヤー 3"><path fill="#fffc19" d="M1465 683v60H390V467l1075 216z"/><path d="M925 326h80v38h-80z"/><path class="cls-1" d="M937.67 340.67c.31-3 2.12-6.12 7.09-6.12s6.89 2.75 6.89 5.65a4.42 4.42 0 01-2.79 4.24v.07a5.17 5.17 0 013.66 5.27c0 3.14-2.08 6.63-7.78 6.63-5.06 0-7.24-2.88-7.47-6.17h4.24a3.11 3.11 0 003.41 2.82c2.19 0 3.18-1.27 3.18-3.24 0-2.3-1.28-3.28-3.71-3.28h-1.62v-3.42h1.31c2.21 0 3.25-.62 3.25-2.61a2.41 2.41 0 00-2.72-2.67c-1.83 0-2.73 1-3 2.83zM960.47 345.14c0-2.72 0-4.47-.06-5.61h4.24a29 29 0 01.11 2.9 5.1 5.1 0 015-3.17v4.4c-3.42-.05-5 1.1-5 4.9v7.53h-4.35zM991.42 332.82v18.65c0 1.94 0 3.65.06 4.62h-4.24c0-.44-.14-1.42-.14-2-.79 1.45-2 2.28-4.65 2.28-4.22 0-6.41-3.45-6.41-8.57s2.67-8.63 7.13-8.63c2.47 0 3.53.84 3.9 1.51v-7.9zm-10.93 14.87c0 3.1 1 5.19 3.39 5.19 2.84 0 3.39-1.92 3.39-5.16 0-3.54-.71-5-3.25-5-2.14.04-3.53 1.67-3.53 4.97z"/><path d="M675 326h80v38h-80z"/><path class="cls-1" d="M684.56 356.09v-.16c0-2.87.93-6.23 6.41-10.42 2.58-2 3.51-2.93 3.51-4.77a2.54 2.54 0 00-2.7-2.84c-2 0-2.85 1.33-3 3.48h-4.15c.14-3.58 2.24-6.83 7.33-6.83 4.6 0 7 2.75 7 6.18 0 2.74-1.07 4.41-4.94 7.22-2.07 1.51-3.63 3.08-4.17 4.56h9.67l-.54 3.58zM706.89 344.69c0-3.41 0-4.43-.06-5.16h4.23a15.85 15.85 0 01.15 2.14 5 5 0 014.61-2.46c3.48 0 5.24 2.22 5.24 6v10.85h-4.36v-10c0-1.87-.46-3.28-2.52-3.28s-2.94 1.16-2.94 4.06v9.24h-4.35zM744.26 332.82v18.65c0 1.94 0 3.65.07 4.62h-4.24a19.08 19.08 0 01-.15-2c-.78 1.45-2 2.28-4.65 2.28-4.22 0-6.4-3.45-6.4-8.57s2.66-8.63 7.13-8.63c2.47 0 3.53.84 3.9 1.51v-7.9zm-10.93 14.87c0 3.1 1 5.19 3.4 5.19 2.84 0 3.39-1.92 3.39-5.16 0-3.54-.71-5-3.26-5-2.14.04-3.53 1.67-3.53 4.97z"/><path d="M425 326h80v38h-80z"/><path class="cls-1" d="M445.72 356.09V339.8a24.88 24.88 0 01-2.8.13v-3.13a6.83 6.83 0 004.19-1.95H450v21.24zM462.28 351a2.54 2.54 0 002.84 2.23c1.54 0 2.35-.58 2.35-1.65s-1-1.51-3.46-2.22c-4.41-1.24-5.44-2.79-5.44-5.14 0-2.09 1.31-5 6.3-5 4.4 0 6.25 2.25 6.44 5h-4.23a2.11 2.11 0 00-2.41-1.89c-1.18 0-1.86.51-1.86 1.46s.66 1.31 3.05 1.91c4.52 1.17 5.88 2.81 5.88 5.46 0 3.39-2.84 5.2-6.74 5.2-4.06 0-6.62-1.81-7-5.38zM477.55 339.53h2.33V335h4.33v4.5h3v3.37h-3v8.51c0 1.13.27 1.61 1.62 1.61a5.12 5.12 0 001-.08v3a10 10 0 01-2.66.31c-3.2 0-4.28-1.29-4.28-4.37v-9h-2.33z"/><path d="M1175 326h80v38h-80z"/><path class="cls-1" d="M1197.71 356.09v-4.88h-9.32v-3.82l8-12.58h5.35v12.88h2.26l-.39 3.52h-1.89v4.88zm0-13c0-2.41 0-3.58.09-5-1.13 2.28-4 6.92-5.49 9.64h5.4zM1209.36 339.53h2.33V335h4.31v4.5h3v3.37h-3v8.51c0 1.13.27 1.61 1.62 1.61a5.12 5.12 0 001-.08v3a10 10 0 01-2.67.31c-3.19 0-4.27-1.29-4.27-4.37v-9h-2.33zM1230.76 332.82v8.7a4.9 4.9 0 014.6-2.31c3 0 5.22 1.63 5.22 6v10.88h-4.3v-10.22c0-1.79-.57-3.08-2.6-3.08s-2.92 1.42-2.92 4.08v9.22h-4.35v-23.27z"/><circle cx="215" cy="345" r="19"/><text class="cls-3" transform="translate(107 462.08)">無料はじめて申込み</text><path class="cls-4" d="M1465 373v300M1215 373v250M965 373v200M715 373v150M465 373v100M215 373v50"/><text class="cls-3" transform="translate(393 536.08)">コーチと対話</text><text class="cls-3" transform="translate(595 586.08)">振り返りシートの記入</text><text class="cls-3" transform="translate(869 636.08)">レポートの受取り</text><text class="cls-3" transform="translate(1083 662.08)">効果の実感・継続の意向</text><text class="cls-3" transform="translate(1393 712.08)">次回の申込み</text><circle cx="1465" cy="345" r="19"/><path class="cls-5" d="M234 345h170.11"/><path d="M395.27 355.91l-1.82-1.96 9.63-8.95-9.63-8.95 1.82-1.95L407 345l-11.73 10.91z"/><path class="cls-5" d="M505 345h148.11"/><path d="M644.27 355.91l-1.82-1.96 9.63-8.95-9.63-8.95 1.82-1.95L656 345l-11.73 10.91z"/><path class="cls-5" d="M755 345h148.11"/><path d="M894.27 355.91l-1.82-1.96 9.63-8.95-9.63-8.95 1.82-1.95L906 345l-11.73 10.91z"/><path class="cls-5" d="M1005 345h148.11"/><path d="M1144.27 355.91l-1.82-1.96 9.64-8.95-9.64-8.95 1.82-1.95L1156 345l-11.73 10.91z"/><path class="cls-5" d="M1255 345h170.11"/><path d="M1416.27 355.91l-1.82-1.96 9.63-8.95-9.63-8.95 1.82-1.95L1428 345l-11.73 10.91z"/><path class="cls-5" d="M1465 345V186.5H465v124.61"/><path d="M454.09 302.27l1.96-1.82 8.95 9.63 8.95-9.63 1.95 1.82L465 314l-10.91-11.73z"/><circle cx="965" cy="186.5" r="97.5" stroke-width="4" stroke="#000" stroke-miterlimit="10" fill="#fffc19"/><text class="cls-7" transform="translate(891.5 154.96)">次回の来訪時に<tspan x="-10.5" y="36.75">今回のお支払いと</tspan><tspan x="26.25" y="73.5">なります</tspan><tspan class="cls-8" x="110.25" y="73.5">。</tspan></text><text class="cls-9" transform="translate(416.25 507)">スタジオで</text><text class="cls-9" transform="translate(607.75 557)">ご自宅などからメールで</text><text class="cls-9" transform="translate(926 607)">メールで</text><path class="cls-5" d="M1255 364l2.12 2.12"/><path stroke-dasharray="5.72 5.72" stroke-width="4" stroke="#000" stroke-miterlimit="10" fill="none" stroke-linecap="round" d="M1261.16 370.16l62.65 62.65"/><path class="cls-5" d="M1325.83 434.83l2.13 2.13"/><path d="M1314 438.42l.09-2.67 13.14.48-.48-13.14 2.67-.09.58 16-16-.58z"/><text class="cls-3" transform="translate(1295.76 467.76)">つづけない<tspan font-size="16"><tspan x="-20" y="19.96">（事後の連絡もなし</tspan><tspan class="cls-8" x="124" y="19.96">）</tspan></tspan></text><text class="cls-7" transform="translate(1244.5 418)">なし</text><text class="cls-7" transform="translate(1313.5 332.82)">あり</text><text transform="translate(467 737)" font-size="120" font-family="KozGoPr6N-Regular-83pv-RKSJ-H,Kozuka Gothic Pr6N" fill="#fff">無 料</text></g></g></svg>