<svg xmlns="http://www.w3.org/2000/svg" viewBox="0 0 471.07 189.5"><g id="レイヤー_2" data-name="レイヤー 2"><g id="レイヤー_3" data-name="レイヤー 3"><path d="M105,68a37.5,37.5,0,1,0,37.5,37.5A37.5,37.5,0,0,0,105,68Zm0,60a22.5,22.5,0,1,1,22.5-22.5A22.5,22.5,0,0,1,105,128Z"/><polygon points="150 68 150 83 172.5 83 172.5 143 187.5 143 187.5 83 210 83 210 68 150 68"/><polygon points="0 68 0 83 0 143 15 143 15 83 60 83 60 68 0 68"/><rect x="28.5" y="96.5" width="18" height="18"/><path d="M255,68a37.5,37.5,0,1,0,37.5,37.5A37.5,37.5,0,0,0,255,68Zm0,60a22.5,22.5,0,1,1,22.5-22.5A22.5,22.5,0,0,1,255,128Z"/><polygon points="441.5 15 315.04 189.5 333.39 189.5 471.07 0 277.75 0 278 15 441.5 15"/><polygon points="296.31 189.5 412.19 30 277.75 30 278 45 383 45 277.5 189.5 296.31 189.5"/></g></g></svg>