<svg xmlns="http://www.w3.org/2000/svg" viewBox="0 0 471.07 189.5"><g data-name="レイヤー 2"><g data-name="レイヤー 3"><path d="M105 68a37.5 37.5 0 1037.5 37.5A37.5 37.5 0 00105 68zm0 60a22.5 22.5 0 1122.5-22.5A22.5 22.5 0 01105 128zM150 68v15h22.5v60h15V83H210V68h-60zM0 68v75h15V83h45V68H0z"/><path d="M28.5 96.5h18v18h-18zM255 68a37.5 37.5 0 1037.5 37.5A37.5 37.5 0 00255 68zm0 60a22.5 22.5 0 1122.5-22.5A22.5 22.5 0 01255 128zM441.5 15L315.04 189.5h18.35L471.07 0H277.75l.25 15h163.5z"/><path d="M296.31 189.5L412.19 30H277.75l.25 15h105L277.5 189.5h18.81z"/></g></g></svg>