<svg xmlns="http://www.w3.org/2000/svg" viewBox="0 0 720 431.11"><defs><style>.cls-1{fill:#f3edd3}.cls-2{fill:#231f20}.cls-3,.cls-8{fill:none;stroke-miterlimit:10}.cls-3{stroke:#ff67a3;stroke-width:1.1px}.cls-4{fill:#ff67a3}.cls-6{fill:#ff6e75}.cls-7{fill:#fffcfe}.cls-8{stroke:#231f20;stroke-width:.5px}</style></defs><g id="レイヤー_2" data-name="レイヤー 2"><g id="レイヤー_2-2" data-name="レイヤー 2"><path class="cls-1" d="M360 0h360v431.11H0V0h360z"/><circle class="cls-2" cx="455.11" cy="219.11" r="161.19" transform="rotate(-45 455.111 219.117)"/><path class="cls-3" d="M290.17 6.07H360V75.9h-69.83zM290.17 285.38H360v69.83h-69.83zM220.35 75.9h69.83v69.83h-69.83z"/><path class="cls-3" d="M220.35 6.07h69.83V75.9h-69.83zM429.83 215.56h69.83v69.83h-69.83zM220.35 145.73h69.83v69.83h-69.83zM429.83 145.73h69.83v69.83h-69.83zM360 215.56h69.83v69.83H360zM290.17 215.56H360v69.83h-69.83zM360 145.73h69.83v69.83H360z"/><path class="cls-3" d="M290.17 145.73H360v69.83h-69.83zM360 75.9h69.83v69.83H360zM150.52 285.38h69.83v69.83h-69.83z"/><path class="cls-3" d="M150.52 215.56h69.83v69.83h-69.83zM150.52 355.21h69.83v69.83h-69.83z"/><path class="cls-3" d="M220.35 355.21h69.83v69.83h-69.83z"/><path class="cls-3" d="M290.17 355.21H360v69.83h-69.83zM150.52 145.73h69.83v69.83h-69.83zM360 6.07h69.83V75.9H360z"/><path class="cls-3" d="M150.52 75.9h69.83v69.83h-69.83zM499.65 145.73h69.83v69.83h-69.83zM499.65 215.56h69.83v69.83h-69.83z"/><circle class="cls-4" cx="388.99" cy="286.55" r="135.11"/><path class="cls-1" d="M300.07 286.55c65.28 65.24 112.49 65.24 177.77 0-65.28-65.25-112.49-65.25-177.77 0 .03-.03.01-.02 0 0zm60.76-.26A28.17 28.17 0 11389 314.46a28.16 28.16 0 01-28.17-28.17z"/><circle class="cls-2" cx="388.99" cy="286.29" r="15.36"/><path class="cls-4" d="M.89 177.77V160a160 160 0 00160-160h17.77A177.77 177.77 0 01.89 177.77z"/><path stroke="#fffcfe" stroke-width="3" fill="none" stroke-miterlimit="10" d="M356.4 407.38h74.08"/><path class="cls-6" d="M239.99 14.52l-72.31 144.62H312.3L239.99 14.52z"/><path class="cls-6" transform="rotate(-180 191.66 351.985)" d="M101.59 335.06h180.15v33.86H101.59z"/><path class="cls-6" transform="rotate(-180 60.105 320.325)" d="M49.44 309.66h21.33v21.33H49.44z"/><path class="cls-6" transform="rotate(-180 28.74 402.37)" d="M0 373.63h57.48v57.48H0z"/><path class="cls-4" transform="rotate(-180 42.52 388.595)" d="M13.78 359.85h57.48v57.48H13.78z"/><path class="cls-6" transform="rotate(-180 691.85 28.15)" d="M663.7 0H720v56.3h-56.3z"/><path class="cls-6" transform="rotate(-180 709.335 10.665)" d="M698.67 0H720v21.33h-21.33z"/><path class="cls-7" d="M105.84 29.5v1.59H90.77v57h-1.59V29.5zM50.77 88.33a19.48 19.48 0 01-11.68-3.64 23.54 23.54 0 01-7.86-10.33 40.1 40.1 0 01-2.81-15.57 40.1 40.1 0 012.81-15.57 23.6 23.6 0 017.86-10.33 19.48 19.48 0 0111.68-3.64 19.43 19.43 0 0111.67 3.64 23.54 23.54 0 017.87 10.33 40.1 40.1 0 012.8 15.57 40.1 40.1 0 01-2.8 15.57 23.48 23.48 0 01-7.87 10.33 19.43 19.43 0 01-11.67 3.64zm0-1.59a17.76 17.76 0 0010.79-3.43 22.14 22.14 0 007.29-9.75 38.86 38.86 0 002.59-14.77A38.9 38.9 0 0068.85 44a22.14 22.14 0 00-7.29-9.75 17.76 17.76 0 00-10.79-3.43A17.81 17.81 0 0040 34.27 22.2 22.2 0 0032.69 44a38.7 38.7 0 00-2.59 14.79 38.67 38.67 0 002.59 14.77A22.2 22.2 0 0040 83.31a17.81 17.81 0 0010.77 3.43z"/><path class="cls-6" transform="rotate(-180 552.405 127.985)" d="M478.48 124.3h147.86v7.37H478.48z"/><path class="cls-7" transform="rotate(-180 165.93 233.625)" d="M0 225.36h331.86v16.53H0z"/><path class="cls-7" transform="rotate(-180 640.57 109.565)" d="M561.14 98.13H720V121H561.14z"/><path class="cls-7" transform="rotate(-180 339.81 11.435)" d="M313.74 0h52.15v22.87h-52.15z"/><path class="cls-7" transform="rotate(-90 514.92 415.94)" d="M499.75 404.5h30.34v22.87h-30.34z"/><circle class="cls-4" cx="636.11" cy="346.99" r="51.56"/><path class="cls-8" d="M101.55 275.48v119.11M110.87 276.21L92.23 393.86M119.95 278.4l-36.8 113.28M128.59 281.97L74.51 388.1M136.56 286.86l-70.02 96.36M143.66 292.92l-84.22 84.23M149.73 300.03l-96.36 70.01M154.61 308L48.49 362.07M158.19 316.63L44.91 353.44M160.37 325.72L42.73 344.35M161.11 335.04H41.99M160.37 344.35L42.73 325.72M158.19 353.44L44.91 316.63M154.61 362.07L48.49 308M149.73 370.04l-96.36-70.01M143.66 377.15l-84.22-84.23M136.56 383.22l-70.02-96.36M128.59 388.1L74.51 281.97M119.95 391.68L83.15 278.4M110.87 393.86L92.23 276.21"/><path class="cls-2" d="M613.74 95.76a6.52 6.52 0 116.51 6.52 6.51 6.51 0 01-6.51-6.52z"/></g></g></svg>