<svg xmlns="http://www.w3.org/2000/svg" viewBox="0 0 720 431.11"><defs><style>.cls-1{fill:#f3edd3;}.cls-2{fill:#231f20;}.cls-3,.cls-5,.cls-8{fill:none;stroke-miterlimit:10;}.cls-3{stroke:#ff67a3;stroke-width:1.1px;}.cls-4{fill:#ff67a3;}.cls-5{stroke:#fffcfe;stroke-width:3px;}.cls-6{fill:#ff6e75;}.cls-7{fill:#fffcfe;}.cls-8{stroke:#231f20;stroke-width:0.5px;}</style></defs><g id="レイヤー_2" data-name="レイヤー 2"><g id="レイヤー_2-2" data-name="レイヤー 2"><polygon class="cls-1" points="360 0 720 0 720 431.11 360 431.11 0 431.11 0 0 360 0"/><circle class="cls-2" cx="455.11" cy="219.11" r="161.19" transform="translate(-21.64 385.99) rotate(-45)"/><rect class="cls-3" x="290.17" y="6.07" width="69.83" height="69.83"/><rect class="cls-3" x="290.17" y="285.38" width="69.83" height="69.83"/><rect class="cls-3" x="220.35" y="75.9" width="69.83" height="69.83"/><rect class="cls-3" x="220.35" y="6.07" width="69.83" height="69.83"/><rect class="cls-3" x="429.83" y="215.56" width="69.83" height="69.83"/><rect class="cls-3" x="220.35" y="145.73" width="69.83" height="69.83"/><rect class="cls-3" x="429.83" y="145.73" width="69.83" height="69.83"/><rect class="cls-3" x="360" y="215.56" width="69.83" height="69.83"/><rect class="cls-3" x="290.17" y="215.56" width="69.83" height="69.83"/><rect class="cls-3" x="360" y="145.73" width="69.83" height="69.83"/><rect class="cls-3" x="290.17" y="145.73" width="69.83" height="69.83"/><rect class="cls-3" x="360" y="75.9" width="69.83" height="69.83"/><rect class="cls-3" x="150.52" y="285.38" width="69.83" height="69.83"/><rect class="cls-3" x="150.52" y="215.56" width="69.83" height="69.83"/><rect class="cls-3" x="150.52" y="355.21" width="69.83" height="69.83"/><rect class="cls-3" x="220.35" y="355.21" width="69.83" height="69.83"/><rect class="cls-3" x="290.17" y="355.21" width="69.83" height="69.83"/><rect class="cls-3" x="150.52" y="145.73" width="69.83" height="69.83"/><rect class="cls-3" x="360" y="6.07" width="69.83" height="69.83"/><rect class="cls-3" x="150.52" y="75.9" width="69.83" height="69.83"/><rect class="cls-3" x="499.65" y="145.73" width="69.83" height="69.83"/><rect class="cls-3" x="499.65" y="215.56" width="69.83" height="69.83"/><circle class="cls-4" cx="388.99" cy="286.55" r="135.11"/><path class="cls-1" d="M300.07,286.55l0,0c65.28,65.24,112.49,65.24,177.77,0l0,0s0,0,0,0c-65.28-65.25-112.49-65.25-177.77,0C300.1,286.52,300.08,286.53,300.07,286.55Zm60.76-.26A28.17,28.17,0,1,1,389,314.46,28.16,28.16,0,0,1,360.83,286.29Z"/><circle class="cls-2" cx="388.99" cy="286.29" r="15.36"/><path class="cls-4" d="M.89,177.77V160a160,160,0,0,0,160-160h17.77A177.77,177.77,0,0,1,.89,177.77Z"/><line class="cls-5" x1="356.4" y1="407.38" x2="430.48" y2="407.38"/><polygon class="cls-6" points="239.99 14.52 167.68 159.14 312.3 159.14 239.99 14.52"/><rect class="cls-6" x="101.59" y="335.06" width="180.15" height="33.86" transform="translate(383.32 703.97) rotate(-180)"/><rect class="cls-6" x="49.44" y="309.66" width="21.33" height="21.33" transform="translate(120.21 640.65) rotate(-180)"/><rect class="cls-6" y="373.63" width="57.48" height="57.48" transform="translate(57.48 804.74) rotate(-180)"/><rect class="cls-4" x="13.78" y="359.85" width="57.48" height="57.48" transform="translate(85.04 777.19) rotate(-180)"/><rect class="cls-6" x="663.7" width="56.3" height="56.3" transform="translate(1383.7 56.3) rotate(-180)"/><rect class="cls-6" x="698.67" width="21.33" height="21.33" transform="translate(1418.67 21.33) rotate(-180)"/><path class="cls-7" d="M105.84,29.5v1.59H90.77v57H89.18V29.5Z"/><path class="cls-7" d="M50.77,88.33a19.48,19.48,0,0,1-11.68-3.64,23.54,23.54,0,0,1-7.86-10.33,40.1,40.1,0,0,1-2.81-15.57,40.1,40.1,0,0,1,2.81-15.57,23.6,23.6,0,0,1,7.86-10.33,19.48,19.48,0,0,1,11.68-3.64,19.43,19.43,0,0,1,11.67,3.64,23.54,23.54,0,0,1,7.87,10.33,40.1,40.1,0,0,1,2.8,15.57,40.1,40.1,0,0,1-2.8,15.57,23.48,23.48,0,0,1-7.87,10.33A19.43,19.43,0,0,1,50.77,88.33Zm0-1.59a17.76,17.76,0,0,0,10.79-3.43,22.14,22.14,0,0,0,7.29-9.75,38.86,38.86,0,0,0,2.59-14.77A38.9,38.9,0,0,0,68.85,44a22.14,22.14,0,0,0-7.29-9.75,17.76,17.76,0,0,0-10.79-3.43A17.81,17.81,0,0,0,40,34.27,22.2,22.2,0,0,0,32.69,44,38.7,38.7,0,0,0,30.1,58.79a38.67,38.67,0,0,0,2.59,14.77A22.2,22.2,0,0,0,40,83.31,17.81,17.81,0,0,0,50.77,86.74Z"/><rect class="cls-6" x="478.48" y="124.3" width="147.86" height="7.37" transform="translate(1104.81 255.97) rotate(-180)"/><rect class="cls-7" y="225.36" width="331.86" height="16.53" transform="translate(331.86 467.25) rotate(-180)"/><rect class="cls-7" x="561.14" y="98.13" width="158.86" height="22.87" transform="translate(1281.14 219.13) rotate(-180)"/><rect class="cls-7" x="313.74" width="52.15" height="22.87" transform="translate(679.62 22.87) rotate(-180)"/><rect class="cls-7" x="499.75" y="404.5" width="30.34" height="22.87" transform="translate(98.98 930.86) rotate(-90)"/><circle class="cls-4" cx="636.11" cy="346.99" r="51.56"/><line class="cls-8" x1="101.55" y1="275.48" x2="101.55" y2="394.59"/><line class="cls-8" x1="110.87" y1="276.21" x2="92.23" y2="393.86"/><line class="cls-8" x1="119.95" y1="278.4" x2="83.15" y2="391.68"/><line class="cls-8" x1="128.59" y1="281.97" x2="74.51" y2="388.1"/><line class="cls-8" x1="136.56" y1="286.86" x2="66.54" y2="383.22"/><line class="cls-8" x1="143.66" y1="292.92" x2="59.44" y2="377.15"/><line class="cls-8" x1="149.73" y1="300.03" x2="53.37" y2="370.04"/><line class="cls-8" x1="154.61" y1="308" x2="48.49" y2="362.07"/><line class="cls-8" x1="158.19" y1="316.63" x2="44.91" y2="353.44"/><line class="cls-8" x1="160.37" y1="325.72" x2="42.73" y2="344.35"/><line class="cls-8" x1="161.11" y1="335.04" x2="41.99" y2="335.04"/><line class="cls-8" x1="160.37" y1="344.35" x2="42.73" y2="325.72"/><line class="cls-8" x1="158.19" y1="353.44" x2="44.91" y2="316.63"/><line class="cls-8" x1="154.61" y1="362.07" x2="48.49" y2="308"/><line class="cls-8" x1="149.73" y1="370.04" x2="53.37" y2="300.03"/><line class="cls-8" x1="143.66" y1="377.15" x2="59.44" y2="292.92"/><line class="cls-8" x1="136.56" y1="383.22" x2="66.54" y2="286.86"/><line class="cls-8" x1="128.59" y1="388.1" x2="74.51" y2="281.97"/><line class="cls-8" x1="119.95" y1="391.68" x2="83.15" y2="278.4"/><line class="cls-8" x1="110.87" y1="393.86" x2="92.23" y2="276.21"/><path class="cls-2" d="M613.74,95.76a6.52,6.52,0,1,1,6.51,6.52A6.51,6.51,0,0,1,613.74,95.76Z"/></g></g></svg>