<svg xmlns="http://www.w3.org/2000/svg" viewBox="0 0 180 180"><g data-name="レイヤー 2"><g data-name="レイヤー 3"><path d="M76.06 25.35h11.83v11.83H76.06zM87.89 25.35h11.83v11.83H87.89zM99.72 25.35h11.83v11.83H99.72zM76.06 52.39a7.61 7.61 0 110-15.21V25.35a19.44 19.44 0 000 38.88zM111.55 25.35h11.83v11.83h-11.83zM103.1 79.44a7.61 7.61 0 000-15.21V52.39a19.44 19.44 0 110 38.88zM76.06 52.39h11.83v11.83H76.06zM87.89 52.39h11.83v11.83H87.89zM76.06 91.27V79.44a19.43 19.43 0 00-19.44 19.43h11.83a7.61 7.61 0 017.61-7.6zM76.06 79.44h11.83v11.83H76.06zM87.89 79.44h11.83v11.83H87.89zM99.72 52.39h3.38v11.83h-3.38zM99.72 79.44h3.38v11.83h-3.38zM110.7 119.16h11.83v11.83H110.7zM110.7 130.99h11.83v11.83H110.7z"/><path d="M110.7 142.82h11.83v11.83H110.7zM95.49 119.16a7.61 7.61 0 1115.21 0h11.84a19.44 19.44 0 00-38.88 0zM68.45 134.37a7.61 7.61 0 0015.21 0h11.83a19.44 19.44 0 01-38.87 0zM83.66 119.16h11.83v11.83H83.66zM56.62 122.54h11.83v11.83H56.62zM83.66 130.99h11.83v3.38H83.66zM56.62 98.87h11.83v11.83H56.62zM56.62 110.7h11.83v11.83H56.62z"/><path d="M90 0a90 90 0 1090 90A90 90 0 0090 0zm0 168.17A78.17 78.17 0 11168.17 90 78.17 78.17 0 0190 168.17z"/></g></g></svg>