<svg xmlns="http://www.w3.org/2000/svg" viewBox="0 0 180 180"><g id="レイヤー_2" data-name="レイヤー 2"><g id="レイヤー_3" data-name="レイヤー 3"><rect x="76.06" y="25.35" width="11.83" height="11.83"/><rect x="87.89" y="25.35" width="11.83" height="11.83"/><rect x="99.72" y="25.35" width="11.83" height="11.83"/><path d="M76.06,52.39a7.61,7.61,0,1,1,0-15.21V25.35a19.44,19.44,0,0,0,0,38.88Z"/><rect x="111.55" y="25.35" width="11.83" height="11.83"/><path d="M103.1,79.44a7.61,7.61,0,0,0,0-15.21V52.39a19.44,19.44,0,1,1,0,38.88Z"/><rect x="76.06" y="52.39" width="11.83" height="11.83"/><rect x="87.89" y="52.39" width="11.83" height="11.83"/><path d="M76.06,91.27V79.44A19.43,19.43,0,0,0,56.62,98.87H68.45A7.61,7.61,0,0,1,76.06,91.27Z"/><rect x="76.06" y="79.44" width="11.83" height="11.83"/><rect x="87.89" y="79.44" width="11.83" height="11.83"/><rect x="99.72" y="52.39" width="3.38" height="11.83"/><rect x="99.72" y="79.44" width="3.38" height="11.83"/><rect x="110.7" y="119.16" width="11.83" height="11.83"/><rect x="110.7" y="130.99" width="11.83" height="11.83"/><rect x="110.7" y="142.82" width="11.83" height="11.83"/><path d="M95.49,119.16a7.61,7.61,0,1,1,15.21,0h11.84a19.44,19.44,0,0,0-38.88,0Z"/><path d="M68.45,134.37a7.61,7.61,0,0,0,15.21,0H95.49a19.44,19.44,0,0,1-38.87,0Z"/><rect x="83.66" y="119.16" width="11.83" height="11.83"/><rect x="56.62" y="122.54" width="11.83" height="11.83"/><rect x="83.66" y="130.99" width="11.83" height="3.38"/><rect x="56.62" y="98.87" width="11.83" height="11.83"/><rect x="56.62" y="110.7" width="11.83" height="11.83"/><path d="M90,0a90,90,0,1,0,90,90A90,90,0,0,0,90,0Zm0,168.17A78.17,78.17,0,1,1,168.17,90,78.17,78.17,0,0,1,90,168.17Z"/></g></g></svg>