<svg xmlns="http://www.w3.org/2000/svg" viewBox="0 0 369.32 90"><defs><style>.cls-1{fill:#231815;}</style></defs><g id="レイヤー_2" data-name="レイヤー 2"><g id="レイヤー_3" data-name="レイヤー 3"><path class="cls-1" d="M118.71,42.87c.91,2.74,3.09,4.53,8.35,4.53,4.93,0,6.36-1.5,6.36-3.54s-1.46-3.42-8.14-4.55c-11-1.88-13-5.46-13-9.71,0-6.33,6.09-9.56,13.58-9.56,10.88,0,13.83,5.59,14.19,9.27h-7.7c-.45-1.56-1.5-3.67-6.73-3.67-3.66,0-5.52,1.17-5.52,3.22,0,1.83,1.31,2.75,7.25,3.82,12.05,2.16,13.93,5.79,13.93,10.39,0,5.49-4.31,9.93-14.94,9.93C116.43,53,112,48.58,111,42.87Z"/><path class="cls-1" d="M165.85,20.67V38.59c0,6.74,3.53,8.45,7.43,8.45,4.15,0,6.92-1.79,6.92-8.45V20.67h7.69V38.84c0,9.62-5.41,14.2-14.82,14.2-9.12,0-14.91-4.19-14.91-14V20.67Z"/><path class="cls-1" d="M213.92,26.8H202.76V20.67h30V26.8H221.61V52.37h-7.69Z"/><path class="cls-1" d="M255.36,26.8H244.21V20.67h30V26.8H263.06V52.37h-7.7Z"/><path class="cls-1" d="M321.77,36.41c0,8.78-5.85,16.63-17.38,16.63-10.75,0-16.89-7.34-16.89-16.59C287.5,27.73,294,20,304.74,20,315.81,20,321.77,27.77,321.77,36.41Zm-26.16-.06c0,6,3,10.69,9.21,10.69,6.39,0,8.85-5.39,8.85-10.54,0-5.61-2.74-10.49-9.16-10.49C298.34,26,295.61,31,295.61,36.35Z"/><path class="cls-1" d="M338.9,52.37V20.67H348c8.9,13.59,12.46,18.54,14.44,22.31h.09c-.31-3.33-.26-9.26-.26-14.48V20.67h7v31.7h-8.53c-3-4.72-13.13-20.47-15-24.1h-.09c.27,3.92.27,8.42.27,14.05v10Z"/><path class="cls-1" d="M141.37,67.59H143v4.59c1.45-1.25,3.55-3,5.37-4.59h2l-4.78,4.11,5.06,5.47h-2l-4.2-4.61L143,73.71v3.46h-1.58Z"/><path class="cls-1" d="M164.3,72.35a5.06,5.06,0,0,1-10.12,0,4.89,4.89,0,0,1,5.09-5A4.84,4.84,0,0,1,164.3,72.35Zm-8.45,0c0,2,1.18,3.76,3.43,3.76s3.35-1.74,3.35-3.69a3.41,3.41,0,0,0-3.44-3.7A3.36,3.36,0,0,0,155.85,72.31Z"/><path class="cls-1" d="M169.6,67.59h1.58v4.59c1.45-1.25,3.55-3,5.37-4.59h2l-4.78,4.11,5.06,5.47h-2l-4.2-4.61-1.43,1.15v3.46H169.6Z"/><path class="cls-1" d="M184.49,67.59V73c0,2.39,1.38,3,2.77,3,1.63,0,2.64-.76,2.64-3V67.59h1.58V73c0,3.07-1.63,4.34-4.27,4.34s-4.3-1.27-4.3-4.25V67.59Z"/><path class="cls-1" d="M197.27,67.59h4.78c2.11,0,3.16,1,3.16,2.42a2.06,2.06,0,0,1-1.52,2,2.35,2.35,0,0,1,1.9,2.3c0,1.89-1.53,2.82-3.5,2.82h-4.82Zm4.4,3.9c1.3,0,1.89-.47,1.89-1.32,0-1-.8-1.33-1.84-1.33h-2.88v2.65Zm-2.83,4.43h2.94c1.08,0,2.14-.33,2.14-1.59,0-1.06-.82-1.59-2.22-1.59h-2.86Z"/><path class="cls-1" d="M212.25,67.59V73c0,2.39,1.38,3,2.76,3,1.64,0,2.64-.76,2.64-3V67.59h1.59V73c0,3.07-1.63,4.34-4.28,4.34s-4.29-1.27-4.29-4.25V67.59Z"/><path class="cls-1" d="M225,77.17V67.59h1.89c2.28,3.26,4.88,6.62,5.43,7.64h0c-.09-1.19-.07-2.77-.07-4.33V67.59h1.47v9.58H232c-1.3-1.8-4.89-6.87-5.55-8h0c.08,1.22.08,2.58.08,4.28v3.7Z"/><path class="cls-1" d="M243.13,73.84c0,2.42-.95,3.52-3.12,3.52a6.82,6.82,0,0,1-1.31-.11V75.94a6.67,6.67,0,0,0,1.16.09c1.27,0,1.68-.86,1.68-2.1V67.59h1.59Z"/><path class="cls-1" d="M250.51,67.59v9.58h-1.59V67.59Z"/><path class="cls-1" d="M265.58,74.31c.2.63.69,1.1,1.93,1.1s1.43-.33,1.43-.81-.3-.8-2.08-1.11c-3.51-.61-4-1.81-4-3.06,0-1.88,1.76-3,4.36-3,3.16,0,4.43,1.46,4.55,2.86h-3c-.11-.42-.38-.9-1.56-.9-.83,0-1.23.27-1.23.71s.4.65,1.87.91c3.59.65,4.29,1.77,4.29,3.2,0,1.82-1.53,3.13-4.75,3.13s-4.61-1.35-4.89-3.06Z"/><path class="cls-1" d="M279.19,69.86h-3.13V67.67h9.34v2.19h-3.12v7.31h-3.09Z"/><path class="cls-1" d="M292.82,67.67v5.5c0,1.51.73,2,1.75,2s1.63-.56,1.63-2v-5.5h3.09v5.51c0,2.76-1.54,4.2-4.8,4.2s-4.76-1.36-4.76-4.2V67.67Z"/><path class="cls-1" d="M304.63,67.67h4.81c3.43,0,5.16,2.09,5.16,4.59,0,2.94-2.14,4.91-5.19,4.91h-4.78ZM307.72,75h1.33c1.53,0,2.3-.92,2.3-2.69,0-1.46-.61-2.53-2.29-2.55h-1.34Z"/><path class="cls-1" d="M322.61,67.67v9.5h-3.09v-9.5Z"/><path class="cls-1" d="M338.35,72.39c0,2.69-1.77,5-5.5,5-3.43,0-5.32-2.19-5.32-5,0-2.62,1.84-5,5.46-5C336.42,67.45,338.35,69.7,338.35,72.39Zm-7.57,0c0,1.65.66,2.88,2.22,2.88s2.1-1.4,2.1-2.82c0-1.65-.58-2.86-2.19-2.86S330.78,70.81,330.78,72.36Z"/><rect class="cls-1" x="38.03" y="12.68" width="5.92" height="5.92"/><rect class="cls-1" x="43.94" y="12.68" width="5.92" height="5.92"/><rect class="cls-1" x="49.86" y="12.68" width="5.92" height="5.92"/><path class="cls-1" d="M38,26.2a3.81,3.81,0,0,1,0-7.61V12.68a9.72,9.72,0,1,0,0,19.43Z"/><rect class="cls-1" x="55.77" y="12.68" width="5.92" height="5.92"/><path class="cls-1" d="M51.55,39.72a3.81,3.81,0,0,0,0-7.61V26.2a9.72,9.72,0,1,1,0,19.43Z"/><rect class="cls-1" x="38.03" y="26.2" width="5.92" height="5.92"/><rect class="cls-1" x="43.94" y="26.2" width="5.92" height="5.92"/><path class="cls-1" d="M38,45.63V39.72a9.72,9.72,0,0,0-9.72,9.72h5.92A3.81,3.81,0,0,1,38,45.63Z"/><rect class="cls-1" x="38.03" y="39.72" width="5.92" height="5.92"/><rect class="cls-1" x="43.94" y="39.72" width="5.92" height="5.92"/><rect class="cls-1" x="49.86" y="26.2" width="1.69" height="5.92"/><rect class="cls-1" x="49.86" y="39.72" width="1.69" height="5.92"/><rect class="cls-1" x="55.35" y="59.58" width="5.92" height="5.92" transform="translate(120.85 4.23) rotate(90)"/><rect class="cls-1" x="55.35" y="65.49" width="5.92" height="5.92" transform="translate(126.76 10.14) rotate(90)"/><rect class="cls-1" x="55.35" y="71.41" width="5.92" height="5.92" transform="translate(132.68 16.06) rotate(90)"/><path class="cls-1" d="M47.75,59.58a3.8,3.8,0,1,1,7.6,0h5.92a9.72,9.72,0,0,0-19.44,0Z"/><path class="cls-1" d="M34.23,67.18a3.8,3.8,0,1,0,7.6,0h5.92a9.72,9.72,0,0,1-19.44,0Z"/><rect class="cls-1" x="41.83" y="59.58" width="5.92" height="5.92" transform="translate(107.32 17.75) rotate(90)"/><rect class="cls-1" x="28.31" y="61.27" width="5.92" height="5.92" transform="translate(95.49 32.96) rotate(90)"/><rect class="cls-1" x="43.94" y="63.38" width="1.69" height="5.92" transform="translate(111.13 21.55) rotate(90)"/><rect class="cls-1" x="28.31" y="49.44" width="5.92" height="5.92" transform="translate(83.66 21.13) rotate(90)"/><rect class="cls-1" x="28.31" y="55.35" width="5.92" height="5.92" transform="translate(89.58 27.04) rotate(90)"/><path class="cls-1" d="M45,0A45,45,0,1,0,90,45,45,45,0,0,0,45,0Zm0,84.08A39.08,39.08,0,1,1,84.08,45,39.07,39.07,0,0,1,45,84.08Z"/></g></g></svg>