<?xml version="1.0" encoding="utf-8"?>
<!-- Generator: Adobe Illustrator 25.0.1, SVG Export Plug-In . SVG Version: 6.00 Build 0)  -->
<svg version="1.1" id="レイヤー_1" xmlns="http://www.w3.org/2000/svg" xmlns:xlink="http://www.w3.org/1999/xlink" x="0px"
	 y="0px" viewBox="0 0 701 513" style="enable-background:new 0 0 701 513;" xml:space="preserve">
<style type="text/css">
	.st0{fill:#708080;}
	.st1{fill:#FFFC19;}
	.st2{fill:#0DABFF;}
	.st3{fill:#D5D5D2;}
</style>
<g id="レイヤー_2_1_">
	<g id="レイヤー_4">
		<path class="st0" d="M448.1,78.5c0,0-3.9-5.4-2.4-8.9s3.7-8,8.3-7.7s20.5-0.5,20.5-0.5s19.5-2.3,27.1,5.9s8.6,19.9,7.6,25.8
			s-9,36.1-9,36.1s-6.8-5.9-11.8-5.6l5.4-7.6c0,0,1-5-0.1-6.3s-4.3-0.6-4.3-0.6l-4.9,5.7c0,0,0.9-10.6-2-14.6s-6.8-8-6.7-11.9
			c0.2-2.9,0.7-5.8,1.6-8.6c0,0-10.3-0.4-14-2.2s-9.5-4.9-9.5-4.9S449,76.8,448.1,78.5z"/>
		<polygon class="st1" points="471.9,165.4 474.6,169.5 471.9,189.4 474.6,212.6 478.4,231.2 481.6,231.2 484.9,195.2 480.3,171.5 
			484.8,166.6 479,156.6 		"/>
		<path class="st2" d="M464.1,268.4c0,0-13.9,8.8-19.7,10.3s-29.2,9-29.2,9l-1.3,127.9l3.1-1.3l4.2-84.2l8.1-1.7
			c0,0,1.8,23.1,1.7,34.1s0.6,66.4,0.6,66.4s12.2,0.4,16.8,1.5s13.1,6.2,14.6,3.8l-1-18.6l5.1-81.1l9.5-1.9c0,0-1.4-46.9,0-50.9
			c1.4-4,2.6-14.6,2.6-14.6L464.1,268.4z"/>
		<path class="st2" d="M391.2,319.7c0,0-3.9,37.5-4.6,53s-1.3,32.6-1.3,32.6l6.5,3C391.8,408.4,392.2,324.7,391.2,319.7z"/>
		<path class="st2" d="M143,211.8v12.1c3,4.6,5.4,9.6,7.1,14.9c2.4,7.8,6.4,26.6,6.4,26.6s3.3,13.7,4.2,18.8
			c0.9,5.1,2.1,12.3,2.1,12.3s13,0,16.5,0.2s12-1.6,12-1.6c-4.2-1.4-8.4-2.6-12.7-3.6c-4.2-0.7-15.3-4.5-16.7-7.2s-0.9-7-0.9-7
			s12.1-4.5,14-5.4s12-0.7,14-0.6h2c0,0,7.2,6.3,9.3,7.3s2.2,0.3,2.2,0.3s2.1-10,0.7-17.2c-1.2-7.6-1.1-15.3,0.4-22.8
			c1.4-7.3,5.1-27.5,4.6-35.7c-0.5-8.1-3.4-19.8-3.4-19.8c0.2-2.6-0.1-5.2-0.7-7.6c-1.1-3.5-2.9-8.7-5.5-11.2
			c-2.6-2.3-5.4-4.5-8.3-6.4c0,0-11.5,16.1-13.1,18.3C175.8,178.6,143,211.8,143,211.8z"/>
		<path class="st1" d="M144,213.7c0,0,4.6,10.2,6.7,11.2c2,1,5,4.2,7.4,1.8s6-7.7,9.2-21s8.1-26.3,12.7-32.7s12.1-16.5,15.1-22.8
			s12.3-31.1,15.4-35.2c3.1-4,7.8-8,11.9-11.1s3,1.2,5.3-0.4s9.7-5.4,10.6-10.3s0.9-6.9-0.9-7.9s-6-2.4-7.6-3.5S213.9,71.1,204,69.5
			s-26.1,0.5-33,10.6c-6.9,10.2-9.5,22.8-8.7,34.9s-1.5,28.6-7.8,39.7c-6.3,11-13.6,31.2-13.6,38.5C141,200.7,143,211.6,144,213.7z"
			/>
		<path class="st0" d="M162.9,296.5c0,0,11.8,0.8,16.5,0.2c4.7-0.6,13.1-2.8,13.1-2.8s22.3,2,25.1,3s12.8,4.4,15.2,4.6
			s17.3-1,17.3-1l13.6,0.5c0,0,22.8-0.3,29.3,8.8s6.6,18.3,5.7,22.2s-15.1,38.7-15.1,38.7s-12,34.1-13.9,44.8c0,0-22.6,1.2-26.3-5.5
			c-0.5-0.9-8.2-0.3-8.8-2.4l-0.6-2c0,0,9-19.5,11.1-31.5s3.5-16.1,3.5-16.1s11.5-1,16-3.3s8.2-3.2,8.6-8.2s1.9-8.1-4.6-11.2
			c0,0-59.2,7.3-64.9,7.3s-20.9-0.1-28.9-4.6l-5-3.4L162.9,296.5z"/>
		<path class="st3" d="M500.1,128.2c0,0,0.4,12.8-1.7,17.6s-9.5,19.2-10.7,27.3s-6.1,57.2-6.1,57.2l-21,6.3c0,0,4,8.1,3.7,11
			s0.2,2.7,0.2,2.7s33.2,0.2,44.9-1.2c11.7-1.4,15.2-0.7,17.1-3.7l30.3,5.7c0,0-3.9-32.1-4.6-43.9s-7.5-48-9.9-51.5
			s-4.1-6.2-7.3-7.4s-28.1-13-28.1-13s-3.4-8.1-4.7-8.3C501.3,127,500.5,127.5,500.1,128.2z"/>
		<path class="st3" d="M470.1,141.1c0,0-0.6,33.8,0.6,41.1s3.1,21.8,3.8,25.1s3.8,24,3.8,24l-16.5,3.7l-1.6-0.6
			c0,0-0.5-13.5-1.1-18.4s-1.3-9.3-1.3-9.3s-10.8,20.2-13,22.5s-10.1,6.1-15.8,7.4s-37.1,6.7-37.1,6.7s1-4.3-1.2-7.4s-8-8.2-8-8.2
			s20.5-4.2,24.2-5.8s16.8-3.8,20-8.7s12.5-37.3,12.5-37.3s4.4-15.9,9-21.9s13.4-10.4,13.4-10.4S467.3,140.2,470.1,141.1z"/>
		<path class="st3" d="M444.3,270l-4.6,10c2.8-0.5,5.5-1.4,8-2.7c4.8-2.2,14.1-8.1,14.1-8.1L444.3,270z"/>
		<path class="st3" d="M498.8,338.1l1.2-0.5c-0.6-1.6-1.1-3.3-1.2-5c-0.1-2.9,1.6-20.1,2.2-24.7c0.6-4.6,4.2-19,6.7-22.7
			s10.7-8.9,17.5-10.6c5.4-1.3,24.1-4.5,31.6-5.7c-0.1-4.6-0.1-8.5-0.1-8.5l-78.3,6.9c0,0-2.4,35.1-2.2,43.4s1.5,40.8,6,60.3
			s5.6,28.6,7,29.8c1.4,1.2,2.7,1.6,3.1,0c0.4-1.7,6.1-17.5,6.2-20.7c0-3.3,0.2-9.3-1.6-12s-5-13.2-4.1-18.2
			S498.8,338.1,498.8,338.1z"/>
		<path class="st3" d="M524.4,284.7c-5.4,4-11.4,12.7-13.1,19.7c-1.3,5.3-2.7,22.6-3.3,30.4c6.8-2.5,15.9-5.8,21.8-7.9
			c10.4-3.7,22.9-13.6,24-22.8c1-8.2,2.8-19,3.1-25.9C547.1,279.3,528.3,281.7,524.4,284.7z"/>
		<path class="st1" d="M232.9,411.9c0,0-5.9,3.2-5.7,7.9l10.4,7.9l21.5,17.1c0,0,14.4,5,25.6,4.5c6.4-0.2,12.7-1.3,18.8-3.2
			c0,0,2.1-3.2,0-4.8c-2.1-1.7-6.8-6-15.5-4.4l-10.1-6.1l-2.3-0.6c0,0-12.2-0.9-16.5-4.1c-4.2-3.2-14.1-11-16.1-10.2
			c-2,0.7-1.8,1.7-1.8,1.7S235.1,416,232.9,411.9z"/>
		<path class="st0" d="M389.4,407.2c0,0-5.2,7.1-13.9,7.8s-22.4,0.1-22.3,3.8c0,3.7,3.3,8.1,3.3,8.1s15.4,4.9,21.4,3.7
			c4.6-0.8,9.3-1.4,14-1.8v-20.5L389.4,407.2z"/>
		<polygon class="st0" points="416.3,415.6 416.7,424.5 413.8,426 413.8,415.6 		"/>
		<path class="st0" d="M430.5,428.9l-15.9,13.3v10.7c0,0,8.1,3.3,15.4,2.7s11.6-3.6,13.6-5.9s4.8-7.1,9.7-8.2s6.5-2.3,6.5-2.3l1-4.2
			c0,0-10.5-4.7-13.6-5.4S433.4,428,430.5,428.9z"/>
		<path d="M463.9,233.8l-22.3-3.8c-1.4-0.2-1.5,2.1-0.1,2.3l22.3,3.7C465.2,236.3,465.3,234,463.9,233.8L463.9,233.8z"/>
		<path d="M526.5,246.6l19.4,3.2c4.8,0.8,12.2,2.6,15.9,2.2c-5.5,0.6-11.1,0.9-16.7,1.3l-91.8,7.2l-106.7,8.4l-37.1,2.9
			c-6.3,0.5-13,1.5-19.3,1s-12.8-3-18.9-5l-26.6-8.3l-41.8-13c-0.6-0.2-1.3,0.2-1.4,0.8s0.2,1.3,0.8,1.4
			c26.1,8.1,52.2,16.5,78.4,24.4c8.4,2.5,16.2,1.9,24.6,1.3l34.5-2.7l109.5-8.6l95.8-7.5l12-0.9c1.4-0.1,3.4,0.1,4.7-0.4
			c5.4-2-0.6-4.3-2.9-4.6l-25.7-4.3l-6.6-1.1C525.2,244.1,525.1,246.4,526.5,246.6L526.5,246.6z"/>
		<path d="M230.5,206c18-0.5,36.6-2.9,54.5,0.1l86.3,14.5l27,4.5c1.4,0.2,1.5-2.1,0.1-2.3l-67.2-11.3l-42.1-7.1
			c-5.6-0.9-10.9-2.1-16.6-2l-41.9,1.2C229.2,203.7,229.1,206,230.5,206L230.5,206z"/>
		<path d="M214.6,204.1l-6.2,0.2c-1.4,0-1.5,2.4-0.1,2.3l6.2-0.2C216,206.5,216.1,204.1,214.6,204.1z"/>
		<path d="M561.6,252.4c0,1.2,0.5,7,0.3,7.2s-1,0-1.2,0.1c-2,0.7-5.1,0.4-7.2,0.6l-30,2.4l-96.5,7.6l-94.4,7.4l-28.8,2.3
			c-7.7,0.6-14.8,1-22.5-1.3c-26.4-8-52.6-16.4-79-24.6c-0.6-0.1-1.2,0.3-1.4,0.9c-0.1,0.6,0.2,1.1,0.7,1.3l75.5,23.5
			c7.4,2.4,15.2,3.3,23,2.7l25.3-2l194-15.2l34.7-2.7c2.2-0.2,4.9,0,7.1-0.5c4-1,2.5-6,2.5-9.4c0.1-0.6-0.4-1.2-1-1.2
			c-0.6-0.1-1.2,0.4-1.2,1C561.6,252.3,561.6,252.4,561.6,252.4L561.6,252.4z"/>
		<path d="M390.7,274.1v168.8c0,3.5-0.2,7,0,10.4c0.2,3.3,2.2,4.1,5.4,5.5c4.7,2,17.1,3.1,18.9-3.8c0.4-1.7,0-4,0-5.7V274.1
			c0.1-0.6-0.4-1.2-1-1.2c-0.6-0.1-1.2,0.4-1.2,1c0,0.1,0,0.1,0,0.2v176.4c0,2,0.2,4-0.5,5c-2.1,2.8-8.4,2.8-11.3,2.3
			s-5-1.9-7.6-3.1c-1.2-0.5-0.5,1-0.4-0.6c0.1-3.1,0-6.2,0-9.3V274.1c0.1-0.6-0.4-1.2-1-1.2c-0.6-0.1-1.2,0.4-1.2,1
			C390.7,273.9,390.7,274,390.7,274.1L390.7,274.1z"/>
		<path d="M174.9,344.1c-5-5.4-5.5-15-6.6-21.9c-2.1-12.6-4.2-25.2-6.4-37.7c-2.3-13.1-4.8-26.2-8.5-39c-2.7-9.5-6-19.3-13.1-26.5
			c-6.8-7.1-16.4-10.7-26.2-9.7c-5.3,0.4-10.7,2.7-10.9,8.7c-0.2,5.9,2.5,12.4,4.3,17.9c5.7,18,13.6,36.3,15.9,55.3
			c1.4,11.7,0.7,23.7,1.6,35.4c0.5,7,0.7,16.1,5.5,21.7c5.2,6.1,13.9,10.1,21.2,13.1c7.4,3.1,14.8,4.7,22.9,4.2
			c10.8-0.8,21.6-1.5,32.4-2.4c16.9-1.4,33.9-2.7,50.6-5.8c5.3-1,10.8-2,14.4-6.4c4-4.8,4.1-13.7-2.1-16.9c-1.3-0.7-2.5,1.3-1.2,2
			c8.6,4.5,2,15.4-4.8,17.5c-4.6,1.3-9.3,2.2-14,2.7c-14.2,2.1-28.5,3.4-42.8,4.5c-10.4,0.9-20.8,1.6-31.1,2.3
			c-14.5,1-29.1-4.6-40.6-13.6c-7.1-5.6-7.6-14.5-8.2-23c-0.8-10.6-0.6-21.2-1.3-31.8c-1-16-7.1-31.8-12.1-46.9
			c-2.4-7.3-5-14.7-6.9-22.1c-0.8-2.3-1.2-4.8-1.4-7.2c0-4.8,3.6-6.5,7.9-7c9.9-1.3,19.8,2.4,26.3,9.9c8.1,8.9,11.1,21.7,13.9,33.1
			c3.1,12.5,5.3,25.3,7.6,38c2.1,11.9,3.9,23.9,6.1,35.9c1,5.8,2,12.6,6.2,17.1C174.3,346.8,175.9,345.2,174.9,344.1L174.9,344.1z"
			/>
		<path d="M208.8,404.5c-3.1,3-10.6,4.1-13.6,0.2c0.7,0.8,0.2-0.1,0.2-1.2c0-1.4,0-2.9,0-4.3v-17l-1.7,0.9c5.2,2.3,11.1,2.3,16.3,0
			l-1.6-1.1v23.2c0,1.5,2.2,1.6,2.2,0.1v-23.2c0-0.6-0.4-1.1-1-1.2c-0.2,0-0.4,0-0.6,0.1c-4.5,1.9-9.6,1.9-14.1,0
			c-0.5-0.3-1.2-0.2-1.5,0.4c-0.1,0.2-0.2,0.4-0.2,0.6v9.6c0,4.1-0.8,9,0,13c1.3,6.9,13.2,5.4,17.1,1.6
			C211.3,405.2,209.9,403.5,208.8,404.5z"/>
		<path d="M193.9,363.3V382c-0.1,0.6,0.4,1.2,1,1.2c0.6,0.1,1.2-0.4,1.2-1c0-0.1,0-0.1,0-0.2v-18.7c0.1-0.6-0.4-1.2-1-1.2
			c-0.6-0.1-1.2,0.4-1.2,1C193.9,363.2,193.9,363.3,193.9,363.3z"/>
		<path d="M207.9,363.3V382c-0.1,0.6,0.4,1.2,1,1.2c0.6,0.1,1.2-0.4,1.2-1c0-0.1,0-0.1,0-0.2v-18.7c0.1-0.6-0.4-1.2-1-1.2
			c-0.6-0.1-1.2,0.4-1.2,1C207.9,363.2,207.9,363.3,207.9,363.3z"/>
		<path d="M190.3,409.2c-8.3,7.9-16.6,15.9-24.9,23.9c-5.2,5.1-10.5,10.3-15.6,15.5c-3,3.1-5.7,5-5.7,9.4c-0.1,0.6,0.4,1.2,1,1.2
			c0.6,0.1,1.2-0.4,1.2-1c0-0.1,0-0.1,0-0.2c0-4.2,4.3-7.1,7.2-10c5.1-5.2,10.4-10.3,15.6-15.4c7.5-7.3,15.1-14.6,22.7-21.8
			C192.8,409.9,191.4,408.2,190.3,409.2L190.3,409.2z"/>
		<path d="M196.2,429.6c4.2,2.1,9.2,1.7,13.4,0c1.3-0.5,0.3-2.6-1-2c-3.5,1.4-8.3,1.5-11.2,0C196.1,427,194.9,429,196.2,429.6
			L196.2,429.6z"/>
		<path d="M196.2,427.6L152.8,457c-1.2,0.8-0.2,2.9,1,2l43.4-29.4C198.4,428.9,197.4,426.8,196.2,427.6L196.2,427.6z"/>
		<path d="M153.2,461.9c4.6,4.8,1.2,13-5.8,12c-6.4-1-7.6-8.7-3-12.5c1.1-0.9-0.3-2.6-1.5-1.7c-6.3,5.1-3.8,15.8,4.6,16.6
			c8.8,0.8,13-9.8,7.2-15.9C153.9,459.3,152.3,460.9,153.2,461.9L153.2,461.9z"/>
		<path d="M134.2,433.2c2.5,6.1-3.9,12.4-9.8,9c-5.4-3.1-4-10.9,1.7-12.7c1.3-0.4,0.9-2.7-0.5-2.3c-7.9,2.5-9.5,13.5-1.7,17.3
			c8,3.9,15.4-4.7,12.2-12.4C135.6,430.8,133.7,431.9,134.2,433.2L134.2,433.2z"/>
		<path d="M262.9,453.6c4.6,4.8,1.4,13-5.6,12c-6.4-0.9-7.8-8.6-3.1-12.5c1.1-0.9-0.4-2.6-1.5-1.7c-6.2,5.2-3.6,15.8,4.8,16.5
			c8.8,0.7,12.9-10,7-16c-0.5-0.4-1.2-0.4-1.6,0.1C262.5,452.5,262.5,453.1,262.9,453.6L262.9,453.6z"/>
		<path d="M211.3,409.3c8.3,6.1,16.5,12.3,24.7,18.5c5.5,4.2,11.1,8.5,16.5,12.8c3.3,2.7,6.3,4.7,7.9,8.6c0.6,1.4,2.5,0.2,2-1.1
			c-1.6-3.7-3.7-5.4-6.8-7.9c-5.4-4.5-11-8.7-16.6-13c-8.8-6.7-17.6-13.4-26.5-20C211.4,406.4,210.2,408.4,211.3,409.3L211.3,409.3z
			"/>
		<path d="M211.3,429.6l21.8,11.2l13.9,7.1c2.9,1.5,4.4,2,6,4.5c0.3,0.6,1,0.8,1.5,0.5c0.6-0.3,0.8-1,0.5-1.5
			c-3.6-6.1-13-8.6-19.1-11.7l-23.3-12C211.3,427,210.1,428.9,211.3,429.6L211.3,429.6z"/>
		<path d="M496.8,386.5c3.3,0.7,8.9,0.6,11.2-2.5c1.1-1.4,0.8-2.6,0.8-4.4v-20c0-0.6-0.4-1.1-1-1.2c-0.2,0-0.4,0-0.6,0.1
			c-3.7,1.8-8.6,1.5-12.5,0.6c-1.4-0.3-2.1,1.9-0.7,2.2c4.4,1.1,9.9,1.3,14.2-0.8l-1.6-1.1v14.7c0,2.5,0,5,0,7.5
			c0,1.3,0,0.6,0.1,0.6c-2,2.4-6.6,2.6-9.2,2.1C496,384,495.4,386.2,496.8,386.5L496.8,386.5z"/>
		<path d="M485.7,390.7c-3.5,6.1-7.1,12.1-10.6,18.2c-3.1,5.4-9.2,12.1-9.2,18.4c0,1.5,2.2,1.6,2.2,0.1c0-3,1.5-4.9,3.1-7.5
			c2.3-3.8,4.5-7.6,6.7-11.4c3.3-5.5,6.5-11.1,9.7-16.6C488.2,390.7,486.4,389.4,485.7,390.7L485.7,390.7z"/>
		<path d="M494.5,403.6c4.6,1.5,9.5,1.4,14-0.4c1.3-0.5,0.9-2.8-0.5-2.3c-4.1,1.7-8.6,1.8-12.8,0.5
			C493.8,400.9,493.2,403.1,494.5,403.6L494.5,403.6z"/>
		<path d="M492.7,400.6L474,426.7c-0.3,0.5-0.2,1.2,0.3,1.6s1.2,0.2,1.6-0.3l0,0l18.6-26.2c0.3-0.5,0.2-1.2-0.3-1.6
			S493,400,492.7,400.6L492.7,400.6z"/>
		<path d="M476.5,430.2c4.6,4.8,1.2,13-5.8,12c-6.4-1-7.6-8.7-3-12.5c1.1-0.9-0.3-2.6-1.5-1.7c-6.3,5.1-3.8,15.8,4.6,16.6
			c8.8,0.9,13-9.8,7.2-15.9C477.1,427.6,475.4,429.2,476.5,430.2L476.5,430.2z"/>
		<path d="M558.5,410.6c4.6,4.7,1.4,13-5.6,12c-6.4-0.9-7.8-8.6-3.1-12.5c1.1-0.9-0.4-2.6-1.5-1.7c-6.2,5.2-3.6,15.8,4.8,16.5
			c8.8,0.7,12.9-10,7-16c-0.5-0.4-1.2-0.4-1.6,0.1C558.2,409.5,558.2,410.2,558.5,410.6L558.5,410.6z"/>
		<path d="M509.6,385.1c7.6,3,15.2,6,22.8,9.1c5.2,2.1,10.3,4.3,15.4,6.7c3.7,1.7,6.1,2.5,7.7,6.2c0.6,1.4,2.5,0.2,2-1.1
			c-3.1-7.3-14.3-9.8-21.1-12.6c-8.6-3.6-17.3-7.1-26-10.5C509,382.4,508.4,384.6,509.6,385.1L509.6,385.1z"/>
		<path d="M509.6,401.8l20.9,4l13.5,2.6c1.4,0.2,2.8,0.4,4.2,0.8c1.5,0.5,0.2-1.1,0.2,1.3c0,1.5,2.2,1.6,2.2,0.1v-2.3
			c0-0.5-0.3-1-0.8-1.1l-39.5-7.7C508.9,399.3,508.2,401.5,509.6,401.8L509.6,401.8z"/>
		<path d="M194.1,404.2c-11.7,3.1-23.3,6.2-34.9,9.5c-7.4,2.1-14.8,4.1-22.2,6.4c-4,1.2-7,2-10,4.9c-1,1,0.4,2.7,1.5,1.7
			c3.2-3.1,7.2-3.8,11.4-5.1c7.3-2.2,14.7-4.2,22.1-6.3c10.8-3,21.7-6,32.6-8.8C196,406.1,195.5,403.9,194.1,404.2z"/>
		<path d="M133.6,430.7l38.1-7.2c1.4-0.3,0.9-2.5-0.5-2.2l-38.1,7.2C131.7,428.7,132.1,430.9,133.6,430.7z"/>
		<path d="M230.2,101c1.1,5.6,0.3,11.1-1.1,16.5c-0.6,2.1-1.5,4.4-1.1,6.7c0.6,2.9,3,5.5,4.3,8.1c1.1,2,1.4,1.9-0.3,3.1
			c-1.1,0.6-2.3,1.2-3.6,1.6c-0.4,0.2-0.6,0.6-0.6,1c-0.2,3.1-1.1,6.1-2.6,8.8c-1,1.9-2.3,7.3-3.9,8.5c-4,2.9-10.9-2.2-12.7-5.5
			c-1.2-2.4-1.9-5-2-7.6c-0.1-1.5-2.3-1.6-2.2-0.1c0.3,7.6,4.5,14.4,12.4,15.9c3.2,0.6,5.3,0.5,7-2.4c2.3-4.2,5-9.4,6-14.2
			c0.2-1.1,1-3.2,0.1-2.4c1.4-1.2,4.2-1.1,5.4-2.6c1.4-1.9-0.1-3.8-1.2-5.7s-2.9-3.9-3.5-6c-0.7-2.4,0.4-4.7,1-6.9
			c1.5-5.6,2.2-11.3,1-17.1c-0.1-0.6-0.7-1-1.4-0.9C230.5,99.8,230.1,100.4,230.2,101z"/>
		<path d="M225.4,122.4c0,2.1-0.9,3.8-2,3.8s-2-1.7-2-3.8s0.9-3.8,2-3.8S225.4,120.3,225.4,122.4z"/>
		<path d="M227.5,110.4c0,0-6,2.3-9.7,5.7c-0.2,0.2-0.4,0.2-0.6,0c-0.1-0.1-0.2-0.3-0.1-0.5c1.4-2.8,3.8-6.9,6.6-7.9
			C228.2,106.1,227.8,109.5,227.5,110.4z"/>
		<path d="M228.2,104.3c5.6-3.4,13.3-10.5,11-18.2c-1.2-3.8-5.5-3.6-8.5-5.4c-2.1-1.2-3.8-2.8-5.8-4.2
			c-14.9-10.3-38.4-13.9-52.4-0.1c-12.9,12.8-11,33.6-11.5,50.1c-0.5,19-12.3,36-17.9,53.9c-3.5,11.3-4.1,21-0.5,32.3
			c1.3,4.1,3.3,10.8,7.6,12.9c1.3,0.6,2-1.6,0.7-2.2c-3.2-1.5-5.6-9.2-6.7-12.7c-2.9-9.6-2.5-17.8,0.3-27.4
			c4.6-15.9,13.9-30.4,17.6-46.6c3.1-13.5,0.1-27.7,3.1-41.3c1.9-8.5,5.9-16.5,13.6-21.1c9.8-5.9,21.9-5.7,32.5-2
			c5.2,1.8,10.1,4.4,14.5,7.7c1.6,1.3,3.3,2.4,5.1,3.4c3,1.6,6.3,1.3,6.1,6c-0.2,5.7-5.5,10-9.9,12.7
			C225.9,103.1,226.9,105.1,228.2,104.3L228.2,104.3z"/>
		<path d="M232.2,87.5c-0.2,10.7-11.3,14.2-17.8,20.7c-8.4,8.6-11.3,20.1-15.7,30.9c-2.8,7.1-6.3,14-10.4,20.4
			c-3.7,5.6-8.1,10.5-11.5,16.3c-5.4,9.3-9.7,19.9-10.7,30.7c-0.1,0.6,0.4,1.2,1,1.2c0.6,0.1,1.2-0.4,1.2-1c0-0.1,0-0.1,0-0.2
			c1.1-12.6,6.9-25.3,14.1-35.5c4-5.7,8.4-10.9,11.7-17c3.1-5.8,5.7-11.7,8-17.8c5.1-13.1,9.2-24.5,21.3-32.5
			c5.7-3.8,10.7-8.9,10.8-16.2c0.1-0.6-0.4-1.2-1-1.2s-1.2,0.4-1.2,1C232.2,87.4,232.2,87.4,232.2,87.5L232.2,87.5z"/>
		<path d="M149.6,195.4c-1.6,8.9-3.6,23.7,4.3,30.2c1.1,0.9,2.3-1,1.2-1.9c-6.9-5.6-4.8-19.8-3.4-27.6
			C151.9,194.7,149.8,193.9,149.6,195.4L149.6,195.4z"/>
		<path d="M165.7,181.7c-1.4,6.5-2.5,13.1-3.5,19.7c-0.7,4.3-1.1,8.6-1.1,13c0,3.5,0.3,9.2-3.6,11.1c-1.3,0.6-0.3,2.7,1,2
			c6.6-3.1,4.5-13.6,5.1-19.2c0.9-8.7,2.3-17.3,4.2-25.8C168.1,181,166,180.2,165.7,181.7L165.7,181.7z"/>
		<path d="M158.7,159.7c-3.8,8.3-7.7,16.6-10.5,25.3c-0.2,0.6,0.1,1.2,0.7,1.4s1.2-0.1,1.4-0.7c2.7-8.5,6.6-16.7,10.3-24.8
			C161.2,159.6,159.4,158.3,158.7,159.7L158.7,159.7z"/>
		<path d="M213.7,99.7c-8.2,9.3-15.3,20.4-19.1,32.3c-0.2,0.6,0.1,1.2,0.7,1.4s1.2-0.1,1.4-0.7c3.7-11.5,10.5-22.3,18.5-31.3
			C216.1,100.4,214.6,98.6,213.7,99.7L213.7,99.7z"/>
		<path d="M206.1,148.4c-3.4,4.9-6.4,10.9-6.9,16.9c0,0.6,0.5,1.1,1.1,1.2s1.1-0.5,1.2-1.1l0,0c0.4-5.6,3.4-11.2,6.6-15.8
			c0.3-0.5,0.2-1.2-0.3-1.6C207.2,147.7,206.5,147.8,206.1,148.4L206.1,148.4z"/>
		<path d="M190,159.1c9.1,4.9,13.9,14.1,14.4,24.3c0.1,1.5,2.3,1.6,2.2,0.1c-0.6-11-5.6-21.1-15.4-26.3
			C189.9,156.5,188.7,158.4,190,159.1L190,159.1z"/>
		<path d="M188.7,167c19.5,9.4,19.8,34.7,17.3,53.2c-1.5,10.9-4.7,21.8-5.1,32.8c-0.2,4.8,1.2,9.2,1.4,13.9
			c0.1,4.2-0.2,8.5-0.9,12.6c-0.2,1.5,2,1.5,2.2,0.1c0.9-4.7,1.1-9.5,0.8-14.3c-0.5-5.2-1.6-9.9-1.1-15.2c1.2-13.3,5-26.1,5.9-39.5
			c1.1-17.1-2.6-37.6-19.8-45.9C188.1,164.2,187.4,166.4,188.7,167L188.7,167z"/>
		<path d="M204,200.7c-1.6,14.8-6.1,28.5-10.5,42.6c-0.9,2.2-1.3,4.6-1.4,7c0.1,1,0.8,2.4,0.7,3.3c-0.1,0.6-0.9,1.3-0.9,1.9
			c0,1.4,0.8,2.2,0.9,3.7c0.2,3.2-0.8,9.4-3.2,11.8c-1,1,0.4,2.7,1.5,1.7c3.2-3.1,4.5-10.9,3.9-15.1c-0.2-0.6-0.4-1.1-0.8-1.5
			c0,0.1,0.7-0.7,0.7-1.1c0-3.1-0.8-5.8,0.1-9c4.1-15.1,9.4-29.4,11.1-45.1C206.4,199.3,204.2,199.2,204,200.7L204,200.7z"/>
		<path d="M168,210.2c-1.3,7.5-2.5,15-3.6,22.5c-0.7,4.3-1.3,8.6-1.8,12.9c-0.5,4.6-2.7,10.4-1.3,15c0.4,1.4,2.6,0.9,2.2-0.5
			c-1.3-4.2,0.9-10.6,1.4-15.1s1.2-9,1.9-13.5c1.1-7.1,2.2-14.2,3.4-21.2C170.5,208.8,168.2,208.7,168,210.2L168,210.2z"/>
		<path d="M192.5,255.9c-7.3-0.3-15.5-1.2-22.6,0.5c-3,0.7-8.7,2.5-10.7,5.2c-1,1.4-0.6,3.1-0.6,4.9c-0.1,0.6,0.4,1.2,1,1.2
			c0.6,0.1,1.2-0.4,1.2-1c0-0.1,0-0.1,0-0.2c0-3-0.5-2.9,1.7-4.5c4-2.6,8.6-4,13.3-4.1c5.5-0.3,11.1-0.1,16.6,0.2
			c0.6,0,1.1-0.6,1.1-1.2C193.5,256.4,193,255.9,192.5,255.9L192.5,255.9z"/>
		<path d="M160.2,278.9c9.3-4.2,19.6-9.9,30-7c1.4,0.4,2.1-1.8,0.7-2.2c-11.1-3.1-21.7,2.6-31.7,7.1
			C157.9,277.4,158.9,279.4,160.2,278.9L160.2,278.9z"/>
		<path d="M158.2,268c8.2-1.9,17.2-3.6,25.6-2.7c1.4,0.2,1.5-2.2,0.1-2.3c-8.6-1-17.8,0.8-26.2,2.7
			C156.4,266.1,156.8,268.3,158.2,268z"/>
		<path d="M204.9,275.1c2.3-0.9,4.6-1.7,7-2.2c2.7-0.6,3.3-0.6,6,0.9c0.8,0.5,0.6,1,1.7,1.3s2.2-0.1,3.2,0.1
			c1.9,0.3,2.8,1.3,4.4,2.4c2.6,1.8,4.7,3.3,6.1,6.3c0.6,1.4,2.6,0.2,2-1.1s-1.1-3.2-2.2-4.4c-1.5-1.6-3.8-2.2-5.5-3.6
			c-0.7-0.8-1.6-1.4-2.6-1.9c-2-0.6-3.4,0.5-5.5-0.6c-2.4-1.3-3-2.4-6.2-2c-3.2,0.6-6.4,1.5-9.4,2.8
			C202.6,273.6,203.6,275.6,204.9,275.1L204.9,275.1z"/>
		<path d="M205.9,278.4c1.1,2.6,2.7,4.9,4.7,6.9c1.7,1.5,3.8,2.5,5.5,3.9c0.8,0.6,1.9,2.3,3,2.5c2.7,0.5,3.2-4.5,2.4-6.1
			c-0.7-1.6-2.4-2.6-3.6-3.9c-1.1-1.1-1.5-2.7-2-4.1c-0.5-1.5-2.6-0.9-2.2,0.5c0.5,1.6,1,3.5,2.1,4.8s2.7,1.9,3.4,3.4
			c0.6,0.7,0.7,1.8,0.1,2.5c-0.7,0.6-0.6,0.8,0.4,0.6c-0.4-0.3-0.7-0.6-1-0.9c-2.4-2.2-5.5-3.5-7.7-6c-1.4-1.6-2.5-3.4-3.3-5.3
			C207.2,275.9,205.3,277.1,205.9,278.4L205.9,278.4z"/>
		<path d="M221.4,278.4c1.1,1.7,2.3,3.5,3.2,5.3c1.1,2.2,1.3,4.8,1.8,7.2c0.2,0.7,0.2,1.4,0.4,2c0.2,0.8-0.2,0.8,0.3,0.6
			c0.6-0.3-1.3-0.4-1.6-0.6s-0.6-1.2-0.9-1.6l-3.1-5.7c-0.3-0.6-1-0.8-1.5-0.5c-0.6,0.3-0.8,1-0.5,1.5l0,0c1.8,3.3,4.3,11.9,9.3,8
			c0.3-0.3,0.4-0.7,0.3-1.1c-0.4-3.1-1.1-6.2-1.9-9.2c-0.8-2.5-2.6-4.8-4-7.1c-0.8-1.2-2.7-0.1-2,1.1L221.4,278.4z"/>
		<path d="M227.5,280.1c1.4,2.7,2.3,5.7,2.5,8.8c0.1,1,0.1,2,0.1,3c0,0.4-0.2,1.9,0,2.2c-0.1,0.7,0.1,0.5,0.5-0.4
			c-0.9,0.3-1.9,0.2-2.6-0.4c-1.3-0.7-2.4,1.2-1.2,2c1.5,1,3.3,1.2,4.9,0.4c0.4-0.2,0.6-0.6,0.6-1c0-2.5,0-4.9-0.3-7.4
			c-0.3-2.9-1.2-5.7-2.6-8.3C228.8,277.7,226.8,278.8,227.5,280.1L227.5,280.1z"/>
		<path d="M233.2,284c0.4,2.2,1.1,4.4,2,6.5c0,0.1,0.2,0.6,0.3,0.7c0.1,0.1,0,0.2,0,0.1s0-0.2,0.1-0.3c-0.1-0.1-0.4-0.1-0.5-0.1
			c-1.2-0.4-2.1-1.4-2.4-2.6c-0.5-1.4-2.6-0.9-2.2,0.5c0.5,1.8,1.7,3.3,3.3,4.1c1.1,0.5,2.7,0.6,3.5-0.5c0.9-1.4-0.4-3.1-0.8-4.4
			c-0.5-1.5-0.9-3-1.3-4.6c-0.1-0.6-0.7-1-1.3-0.8S233,283.4,233.2,284L233.2,284z"/>
		<path d="M189.1,272.2c5.5,4.8,11.8,8.9,19.2,10c1.4,0.2,1.5-2.1,0.1-2.3c-6.9-1-12.9-5.1-18.1-9.6
			C189.2,269.3,188.1,271.3,189.1,272.2L189.1,272.2z"/>
		<path d="M160,276.9c-1.2,6.2,3.3,11.2,8.8,13.2c8.6,3.1,18.3,4.2,27.3,5.6c9.2,1.4,19.6,1.5,28.5,4.3c3.7,1.2,6.6,2.8,10.6,3
			c5.4,0.2,10.8-0.5,15.9-2.1c1.4-0.4,0.9-2.7-0.5-2.3c-4.6,1.5-9.4,2.2-14.2,2.1c-4.1-0.1-6.8-1.4-10.5-2.7
			c-6.7-2.3-14.5-2.4-21.5-3.4c-8.9-1.3-17.8-2.6-26.6-4.5c-6.2-1.4-17.3-3.6-15.7-12.5C162.4,276.2,160.3,275.5,160,276.9
			L160,276.9z"/>
		<path d="M249.8,295c2.6,0.6,4.5,2,6.7,3.4c1.1,0.8,2.2,1.5,3.4,2.2c0.6,0.4,2.5,1.1,2.9,1.7c0.8,1.2,2.7,0.1,2-1.1
			c-1.2-1.9-4.6-3.2-6.5-4.4c-2.5-1.7-4.7-3.4-7.8-4.1C249.1,292.5,248.4,294.7,249.8,295L249.8,295z"/>
		<path d="M249.4,290.6c3.3-0.5,4.9,2.8,7.3,4.4c1.4,0.9,6.8,3.4,5.9,5.7c-0.2,0.6,0.1,1.2,0.7,1.4c0.6,0.2,1.2-0.1,1.4-0.7
			c1.2-3.3-3.1-6.3-5.5-7.6c-3.7-2.1-5.6-6-10.3-5.4C247.5,288.6,248,290.8,249.4,290.6L249.4,290.6z"/>
		<path d="M235.1,286.2c4.2-0.1,9.2-1.4,13.1-0.1c2,0.7,4,1.5,5.9,2.5c2.5,1.4,3.6,3.7,4.7,6.2c0.6,1.4,2.6,0.2,2-1.1
			c-0.9-2-1.9-4.5-3.6-5.9c-2.1-1.8-5.2-2.5-7.6-3.6c-4.6-2-9.4-0.4-14.4-0.3C233.8,283.9,233.7,286.3,235.1,286.2L235.1,286.2z"/>
		<path d="M247.4,301.7c12.2,0,25.5,0.5,37.1,4.4c10.3,3.5,14.5,13.7,13.3,24.1c-0.8,6.9-4.2,13.5-6.8,19.9
			c-8.3,20.1-17.6,39.7-21.7,61.1c-0.3,0.9-0.5,1.9-0.5,2.9c0.2,2.4-0.6-0.2,0.6,0.2c-2.5-0.8-6-0.4-8.6-0.7
			c-4.2-0.4-8.4-1.2-12.4-2.5c-1.2-0.4-4.1-2.5-3.9-0.7c0-0.4,1.2-1.9,1.3-2.2c9.5-16.5,8.4-37.1,19.2-52.8c0.3-0.5,0.2-1.2-0.3-1.6
			s-1.2-0.2-1.6,0.3l0,0c-11.4,16.5-9.2,38.6-20.6,55.1c-0.3,0.5-0.2,1.2,0.3,1.6c7.1,5.1,18.4,5.4,26.9,5.7c0.6,0,1.1-0.5,1.2-1.1
			c4.1-26.5,17.1-50.1,26.4-74.9c3.4-8.8,4.9-18.6-0.2-27.3c-5-8.6-13.9-10.7-23.2-12.2c-8.7-1.3-17.5-2-26.3-1.9
			C246.1,299.4,246,301.7,247.4,301.7L247.4,301.7z"/>
		<path d="M169.1,336.6c15.1,10.6,37,7.3,54.1,5.4c17.9-2,35.8-4.5,53.6-7.3c1.4-0.2,0.9-2.5-0.5-2.2c-16.3,2.6-32.7,4.9-49.1,6.8
			c-17.6,2.1-41.1,6.4-56.8-4.6C169.2,333.8,168,335.8,169.1,336.6L169.1,336.6z"/>
		<path d="M246.5,410.8c-2.7,0.5-4.9,3.2-6.1,5.4c-1.7,3.1-3.6,8-3.1,11.7c0.2,1.5,2.4,0.9,2.2-0.5c-0.4-2.7,1.4-7.5,2.8-10
			c0.9-1.7,2.6-4,4.7-4.4C248.4,412.8,247.9,410.5,246.5,410.8L246.5,410.8z"/>
		<path d="M265.3,415.8c0.8,5.2,4,10.2,7.7,13.8c1.1,1,2.7-0.6,1.6-1.6c-3.4-3.4-6.4-7.9-7.2-12.8
			C267.2,413.9,265.1,414.4,265.3,415.8z"/>
		<path d="M242.6,416.7c9.2,4.1,17.1,12,27,14.3c1.7,0.3,3.4,0.4,5.1,0.3c2.2-0.1,1.6-0.5,3.7,1.2c3.2,2.5,6.5,5.2,10.3,6.9
			c1.3,0.6,2-1.6,0.7-2.2c-3.9-1.7-7.2-4.6-10.6-7.2s-5.9-0.2-10.1-1.5c-9.1-2.9-16.7-10-25.4-13.9
			C241.9,413.9,241.2,416.1,242.6,416.7z"/>
		<path d="M285.8,437.4c2.1-0.3,4.3-0.4,6.4-0.2c3.2,0.2,12.3,2.9,10.2,8.1c-0.1,0.3,1.2-1.1,0-0.3c-0.6,0.2-1.3,0.4-2,0.5
			c-2.5,0.6-5,1.1-7.5,1.5c-12.9,2.1-24.7,0.5-36.3-5.9c-1.3-0.7-2.4,1.3-1.2,2c7.5,4.1,16.4,7.4,25,7.5c7.8-0.1,15.6-1.3,23.2-3.4
			c0.4-0.1,0.7-0.4,0.8-0.8c2.3-10.6-12-12.2-19.1-11.2C283.9,435.4,284.4,437.6,285.8,437.4L285.8,437.4z"/>
		<path d="M164,297.5c10.1,0.5,21.1,0.8,30.8-2.1c1.4-0.4,0.9-2.7-0.5-2.2c-9.5,2.9-20.4,2.5-30.2,2c-0.6,0-1.1,0.6-1.1,1.2
			C163,296.9,163.5,297.3,164,297.5L164,297.5z"/>
		<path d="M141.9,210.2v13.7c0,1.5,2.2,1.6,2.2,0.1v-13.7c0.1-0.6-0.4-1.2-1-1.2C142.5,209,141.9,209.5,141.9,210.2
			C141.9,210,141.9,210.1,141.9,210.2z"/>
		<path d="M247.5,357.5c-1.5,5.6-2.7,11.2-3.7,16.9c-1.6,7.8-4,15.4-7.3,22.7c-1.1,2.5-4.5,6.6-3.5,9.4c1.5,4,7.9,4.1,11.2,3.7
			c1.4-0.1,0.9-2.4-0.5-2.2c-2.4,0.3-7.6,0.3-8.8-2.7c0.1,0.2,0.8-1.1,1.4-2.5c2.3-4.8,4.4-9.7,6.1-14.8c3.4-9.7,4.1-20,7.1-29.8
			c0.2-0.6-0.1-1.2-0.7-1.4S247.7,356.9,247.5,357.5L247.5,357.5z"/>
		<path d="M233.7,406.5c-0.6,1.7-2.5,4.5-1.6,6.4c1.6,3.4,5.4,5.2,8.9,5.6c1.4,0.2,1.5-2.1,0.1-2.3c-2.1-0.2-4-1-5.5-2.4
			c-0.4-0.4-0.8-0.9-1.2-1.4c-0.1-0.1-0.4-0.8-0.5-0.9s-0.2,0.9,0.1,0.4c0.3-0.6,0.5-1.2,0.7-1.9l1.1-2.9c0.2-0.6-0.1-1.2-0.7-1.4
			C234.6,405.6,233.9,405.9,233.7,406.5L233.7,406.5z"/>
		<path d="M232.7,410.8c-4,1-6.1,5.2-6.5,8.9c-0.2,1.5,2,1.6,2.2,0.1c0.3-2.8,1.9-6.1,4.8-6.8C234.5,412.7,234.1,410.4,232.7,410.8
			L232.7,410.8z"/>
		<path d="M209.2,406.5l23.3,4.7c1.4,0.3,2.1-1.9,0.7-2.2l-23.3-4.7C208.5,404,207.9,406.2,209.2,406.5z"/>
		<path d="M242.3,381.9l-32.2,3.3c-1.4,0.1-0.9,2.4,0.5,2.2l32.2-3.3C244.2,384,243.8,381.8,242.3,381.9L242.3,381.9z"/>
		<path d="M139.3,354.5c0.4,13.1,0.9,26.2,1.3,39.2c0,0.6,0.5,1.2,1.1,1.2c0.1,0,0.2,0,0.3,0l51.6-5.6c1.4-0.1,0.9-2.4-0.5-2.2
			l-51.7,5.6l1.4,1.2c-0.4-13.1-0.9-26.2-1.3-39.2C141.5,353.1,139.3,353,139.3,354.5z"/>
		<path d="M278.2,278.7v18c0,1.5,2.2,1.6,2.2,0.1v-17.9C280.5,277.3,278.2,277.2,278.2,278.7L278.2,278.7z"/>
		<path d="M231.2,113.9h43.7c2.3,0,4.6,0.1,6.9,0c0.9,0-0.4-1.2-0.4-0.6s0,1.4,0,2.1V185c0,0.8-0.1,1.5,0,2.3
			c0.1,1.1,0.4-0.2,0.7-0.3c-1.5,0.2-3.1,0.2-4.6,0.1l-23.2,0.6L207,189c-1.1,0-1.2,1.8-0.1,1.7l75.2-2.1c0.5,0,0.9-0.4,0.9-0.8V113
			c0-0.5-0.3-0.9-0.8-0.9h-51C230.2,112.2,230.1,113.9,231.2,113.9L231.2,113.9z"/>
		<path d="M229.9,119.4h39c2,0,4.1-0.1,6.1,0c0.9,0-0.7-1.4-0.5-0.7c0.1,0.7,0.1,1.4,0,2.1c-0.6,6.1,0,12.6,0,18.7v24.6
			c0,5.3-1,11.7,0,16.9c0.3,1.4,1.1,0.2,0.3,0.1c-1.9-0.1-3.9,0.1-5.9,0.1l-21.2,0.4l-41.4,0.8c-1.1,0-1.1,1.8-0.1,1.7l69.1-1.4
			c0.5,0,0.8-0.4,0.9-0.8v-63.5c0-0.5-0.3-0.9-0.8-0.9H230C228.9,117.7,228.8,119.4,229.9,119.4z"/>
		<path d="M235.5,188.7c-1.5,3.1-2.8,6.3-4,9.5c-1.1,3-3.3,7.7-1.9,11c0.6,1.4,2.5,0.2,2-1.1c-1.2-2.8,1.7-8.2,2.6-10.7s2-5,3.2-7.5
			C238,188.6,236.1,187.3,235.5,188.7L235.5,188.7z"/>
		<path d="M219.3,189.9c-1.5,3.1-2.8,6.3-4,9.5c-1.1,3.1-3.3,7.7-1.9,11c0.6,1.4,2.5,0.2,2-1.1c-1.2-2.8,1.7-8.2,2.6-10.7
			c1-2.6,2-5,3.2-7.5C221.8,189.8,220,188.5,219.3,189.9L219.3,189.9z"/>
		<path d="M230.2,208.5c6.6,0,11.7,1.7,18,4.2c1.1,0.3,2.1,0.8,3,1.4c1.5,1.4,0.6,3.9,2.8,2.6c-0.4,0.1-0.8,0.1-1.2,0.1
			c-2.4-0.4-5.5,0.4-7.9,0.6l-37.8,2.9c-1.4,0.1-1.5,2.4-0.1,2.3l46.9-3.6c0.6,0,1.1-0.5,1.2-1.1c0.1-6.1-5.7-7.3-10.5-9
			c-4.5-1.9-9.4-2.8-14.3-2.7C228.9,206.2,228.8,208.6,230.2,208.5L230.2,208.5z"/>
		<path d="M213.4,207.2c-2,0.1-4,0.7-5.7,1.8c-1.2,0.9,0.3,2.6,1.5,1.7c-0.4,0.3,0,0,0.1,0c0.3-0.1,0.6-0.3,0.9-0.4
			c1.2-0.4,2.5-0.7,3.7-0.8C215.3,209.3,214.8,207.1,213.4,207.2L213.4,207.2z"/>
		<path d="M210.9,216.6l33.7-2c1.4-0.1,1.5-2.4,0.1-2.3l-33.7,2C209.6,214.4,209.5,216.7,210.9,216.6z"/>
		<path d="M506.6,136.5c7.3,3.1,14.6,6.4,21.7,10.1c3.7,1.9,9,4.1,11.7,7.3c1.5,1.8,2.1,4.3,2.7,6.5c5.4,19.5,7.8,40.2,10.2,60.3
			c1.2,9.8,2.5,19.8,2.7,29.7c0,1.5,2.2,1.6,2.2,0.1c-0.3-20.7-3.9-41.7-7.2-62c-1.6-9.7-3.1-19.5-5.8-28.9
			c-1.9-6.7-4.8-9.1-11-12.6c-8.6-4.7-17.4-9-26.5-12.7C505.9,133.7,505.2,135.9,506.6,136.5L506.6,136.5z"/>
		<path d="M555.5,280.1c0.3,15-1.6,29-15,38.3c-6.4,4.4-13.7,7.5-21.1,10c-3.6,1.2-8.5,1.9-11.7,4c-1.2,0.8-0.2,2.9,1,2
			c4.2-2.9,10.9-3.6,15.7-5.5c7.4-2.8,14.9-6.3,20.9-11.5c11.3-9.6,12.7-23.5,12.4-37.4c0-1.5-2.2-1.6-2.2-0.1L555.5,280.1z"/>
		<path d="M498.2,337.1c-7.3,4.5-7.9,13.8-5.7,21.2c2,6.8,5,13.9,4.6,21.2c-0.2,2.4-0.7,4.8-1.6,7.1c-1.2,3.4-2,8.4-3.9,11.4
			c-2.4,3.9-2.9-2.8-3.5-5c-0.8-3.5-1.7-6.9-2.5-10.4c-1.9-8.2-3.6-16.5-5.1-24.8c-3.1-18.1-4.3-36.4-3.7-54.8
			c0.4-11.9,1.1-23.9,2.6-35.7c0.2-1.5-2-1.6-2.2-0.1c-3.6,29.2-4.2,59.2,0.7,88.3c1.5,9,3.3,17.9,5.4,26.8c0.8,3.5,1.6,7,2.5,10.5
			c0.6,2.5,0.9,6.3,2.2,8.5c3,4.9,5.2-1,5.9-3.6c1.7-6.1,5-11.8,5.4-18.2c0.7-11.9-13.7-32.1-0.1-40.4
			C500.5,338.4,499.5,336.3,498.2,337.1L498.2,337.1z"/>
		<path d="M476.3,280.6c-9.5,1.4-18.8,3.7-27.8,7c-5.2,2-10.8,4.3-14.8,8.3c-4.2,4.1-5.2,10.3-5.7,16c-1.3,14.9,1.8,30,1.8,44.9
			c0,13.2-0.2,26.5-0.4,39.7c-0.2,10.8-0.5,21.6-0.5,32.4c0,0.5,0.4,1.2,1.1,1.2c5.9-0.4,12.2-0.4,18,1c4.7,1.1,10.1,5.8,15.2,4.2
			c0.5-0.1,0.8-0.6,0.9-1.1c0.3-7.2-1.3-14.2-0.9-21.4c0.5-9.9,1.4-19.8,2-29.7c0.7-10.9,0.7-21.8,1.6-32.7
			c0.7-8.5,1.7-16.8,0.5-25.4c-0.2-1.5-2.4-0.9-2.2,0.5c1.8,13-0.9,26.4-1.2,39.4c-0.3,14-1.7,27.9-2.6,41.9
			c-0.4,4.7-0.6,9.3-0.4,14c0.2,3,0.9,6,1,9.1c0.1,1.2,0.1,2.3,0,3.5c-0.1,0.9,1.3-0.2,0.2-0.2c-5.7,0-10.7-4-16.3-4.9
			c-2.7-0.4-5.4-0.6-8.1-0.7c-1.6,0-5.3-0.7-6.7,0.1c-0.8,0.4-0.2,1.4,0.2,0.3c0.4-0.8,0-2.6,0-3.5l0.2-11.3c0.2-11,0.3-22,0.5-32.9
			c0.1-9.1,0.3-18.2,0.2-27.3c-0.1-12.6-2.5-25.1-2-37.8c0.3-6.7,1-14.3,6.6-18.8c4.7-3.8,10.7-6.1,16.4-7.9
			c7.7-2.5,15.7-4.4,23.7-5.6C478.1,282.6,477.7,280.4,476.3,280.6L476.3,280.6z"/>
		<path d="M467.2,335.6l9.5-1.9c0.6-0.2,1-0.8,0.8-1.4c-0.2-0.5-0.7-0.9-1.3-0.8l-9.5,1.9C465.4,333.6,465.8,335.9,467.2,335.6
			L467.2,335.6z"/>
		<path d="M390.7,316.2c-3.8,19.9-4.5,40.6-5.5,60.8c-0.4,8-0.7,16-0.9,24c0,1.2-0.5,3.2-0.1,4.3c0.9,2.5,5,3.5,7.2,4.1
			c1.4,0.4,2.1-1.8,0.7-2.2c-1.8-0.5-3.6-1.2-5.2-2.2c-0.6-0.4-1-0.9-0.5,0.3c-0.1-0.4-0.1-0.8,0-1.2c0-2.1,0.1-4.2,0.2-6.2
			c0.3-8,0.6-16,1-24c1-18.9,1.6-38.2,5.2-56.9C393.1,315.5,391,314.8,390.7,316.2L390.7,316.2z"/>
		<path d="M414.4,289.2c7.7-3.7,16.1-6,24.4-7.9c1.4-0.3,0.9-2.6-0.5-2.2c-8.5,2-17.1,4.4-24.9,8.1
			C412.1,287.8,413,289.8,414.4,289.2L414.4,289.2z"/>
		<path d="M420.1,323.3c-0.7,15.6-1.4,31.3-2.1,46.9c-0.5,10.5-1,20.9-1.5,31.4c-0.2,3.2-0.3,6.5-0.5,9.8c0.1,0.8,0,1.5-0.1,2.3
			c-0.4,0.9,0.3-0.4,0.2-0.3c-0.9,0.5-1.8,0.9-2.8,1.2c-1.3,0.6-0.3,2.6,1,2c2.6-1.1,3.4-1.1,3.8-3.6c0.3-2.7,0.5-5.4,0.4-8.1
			c0.5-10.6,1-21.1,1.5-31.7c0.8-16.6,1.5-33.2,2.2-49.8c0.1-0.6-0.4-1.2-1-1.2c-0.6-0.1-1.2,0.4-1.2,1
			C420,323.1,420,323.2,420.1,323.3L420.1,323.3z"/>
		<path d="M430.8,428c-2.9,2.5-5.9,5-9,7.3s-7.5,4-9.1,7.9c-0.6,1.4,1.5,2.1,2.1,0.7c1.4-3.4,6.9-5.6,9.8-7.9c2.6-2,5.1-4.1,7.6-6.3
			c0.5-0.4,0.5-1.1,0.1-1.6S431.3,427.6,430.8,428L430.8,428z"/>
		<path d="M414,453.8c9.4,4.8,21.3,5,29.5-2.5c1.7-1.6,3.1-3.5,4.7-5.2c3-2.9,6.5-3.9,10.3-5.4s3.5-2.7,3.5-6.4
			c0-1.5-2.2-1.6-2.2-0.1c0,0.9,0.4,3,0,3.6c-0.6,1-4.7,1.6-5.8,2c-4.1,1.6-6.8,4.1-9.7,7.4c-7.6,8.4-19.1,9.7-29,4.6
			C414,451.2,412.8,453.1,414,453.8L414,453.8z"/>
		<path d="M415.6,415.8v8.9l0.6-1l-2.1,1.4c-1.2,0.8-0.2,2.8,1,2c0.7-0.5,2.1-1,2.5-1.8c0.2-0.8,0.3-1.6,0.2-2.4v-7.1
			c0.1-0.6-0.4-1.2-1-1.2c-0.6-0.1-1.2,0.4-1.2,1C415.6,415.6,415.6,415.7,415.6,415.8L415.6,415.8z"/>
		<path d="M387.5,406.9c-4.3,12.5-36.7,1.4-35.4,15.7c0.6,6.7,9.7,7.3,14.6,7.9c4.3,0.6,8.7,1.4,13.1,0.8c4-0.5,7.9-1.3,11.9-1.3
			c1.4,0,1.5-2.3,0.1-2.3c-6.1,0-12,1.9-18,1.4c-4.5-0.4-10-0.7-14.3-2c-3.4-1.1-6.6-3.8-4-7.3c1.7-2.3,4.6-2.4,7.3-2.6
			c8.1-0.7,23.3,0.5,26.8-9.5c0.2-0.6-0.2-1.2-0.8-1.4C388.3,406.1,387.7,406.3,387.5,406.9L387.5,406.9z"/>
		<path d="M463.5,267.4c-7.4,4.8-16.4,10.6-25.3,11.6l1.2,1.8c1.3-2.5,3.5-8.7,6.1-9.8c1.3-0.6,0.3-2.6-1-2c-3.2,1.5-5.4,7.7-7,10.6
			c-0.3,0.5-0.2,1.3,0.4,1.6c0.2,0.1,0.5,0.2,0.8,0.2c9.1-1,18.2-7,25.8-11.8C465.7,268.7,464.8,266.7,463.5,267.4L463.5,267.4z"/>
		<path d="M551.5,343.8c6.9,1.3,15.7-7.4,19-12.5c6.3-9.7,9.7-21.8,12.6-32.8c1.5-5.7,5.6-15.5,3.2-21.4c-1.8-4.3-7.4-6.9-11.4-8.5
			c-3.5-1.4-7.5-1.3-11.2-1.1c-11.9,0.5-23.9,2.8-35.4,5.8c-6.9,1.7-14.1,3.4-19,8.9c-7.1,8-8.7,20.5-10.1,30.7
			c-1.3,9.2-4.5,25.4,3.6,32.8c4.3,4,13.9,3.4,18.8,3.2c10.2-0.4,20.6-2.9,30.6-5c0.6-0.1,1-0.8,0.9-1.4s-0.8-1-1.4-0.9
			c-14,2.9-29.6,7-44,3.9c-7.1-1.5-7.7-11.2-7.7-17c0-12.3,1.9-26.5,6.8-37.9c2.4-6.1,7.4-10.7,13.6-12.7c9.2-2.9,18.6-5.1,28.2-6.5
			c8.4-1.3,19.4-3.8,27.3,0.2c3.3,1.7,8.3,3.7,8.9,7.9c0.4,2.9-0.9,6.4-1.5,9.2c-2.3,11.2-5.7,22.2-10.2,32.8
			c-1.9,4.3-4,8.8-7.3,12.2c-2.6,2.6-9.5,8.6-13.6,7.9C550.8,341.3,550.1,343.5,551.5,343.8z"/>
		<path d="M581.5,282.5c4.1-5-10.6-5.1-12.4-5.1c-11.5-0.2-23.3,0.2-34.5,2.9c-9.8,2.3-17,6.4-20.9,15.9c-4.4,10.7-6.1,23-6.9,34.5
			c-0.5,7.4-1.2,17.7,9.1,18c1.4,0,1.5-2.3,0.1-2.3c-10.6-0.3-7.1-16.3-6.3-22.9c1.2-10.4,2.8-23.5,9.2-32.3
			c6.5-9,21.8-10.1,31.9-10.9c5.4-0.4,10.8-0.6,16.3-0.5c2,0,12.6,1.5,12.9,1.1C579.1,281.9,580.5,283.7,581.5,282.5L581.5,282.5z"
			/>
		<path d="M575.8,280.1c-1.4,8.4-3.2,16.7-5.5,25c-1.5,6.1-3.6,11.9-6.3,17.6c-2.6,5.2-7.4,11.5-12.8,14c-1.5,0.7-4.1,0.8-6.1,1.1
			l-14.2,1.9l-22.2,3c-1.4,0.2-0.9,2.5,0.5,2.2l24.5-3.3c6.3-0.9,15.1-0.2,20.4-4.2c17.1-12.8,20.8-37.4,24.1-57.2
			C578.2,278.7,576,278.6,575.8,280.1L575.8,280.1z"/>
		<path d="M484.1,382.9l-20.6,4.9c-1.4,0.3-0.9,2.6,0.5,2.3l20.6-4.9C485.9,384.8,485.5,382.5,484.1,382.9L484.1,382.9z"/>
		<path d="M463,399.3h19c1.4,0,1.5-2.3,0.1-2.3H463C461.6,397,461.5,399.3,463,399.3z"/>
		<path d="M555.5,261.1l0.2,7.3c0,1.5,2.3,1.6,2.2,0.1l-0.2-7.3C557.7,259.8,555.5,259.7,555.5,261.1z"/>
		<path d="M536,149c0.9-8.3,3.4-18.4,10.8-23.2c12-7.8,28.4-7.5,41.3-2.4c10.4,4.2,19.3,10.5,18.3,22.6c-0.4,3.3-0.9,6.5-1.7,9.7
			c-6.2,29.7-13.4,59.2-20.5,88.7c-2.1,9-4.3,18-6.5,27c-0.3,1.4,1.8,2.2,2.1,0.7c6.4-26.7,12.8-53.3,19-80
			c3.2-13.7,6.6-27.5,9.1-41.3c0.8-4.6,1.3-9.4-0.2-13.9c-3.4-10-16-15.4-25.3-17.8c-12.3-3.2-28.6-2.2-38.8,6.2
			c-6.6,5.4-8.9,15.5-9.8,23.6C533.7,150.4,535.9,150.5,536,149L536,149z"/>
		<path d="M587.7,130.2c10.5,4.9,11.2,18.6,8.9,28.2c-0.3,1.4,1.8,2.2,2.1,0.7c2.6-11,1.3-25.7-10.4-31.1
			C587.1,127.4,586.4,129.6,587.7,130.2z"/>
		<path d="M595.5,162.6c-0.7,2.4-1.3,4.8-1.9,7.1c-0.4,1.4,1.7,2.1,2.1,0.7c0.7-2.4,1.3-4.8,1.9-7.1
			C598,161.9,595.9,161.2,595.5,162.6z"/>
		<path d="M582.6,201.8c4.3,4,2.1,9.8,0.9,14.6c-1.2,4.9-2.3,10-3.4,15c-2,9.1-3.2,19.3-7,28c-0.6,1.3,1.5,2.1,2.1,0.7
			c4.4-10.2,5.7-22.3,8.1-33.1c1.7-7.6,7.7-20.4,0.9-26.8C583.1,199.2,581.5,200.8,582.6,201.8L582.6,201.8z"/>
		<path d="M505.5,346.4V360c-0.1,0.6,0.4,1.2,1,1.2s1.2-0.4,1.2-1c0-0.1,0-0.1,0-0.2v-13.6C507.7,345,505.5,344.9,505.5,346.4
			L505.5,346.4z"/>
		<path d="M465.9,346.1c3.7,1.5,7.7,1.9,11.6,1.2c1.4-0.2,0.9-2.5-0.5-2.2c-3.5,0.6-7.1,0.2-10.4-1.1
			C465.3,343.3,464.6,345.5,465.9,346.1L465.9,346.1z"/>
		<path d="M421.4,331.2l8.1-1.7c0.6-0.2,1-0.8,0.8-1.4c-0.2-0.5-0.7-0.9-1.3-0.8l-8.1,1.8c-0.6,0.1-1,0.7-0.9,1.4
			S420.8,331.4,421.4,331.2L421.4,331.2z"/>
		<path d="M422,329.3c-0.6,1.5-0.6,3.1-0.2,4.7c1,3.5,4.4,5.1,7.7,5.7c1.4,0.3,2.1-1.9,0.7-2.2c-2.6-0.5-5.8-1.5-6.4-4.5
			c-0.2-1-0.1-2,0.3-3C424.7,328.7,422.6,327.9,422,329.3L422,329.3z"/>
		<path d="M541.2,181.1c0.1,5.5-0.2,11-1,16.5c-0.8,5.1-2.9,10-4.2,14.9c-1.7,6.3-3.2,12.7-5,18.9c-1.2,4.1-2.4,11.4-6.3,13.9
			c-5.7,3.6-15.8,2.7-22.2,3.1c-7.6,0.5-15.1,1.6-22.7,1.6c-3.8,0-7.7-0.2-11.5-0.4c-0.9,0-2.5,0.1-3.4-0.2
			c-1.8-0.8,0.8,1.6,0.5-0.6c-0.8-5.1-0.9-9.5-4.5-13.6l-0.6,1.9c14.6-4.6,30.8-6.2,45.9-8.9c0.4-0.1,0.7-0.4,0.8-0.8
			c2.2-9.6,3.2-19.6,4.3-29.3c0.6-5.7,0.7-11.4,2.4-16.9c1.5-4.8,3.5-9.5,5.9-13.9c0.7-1.3-1.2-2.6-1.9-1.2
			c-4.2,7.8-7.3,16.2-8,25.1c-0.8,10.4-2.3,20.8-4,31c-0.1,0.7-0.8,4.4-0.4,4c0.5-0.5-1.5,0.1-2.1,0.2c-4.1,0.7-8.3,1.5-12.4,2.2
			c-10.2,1.9-21.1,3.1-31,6.2c-0.6,0.2-1,0.8-0.8,1.5c0,0.2,0.1,0.3,0.2,0.4c3.2,3.8,4.5,8.9,3.7,13.8c0,0.6,0.4,1.2,1.1,1.2
			c13,1.1,25.5-0.1,38.5-0.9c8.4-0.5,22.8,1.1,27-8c4.8-10.2,6.6-22,9.5-32.8c2.7-9.7,4.5-18.6,4.4-28.8
			C543.5,179.6,541.2,179.5,541.2,181.1L541.2,181.1z"/>
		<path d="M463.5,141.2c-7.5,4.5-16.2,9.9-19.6,18.3c-4.4,11.2-7.9,22.8-11.5,34.3c-1.5,4.7-2.6,9.4-4.2,14
			c-1.9,5.6-8.3,8.8-13.8,10.7c-10.6,3.7-22,4.8-32.5,9c-1,0.4-0.6,1.8,0.2,2.1c5.4,2.5,8.9,7.6,8.4,13.6c0,0.6,0.4,1.2,1,1.2
			c0.1,0,0.2,0,0.3,0c13.9-2.1,28.2-4,41.8-7.9c12.6-3.6,19.3-18.3,24.9-29.1c0.7-1.3-1.2-2.6-1.9-1.2c-2.9,5.7-6.2,11.1-9.8,16.4
			c-2.3,3.4-4.9,7.4-8.4,9.7c-2.4,1.5-5.5,2.1-8.2,2.8c-12.8,3.2-25.9,5.2-38.9,7.2l1.4,1.2c0.6-7-3.6-12.9-9.9-15.8
			c0,0.7,0.1,1.4,0.2,2.1c10.6-4.3,22.5-4.9,33.1-9.1c4.5-1.8,11.8-4.8,13.7-9.7c1.1-3.1,1.8-6.6,2.7-9.8c3.6-12.1,7.4-24.1,11.7-36
			c1.7-4.8,3.1-8.6,7-12.1c4.1-3.6,8.5-6.8,13.3-9.6C465.8,142.5,464.8,140.4,463.5,141.2L463.5,141.2z"/>
		<path d="M460.7,235.5c-8,0.6-16-0.7-23.9-0.1c-7.1,0.6-11.6,2.5-15.2,8.7c-0.7,1.2,1.1,2.5,1.9,1.2c4.3-7.6,11.9-7.9,20-7.4
			c5.7,0.3,11.4,0.2,17.1-0.3C462.1,237.7,462.2,235.4,460.7,235.5L460.7,235.5z"/>
		<path d="M431,238.5c-4.5,2-9.5,4.7-12.5,8.7c-2,2.7-5.4,10.2,0.5,9.9c1.4-0.1,1.5-2.4,0.1-2.3s-1.3,0.2-1-1.3
			c0.3-1.3,0.7-2.5,1.3-3.7c1.3-2,3-3.7,5.1-5c2.3-1.6,4.9-3,7.5-4.2C433.3,240,432.3,238,431,238.5L431,238.5z"/>
		<path d="M463.8,247.6c-6.8,2.5-13.9,4.5-21,5.9c-1.9,0.5-3.7,1.2-5.5,2c-1.1,0.5-2.3,1-3.5,1.3c-2.6,0.6-0.9,0.3,0-0.5
			c4.3-3.9,10.2-7.8,16-8.6c1.4-0.2,0.9-2.5-0.5-2.3c-7.2,1.1-13,6.1-18.6,10.3c-0.3,0.3-0.4,0.7-0.3,1.1c0.9,5.5,11.8-0.8,14.6-1.3
			c6.6-1.1,13-3.5,19.3-5.7C465.6,249.4,465.2,247.1,463.8,247.6L463.8,247.6z"/>
		<path d="M441.5,242.2c-3.4,1.7-6.6,3.8-9.5,6.2c-3.2,2.7-7,5.3-8.8,9.3c-0.2,0.5,0,1,0.5,1.3c3.7,2.3,6.4,0.3,9.3-2.1
			c1.1-0.9-0.4-2.6-1.5-1.7c-1.9,1.5-4.2,3.4-6.6,1.9l0.5,1.3c1.6-3.6,5.8-6.4,8.8-8.8c2.6-2.1,5.5-3.9,8.4-5.4
			C443.8,243.6,442.8,241.5,441.5,242.2L441.5,242.2z"/>
		<path d="M435,240.6c-2.4,1.2-4.8,2.6-7,4.2c-2.5,1.8-4.2,4.4-6.3,6.5c-1.4,1.5-5,4.2-4.5,6.5c0.8,3.7,5,1.8,7.3,1.4
			c1.4-0.3,0.9-2.5-0.5-2.3c-1.6,0.3-3.5,1.5-4.7,0c0,0-0.3,0.7,0.3,0s1-1.3,1.6-1.9c1.8-1.9,3.7-3.7,5.3-5.7
			c2.4-3.1,6.1-4.9,9.5-6.8C437.3,241.9,436.3,239.8,435,240.6L435,240.6z"/>
		<path d="M532.5,159.3c1.1,2.6,1.5,5.5,1.3,8.3c0,0.6,0.4,1.1,1.1,1.2s1.1-0.4,1.2-1.1c0.2-3.2-0.3-6.5-1.5-9.5
			C533.9,156.8,532,158,532.5,159.3L532.5,159.3z"/>
		<path d="M464.3,251.6l22.7-5.7c1.4-0.3,0.9-2.6-0.5-2.2l-22.7,5.7C462.4,249.7,462.9,252,464.3,251.6z"/>
		<path d="M382.7,227.4c-6.2-1.1-12.5-2.2-18.8-3c-3.2-0.4-6.6-1-9.3,0.9c-2.4,1.7-4.4,4.7-6,7.1c-0.9,1.2,1,2.4,1.9,1.2
			c1.6-2.1,3.7-5.8,6.1-7s7.7,0,10.6,0.4c5.2,0.8,10.3,1.6,15.5,2.5C384,229.8,384.1,227.5,382.7,227.4L382.7,227.4z"/>
		<path d="M361.8,225.8c-1.3,1.3-2.7,2.4-4.2,3.4c-1.7,1.1-3.9,1.4-5.2,3c-0.9,1.1,0.6,2.9,1.5,1.7c1.3-1.6,3.8-2,5.4-3.1
			c1.4-1,2.7-2.1,4-3.3C364.3,226.4,362.9,224.7,361.8,225.8L361.8,225.8z"/>
		<path d="M373.2,234.3c-2.8,3.8-8.9,2.4-11.3,6.7c-1.1,2.1-1.5,7.4,1.7,7.9c1.6,0.2,4.9-1.8,6.2-2.4c2.9-1.3,5.8-0.8,8.7-1.6
			c4.5-1.2,8.3-2.6,13.1-2.9c1.4-0.1,1.5-2.4,0.1-2.3c-2.7,0.1-5.4,0.4-8.1,0.9c-1.5,0.3-2.9,0.7-4.3,1.2c-2.6,0.8-5.1,0.7-7.7,1.3
			c-2.2,0.5-4.5,3-6.8,2.9c-3.6,0-0.3-5.3,2.5-6.3c3.3-1.1,5.4-1.3,7.5-4.3c0.3-0.5,0.1-1.2-0.4-1.5
			C374.2,233.8,373.6,233.9,373.2,234.3z"/>
		<path d="M373.8,235.6c0.2-2.9-7.1-2.5-8.2-2.6c-4.4-0.2-8.9-0.2-13.3-0.4c-3.8-0.2-9.1,0-12.3-2.4c-1.1-0.8-2.2,0.8-1.4,1.8
			c10.4,12.9,25.7,25.7,42.4,28.5c5.6,1,11.5-0.7,17-1.5l19.1-2.7c1.4-0.2,0.9-2.5-0.5-2.3l-16.2,2.3c-5.6,0.8-11.8,2.6-17.5,2.1
			c-16.5-1.3-32.7-15.7-42.6-28.1l-1.4,1.8c3.9,2.9,10.5,2.6,15.1,2.8c3.6,0.2,7.2,0.2,10.8,0.3c1.6,0,3.2,0.1,4.9,0.3
			c1.8,0.3,2.2,1,2.2-0.1c-0.1,0.6,0.4,1.2,1,1.2c0.6,0.1,1.2-0.4,1.2-1C373.8,235.7,373.8,235.6,373.8,235.6L373.8,235.6z"/>
		<path d="M406.8,242l16.7,2.4c1.4,0.2,1.5-2.1,0.1-2.3l-16.7-2.4C405.4,239.5,405.3,241.8,406.8,242z"/>
		<path d="M345.2,236.8l-15.5,2.7c-1.1,0.2-1.1,1.9-0.1,2.2l42,16.1c1.4,0.5,2-1.7,0.7-2.2l-41.9-16.1l-0.1,2.2l15.5-2.7
			C347.2,238.8,346.7,236.6,345.2,236.8L345.2,236.8z"/>
		<path d="M461.1,101.5c-4.4,1.4-4.1,7.6-1.6,10.8c2.9,3.7,9.6,4,13.2,1.1c2.4-1.9,3.5-7.8,1.5-10.3c-1.1-1.3-3.2-1.6-4.8-1.8
			C466.7,101,463.9,101,461.1,101.5c-1.4,0.2-0.9,2.5,0.5,2.2c2.8-0.5,5.6-0.5,8.4,0c1.4,0.3,2.6,0.4,2.9,2c0.2,1.3,0,2.7-0.4,4
			c-0.9,2.6-3.7,3.4-6.3,3.3c-2.3,0.1-4.5-1.2-5.6-3.2c-0.7-1.6-1.3-5.3,1-6.1C462.9,103.3,462.5,101,461.1,101.5z"/>
		<path d="M455,103.6c-1.3-2-4.6-2.1-6.7-1.9s-5.2,0.7-5.2,3.3c0,3.7,1.7,11.5,7,10.3c0.6-0.1,1-0.7,0.9-1.4s-0.7-1-1.4-0.9l0,0
			c-3.1,0.7-3.8-5.1-4.1-7c0-0.3-0.3-1.1-0.1-1.4s2.3-0.6,2.7-0.6c1.3-0.2,2.7-0.1,4,0.2c0.3,0.1,1.2,0.7,1.1,0.5
			c0.8,1.2,2.8,0.1,2-1.1L455,103.6z"/>
		<path d="M454.8,105.5c0.8-0.8,2.5-0.6,3.7,0.1s2.4-1.2,1.2-2c-1.9-1.1-4.6-1.6-6.4,0.1C452.3,104.7,453.7,106.4,454.8,105.5
			L454.8,105.5z"/>
		<path d="M474.2,105.7l13,4.9c1.4,0.5,2-1.7,0.7-2.2l-13-4.9C473.6,103,472.9,105.2,474.2,105.7z"/>
		<path d="M451.8,107.6c-1.5,2.9-3.2,6.4-3.4,9.7c-0.2,3.7,3.9,4.9,7,4.8c1.4,0,1.5-2.3,0.1-2.3c-1.1,0-2.1-0.1-3.1-0.4
			c-2.2-0.8-1.9-2.1-1.3-4c0.7-2.3,1.5-4.4,2.6-6.5C454.4,107.6,452.6,106.3,451.8,107.6L451.8,107.6z"/>
		<path d="M446.2,114.2c0.2,4.1,1.1,8.2,2.6,12c1.2,3,2.4,6,3.6,9c0.8,1.9,1.2,4.7,2.5,6.3c2.5,2.9,7.8,2,11,1.2
			c6.2-1.7,10.8-6.3,14.6-11.2c0.9-1.2-1-2.4-1.9-1.2c-3.7,4.9-8.4,9.2-14.5,10.5c-2.4,0.5-5.4,0.9-7.1-0.8c-1.2-1.2-1.5-3-2.1-4.5
			c-2.7-7-5.9-13.5-6.4-21.1C448.4,112.8,446.2,112.7,446.2,114.2L446.2,114.2z"/>
		<path d="M446.8,103.3c-0.1-5.7-0.3-11.7,0-17.4c0.2-3.6,1.8-7,4.5-9.5c0.6-0.6,3.3-2.5,2.6-2.4s1.9,1.3,2.7,1.7
			c2.6,1.3,5.2,2.4,8,3.2c2.8,0.8,13.2,0.5,14,2.2c0.7,1.3,2.6,0.2,2-1.1c-1-2-4.9-2-6.6-2.2c-7.1-0.7-13.2-2.1-19.4-5.9
			c-0.3-0.2-0.8-0.2-1.1-0.1c-11.3,6.7-9.1,19.8-8.9,31.3C444.6,104.7,446.9,104.8,446.8,103.3L446.8,103.3z"/>
		<path d="M467.9,108.5c0,1.8-1,3.2-2.2,3.2s-2.2-1.4-2.2-3.2s1-3.2,2.2-3.2S467.9,106.7,467.9,108.5z"/>
		<path d="M451.8,108.8c0,1.8-1,3.2-2.2,3.2s-2.2-1.4-2.2-3.2s1-3.2,2.2-3.2S451.8,107,451.8,108.8z"/>
		<path d="M462.8,100.7c3.2-1.2,7.1-0.5,10.2,0.4c1.4,0.4,2-1.8,0.7-2.2c-3.5-1-7.8-1.8-11.4-0.5C461,98.9,461.4,101.2,462.8,100.7z
			"/>
		<path d="M446.2,101.1c1.8-1.1,4-1.3,5.9-0.6c1.3,0.6,2-1.6,0.7-2.2c-2.4-1.1-5.4-0.4-7.6,0.7C444,99.7,444.9,101.7,446.2,101.1
			L446.2,101.1z"/>
		<path d="M475.7,82.6c-1.5,5.5,0,9.8,3.5,13.9c4,4.7,4.5,12.1,4.4,18.1c-0.1,0.6,0.4,1.2,1,1.2c0.6,0.1,1.2-0.4,1.2-1
			c0-0.1,0-0.1,0-0.2c0.2-4.9-0.5-9.8-1.9-14.4c-0.9-2.6-2.3-4.1-3.9-6.2c-2.4-3-3.2-7-2.1-10.8C478.2,81.9,476.1,81.1,475.7,82.6
			L475.7,82.6z"/>
		<path d="M486.2,114.8c0.8-1.7,2-3.2,3.4-4.4c3.7-3.1,4.6,3.1,3.1,5.5c-1.2,2-3.2,3.7-4.7,5.5c-0.9,1.1-3.2,5.1-5,3.9
			c-1.2-0.8-2.4,1.1-1.2,2c3.6,2.5,5.1-1.1,7.1-3.6c2.2-2.6,5.9-5.5,6.6-9.1c0.6-3-0.2-7.8-4.1-7.7c-3.2,0.1-5.7,4.1-7.1,6.5
			C483.6,114.9,485.4,116.2,486.2,114.8L486.2,114.8z"/>
		<path d="M488.4,124.6c3.6,0.4,8.8,2.2,10.7,5.6c0.3,0.5,1,0.7,1.5,0.4c0.2-0.1,0.4-0.3,0.5-0.6c1.5-4.6,2.8-9.3,3.9-14
			c2.2-8.9,5.6-18.1,5.5-27.3c-0.1-9.8-2.7-20-11.9-24.8c-11.6-6-24.3-2.6-36.6-2.8c-5.9-0.1-11.3-1.6-15.4,3.8
			c-3.3,4.3-2.5,9.8,0.4,14.1c0.8,1.2,2.8,0.1,2-1.1c-1.7-2.3-2.4-5.2-1.8-8c1-5.7,5.2-7,10.5-6.7c6,0.2,12.1,0,18.1-0.6
			c8.9-0.7,20.2,0,26.8,6.9c7.7,8.1,6.3,22.5,3.8,32.2c-2.4,9.2-4.4,18.5-7.4,27.6l2-0.2c-2.3-4.1-8.1-6.3-12.5-6.8
			C487.1,122.2,487,124.5,488.4,124.6L488.4,124.6z"/>
		<path d="M479.8,154c-3.1-4.4-5.9-8.9-8.7-13.5c-0.8-1.3-2.7-0.1-2,1.1c3,4.7,5.9,9.4,9,14C478.9,156.8,480.5,155.2,479.8,154
			L479.8,154z"/>
		<path d="M450.9,126.4c4.9,0.1,9.9,0.4,14.8,0l-1-1.5c-1,2.5-3.3,7.9-6.5,7.9s-5.4-5.7-6.1-7.8c-0.5-1.4-2.6-0.9-2.2,0.5
			c1.2,3.5,3.8,9.4,8.2,9.6s7.4-6,8.8-9.5c0.2-0.6-0.1-1.3-0.7-1.5c-0.1,0-0.2,0-0.3-0.1c-4.9,0.4-9.9,0.1-14.8,0
			C449.5,124.1,449.4,126.4,450.9,126.4z"/>
		<path d="M499,129.6c0.2,4.6-0.2,9.3-1.1,13.8c-1.2,5-4,9.3-6.2,13.9c-4.1,8.8-5.6,17.9-6.7,27.5c-1.8,15.4-3.2,30.9-4.4,46.3
			c-0.1,0.6,0.4,1.2,1,1.2c0.6,0.1,1.2-0.4,1.2-1c0-0.1,0-0.1,0-0.2c1.3-15.5,2.6-30.9,4.4-46.3c1.3-11.2,3.7-21.2,8.9-31.4
			c3.9-7.7,5.2-15.1,5.1-23.8C501.2,128.2,499,128.1,499,129.6L499,129.6z"/>
		<path d="M501.1,128.2c1.5,0.2,4.5,7.9,4.7,9.4c0.4,3-0.2,6.5-0.3,9.5c-0.2,4.4-0.4,8.7-1,13.1c-0.1,0.8-0.1,3.7-0.9,4.3
			c-0.5,0.4-7-0.9-8.6-0.6c-0.6,0.2-1,0.8-0.8,1.4c0.8,2.5,4,8.6,3.9,10.1c-0.2,2.4-2.6,5.8-3.6,8c-4.2,9.6-8.9,19.2-11.8,29.2
			c-0.2,0.6,0.1,1.2,0.7,1.4c0.6,0.2,1.2-0.1,1.4-0.7c3.3-11.3,8.7-22.1,13.5-32.9c1.3-2.9,2.2-3.8,1.3-6.6c-0.7-2.1-3.5-6.4-3-8.6
			c0.1-0.4,5.9,2.7,8,1.5c2.2-1.3,2.1-5.3,2.4-7.5c0.6-5.4,0.9-10.8,1.1-16.2c0.2-4.2,0.3-6.3-1.4-10.2c-0.8-1.9-2.5-6.6-5.2-7
			C499.8,125.7,499.7,128,501.1,128.2L501.1,128.2z"/>
		<path d="M499.1,132.3c-5.2,8.5-11.7,18.5-20.7,23.3c-0.6,0.3-0.8,1.1-0.4,1.7c0,0.1,0.1,0.1,0.1,0.1c3.1,4.4,6.3,8.9,9.4,13.4
			c0.8,1.2,2.4-0.4,1.6-1.6c-3.1-4.5-6.2-8.9-9.4-13.4l-0.3,1.8c9.2-5,16.1-15.3,21.5-24.1C501.7,132.3,499.9,131,499.1,132.3
			L499.1,132.3z"/>
		<path d="M478.2,155.8c-3.3,3.7-7.1,7.7-9.2,12.2c-0.6,1.3,1.5,2,2.1,0.7c1.9-4.1,5.6-7.8,8.6-11.2
			C480.7,156.4,479.2,154.7,478.2,155.8z"/>
		<path d="M471,165.9l2.6,4.1c0.2,0.4,0.7,0.7,1.2,0.6c1.8-0.5,3.6,0.8,4.9,1.8c0.4,0.3,1,0.2,1.3-0.1l4.5-4.9c1-1-0.5-2.8-1.5-1.7
			l-4.5,4.9l1.4-0.1c-1.8-1.4-4.3-2.8-6.6-2.1l1.2,0.6l-2.6-4.2C472.1,163.6,470.2,164.7,471,165.9L471,165.9z"/>
		<path d="M473.4,169.5c-1,6.6-2,13.3-2.6,19.9c-0.1,1.5,2.1,1.6,2.2,0.1c0.6-6.7,1.6-13.3,2.6-19.9
			C475.9,168.1,473.7,168,473.4,169.5L473.4,169.5z"/>
		<path d="M478.6,172.5c2.6,9.1,4.2,18.4,4.7,27.8c0.1,1.5,2.3,1.6,2.2,0.1c-0.6-9.6-2.2-19.1-4.8-28.4
			C480.3,170.6,478.2,171.1,478.6,172.5L478.6,172.5z"/>
		<path d="M454.1,189.7c1,5.9,1.9,11.7,2.8,17.6c1.2,8.3,2.9,17.2,2.1,25.7c-0.1,1.5,2.1,1.6,2.2,0.1c0.8-8.2-0.8-16.9-2-25
			c-0.9-6.3-1.9-12.6-2.9-18.9C456,187.7,453.8,188.3,454.1,189.7L454.1,189.7z"/>
		<path d="M469,141c-0.5,15-0.2,30,0.9,45c1.2,15.4,5.6,30.1,7.4,45.4c0.2,1.5,2.3,0.9,2.2-0.5c-1.8-15.6-6.3-30.6-7.5-46.3
			c-1-14.5-1.2-29.1-0.8-43.6c0.1-0.6-0.4-1.2-1-1.2c-0.6-0.1-1.2,0.4-1.2,1C469,140.8,469,140.9,469,141L469,141z"/>
		<path d="M465.4,141.8c-1.1,4.7-2.1,9.4-2.8,14.2c-0.6,4.2-1.2,8.4,3.5,10.4c-0.2-0.6-0.4-1.1-0.6-1.7c-1.6,2.6-4.9,6.2-4.8,9.3
			s2.3,7.4,3.3,10.5c3.5,10.8,7.3,21.6,10.8,32.5c0.5,1.4,2.6,0.9,2.2-0.5c-3.2-9.9-6.6-19.8-9.9-29.7c-1.2-3.8-3.4-8-3.9-12
			c-0.4-3,2.4-6.1,4.1-8.8c0.3-0.6,0.2-1.3-0.4-1.6c-0.1,0-0.1-0.1-0.2-0.1c-5.7-2.5-0.4-17.1,0.7-21.7
			C467.9,141.1,465.8,140.4,465.4,141.8L465.4,141.8z"/>
		<path d="M527.2,223.9c-0.5,3.7-2,7.3-4.3,10.2c-3.3,3.9-10.2,5.1-15.2,5.6c-1.4,0.1-1.5,2.4-0.1,2.3c5.5-0.5,12.8-1.7,16.6-5.9
			c2.9-3.2,4.5-7.8,5.2-12.1C529.7,222.5,527.5,222.4,527.2,223.9L527.2,223.9z"/>
		<path d="M322.2,239.7c-10.7,0.8-21.6,0.9-32.2,2.3c-1,0.1-1-0.1-0.1,0.6c-0.5-0.5-0.8-1.2-1-1.8c-1.5-2.9-3.2-5.6-4.9-8.5
			c-2.4-4.2-6.4-9-6.4-13.5l-1.9,0.7l9.6,13.6c2.6,3.6,2.6,4.4,6.9,4.4h20.5c2.3,0,5.8,0.7,8,0c0.9-0.3,1.6,0.5,0.9-0.4
			c-0.7-1-0.5,2.8-0.5,3.6c-0.1,0.6,0.4,1.2,1,1.2c0.6,0.1,1.2-0.4,1.2-1c0-0.1,0-0.1,0-0.2v-4.4c0-0.6-0.4-1.1-1-1.2H292
			c-1.1,0-3.2-0.5-2.2,0.2c-1.4-1-2.6-3.7-3.6-5.1l-8.7-12.4c-0.6-0.8-1.9-0.2-1.9,0.7c0,4.5,2.4,7.4,4.7,11.3l7.9,13.8
			c0.2,0.4,0.5,0.6,0.9,0.6l33.1-2.4C323.5,241.9,323.6,239.6,322.2,239.7z"/>
		<path d="M322.7,235.5l-9.8-7.6c-3.4-2.6-7.5-7.2-11.5-8.9c-2.8-1.2-7.1-0.6-10.1-0.8l-13.9-0.7c-0.6,0-1.1,0.6-1.1,1.2
			c0,0.6,0.5,1,1,1.1l12.8,0.6l7.9,0.4c0.7,0,1.5,0,2.2,0.1c0.9,0.2-0.6-0.3,0.3,0.2c4,2,7.7,5.9,11.2,8.6l9.8,7.6
			C322.7,238.3,323.8,236.4,322.7,235.5L322.7,235.5z"/>
		<path d="M287.9,236.4v6.7c0,1.5,2.2,1.6,2.2,0.1v-6.7C290.1,235,287.9,234.9,287.9,236.4L287.9,236.4z"/>
		<path d="M310.2,233.2l3.9,3.3c0.8,0.7,1.7-0.8,0.9-1.5l-3.9-3.3C310.2,231.1,309.4,232.6,310.2,233.2z"/>
		<path d="M298.5,223.1l9.9,8.6c0.8,0.7,1.7-0.8,0.9-1.5l-9.9-8.6C298.6,221,297.7,222.4,298.5,223.1z"/>
		<path d="M300,228.2l8.5,8.2c0.8,0.8,2-0.4,1.2-1.2l-8.5-8.2C300.4,226.3,299.2,227.5,300,228.2L300,228.2z"/>
		<path d="M294.4,222.8l3.5,3.3c0.8,0.8,2-0.4,1.2-1.2l-3.5-3.3C294.8,220.8,293.6,222,294.4,222.8z"/>
		<path d="M300,233.1l3.1,3.4c0.8,0.8,2-0.4,1.2-1.2l-3.1-3.4C300.5,231.1,299.2,232.3,300,233.1L300,233.1z"/>
		<path d="M290.4,222.6l7.4,8.1c0.8,0.8,1.9-0.4,1.2-1.2l-7.4-8.1C290.9,220.6,289.6,221.8,290.4,222.6L290.4,222.6z"/>
		<path d="M291.1,228.2c2.2,2.7,4.5,5.5,6.7,8.2c0.7,0.9,1.9-0.3,1.2-1.2l-6.7-8.2C291.7,226.2,290.5,227.4,291.1,228.2z"/>
		<path d="M286.4,222.4l2.4,2.9c0.7,0.9,1.9-0.4,1.2-1.2l-2.4-2.9C286.9,220.4,285.7,221.6,286.4,222.4z"/>
		<path d="M290.1,233.1l2.4,3.3c0.6,0.9,1.8-0.3,1.2-1.2l-2.4-3.3C290.7,231,289.5,232.2,290.1,233.1z"/>
		<path d="M286,227.2l2.8,4c0.6,0.9,1.8-0.3,1.2-1.2l-2.8-4C286.5,225.1,285.3,226.3,286,227.2L286,227.2z"/>
		<path d="M282.4,222.2l1.6,2.3c0.3,0.3,0.8,0.3,1.2,0l0,0c0.3-0.3,0.3-0.9,0-1.2c-0.5-0.8-1.1-1.6-1.6-2.3
			c-0.3-0.3-0.8-0.4-1.2-0.1l0,0C282.2,221.3,282.1,221.8,282.4,222.2L282.4,222.2z"/>
		<path d="M250.4,213.5c3.6-0.7,7.3-1.1,11-1.4c1.3-0.1,5.8-0.8,6.8,0.3s-1.2,2.3-2.3,3.2c-7.2,5.4,6.9,6.4,10.6,7.1
			c1.4,0.3,1.5-2.1,0.1-2.3c-3.5-0.6-7.2-1.1-10.6-2.4c-0.8-0.3-0.6,0.5,0.5-0.1c0.5-0.3,1.1-0.7,1.6-1.1c1.6-1.2,4-3.5,2.4-5.6
			c-1.8-2.4-7.5-1.5-10-1.3c-3.6,0.3-7.1,0.7-10.6,1.4C248.5,211.5,249,213.7,250.4,213.5L250.4,213.5z"/>
		<path d="M550.2,313.9c0.5-0.3,1.1-0.5,1.8-0.6c2.5-0.1,4.7,2.3,6.2,4c1,1.1,2.6-0.5,1.6-1.6c-2.4-2.8-7.4-6.9-11.1-3.6
			C547.7,313.2,549.1,314.9,550.2,313.9L550.2,313.9z"/>
		<path d="M135.5,352.6c0.3,8.5,0.5,17,0.8,25.5c0.1,3.9-0.4,8.3,0.4,12.1c0.5,2.6,2,3,4.5,4.5c0.6,0.3,1.3,0.2,1.6-0.4
			s0.2-1.3-0.4-1.6l0,0c-0.8-0.5-4.3-3.2-3.5-1.5c-0.2-0.8-0.2-1.7-0.1-2.5c-0.1-4.5-0.3-8.9-0.4-13.4c-0.2-7.6-0.5-15.2-0.7-22.8
			C137.7,351.1,135.4,351,135.5,352.6L135.5,352.6z"/>
		<path d="M395.2,273.7V371c-0.1,0.6,0.4,1.2,1,1.2c0.6,0.1,1.2-0.4,1.2-1c0-0.1,0-0.1,0-0.2v-97.3c0.1-0.6-0.4-1.2-1-1.2
			c-0.6-0.1-1.2,0.4-1.2,1C395.2,273.6,395.2,273.6,395.2,273.7L395.2,273.7z"/>
		<path d="M395.2,376.7v24.4c0,1.5,2.2,1.6,2.2,0.1v-24.4C397.5,375.4,395.2,375.2,395.2,376.7z"/>
	</g>
</g>
</svg>
