<svg version="1.1" id="レイヤー_1" xmlns="http://www.w3.org/2000/svg" x="0" y="0" viewBox="0 0 701 513" xml:space="preserve"><style>.st0{fill:#708080}.st1{fill:#fffc19}.st2{fill:#0dabff}.st3{fill:#d5d5d2}</style><g id="レイヤー_2_1_"><g id="レイヤー_4"><path class="st0" d="M448.1 78.5s-3.9-5.4-2.4-8.9 3.7-8 8.3-7.7 20.5-.5 20.5-.5 19.5-2.3 27.1 5.9 8.6 19.9 7.6 25.8-9 36.1-9 36.1-6.8-5.9-11.8-5.6l5.4-7.6s1-5-.1-6.3-4.3-.6-4.3-.6l-4.9 5.7s.9-10.6-2-14.6-6.8-8-6.7-11.9c.2-2.9.7-5.8 1.6-8.6 0 0-10.3-.4-14-2.2s-9.5-4.9-9.5-4.9-4.9 4.2-5.8 5.9z"/><path class="st1" d="M471.9 165.4l2.7 4.1-2.7 19.9 2.7 23.2 3.8 18.6h3.2l3.3-36-4.6-23.7 4.5-4.9-5.8-10z"/><path class="st2" d="M464.1 268.4s-13.9 8.8-19.7 10.3-29.2 9-29.2 9l-1.3 127.9 3.1-1.3 4.2-84.2 8.1-1.7s1.8 23.1 1.7 34.1.6 66.4.6 66.4 12.2.4 16.8 1.5 13.1 6.2 14.6 3.8l-1-18.6 5.1-81.1 9.5-1.9s-1.4-46.9 0-50.9 2.6-14.6 2.6-14.6l-15.1 1.3zM391.2 319.7s-3.9 37.5-4.6 53-1.3 32.6-1.3 32.6l6.5 3c0 .1.4-83.6-.6-88.6zM143 211.8v12.1c3 4.6 5.4 9.6 7.1 14.9 2.4 7.8 6.4 26.6 6.4 26.6s3.3 13.7 4.2 18.8c.9 5.1 2.1 12.3 2.1 12.3s13 0 16.5.2 12-1.6 12-1.6c-4.2-1.4-8.4-2.6-12.7-3.6-4.2-.7-15.3-4.5-16.7-7.2s-.9-7-.9-7 12.1-4.5 14-5.4 12-.7 14-.6h2s7.2 6.3 9.3 7.3 2.2.3 2.2.3 2.1-10 .7-17.2c-1.2-7.6-1.1-15.3.4-22.8 1.4-7.3 5.1-27.5 4.6-35.7-.5-8.1-3.4-19.8-3.4-19.8.2-2.6-.1-5.2-.7-7.6-1.1-3.5-2.9-8.7-5.5-11.2-2.6-2.3-5.4-4.5-8.3-6.4 0 0-11.5 16.1-13.1 18.3-1.4 2.1-34.2 35.3-34.2 35.3z"/><path class="st1" d="M144 213.7s4.6 10.2 6.7 11.2c2 1 5 4.2 7.4 1.8s6-7.7 9.2-21 8.1-26.3 12.7-32.7 12.1-16.5 15.1-22.8 12.3-31.1 15.4-35.2c3.1-4 7.8-8 11.9-11.1s3 1.2 5.3-.4 9.7-5.4 10.6-10.3.9-6.9-.9-7.9-6-2.4-7.6-3.5-15.9-10.7-25.8-12.3-26.1.5-33 10.6c-6.9 10.2-9.5 22.8-8.7 34.9s-1.5 28.6-7.8 39.7c-6.3 11-13.6 31.2-13.6 38.5.1 7.5 2.1 18.4 3.1 20.5z"/><path class="st0" d="M162.9 296.5s11.8.8 16.5.2c4.7-.6 13.1-2.8 13.1-2.8s22.3 2 25.1 3 12.8 4.4 15.2 4.6 17.3-1 17.3-1l13.6.5s22.8-.3 29.3 8.8 6.6 18.3 5.7 22.2-15.1 38.7-15.1 38.7-12 34.1-13.9 44.8c0 0-22.6 1.2-26.3-5.5-.5-.9-8.2-.3-8.8-2.4l-.6-2s9-19.5 11.1-31.5 3.5-16.1 3.5-16.1 11.5-1 16-3.3 8.2-3.2 8.6-8.2 1.9-8.1-4.6-11.2c0 0-59.2 7.3-64.9 7.3s-20.9-.1-28.9-4.6l-5-3.4-6.9-38.1z"/><path class="st3" d="M500.1 128.2s.4 12.8-1.7 17.6-9.5 19.2-10.7 27.3-6.1 57.2-6.1 57.2l-21 6.3s4 8.1 3.7 11 .2 2.7.2 2.7 33.2.2 44.9-1.2c11.7-1.4 15.2-.7 17.1-3.7l30.3 5.7s-3.9-32.1-4.6-43.9-7.5-48-9.9-51.5-4.1-6.2-7.3-7.4-28.1-13-28.1-13-3.4-8.1-4.7-8.3c-.9 0-1.7.5-2.1 1.2z"/><path class="st3" d="M470.1 141.1s-.6 33.8.6 41.1 3.1 21.8 3.8 25.1 3.8 24 3.8 24l-16.5 3.7-1.6-.6s-.5-13.5-1.1-18.4-1.3-9.3-1.3-9.3-10.8 20.2-13 22.5-10.1 6.1-15.8 7.4-37.1 6.7-37.1 6.7 1-4.3-1.2-7.4-8-8.2-8-8.2 20.5-4.2 24.2-5.8 16.8-3.8 20-8.7 12.5-37.3 12.5-37.3 4.4-15.9 9-21.9 13.4-10.4 13.4-10.4 5.5-3.4 8.3-2.5zM444.3 270l-4.6 10c2.8-.5 5.5-1.4 8-2.7 4.8-2.2 14.1-8.1 14.1-8.1l-17.5.8zM498.8 338.1l1.2-.5c-.6-1.6-1.1-3.3-1.2-5-.1-2.9 1.6-20.1 2.2-24.7.6-4.6 4.2-19 6.7-22.7s10.7-8.9 17.5-10.6c5.4-1.3 24.1-4.5 31.6-5.7-.1-4.6-.1-8.5-.1-8.5l-78.3 6.9s-2.4 35.1-2.2 43.4 1.5 40.8 6 60.3 5.6 28.6 7 29.8c1.4 1.2 2.7 1.6 3.1 0 .4-1.7 6.1-17.5 6.2-20.7 0-3.3.2-9.3-1.6-12s-5-13.2-4.1-18.2 6-11.8 6-11.8z"/><path class="st3" d="M524.4 284.7c-5.4 4-11.4 12.7-13.1 19.7-1.3 5.3-2.7 22.6-3.3 30.4 6.8-2.5 15.9-5.8 21.8-7.9 10.4-3.7 22.9-13.6 24-22.8 1-8.2 2.8-19 3.1-25.9-9.8 1.1-28.6 3.5-32.5 6.5z"/><path class="st1" d="M232.9 411.9s-5.9 3.2-5.7 7.9l10.4 7.9 21.5 17.1s14.4 5 25.6 4.5c6.4-.2 12.7-1.3 18.8-3.2 0 0 2.1-3.2 0-4.8-2.1-1.7-6.8-6-15.5-4.4l-10.1-6.1-2.3-.6s-12.2-.9-16.5-4.1c-4.2-3.2-14.1-11-16.1-10.2-2 .7-1.8 1.7-1.8 1.7s-6.1-1.6-8.3-5.7z"/><path class="st0" d="M389.4 407.2s-5.2 7.1-13.9 7.8-22.4.1-22.3 3.8c0 3.7 3.3 8.1 3.3 8.1s15.4 4.9 21.4 3.7c4.6-.8 9.3-1.4 14-1.8v-20.5l-2.5-1.1zM416.3 415.6l.4 8.9-2.9 1.5v-10.4zM430.5 428.9l-15.9 13.3v10.7s8.1 3.3 15.4 2.7 11.6-3.6 13.6-5.9 4.8-7.1 9.7-8.2 6.5-2.3 6.5-2.3l1-4.2s-10.5-4.7-13.6-5.4-13.8-1.6-16.7-.7z"/><path d="M463.9 233.8l-22.3-3.8c-1.4-.2-1.5 2.1-.1 2.3l22.3 3.7c1.4.3 1.5-2 .1-2.2zM526.5 246.6l19.4 3.2c4.8.8 12.2 2.6 15.9 2.2-5.5.6-11.1.9-16.7 1.3l-91.8 7.2-106.7 8.4-37.1 2.9c-6.3.5-13 1.5-19.3 1s-12.8-3-18.9-5l-26.6-8.3-41.8-13c-.6-.2-1.3.2-1.4.8s.2 1.3.8 1.4c26.1 8.1 52.2 16.5 78.4 24.4 8.4 2.5 16.2 1.9 24.6 1.3l34.5-2.7 109.5-8.6 95.8-7.5 12-.9c1.4-.1 3.4.1 4.7-.4 5.4-2-.6-4.3-2.9-4.6l-25.7-4.3-6.6-1.1c-1.4-.2-1.5 2.1-.1 2.3zM230.5 206c18-.5 36.6-2.9 54.5.1l86.3 14.5 27 4.5c1.4.2 1.5-2.1.1-2.3l-67.2-11.3-42.1-7.1c-5.6-.9-10.9-2.1-16.6-2l-41.9 1.2c-1.4.1-1.5 2.4-.1 2.4zM214.6 204.1l-6.2.2c-1.4 0-1.5 2.4-.1 2.3l6.2-.2c1.5.1 1.6-2.3.1-2.3z"/><path d="M561.6 252.4c0 1.2.5 7 .3 7.2s-1 0-1.2.1c-2 .7-5.1.4-7.2.6l-30 2.4-96.5 7.6-94.4 7.4-28.8 2.3c-7.7.6-14.8 1-22.5-1.3-26.4-8-52.6-16.4-79-24.6-.6-.1-1.2.3-1.4.9-.1.6.2 1.1.7 1.3l75.5 23.5c7.4 2.4 15.2 3.3 23 2.7l25.3-2 194-15.2 34.7-2.7c2.2-.2 4.9 0 7.1-.5 4-1 2.5-6 2.5-9.4.1-.6-.4-1.2-1-1.2-.6-.1-1.2.4-1.2 1 .1-.2.1-.1.1-.1z"/><path d="M390.7 274.1v168.8c0 3.5-.2 7 0 10.4.2 3.3 2.2 4.1 5.4 5.5 4.7 2 17.1 3.1 18.9-3.8.4-1.7 0-4 0-5.7V274.1c.1-.6-.4-1.2-1-1.2-.6-.1-1.2.4-1.2 1v176.6c0 2 .2 4-.5 5-2.1 2.8-8.4 2.8-11.3 2.3s-5-1.9-7.6-3.1c-1.2-.5-.5 1-.4-.6.1-3.1 0-6.2 0-9.3V274.1c.1-.6-.4-1.2-1-1.2-.6-.1-1.2.4-1.2 1-.1 0-.1.1-.1.2zM174.9 344.1c-5-5.4-5.5-15-6.6-21.9-2.1-12.6-4.2-25.2-6.4-37.7-2.3-13.1-4.8-26.2-8.5-39-2.7-9.5-6-19.3-13.1-26.5-6.8-7.1-16.4-10.7-26.2-9.7-5.3.4-10.7 2.7-10.9 8.7-.2 5.9 2.5 12.4 4.3 17.9 5.7 18 13.6 36.3 15.9 55.3 1.4 11.7.7 23.7 1.6 35.4.5 7 .7 16.1 5.5 21.7 5.2 6.1 13.9 10.1 21.2 13.1 7.4 3.1 14.8 4.7 22.9 4.2 10.8-.8 21.6-1.5 32.4-2.4 16.9-1.4 33.9-2.7 50.6-5.8 5.3-1 10.8-2 14.4-6.4 4-4.8 4.1-13.7-2.1-16.9-1.3-.7-2.5 1.3-1.2 2 8.6 4.5 2 15.4-4.8 17.5-4.6 1.3-9.3 2.2-14 2.7-14.2 2.1-28.5 3.4-42.8 4.5-10.4.9-20.8 1.6-31.1 2.3-14.5 1-29.1-4.6-40.6-13.6-7.1-5.6-7.6-14.5-8.2-23-.8-10.6-.6-21.2-1.3-31.8-1-16-7.1-31.8-12.1-46.9-2.4-7.3-5-14.7-6.9-22.1-.8-2.3-1.2-4.8-1.4-7.2 0-4.8 3.6-6.5 7.9-7 9.9-1.3 19.8 2.4 26.3 9.9 8.1 8.9 11.1 21.7 13.9 33.1 3.1 12.5 5.3 25.3 7.6 38 2.1 11.9 3.9 23.9 6.1 35.9 1 5.8 2 12.6 6.2 17.1.8 1.3 2.4-.3 1.4-1.4zM208.8 404.5c-3.1 3-10.6 4.1-13.6.2.7.8.2-.1.2-1.2v-21.3l-1.7.9c5.2 2.3 11.1 2.3 16.3 0l-1.6-1.1v23.2c0 1.5 2.2 1.6 2.2.1v-23.2c0-.6-.4-1.1-1-1.2-.2 0-.4 0-.6.1-4.5 1.9-9.6 1.9-14.1 0-.5-.3-1.2-.2-1.5.4-.1.2-.2.4-.2.6v9.6c0 4.1-.8 9 0 13 1.3 6.9 13.2 5.4 17.1 1.6 1-1-.4-2.7-1.5-1.7z"/><path d="M193.9 363.3V382c-.1.6.4 1.2 1 1.2.6.1 1.2-.4 1.2-1v-18.9c.1-.6-.4-1.2-1-1.2-.6-.1-1.2.4-1.2 1v.2zM207.9 363.3V382c-.1.6.4 1.2 1 1.2.6.1 1.2-.4 1.2-1v-18.9c.1-.6-.4-1.2-1-1.2-.6-.1-1.2.4-1.2 1v.2zM190.3 409.2c-8.3 7.9-16.6 15.9-24.9 23.9-5.2 5.1-10.5 10.3-15.6 15.5-3 3.1-5.7 5-5.7 9.4-.1.6.4 1.2 1 1.2.6.1 1.2-.4 1.2-1v-.2c0-4.2 4.3-7.1 7.2-10 5.1-5.2 10.4-10.3 15.6-15.4 7.5-7.3 15.1-14.6 22.7-21.8 1-.9-.4-2.6-1.5-1.6zM196.2 429.6c4.2 2.1 9.2 1.7 13.4 0 1.3-.5.3-2.6-1-2-3.5 1.4-8.3 1.5-11.2 0-1.3-.6-2.5 1.4-1.2 2z"/><path d="M196.2 427.6L152.8 457c-1.2.8-.2 2.9 1 2l43.4-29.4c1.2-.7.2-2.8-1-2zM153.2 461.9c4.6 4.8 1.2 13-5.8 12-6.4-1-7.6-8.7-3-12.5 1.1-.9-.3-2.6-1.5-1.7-6.3 5.1-3.8 15.8 4.6 16.6 8.8.8 13-9.8 7.2-15.9-.8-1.1-2.4.5-1.5 1.5zM134.2 433.2c2.5 6.1-3.9 12.4-9.8 9-5.4-3.1-4-10.9 1.7-12.7 1.3-.4.9-2.7-.5-2.3-7.9 2.5-9.5 13.5-1.7 17.3 8 3.9 15.4-4.7 12.2-12.4-.5-1.3-2.4-.2-1.9 1.1zM262.9 453.6c4.6 4.8 1.4 13-5.6 12-6.4-.9-7.8-8.6-3.1-12.5 1.1-.9-.4-2.6-1.5-1.7-6.2 5.2-3.6 15.8 4.8 16.5 8.8.7 12.9-10 7-16-.5-.4-1.2-.4-1.6.1-.4.5-.4 1.1 0 1.6zM211.3 409.3c8.3 6.1 16.5 12.3 24.7 18.5 5.5 4.2 11.1 8.5 16.5 12.8 3.3 2.7 6.3 4.7 7.9 8.6.6 1.4 2.5.2 2-1.1-1.6-3.7-3.7-5.4-6.8-7.9-5.4-4.5-11-8.7-16.6-13-8.8-6.7-17.6-13.4-26.5-20-1.1-.8-2.3 1.2-1.2 2.1z"/><path d="M211.3 429.6l21.8 11.2 13.9 7.1c2.9 1.5 4.4 2 6 4.5.3.6 1 .8 1.5.5.6-.3.8-1 .5-1.5-3.6-6.1-13-8.6-19.1-11.7l-23.3-12c-1.3-.7-2.5 1.2-1.3 1.9zM496.8 386.5c3.3.7 8.9.6 11.2-2.5 1.1-1.4.8-2.6.8-4.4v-20c0-.6-.4-1.1-1-1.2-.2 0-.4 0-.6.1-3.7 1.8-8.6 1.5-12.5.6-1.4-.3-2.1 1.9-.7 2.2 4.4 1.1 9.9 1.3 14.2-.8l-1.6-1.1v22.2c0 1.3 0 .6.1.6-2 2.4-6.6 2.6-9.2 2.1-1.5-.3-2.1 1.9-.7 2.2zM485.7 390.7c-3.5 6.1-7.1 12.1-10.6 18.2-3.1 5.4-9.2 12.1-9.2 18.4 0 1.5 2.2 1.6 2.2.1 0-3 1.5-4.9 3.1-7.5 2.3-3.8 4.5-7.6 6.7-11.4 3.3-5.5 6.5-11.1 9.7-16.6.6-1.2-1.2-2.5-1.9-1.2zM494.5 403.6c4.6 1.5 9.5 1.4 14-.4 1.3-.5.9-2.8-.5-2.3-4.1 1.7-8.6 1.8-12.8.5-1.4-.5-2 1.7-.7 2.2z"/><path d="M492.7 400.6L474 426.7c-.3.5-.2 1.2.3 1.6s1.2.2 1.6-.3l18.6-26.2c.3-.5.2-1.2-.3-1.6s-1.2-.2-1.5.4z"/><path d="M476.5 430.2c4.6 4.8 1.2 13-5.8 12-6.4-1-7.6-8.7-3-12.5 1.1-.9-.3-2.6-1.5-1.7-6.3 5.1-3.8 15.8 4.6 16.6 8.8.9 13-9.8 7.2-15.9-.9-1.1-2.6.5-1.5 1.5zM558.5 410.6c4.6 4.7 1.4 13-5.6 12-6.4-.9-7.8-8.6-3.1-12.5 1.1-.9-.4-2.6-1.5-1.7-6.2 5.2-3.6 15.8 4.8 16.5 8.8.7 12.9-10 7-16-.5-.4-1.2-.4-1.6.1-.3.5-.3 1.2 0 1.6zM509.6 385.1c7.6 3 15.2 6 22.8 9.1 5.2 2.1 10.3 4.3 15.4 6.7 3.7 1.7 6.1 2.5 7.7 6.2.6 1.4 2.5.2 2-1.1-3.1-7.3-14.3-9.8-21.1-12.6-8.6-3.6-17.3-7.1-26-10.5-1.4-.5-2 1.7-.8 2.2z"/><path d="M509.6 401.8l20.9 4 13.5 2.6c1.4.2 2.8.4 4.2.8 1.5.5.2-1.1.2 1.3 0 1.5 2.2 1.6 2.2.1v-2.3c0-.5-.3-1-.8-1.1l-39.5-7.7c-1.4-.2-2.1 2-.7 2.3zM194.1 404.2c-11.7 3.1-23.3 6.2-34.9 9.5-7.4 2.1-14.8 4.1-22.2 6.4-4 1.2-7 2-10 4.9-1 1 .4 2.7 1.5 1.7 3.2-3.1 7.2-3.8 11.4-5.1 7.3-2.2 14.7-4.2 22.1-6.3 10.8-3 21.7-6 32.6-8.8 1.4-.4.9-2.6-.5-2.3zM133.6 430.7l38.1-7.2c1.4-.3.9-2.5-.5-2.2l-38.1 7.2c-1.4.2-1 2.4.5 2.2zM230.2 101c1.1 5.6.3 11.1-1.1 16.5-.6 2.1-1.5 4.4-1.1 6.7.6 2.9 3 5.5 4.3 8.1 1.1 2 1.4 1.9-.3 3.1-1.1.6-2.3 1.2-3.6 1.6-.4.2-.6.6-.6 1-.2 3.1-1.1 6.1-2.6 8.8-1 1.9-2.3 7.3-3.9 8.5-4 2.9-10.9-2.2-12.7-5.5-1.2-2.4-1.9-5-2-7.6-.1-1.5-2.3-1.6-2.2-.1.3 7.6 4.5 14.4 12.4 15.9 3.2.6 5.3.5 7-2.4 2.3-4.2 5-9.4 6-14.2.2-1.1 1-3.2.1-2.4 1.4-1.2 4.2-1.1 5.4-2.6 1.4-1.9-.1-3.8-1.2-5.7s-2.9-3.9-3.5-6c-.7-2.4.4-4.7 1-6.9 1.5-5.6 2.2-11.3 1-17.1-.1-.6-.7-1-1.4-.9-.7 0-1.1.6-1 1.2z"/><path d="M225.4 122.4c0 2.1-.9 3.8-2 3.8s-2-1.7-2-3.8.9-3.8 2-3.8 2 1.7 2 3.8zM227.5 110.4s-6 2.3-9.7 5.7c-.2.2-.4.2-.6 0-.1-.1-.2-.3-.1-.5 1.4-2.8 3.8-6.9 6.6-7.9 4.5-1.6 4.1 1.8 3.8 2.7z"/><path d="M228.2 104.3c5.6-3.4 13.3-10.5 11-18.2-1.2-3.8-5.5-3.6-8.5-5.4-2.1-1.2-3.8-2.8-5.8-4.2-14.9-10.3-38.4-13.9-52.4-.1-12.9 12.8-11 33.6-11.5 50.1-.5 19-12.3 36-17.9 53.9-3.5 11.3-4.1 21-.5 32.3 1.3 4.1 3.3 10.8 7.6 12.9 1.3.6 2-1.6.7-2.2-3.2-1.5-5.6-9.2-6.7-12.7-2.9-9.6-2.5-17.8.3-27.4 4.6-15.9 13.9-30.4 17.6-46.6 3.1-13.5.1-27.7 3.1-41.3 1.9-8.5 5.9-16.5 13.6-21.1 9.8-5.9 21.9-5.7 32.5-2 5.2 1.8 10.1 4.4 14.5 7.7 1.6 1.3 3.3 2.4 5.1 3.4 3 1.6 6.3 1.3 6.1 6-.2 5.7-5.5 10-9.9 12.7-1.2 1-.2 3 1.1 2.2z"/><path d="M232.2 87.5c-.2 10.7-11.3 14.2-17.8 20.7-8.4 8.6-11.3 20.1-15.7 30.9-2.8 7.1-6.3 14-10.4 20.4-3.7 5.6-8.1 10.5-11.5 16.3-5.4 9.3-9.7 19.9-10.7 30.7-.1.6.4 1.2 1 1.2.6.1 1.2-.4 1.2-1v-.2c1.1-12.6 6.9-25.3 14.1-35.5 4-5.7 8.4-10.9 11.7-17 3.1-5.8 5.7-11.7 8-17.8 5.1-13.1 9.2-24.5 21.3-32.5 5.7-3.8 10.7-8.9 10.8-16.2.1-.6-.4-1.2-1-1.2s-1.2.4-1.2 1c.2.1.2.1.2.2zM149.6 195.4c-1.6 8.9-3.6 23.7 4.3 30.2 1.1.9 2.3-1 1.2-1.9-6.9-5.6-4.8-19.8-3.4-27.6.2-1.4-1.9-2.2-2.1-.7zM165.7 181.7c-1.4 6.5-2.5 13.1-3.5 19.7-.7 4.3-1.1 8.6-1.1 13 0 3.5.3 9.2-3.6 11.1-1.3.6-.3 2.7 1 2 6.6-3.1 4.5-13.6 5.1-19.2.9-8.7 2.3-17.3 4.2-25.8.3-1.5-1.8-2.3-2.1-.8zM158.7 159.7c-3.8 8.3-7.7 16.6-10.5 25.3-.2.6.1 1.2.7 1.4s1.2-.1 1.4-.7c2.7-8.5 6.6-16.7 10.3-24.8.6-1.3-1.2-2.6-1.9-1.2zM213.7 99.7c-8.2 9.3-15.3 20.4-19.1 32.3-.2.6.1 1.2.7 1.4s1.2-.1 1.4-.7c3.7-11.5 10.5-22.3 18.5-31.3.9-1-.6-2.8-1.5-1.7zM206.1 148.4c-3.4 4.9-6.4 10.9-6.9 16.9 0 .6.5 1.1 1.1 1.2s1.1-.5 1.2-1.1c.4-5.6 3.4-11.2 6.6-15.8.3-.5.2-1.2-.3-1.6-.6-.3-1.3-.2-1.7.4z"/><path d="M190 159.1c9.1 4.9 13.9 14.1 14.4 24.3.1 1.5 2.3 1.6 2.2.1-.6-11-5.6-21.1-15.4-26.3-1.3-.7-2.5 1.2-1.2 1.9z"/><path d="M188.7 167c19.5 9.4 19.8 34.7 17.3 53.2-1.5 10.9-4.7 21.8-5.1 32.8-.2 4.8 1.2 9.2 1.4 13.9.1 4.2-.2 8.5-.9 12.6-.2 1.5 2 1.5 2.2.1.9-4.7 1.1-9.5.8-14.3-.5-5.2-1.6-9.9-1.1-15.2 1.2-13.3 5-26.1 5.9-39.5 1.1-17.1-2.6-37.6-19.8-45.9-1.3-.5-2 1.7-.7 2.3z"/><path d="M204 200.7c-1.6 14.8-6.1 28.5-10.5 42.6-.9 2.2-1.3 4.6-1.4 7 .1 1 .8 2.4.7 3.3-.1.6-.9 1.3-.9 1.9 0 1.4.8 2.2.9 3.7.2 3.2-.8 9.4-3.2 11.8-1 1 .4 2.7 1.5 1.7 3.2-3.1 4.5-10.9 3.9-15.1-.2-.6-.4-1.1-.8-1.5 0 .1.7-.7.7-1.1 0-3.1-.8-5.8.1-9 4.1-15.1 9.4-29.4 11.1-45.1.3-1.6-1.9-1.7-2.1-.2zM168 210.2c-1.3 7.5-2.5 15-3.6 22.5-.7 4.3-1.3 8.6-1.8 12.9-.5 4.6-2.7 10.4-1.3 15 .4 1.4 2.6.9 2.2-.5-1.3-4.2.9-10.6 1.4-15.1s1.2-9 1.9-13.5c1.1-7.1 2.2-14.2 3.4-21.2.3-1.5-2-1.6-2.2-.1z"/><path d="M192.5 255.9c-7.3-.3-15.5-1.2-22.6.5-3 .7-8.7 2.5-10.7 5.2-1 1.4-.6 3.1-.6 4.9-.1.6.4 1.2 1 1.2.6.1 1.2-.4 1.2-1v-.2c0-3-.5-2.9 1.7-4.5 4-2.6 8.6-4 13.3-4.1 5.5-.3 11.1-.1 16.6.2.6 0 1.1-.6 1.1-1.2 0-.5-.5-1-1-1zM160.2 278.9c9.3-4.2 19.6-9.9 30-7 1.4.4 2.1-1.8.7-2.2-11.1-3.1-21.7 2.6-31.7 7.1-1.3.6-.3 2.6 1 2.1z"/><path d="M158.2 268c8.2-1.9 17.2-3.6 25.6-2.7 1.4.2 1.5-2.2.1-2.3-8.6-1-17.8.8-26.2 2.7-1.3.4-.9 2.6.5 2.3zM204.9 275.1c2.3-.9 4.6-1.7 7-2.2 2.7-.6 3.3-.6 6 .9.8.5.6 1 1.7 1.3s2.2-.1 3.2.1c1.9.3 2.8 1.3 4.4 2.4 2.6 1.8 4.7 3.3 6.1 6.3.6 1.4 2.6.2 2-1.1s-1.1-3.2-2.2-4.4c-1.5-1.6-3.8-2.2-5.5-3.6-.7-.8-1.6-1.4-2.6-1.9-2-.6-3.4.5-5.5-.6-2.4-1.3-3-2.4-6.2-2-3.2.6-6.4 1.5-9.4 2.8-1.3.5-.3 2.5 1 2z"/><path d="M205.9 278.4c1.1 2.6 2.7 4.9 4.7 6.9 1.7 1.5 3.8 2.5 5.5 3.9.8.6 1.9 2.3 3 2.5 2.7.5 3.2-4.5 2.4-6.1-.7-1.6-2.4-2.6-3.6-3.9-1.1-1.1-1.5-2.7-2-4.1-.5-1.5-2.6-.9-2.2.5.5 1.6 1 3.5 2.1 4.8s2.7 1.9 3.4 3.4c.6.7.7 1.8.1 2.5-.7.6-.6.8.4.6-.4-.3-.7-.6-1-.9-2.4-2.2-5.5-3.5-7.7-6-1.4-1.6-2.5-3.4-3.3-5.3-.5-1.3-2.4-.1-1.8 1.2z"/><path d="M221.4 278.4c1.1 1.7 2.3 3.5 3.2 5.3 1.1 2.2 1.3 4.8 1.8 7.2.2.7.2 1.4.4 2 .2.8-.2.8.3.6.6-.3-1.3-.4-1.6-.6s-.6-1.2-.9-1.6l-3.1-5.7c-.3-.6-1-.8-1.5-.5-.6.3-.8 1-.5 1.5 1.8 3.3 4.3 11.9 9.3 8 .3-.3.4-.7.3-1.1-.4-3.1-1.1-6.2-1.9-9.2-.8-2.5-2.6-4.8-4-7.1-.8-1.2-2.7-.1-2 1.1l.2.1z"/><path d="M227.5 280.1c1.4 2.7 2.3 5.7 2.5 8.8.1 1 .1 2 .1 3 0 .4-.2 1.9 0 2.2-.1.7.1.5.5-.4-.9.3-1.9.2-2.6-.4-1.3-.7-2.4 1.2-1.2 2 1.5 1 3.3 1.2 4.9.4.4-.2.6-.6.6-1 0-2.5 0-4.9-.3-7.4-.3-2.9-1.2-5.7-2.6-8.3-.6-1.3-2.6-.2-1.9 1.1z"/><path d="M233.2 284c.4 2.2 1.1 4.4 2 6.5 0 .1.2.6.3.7.1.1 0 .2 0 .1s0-.2.1-.3c-.1-.1-.4-.1-.5-.1-1.2-.4-2.1-1.4-2.4-2.6-.5-1.4-2.6-.9-2.2.5.5 1.8 1.7 3.3 3.3 4.1 1.1.5 2.7.6 3.5-.5.9-1.4-.4-3.1-.8-4.4-.5-1.5-.9-3-1.3-4.6-.1-.6-.7-1-1.3-.8s-.9.8-.7 1.4zM189.1 272.2c5.5 4.8 11.8 8.9 19.2 10 1.4.2 1.5-2.1.1-2.3-6.9-1-12.9-5.1-18.1-9.6-1.1-1-2.2 1-1.2 1.9zM160 276.9c-1.2 6.2 3.3 11.2 8.8 13.2 8.6 3.1 18.3 4.2 27.3 5.6 9.2 1.4 19.6 1.5 28.5 4.3 3.7 1.2 6.6 2.8 10.6 3 5.4.2 10.8-.5 15.9-2.1 1.4-.4.9-2.7-.5-2.3-4.6 1.5-9.4 2.2-14.2 2.1-4.1-.1-6.8-1.4-10.5-2.7-6.7-2.3-14.5-2.4-21.5-3.4-8.9-1.3-17.8-2.6-26.6-4.5-6.2-1.4-17.3-3.6-15.7-12.5.3-1.4-1.8-2.1-2.1-.7zM249.8 295c2.6.6 4.5 2 6.7 3.4 1.1.8 2.2 1.5 3.4 2.2.6.4 2.5 1.1 2.9 1.7.8 1.2 2.7.1 2-1.1-1.2-1.9-4.6-3.2-6.5-4.4-2.5-1.7-4.7-3.4-7.8-4.1-1.4-.2-2.1 2-.7 2.3z"/><path d="M249.4 290.6c3.3-.5 4.9 2.8 7.3 4.4 1.4.9 6.8 3.4 5.9 5.7-.2.6.1 1.2.7 1.4.6.2 1.2-.1 1.4-.7 1.2-3.3-3.1-6.3-5.5-7.6-3.7-2.1-5.6-6-10.3-5.4-1.4.2-.9 2.4.5 2.2z"/><path d="M235.1 286.2c4.2-.1 9.2-1.4 13.1-.1 2 .7 4 1.5 5.9 2.5 2.5 1.4 3.6 3.7 4.7 6.2.6 1.4 2.6.2 2-1.1-.9-2-1.9-4.5-3.6-5.9-2.1-1.8-5.2-2.5-7.6-3.6-4.6-2-9.4-.4-14.4-.3-1.4 0-1.5 2.4-.1 2.3zM247.4 301.7c12.2 0 25.5.5 37.1 4.4 10.3 3.5 14.5 13.7 13.3 24.1-.8 6.9-4.2 13.5-6.8 19.9-8.3 20.1-17.6 39.7-21.7 61.1-.3.9-.5 1.9-.5 2.9.2 2.4-.6-.2.6.2-2.5-.8-6-.4-8.6-.7-4.2-.4-8.4-1.2-12.4-2.5-1.2-.4-4.1-2.5-3.9-.7 0-.4 1.2-1.9 1.3-2.2 9.5-16.5 8.4-37.1 19.2-52.8.3-.5.2-1.2-.3-1.6s-1.2-.2-1.6.3c-11.4 16.5-9.2 38.6-20.6 55.1-.3.5-.2 1.2.3 1.6 7.1 5.1 18.4 5.4 26.9 5.7.6 0 1.1-.5 1.2-1.1 4.1-26.5 17.1-50.1 26.4-74.9 3.4-8.8 4.9-18.6-.2-27.3-5-8.6-13.9-10.7-23.2-12.2-8.7-1.3-17.5-2-26.3-1.9-1.5.3-1.6 2.6-.2 2.6z"/><path d="M169.1 336.6c15.1 10.6 37 7.3 54.1 5.4 17.9-2 35.8-4.5 53.6-7.3 1.4-.2.9-2.5-.5-2.2-16.3 2.6-32.7 4.9-49.1 6.8-17.6 2.1-41.1 6.4-56.8-4.6-1.2-.9-2.4 1.1-1.3 1.9zM246.5 410.8c-2.7.5-4.9 3.2-6.1 5.4-1.7 3.1-3.6 8-3.1 11.7.2 1.5 2.4.9 2.2-.5-.4-2.7 1.4-7.5 2.8-10 .9-1.7 2.6-4 4.7-4.4 1.4-.2.9-2.5-.5-2.2zM265.3 415.8c.8 5.2 4 10.2 7.7 13.8 1.1 1 2.7-.6 1.6-1.6-3.4-3.4-6.4-7.9-7.2-12.8-.2-1.3-2.3-.8-2.1.6z"/><path d="M242.6 416.7c9.2 4.1 17.1 12 27 14.3 1.7.3 3.4.4 5.1.3 2.2-.1 1.6-.5 3.7 1.2 3.2 2.5 6.5 5.2 10.3 6.9 1.3.6 2-1.6.7-2.2-3.9-1.7-7.2-4.6-10.6-7.2s-5.9-.2-10.1-1.5c-9.1-2.9-16.7-10-25.4-13.9-1.4-.7-2.1 1.5-.7 2.1z"/><path d="M285.8 437.4c2.1-.3 4.3-.4 6.4-.2 3.2.2 12.3 2.9 10.2 8.1-.1.3 1.2-1.1 0-.3-.6.2-1.3.4-2 .5-2.5.6-5 1.1-7.5 1.5-12.9 2.1-24.7.5-36.3-5.9-1.3-.7-2.4 1.3-1.2 2 7.5 4.1 16.4 7.4 25 7.5 7.8-.1 15.6-1.3 23.2-3.4.4-.1.7-.4.8-.8 2.3-10.6-12-12.2-19.1-11.2-1.4.2-.9 2.4.5 2.2zM164 297.5c10.1.5 21.1.8 30.8-2.1 1.4-.4.9-2.7-.5-2.2-9.5 2.9-20.4 2.5-30.2 2-.6 0-1.1.6-1.1 1.2 0 .5.5.9 1 1.1zM141.9 210.2v13.7c0 1.5 2.2 1.6 2.2.1v-13.7c.1-.6-.4-1.2-1-1.2-.6-.1-1.2.4-1.2 1.1 0-.2 0-.1 0 0zM247.5 357.5c-1.5 5.6-2.7 11.2-3.7 16.9-1.6 7.8-4 15.4-7.3 22.7-1.1 2.5-4.5 6.6-3.5 9.4 1.5 4 7.9 4.1 11.2 3.7 1.4-.1.9-2.4-.5-2.2-2.4.3-7.6.3-8.8-2.7.1.2.8-1.1 1.4-2.5 2.3-4.8 4.4-9.7 6.1-14.8 3.4-9.7 4.1-20 7.1-29.8.2-.6-.1-1.2-.7-1.4s-1.1.1-1.3.7z"/><path d="M233.7 406.5c-.6 1.7-2.5 4.5-1.6 6.4 1.6 3.4 5.4 5.2 8.9 5.6 1.4.2 1.5-2.1.1-2.3-2.1-.2-4-1-5.5-2.4-.4-.4-.8-.9-1.2-1.4-.1-.1-.4-.8-.5-.9s-.2.9.1.4c.3-.6.5-1.2.7-1.9l1.1-2.9c.2-.6-.1-1.2-.7-1.4-.5-.1-1.2.2-1.4.8z"/><path d="M232.7 410.8c-4 1-6.1 5.2-6.5 8.9-.2 1.5 2 1.6 2.2.1.3-2.8 1.9-6.1 4.8-6.8 1.3-.3.9-2.6-.5-2.2z"/><path d="M209.2 406.5l23.3 4.7c1.4.3 2.1-1.9.7-2.2l-23.3-4.7c-1.4-.3-2 1.9-.7 2.2zM242.3 381.9l-32.2 3.3c-1.4.1-.9 2.4.5 2.2l32.2-3.3c1.4-.1 1-2.3-.5-2.2zM139.3 354.5c.4 13.1.9 26.2 1.3 39.2 0 .6.5 1.2 1.1 1.2h.3l51.6-5.6c1.4-.1.9-2.4-.5-2.2l-51.7 5.6 1.4 1.2c-.4-13.1-.9-26.2-1.3-39.2 0-1.6-2.2-1.7-2.2-.2zM278.2 278.7v18c0 1.5 2.2 1.6 2.2.1v-17.9c.1-1.6-2.2-1.7-2.2-.2zM231.2 113.9h43.7c2.3 0 4.6.1 6.9 0 .9 0-.4-1.2-.4-.6V185c0 .8-.1 1.5 0 2.3.1 1.1.4-.2.7-.3-1.5.2-3.1.2-4.6.1l-23.2.6L207 189c-1.1 0-1.2 1.8-.1 1.7l75.2-2.1c.5 0 .9-.4.9-.8V113c0-.5-.3-.9-.8-.9h-51c-1 .1-1.1 1.8 0 1.8z"/><path d="M229.9 119.4h39c2 0 4.1-.1 6.1 0 .9 0-.7-1.4-.5-.7.1.7.1 1.4 0 2.1-.6 6.1 0 12.6 0 18.7v24.6c0 5.3-1 11.7 0 16.9.3 1.4 1.1.2.3.1-1.9-.1-3.9.1-5.9.1l-21.2.4-41.4.8c-1.1 0-1.1 1.8-.1 1.7l69.1-1.4c.5 0 .8-.4.9-.8v-63.5c0-.5-.3-.9-.8-.9H230c-1.1.2-1.2 1.9-.1 1.9zM235.5 188.7c-1.5 3.1-2.8 6.3-4 9.5-1.1 3-3.3 7.7-1.9 11 .6 1.4 2.5.2 2-1.1-1.2-2.8 1.7-8.2 2.6-10.7s2-5 3.2-7.5c.6-1.3-1.3-2.6-1.9-1.2zM219.3 189.9c-1.5 3.1-2.8 6.3-4 9.5-1.1 3.1-3.3 7.7-1.9 11 .6 1.4 2.5.2 2-1.1-1.2-2.8 1.7-8.2 2.6-10.7 1-2.6 2-5 3.2-7.5.6-1.3-1.2-2.6-1.9-1.2z"/><path d="M230.2 208.5c6.6 0 11.7 1.7 18 4.2 1.1.3 2.1.8 3 1.4 1.5 1.4.6 3.9 2.8 2.6-.4.1-.8.1-1.2.1-2.4-.4-5.5.4-7.9.6l-37.8 2.9c-1.4.1-1.5 2.4-.1 2.3l46.9-3.6c.6 0 1.1-.5 1.2-1.1.1-6.1-5.7-7.3-10.5-9-4.5-1.9-9.4-2.8-14.3-2.7-1.4 0-1.5 2.4-.1 2.3zM213.4 207.2c-2 .1-4 .7-5.7 1.8-1.2.9.3 2.6 1.5 1.7-.4.3 0 0 .1 0 .3-.1.6-.3.9-.4 1.2-.4 2.5-.7 3.7-.8 1.4-.2.9-2.4-.5-2.3z"/><path d="M210.9 216.6l33.7-2c1.4-.1 1.5-2.4.1-2.3l-33.7 2c-1.4.1-1.5 2.4-.1 2.3zM506.6 136.5c7.3 3.1 14.6 6.4 21.7 10.1 3.7 1.9 9 4.1 11.7 7.3 1.5 1.8 2.1 4.3 2.7 6.5 5.4 19.5 7.8 40.2 10.2 60.3 1.2 9.8 2.5 19.8 2.7 29.7 0 1.5 2.2 1.6 2.2.1-.3-20.7-3.9-41.7-7.2-62-1.6-9.7-3.1-19.5-5.8-28.9-1.9-6.7-4.8-9.1-11-12.6-8.6-4.7-17.4-9-26.5-12.7-1.4-.6-2.1 1.6-.7 2.2zM555.5 280.1c.3 15-1.6 29-15 38.3-6.4 4.4-13.7 7.5-21.1 10-3.6 1.2-8.5 1.9-11.7 4-1.2.8-.2 2.9 1 2 4.2-2.9 10.9-3.6 15.7-5.5 7.4-2.8 14.9-6.3 20.9-11.5 11.3-9.6 12.7-23.5 12.4-37.4 0-1.5-2.2-1.6-2.2-.1v.2zM498.2 337.1c-7.3 4.5-7.9 13.8-5.7 21.2 2 6.8 5 13.9 4.6 21.2-.2 2.4-.7 4.8-1.6 7.1-1.2 3.4-2 8.4-3.9 11.4-2.4 3.9-2.9-2.8-3.5-5-.8-3.5-1.7-6.9-2.5-10.4-1.9-8.2-3.6-16.5-5.1-24.8-3.1-18.1-4.3-36.4-3.7-54.8.4-11.9 1.1-23.9 2.6-35.7.2-1.5-2-1.6-2.2-.1-3.6 29.2-4.2 59.2.7 88.3 1.5 9 3.3 17.9 5.4 26.8.8 3.5 1.6 7 2.5 10.5.6 2.5.9 6.3 2.2 8.5 3 4.9 5.2-1 5.9-3.6 1.7-6.1 5-11.8 5.4-18.2.7-11.9-13.7-32.1-.1-40.4 1.3-.7.3-2.8-1-2z"/><path d="M476.3 280.6c-9.5 1.4-18.8 3.7-27.8 7-5.2 2-10.8 4.3-14.8 8.3-4.2 4.1-5.2 10.3-5.7 16-1.3 14.9 1.8 30 1.8 44.9 0 13.2-.2 26.5-.4 39.7-.2 10.8-.5 21.6-.5 32.4 0 .5.4 1.2 1.1 1.2 5.9-.4 12.2-.4 18 1 4.7 1.1 10.1 5.8 15.2 4.2.5-.1.8-.6.9-1.1.3-7.2-1.3-14.2-.9-21.4.5-9.9 1.4-19.8 2-29.7.7-10.9.7-21.8 1.6-32.7.7-8.5 1.7-16.8.5-25.4-.2-1.5-2.4-.9-2.2.5 1.8 13-.9 26.4-1.2 39.4-.3 14-1.7 27.9-2.6 41.9-.4 4.7-.6 9.3-.4 14 .2 3 .9 6 1 9.1.1 1.2.1 2.3 0 3.5-.1.9 1.3-.2.2-.2-5.7 0-10.7-4-16.3-4.9-2.7-.4-5.4-.6-8.1-.7-1.6 0-5.3-.7-6.7.1-.8.4-.2 1.4.2.3.4-.8 0-2.6 0-3.5l.2-11.3c.2-11 .3-22 .5-32.9.1-9.1.3-18.2.2-27.3-.1-12.6-2.5-25.1-2-37.8.3-6.7 1-14.3 6.6-18.8 4.7-3.8 10.7-6.1 16.4-7.9 7.7-2.5 15.7-4.4 23.7-5.6 1.3-.3.9-2.5-.5-2.3z"/><path d="M467.2 335.6l9.5-1.9c.6-.2 1-.8.8-1.4-.2-.5-.7-.9-1.3-.8l-9.5 1.9c-1.3.2-.9 2.5.5 2.2zM390.7 316.2c-3.8 19.9-4.5 40.6-5.5 60.8-.4 8-.7 16-.9 24 0 1.2-.5 3.2-.1 4.3.9 2.5 5 3.5 7.2 4.1 1.4.4 2.1-1.8.7-2.2-1.8-.5-3.6-1.2-5.2-2.2-.6-.4-1-.9-.5.3-.1-.4-.1-.8 0-1.2 0-2.1.1-4.2.2-6.2.3-8 .6-16 1-24 1-18.9 1.6-38.2 5.2-56.9.3-1.5-1.8-2.2-2.1-.8zM414.4 289.2c7.7-3.7 16.1-6 24.4-7.9 1.4-.3.9-2.6-.5-2.2-8.5 2-17.1 4.4-24.9 8.1-1.3.6-.4 2.6 1 2zM420.1 323.3c-.7 15.6-1.4 31.3-2.1 46.9-.5 10.5-1 20.9-1.5 31.4-.2 3.2-.3 6.5-.5 9.8.1.8 0 1.5-.1 2.3-.4.9.3-.4.2-.3-.9.5-1.8.9-2.8 1.2-1.3.6-.3 2.6 1 2 2.6-1.1 3.4-1.1 3.8-3.6.3-2.7.5-5.4.4-8.1.5-10.6 1-21.1 1.5-31.7.8-16.6 1.5-33.2 2.2-49.8.1-.6-.4-1.2-1-1.2-.6-.1-1.2.4-1.2 1 0-.1 0 0 .1.1zM430.8 428c-2.9 2.5-5.9 5-9 7.3s-7.5 4-9.1 7.9c-.6 1.4 1.5 2.1 2.1.7 1.4-3.4 6.9-5.6 9.8-7.9 2.6-2 5.1-4.1 7.6-6.3.5-.4.5-1.1.1-1.6s-1-.5-1.5-.1zM414 453.8c9.4 4.8 21.3 5 29.5-2.5 1.7-1.6 3.1-3.5 4.7-5.2 3-2.9 6.5-3.9 10.3-5.4s3.5-2.7 3.5-6.4c0-1.5-2.2-1.6-2.2-.1 0 .9.4 3 0 3.6-.6 1-4.7 1.6-5.8 2-4.1 1.6-6.8 4.1-9.7 7.4-7.6 8.4-19.1 9.7-29 4.6-1.3-.6-2.5 1.3-1.3 2z"/><path d="M415.6 415.8v8.9l.6-1-2.1 1.4c-1.2.8-.2 2.8 1 2 .7-.5 2.1-1 2.5-1.8.2-.8.3-1.6.2-2.4v-7.1c.1-.6-.4-1.2-1-1.2-.6-.1-1.2.4-1.2 1v.2zM387.5 406.9c-4.3 12.5-36.7 1.4-35.4 15.7.6 6.7 9.7 7.3 14.6 7.9 4.3.6 8.7 1.4 13.1.8 4-.5 7.9-1.3 11.9-1.3 1.4 0 1.5-2.3.1-2.3-6.1 0-12 1.9-18 1.4-4.5-.4-10-.7-14.3-2-3.4-1.1-6.6-3.8-4-7.3 1.7-2.3 4.6-2.4 7.3-2.6 8.1-.7 23.3.5 26.8-9.5.2-.6-.2-1.2-.8-1.4-.5-.2-1.1 0-1.3.6zM463.5 267.4c-7.4 4.8-16.4 10.6-25.3 11.6l1.2 1.8c1.3-2.5 3.5-8.7 6.1-9.8 1.3-.6.3-2.6-1-2-3.2 1.5-5.4 7.7-7 10.6-.3.5-.2 1.3.4 1.6.2.1.5.2.8.2 9.1-1 18.2-7 25.8-11.8 1.2-.9.3-2.9-1-2.2zM551.5 343.8c6.9 1.3 15.7-7.4 19-12.5 6.3-9.7 9.7-21.8 12.6-32.8 1.5-5.7 5.6-15.5 3.2-21.4-1.8-4.3-7.4-6.9-11.4-8.5-3.5-1.4-7.5-1.3-11.2-1.1-11.9.5-23.9 2.8-35.4 5.8-6.9 1.7-14.1 3.4-19 8.9-7.1 8-8.7 20.5-10.1 30.7-1.3 9.2-4.5 25.4 3.6 32.8 4.3 4 13.9 3.4 18.8 3.2 10.2-.4 20.6-2.9 30.6-5 .6-.1 1-.8.9-1.4s-.8-1-1.4-.9c-14 2.9-29.6 7-44 3.9-7.1-1.5-7.7-11.2-7.7-17 0-12.3 1.9-26.5 6.8-37.9 2.4-6.1 7.4-10.7 13.6-12.7 9.2-2.9 18.6-5.1 28.2-6.5 8.4-1.3 19.4-3.8 27.3.2 3.3 1.7 8.3 3.7 8.9 7.9.4 2.9-.9 6.4-1.5 9.2-2.3 11.2-5.7 22.2-10.2 32.8-1.9 4.3-4 8.8-7.3 12.2-2.6 2.6-9.5 8.6-13.6 7.9-1.4-.3-2.1 1.9-.7 2.2z"/><path d="M581.5 282.5c4.1-5-10.6-5.1-12.4-5.1-11.5-.2-23.3.2-34.5 2.9-9.8 2.3-17 6.4-20.9 15.9-4.4 10.7-6.1 23-6.9 34.5-.5 7.4-1.2 17.7 9.1 18 1.4 0 1.5-2.3.1-2.3-10.6-.3-7.1-16.3-6.3-22.9 1.2-10.4 2.8-23.5 9.2-32.3 6.5-9 21.8-10.1 31.9-10.9 5.4-.4 10.8-.6 16.3-.5 2 0 12.6 1.5 12.9 1.1-.9 1 .5 2.8 1.5 1.6z"/><path d="M575.8 280.1c-1.4 8.4-3.2 16.7-5.5 25-1.5 6.1-3.6 11.9-6.3 17.6-2.6 5.2-7.4 11.5-12.8 14-1.5.7-4.1.8-6.1 1.1l-14.2 1.9-22.2 3c-1.4.2-.9 2.5.5 2.2l24.5-3.3c6.3-.9 15.1-.2 20.4-4.2 17.1-12.8 20.8-37.4 24.1-57.2 0-1.5-2.2-1.6-2.4-.1zM484.1 382.9l-20.6 4.9c-1.4.3-.9 2.6.5 2.3l20.6-4.9c1.3-.4.9-2.7-.5-2.3zM463 399.3h19c1.4 0 1.5-2.3.1-2.3H463c-1.4 0-1.5 2.3 0 2.3zM555.5 261.1l.2 7.3c0 1.5 2.3 1.6 2.2.1l-.2-7.3c0-1.4-2.2-1.5-2.2-.1zM536 149c.9-8.3 3.4-18.4 10.8-23.2 12-7.8 28.4-7.5 41.3-2.4 10.4 4.2 19.3 10.5 18.3 22.6-.4 3.3-.9 6.5-1.7 9.7-6.2 29.7-13.4 59.2-20.5 88.7-2.1 9-4.3 18-6.5 27-.3 1.4 1.8 2.2 2.1.7 6.4-26.7 12.8-53.3 19-80 3.2-13.7 6.6-27.5 9.1-41.3.8-4.6 1.3-9.4-.2-13.9-3.4-10-16-15.4-25.3-17.8-12.3-3.2-28.6-2.2-38.8 6.2-6.6 5.4-8.9 15.5-9.8 23.6-.1 1.5 2.1 1.6 2.2.1z"/><path d="M587.7 130.2c10.5 4.9 11.2 18.6 8.9 28.2-.3 1.4 1.8 2.2 2.1.7 2.6-11 1.3-25.7-10.4-31.1-1.2-.6-1.9 1.6-.6 2.2zM595.5 162.6c-.7 2.4-1.3 4.8-1.9 7.1-.4 1.4 1.7 2.1 2.1.7.7-2.4 1.3-4.8 1.9-7.1.4-1.4-1.7-2.1-2.1-.7zM582.6 201.8c4.3 4 2.1 9.8.9 14.6-1.2 4.9-2.3 10-3.4 15-2 9.1-3.2 19.3-7 28-.6 1.3 1.5 2.1 2.1.7 4.4-10.2 5.7-22.3 8.1-33.1 1.7-7.6 7.7-20.4.9-26.8-1.1-1-2.7.6-1.6 1.6zM505.5 346.4V360c-.1.6.4 1.2 1 1.2s1.2-.4 1.2-1V346.4c0-1.4-2.2-1.5-2.2 0zM465.9 346.1c3.7 1.5 7.7 1.9 11.6 1.2 1.4-.2.9-2.5-.5-2.2-3.5.6-7.1.2-10.4-1.1-1.3-.7-2 1.5-.7 2.1zM421.4 331.2l8.1-1.7c.6-.2 1-.8.8-1.4-.2-.5-.7-.9-1.3-.8l-8.1 1.8c-.6.1-1 .7-.9 1.4s.8.9 1.4.7z"/><path d="M422 329.3c-.6 1.5-.6 3.1-.2 4.7 1 3.5 4.4 5.1 7.7 5.7 1.4.3 2.1-1.9.7-2.2-2.6-.5-5.8-1.5-6.4-4.5-.2-1-.1-2 .3-3 .6-1.3-1.5-2.1-2.1-.7zM541.2 181.1c.1 5.5-.2 11-1 16.5-.8 5.1-2.9 10-4.2 14.9-1.7 6.3-3.2 12.7-5 18.9-1.2 4.1-2.4 11.4-6.3 13.9-5.7 3.6-15.8 2.7-22.2 3.1-7.6.5-15.1 1.6-22.7 1.6-3.8 0-7.7-.2-11.5-.4-.9 0-2.5.1-3.4-.2-1.8-.8.8 1.6.5-.6-.8-5.1-.9-9.5-4.5-13.6l-.6 1.9c14.6-4.6 30.8-6.2 45.9-8.9.4-.1.7-.4.8-.8 2.2-9.6 3.2-19.6 4.3-29.3.6-5.7.7-11.4 2.4-16.9 1.5-4.8 3.5-9.5 5.9-13.9.7-1.3-1.2-2.6-1.9-1.2-4.2 7.8-7.3 16.2-8 25.1-.8 10.4-2.3 20.8-4 31-.1.7-.8 4.4-.4 4 .5-.5-1.5.1-2.1.2-4.1.7-8.3 1.5-12.4 2.2-10.2 1.9-21.1 3.1-31 6.2-.6.2-1 .8-.8 1.5 0 .2.1.3.2.4 3.2 3.8 4.5 8.9 3.7 13.8 0 .6.4 1.2 1.1 1.2 13 1.1 25.5-.1 38.5-.9 8.4-.5 22.8 1.1 27-8 4.8-10.2 6.6-22 9.5-32.8 2.7-9.7 4.5-18.6 4.4-28.8.1-1.6-2.2-1.7-2.2-.1zM463.5 141.2c-7.5 4.5-16.2 9.9-19.6 18.3-4.4 11.2-7.9 22.8-11.5 34.3-1.5 4.7-2.6 9.4-4.2 14-1.9 5.6-8.3 8.8-13.8 10.7-10.6 3.7-22 4.8-32.5 9-1 .4-.6 1.8.2 2.1 5.4 2.5 8.9 7.6 8.4 13.6 0 .6.4 1.2 1 1.2h.3c13.9-2.1 28.2-4 41.8-7.9 12.6-3.6 19.3-18.3 24.9-29.1.7-1.3-1.2-2.6-1.9-1.2-2.9 5.7-6.2 11.1-9.8 16.4-2.3 3.4-4.9 7.4-8.4 9.7-2.4 1.5-5.5 2.1-8.2 2.8-12.8 3.2-25.9 5.2-38.9 7.2l1.4 1.2c.6-7-3.6-12.9-9.9-15.8 0 .7.1 1.4.2 2.1 10.6-4.3 22.5-4.9 33.1-9.1 4.5-1.8 11.8-4.8 13.7-9.7 1.1-3.1 1.8-6.6 2.7-9.8 3.6-12.1 7.4-24.1 11.7-36 1.7-4.8 3.1-8.6 7-12.1 4.1-3.6 8.5-6.8 13.3-9.6 1.3-1 .3-3.1-1-2.3z"/><path d="M460.7 235.5c-8 .6-16-.7-23.9-.1-7.1.6-11.6 2.5-15.2 8.7-.7 1.2 1.1 2.5 1.9 1.2 4.3-7.6 11.9-7.9 20-7.4 5.7.3 11.4.2 17.1-.3 1.5.1 1.6-2.2.1-2.1z"/><path d="M431 238.5c-4.5 2-9.5 4.7-12.5 8.7-2 2.7-5.4 10.2.5 9.9 1.4-.1 1.5-2.4.1-2.3s-1.3.2-1-1.3c.3-1.3.7-2.5 1.3-3.7 1.3-2 3-3.7 5.1-5 2.3-1.6 4.9-3 7.5-4.2 1.3-.6.3-2.6-1-2.1zM463.8 247.6c-6.8 2.5-13.9 4.5-21 5.9-1.9.5-3.7 1.2-5.5 2-1.1.5-2.3 1-3.5 1.3-2.6.6-.9.3 0-.5 4.3-3.9 10.2-7.8 16-8.6 1.4-.2.9-2.5-.5-2.3-7.2 1.1-13 6.1-18.6 10.3-.3.3-.4.7-.3 1.1.9 5.5 11.8-.8 14.6-1.3 6.6-1.1 13-3.5 19.3-5.7 1.3-.4.9-2.7-.5-2.2z"/><path d="M441.5 242.2c-3.4 1.7-6.6 3.8-9.5 6.2-3.2 2.7-7 5.3-8.8 9.3-.2.5 0 1 .5 1.3 3.7 2.3 6.4.3 9.3-2.1 1.1-.9-.4-2.6-1.5-1.7-1.9 1.5-4.2 3.4-6.6 1.9l.5 1.3c1.6-3.6 5.8-6.4 8.8-8.8 2.6-2.1 5.5-3.9 8.4-5.4 1.2-.6.2-2.7-1.1-2z"/><path d="M435 240.6c-2.4 1.2-4.8 2.6-7 4.2-2.5 1.8-4.2 4.4-6.3 6.5-1.4 1.5-5 4.2-4.5 6.5.8 3.7 5 1.8 7.3 1.4 1.4-.3.9-2.5-.5-2.3-1.6.3-3.5 1.5-4.7 0 0 0-.3.7.3 0s1-1.3 1.6-1.9c1.8-1.9 3.7-3.7 5.3-5.7 2.4-3.1 6.1-4.9 9.5-6.8 1.3-.6.3-2.7-1-1.9zM532.5 159.3c1.1 2.6 1.5 5.5 1.3 8.3 0 .6.4 1.1 1.1 1.2s1.1-.4 1.2-1.1c.2-3.2-.3-6.5-1.5-9.5-.7-1.4-2.6-.2-2.1 1.1zM464.3 251.6l22.7-5.7c1.4-.3.9-2.6-.5-2.2l-22.7 5.7c-1.4.3-.9 2.6.5 2.2zM382.7 227.4c-6.2-1.1-12.5-2.2-18.8-3-3.2-.4-6.6-1-9.3.9-2.4 1.7-4.4 4.7-6 7.1-.9 1.2 1 2.4 1.9 1.2 1.6-2.1 3.7-5.8 6.1-7s7.7 0 10.6.4c5.2.8 10.3 1.6 15.5 2.5 1.3.3 1.4-2 0-2.1z"/><path d="M361.8 225.8c-1.3 1.3-2.7 2.4-4.2 3.4-1.7 1.1-3.9 1.4-5.2 3-.9 1.1.6 2.9 1.5 1.7 1.3-1.6 3.8-2 5.4-3.1 1.4-1 2.7-2.1 4-3.3 1-1.1-.4-2.8-1.5-1.7zM373.2 234.3c-2.8 3.8-8.9 2.4-11.3 6.7-1.1 2.1-1.5 7.4 1.7 7.9 1.6.2 4.9-1.8 6.2-2.4 2.9-1.3 5.8-.8 8.7-1.6 4.5-1.2 8.3-2.6 13.1-2.9 1.4-.1 1.5-2.4.1-2.3-2.7.1-5.4.4-8.1.9-1.5.3-2.9.7-4.3 1.2-2.6.8-5.1.7-7.7 1.3-2.2.5-4.5 3-6.8 2.9-3.6 0-.3-5.3 2.5-6.3 3.3-1.1 5.4-1.3 7.5-4.3.3-.5.1-1.2-.4-1.5-.2-.1-.8 0-1.2.4z"/><path d="M373.8 235.6c.2-2.9-7.1-2.5-8.2-2.6-4.4-.2-8.9-.2-13.3-.4-3.8-.2-9.1 0-12.3-2.4-1.1-.8-2.2.8-1.4 1.8 10.4 12.9 25.7 25.7 42.4 28.5 5.6 1 11.5-.7 17-1.5l19.1-2.7c1.4-.2.9-2.5-.5-2.3l-16.2 2.3c-5.6.8-11.8 2.6-17.5 2.1-16.5-1.3-32.7-15.7-42.6-28.1l-1.4 1.8c3.9 2.9 10.5 2.6 15.1 2.8 3.6.2 7.2.2 10.8.3 1.6 0 3.2.1 4.9.3 1.8.3 2.2 1 2.2-.1-.1.6.4 1.2 1 1.2.6.1 1.2-.4 1.2-1-.3.1-.3 0-.3 0zM406.8 242l16.7 2.4c1.4.2 1.5-2.1.1-2.3l-16.7-2.4c-1.5-.2-1.6 2.1-.1 2.3z"/><path d="M345.2 236.8l-15.5 2.7c-1.1.2-1.1 1.9-.1 2.2l42 16.1c1.4.5 2-1.7.7-2.2l-41.9-16.1-.1 2.2 15.5-2.7c1.4-.2.9-2.4-.6-2.2zM461.1 101.5c-4.4 1.4-4.1 7.6-1.6 10.8 2.9 3.7 9.6 4 13.2 1.1 2.4-1.9 3.5-7.8 1.5-10.3-1.1-1.3-3.2-1.6-4.8-1.8-2.7-.3-5.5-.3-8.3.2-1.4.2-.9 2.5.5 2.2 2.8-.5 5.6-.5 8.4 0 1.4.3 2.6.4 2.9 2 .2 1.3 0 2.7-.4 4-.9 2.6-3.7 3.4-6.3 3.3-2.3.1-4.5-1.2-5.6-3.2-.7-1.6-1.3-5.3 1-6.1 1.3-.4.9-2.7-.5-2.2zM455 103.6c-1.3-2-4.6-2.1-6.7-1.9s-5.2.7-5.2 3.3c0 3.7 1.7 11.5 7 10.3.6-.1 1-.7.9-1.4s-.7-1-1.4-.9c-3.1.7-3.8-5.1-4.1-7 0-.3-.3-1.1-.1-1.4s2.3-.6 2.7-.6c1.3-.2 2.7-.1 4 .2.3.1 1.2.7 1.1.5.8 1.2 2.8.1 2-1.1h-.2z"/><path d="M454.8 105.5c.8-.8 2.5-.6 3.7.1s2.4-1.2 1.2-2c-1.9-1.1-4.6-1.6-6.4.1-1 1 .4 2.7 1.5 1.8zM474.2 105.7l13 4.9c1.4.5 2-1.7.7-2.2l-13-4.9c-1.3-.5-2 1.7-.7 2.2zM451.8 107.6c-1.5 2.9-3.2 6.4-3.4 9.7-.2 3.7 3.9 4.9 7 4.8 1.4 0 1.5-2.3.1-2.3-1.1 0-2.1-.1-3.1-.4-2.2-.8-1.9-2.1-1.3-4 .7-2.3 1.5-4.4 2.6-6.5.7-1.3-1.1-2.6-1.9-1.3z"/><path d="M446.2 114.2c.2 4.1 1.1 8.2 2.6 12l3.6 9c.8 1.9 1.2 4.7 2.5 6.3 2.5 2.9 7.8 2 11 1.2 6.2-1.7 10.8-6.3 14.6-11.2.9-1.2-1-2.4-1.9-1.2-3.7 4.9-8.4 9.2-14.5 10.5-2.4.5-5.4.9-7.1-.8-1.2-1.2-1.5-3-2.1-4.5-2.7-7-5.9-13.5-6.4-21.1-.1-1.6-2.3-1.7-2.3-.2zM446.8 103.3c-.1-5.7-.3-11.7 0-17.4.2-3.6 1.8-7 4.5-9.5.6-.6 3.3-2.5 2.6-2.4s1.9 1.3 2.7 1.7c2.6 1.3 5.2 2.4 8 3.2 2.8.8 13.2.5 14 2.2.7 1.3 2.6.2 2-1.1-1-2-4.9-2-6.6-2.2-7.1-.7-13.2-2.1-19.4-5.9-.3-.2-.8-.2-1.1-.1-11.3 6.7-9.1 19.8-8.9 31.3 0 1.6 2.3 1.7 2.2.2zM467.9 108.5c0 1.8-1 3.2-2.2 3.2s-2.2-1.4-2.2-3.2 1-3.2 2.2-3.2 2.2 1.4 2.2 3.2zM451.8 108.8c0 1.8-1 3.2-2.2 3.2s-2.2-1.4-2.2-3.2 1-3.2 2.2-3.2 2.2 1.4 2.2 3.2zM462.8 100.7c3.2-1.2 7.1-.5 10.2.4 1.4.4 2-1.8.7-2.2-3.5-1-7.8-1.8-11.4-.5-1.3.5-.9 2.8.5 2.3z"/><path d="M446.2 101.1c1.8-1.1 4-1.3 5.9-.6 1.3.6 2-1.6.7-2.2-2.4-1.1-5.4-.4-7.6.7-1.2.7-.3 2.7 1 2.1zM475.7 82.6c-1.5 5.5 0 9.8 3.5 13.9 4 4.7 4.5 12.1 4.4 18.1-.1.6.4 1.2 1 1.2.6.1 1.2-.4 1.2-1v-.2c.2-4.9-.5-9.8-1.9-14.4-.9-2.6-2.3-4.1-3.9-6.2-2.4-3-3.2-7-2.1-10.8.3-1.3-1.8-2.1-2.2-.6z"/><path d="M486.2 114.8c.8-1.7 2-3.2 3.4-4.4 3.7-3.1 4.6 3.1 3.1 5.5-1.2 2-3.2 3.7-4.7 5.5-.9 1.1-3.2 5.1-5 3.9-1.2-.8-2.4 1.1-1.2 2 3.6 2.5 5.1-1.1 7.1-3.6 2.2-2.6 5.9-5.5 6.6-9.1.6-3-.2-7.8-4.1-7.7-3.2.1-5.7 4.1-7.1 6.5-.7 1.5 1.1 2.8 1.9 1.4z"/><path d="M488.4 124.6c3.6.4 8.8 2.2 10.7 5.6.3.5 1 .7 1.5.4.2-.1.4-.3.5-.6 1.5-4.6 2.8-9.3 3.9-14 2.2-8.9 5.6-18.1 5.5-27.3-.1-9.8-2.7-20-11.9-24.8-11.6-6-24.3-2.6-36.6-2.8-5.9-.1-11.3-1.6-15.4 3.8-3.3 4.3-2.5 9.8.4 14.1.8 1.2 2.8.1 2-1.1-1.7-2.3-2.4-5.2-1.8-8 1-5.7 5.2-7 10.5-6.7 6 .2 12.1 0 18.1-.6 8.9-.7 20.2 0 26.8 6.9 7.7 8.1 6.3 22.5 3.8 32.2-2.4 9.2-4.4 18.5-7.4 27.6l2-.2c-2.3-4.1-8.1-6.3-12.5-6.8-1.4-.1-1.5 2.2-.1 2.3zM479.8 154c-3.1-4.4-5.9-8.9-8.7-13.5-.8-1.3-2.7-.1-2 1.1 3 4.7 5.9 9.4 9 14 .8 1.2 2.4-.4 1.7-1.6zM450.9 126.4c4.9.1 9.9.4 14.8 0l-1-1.5c-1 2.5-3.3 7.9-6.5 7.9s-5.4-5.7-6.1-7.8c-.5-1.4-2.6-.9-2.2.5 1.2 3.5 3.8 9.4 8.2 9.6s7.4-6 8.8-9.5c.2-.6-.1-1.3-.7-1.5-.1 0-.2 0-.3-.1-4.9.4-9.9.1-14.8 0-1.6.1-1.7 2.4-.2 2.4z"/><path d="M499 129.6c.2 4.6-.2 9.3-1.1 13.8-1.2 5-4 9.3-6.2 13.9-4.1 8.8-5.6 17.9-6.7 27.5-1.8 15.4-3.2 30.9-4.4 46.3-.1.6.4 1.2 1 1.2.6.1 1.2-.4 1.2-1v-.2c1.3-15.5 2.6-30.9 4.4-46.3 1.3-11.2 3.7-21.2 8.9-31.4 3.9-7.7 5.2-15.1 5.1-23.8 0-1.4-2.2-1.5-2.2 0z"/><path d="M501.1 128.2c1.5.2 4.5 7.9 4.7 9.4.4 3-.2 6.5-.3 9.5-.2 4.4-.4 8.7-1 13.1-.1.8-.1 3.7-.9 4.3-.5.4-7-.9-8.6-.6-.6.2-1 .8-.8 1.4.8 2.5 4 8.6 3.9 10.1-.2 2.4-2.6 5.8-3.6 8-4.2 9.6-8.9 19.2-11.8 29.2-.2.6.1 1.2.7 1.4.6.2 1.2-.1 1.4-.7 3.3-11.3 8.7-22.1 13.5-32.9 1.3-2.9 2.2-3.8 1.3-6.6-.7-2.1-3.5-6.4-3-8.6.1-.4 5.9 2.7 8 1.5 2.2-1.3 2.1-5.3 2.4-7.5.6-5.4.9-10.8 1.1-16.2.2-4.2.3-6.3-1.4-10.2-.8-1.9-2.5-6.6-5.2-7-1.7-.1-1.8 2.2-.4 2.4z"/><path d="M499.1 132.3c-5.2 8.5-11.7 18.5-20.7 23.3-.6.3-.8 1.1-.4 1.7 0 .1.1.1.1.1 3.1 4.4 6.3 8.9 9.4 13.4.8 1.2 2.4-.4 1.6-1.6-3.1-4.5-6.2-8.9-9.4-13.4l-.3 1.8c9.2-5 16.1-15.3 21.5-24.1.8-1.2-1-2.5-1.8-1.2z"/><path d="M478.2 155.8c-3.3 3.7-7.1 7.7-9.2 12.2-.6 1.3 1.5 2 2.1.7 1.9-4.1 5.6-7.8 8.6-11.2 1-1.1-.5-2.8-1.5-1.7z"/><path d="M471 165.9l2.6 4.1c.2.4.7.7 1.2.6 1.8-.5 3.6.8 4.9 1.8.4.3 1 .2 1.3-.1l4.5-4.9c1-1-.5-2.8-1.5-1.7l-4.5 4.9 1.4-.1c-1.8-1.4-4.3-2.8-6.6-2.1l1.2.6-2.6-4.2c-.8-1.2-2.7-.1-1.9 1.1z"/><path d="M473.4 169.5c-1 6.6-2 13.3-2.6 19.9-.1 1.5 2.1 1.6 2.2.1.6-6.7 1.6-13.3 2.6-19.9.3-1.5-1.9-1.6-2.2-.1zM478.6 172.5c2.6 9.1 4.2 18.4 4.7 27.8.1 1.5 2.3 1.6 2.2.1-.6-9.6-2.2-19.1-4.8-28.4-.4-1.4-2.5-.9-2.1.5zM454.1 189.7c1 5.9 1.9 11.7 2.8 17.6 1.2 8.3 2.9 17.2 2.1 25.7-.1 1.5 2.1 1.6 2.2.1.8-8.2-.8-16.9-2-25-.9-6.3-1.9-12.6-2.9-18.9-.3-1.5-2.5-.9-2.2.5z"/><path d="M469 141c-.5 15-.2 30 .9 45 1.2 15.4 5.6 30.1 7.4 45.4.2 1.5 2.3.9 2.2-.5-1.8-15.6-6.3-30.6-7.5-46.3-1-14.5-1.2-29.1-.8-43.6.1-.6-.4-1.2-1-1.2-.6-.1-1.2.4-1.2 1v.2z"/><path d="M465.4 141.8c-1.1 4.7-2.1 9.4-2.8 14.2-.6 4.2-1.2 8.4 3.5 10.4-.2-.6-.4-1.1-.6-1.7-1.6 2.6-4.9 6.2-4.8 9.3s2.3 7.4 3.3 10.5c3.5 10.8 7.3 21.6 10.8 32.5.5 1.4 2.6.9 2.2-.5-3.2-9.9-6.6-19.8-9.9-29.7-1.2-3.8-3.4-8-3.9-12-.4-3 2.4-6.1 4.1-8.8.3-.6.2-1.3-.4-1.6-.1 0-.1-.1-.2-.1-5.7-2.5-.4-17.1.7-21.7.5-1.5-1.6-2.2-2-.8zM527.2 223.9c-.5 3.7-2 7.3-4.3 10.2-3.3 3.9-10.2 5.1-15.2 5.6-1.4.1-1.5 2.4-.1 2.3 5.5-.5 12.8-1.7 16.6-5.9 2.9-3.2 4.5-7.8 5.2-12.1.3-1.5-1.9-1.6-2.2-.1zM322.2 239.7c-10.7.8-21.6.9-32.2 2.3-1 .1-1-.1-.1.6-.5-.5-.8-1.2-1-1.8-1.5-2.9-3.2-5.6-4.9-8.5-2.4-4.2-6.4-9-6.4-13.5l-1.9.7 9.6 13.6c2.6 3.6 2.6 4.4 6.9 4.4h20.5c2.3 0 5.8.7 8 0 .9-.3 1.6.5.9-.4-.7-1-.5 2.8-.5 3.6-.1.6.4 1.2 1 1.2.6.1 1.2-.4 1.2-1V236.3c0-.6-.4-1.1-1-1.2H292c-1.1 0-3.2-.5-2.2.2-1.4-1-2.6-3.7-3.6-5.1l-8.7-12.4c-.6-.8-1.9-.2-1.9.7 0 4.5 2.4 7.4 4.7 11.3l7.9 13.8c.2.4.5.6.9.6l33.1-2.4c1.3.1 1.4-2.2 0-2.1z"/><path d="M322.7 235.5l-9.8-7.6c-3.4-2.6-7.5-7.2-11.5-8.9-2.8-1.2-7.1-.6-10.1-.8l-13.9-.7c-.6 0-1.1.6-1.1 1.2s.5 1 1 1.1l12.8.6 7.9.4c.7 0 1.5 0 2.2.1.9.2-.6-.3.3.2 4 2 7.7 5.9 11.2 8.6l9.8 7.6c1.2 1 2.3-.9 1.2-1.8zM287.9 236.4v6.7c0 1.5 2.2 1.6 2.2.1v-6.7c0-1.5-2.2-1.6-2.2-.1z"/><path d="M310.2 233.2l3.9 3.3c.8.7 1.7-.8.9-1.5l-3.9-3.3c-.9-.6-1.7.9-.9 1.5zM298.5 223.1l9.9 8.6c.8.7 1.7-.8.9-1.5l-9.9-8.6c-.8-.6-1.7.8-.9 1.5zM300 228.2l8.5 8.2c.8.8 2-.4 1.2-1.2l-8.5-8.2c-.8-.7-2 .5-1.2 1.2zM294.4 222.8l3.5 3.3c.8.8 2-.4 1.2-1.2l-3.5-3.3c-.8-.8-2 .4-1.2 1.2zM300 233.1l3.1 3.4c.8.8 2-.4 1.2-1.2l-3.1-3.4c-.7-.8-2 .4-1.2 1.2zM290.4 222.6l7.4 8.1c.8.8 1.9-.4 1.2-1.2l-7.4-8.1c-.7-.8-2 .4-1.2 1.2zM291.1 228.2c2.2 2.7 4.5 5.5 6.7 8.2.7.9 1.9-.3 1.2-1.2l-6.7-8.2c-.6-.8-1.8.4-1.2 1.2zM286.4 222.4l2.4 2.9c.7.9 1.9-.4 1.2-1.2l-2.4-2.9c-.7-.8-1.9.4-1.2 1.2zM290.1 233.1l2.4 3.3c.6.9 1.8-.3 1.2-1.2l-2.4-3.3c-.6-.9-1.8.3-1.2 1.2zM286 227.2l2.8 4c.6.9 1.8-.3 1.2-1.2l-2.8-4c-.7-.9-1.9.3-1.2 1.2zM282.4 222.2l1.6 2.3c.3.3.8.3 1.2 0 .3-.3.3-.9 0-1.2-.5-.8-1.1-1.6-1.6-2.3-.3-.3-.8-.4-1.2-.1-.2.4-.3.9 0 1.3zM250.4 213.5c3.6-.7 7.3-1.1 11-1.4 1.3-.1 5.8-.8 6.8.3s-1.2 2.3-2.3 3.2c-7.2 5.4 6.9 6.4 10.6 7.1 1.4.3 1.5-2.1.1-2.3-3.5-.6-7.2-1.1-10.6-2.4-.8-.3-.6.5.5-.1.5-.3 1.1-.7 1.6-1.1 1.6-1.2 4-3.5 2.4-5.6-1.8-2.4-7.5-1.5-10-1.3-3.6.3-7.1.7-10.6 1.4-1.4.2-.9 2.4.5 2.2zM550.2 313.9c.5-.3 1.1-.5 1.8-.6 2.5-.1 4.7 2.3 6.2 4 1 1.1 2.6-.5 1.6-1.6-2.4-2.8-7.4-6.9-11.1-3.6-1 1.1.4 2.8 1.5 1.8zM135.5 352.6c.3 8.5.5 17 .8 25.5.1 3.9-.4 8.3.4 12.1.5 2.6 2 3 4.5 4.5.6.3 1.3.2 1.6-.4s.2-1.3-.4-1.6c-.8-.5-4.3-3.2-3.5-1.5-.2-.8-.2-1.7-.1-2.5-.1-4.5-.3-8.9-.4-13.4-.2-7.6-.5-15.2-.7-22.8 0-1.4-2.3-1.5-2.2.1zM395.2 273.7V371c-.1.6.4 1.2 1 1.2.6.1 1.2-.4 1.2-1v-97.5c.1-.6-.4-1.2-1-1.2-.6-.1-1.2.4-1.2 1v.2zM395.2 376.7v24.4c0 1.5 2.2 1.6 2.2.1v-24.4c.1-1.4-2.2-1.6-2.2-.1z"/></g></g></svg>