<svg xmlns="http://www.w3.org/2000/svg" viewBox="0 0 733.42 718.19"><defs><style>.cls-1{fill:#32b0ff;}.cls-2{fill:#fff;}.cls-3{fill:#fffc19;}.cls-4{fill:#ff4f0c;}.cls-5{fill:#231f20;}</style></defs><g id="レイヤー_2" data-name="レイヤー 2"><g id="character"><path class="cls-1" d="M249.27,389.6s7.07,24.13,3.91,35.11l-3.16,11s.64,23.72,6.07,36.25,21.88,29.26,22.15,40.89-5.8,61.84-16.69,87.13-24,43.7-23.49,52.78,5.74,18.07,5.74,18.07S293.52,707.46,385,703.21c0,0,63.21,3.74,89.85-12.51s24.85-30.25,24.85-30.25-8.14-27.4-14.6-33.29S461.78,570.64,467,551.25s17.75-48.82,21.59-59.14,12.74-40,15-64.56S505.74,389,505.74,389l-19.88-56.26s-25.34-17.87-27.34-33.09l-9-3.45S430.08,358,381.55,369c0,0-49.3-2.05-74.17-66.52l-21.55,24s-9.66,13.56-19.24,17.06Z"/><path class="cls-2" d="M253.41,405.33s26-22.88,97.67-6.11,95.66,8.44,105.66,6.11,47.91-13.83,47.91-13.83V415s-64.91,28-129.91,18S334,405,253.41,424.58Z"/><path class="cls-2" d="M250.25,435.55s11.52-17.67,134.49,14.09c0,0,55.82,4.94,119.91-18.94,0,0-1.22,27-7.76,38.8,0,0-61.65,32.65-147.15,8.49,0,0-61.44-13-94.81-12.87C254.93,465.12,247.09,453.28,250.25,435.55Z"/><path class="cls-2" d="M239.22,647.7c1.45,3-5.43,12.33,4.8,23s46.39,34,155.06,32.32c0,0,51.22,1.2,72.33-10.33s30.24-22.7,28.28-34.33-4.55-10.63-4.55-10.63-55.4,36-133.4,31.29S239.22,647.7,239.22,647.7Z"/><path class="cls-3" d="M324.19,79.21s-52.45,4.28-55.45,52.09-7.76,68.62-21,81.33l-.17,46.93s21.65-53.88,46.68-73.06c0,0,4.51-.47,5.27,8.35s-9.62,16.83-9.62,16.83L305,210.27s-.65-24.72,29.78-37.08c0,0,15.92,51.14,54.54,47.14,0,0,20.65-16,51.69-13.48,0,0-13.05-7.47-2.55-12,0,0,30.37-3.25,45.25,21.48L495.15,249l1.34-33.4A294.55,294.55,0,0,1,482,152c-3.75-34.71-7.54-70.16-42.25-85.46S353.38,39.6,324.19,79.21Z"/><path class="cls-3" d="M224.85,450.62s-4.3,20.46,7.8,37.21,18.22,20,18.78,33.5-2.67,34.79-22.05,56.15c0,0,35.2-3.86,44-15.51,0,0,7.78-38.58,5.83-46.64s-11.54-26.77-19-36.25-10-32.6-8.41-48.43a146.8,146.8,0,0,0,0-28.89Z"/><path class="cls-3" d="M515.49,435.15s.25,27.07-6.25,51.75-14.93,43.18-4.59,61.43,16.21,28,16.21,28-44.62-6-51.12-39c0,0,18.5-38,22.25-53.25s14.65-32.7,12.66-70.75l1.37-10.5Z"/><polygon class="cls-3" points="230.24 239.15 221.24 255.58 228.9 273.68 232.49 271.22 230.24 239.15"/><path class="cls-4" d="M358.16,225.58c-8.82-21.25-39.67-18.25-39.67-18.25-9.5-2.75-28.63,4.35-28.63,4.35s-3.4,5.87-8.34,12.8-7.28,28.37-7.28,28.37c3.25,20.78,26.75,30,26.75,30s16.25-2,23.33-6S345,275.42,345,275.42l9.5-10.09C356.52,258.05,367,246.83,358.16,225.58Zm-8.17,16c-1.42,15.76-10.27,28.61-23.11,31.46,0,0-30.51,2.27-37.89-13.51s-6.15-27.09,2-33.73c0,0,18.26-14.5,46.51-3.75C337.5,222.08,351.41,225.86,350,241.61Z"/><path class="cls-4" d="M466.77,220.23c-8.4-8.63-27.43-12.24-38.9-12.57,0,0-28.24-1.44-38.52,14.17s-3.77,32-1.27,37,11.64,20.64,24.23,22.4c0,0,6.44-5.56,19.77-5.15a182,182,0,0,1,22.77,2s15.23-18.95,16.39-27.12S475.18,228.86,466.77,220.23ZM456.58,257c-3.17,9-11.67,15.29-27.5,16.79S407.24,266,402.58,263s-11.67-19.16-5-33.66S432.08,219,432.08,219c9.17-.16,22.5,7.17,26.66,12.82S459.74,248,456.58,257Z"/><path class="cls-1" d="M203,307a34.86,34.86,0,0,0-11.94,16.64c-3.67,11-61,131.67-61,131.67s21.66-6,30.33-2.15l63.7-109.85Z"/><path class="cls-1" d="M528.08,305.33l-3.3,20.33,42,97.95s12-5.23,31.67,16.41l-3-12.79L542,318.3S531,307.08,528.08,305.33Z"/><path class="cls-5" d="M673.73,58.2l24.46-16.31c2.93-2,.25-7.22-2.89-5.13L670.84,53.08c-2.93,2-.25,7.21,2.89,5.12Z"/><path class="cls-5" d="M577.86,122.15,662.19,65.9c2.93-2,.25-7.22-2.88-5.13L575,117c-2.93,2-.25,7.22,2.89,5.13Z"/><path class="cls-5" d="M20.81,185.07,3.42,182.12c-3.6-.61-4.83,5.23-1.35,5.82l17.39,2.94c3.6.61,4.83-5.22,1.35-5.81Z"/><path class="cls-5" d="M148.94,206.77,42,188.66c-3.6-.61-4.83,5.22-1.35,5.81l106.94,18.11c3.61.62,4.84-5.22,1.36-5.81Z"/><path class="cls-5" d="M237.51,136.34l10.25,8.73c2.9,2.48,6.54-2,3.82-4.32L241.33,132c-2.91-2.48-6.54,2-3.82,4.31Z"/><path class="cls-5" d="M127.53,42.67,218,119.75c2.91,2.48,6.54-2,3.82-4.32l-90.5-77.08c-2.9-2.47-6.54,2-3.82,4.32Z"/><path class="cls-5" d="M83.36,5l24.73,21.07c2.91,2.47,6.54-2,3.82-4.32L87.18.73c-2.91-2.48-6.54,2-3.82,4.31Z"/><path class="cls-5" d="M664.84,271l66,4.58c3.57.25,3.45-5.75-.12-6L664.73,265c-3.57-.25-3.45,5.75.11,6Z"/><path class="cls-5" d="M616.36,267.61l27.78,1.93c3.57.24,3.45-5.75-.11-6l-27.79-1.93c-3.57-.25-3.45,5.75.12,6Z"/><path class="cls-5" d="M606.71,162.72l-13.2,4.61c-3.33,1.17-1.89,7,1.58,5.76l13.2-4.61c3.33-1.17,1.89-7-1.58-5.76Z"/><path class="cls-5" d="M730,119.63l-94.16,32.92c-3.33,1.17-1.89,7,1.58,5.76l94.16-32.92c3.33-1.17,1.9-7-1.58-5.76Z"/><path class="cls-5" d="M165,326.08l8.69-3.14c3.31-1.2,1.87-7-1.58-5.76l-8.69,3.15c-3.31,1.2-1.87,7,1.58,5.75Z"/><path class="cls-5" d="M53.05,366.63l90.27-32.69c3.31-1.21,1.87-7-1.59-5.76L51.47,360.87c-3.32,1.2-1.88,7,1.58,5.76Z"/><path class="cls-5" d="M226.77,341.63c-6.69-13.95-13.71-27.95-22-41.06-9.95-15.85-26.95-23.67-42.77-32.52-3.21-1.8-7.71-3.65-10.3-6.29-1.65-1.68-.71,1.59-.69.4a4.61,4.61,0,0,1,1.59-3.2c5.38-4.4,20.73,5.31,25.67,7.78,11.84,5.92,23.46,12.3,34.93,18.9,3.27,1.88,5.75-3.47,2.69-5.23-14.06-8.09-28.32-16.06-43.07-22.83-6.4-2.94-29.79-11.16-27.34,4.89.86,5.64,11.68,9.62,16,12,10.56,5.83,22,11.31,30.89,19.62,13.59,12.68,21.65,34.05,29.61,50.63,1.68,3.5,6.27.14,4.7-3.12Z"/><path class="cls-5" d="M211.89,279.14,199.21,246.3l-9.06-23.48c-2.18-5.64-3.78-12.53-6.86-17.74-1.94-3.31.63-1.68-1.21-.56.4-.24.81-2.19,1.54-1.89,4.9,2,6.68,3.85,9.59,8.19,5,7.44,9,15.69,13.06,23.64q10.44,20.26,20.09,40.92a2.69,2.69,0,0,0,3.15,1.31l6.75-3.07c3.18-1.44,1.75-7.26-1.58-5.75l-6.75,3.07,3.14,1.32q-8.46-18-17.43-35.71c-4.09-8.06-8.22-16.13-12.76-23.94-3.21-5.52-7.32-13.94-14-15.81-7.74-2.19-10.81,4.88-8.61,10.77,4.82,12.91,9.93,25.73,14.9,38.59l13.39,34.68c1.38,3.57,6.64,1.8,5.29-1.7Z"/><path class="cls-5" d="M234.25,272.5q.39-22.68.18-45.38c-.16-19.08.8-39.44-3.14-58.22l-1.86,3.72c17.88-8,15.88,34.17,16.28,43.38.74,16.82,1.29,33.66,1.74,50.5a2.76,2.76,0,1,0,5.52-.11c-.58-21.59-1.23-43.19-2.43-64.76-.68-12.07-2.4-43.89-22.69-34.76a3.13,3.13,0,0,0-1.85,3.72c4,18.9,2.79,39.66,2.93,58.86q.15,21.57-.2,43.16c-.06,3.83,5.46,3.71,5.52-.11Z"/><path class="cls-5" d="M252.88,261.05c4.75-15.38,10.88-30.83,18.91-44.81A139.6,139.6,0,0,1,290,192c2.66-2.92,2.83-4.21,5.8-.61,4.08,5-1.95,11.23-5.28,15.47-4.6,5.87-9.93,11.34-12.72,18.37-3.31,8.37-4.1,17.57-7.11,26.08a39.15,39.15,0,0,0-2.13,19.08c1.23,7.49,7.18,11.87,10,18.71,1.44,3.55,6.7,1.78,5.29-1.7a46.91,46.91,0,0,0-5.23-9.52c-4.1-5.71-5.58-10.45-4.53-17.56.71-4.9,3.14-9.13,4.45-13.84,1.56-5.56,1.83-11.43,3.65-16.92,3.63-11,31.21-31.45,17.4-44.26-10.33-9.58-23.05,13.34-27.36,19.65-11.2,16.42-18.87,35.67-24.71,54.62-1.1,3.59,4.22,5.18,5.35,1.49Z"/><path class="cls-5" d="M280,288.49c10.66-.15,21.65-1.06,31.92-4.05,7.76-2.25,39.16-16.39,35.32,3.06l2.62-2.26c-13.3,1.28-25.78,3.68-37,11.09-8.32,5.47-16.54,11.68-22.54,19.72-7.46,10-12.94,19.08-24.92,24.27-3.22,1.39-1.78,7.2,1.58,5.75,19-8.23,25.85-27.85,41.86-39.81,12.8-9.57,25.33-13.5,41.18-15a2.89,2.89,0,0,0,2.62-2.25c2.33-11.82-6.62-19-17.94-17.59-10.24,1.3-19.58,6.49-29.62,8.64a130.18,130.18,0,0,1-25.15,2.45c-3.59.05-3.48,6.05.11,6Z"/><path class="cls-5" d="M303.54,305.45c11.4,29.07,39.66,62.78,72.72,65.95,12.47,1.19,26.51-6.79,36-14.08,19.53-15.05,31.36-37.26,39.57-60,1.27-3.53-4.05-5.1-5.35-1.49-7.85,21.78-19.5,43.51-38.55,57.49-9,6.6-22.09,14-33.66,11.67-29.79-6-54.76-34-65.41-61.2-1.4-3.57-6.67-1.79-5.29,1.7Z"/><path class="cls-5" d="M428,216.33c-18.47.29-38.21,5.06-35.21,27.54,2.21,16.6,11.81,29.56,29,31.64,18.63,2.25,35-7.45,40.27-25.82,6.55-23.08-14.17-32.78-34.09-33.36-2.68-.07-2.6,4.43.09,4.5,8.95.26,19.4,1.75,26.28,8.16,7.47,7,5.35,18,1.12,26.15-6.76,13-20.63,17.91-34.62,15.7-13.57-2.15-21-11.9-23.55-24.94-4.14-21.12,13.9-24.81,30.77-25.07C430.75,220.79,430.67,216.29,428,216.33Z"/><path class="cls-5" d="M413.79,280.23c-15.35-4.84-24-17.05-27-32.47-3.88-19.92,6.72-33,26-36.38,16.23-2.84,37.12-1.82,49.54,10.54,16.5,16.42,4.08,43.16-12.22,54.2-2.18,1.48-.17,5.43,2.17,3.84,16.16-10.95,28.51-34.91,18.45-53.88-10.63-20-38.83-22.63-58.64-19.16-19.34,3.39-32.38,16.41-30.08,36.9,2.11,18.88,12.18,34.92,30.74,40.77,2.62.82,3.54-3.57,1-4.36Z"/><path class="cls-5" d="M286,227.51c-10.55,14.34-1,36.08,13.45,44.09,13.88,7.7,35.06,5.65,45.05-7.43,8.61-11.29,13.42-33.67-.87-42.45-15.92-9.78-44.53-7.75-57.63,5.79-1.86,1.92,1,5.19,3,3.12,11.09-11.46,32.86-12.26,47.29-7.36,16.09,5.46,14,25.28,5.64,37.11-7.48,10.55-22.47,13.22-34.43,9.75-14.66-4.26-29.05-25.15-18.5-39.5C290.56,228.5,287.71,225.19,286,227.51Z"/><path class="cls-5" d="M305.55,280.71c-6.16,0-14.49-6.63-18.49-10.77-5.48-5.67-8.86-12.65-10.89-20.2-.75-2.81-4.69-1.44-4,1.27,2.37,8.81,6.55,17,13.21,23.37,4.74,4.51,13.29,10.83,20.22,10.83,2.7,0,2.61-4.5-.08-4.5Z"/><path class="cls-5" d="M288.33,217.45c16-9.22,41.92-11,58.3-1.2,20.59,12.31,12.84,44.22-2.76,57.55-2,1.69,0,5.66,2.16,3.84,16.05-13.7,25.54-44.83,8.17-61.2-16.73-15.77-49.54-13.48-68-2.83-2.29,1.32-.28,5.25,2.17,3.84Z"/><path class="cls-5" d="M462.7,296.26a138.18,138.18,0,0,0-21.19-4.49,126.2,126.2,0,0,0-17.68-1.44c-1.07,0-6.24.94-7.19-.46-1.72-2.55,1.26-6.83,3.74-8.24,7.07-4,21.27-1.22,29-.72,7.24.47,14.85,1.54,22,.08,3.45-.7,2-6.48-1.58-5.75-12.87,2.6-56.3-10.49-60.87,9.21-1.71,7.39,5.22,11.93,11.36,11.88a137.3,137.3,0,0,1,41,5.74c3.51,1.08,4.74-4.77,1.36-5.81Z"/><path class="cls-5" d="M472.06,280.68c9.77-7.41,9.94-19.59,8.29-30.67-2.1-14.09-6.24-30.56-19.94-37.47-6.06-3.06-13.77-4.33-19.18-8.5-.54-.42-5.67-5.2-4.75-6.42.22-.3,1.62.23,2,.08,2.44-1.09,7.86.85,10.41,1.37,26.07,5.28,38.88,23,44.29,47.89.83,3.8,6.08,1.94,5.29-1.7-3.64-16.76-10.14-32.95-24.94-42.82-10.69-7.14-24.5-10.7-37.31-10.82a2.74,2.74,0,0,0-2.36,1.53C425.55,209,449,213.06,458.6,218.22c10.25,5.48,13.55,17.82,15.61,28.53,1.82,9.46,3.8,22.1-5,28.8-2.79,2.12-.11,7.4,2.89,5.13Z"/><path class="cls-5" d="M498.55,254.12c0-22.79,0-51,10.5-71.67,1.48-2.91,5.2-9.48,9.48-9,3.85.43.68,8,0,11.07-1.1,4.92-2,9.9-2.7,14.89a278.22,278.22,0,0,0-2.54,54.8c.21,3.81,5.73,3.73,5.52-.1-1.35-24,.35-48.92,6.06-72.25,1.27-5.18,3.75-13.43-3.91-14.6-3.88-.59-8.61,1.91-11.34,4.46-11.26,10.53-12.82,31.81-14.42,46A331.33,331.33,0,0,0,493,254.22c0,3.83,5.51,3.72,5.52-.1Z"/><path class="cls-5" d="M528,275.52c13.34-20.49,28.23-43.08,47.53-58.39a3.2,3.2,0,0,0,.91-4.12c-16.45-28.09-59.72,36.8-68.65,47.37-2.29,2.71,1.51,7.1,4,4.16,7-8.31,49-67.1,60-48.41.31-1.37.61-2.75.91-4.12-20.15,16-35.54,39.18-49.47,60.58-2,3.06,2.72,6.16,4.83,2.93Z"/><path class="cls-5" d="M532.78,301.25c14-16,31.55-31,51.29-39.29a3.08,3.08,0,0,0,2-2.93c-1.59-27.54-56.83,12.08-64.29,19.76l4.64,1.24-1.86-6.82c-1-3.74-6.28-1.91-5.29,1.7l1.86,6.82a2.72,2.72,0,0,0,4.64,1.23c6.89-7.1,15.42-12.92,24-17.79,3-1.69,30.21-16.15,30.8-6l2-2.94c-20.65,8.7-39,24.09-53.7,40.88-2.35,2.69,1.45,7.06,4,4.17Z"/><path class="cls-5" d="M527.49,299.78c-3.42,11.9-6.76,23.88-10.74,35.61-1.21,3.55,4.12,5.13,5.35,1.49,4-11.73,7.32-23.71,10.75-35.61a2.78,2.78,0,1,0-5.36-1.49Z"/><path class="cls-5" d="M455.37,300.73c5.64,12.94,13.39,22.18,24,31.08,5.35,4.48,7.31,12.06,9.54,18.61,9.54,28,16.33,57,24.24,85.48,7.17,25.84,13.62,53.51,26.15,77.42,10.26,19.59,42.73,49,66.21,33.42,18.73-12.4,16.59-36.37,11.26-55.15-3.4-12-7.94-25.27-15.93-35.13-2.41-3-6,1.57-3.82,4.32,15,18.45,33.05,74.52-.11,83.47-17.77,4.79-37.69-13.33-47.64-25.78-5.41-6.77-8.71-15.16-11.78-23.18-18.65-48.76-26.87-100.82-44.45-149.9-2-5.69-4.1-13-8.61-17.29-1.47-1.4-3.55-2.08-5.19-3.24-4.44-3.14-8-7.87-11-12.32a95.33,95.33,0,0,1-8.19-14.93c-1.55-3.56-6.15-.18-4.71,3.12Z"/><path class="cls-5" d="M521.1,323.23q14.68,36.12,30.14,71.93c6.46,14.93,12.91,29.94,20.24,44.47,9.43,18.67,21.68,34.12,24.81,55.45.56,3.83,5.82,1.93,5.29-1.7-3.09-21-14.6-36.11-24.17-54.47C570.16,425,564,410.47,557.7,396.08Q541.58,359,526.39,321.53c-1.44-3.54-6.7-1.78-5.29,1.7Z"/><path class="cls-5" d="M222,341.73q-19,34.61-38.77,68.78c-7.67,13.22-15.26,26.65-24,39.23-11.14,16.13-23.28,30.82-27.18,50.49-.73,3.66,4.59,5.31,5.35,1.49,3.93-19.77,16.75-34.24,27.69-50.57,8.6-12.84,16.31-26.3,24.06-39.67q19.22-33.18,37.62-66.82c1.76-3.2-3-6.34-4.82-2.93Z"/><path class="cls-5" d="M267.51,340q-21.45,49.16-43.25,98.16c-8.72,19.59-17.42,39.21-26.54,58.62-3.45,7.35-7.06,14.55-11.14,21.58-8.27,14.26-19.83,33.51-36.59,38.85-18.69,5.95-26.13-11.88-29.25-27.11a67.1,67.1,0,0,1,9.39-49.78c2-3.06-2.71-6.16-4.82-2.93a75,75,0,0,0-11.6,36.92c-.59,14.1,3,34,13.79,44.26,23.58,22.31,52.2-17.59,62.44-34.78,10.53-17.66,18.54-36.77,27-55.48q17.16-38.11,33.93-76.38,10.78-24.48,21.5-49c1.45-3.31-3.27-6.49-4.83-2.93Z"/><path class="cls-5" d="M334.81,243.55a10.63,10.63,0,1,1-10.62-10.63A10.62,10.62,0,0,1,334.81,243.55Z"/><path class="cls-5" d="M434.65,243.55A10.62,10.62,0,1,1,424,232.92,10.62,10.62,0,0,1,434.65,243.55Z"/><path class="cls-5" d="M364.06,238.05c-1.31.68-.28.1.66-.22a25.81,25.81,0,0,1,4.24-1.16c4.81-.76,9.43.26,13.89,2.06,6.76,2.74,9.2-9,2.7-11.62-8.66-3.51-18.86-3.73-27.26.69-6.24,3.28-.87,13.74,5.77,10.25Z"/><path class="cls-5" d="M360.22,275.63c3.64,16.39,26.83,16.1,30.5-.1.82-3.64-4.5-5.28-5.36-1.49-2.4,10.62-17.5,10.46-19.85-.11-.84-3.78-6.09-1.93-5.29,1.7Z"/><path class="cls-5" d="M340.58,298a77.11,77.11,0,0,0,33,8.84,82.67,82.67,0,0,0,25-3A64.92,64.92,0,0,0,407,301c2.8-1.2,3.77-3.2,3.79-.67,0,2.2-3,6.49-3.9,8.33-5.52,10.95-17.45,33.92-32.79,31.29-8.2-1.4-15-11.25-19.29-17.55A125.77,125.77,0,0,1,348,311.27c-.83-1.51-5.32-12.8-6-12.86,3.56.29,3.44-5.71-.12-6-16.4-1.35,12.08,38.88,16.31,43.46,5.18,5.61,11.62,11,19.71,10.14,8.72-1,15.88-7.67,21.18-14.16C403,327,425.8,296,413.22,292.9c-4.58-1.12-11.7,4-16.25,5.2a77.83,77.83,0,0,1-23.52,2.78,70.94,70.94,0,0,1-30.19-8.09C339.94,291.05,337.45,296.38,340.58,298Z"/><path class="cls-5" d="M203,302.78c-9.19,6.07-14.39,19.32-18,29-5.3,14.2-11.28,28.05-17.61,41.83-12.43,27-24.72,54.81-39.9,80.45-1.86,3.14,2.85,6.27,4.82,2.93,14.38-24.28,26-50.55,37.9-76.11,5.95-12.84,11.95-25.74,17-39,4.12-10.8,8.27-27.15,18.69-34,2.94-1.94.25-7.2-2.89-5.12Z"/><path class="cls-5" d="M149,467.29c-12.06-2.27-22.19,7.6-27.53,17.21-1.77,3.19,2.94,6.33,4.83,2.94,4.15-7.49,12.8-15.95,21.35-14.34,3.6.68,4.83-5.16,1.35-5.81Z"/><path class="cls-5" d="M118.75,501.87c-8.82-13.77-3.41-28.15,7.14-39.18,9.36-9.78,21.85-7.41,34.12-6,3.54.42,3.42-5.58-.11-6-16.7-1.95-29.48-2.71-40.81,11.08-10.48,12.75-14.48,28.47-5,43.21,2.09,3.26,6.68-.05,4.71-3.13Z"/><path class="cls-5" d="M247.56,393.16c4.45,12.37,2.68,25.22,1.4,37.94-1.38,13.63-.87,26.86,4.3,39.72,4.85,12.06,13.56,21.86,19.15,33.5,5.07,10.58,6.27,22.94,8.3,34.35.68,3.81,5.94,1.94,5.29-1.7-1.95-11-3.22-22.65-7.63-33-4.73-11.1-12.89-20.33-18.12-31.15-7.62-15.75-6.84-31.43-5.05-48.28,1.17-11,1.46-22.47-2.35-33.06-1.3-3.62-6.56-1.83-5.29,1.7Z"/><path class="cls-5" d="M249.81,398.69,202,487.57c-1.73,3.21,3,6.35,4.82,2.93l47.81-88.88c1.72-3.21-3-6.35-4.83-2.93Z"/><path class="cls-5" d="M274.57,511c2.31,14.09-.62,32.74-3.74,47.49a303.43,303.43,0,0,1-17.89,55.27c-5,11.84-12,23.82-14.29,36.61-1.06,5.88-2.33,16.2,1.35,21.21,2,2.67,6.38,4.83,9.08,6.56,17.53,11.19,37.71,18.33,57.93,22.75,34.28,7.5,69.58,6.11,104.39,4.2,21.49-1.17,45.42-2.19,65.1-11.92,11.31-5.6,22.25-16.6,26-28.35,2.4-7.61-2.42-15.94-6.11-22.33a212.93,212.93,0,0,1-16.53-35c-5.64-15.79-10.2-32.52-10.82-49.34-.71-19.16,8.29-34.47,16.2-51.36,8.71-18.59,16.84-37.63,20.62-57.92,3.69-19.82-.79-40,.15-60,.18-3.83-5.34-3.69-5.52.11-.86,18.19,3.3,36.78.64,54.85-2.69,18.28-9.62,35.77-17.23,52.49-6.17,13.57-14.71,27.21-18.55,41.67-2.9,10.94-2.15,22.72-.49,33.79A198.78,198.78,0,0,0,489,641.24c3.08,5.28,7.13,10.85,8.31,17,.68,3.47.3,3.12-.22,4.61A44.79,44.79,0,0,1,483.28,682c-15.14,12.3-37.18,14.36-55.82,16-33.21,2.9-67.94,4.84-101,.31-23.38-3.21-46.77-9.71-67.52-21.16-4.17-2.3-10.32-5-13.52-8.63-3.59-4.1-2.26-12.13-1.19-17.53,3.07-15.48,12.14-30.13,17.85-44.74a285.42,285.42,0,0,0,15.18-51.44c2.73-14.57,5.07-30.66,2.65-45.48-.63-3.83-5.89-1.94-5.3,1.7Z"/><path class="cls-5" d="M527.43,308c10,6.52,15.22,19.82,20,30.17,5.37,11.66,11.19,23.11,16.9,34.59,6.63,13.34,13.29,26.66,19.73,40.09,4.35,9.06,9.67,18.46,12.24,28.24,1,3.75,6.24,1.91,5.29-1.7-2.52-9.61-7.66-18.84-11.9-27.74-7.06-14.79-14.4-29.44-21.7-44.11-5.75-11.57-11.57-23.12-16.94-34.87-4.79-10.49-10.79-23.32-20.92-29.91-3.16-2.05-5.64,3.32-2.69,5.24Z"/><path class="cls-5" d="M566.29,425.09c37.28.28,47,48.84,47.25,77a2.76,2.76,0,1,0,5.52-.11c-.28-31.53-12.12-82.57-52.89-82.88-3.59,0-3.47,6,.12,6Z"/><path class="cls-5" d="M576.47,446c9.83.11,17.6,8.94,21.64,16.92,1.76,3.47,6.35.12,4.71-3.12-5-9.84-14.61-19.67-26.47-19.8-3.58,0-3.47,6,.12,6Z"/><path class="cls-5" d="M324.13,76.19c-21.29,1-41.56,14.93-51.45,33.43-11.71,21.92-7.94,47-12.46,70.63-1.68,8.77-5.28,24.29-11.46,29.38-2.69,2.22,0,7.51,2.89,5.12,5.19-4.27,7.93-11.72,10-17.84,7.85-23,4-47.54,10.41-70.61,6.49-23.37,27.16-42.93,52.17-44.11,3.58-.17,3.47-6.17-.12-6Z"/><path class="cls-5" d="M326.86,79.94c1.85-5.91,9.94-12.7,16.29-16.06,21.9-11.59,52-9.83,75.18-3.79,21.58,5.63,39.6,18.48,49.36,38.84,11.21,23.4,9.68,50.12,14.08,75.14,2.86,16.21,6.62,33.08,13.53,48.12,1.62,3.53,6.21.16,4.71-3.12-7.32-15.91-11-34.13-13.72-51.28-4.27-26.75-3-54.52-17.44-78.54-11.42-19-30.41-30.56-51.68-35.59-23.48-5.55-52.06-6.83-74.37,3.82-8.69,4.15-18.27,11.3-21.29,21-1.12,3.58,4.2,5.17,5.35,1.49Z"/><path class="cls-5" d="M229.73,234.28c-5.27,7-9.5,15.32-10.77,24-.54,3.65,4.79,5.33,5.35,1.49a47.8,47.8,0,0,1,9.4-21.32c2.14-2.82-1.67-7.23-4-4.17Z"/><path class="cls-5" d="M224.26,446.19c-3,6.26-2,14.32-.67,20.84a76.1,76.1,0,0,0,7.11,19.18c4.6,8.92,12,16.25,16.3,25.19,10.58,21.78-5.69,48.58-20.67,64.24-1.54,1.61-.5,5.35,2,5.08,17.11-1.81,39.11-7.33,48.22-23.33,1.81-3.18-2.91-6.31-4.83-2.94-7.92,13.93-28.63,18.7-43.51,20.27l2.06,5.09c13.47-14.08,25.83-34.42,25.5-54.43-.29-17.17-13-27.89-20.41-42.29-4.45-8.62-11.09-24-6.32-34,1.57-3.27-3.14-6.44-4.83-2.93Z"/><path class="cls-5" d="M511.72,430.35c1.39,17.36.63,34.41-3.8,51.3-3,11.48-7.29,22.64-8.86,34.45-3.2,24,5.24,47,22.78,63.78l2.58-5.06c-23.14-3-48.59-16.77-51.66-42-.46-3.75-6-3.7-5.52.11,3.4,27.88,29.62,44.32,55.83,47.67,2.69.34,4.77-3,2.58-5.07-18.9-18.08-25.37-42.53-19.41-67.69,2.47-10.47,6.28-20.57,8.58-31.1,3.34-15.34,3.67-30.92,2.42-46.53-.3-3.78-5.82-3.72-5.52.11Z"/><path class="cls-5" d="M332.14,149.05A68.88,68.88,0,0,0,335,184c8.42,23.91,30.32,35.69,54.35,39.16,3.6.52,4.84-5.31,1.35-5.82C367.59,214,346.4,203,339.33,179.44a62.41,62.41,0,0,1-1.84-28.9c.7-3.65-4.62-5.3-5.35-1.49Z"/><path class="cls-5" d="M358.5,168c-2.89,24.49,13.24,44.45,36.54,50.21,3.56.88,4.79-5,1.35-5.81-20.36-5-34.92-22.71-32.54-42.91.43-3.65-4.9-5.34-5.35-1.49Z"/><path class="cls-5" d="M387.24,136.8a37.92,37.92,0,0,0,3.45,14.32c4.68,10.58,14.86,15.36,20.87,24.74,7.1,11.06,6.79,33.32,22.42,36.57,3.59.74,4.82-5.1,1.35-5.81-8-1.66-9.61-10-11.81-16.75s-4.52-13.44-8.68-19.24c-5-6.93-12.84-10.9-17.24-18.31a32.94,32.94,0,0,1-4.84-15.62,2.76,2.76,0,1,0-5.52.1Z"/><path class="cls-5" d="M358.44,124.43c27.26-5.17,56.64,6.12,69.92,31.23,1.81,3.43,6.4.09,4.7-3.13-14.53-27.48-46.24-39.53-76.2-33.85-3.46.65-2,6.43,1.58,5.75Z"/><path class="cls-5" d="M368,99.9c42.94,6.37,85.38,35,92,80.22.56,3.83,5.82,1.93,5.29-1.7-6.86-47-51.11-77.69-95.9-84.33-3.61-.53-4.84,5.3-1.36,5.81Z"/><path class="cls-5" d="M340.64,88.64c19.35-20.2,51.5-15.42,73.68-3.76,3.33,1.75,5.82-3.59,2.69-5.23-24.63-13-59.11-17.35-80.36,4.83-2.47,2.58,1.33,6.94,4,4.16Z"/><path class="cls-5" d="M450.29,114.51c17.16,21,24,51.09,23.71,77.53,0,3.83,5.48,3.71,5.51-.11.27-28.12-7.22-59.47-25.4-81.74-2.43-3-6.06,1.58-3.82,4.32Z"/><path class="cls-5" d="M329.84,109.47c-21,8.3-34.91,30-41.18,50.63-1.08,3.59,4.24,5.19,5.36,1.49,5.65-18.64,18.38-38.85,37.4-46.37,3.28-1.29,1.84-7.1-1.58-5.75Z"/><path class="cls-5" d="M288.93,114c-11.88,18.93-15.67,43.52-16.27,65.37-.11,3.83,5.41,3.7,5.51-.11.58-20.79,4.26-44.28,15.58-62.33,1.95-3.09-2.77-6.2-4.82-2.93Z"/><path class="cls-5" d="M334.75,168.92c-18.63,1.16-29.79,25.32-35.07,39.86-1.28,3.52,4,5.09,5.35,1.49,4.39-12.08,14.53-34.4,29.84-35.35,3.58-.23,3.47-6.23-.12-6Z"/><path class="cls-5" d="M232.71,444.65c-.74,18.38,5,38.17,17.6,51.74,2.62,2.81,6.25-1.71,3.82-4.32-11.61-12.48-16.58-30.66-15.9-47.53.15-3.83-5.37-3.69-5.52.11Z"/><path class="cls-5" d="M262,504.28c4.46,13,7.05,29.6.24,42.16-1.74,3.21,3,6.35,4.82,2.93,7.58-14,5.2-32.24.24-46.78-1.25-3.65-6.51-1.86-5.3,1.69Z"/><path class="cls-5" d="M485.21,493.48c-4.07,14.54-5.94,31.79.32,45.9,1.58,3.54,6.17.17,4.71-3.12-5.55-12.52-3.27-28.45.32-41.29a2.78,2.78,0,1,0-5.35-1.49Z"/><path class="cls-5" d="M254.32,407.17c14.24-10.66,35.19-13,52.28-12.32,28,1,54.23,12,81.75,16,28.83,4.19,58.47.38,86.44-7.3,9.87-2.71,21.45-5.83,29.86-12.08,2.82-2.09.14-7.36-2.88-5.12-9.3,6.9-22.41,10-33.37,12.7-31.73,7.93-63.45,10-95.47,2.85C346.7,396.08,321,387.09,293.69,389c-14.15,1-30.58,4.27-42.25,13-2.81,2.1-.13,7.38,2.88,5.12Z"/><path class="cls-5" d="M253.67,426.41a142.76,142.76,0,0,1,52.44-6.58c25.83,1.49,50.13,12.52,75.54,16.67,24.23,4,48.4.83,72.32-3.8,17.58-3.41,36.26-7.52,52-16.34,3.08-1.72.4-7-2.89-5.12-16.24,9.07-36,13-54.07,16.33-27.58,5.05-53.76,6.61-81.2,0-23.44-5.64-46.21-14.14-70.62-13.94-15.06.13-30.8,2.26-45.15,7-3.35,1.11-1.91,6.91,1.58,5.75Z"/><path class="cls-5" d="M253.67,438.41c15-5.83,33.26-5.31,48.82-3,26.33,4,51.42,13.49,78,16.48,41.17,4.62,86.23-3.93,124.85-18.75,3.28-1.27,1.84-7.08-1.58-5.76-41.16,15.8-88.59,24.09-132.29,17.3-38.07-5.91-80.88-27.06-119.41-12.06-3.28,1.28-1.84,7.09,1.58,5.75Z"/><path class="cls-5" d="M254.17,468.06c15.67,1.07,31.34,2.67,46.92,4.71,27.82,3.64,54.52,12,82.22,16,28.43,4.11,56.46,2.5,84-5.64,9.61-2.84,27.23-6.84,33.63-16,2-2.88-1.8-7.3-4-4.17-1.53,2.2-4.43,3.63-6.69,4.9-10.22,5.76-22.06,9.09-33.36,11.95-29.74,7.52-60,6.24-89.87,0-23.67-4.94-46.62-10.69-70.69-13.66-14.06-1.73-28.19-3.16-42.32-4.12-3.57-.24-3.45,5.76.12,6Z"/><path class="cls-5" d="M240.67,650.69c26.29,13.38,56.14,21.53,85.05,26.47,59,10.09,119.5,3.44,172.6-25.16,3.1-1.67.42-6.91-2.89-5.13-53.26,28.69-114.56,34.59-173.51,23.56-26.67-5-54.25-12.6-78.57-25-3.34-1.71-5.83,3.63-2.68,5.23Z"/><path class="cls-5" d="M239.2,667.74c-5.57,13.07-8.92,28.09-6.37,42.22.68,3.82,5.94,1.94,5.29-1.7-2.24-12.4,1-26.12,5.9-37.59,1.42-3.32-3.3-6.51-4.82-2.93Z"/><path class="cls-5" d="M488.79,680.94c6.86,8.8,8.86,22.41,7.51,33.56-.44,3.66,4.89,5.35,5.35,1.49,1.63-13.43-.48-28.39-9-39.37-2.35-3-6,1.54-3.82,4.32Z"/></g></g></svg>