<svg xmlns="http://www.w3.org/2000/svg" viewBox="0 0 126.55 98.97"><defs><style>.cls-1{fill:#231815}</style></defs><g id="レイヤー_2" data-name="レイヤー 2"><g id="レイヤー_4" data-name="レイヤー 4"><path class="cls-1" d="M120.55 17.29H46.14V6a6 6 0 00-6-6H17.08a6 6 0 00-6 6v11.29H6a6 6 0 00-6 6V93a6 6 0 006 6h114.55a6 6 0 006-6V23.29a6 6 0 00-6-6zM23.08 12h11.06v5.29H23.08zm91.47 75H12V29.29h102.55z"/><path class="cls-1" d="M61.27 79.46A21.08 21.08 0 1040.2 58.39a21.1 21.1 0 0021.07 21.07zm0-30.15a9.08 9.08 0 11-9.07 9.08 9.09 9.09 0 019.07-9.08zM93 45.32h11.5a6 6 0 000-12H93a6 6 0 000 12z"/></g></g></svg>