<svg xmlns="http://www.w3.org/2000/svg" viewBox="0 0 114.18 198.13"><defs><style>.cls-1{fill:#231815;}</style></defs><g id="レイヤー_2" data-name="レイヤー 2"><g id="S"><path class="cls-1" d="M102.13,52.07c2.34-2.44,5.6-3.88,7.27-3.21,1.07.43,1.3,2,1.3,3.17a1.74,1.74,0,0,0,3.48,0c0-4.35-2.19-5.87-3.49-6.39-3.57-1.44-8.25,1.08-11.07,4-.88.92-1.79,1.9-2.72,2.92V47.67c3.38-3.87,6.57-7.57,9.74-11.27A1.74,1.74,0,1,0,104,34.14c-2.33,2.72-4.68,5.45-7.1,8.23V28.43a37.1,37.1,0,0,1,5.4-4.55c2.06-1.15,4-1,5.12.28s1.25,4-1,6.73a1.74,1.74,0,0,0,.22,2.44,1.76,1.76,0,0,0,1.12.41,1.74,1.74,0,0,0,1.33-.63c3.57-4.28,3.09-8.69,1-11.17-2.2-2.65-5.93-3.08-9.48-1.1a22.92,22.92,0,0,0-3.71,2.89V6.54A6.54,6.54,0,0,0,90.36,0H28.86a6.54,6.54,0,0,0-6.54,6.54v44c-.11-.41-.22-.83-.34-1.24a17.17,17.17,0,0,0-2.66-5.79A7.93,7.93,0,0,0,13,40.22c-4,.14-6,3.54-6.28,6.84a1.72,1.72,0,0,0,1.58,1.88,1.74,1.74,0,0,0,1.88-1.58c0-.37.38-3.58,2.94-3.66a4.5,4.5,0,0,1,3.48,1.92,14.13,14.13,0,0,1,2.08,4.64,110,110,0,0,1,3.67,17.65v61.53A6.54,6.54,0,0,0,28.86,136H66.69a88.47,88.47,0,0,1-9.1,13.32c-4,4.76-5,9.49-6.23,15-.18.84-.38,1.7-.58,2.59l-2.27,9.46-34.13-8.66c2.49-9.17,4.24-16.26,5.19-21.08a1.2,1.2,0,0,0,0-.38c-.16-6.57-2.65-14.71-5.29-23.33-3.12-10.2-6.34-20.75-6-29.5a.62.62,0,0,0,0-.13,94,94,0,0,1,.49-11,238.05,238.05,0,0,0,.76-30.08,1.78,1.78,0,0,0-1.8-1.68,1.74,1.74,0,0,0-1.68,1.8A232.31,232.31,0,0,1,5.35,82a101.12,101.12,0,0,0-.5,11.3c-.37,9.33,2.94,20.14,6.14,30.6,2.54,8.3,4.94,16.14,5.13,22.21-.93,4.68-2.7,11.81-5.11,20.7l-3.4-.86a1.75,1.75,0,0,0-2.09,1.16l-5.44,17a1.74,1.74,0,0,0,3.31,1l4.95-15.47L54.87,181.5l-2.71,14.58a1.74,1.74,0,0,0,1.39,2l.32,0a1.73,1.73,0,0,0,1.71-1.42l3-16.17a1.73,1.73,0,0,0-1.28-2l-5.42-1.38c.86-3.58,1.66-6.93,2.28-9.52.21-.9.4-1.78.6-2.64,1.16-5.23,2.08-9.37,5.5-13.49A91.69,91.69,0,0,0,70.68,136H90.36a6.54,6.54,0,0,0,6.54-6.53V91.09c1.61-1.47,2.66-2.37,2.77-2.47l.1-.1a1.62,1.62,0,0,0,.18-.19l0,0,11.56-16,.08-.14s0-.06,0-.09l0,0s0,0,0-.06c2.35-4.64,2.4-8.58.12-10.3a3.94,3.94,0,0,0-1.75-.74l3-4.46a1.74,1.74,0,0,0-2.88-1.95l-4.43,6.55a1.68,1.68,0,0,0-.29.9,28.7,28.7,0,0,0-6.39,4.78,27.45,27.45,0,0,0-2.22,2.41V57.82C98.71,55.75,100.47,53.81,102.13,52.07Zm-8.7,77.37a3.07,3.07,0,0,1-3.07,3.06H28.86a3.07,3.07,0,0,1-3.06-3.06V6.54a3.07,3.07,0,0,1,3.06-3.07h61.5a3.08,3.08,0,0,1,3.07,3.07Zm8.07-60.16c5.41-5.09,7.88-5.1,8.25-4.83s.61,2.52-1.13,6L97.29,86.09l-.39.33V74.78A46.46,46.46,0,0,1,101.5,69.28Z"/><path class="cls-1" d="M62.51,118.69H56.72a2.9,2.9,0,0,0-2.9,2.9v5.54a2.9,2.9,0,0,0,2.9,2.9h5.79a2.9,2.9,0,0,0,2.9-2.9v-5.54A2.9,2.9,0,0,0,62.51,118.69Zm1.16,8.44a1.16,1.16,0,0,1-1.16,1.16H56.72a1.17,1.17,0,0,1-1.17-1.16v-5.54a1.17,1.17,0,0,1,1.17-1.16h5.79a1.16,1.16,0,0,1,1.16,1.16Z"/><path class="cls-1" d="M52.36,11.13h14.5a.87.87,0,0,0,.87-.87V6.58a.87.87,0,0,0-.87-.87H52.36a.87.87,0,0,0-.87.87v3.68A.87.87,0,0,0,52.36,11.13Zm.87-3.68H66V9.39H53.23Z"/><path class="cls-1" d="M88.18,13.53H31a.87.87,0,0,0-.87.87V115.21a.87.87,0,0,0,.87.87H88.18a.87.87,0,0,0,.87-.87V14.4A.87.87,0,0,0,88.18,13.53Zm-.87,100.81H31.91V15.27h55.4Z"/><path class="cls-1" d="M46.41,36.14H71.62l7.58,4.8a.86.86,0,0,0,.46.14A.87.87,0,0,0,80.49,40l-1.16-3.81h2.45a2.35,2.35,0,0,0,2.34-2.35V25a2.34,2.34,0,0,0-2.34-2.34H46.41A2.35,2.35,0,0,0,44.06,25v8.8A2.35,2.35,0,0,0,46.41,36.14ZM45.8,25a.6.6,0,0,1,.61-.6H81.78a.61.61,0,0,1,.61.6v8.8a.61.61,0,0,1-.61.61H78.15a.88.88,0,0,0-.83,1.12l.83,2.7-5.81-3.68a.86.86,0,0,0-.47-.14H46.41a.61.61,0,0,1-.61-.61Z"/><path class="cls-1" d="M37.44,59.05H39.9l-1.17,3.81A.87.87,0,0,0,39.56,64a.92.92,0,0,0,.47-.14l7.57-4.8H72.81a2.35,2.35,0,0,0,2.35-2.35V44.43a2.35,2.35,0,0,0-2.35-2.35H37.44a2.35,2.35,0,0,0-2.34,2.35V56.7A2.35,2.35,0,0,0,37.44,59.05Zm-.6-14.62a.6.6,0,0,1,.6-.61H72.81a.61.61,0,0,1,.61.61V56.7a.61.61,0,0,1-.61.61H47.35a.86.86,0,0,0-.47.14l-5.8,3.68.82-2.7a.88.88,0,0,0-.13-.77.89.89,0,0,0-.7-.35H37.44a.6.6,0,0,1-.6-.61Z"/><path class="cls-1" d="M81.78,65.28H46.41a2.35,2.35,0,0,0-2.35,2.34V85.69A2.35,2.35,0,0,0,46.41,88H71.62l7.58,4.8a.86.86,0,0,0,.46.14.87.87,0,0,0,.53-.18.86.86,0,0,0,.3-.94L79.33,88h2.45a2.35,2.35,0,0,0,2.34-2.35V67.62A2.34,2.34,0,0,0,81.78,65.28Zm.61,20.41a.61.61,0,0,1-.61.61H78.15a.84.84,0,0,0-.69.36.85.85,0,0,0-.14.77l.83,2.69-5.81-3.68a.86.86,0,0,0-.47-.14H46.41a.61.61,0,0,1-.61-.61V67.62a.61.61,0,0,1,.61-.61H81.78a.62.62,0,0,1,.61.61Z"/><path class="cls-1" d="M37.44,105.64H39.9l-1.17,3.81a.87.87,0,0,0,.83,1.13.92.92,0,0,0,.47-.14l7.57-4.8H72.81a2.35,2.35,0,0,0,2.35-2.35v-6a2.35,2.35,0,0,0-2.35-2.35H37.44a2.35,2.35,0,0,0-2.34,2.35v6A2.35,2.35,0,0,0,37.44,105.64Zm-.6-8.35a.61.61,0,0,1,.6-.61H72.81a.61.61,0,0,1,.61.61v6a.61.61,0,0,1-.61.61H47.35a.86.86,0,0,0-.47.14l-5.8,3.68.82-2.7a.88.88,0,0,0-.13-.77.89.89,0,0,0-.7-.35H37.44a.6.6,0,0,1-.6-.61Z"/></g></g></svg>