<svg xmlns="http://www.w3.org/2000/svg" viewBox="0 0 114.18 198.13"><defs><style>.cls-1{fill:#231815}</style></defs><g id="レイヤー_2" data-name="レイヤー 2"><g id="S"><path class="cls-1" d="M102.13 52.07c2.34-2.44 5.6-3.88 7.27-3.21 1.07.43 1.3 2 1.3 3.17a1.74 1.74 0 003.48 0c0-4.35-2.19-5.87-3.49-6.39-3.57-1.44-8.25 1.08-11.07 4-.88.92-1.79 1.9-2.72 2.92v-4.89c3.38-3.87 6.57-7.57 9.74-11.27a1.74 1.74 0 10-2.64-2.26c-2.33 2.72-4.68 5.45-7.1 8.23V28.43a37.1 37.1 0 015.4-4.55c2.06-1.15 4-1 5.12.28s1.25 4-1 6.73a1.74 1.74 0 00.22 2.44 1.76 1.76 0 001.12.41 1.74 1.74 0 001.33-.63c3.57-4.28 3.09-8.69 1-11.17-2.2-2.65-5.93-3.08-9.48-1.1a22.92 22.92 0 00-3.71 2.89V6.54A6.54 6.54 0 0090.36 0h-61.5a6.54 6.54 0 00-6.54 6.54v44c-.11-.41-.22-.83-.34-1.24a17.17 17.17 0 00-2.66-5.79A7.93 7.93 0 0013 40.22c-4 .14-6 3.54-6.28 6.84a1.72 1.72 0 001.58 1.88 1.74 1.74 0 001.88-1.58c0-.37.38-3.58 2.94-3.66a4.5 4.5 0 013.48 1.92 14.13 14.13 0 012.08 4.64 110 110 0 013.67 17.65v61.53a6.54 6.54 0 006.51 6.56h37.83a88.47 88.47 0 01-9.1 13.32c-4 4.76-5 9.49-6.23 15-.18.84-.38 1.7-.58 2.59l-2.27 9.46-34.13-8.66c2.49-9.17 4.24-16.26 5.19-21.08a1.2 1.2 0 000-.38c-.16-6.57-2.65-14.71-5.29-23.33-3.12-10.2-6.34-20.75-6-29.5a.62.62 0 000-.13 94 94 0 01.49-11 238.05 238.05 0 00.76-30.08 1.78 1.78 0 00-1.8-1.68 1.74 1.74 0 00-1.68 1.8A232.31 232.31 0 015.35 82a101.12 101.12 0 00-.5 11.3c-.37 9.33 2.94 20.14 6.14 30.6 2.54 8.3 4.94 16.14 5.13 22.21-.93 4.68-2.7 11.81-5.11 20.7l-3.4-.86a1.75 1.75 0 00-2.09 1.16l-5.44 17a1.74 1.74 0 003.31 1l4.95-15.47 46.53 11.86-2.71 14.58a1.74 1.74 0 001.39 2h.32a1.73 1.73 0 001.71-1.42l3-16.17a1.73 1.73 0 00-1.28-2l-5.42-1.38c.86-3.58 1.66-6.93 2.28-9.52.21-.9.4-1.78.6-2.64 1.16-5.23 2.08-9.37 5.5-13.49A91.69 91.69 0 0070.68 136h19.68a6.54 6.54 0 006.54-6.53V91.09c1.61-1.47 2.66-2.37 2.77-2.47l.1-.1a1.62 1.62 0 00.18-.19l11.56-16 .08-.14v-.09-.06c2.35-4.64 2.4-8.58.12-10.3a3.94 3.94 0 00-1.75-.74l3-4.46a1.74 1.74 0 00-2.88-1.95l-4.43 6.55a1.68 1.68 0 00-.29.9 28.7 28.7 0 00-6.39 4.78 27.45 27.45 0 00-2.22 2.41V57.82c1.96-2.07 3.72-4.01 5.38-5.75zm-8.7 77.37a3.07 3.07 0 01-3.07 3.06h-61.5a3.07 3.07 0 01-3.06-3.06V6.54a3.07 3.07 0 013.06-3.07h61.5a3.08 3.08 0 013.07 3.07zm8.07-60.16c5.41-5.09 7.88-5.1 8.25-4.83s.61 2.52-1.13 6L97.29 86.09l-.39.33V74.78a46.46 46.46 0 014.6-5.5z"/><path class="cls-1" d="M62.51 118.69h-5.79a2.9 2.9 0 00-2.9 2.9v5.54a2.9 2.9 0 002.9 2.9h5.79a2.9 2.9 0 002.9-2.9v-5.54a2.9 2.9 0 00-2.9-2.9zm1.16 8.44a1.16 1.16 0 01-1.16 1.16h-5.79a1.17 1.17 0 01-1.17-1.16v-5.54a1.17 1.17 0 011.17-1.16h5.79a1.16 1.16 0 011.16 1.16zM52.36 11.13h14.5a.87.87 0 00.87-.87V6.58a.87.87 0 00-.87-.87h-14.5a.87.87 0 00-.87.87v3.68a.87.87 0 00.87.87zm.87-3.68H66v1.94H53.23zM88.18 13.53H31a.87.87 0 00-.87.87v100.81a.87.87 0 00.87.87h57.18a.87.87 0 00.87-.87V14.4a.87.87 0 00-.87-.87zm-.87 100.81h-55.4V15.27h55.4z"/><path class="cls-1" d="M46.41 36.14h25.21l7.58 4.8a.86.86 0 00.46.14.87.87 0 00.83-1.08l-1.16-3.81h2.45a2.35 2.35 0 002.34-2.35V25a2.34 2.34 0 00-2.34-2.34H46.41A2.35 2.35 0 0044.06 25v8.8a2.35 2.35 0 002.35 2.34zM45.8 25a.6.6 0 01.61-.6h35.37a.61.61 0 01.61.6v8.8a.61.61 0 01-.61.61h-3.63a.88.88 0 00-.83 1.12l.83 2.7-5.81-3.68a.86.86 0 00-.47-.14H46.41a.61.61 0 01-.61-.61zM37.44 59.05h2.46l-1.17 3.81a.87.87 0 00.83 1.14.92.92 0 00.47-.14l7.57-4.8h25.21a2.35 2.35 0 002.35-2.35V44.43a2.35 2.35 0 00-2.35-2.35H37.44a2.35 2.35 0 00-2.34 2.35V56.7a2.35 2.35 0 002.34 2.35zm-.6-14.62a.6.6 0 01.6-.61h35.37a.61.61 0 01.61.61V56.7a.61.61 0 01-.61.61H47.35a.86.86 0 00-.47.14l-5.8 3.68.82-2.7a.88.88 0 00-.13-.77.89.89 0 00-.7-.35h-3.63a.6.6 0 01-.6-.61zM81.78 65.28H46.41a2.35 2.35 0 00-2.35 2.34v18.07A2.35 2.35 0 0046.41 88h25.21l7.58 4.8a.86.86 0 00.46.14.87.87 0 00.53-.18.86.86 0 00.3-.94L79.33 88h2.45a2.35 2.35 0 002.34-2.35V67.62a2.34 2.34 0 00-2.34-2.34zm.61 20.41a.61.61 0 01-.61.61h-3.63a.84.84 0 00-.69.36.85.85 0 00-.14.77l.83 2.69-5.81-3.68a.86.86 0 00-.47-.14H46.41a.61.61 0 01-.61-.61V67.62a.61.61 0 01.61-.61h35.37a.62.62 0 01.61.61zM37.44 105.64h2.46l-1.17 3.81a.87.87 0 00.83 1.13.92.92 0 00.47-.14l7.57-4.8h25.21a2.35 2.35 0 002.35-2.35v-6a2.35 2.35 0 00-2.35-2.35H37.44a2.35 2.35 0 00-2.34 2.35v6a2.35 2.35 0 002.34 2.35zm-.6-8.35a.61.61 0 01.6-.61h35.37a.61.61 0 01.61.61v6a.61.61 0 01-.61.61H47.35a.86.86 0 00-.47.14l-5.8 3.68.82-2.7a.88.88 0 00-.13-.77.89.89 0 00-.7-.35h-3.63a.6.6 0 01-.6-.61z"/></g></g></svg>