<svg xmlns="http://www.w3.org/2000/svg" viewBox="0 0 114.18 198.13"><defs><style>.cls-1{fill:#231815;}</style></defs><g id="レイヤー_2" data-name="レイヤー 2"><g id="S"><path class="cls-1" d="M102.13,52.07c2.34-2.44,5.6-3.88,7.27-3.21,1.07.43,1.3,2,1.3,3.17a1.74,1.74,0,0,0,3.48,0c0-4.35-2.19-5.87-3.49-6.39-3.58-1.44-8.25,1.08-11.07,4-.88.93-1.79,1.91-2.72,2.92V47.67c3.33-3.82,6.52-7.51,9.74-11.27A1.74,1.74,0,1,0,104,34.14c-2.36,2.75-4.71,5.47-7.1,8.24v-14a37.1,37.1,0,0,1,5.4-4.55c2.06-1.15,4-1,5.12.28s1.25,4-1,6.73a1.74,1.74,0,0,0,.22,2.44,1.76,1.76,0,0,0,1.12.41,1.74,1.74,0,0,0,1.33-.63c3.57-4.28,3.09-8.69,1-11.17-2.2-2.65-5.93-3.09-9.48-1.1a26,26,0,0,0-3.71,2.89V6.54A6.54,6.54,0,0,0,90.36,0H28.86a6.54,6.54,0,0,0-6.54,6.54v44c-.11-.41-.22-.83-.34-1.24a17.17,17.17,0,0,0-2.66-5.79A7.94,7.94,0,0,0,13,40.22c-4,.14-6,3.54-6.28,6.84a1.72,1.72,0,0,0,1.58,1.88,1.74,1.74,0,0,0,1.88-1.58c0-.37.38-3.58,2.94-3.66a4.5,4.5,0,0,1,3.48,1.91,14.27,14.27,0,0,1,2.08,4.65,110,110,0,0,1,3.67,17.65v61.53A6.55,6.55,0,0,0,28.86,136H66.69a88.89,88.89,0,0,1-9.1,13.31c-4,4.76-5,9.49-6.23,15-.18.84-.38,1.71-.58,2.59l-2.27,9.46-34.13-8.66c2.49-9.17,4.24-16.26,5.19-21.08a1.2,1.2,0,0,0,0-.38c-.16-6.57-2.65-14.71-5.29-23.33-3.12-10.2-6.34-20.75-6-29.5a.62.62,0,0,0,0-.13,94.06,94.06,0,0,1,.49-11,238.05,238.05,0,0,0,.76-30.08,1.78,1.78,0,0,0-1.8-1.68,1.74,1.74,0,0,0-1.68,1.8A232.31,232.31,0,0,1,5.35,82a101.22,101.22,0,0,0-.5,11.3c-.37,9.33,2.94,20.14,6.14,30.6,2.54,8.3,4.94,16.14,5.13,22.21-.93,4.68-2.7,11.81-5.11,20.7l-3.4-.86a1.75,1.75,0,0,0-2.09,1.16l-5.44,17a1.74,1.74,0,0,0,3.31,1l4.95-15.47,46.53,11.82-2.71,14.57a1.75,1.75,0,0,0,1.39,2l.32,0a1.73,1.73,0,0,0,1.71-1.42l3-16.17a1.73,1.73,0,0,0-1.28-2l-5.42-1.38c.86-3.58,1.66-6.93,2.28-9.52.21-.9.4-1.78.6-2.64,1.16-5.23,2.08-9.37,5.5-13.49A92.41,92.41,0,0,0,70.68,136H90.36a6.55,6.55,0,0,0,6.54-6.54V91.09c1.62-1.48,2.67-2.38,2.78-2.47l.07-.08a1.94,1.94,0,0,0,.2-.21l0,0,11.56-16,.08-.15a.35.35,0,0,0,0-.08.08.08,0,0,0,0,0l0-.07c2.35-4.64,2.4-8.58.12-10.3a3.94,3.94,0,0,0-1.75-.74l3-4.46a1.74,1.74,0,0,0-2.88-1.95l-4.43,6.55a1.68,1.68,0,0,0-.29.9,28.7,28.7,0,0,0-6.39,4.78,27.45,27.45,0,0,0-2.22,2.41V57.82C98.71,55.76,100.47,53.82,102.13,52.07Zm-8.7,77.37a3.07,3.07,0,0,1-3.07,3.06H28.86a3.06,3.06,0,0,1-3.06-3.06V6.54a3.07,3.07,0,0,1,3.06-3.07h61.5a3.08,3.08,0,0,1,3.07,3.07Zm8.07-60.16c5.41-5.09,7.88-5.1,8.25-4.83s.61,2.52-1.13,6L97.29,86.09l-.39.33V74.78A46.46,46.46,0,0,1,101.5,69.28Z"/><path class="cls-1" d="M88.18,13.53H31a.87.87,0,0,0-.87.87V115.21a.87.87,0,0,0,.87.87H88.18a.87.87,0,0,0,.87-.87V14.4A.87.87,0,0,0,88.18,13.53Zm-.87,100.81H31.91V15.27h55.4Z"/><path class="cls-1" d="M62.51,118.69H56.72a2.9,2.9,0,0,0-2.9,2.9v5.54a2.9,2.9,0,0,0,2.9,2.9h5.79a2.9,2.9,0,0,0,2.9-2.9v-5.54A2.9,2.9,0,0,0,62.51,118.69Zm1.16,8.44a1.16,1.16,0,0,1-1.16,1.16H56.72a1.17,1.17,0,0,1-1.17-1.16v-5.54a1.17,1.17,0,0,1,1.17-1.16h5.79a1.16,1.16,0,0,1,1.16,1.16Z"/><path class="cls-1" d="M52.36,11.13h14.5a.87.87,0,0,0,.87-.87V6.58a.87.87,0,0,0-.87-.87H52.36a.87.87,0,0,0-.87.87v3.68A.87.87,0,0,0,52.36,11.13Zm.87-3.68H66V9.39H53.23Z"/></g></g></svg>