<svg xmlns="http://www.w3.org/2000/svg" viewBox="0 0 289.31 211.52"><defs><style>.cls-1{fill:#231815;}</style></defs><g id="レイヤー_2" data-name="レイヤー 2"><g id="S"><path class="cls-1" d="M277.27,52.07c2.33-2.44,5.59-3.88,7.26-3.21,1.08.43,1.3,2,1.3,3.17a1.74,1.74,0,1,0,3.48,0c0-4.35-2.18-5.87-3.48-6.39-3.58-1.44-8.25,1.08-11.08,4-.89.94-1.8,1.92-2.72,2.93V47.66c2.92-3.33,6.1-7,9.73-11.26a1.74,1.74,0,0,0-2.64-2.26c-2.57,3-4.9,5.71-7.09,8.23V28.44a36.23,36.23,0,0,1,5.41-4.56c2.05-1.15,4-1,5.11.28s1.26,4-1,6.73a1.74,1.74,0,0,0,1.33,2.85,1.76,1.76,0,0,0,1.34-.63c3.56-4.28,3.09-8.69,1-11.17-2.2-2.65-5.92-3.09-9.47-1.1A22.41,22.41,0,0,0,272,23.73V6.54A6.54,6.54,0,0,0,265.5,0H204a6.55,6.55,0,0,0-6.54,6.54v44c-.11-.4-.21-.82-.33-1.23a17.29,17.29,0,0,0-2.68-5.79,7.83,7.83,0,0,0-6.34-3.26c-3.95.14-6,3.54-6.28,6.84a1.74,1.74,0,1,0,3.46.3c0-.37.38-3.58,2.94-3.66a4.47,4.47,0,0,1,3.48,1.92,13.76,13.76,0,0,1,2.09,4.64,109.84,109.84,0,0,1,3.66,17.64v61.54A6.55,6.55,0,0,0,204,136h37.87a88.75,88.75,0,0,1-9.14,13.32c-4,4.76-5,9.49-6.22,15-.19.84-.38,1.71-.59,2.58l-1,4.4c-.38,1.59-.79,3.3-1.22,5.07l-34.13-8.66c2.49-9.17,4.24-16.26,5.19-21.08a1.58,1.58,0,0,0,0-.38c-.17-6.57-2.66-14.71-5.29-23.33-3.12-10.2-6.35-20.75-6-29.5v-.13a96.22,96.22,0,0,1,.49-11,238.05,238.05,0,0,0,.76-30.08,1.76,1.76,0,0,0-1.8-1.68,1.73,1.73,0,0,0-1.67,1.8A236.17,236.17,0,0,1,180.49,82a98.92,98.92,0,0,0-.51,11.3c-.36,9.33,2.94,20.14,6.14,30.6,2.54,8.3,4.94,16.14,5.14,22.21-.94,4.68-2.7,11.81-5.12,20.7l-3.4-.86a1.75,1.75,0,0,0-2.09,1.16l-5.43,17a1.74,1.74,0,1,0,3.31,1l4.94-15.47L230,181.5l-2.7,14.58a1.72,1.72,0,0,0,1.39,2,1.66,1.66,0,0,0,.32,0,1.72,1.72,0,0,0,1.7-1.42l3-16.17a1.75,1.75,0,0,0-1.28-2L227,177.16c.43-1.79.84-3.52,1.23-5.12l1-4.4q.32-1.35.6-2.64c1.16-5.23,2.08-9.37,5.51-13.49A92.25,92.25,0,0,0,245.81,136H265.5a6.54,6.54,0,0,0,6.53-6.53V91.09c1.63-1.47,2.66-2.37,2.78-2.47l0,0h0a1.6,1.6,0,0,0,.25-.27s0,0,0,0l11.56-16s0-.08.07-.12l.07-.11,0-.06v0c2.35-4.65,2.4-8.6.11-10.32a3.85,3.85,0,0,0-1.74-.74l3-4.46a1.74,1.74,0,0,0-2.88-1.95l-4.43,6.55a1.77,1.77,0,0,0-.29.9,28.93,28.93,0,0,0-6.39,4.78A32.46,32.46,0,0,0,272,69.16V57.83C273.8,55.8,275.56,53.86,277.27,52.07ZM265.5,132.5H204a3.07,3.07,0,0,1-3.06-3.06V6.54A3.07,3.07,0,0,1,204,3.47H265.5a3.07,3.07,0,0,1,3.06,3.07v122.9A3.07,3.07,0,0,1,265.5,132.5Zm11.13-63.22c5.41-5.09,7.88-5.11,8.25-4.83s.61,2.52-1.12,6L272.41,86.1l-.38.33V74.77A49.25,49.25,0,0,1,276.63,69.28Z"/><path class="cls-1" d="M237.64,118.69h-5.79a2.9,2.9,0,0,0-2.9,2.9v5.54a2.9,2.9,0,0,0,2.9,2.9h5.79a2.9,2.9,0,0,0,2.9-2.9v-5.54A2.9,2.9,0,0,0,237.64,118.69Zm1.16,8.44a1.16,1.16,0,0,1-1.16,1.16h-5.79a1.16,1.16,0,0,1-1.16-1.16v-5.54a1.16,1.16,0,0,1,1.16-1.16h5.79a1.16,1.16,0,0,1,1.16,1.16Z"/><path class="cls-1" d="M227.5,11.13H242a.87.87,0,0,0,.87-.87V6.58a.87.87,0,0,0-.87-.87H227.5a.87.87,0,0,0-.87.87v3.68A.87.87,0,0,0,227.5,11.13Zm.86-3.68h12.76V9.39H228.36Z"/><path class="cls-1" d="M247.06,92.35H222.43a.65.65,0,0,0-.65.65v9.86a.65.65,0,0,0,.65.65h24.63a.65.65,0,0,0,.65-.65V93A.65.65,0,0,0,247.06,92.35Zm-.65,9.86H223.08V93.66h23.33Z"/><path class="cls-1" d="M263.31,13.53H206.17a.87.87,0,0,0-.87.87V115.21a.87.87,0,0,0,.87.87h57.14a.87.87,0,0,0,.87-.87V14.4A.87.87,0,0,0,263.31,13.53Zm-.86,100.81H207V15.27h55.41Z"/><rect class="cls-1" x="228.83" y="28.8" width="1.48" height="14.78"/><rect class="cls-1" x="231.79" y="28.8" width="1.48" height="14.78"/><rect class="cls-1" x="234.74" y="28.8" width="1.48" height="14.78"/><rect class="cls-1" x="224.89" y="28.8" width="2.46" height="14.78"/><rect class="cls-1" x="219.97" y="28.8" width="2.46" height="14.78"/><rect class="cls-1" x="215.04" y="28.8" width="2.46" height="14.78"/><rect class="cls-1" x="237.7" y="28.8" width="1.48" height="14.78"/><rect class="cls-1" x="248.54" y="28.8" width="1.48" height="14.78"/><rect class="cls-1" x="252.48" y="28.8" width="1.97" height="14.78"/><rect class="cls-1" x="242.13" y="28.8" width="3.94" height="14.78"/><path class="cls-1" d="M239.05,71.09v4.32h-4.31v4.31h4.31V84H252V71.09h-4.31V66.78h-4.31v4.31Zm11.11,1.82v9.28h-9.28V72.91Z"/><rect class="cls-1" x="242.42" y="74.45" width="6.21" height="6.21"/><rect class="cls-1" x="220.86" y="74.45" width="6.21" height="6.21"/><rect class="cls-1" x="220.86" y="52.9" width="6.21" height="6.21"/><rect class="cls-1" x="247.67" y="62.47" width="4.31" height="4.31"/><rect class="cls-1" x="247.67" y="53.83" width="4.31" height="4.31"/><rect class="cls-1" x="243.36" y="58.15" width="4.31" height="4.31"/><rect class="cls-1" x="243.36" y="49.52" width="4.31" height="4.31"/><rect class="cls-1" x="239.05" y="62.47" width="4.31" height="4.31"/><rect class="cls-1" x="239.05" y="53.83" width="4.31" height="4.31"/><rect class="cls-1" x="234.74" y="66.78" width="4.31" height="4.31"/><rect class="cls-1" x="234.74" y="58.15" width="4.31" height="4.31"/><rect class="cls-1" x="234.74" y="49.52" width="4.31" height="4.31"/><path class="cls-1" d="M230.43,71.1h0V66.78h-4.31v4.31h-4.31V66.78H217.5v4.31h0V84h12.93v0h4.31V79.73h-4.31V75.41h4.31V71.1Zm-1.82,11.09h-9.28V72.91h9.28Z"/><path class="cls-1" d="M217.5,49.53V62.47h4.31v4.31h4.31V62.47h4.31V58.15h4.31V53.83h-4.31v-4.3Zm11.11,11.11h-9.28V51.36h9.28Z"/><rect class="cls-1" x="230.43" y="62.47" width="4.31" height="4.31"/><path class="cls-1" d="M100.57.45H41.78A1.74,1.74,0,0,0,40,2.19V82.36c-7.75-2.9-10.14-2.23-11-2-3.29.94-9.52,8.35-12.68,12.58-2.68,3.59-8.95,12.59-9.3,18.55-.53,8.77,1.9,17.84,4.25,26.61,1.13,4.2,2.19,8.17,2.93,12.06a68,68,0,0,1-1,31.19l-5.07-1.29a1.74,1.74,0,0,0-2.07,1.11L.1,198.42a1.74,1.74,0,0,0,3.28,1.15l5.53-15.74L49.65,194.2l-3.38,15.21a1.74,1.74,0,0,0,1.32,2.07,1.69,1.69,0,0,0,.38,0,1.74,1.74,0,0,0,1.7-1.36l3.74-16.86a1.73,1.73,0,0,0-1.27-2.06L46,189.68c.91-3.84,1.82-7.09,2.83-10.12a69,69,0,0,1,4.86-10.42c.7-1.31,1.41-2.63,2.08-4C60.91,155,61.35,143.7,61.15,135c0-1.24-.09-2.48-.18-3.71,2.83,3.77,5.24,4.85,7.16,5.3a7.82,7.82,0,0,0,1.76.23,3.55,3.55,0,0,0,2.32-.75c1.33-1.12,1.23-2.92,1.14-4.51,0-.31,0-.62,0-.93-.07-2.45-.24-4.91-.45-7.36h27.71a1.74,1.74,0,0,0,1.74-1.74V2.19A1.74,1.74,0,0,0,100.57.45ZM40,110.43c-1.29,1.67-2.81,3.41-3.78,4.46-1.91-1.76-4.08-3.65-6.55-5.72,1.87-2.41,4.3-5.77,5.84-8.26l1.3.53c1.12.46,2.14.87,3.19,1.33Zm0,5.45v2.65c-.4-.41-.82-.83-1.26-1.25C39.15,116.88,39.58,116.41,40,115.88Zm12.63,47.73c-.66,1.31-1.36,2.6-2.05,3.89a74,74,0,0,0-5.09,10.95c-1,3.12-2,6.45-2.9,10.37l-26-6.6a71.33,71.33,0,0,0,1-32.7c-.77-4-1.9-8.23-3-12.31-2.28-8.51-4.63-17.3-4.14-25.51.5-8.44,16.3-27.09,19.47-28,.57-.16,2.92-.43,10,2.38V99l-1.89-.78-2.67-1.09a1.74,1.74,0,0,0-2.2.77A94.49,94.49,0,0,1,26,108.33a1.74,1.74,0,0,0,.24,2.43,123.87,123.87,0,0,1,14.09,13.12c-.67,3-1.56,5.38-2.76,6.53a1.74,1.74,0,1,0,2.39,2.52c2.15-2,3.42-6,4.28-11a2.14,2.14,0,0,0,.06-.35c.78-4.63,1.21-10.11,1.66-15.74C46.47,98.76,47,91.4,48.35,86a1.73,1.73,0,0,0-1.28-2.1,1.1,1.1,0,0,0-.31,0V82.73a1.78,1.78,0,0,0,.57.32,1.74,1.74,0,0,0,2.19-1.13c.37-1.18,2.19-1.94,4.06-1.7a4.07,4.07,0,0,1,3.72,4.15,219.89,219.89,0,0,1-.15,23.39c-.2,4.25-.38,8.26-.37,12.61,0,.37,0,.73,0,1.1,0,0,0,0,0,0s0,0,0,.06c.06,2.3.25,4.58.44,6.8s.39,4.48.44,6.69C57.87,143.37,57.46,154.12,52.67,163.61Zm4-86.9A20.44,20.44,0,0,1,68.43,42a21.72,21.72,0,0,1,2.66-.17A20.49,20.49,0,0,1,91.38,64.93,20.61,20.61,0,0,1,73.76,82.54,20.37,20.37,0,0,1,56.64,76.71Zm4.13,7.48A8.43,8.43,0,0,0,60,80.91,21.63,21.63,0,0,0,71.1,84a22.52,22.52,0,0,0,2.83-.18A21.74,21.74,0,0,0,86.47,46.88a21.7,21.7,0,0,0-18.21-6.2A21.94,21.94,0,0,0,49.52,59.42,21.7,21.7,0,0,0,55.12,77,6.79,6.79,0,0,0,54,76.78a7.5,7.5,0,0,0-7.27,2.92V7.16H95.59V116.53H60.3c.06-2.88.19-5.69.32-8.61A223.47,223.47,0,0,0,60.77,84.19Zm9.06,46.52c0,.35,0,.69,0,1a10.84,10.84,0,0,1,0,1.6,3.15,3.15,0,0,1-1-.14c-1.27-.3-4.23-1-8.56-9.64,0-.1,0-.2,0-.3h9C69.59,125.73,69.76,128.23,69.83,130.71Zm29-10.94H60.26c0-.75,0-1.5,0-2.24H96.09a.5.5,0,0,0,.5-.5V6.66a.5.5,0,0,0-.5-.5H46.26a.5.5,0,0,0-.5.5V84.14A1.76,1.76,0,0,0,45,85.22l-.15.71a1.72,1.72,0,0,0-.27,1.22c-.42,2.08-.75,4.35-1,6.73v-9h0v-81H98.83Z"/><path class="cls-1" d="M84,53.27l-10.3,4.25V54.36a.66.66,0,0,0-.66-.65H70a.65.65,0,0,0-.65.65v5l-1,.39v-5a.65.65,0,0,0-.65-.65h-3a.65.65,0,0,0-.65.65v5.42H56.39a.66.66,0,0,0-.66.65v3a.66.66,0,0,0,.66.65h7.66v5.41a.65.65,0,0,0,.65.65h3a.65.65,0,0,0,.65-.65v-5l1,.39v4.94a.66.66,0,0,0,.65.66h3a.67.67,0,0,0,.66-.66V67L84,71.24a.56.56,0,0,0,.25.05.62.62,0,0,0,.37-.11.64.64,0,0,0,.28-.54V67.35a.66.66,0,0,0-.4-.6L73.69,62.3v-.08l10.8-4.46a.66.66,0,0,0,.4-.6V53.87a.62.62,0,0,0-.29-.54A.65.65,0,0,0,84,53.27Zm-.4,3.45-10.8,4.46a.65.65,0,0,0-.41.6v.95a.65.65,0,0,0,.41.61l10.8,4.45v1.88L73.28,65.42a.7.7,0,0,0-.25,0,.69.69,0,0,0-.36.11.66.66,0,0,0-.29.54V69.5H70.65V64.77a.65.65,0,0,0-.41-.6L68,63.24a.66.66,0,0,0-.61.06.65.65,0,0,0-.29.54v5.35H65.35V63.78a.65.65,0,0,0-.65-.65H57V61.39H64.7a.65.65,0,0,0,.65-.65V55.32h1.74v5.35a.65.65,0,0,0,.29.54.66.66,0,0,0,.61.07l2.25-.93a.65.65,0,0,0,.41-.61V55h1.73v3.48a.65.65,0,0,0,.29.54.63.63,0,0,0,.61.06l10.31-4.24Z"/><path class="cls-1" d="M89.22,59.14A18.37,18.37,0,0,0,58.1,49.27,18.37,18.37,0,0,0,68,80.38a19.63,19.63,0,0,0,3.13.26,18.41,18.41,0,0,0,18.11-21.5Zm-21,20A17.08,17.08,0,0,1,59,50.19a16.93,16.93,0,0,1,12.06-5,17.94,17.94,0,0,1,2.91.24A17.09,17.09,0,0,1,68.2,79.1Z"/></g></g></svg>