<svg xmlns="http://www.w3.org/2000/svg" viewBox="0 0 114.18 198.13"><defs><style>.cls-1{fill:#231815}</style></defs><g id="レイヤー_2" data-name="レイヤー 2"><path class="cls-1" d="M71.38 73.87c0-.05-2.11-4.72-3-7a13.71 13.71 0 01-.57-2.87c-.31-2.57-.69-5.76-2.85-7.84a7.16 7.16 0 00-4.15-1.79v-1.46a1.5 1.5 0 00-3 0v1.45a7.19 7.19 0 00-4.15 1.79c-2.15 2.08-2.54 5.27-2.85 7.84a13.81 13.81 0 01-.52 2.86c-.94 2.3-3 7-3 7A1.5 1.5 0 0048.62 76h5.5a5.4 5.4 0 0010.38 0H70a1.49 1.49 0 001.26-.68 1.51 1.51 0 00.12-1.45zm-12.07 3a2.4 2.4 0 01-1.87-.9h3.75a2.42 2.42 0 01-1.88.91zM50.92 73c.69-1.56 1.6-3.65 2.14-5a14.92 14.92 0 00.73-3.63c.27-2.2.57-4.7 2-6a5.18 5.18 0 013.56-1 5.19 5.19 0 013.57 1c1.39 1.34 1.69 3.84 2 6a15 15 0 00.64 3.63c.55 1.35 1.46 3.44 2.15 5z" id="レイヤー_4" data-name="レイヤー 4"/><g id="S"><path class="cls-1" d="M102.13 52.07c2.34-2.44 5.6-3.88 7.27-3.21 1.07.43 1.3 2 1.3 3.17a1.74 1.74 0 003.48 0c0-4.35-2.19-5.87-3.49-6.39-3.58-1.44-8.25 1.08-11.07 4-.88.93-1.79 1.91-2.72 2.92v-4.89c3.33-3.82 6.52-7.51 9.74-11.27a1.74 1.74 0 10-2.64-2.26c-2.36 2.75-4.71 5.47-7.1 8.24v-14a37.1 37.1 0 015.4-4.55c2.06-1.15 4-1 5.12.28s1.25 4-1 6.73a1.74 1.74 0 00.22 2.44 1.76 1.76 0 001.12.41 1.74 1.74 0 001.33-.63c3.57-4.28 3.09-8.69 1-11.17-2.2-2.65-5.93-3.09-9.48-1.1a26 26 0 00-3.71 2.89V6.54A6.54 6.54 0 0090.36 0h-61.5a6.54 6.54 0 00-6.54 6.54v44c-.11-.41-.22-.83-.34-1.24a17.17 17.17 0 00-2.66-5.79A7.94 7.94 0 0013 40.22c-4 .14-6 3.54-6.28 6.84a1.72 1.72 0 001.58 1.88 1.74 1.74 0 001.88-1.58c0-.37.38-3.58 2.94-3.66a4.5 4.5 0 013.48 1.91 14.27 14.27 0 012.08 4.65 110 110 0 013.67 17.65v61.53a6.55 6.55 0 006.51 6.56h37.83a88.89 88.89 0 01-9.1 13.31c-4 4.76-5 9.49-6.23 15-.18.84-.38 1.71-.58 2.59l-2.27 9.46-34.13-8.66c2.49-9.17 4.24-16.26 5.19-21.08a1.2 1.2 0 000-.38c-.16-6.57-2.65-14.71-5.29-23.33-3.12-10.2-6.34-20.75-6-29.5a.62.62 0 000-.13 94.06 94.06 0 01.49-11 238.05 238.05 0 00.76-30.08 1.78 1.78 0 00-1.8-1.68 1.74 1.74 0 00-1.68 1.8A232.31 232.31 0 015.35 82a101.22 101.22 0 00-.5 11.3c-.37 9.33 2.94 20.14 6.14 30.6 2.54 8.3 4.94 16.14 5.13 22.21-.93 4.68-2.7 11.81-5.11 20.7l-3.4-.86a1.75 1.75 0 00-2.09 1.16l-5.44 17a1.74 1.74 0 003.31 1l4.95-15.47 46.53 11.82-2.71 14.57a1.75 1.75 0 001.39 2h.32a1.73 1.73 0 001.71-1.42l3-16.17a1.73 1.73 0 00-1.28-2l-5.42-1.38c.86-3.58 1.66-6.93 2.28-9.52.21-.9.4-1.78.6-2.64 1.16-5.23 2.08-9.37 5.5-13.49A92.41 92.41 0 0070.68 136h19.68a6.55 6.55 0 006.54-6.54V91.09c1.62-1.48 2.67-2.38 2.78-2.47l.07-.08a1.94 1.94 0 00.2-.21l11.56-16 .08-.15a.35.35 0 000-.08v-.07c2.35-4.64 2.4-8.58.12-10.3a3.94 3.94 0 00-1.75-.74l3-4.46a1.74 1.74 0 00-2.88-1.95l-4.43 6.55a1.68 1.68 0 00-.29.9 28.7 28.7 0 00-6.39 4.78 27.45 27.45 0 00-2.22 2.41v-11.4c1.96-2.06 3.72-4 5.38-5.75zm-8.7 77.37a3.07 3.07 0 01-3.07 3.06h-61.5a3.06 3.06 0 01-3.06-3.06V6.54a3.07 3.07 0 013.06-3.07h61.5a3.08 3.08 0 013.07 3.07zm8.07-60.16c5.41-5.09 7.88-5.1 8.25-4.83s.61 2.52-1.13 6L97.29 86.09l-.39.33V74.78a46.46 46.46 0 014.6-5.5z"/><path class="cls-1" d="M88.18 13.53H31a.87.87 0 00-.87.87v100.81a.87.87 0 00.87.87h57.18a.87.87 0 00.87-.87V14.4a.87.87 0 00-.87-.87zm-.87 100.81h-55.4V15.27h55.4zM62.51 118.69h-5.79a2.9 2.9 0 00-2.9 2.9v5.54a2.9 2.9 0 002.9 2.9h5.79a2.9 2.9 0 002.9-2.9v-5.54a2.9 2.9 0 00-2.9-2.9zm1.16 8.44a1.16 1.16 0 01-1.16 1.16h-5.79a1.17 1.17 0 01-1.17-1.16v-5.54a1.17 1.17 0 011.17-1.16h5.79a1.16 1.16 0 011.16 1.16zM52.36 11.13h14.5a.87.87 0 00.87-.87V6.58a.87.87 0 00-.87-.87h-14.5a.87.87 0 00-.87.87v3.68a.87.87 0 00.87.87zm.87-3.68H66v1.94H53.23z"/></g></g></svg>