<svg xmlns="http://www.w3.org/2000/svg" viewBox="0 0 126.55 98.97"><defs><style>.cls-1{fill:#231815;}</style></defs><g id="レイヤー_2" data-name="レイヤー 2"><g id="レイヤー_4" data-name="レイヤー 4"><path class="cls-1" d="M120.55,17.29H46.14V6a6,6,0,0,0-6-6H17.08a6,6,0,0,0-6,6V17.29H6a6,6,0,0,0-6,6V93a6,6,0,0,0,6,6H120.55a6,6,0,0,0,6-6V23.29A6,6,0,0,0,120.55,17.29ZM23.08,12H34.14v5.29H23.08Zm91.47,75H12V29.29H114.55Z"/><path class="cls-1" d="M61.27,79.46A21.08,21.08,0,1,0,40.2,58.39,21.1,21.1,0,0,0,61.27,79.46Zm0-30.15a9.08,9.08,0,1,1-9.07,9.08A9.09,9.09,0,0,1,61.27,49.31Z"/><path class="cls-1" d="M93,45.32H104.5a6,6,0,0,0,0-12H93a6,6,0,0,0,0,12Z"/></g></g></svg>