<?xml version="1.0" encoding="utf-8"?>
<!-- Generator: Adobe Illustrator 25.0.1, SVG Export Plug-In . SVG Version: 6.00 Build 0)  -->
<svg version="1.1" id="レイヤー_1" xmlns="http://www.w3.org/2000/svg" xmlns:xlink="http://www.w3.org/1999/xlink" x="0px"
	 y="0px" viewBox="0 0 108 136.1" style="enable-background:new 0 0 108 136.1;" xml:space="preserve">
<style type="text/css">
	.st0{clip-path:url(#SVGID_2_);}
	.st1{fill:#FFFC19;}
	.st2{fill:#231F20;}
</style>
<g id="レイヤー_2_1_">
	<g id="line">
		<g>
			<g>
				<defs>
					<circle id="SVGID_1_" cx="54" cy="68.1" r="67.5"/>
				</defs>
				<clipPath id="SVGID_2_">
					<use xlink:href="#SVGID_1_"  style="overflow:visible;"/>
				</clipPath>
				<g class="st0">
					<path class="st1" d="M26.9,99.6c-7.7,1.2-30.2,16.9-31.5,18.2s-2.7,5.7-5.2,16.3s-1.7,52-1.7,52h52.4
						c0.4-6.7-2.1-37.4-2.1-37.4C37,124.9,26.9,99.6,26.9,99.6z"/>
					<path class="st1" d="M116.4,122.1c0,0-2.2-8.5-15.1-13.4s-19.4-7.5-19.4-7.5s4.2,32.3,3.8,45.9c0,0-1.3,33.6-2.7,41h38.6
						C121.6,188.1,124.3,139.8,116.4,122.1z"/>
					<path class="st2" d="M38,95.8c0,0-17.2-2-20-22.5s6.7-44.1,8.9-47.1S34.8,14.9,48,13.8c0,0,16.4-6.1,28.1,5.7
						s15.1,44.2,12.8,53.2c-5.1,19.5-18.2,23-18.2,23c-0.7-1.4-2.4-11.3-1.9-14c0,0,10.9-4.9,8.6-31c0,0-11.3,1.3-27.7-27.9
						c0,0-15.4,17.4-17.2,25.7c-1.1,5.2-0.9,10.5,0.6,15.6l-3.5,2.6c0,0-0.3,3.8,5.2,3.8l4,6.7C38.7,77.2,39.2,92,38,95.8z"/>
					<path class="st2" d="M45.9,52.2c-1.3,0-2.3,1-2.3,2.3s1,2.3,2.3,2.3s2.3-1,2.3-2.3S47.2,52.2,45.9,52.2L45.9,52.2z"/>
					<path class="st2" d="M49.2,44.1c0.3,0,0.6-0.2,0.6-0.5c0-0.2-0.1-0.4-0.3-0.5c-0.8-0.4-1.6-0.7-2.4-0.8c-3.3-0.5-6-0.3-6.9,1.1
						c-0.2,0.2-0.3,0.5-0.3,0.7c-0.1,0.5,0.2,0.9,0.6,1c0.1,0,0.3,0,0.4,0C43.6,44.3,46.4,44,49.2,44.1z"/>
					<path class="st2" d="M67.6,56.8c1.3,0,2.3-1,2.3-2.3s-1-2.3-2.3-2.3s-2.3,1-2.3,2.3l0,0C65.3,55.8,66.3,56.8,67.6,56.8z"/>
					<path class="st2" d="M58.9,66.7c2,0,3.8-2.5,3.6-2.7c-0.2-0.2-1.5,0.6-2.9,0.7c-1.9,0.1-4.2-0.2-4.2,0
						C55.6,66.7,58.4,66.7,58.9,66.7z"/>
					<path class="st2" d="M51.3,71.6c2.1,1.2,4.5,1.9,7,1.8c2.9,0,5.7-0.8,8.1-2.3c0.3-0.2,0.4-0.6,0.2-0.9l0,0
						c-0.2-0.3-0.6-0.4-0.9-0.2c-7.4,4.4-13.4,0.7-13.7,0.5s-0.7-0.1-0.9,0.2C50.9,71,51,71.4,51.3,71.6L51.3,71.6z"/>
					<path class="st2" d="M112,113.8c-6.9-6.6-27.2-12-28.1-12.2c-0.4-0.1-0.9,0.2-1,0.6c-0.2-0.7-0.2-1.1-0.2-1.1
						c-0.1-0.5-0.6-0.7-1.1-0.6h-0.1l-6.1-2c-0.3-0.1-0.6,0-0.7,0.2L74.5,99c-0.1-0.1-0.1-0.1-0.2-0.2c-0.9-0.6-1.7-1.4-2.2-2.3
						c5.9-1.2,13.6-10.8,17.3-22c1.7-5.1,1.5-16.3-0.4-27.2c-1.4-7.7-4.8-21.6-12.2-28.4C65,8.1,49.5,12.5,47.9,13
						c-3.7,0.2-7.2,1.2-10.5,2.8c-5.2,2.5-12.1,8-15.3,19.4c-5.5,19.7-9.1,45.4,4.6,56.1h0.1c0.3,0.2,6.3,4.1,10.2,5.1
						c-0.2,0.9-0.4,1.7-0.7,2.5l-0.6-0.6c0-0.1,0-0.2,0-0.3c-0.2-0.5-0.6-0.7-1.1-0.6l-6.7,2.2l-0.2-0.4l0,0v-0.1c0,0,0-0.1-0.1-0.1
						v-0.1l-0.1-0.1h-0.1h-0.1h-0.1l0,0h-0.1h-0.2h-0.1l0,0c0,0,0,0-0.1,0h-0.1c-1.1,0.5-27.5,12.9-31.8,18.5
						c-4.6,5.9-8.9,27.1-7,69c0,0.5,0.4,0.8,0.9,0.8l0,0c0.5,0,0.9-0.4,0.8-0.9l0,0c-1.8-41.4,2.4-62.4,6.7-67.8
						c3.5-4.8,25.7-15.6,30.3-17.7c1.7,3.7,8.5,20.5,11,44c2.7,25.6,2.5,41.3,2.5,41.4c0,0.5,0.4,0.9,0.8,0.9l0,0l0,0
						c0.5,0,0.9-0.4,0.9-0.9c0-0.1,0.2-16-2.5-41.6c-1.5-14.9-5.1-29.5-10.6-43.3l6.1-2c2.1,2.3,11.5,12.1,22.2,15.8H57
						c-0.7,0.4-1.3,0.7-2,1c-0.3,0.1-0.4,0.4-0.4,0.6l0.5,7.9c0,0.3,0.3,0.6,0.7,0.6l0,0c0.4,0,0.6-0.3,0.6-0.7L56,117
						c9-4.2,17.7-15,19.4-17.2l5.6,1.8c0.7,2.9,7.3,34.3,1.1,86.4c-0.1,0.5,0.2,0.9,0.7,1l0,0H83c0.4,0,0.8-0.3,0.9-0.8
						c5.6-47.1,0.7-77.5-0.8-85.2c0.1,0.1,0.3,0.2,0.4,0.3c0.2,0,20.7,5.5,27.3,11.8c11.4,10.9,10.4,47.1,10,64.6
						c-0.1,3.9-0.2,6.9-0.1,8.6c0,0.5,0.4,0.8,0.9,0.8l0,0c0.5,0,0.9-0.4,0.8-0.9l0,0c-0.1-1.6,0-4.6,0.1-8.4
						C123,161.9,123.9,125.2,112,113.8z M27.6,89.8c-5.9-4.6-8.9-12.9-8.8-24.7c0.1-8.4,1.7-18.3,4.8-29.5
						c2.4-8.6,7.2-14.8,14.3-18.3c3.1-1.6,6.5-2.5,10-2.6H48h0.1l0,0c0.2-0.1,15.7-5.2,27.3,5.5c5.1,4.7,9.4,14.7,11.7,27.4
						C89,58,89.2,69.2,87.6,73.9c-3.9,11.7-11.7,20.4-16.5,21c-2-5-1.6-12.3-1.5-12.9c3.4-2.8,5.9-6.5,7.4-10.6
						c2.4-7.2,1.6-17.7,1.6-18.1c0-0.1,0-0.2-0.1-0.3c0.4,0.1,0.9,0.2,1.3,0.3s0.7-0.1,0.8-0.5c0.1-0.4-0.1-0.7-0.5-0.8
						c-18-4.1-29.8-29.2-29.9-29.4s-0.3-0.3-0.5-0.4c-0.2,0-0.4,0-0.6,0.2c-0.7,0.7-17,16.9-18,29.3c-0.3,4.1,0,8.3,1,12.3
						c-1,0.9-3.8,1.7-5.5,2c-0.4,0.1-0.6,0.4-0.5,0.8c0.1,0.3,0.3,0.5,0.6,0.5h0.1c0.2,0,0.9-0.2,1.9-0.4c0.5,2.1,1.3,3.5,2.7,4.2
						c0.5,0.2,1.1,0.4,1.7,0.4c0.5,0,1-0.1,1.4-0.2c0.5,1.2,1,2.4,1.7,3.5c0.5,0.8,1,1.6,1.6,2.4v0.1c0.4,5.8,0.2,11.7-0.7,17.4
						C33.8,93.7,28.1,90.2,27.6,89.8z M39.6,77.1c0-0.4-0.3-0.7-0.7-0.8c-0.6-0.7-1.1-1.5-1.5-2.2c-0.1-0.1-5.8-10.4-4.9-22.3
						C33.3,41.1,46.3,27.1,49.4,24c3.4,6.8,7.8,13.1,13,18.6c-0.5,0.1-1,0.3-1.5,0.6c-0.3,0.2-0.4,0.5-0.2,0.8
						c0.1,0.2,0.3,0.3,0.5,0.3c0.9-0.1,1.9-0.1,2.8,0c3.8,3.8,8.4,6.7,13.5,8.5c-0.2,0.1-0.4,0.4-0.4,0.6c0,0.1,0.8,10.7-1.5,17.6
						c-1.4,3.9-3.8,7.4-7,10c-0.4,0-0.8,0.3-0.9,0.7c-3.2,2.5-7.1,3.9-11.1,4h-0.1C48.1,85.6,42.4,80.6,39.6,77.1L39.6,77.1z
						 M34.1,70c-0.7,0.2-1.4,0.2-2-0.1c-0.9-0.5-1.6-1.6-2-3.3c0,0,0,0,0-0.1c0.9-0.3,1.7-0.7,2.5-1.1C33.1,67.1,33.6,68.7,34.1,70z
						 M57.7,114.7L57.7,114.7c0.1-0.4-0.1-0.8-0.4-0.9c-8.5-2.9-16.3-9.9-19.9-13.6c0.1-0.1,0.2-0.2,0.2-0.3c0.4-1.1,0.7-2.3,1-3.5
						c0.1-0.1,0.2-0.3,0.2-0.5c0-0.1,0-0.3,0-0.4c0.9-5.3,1.2-10.8,0.9-16.2c4.3,4.8,10.5,7.6,16.9,7.6h0.2c4-0.1,7.8-1.4,11-3.7
						c-0.1,3.9,0.2,13.9,5.5,17l0,0C70.7,103.6,64.4,110.7,57.7,114.7z"/>
					<path class="st2" d="M106.5,142.2c-0.3,0.1-0.5,0.5-0.4,0.9c0.1,0.2,7,18.4,0,30.7c-5.6,9.8-5.5,15.5-5.5,15.7
						c0,0.4,0.3,0.6,0.7,0.6l0,0c0.4,0,0.7-0.3,0.7-0.7c0-0.1,0-5.7,5.4-15.1c7.3-12.8,0.3-31,0-31.8
						C107.1,142.4,106.8,142.2,106.5,142.2z"/>
					<path class="st2" d="M10.5,144.8c0.1-0.3-0.1-0.7-0.4-0.8c-0.3-0.1-0.7,0.1-0.8,0.4c0,0.2-5.2,16.9,4.8,39.7
						c0.1,0.2,0.3,0.4,0.6,0.4c0.1,0,0.2,0,0.3-0.1c0.3-0.1,0.5-0.5,0.3-0.9C5.5,161.4,10.4,144.9,10.5,144.8z"/>
				</g>
			</g>
		</g>
	</g>
</g>
</svg>
