<svg xmlns="http://www.w3.org/2000/svg" viewBox="0 0 675.45 988.97"><defs><style>.cls-1{fill:#fcd923;}.cls-2{fill:#d3d5d5;}.cls-3{fill:#1d252d;}.cls-4{fill:#32b0ff;}.cls-5{fill:#983c25;}.cls-6{fill:#f2f3f3;}.cls-7{fill:#38434c;}.cls-8{fill:#231f20;}.cls-9{fill:#ff0079;}.cls-10{fill:#fffc19;}.cls-11{fill:#00ff6c;}</style></defs><g id="レイヤー_2" data-name="レイヤー 2"><g id="line"><path class="cls-1" d="M431.81,568.54l-2.24-34.25-59.48-8.12L325.66,137.49l-98.22-16.68v-15.6l-36.3-6.29-5.69-38.4-5.09-6.44-25.51-3.86L145.26,6.11s-12-12-27.29-1.95l-6.67,7.9,11.43,77-9.3,1-12.5,9.15L21.88,85.65,2.12,98.92,45.5,506,19.42,516.44v19.07l86.11,10.32,3.4,114.8L65.12,976.54l25.09,10.21,10.61-4.91L121.4,841.07l27.4,7.77L161,839.93l-2-46.21L342.46,838l15.76,62.32L386,906.92l12.64-7.54-77.8-318.22,84.6,13.17ZM157.24,756,151.8,636.92,163,556.61l29.83,4.65L223.9,770.2Zm176,42.45-71.09-17.21L230,567l48.33,7.26Z"/><path class="cls-2" d="M163.72,120.81l3.26,22h11.77s5.27,1.6,7.81,2.12l11.63,2.4s7.22,4,11.49,5.28S226,154.83,226,154.83l4.59-2.26,13,2.26s2.92,5.2,7.6,4.91,16.09.29,16.09.29l15.11,2.39s2.73,5.39,6.53,4.57a19.45,19.45,0,0,0,6.22-2.42l6.76,70.1s5.3,23.08,4.5,25-3.43,8.32-2.56,12.12,4.68,14.05,4.68,14.05l5.05,33s-4.56,1.82-3.2,5.33,2.92,9.31,2.92,9.31l1,15.32s-5.79.91-2.14,7.3,3.76,9.69,3.7,12.42-2.32,7.56-2.32,7.56-8.21,1.31-7.07,3.22,7.83,3.67,7.83,3.67,6.77,5.26,6.77,6.13,1.27,22.75,1.27,22.75-1.14,8.38-1,9.14,3.81,6.14,4.1,7.31,2.23,14.17,2.23,14.17-4,11.57-3.11,13.91,4.39,5,4.39,5,.38,11.94,1.65,14.6,3.32,17.87,3,19.33-2.63,11.36-1.76,14.89,4.09,13.2,5.41,17,0,19.3,0,19.3-6.2-3.61-6.76-3.76-7.09,1.37-7.09,1.37l-4.94,1-5.25-2.33,4.57,19.14,39.08,5.93,15.35-14L325.66,137.49,219.73,119.41,206.51,128Z"/><path class="cls-2" d="M129.55,135.74c0-.83-12.14,1.73-12.79,1.73s-3.7-2.6-3.7-2.6l-25-4.52-6.28-2.54L69,124.44H62.7a47,47,0,0,1-9.27,3.37c-4.47,1-5.34-1.42-6.43-1.85s-9.57-4.69-9.57-4.69l-2.75,1.53s2.2,6.71,2.26,7.65a48.31,48.31,0,0,1-1.26,6s-2.45,6.93-1,12.15,3.63,9.56,4.06,14.78-1.41,14.2.17,24.37S44,220.27,44,220.27s7.6,48.47,7.82,50,1.74,13.25,1.3,18.25-3.86,11.31-3.86,11.31-6.2,13-6.38,17.81,3.79,9,7.13,12.54a42.36,42.36,0,0,1,8.34,13.41A26.31,26.31,0,0,1,59.6,354c0,1.48-3.2,21.47-2.58,26.25s4.76,13.91,6.06,16.08.86,3.91.32,5.87-4.5,4.68-5.24,5.38,2.06,8.66,2.06,8.66,6.33,17.78,7.09,25.56,0,41.46-.16,43.63,1.8,5.65,3.32,6.74,3.48,2.39,3.91,3.91,2.22,4.76,2,5,12.14-1.93,14.75-1.06a10.87,10.87,0,0,1,4.38,3l7.13,2.41,1.14,24.17L48.3,519.09,2.12,98.92,21.88,85.65l79.05,13.48-5.78,4.61.38,6.13,31.16,5.8Z"/><polygon class="cls-2" points="167.58 517.39 165.75 537.84 190.04 542.24 186.8 518.84 177.34 519.67 167.58 517.39"/><polygon class="cls-2" points="223.9 523.49 228.03 548.79 273.52 554.67 267.97 534.25 250.57 532.61 237.27 528.81 223.9 523.49"/><path class="cls-3" d="M493.6,443s-54,12.54-81.84,28.53-44.67,28.4-44.67,28.4l3,26.27,59.48,8.12.57,8.72s43-9.6,49.74-11.45,54.26-19,56-18.22,9.32,1.39,9.82,8.39-.86,129.21-2.87,132.11-5.17,17.32-5.17,17.32-9.68,16.66-11,19.73-7.49,21.68-7.49,21.68l-6,6.33-6.88,23.71s6,21.72,25.25,23.65c0,0,14.08,2,17.26-2s12.76-17.91,12.76-17.91l1.23-7.39,5.45-6.8,8-3.91L595.23,691S625,583.31,625.78,569.53,630,505.81,630,500.9L612.25,449H518Z"/><path class="cls-4" d="M493.6,240.94s-8,4.83-9.75,5.45-11-2.45-14.2-.31S458,257.79,458,257.79s-9.58,10.28-10.91,14.46-6.28,14.1-6.28,14.1l-7.18,16.39s13.39-4.78,19.92.87,14.8,19.14,15.72,27,1.92,15.43,1.92,15.43l5.37-3.73s-.61,11.8,2.26,16.4S496.89,379.5,499.14,382s8.39,9.93,8.95,16.78-3.48,27.84-5.7,33.23c0,0-10.59,6.69-8.79,11l14.54,3.37,12.57,1.91S546.58,428.1,559,422.74s57.2-22.9,57.2-22.9l5.56-53.76-9.48-20.75s3.14-17.86,9-22.59,8-7.41,13.17-7.64S649.73,297,649.73,297s-9.86-21.64-14.08-29-18-22-18-22-3-9.65-5.37-10.05a51.43,51.43,0,0,0-8.15,0l-13.91-3.38s-15.55,12.77-20.84,21-12.4,22.58-22,29.25-24.26,17.79-42.38,12.71-14.87-25.05-14.87-25.05l6.22-27.35Z"/><path class="cls-3" d="M429.57,572.5l.58,7.8s-5.45,11.55-7.83,14-25.82,9.91-25.82,9.91l-16.28-11.75,25.26,1.84Z"/><path class="cls-2" d="M431.94,560.25l21.95,14-4.83,22.26-9.86,8.33-7.26,9.54-22.88,7.92L387.9,607.05s1.36-9.06,1.55-8.69,9.23,5.88,9.23,5.88l23.64-9.91,7.83-14-.58-7.8,2.24-4Z"/><path class="cls-2" d="M516.32,714.52s-2.64,16.36.83,20.26,13,10.83,19.45,11.47,25,.06,25,.06-13.54,18.73-14.2,19-17.43,5.79-28.51-4.06-12.69-20.46-12.69-20.46l7.88-23.66Z"/><path class="cls-5" d="M396.22,137.9s-11.18,10-11.1,24.61,2,24.11,6.17,25.2,8.58.28,11.14,0,3.87-7.21,3.87-7.21h8.44s9.72-2.23,10.91-4.2,8-6.58,8-9.31-3.44-17.94-4.87-24.5c0,0,2.55-3.64,4.89-3.4s6.19,2.39,11.79,1.33,5.43-2.34,12.58,0,15.59,11.93,18.89,12.15a28.35,28.35,0,0,1,6.13,1.14l1-4.13,17.15,4.13a32.23,32.23,0,0,1-.49,16.77s5.87,15.26,12.08,17.78l6.22,2.53,37.78,37.84s-3.39,13-10.13,15.31c0,0,12.89,9.05,29.29-7.09,0,0,5.95-1.56,6.59-6.8s2.66-14.29-4.34-22.86S563.42,194,555.13,189.51,531.27,167,531.27,167l-4.86-9a11.24,11.24,0,0,0,2.38-8.86c-.72-5.64-4.54-12-4.54-12s7-22.53-21-34.66S437.5,92,419.65,101.89,395.21,123.46,396.22,137.9Z"/><path class="cls-6" d="M406.3,180.5s5.53,13.79,11.52,17.3,6.79,2.37,9,6.49,7.86,15.31,17.63,19.88,30.66,11.82,35.7,9.76,8.46-3.88,8.46-3.88l8.54,6.8s-5.52,17.92-5.84,23.73-8.72,40.11,27.22,37.07c0,0,20.76-4,30.88-16.34s15.66-22.65,18.56-25.44,22.21-23.22,22.21-23.22l-7.66-2.6s-10.42,15.32-15.83,16a88.31,88.31,0,0,1-13.89.11l-4.43-1.31s11.09-11.73,11.3-16.25c0,0-5.92-3.47-6.87-3.65s-30.39-31.57-32.1-32.88-9.32-3.77-14.64-10.83-5.37-10.79-5.37-10.79a32.73,32.73,0,0,0,2-9.36,31.17,31.17,0,0,0-1.18-10.22L484,149.58l-1,4.13s-4.27.39-10.2-4.65-8.38-11.27-24.43-11.47-18.12-3-20.49,0,3,8,4,15,3.38,12.93,1.74,16.32-7.29,3.47-7.64,5.44-3.28-.13-5.09,2-3.19,6.3-6.17,4.2S406.84,178.32,406.3,180.5Z"/><path class="cls-7" d="M525,131.13s5.58-9.06,8-7.1-.11,5.75,2.54,8.6,8.81.57,11,4.23,2.91,4.13.81,8-5.43,3.07-4.09,6.11,3.45,1.2,2.42,6,1.87,4.24-2.92,5.59-13.37.92-13.37.92L526.41,158s3.69-5.84,2.05-11.89-4.21-9-4.21-9Z"/><path class="cls-1" d="M336.54,232.65s33.28-12.49,68.47-14.11v4.86S357,239.63,338.52,241.2Z"/><path class="cls-6" d="M433.64,302.74,405,358.39s-31.45-29.68-34.18-32.71-27.76-33-27.76-33l7,57.48s38.4,53.94,40,55.41,11.89,9.42,19.06,6.29,26.41-24.93,26.41-24.93l34.18-46.44s-2.25-18.79-4.74-25.09-10-12.15-13.68-13.22S433.64,302.74,433.64,302.74Z"/><path class="cls-6" d="M612.25,325.33l19,41.49S625.64,380,625.39,381s-3.66,16-3.66,16,24.41-2.15,25.86-2,13.82,0,13.82,0S670,376,668,366.82,649.73,297,649.73,297a24.66,24.66,0,0,0-22,1C616.13,304.48,612.25,325.33,612.25,325.33Z"/><path class="cls-2" d="M570.77,465.18s-16.64,10.67-24.43,13.18-37.64,3-33-13.18,16.58-27,41.51-39.57,48.25-25.07,76.36-29.42,37.66,3.34,39.78,10.27.42,27-2.7,39.39-20,39-26.15,44.66-17.29,17.22-33.62,20.15-26.81,2.68-28.72-4c-3.11-10.87-2.57-17.75-2.57-17.75Z"/><path class="cls-6" d="M599.74,469.74a62.13,62.13,0,0,0-9.74,4.08c-.64-3-1.19-5.79-1.19-5.79s3.5-2,3-5.33a61.23,61.23,0,0,0-3-9.24s-10.87-3.94-13.88,1.3l-3.42,9.3s-2.6,7.39-2.32,11.77.41,6.71,1.78,9.17,5.1,6.6,5.68,5.25a3.39,3.39,0,0,1,1-.9c.81.68,2.09,1,4.1.85,5.07-.48,18.61-6.16,18.61-6.16a14.16,14.16,0,0,0,8.12-1.27c3.64-2,6.24-7.35,6.24-7.35S611.27,466.12,599.74,469.74Z"/><path class="cls-1" d="M558.05,449.2s-5.73,3.25-7.95,3.77-5.25-1.44-8.42.72-4.08,5-6.29,7-4.67,1.87-6.63,5.56-3.53,8.36.64,8.5S541,476,545,472.64s6.52-6.77,10.68-9.9,6.64-3.65,8.47-6.51,3.25-3.91,1-5.73A6.93,6.93,0,0,0,558.05,449.2Z"/><path class="cls-6" d="M634.46,429.54l0,4.1s-6.29,5.9-6.35,6.61,8.47.79,15-2,9.61-3.2,11.15-6.29,2.48-3.56,1.77-5.92,1.89-2.91-2.6-3.34a25.71,25.71,0,0,0-11.24,1.82C640.34,425.37,634.71,428.42,634.46,429.54Z"/><path class="cls-7" d="M627,415s7.89-1.65,9.85,0,3,5.56,6.28,4.67,7.72-3.25,12.45-6.56,5.67-6.61,5.67-6.61a5,5,0,0,0-4.69-5.77c-5.47-.61-13.27-2.5-20.12,1.51s-10.62,6.62-11.33,8.51S627,415,627,415Z"/><path class="cls-2" d="M645.86,445.45a7.53,7.53,0,0,1,0,6.59,33.73,33.73,0,0,1-5.6,7.15s-.07,3.74-1.72,5.16-6.14,5.35-6.14,5.35l-10.33-7.84s-3.16-1.82,2.64-9.82A16.79,16.79,0,0,1,639.25,445S643.74,443.56,645.86,445.45Z"/><path class="cls-6" d="M452.86,582.89l43.19,34.22L528.9,632.2s4.25,7.36,0,14.5-14.27,13.79-16.66,19.1-8.48,24.1-10.79,28.46S483.08,707.71,482,708.52s-6.64,8.65-6.64,8.65-1.29,7.12-4.69,9.6-7.58,4-9.54,2.46-7-11.07-6.53-12.06,1.34-8.14,1.34-8.14a30.66,30.66,0,0,1-1.34-6.7c0-2.55,19.55-23.51,19.55-23.51s8.84-27.32,8.95-32.17-2.43-6.57-2.43-6.57L423.14,619.5l11.32-6.35,4.74-8.29,9.86-8.33Z"/><path class="cls-6" d="M505.07,745.32l-16.15,31.57s-10.32,5.89-13.22,11.71S469,805,469,805s-30.32,54.83-31.32,60.26,1.6,16.9,1.6,16.9,4,12.16,4.8,13.42,7.17,4.29,9.77,3.55,10.69,0,10.69,0,8.19,0,9.65-.73,3.86-2.3,4.89-1.76,5.78.73,7.12-.82,7.58-2.17,8.51-3.51l2.71-3.93s3.84-1.25,4.7-3.67-.42-7.08-.42-7.08-6.44-18-6.44-18.74,1.24-31.42,1.24-31.42,13.49-27.52,14-28.25S536,767.14,536,767.14s-16.05-3.38-21.83-8.92A47.21,47.21,0,0,1,505.07,745.32Z"/><path class="cls-1" d="M627.37,572.5l-8.53,31.74,3.39,24-9.29-3.17-8.33,32.5,20.5-9.89,16,122.25-56.48-6.16-.62-53L575.09,725l1.25,3.26-4.75,3v30l-19.09-1.67-5.06,5.73L536,767.14v31.34l-23.46-2.12s-5.55,4.72-6.16,12L536,813.75l.78,8.4s15.06-.76,15.07-2.75,0-3.5,0-3.5l19.73,3.49L574.5,879s3,4.88,5.59,3.24,5.83-6.91,5.83-6.91l-1.27-55.9,59-31.92L650.59,829a8.79,8.79,0,0,0,8.39.24c4.42-2.32,4.42-3.87,4.42-3.87ZM572.69,805.8,552,803.28V770.12l20.65,3.76Zm12.4-2.52L584.88,775l43.52,6.08Z"/><path class="cls-1" d="M462.93,729.84l-18.57,121L469,805l13-96.52-6.64,8.65S476.29,729.6,462.93,729.84Z"/><path class="cls-1" d="M477.72,640.8l-6.47,37.84,6.47-8.06,5.37-23.93A9.27,9.27,0,0,0,477.72,640.8Z"/><path class="cls-1" d="M494.65,531.36l-11.56,75.48,13,10.27,12.61-82.17,29,3.1.38,90.86-9.17,3.3,1.65,10.1,12.31-2.22,3.69-102.66s3.35-7-.82-15.69-9.82-8.39-9.82-8.39L489.58,528Z"/><polygon class="cls-1" points="524.49 654.03 540.84 657.5 537.69 671.15 512.24 665.8 516.93 659.82 524.49 654.03"/><path class="cls-8" d="M274.07,553.11l-40.73-6.55-5.78-.93c-2.68-.43-3.56,3.72-.86,4.15l40.73,6.54,5.78.93c2.69.43,3.56-3.71.86-4.14Z"/><path class="cls-8" d="M217.09,121.11l36.62,6.25,58.09,9.92,13.43,2.29-1.68-2q.61,5.55,1.25,11.11l3.42,30.44q2.52,22.41,5,44.83l6.15,54.68q3.38,30.07,6.77,60.16,3.39,30.24,6.8,60.48,3.18,28.19,6.35,56.39l5.38,47.86,3.85,34.26c.41,3.56.81,7.11,1.21,10.67a49.77,49.77,0,0,0,.62,5.59,4.06,4.06,0,0,1,.08.7l.54-1.52-15.64,13.86,2-.65-40.75-6.55c-2.68-.43-3.56,3.72-.86,4.15l24.79,4,13.88,2.23a13.47,13.47,0,0,0,2.35.35c1.45,0,2.59-1.43,3.62-2.35l11.88-10.52c1.17-1,2.41-1.78,2.39-3.47,0-1.89-.43-3.86-.64-5.74q-1.76-15.51-3.49-31-2.88-25.54-5.75-51.1-3.62-32.15-7.24-64.29-3.93-34.92-7.85-69.83-3.85-34.23-7.7-68.45L335.26,204q-2.47-22.11-5-44.22c-.8-7.14-1.56-14.28-2.41-21.4,0-.32-.07-.63-.1-1a2.18,2.18,0,0,0-1.69-2l-36.62-6.25-58.09-9.92L218,117c-2.68-.46-3.56,3.69-.86,4.15Z"/><path class="cls-8" d="M101.36,97.06l-40.83-7-27.4-4.67L24.75,84c-1.33-.23-2.8-.72-4.06-.09-3.59,1.79-6.94,4.66-10.27,6.89L1,97.14A2.11,2.11,0,0,0,0,99q.6,5.63,1.21,11.24l3.3,30.57Q7,163.45,9.39,186.05q3,27.58,5.95,55.17,3.26,30.21,6.52,60.42,3.27,30.36,6.55,60.72l6.13,56.88q2.6,24,5.18,48.07,1.88,17.29,3.73,34.57c.59,5.46,1.11,10.93,1.77,16.38,0,.23.05.47.07.7a2.16,2.16,0,0,0,1.69,2L97.13,529l7.18,1.15c2.68.43,3.56-3.71.86-4.14L55,517.93l-7.17-1.15,1.68,2q-.6-5.62-1.21-11.23L45,476.93q-2.43-22.6-4.87-45.21-3-27.59-6-55.17-3.25-30.21-6.52-60.42l-6.54-60.72L15,198.53q-2.6-24-5.18-48.07L6.08,115.89,4.92,105.13a50.28,50.28,0,0,0-.61-5.62,5.35,5.35,0,0,1-.07-.7l-1,1.9L23,87.43l-1.57.29L90.76,99.54l9.74,1.67c2.68.45,3.56-3.69.86-4.15Z"/><path class="cls-8" d="M165.33,539.91l21.43,3.45a20.9,20.9,0,0,0,3.33.49c2.73,0,2.49-4.23-.23-4.23.95,0,.25,0-.14-.06l-1.72-.28-5.72-.92-13.09-2.11-3-.48c-2.68-.43-3.55,3.71-.85,4.14Z"/><path class="cls-8" d="M358,568.51l-1.36-11.16Q354.82,542.17,353,527q-2.7-22.36-5.42-44.73-3.3-27.27-6.61-54.55l-7.27-60-7.33-60.54q-3.42-28.12-6.82-56.25-2.89-23.85-5.78-47.71-2.08-17.13-4.16-34.28c-.65-5.4-1.29-10.79-2-16.18l-.09-.7a1,1,0,0,0-.78-1l-48-8.39L182.45,129.4,165,126.35c-1.29-.22-1.9,1.73-.55,2l48,8.4L288.73,150l17.48,3.05-.79-1,1.36,11.16q1.83,15.18,3.68,30.37,2.71,22.36,5.42,44.73,3.3,27.27,6.61,54.55l7.27,60,7.34,60.53,6.81,56.25,5.79,47.71q2.07,17.15,4.15,34.29c.66,5.39,1.3,10.78,2,16.18l.09.69c.15,1.3,2.26,1.23,2.11,0Z"/><path class="cls-8" d="M127.73,119.83l-12.47-2.18-29.95-5.23-36.23-6.33-31.3-5.47c-5-.87-10.09-2-15.16-2.64l-.22,0c-1.29-.23-1.9,1.73-.55,2l12.47,2.18,30,5.23,36.23,6.33,31.3,5.47c5,.88,10.09,2,15.17,2.65a1.52,1.52,0,0,1,.21,0c1.29.23,1.9-1.72.55-2Z"/><path class="cls-8" d="M188.32,527.88l-17.89-3-2.58-.44c-1.29-.21-1.9,1.74-.55,2l17.89,3,2.58.44c1.29.21,1.9-1.74.55-2Z"/><path class="cls-8" d="M104.42,513.82l-37.74-6.33-5.57-.93.78,1-1.8-17q-2.15-20.38-4.3-40.77-2.59-24.52-5.18-49-2.25-21.32-4.51-42.62c-.72-6.9-1.39-13.8-2.18-20.68l0-.28c-.14-1.31-2.24-1.24-2.11,0q.9,8.51,1.79,17,2.16,20.38,4.31,40.78,2.59,24.51,5.18,49l4.5,42.62c.73,6.89,1.4,13.79,2.19,20.68l0,.28a1,1,0,0,0,.78,1q18.84,3.14,37.67,6.31l5.64.95c1.29.21,1.9-1.74.55-2Z"/><path class="cls-8" d="M270.87,541.71l-15.37-2.58-24.35-4.08-5.63-.94c-1.29-.22-1.9,1.73-.55,2l15.37,2.58,24.35,4.08,5.63.94c1.29.22,1.9-1.74.55-2Z"/><path class="cls-8" d="M319.57,377.66q1.06,8.86,2.14,17.71,2.57,21.13,5.12,42.25,3.09,25.53,6.19,51.06L338.39,533q.87,7.23,1.75,14.45l.55,4.59a15.12,15.12,0,0,0,.29,2.34,2.77,2.77,0,0,1,0,.3l1.33-1c-8.39-1.35-16.77-2.8-25.15-4.21l-3.7-.62c-1.29-.21-1.9,1.74-.55,2l25.2,4.22c1.22.2,2.43.41,3.65.6.57.1,1.42-.29,1.33-1q-1.06-8.86-2.14-17.71-2.57-21.12-5.12-42.25-3.09-25.53-6.19-51.06l-5.37-44.34c-.86-7.12-1.69-14.26-2.59-21.38l0-.3c-.16-1.3-2.27-1.22-2.11.05Z"/><path class="cls-8" d="M316.73,354.28c.36,3,.73,6,1.09,9l.27,2.21a1,1,0,0,0,1.05,1c.5,0,1.13-.47,1.06-1-.36-2.94-.71-5.88-1.07-8.81-.1-.8-.19-1.6-.29-2.4a1,1,0,0,0-1-1c-.5,0-1.13.48-1.06,1Z"/><path class="cls-8" d="M317.72,345c-.2-1.61-.39-3.23-.59-4.84L315.54,327l-2.37-19.49-2.88-23.78-3.15-26.06q-1.59-13.16-3.19-26.3l-3-24.54q-1.26-10.36-2.51-20.74-.9-7.47-1.81-14.93c-.29-2.37-.56-4.74-.86-7.11,0-.1,0-.2,0-.3a1,1,0,0,0-.78-.95l-21.4-3.75-30.91-5.4-3-.53-4.39-.77-1.19-.21-.37,0c.44.07.29,0,.19,0-3.61-.61-7.21-1.26-10.82-1.89-9.26-1.62-18.53-3.26-27.8-4.86-8.49-1.45-17-3-25.44-4.44l-2.78-.49c-1.29-.23-1.9,1.73-.55,2l26.59,4.66,25.21,4.39,13.92,2.43,1.12.2h.06l.12,0,1.29.22,6.47,1.14q14,2.47,28.05,4.91l23.49,4.1,1.59.28-.78-1c.2,1.62.39,3.23.59,4.85q.79,6.59,1.6,13.17l2.36,19.49,2.88,23.79,3.15,26q1.61,13.16,3.19,26.31l3,24.53q1.26,10.38,2.51,20.75.92,7.46,1.81,14.93c.29,2.36.57,4.73.86,7.1,0,.1,0,.2,0,.3.16,1.3,2.26,1.23,2.11-.05Z"/><path class="cls-8" d="M41.05,310.44c-.16-1.76-.36-3.52-.55-5.27L39,291.1q-1.09-10.46-2.2-20.9-1.35-12.78-2.71-25.56l-2.94-27.9q-1.5-14.16-3-28.32-1.41-13.2-2.8-26.42Q24.2,150.84,23,139.66q-.84-8-1.69-16.07c-.18-1.66-.36-3.32-.53-5a21.13,21.13,0,0,0-.28-2.63c0-.1,0-.22,0-.33l-1.33,1,18.48,3.23,27.51,4.81,12.68,2.21,30.24,5.28c7,1.22,13.9,2.53,20.87,3.65l.35.06c1.29.23,1.9-1.72.55-2l-17.44-3.05-30.94-5.41-14-2.43-26.73-4.68-19.88-3.47-1.19-.2c-.57-.11-1.4.29-1.32,1,.18,1.74.36,3.48.55,5.22l1.5,14.21,2.22,21Q24,169,25.35,181.76q1.47,14,2.95,27.92,1.48,14.16,3,28.3,1.4,13.19,2.78,26.37,1.18,11.11,2.35,22.24.84,8,1.69,15.94c.26,2.48.51,5,.78,7.44,0,.17,0,.35,0,.52.12,1.31,2.23,1.23,2.11-.05Z"/><path class="cls-8" d="M77.19,501.21l-1.8-17q-2.15-20.28-4.28-40.57l-5.19-49q-2.25-21.25-4.49-42.51c-.73-6.87-1.4-13.75-2.18-20.62l0-.29c-.14-1.3-2.25-1.23-2.11,0l1.8,17,4.29,40.58q2.58,24.51,5.18,49,2.25,21.25,4.49,42.5c.73,6.88,1.4,13.76,2.18,20.63l0,.28c.14,1.31,2.25,1.23,2.11-.05Z"/><path class="cls-8" d="M56.38,304.4c-.17-1.65-.35-3.31-.52-5q-.72-6.76-1.43-13.53-1.07-10-2.12-20l-2.58-24.42-2.82-26.74q-1.44-13.5-2.86-27-1.32-12.59-2.66-25.17Q40.28,152,39.16,141.39l-1.62-15.32c-.26-2.42-.5-4.85-.77-7.27,0-.11,0-.21,0-.32-.13-1.31-2.24-1.23-2.11,0l.53,5q.72,6.76,1.43,13.53,1.06,10,2.11,20l2.58,24.42q1.42,13.36,2.83,26.74l2.85,27q1.34,12.59,2.66,25.17,1.13,10.59,2.24,21.17l1.62,15.32c.26,2.43.49,4.85.77,7.28l0,.31c.14,1.31,2.25,1.24,2.11-.05Z"/><path class="cls-8" d="M219.59,332.47,198,328.66l-3.11-.55c-1.29-.23-1.9,1.73-.55,2l21.55,3.81,3.11.55c1.29.22,1.9-1.73.55-2Z"/><path class="cls-8" d="M313.76,349.13c-5.6-1.24-11.34-2-17-3L269,341.21l-6.54-1.16c-1.29-.23-1.89,1.73-.55,2l17.71,3.13L306.88,350c2.11.37,4.25.66,6.33,1.13,1.29.28,1.89-1.67.55-2Z"/><path class="cls-8" d="M157.69,321.51l-17-3-2.46-.43c-1.29-.23-1.9,1.72-.55,2l17,3,2.46.44c1.29.23,1.9-1.73.55-2Z"/><path class="cls-8" d="M95.42,310.5,75.64,307l-13.72-2.42a61.94,61.94,0,0,0-6.32-1.12,4.23,4.23,0,0,0-1.78.48l-3.46,1.31-5.43,2.05c-1.26.48-.72,2.42.55,1.94l4.45-1.69,3.3-1.25a10.28,10.28,0,0,0,2.19-.82c.32-.23-.66-.18-.15,0a8.21,8.21,0,0,0,1,.18l4.07.72,27,4.78,7.54,1.33c1.28.23,1.89-1.72.54-2Z"/><path class="cls-8" d="M40.13,309.18a1,1,0,0,0-.35.06l-.08,0-.26.12a.77.77,0,0,0-.3.27.61.61,0,0,0-.13.22.85.85,0,0,0-.09.38l0,.27.11.25a.66.66,0,0,0,.28.27.68.68,0,0,0,.35.17l.11,0a.81.81,0,0,0,.41,0,.94.94,0,0,0,.4-.13.89.89,0,0,0,.3-.28.75.75,0,0,0,.18-.34l0-.26a1,1,0,0,0-.15-.52l-.17-.2a1,1,0,0,0-.46-.24l-.11,0v1.95l.13-.05-.28.05h0a.8.8,0,0,0,.41-.1.82.82,0,0,0,.35-.23.72.72,0,0,0,.21-.33.69.69,0,0,0,.09-.38l0-.26a.89.89,0,0,0-.28-.45l-.21-.15a1,1,0,0,0-.52-.12Z"/><rect class="cls-8" x="211.29" y="344.58" width="2.12" height="27.82" transform="translate(-177.66 505.12) rotate(-79.96)"/><rect class="cls-8" x="289.19" y="350.57" width="2.12" height="43.41" transform="translate(-126.87 593.26) rotate(-79.97)"/><polygon class="cls-8" points="252.71 365.82 252.71 365.8 254.82 365.8 252.71 365.82"/><rect class="cls-8" x="149.19" y="336.14" width="2.12" height="22.68" transform="translate(-218.12 434.78) rotate(-79.95)"/><rect class="cls-8" x="71.83" y="309.98" width="2.12" height="47.62" transform="translate(-268.5 347.4) rotate(-79.96)"/><path class="cls-8" d="M61.12,508.51,74.51,503l1.9-.79a1.05,1.05,0,0,0,.74-1.26,1,1,0,0,0-1.29-.68l-13.39,5.53-1.91.79a1.07,1.07,0,0,0-.74,1.26,1,1,0,0,0,1.3.67Z"/><path class="cls-8" d="M3.92,101.46a102.31,102.31,0,0,0,15.77,15.78q2.16,1.73,4.41,3.32A16.12,16.12,0,0,0,28.28,123c1.66.55,3.27,0,4.93.33,2.08.37,1.78,2.65,1.49,4.24-.24,1.31,1.81,1.74,2,.47.54-2.92.24-6.33-3.38-6.72-1.93-.21-3.62.25-5.44-.71A39,39,0,0,1,23,117.17,99.68,99.68,0,0,1,5.73,100.38c-.79-1-2.64.05-1.81,1.08Z"/><path class="cls-8" d="M35.28,132.77a72.91,72.91,0,0,0-1.65,13.08c0,4.42,1.15,8.31,2.51,12.46,1.46,4.45,1.63,9,1.52,13.65s-.2,9.12.06,13.69a253.77,253.77,0,0,0,3.51,27.73q2.4,14.43,4.85,28.84,2.4,14.25,4.79,28.5c.79,4.68,1.83,9.42,1.78,14.18s-1.61,8.9-3.64,13c-3.44,7-8,14.44-6.43,22.59,1.5,7.66,9.32,11.52,12.75,18.14,2.5,4.81,2.94,9.88,2.37,15.14s-1,10.8-1.16,16.21a52.7,52.7,0,0,0,2.31,18.34c1,2.86,2.26,5.6,3.2,8.47.76,2.31,1.26,4.73-.93,6.37-1.61,1.2-3.49,2.08-4,4.21s.54,4.65,1.23,6.66c2.31,6.73,4.9,13.33,6.54,20.28,3,12.53,1.52,25.44,1.15,38.18-.14,4.77-.44,9.8.53,14.5a10.72,10.72,0,0,0,2.7,5,25.56,25.56,0,0,0,2.3,2.11c.75.68.71,1.2.78,2.21a4.72,4.72,0,0,0,.94,2.63c.48.64,1.69,1.33,1.93,2.08.36,1.15-2.16,2.35-3,2.81a23.13,23.13,0,0,1-6.15,2.29c-2.64.63-5.62,1-7.66,3-1.05,1-1.7,2.35-2.76,3.39a21.77,21.77,0,0,1-3.85,2.89,32.47,32.47,0,0,1-4.69,2.42c-1.24.51-.7,2.45.56,1.94,4.11-1.68,8.57-4.14,11.16-7.85,2-2.93,5.09-3.15,8.34-4s7.32-2.22,9.49-4.92c1.35-1.67.5-3-.8-4.34a3.79,3.79,0,0,1-1.42-2.61,5.22,5.22,0,0,0-.6-2.61,7.29,7.29,0,0,0-1.54-1.39,12.38,12.38,0,0,1-3-3.59,12.83,12.83,0,0,1-1-4.86c-1-11.95.84-24,.52-36a76.4,76.4,0,0,0-3.55-20.25c-1.08-3.54-2.34-7-3.6-10.5a52.36,52.36,0,0,1-2.36-7.21c-.6-3,1.49-3.62,3.44-5.18a5.61,5.61,0,0,0,2.07-5.5,31.14,31.14,0,0,0-2.45-7.43,53.28,53.28,0,0,1-3.18-10.77c-1.6-9.73.12-19.88,1-29.6a25.91,25.91,0,0,0-6.44-18.73c-2.52-2.89-5.71-5.3-7.63-8.68-2.28-4-1.91-8.79-.6-13.07,2.41-7.93,8.12-14.58,9.14-23,.55-4.51-.21-9-1-13.46l-2.43-14.44C48,240.7,44.4,221.54,41.6,202.3a167.12,167.12,0,0,1-1.87-29c.12-4.34.2-8.73-.8-13-1-4.47-3-8.45-3.17-13.14s.69-9.37,1.56-14c.25-1.31-1.8-1.74-2-.47Z"/><path class="cls-8" d="M24.21,130.37v3.95a1,1,0,0,0,1.05,1,1.08,1.08,0,0,0,1.06-1v-4a1,1,0,0,0-1.06-1,1.08,1.08,0,0,0-1.05,1Z"/><path class="cls-8" d="M29.25,178.42a13.7,13.7,0,0,0,.33,4.94,1,1,0,0,0,1.3.67,1.06,1.06,0,0,0,.74-1.26,10.8,10.8,0,0,1-.24-1.13c0-.07,0-.26,0-.08,0-.1,0-.21,0-.31s0-.38,0-.57a12.75,12.75,0,0,1,.07-2.31,1,1,0,0,0-.31-.71,1.08,1.08,0,0,0-.74-.27,1.1,1.1,0,0,0-1.06,1Z"/><path class="cls-8" d="M35.54,230.88a2.44,2.44,0,0,1,.14.28s.15.28,0,0c.08.16.14.34.21.51a9.49,9.49,0,0,1,.3,1c0,.18.07.36.1.53s0-.22,0,0l0,.31a9.91,9.91,0,0,1,0,1.09,1,1,0,0,0,1.05,1,1.09,1.09,0,0,0,1.06-1,9.68,9.68,0,0,0-1.12-4.86,1.08,1.08,0,0,0-1.45-.31,1,1,0,0,0-.37,1.39Z"/><path class="cls-8" d="M40.38,281.32A20.72,20.72,0,0,0,40.6,287a1,1,0,0,0,1.29.68,1.07,1.07,0,0,0,.74-1.26l-.06-.36c0-.05,0-.11,0-.16s0,.08,0,0,0-.45-.08-.67c0-.43-.07-.87-.08-1.3a21.27,21.27,0,0,1,.09-2.65,1,1,0,0,0-1-1,1.08,1.08,0,0,0-1,1Z"/><path class="cls-8" d="M41,304.37c-1,4-2.77,7.79-4.24,11.59a8.65,8.65,0,0,0-.78,5.26,18.49,18.49,0,0,0,2,5.12c.62,1.12,2.45.07,1.81-1.08a15.69,15.69,0,0,1-1.81-4.8c-.33-1.81.62-3.52,1.26-5.16A87.73,87.73,0,0,0,43,304.84c.32-1.3-1.73-1.72-2-.47Z"/><path class="cls-8" d="M38.14,336.85A16.31,16.31,0,0,0,44,338.27c1.44.07,3.33-.27,4.53.7a1.12,1.12,0,0,0,1.49-.05,1,1,0,0,0,0-1.43c-1.49-1.2-3.32-1.2-5.14-1.22a14,14,0,0,1-5.63-1.2,1.13,1.13,0,0,0-1.44.41,1,1,0,0,0,.39,1.37Z"/><path class="cls-8" d="M48.91,359.83v4.35a1,1,0,0,0,1.05,1,1.08,1.08,0,0,0,1.06-1v-4.35a1,1,0,0,0-1.05-1,1.09,1.09,0,0,0-1.06,1Z"/><path class="cls-8" d="M52.62,398.57a8.28,8.28,0,0,1,.16.84l0-.27a9.65,9.65,0,0,1,.06,2.15,1,1,0,0,0,.31.71,1.08,1.08,0,0,0,.74.27,1.1,1.1,0,0,0,1.06-1,10.75,10.75,0,0,0-.25-3.25,1.06,1.06,0,0,0-2,.58Z"/><path class="cls-8" d="M56,434a11.06,11.06,0,0,0,.19,3.49,1,1,0,0,0,.49.6,1.06,1.06,0,0,0,.8.07,1,1,0,0,0,.74-1.25c0-.23-.08-.45-.11-.68l0,.27a10.8,10.8,0,0,1,0-2.54,1,1,0,0,0-.31-.72,1.08,1.08,0,0,0-.74-.27A1.08,1.08,0,0,0,56,434Z"/><path class="cls-8" d="M60.89,476c.15,1.22.3,2.44.44,3.67a1.06,1.06,0,0,0,.32.71,1,1,0,0,0,.73.27,1.12,1.12,0,0,0,.76-.32,1,1,0,0,0,.3-.71c-.14-1.22-.29-2.45-.44-3.67a1,1,0,0,0-.31-.71,1.09,1.09,0,0,0-1.49.05,1,1,0,0,0-.31.71Z"/><path class="cls-8" d="M63.82,500.24a5.11,5.11,0,0,0,.07,1.7,1.07,1.07,0,0,0,.56.76,1.27,1.27,0,0,0,.9.09,1,1,0,0,0,.3-.13.73.73,0,0,0,.3-.27.31.31,0,0,0,.09-.11.81.81,0,0,0,.12-.37.78.78,0,0,0,0-.4l-.06-.12a.74.74,0,0,0-.22-.33l-.22-.15a.75.75,0,0,0-.39-.11h-.17a1.11,1.11,0,0,0-.75.32,1,1,0,0,0-.31.71,1,1,0,0,0,.32.72,1.11,1.11,0,0,0,.74.27h0l-.27,0h0l-.25-.09h0l-.5-.6h0l.11-.76h0l.17-.21h0l.22-.17h0l.26-.11h0l.28-.05h0l.28,0h0l.25.1h0l.21.15v0l.16.2v0l.11.24a3.43,3.43,0,0,1-.06-.34l0,.27a4.09,4.09,0,0,1,0-1.21.76.76,0,0,0-.1-.39.64.64,0,0,0-.22-.32,1.09,1.09,0,0,0-1.49,0l-.16.21a.88.88,0,0,0-.14.5Z"/><path class="cls-8" d="M317,145.47c-1.67,2.31-4.47,3.68-7.08,4.61a30.52,30.52,0,0,1-3,.89,2.17,2.17,0,0,0-1.41.66c-2.56,2.88-5,6.32-8,9a11.77,11.77,0,0,1-2.53,1.91c-1.09.55-2.26.72-3.21,1.57-.66.59-1,1.64-2,1.74-1.16.12-2.24-.8-3.1-1.46-2.42-1.87-4.77-3.87-7.88-4.43a67.7,67.7,0,0,0-8.42-.75c-3.63-.18-7.27-.25-10.9-.24-1.75,0-3.5,0-5.24.09a14.18,14.18,0,0,1-4.9-.42c-2.08-.67-3.23-2.33-4.81-3.69a6.55,6.55,0,0,0-2.45-1.38c-1.68-.49-3.48-.84-5.2-1.18a16.47,16.47,0,0,0-5.56-.11c-1.48.23-2.88.76-4.36,1a28.38,28.38,0,0,1-7.25,0,62.13,62.13,0,0,1-16.05-3.48,10.54,10.54,0,0,1-2.2-1c-.94-.65-1.76-1.65-2.77-2.3-1.72-1.1-4.14-1.24-6.14-1.36-5-.3-10.49.22-15.27-1.52a4,4,0,0,1-2.05-1.33c-.72-1.07-2.55,0-1.81,1.07,1.05,1.57,3,2.22,4.76,2.64a41.44,41.44,0,0,0,7.37.88c2.33.13,4.66.14,7,.28,1.9.11,4.09.27,5.59,1.52a15.56,15.56,0,0,0,4.59,3,51.34,51.34,0,0,0,6.52,1.94,60.42,60.42,0,0,0,15.65,2c2.59-.08,5-1.05,7.51-1.29a16,16,0,0,1,5.42.52,23.83,23.83,0,0,1,4.14,1c1.56.71,2.55,2.36,3.89,3.38a11.19,11.19,0,0,0,7.26,2c6.61-.15,13.21-.18,19.81.27,2.55.17,5.43.19,7.76,1.34s4.27,3.42,6.72,4.63a4,4,0,0,0,5.17-1.1,5.48,5.48,0,0,1,2.79-1.69,9.36,9.36,0,0,0,2.34-1.46,55.46,55.46,0,0,0,8.93-9.68l.68-.87-.64.49c4.43-.85,9.37-2.89,12.08-6.64.79-1.1-1.08-2-1.83-1Z"/><path class="cls-8" d="M116.8,139c-1.66,0-2.39-1.08-3-2.25-.42-.84-.65-1.25-1.33-1.36s-2.1-.38-3.87-.72c-5.87-1.11-16.81-3.19-20.41-3.2-3,0-7.79-1.85-12.45-3.62a65.6,65.6,0,0,0-7.36-2.5l-.51-.1c-3.94-.63-7.07.69-11.82,3.51s-8.55-.61-11.52-3.43l-1.18-1.1c-2.1-1.89-12-2.7-17.77-2.78l0-2.11c1.6,0,15.78.28,19.15,3.32.4.36.81.74,1.22,1.13,3.33,3.16,5.76,5.08,9,3.15,5.08-3,8.69-4.51,13.21-3.78l.59.11a64.89,64.89,0,0,1,7.73,2.6c4.27,1.62,9.12,3.46,11.72,3.48,3.79,0,14.43,2,20.78,3.24,1.76.34,3.13.6,3.83.71a3.87,3.87,0,0,1,2.87,2.49c.59,1.16.83,1.63,3.49.36a12,12,0,0,1,11.16.14l-.91,1.91a10,10,0,0,0-9.34-.15A7.78,7.78,0,0,1,116.8,139Z"/><path class="cls-8" d="M298.91,207.21q.75,6.18,1.18,12.4c.35,5.27.36,10.57.73,15.84a19.07,19.07,0,0,0,.68,4.51,15.79,15.79,0,0,0,1,2.25c1.49,3.06,1.51,7,1.56,10.31.06,4.71-.36,9.42-.64,14.12a23.86,23.86,0,0,0,.69,8.95c1.3,4.08,2.73,8.12,3.87,12.25a77.49,77.49,0,0,1,2,11.41q1.19,9.83,2.38,19.66l1.06-1c-.81-.06-1.51.72-1.88,1.33a12,12,0,0,0-1.32,6.87c.21,2.17,1.2,4,1.85,6a15.24,15.24,0,0,1,.34,4.16c.08,3.65.21,7.3.19,11,0,.63,0,1.27-.05,1.91,0,.11,0,.54,0,.44s0,.13,0,.15c.15.3,1.53-.35,1-.64a3.1,3.1,0,0,0-3.06.45c-1.36,1.23-.8,3.56-.29,5a13.34,13.34,0,0,0,2.78,4.32,9.68,9.68,0,0,1,2.06,7.48c-.33,3.11-1.35,6.49-3.77,8.61-1.36,1.2-2.94,1.41-4.56,2.06-.88.36-1.81,1.06-1.56,2.14s1.45,1.62,2.3,2.05c1.41.71,2.9,1.25,4.36,1.83,1.69.67,3.39,1.33,5,2.15,1,.51,2.35,1.12,2.83,2.2s2.35.12,1.82-1.07c-1-2.14-4.15-3.23-6.13-4.06-2.5-1-5.32-1.79-7.62-3.25-.21-.14-.63-.44-.57-.48s0,.51,0,.49-.06.06-.06.06.26-.15.32-.18a18.25,18.25,0,0,0,4.31-1.73,13.17,13.17,0,0,0,5-8.3,15.51,15.51,0,0,0,.35-6,10.81,10.81,0,0,0-2.4-5.25,11.41,11.41,0,0,1-2.66-4.36c-.13-.5-.58-1.88-.14-2.34.16-.16.52-.06.76,0,.94.11,1.68.13,1.93-1a16.2,16.2,0,0,0,.15-3.55c0-1.77,0-3.54-.08-5.32s-.09-3.86-.13-5.79a13,13,0,0,0-.69-4.62c-1-2.66-1.84-4.94-1.3-7.85a7.91,7.91,0,0,1,1-2.93c.14-.22.11,0-.1-.05a1.06,1.06,0,0,0,1.06-1q-1-8.44-2.05-16.9c-.42-3.53-.71-7.12-1.44-10.6a119.06,119.06,0,0,0-3.84-13.19c-.51-1.56-1.08-3.11-1.5-4.7a13.72,13.72,0,0,1-.27-4c.1-4.45.58-8.89.72-13.34.13-4.27.13-8.77-1-12.92-.5-1.82-1.58-3.26-1.93-5.11a56.77,56.77,0,0,1-.51-8.14c-.11-2.9-.23-5.79-.41-8.69q-.42-7.08-1.28-14.11c-.16-1.3-2.26-1.23-2.11.05Z"/><path class="cls-8" d="M221.77,341.36l-22.33-3.95-3.22-.58c-1.29-.22-1.9,1.73-.55,2l22.33,4,3.22.57c1.29.23,1.9-1.73.55-2Z"/><path class="cls-8" d="M314.52,357.77l-16.9-3L270.81,350l-6.21-1.1c-1.29-.22-1.89,1.73-.55,2l16.91,3,26.8,4.74,6.22,1.1c1.28.22,1.89-1.73.54-2Z"/><path class="cls-8" d="M159,330.25l-17.83-3.16-2.58-.46c-1.29-.23-1.9,1.72-.55,2l17.84,3.17,2.57.45c1.29.23,1.9-1.72.55-2Z"/><path class="cls-8" d="M44,312l16.25,2.88,27.19,4.8L95.26,321c1.29.22,1.89-1.73.54-2l-20.15-3.56-19.23-3.4L44.55,310c-1.29-.23-1.9,1.73-.55,2Z"/><path class="cls-8" d="M319.6,387.19a160.27,160.27,0,0,1,1.63,18.18,84.49,84.49,0,0,1-.15,9.28c-.23,2.78-1.66,6.16,0,8.67.95,1.43,2.16,2.55,2.9,4.14a20.45,20.45,0,0,1,1.54,5.81A44,44,0,0,1,326,444c-.35,3.17-1.46,6.13-2.13,9.23-.52,2.43-.91,4.75,1.55,6.13,1.29.73,2.29,1,2.66,2.63s.06,3.49.05,5.21c0,3.8,1.15,7.71,2,11.38a79.86,79.86,0,0,1,2.25,11.85c.34,4.25-.09,8.5-.17,12.75a48.64,48.64,0,0,0,1,12.16c1,4.06,2.22,8,3.09,12.11a36.59,36.59,0,0,1,.71,12.51c-.5,3.69-1.3,7.5.21,11.07.78,1.82,2.17,3,3.51,4.3,1.5,1.53,3,3,4.57,4.53,2,1.94,4,3.87,6.14,5.71a32.86,32.86,0,0,0,5.05,3.9c1.13.65,2.23-1.1,1.05-1.77a29.73,29.73,0,0,1-4.41-3.42c-1.88-1.65-3.71-3.35-5.51-5.08-2.21-2.13-4.28-4.46-6.6-6.46-3.06-2.65-2.76-6.9-2.23-10.54a39.52,39.52,0,0,0,.23-11.44,98.7,98.7,0,0,0-2.77-12.11c-.53-2-1.07-3.9-1.44-5.89a34.7,34.7,0,0,1-.45-6.11c0-4.23.29-8.46.29-12.69a55.49,55.49,0,0,0-1.56-12.1c-.85-3.84-1.87-7.66-2.51-11.55a24.07,24.07,0,0,1-.24-5.16,10.62,10.62,0,0,0-.56-4.78,4.65,4.65,0,0,0-2.46-2.36c-1.22-.63-1.81-.87-1.71-2.3.21-2.93,1.43-5.73,2-8.59a35,35,0,0,0,.5-10.16c-.29-3.43-.64-7-2.06-10.14a12.91,12.91,0,0,0-1.51-2.62,19.11,19.11,0,0,1-1.78-2.25c-.82-1.53.06-3.73.28-5.38a67.33,67.33,0,0,0,.39-9.63,162.4,162.4,0,0,0-1.74-20.3c-.19-1.28-2.22-.69-2,.59Z"/><path class="cls-8" d="M339.93,546.71a27.33,27.33,0,0,0-6.41-4c-1.94-.86-4.6-1.89-6.77-1.33-1.53.39-2.8,1.51-4.34,2-3.61,1.1-6.88.55-10.41-.56a1,1,0,0,0-.54,2c3,.95,6.09,1.64,9.27,1.07a18.51,18.51,0,0,0,5.87-2.2c1.54-.86,3.74,0,5.24.6a24.49,24.49,0,0,1,6.61,4c1,.83,2.51-.61,1.48-1.48Z"/><path class="cls-8" d="M223.24,524.34c7.41,2.5,14.39,6.47,22,8.27a112.65,112.65,0,0,0,23.24,2.66,1,1,0,1,0,0-2,108.23,108.23,0,0,1-23-2.69c-7.5-1.81-14.39-5.72-21.7-8.18-1.25-.42-1.83,1.53-.54,2Z"/><path class="cls-8" d="M133.71,506.81h0a.86.86,0,0,0-.41.1.83.83,0,0,0-.34.22,1,1,0,0,0-.22.33.73.73,0,0,0-.08.38l0,.27a1,1,0,0,0,.28.45l.22.15a1.14,1.14,0,0,0,.52.12h0a.83.83,0,0,0,.41-.1.87.87,0,0,0,.35-.22,1.18,1.18,0,0,0,.3-.71l0-.27a.89.89,0,0,0-.28-.45l-.21-.15a1.2,1.2,0,0,0-.52-.12Z"/><path class="cls-8" d="M76.37,502.33c4.18-.33,8.37-.67,12.52-1.26a7.18,7.18,0,0,1,2.79-.24c1.12.34,2,1.47,2.85,2.22,2.58,2.27,5.77,2.89,9,3.93a1,1,0,0,0,.55-2,54.08,54.08,0,0,1-5.58-1.79A14,14,0,0,1,95,500.6a6.88,6.88,0,0,0-2.72-1.73,7.39,7.39,0,0,0-3.1.15c-4.22.63-8.5,1-12.76,1.29-1.32.11-1.37,2.13,0,2Z"/><path class="cls-8" d="M168.68,515.19a3,3,0,0,1,1.17,1.3,4.59,4.59,0,0,1,.14,1c.18,1.48,1.33,2.12,2.67,2.49a33.44,33.44,0,0,0,5.82.82c2.77.27,5.54.49,8.32.7,1.33.1,1.35-1.92,0-2-2.65-.2-5.3-.41-7.94-.66a32.45,32.45,0,0,1-5.65-.8,3.91,3.91,0,0,1-.9-.35c-.08,0-.22-.26-.17-.15s-.08-.34-.06-.24c0-.19,0-.38-.05-.57a4.49,4.49,0,0,0-2.3-3.29c-1.08-.72-2.17,1-1,1.78Z"/><path class="cls-8" d="M94.84,511.26a3.43,3.43,0,0,1,.46-.11l-.28,0a3.55,3.55,0,0,1,.73,0l-.27,0a2.67,2.67,0,0,1,.68.15.82.82,0,0,0,.41,0,.87.87,0,0,0,.41-.14,1.07,1.07,0,0,0,.48-.62,1,1,0,0,0-.12-.77l-.16-.2a1.05,1.05,0,0,0-.47-.24,3.78,3.78,0,0,0-1.2-.2,3.84,3.84,0,0,0-1.22.19,1.15,1.15,0,0,0-.64.48,1,1,0,0,0,.39,1.37,1.11,1.11,0,0,0,.8.08Z"/><path class="cls-8" d="M243,536.1l.16-.08-.26.12a1.52,1.52,0,0,1,.38-.11l-.28,0a2.26,2.26,0,0,1,.45,0l-.27,0a1.89,1.89,0,0,1,.41.1l-.25-.09a1.72,1.72,0,0,1,.38.2l-.22-.15a1.56,1.56,0,0,1,.2.16,1,1,0,0,0,.74.27,1.16,1.16,0,0,0,.75-.32,1,1,0,0,0,.3-.71,1,1,0,0,0-.31-.72,2.94,2.94,0,0,0-.41-.31,1.23,1.23,0,0,0-.25-.14,2.61,2.61,0,0,0-.76-.25,4.91,4.91,0,0,0-.53,0,4.34,4.34,0,0,0-.52.07,2.37,2.37,0,0,0-.78.29,1,1,0,0,0-.48.62,1,1,0,0,0,.11.77,1.08,1.08,0,0,0,1.44.32Z"/><path class="cls-8" d="M177.19,377.49q-1.19,8.13-2.38,16.25-3.24,22.22-6.49,44.42-4.8,32.74-9.58,65.48-5.85,39.95-11.69,79.88L134.21,671.3q-6.45,44.16-12.92,88.31-6,41.17-12,82.34-5.09,34.78-10.18,69.58l-7.32,50q-1.14,7.83-2.29,15.66c-.39,2.65-1,5.39-1.18,8.07,0,.34-.1.68-.15,1l3-1.46L66.07,974.65,67.19,977l2.37-16.2q3.21-21.85,6.4-43.7L85.47,852Q91.26,812.46,97,772.91q6.34-43.32,12.68-86.64,6.39-43.72,12.79-87.45l11.92-81.53,10.08-68.9q3.63-24.78,7.25-49.55,1.13-7.72,2.26-15.46c.39-2.64,1-5.36,1.17-8,0-.33.1-.67.15-1l-2.5,1.65,26,4c2.69.41,3.57-3.74.86-4.15l-26-4a2.14,2.14,0,0,0-2.5,1.64l-2.37,16.21q-3.21,21.84-6.4,43.7l-9.51,65.05-11.57,79.11Q115,620.88,108.67,664.2q-6.39,43.72-12.79,87.44L84,833.18l-10.08,68.9q-3.63,24.78-7.25,49.55c-1.15,7.82-2.35,15.64-3.44,23.48,0,.33-.09.67-.14,1a2.17,2.17,0,0,0,1.12,2.33l25.09,10.21a2.15,2.15,0,0,0,3-1.47q1.18-8.11,2.38-16.25,3.24-22.2,6.49-44.41,4.8-32.74,9.58-65.49,5.85-39.93,11.69-79.87l12.84-87.79q6.45-44.16,12.91-88.31,6-41.16,12.05-82.33,5.09-34.8,10.18-69.58l7.32-50c1.15-7.9,2.38-15.81,3.47-23.72,0-.35.1-.69.15-1C181.73,375.67,177.58,374.79,177.19,377.49Z"/><path class="cls-8" d="M178.31,379.82l9.33,3.94-1.13-2.32-2.35,16.06q-3.19,21.87-6.4,43.73l-9.45,64.67q-5.76,39.3-11.5,78.61l-12.64,86.37q-6.34,43.46-12.71,86.9-5.94,40.65-11.89,81.3l-10,68.69q-3.6,24.68-7.22,49.36c-1.12,7.67-2.9,15.54-3.4,23.28,0,.34-.1.67-.15,1l1.43-1.59-10.62,4.92c-2.44,1.13-1.18,5.17,1.29,4l7.7-3.56c1.51-.7,3.76-1.27,4.35-3a7.94,7.94,0,0,0,.2-1.37l1.3-8.9q2.91-19.82,5.8-39.64,4.6-31.5,9.22-63,5.74-39.37,11.51-78.75l12.81-87.55,13-89.2L169,530.14q5.22-35.65,10.43-71.29l7.5-51.24c1.18-8.09,2.42-16.18,3.55-24.29l.15-1a2.17,2.17,0,0,0-1.13-2.32L180.21,376c-2.49-1.06-4.41,2.72-1.9,3.79Z"/><path class="cls-8" d="M185.79,377.48l-1.32,1.1-.19.15a1.57,1.57,0,0,0-.59.61,1.52,1.52,0,0,0-.34.75,1.59,1.59,0,0,0,0,.81,1.53,1.53,0,0,0,.28.76c.12.14.24.29.37.43a2,2,0,0,0,1,.5l.54,0a2.06,2.06,0,0,0,1-.33l1.32-1.09.19-.16a2.38,2.38,0,0,0,.93-1.35,1.59,1.59,0,0,0,0-.81,1.53,1.53,0,0,0-.28-.76l-.37-.43a2,2,0,0,0-1-.5l-.54-.05a2.28,2.28,0,0,0-1,.33Z"/><path class="cls-8" d="M184,354.58l-18.22-3.33-2.63-.48a2.14,2.14,0,0,0-2.55,2.19q1.11,8.64,2.21,17.29c.32-.63.64-1.26,1-1.89-1.66,1.22-3.28,2.51-4.91,3.77a2.17,2.17,0,0,0-.65,2.92,2.14,2.14,0,0,0,2.93.65c1.63-1.26,3.25-2.55,4.91-3.77a2.14,2.14,0,0,0,1-1.9q-1.09-8.64-2.2-17.29l-2.54,2.18,18.22,3.33,2.63.48c2.68.49,3.55-3.65.86-4.15Z"/><path class="cls-8" d="M167.45,375.66c-1.25-8.24-2.46-16.48-3.69-24.73l-8.53-57.43Q149.4,254.23,143.57,215L131.2,131.7,120.61,60.35q-3.19-21.47-6.38-42.94c-.21-1.42-.34-2.87-.64-4.27-.06-.32-.08-.66-.14-1l0-.19c.13,1.27-.19.73.52-.38,1.16-1.81,2.26-3.79,4.09-5,2.76-1.86,6.68-2,9.89-2.13,4.64-.18,10-.27,14.24,2,2.23,1.18,2.91,3.79,3.35,6.14,1,5.21,1.56,10.51,2.34,15.75l5.4,36.36,7.88,53q4.92,33.1,9.83,66.22l11.31,76.16,12.15,81.79q6.26,42.08,12.5,84.14,6.15,41.46,12.31,82.9l11.64,78.38q5.16,34.77,10.33,69.53l8.53,57.45q3.11,20.88,6.2,41.76,1.68,11.25,3.35,22.52c.14.94.27,1.88.41,2.82.4,2.67,4.63,2.47,4.23-.23q-.89-6-1.79-12-2.47-16.71-5-33.43-3.83-25.7-7.63-51.39-4.84-32.58-9.68-65.16l-11.25-75.77-12.18-82-12.66-85.21q-6.22-42-12.46-83.94-5.92-39.85-11.84-79.69-5.26-35.5-10.54-71-4.41-29.61-8.8-59.21l-6.41-43.18-3.54-23.8c-.16-1.11-.3-2.24-.5-3.36-.44-2.56-1.23-5.44-3-7.42C144.2,1.76,139.59.9,136.09.41a43.64,43.64,0,0,0-14.73.47,15.2,15.2,0,0,0-10.24,7.23c-2.26,3.47-1.82,4.78-1.27,8.52q1.2,8,2.39,16.07,4.37,29.44,8.74,58.89l11.85,79.78q6.25,42.07,12.5,84.16,5.25,35.32,10.49,70.65l6,40.55q.68,4.57,1.37,9.16c.4,2.67,4.63,2.47,4.23-.23Z"/><path class="cls-8" d="M175.37,457.8c0,2.89.9,6.05,1.32,8.9l3.63,24.43,11.76,79.19q7,47,14,94,5.76,38.84,11.53,77.66,2.44,16.42,4.88,32.85l1.25,8.36c.4,2.67,4.64,2.47,4.23-.23q-2.58-17.2-5.12-34.41-5.48-36.79-10.93-73.58-7-46.83-13.91-93.65L185.7,498.66c-2-13.52-3.92-27.06-6-40.56a4.63,4.63,0,0,1-.07-.52c0-2.73-4.23-2.5-4.23.22Z"/><path class="cls-8" d="M130.87,16.13l3.12,21q4.23,28.44,8.44,56.86l12.51,84.16,15.15,102,16.53,111.3q8.3,55.86,16.6,111.72l15.39,103.61q6.38,43,12.76,85.94,4.45,30,8.9,59.93,1.83,12.33,3.66,24.66.82,5.53,1.64,11.08c.4,2.67,4.63,2.47,4.23-.22q-1.94-13.15-3.9-26.3-3.87-26-7.73-52.09-6-40.35-12-80.7-7.43-49.95-14.84-99.9L194.93,418.74q-8.33-56.1-16.67-112.21L162.6,201.1,149.37,112q-4.77-32.19-9.56-64.39c-1.51-10.14-3-20.29-4.52-30.42-.07-.44-.13-.87-.19-1.31-.4-2.67-4.63-2.47-4.23.23Z"/><path class="cls-8" d="M154.42,52.3l25.51,3.85-1.36-.93,2.87,3.62a26.66,26.66,0,0,0,1.75,2.22c.92.92-.1.07.16-.35-.18.29.26,1.75.31,2.08.21,1.45.43,2.89.64,4.33q1.88,12.61,3.74,25.21l1,6.7a2.17,2.17,0,0,0,1.68,2l36.3,6.29-1.69-2v6.77l1-1.89L204.09,126l1.57-.29-41.5-7c-2.68-.45-3.56,3.69-.86,4.15l34.22,5.76c2.93.5,7,2.13,9.67.36,5.36-3.62,10.55-7.52,15.82-11.28a63.67,63.67,0,0,0,5.56-4c1.93-1.73,1-6.29,1-8.67a2.13,2.13,0,0,0-1.68-2l-36.3-6.29c.56.65,1.12,1.31,1.69,2l-4.85-32.69c-.26-1.77-.44-3.58-.79-5.33s-1.76-3.15-2.93-4.63-2.37-3.77-4.38-4.23c-2.36-.53-4.85-.73-7.24-1.09l-17.79-2.69c-2.69-.4-3.57,3.74-.86,4.15Z"/><path class="cls-8" d="M177.16,108.35l7.59-4.94,1.08-.71a2.11,2.11,0,0,0-2.28-3.56L176,104.08l-1.08.7a2.12,2.12,0,0,0,2.28,3.57Z"/><path class="cls-8" d="M171.22,69.18l7.59-4.94,1.08-.7A2.12,2.12,0,0,0,177.61,60L170,64.91l-1.08.7a2.12,2.12,0,0,0,2.28,3.57Z"/><path class="cls-8" d="M225.32,112.09v8.83a2.14,2.14,0,0,0,2.23,2,2.17,2.17,0,0,0,2-2.23v-8.83a2.13,2.13,0,0,0-2.22-2,2.16,2.16,0,0,0-2,2.22Z"/><path class="cls-8" d="M127.12,112.89l-28-5.07-4-.73,1.68,2v-5.42c-.32.63-.65,1.26-1,1.9l18.78-13.77-1.57.29,9.59,1c2.68.27,3.58-3.87.86-4.15L114.81,88a3.91,3.91,0,0,0-2.69.32c-.78.49-1.51,1.1-2.26,1.65L94.09,101.53a3.26,3.26,0,0,0-1.56,2.85c0,1.63,0,3.26,0,4.89a2.14,2.14,0,0,0,1.69,2l28,5.06,4,.74c2.68.48,3.55-3.66.86-4.15Z"/><path class="cls-8" d="M167.51,365.52c.2,1.44.4,2.88.59,4.32l.09.61a2.29,2.29,0,0,0,.7,1.47,2.17,2.17,0,0,0,1.52.54,2.12,2.12,0,0,0,1.47-.7,2.15,2.15,0,0,0,.54-1.53l-.6-4.32-.08-.61a2.29,2.29,0,0,0-.7-1.47,2.12,2.12,0,0,0-3,.16,2.07,2.07,0,0,0-.54,1.53Z"/><path class="cls-8" d="M175.23,367c.19,1.45.39,2.89.59,4.33l.08.61a2.25,2.25,0,0,0,.7,1.46,2.13,2.13,0,0,0,3-.15,2.08,2.08,0,0,0,.54-1.53c-.19-1.44-.39-2.88-.59-4.32l-.08-.62a2.29,2.29,0,0,0-.7-1.46,2.15,2.15,0,0,0-1.53-.54,2.12,2.12,0,0,0-1.46.7,2,2,0,0,0-.54,1.52Z"/><path class="cls-8" d="M147.41,793.11l19.4,4.68L213.12,809l56.29,13.58,48.67,11.74,16,3.87c2.49.6,5,1.44,7.57,1.83a2,2,0,0,1,.35.08c2.65.64,3.51-3.51.86-4.15l-19.39-4.67-46.31-11.18L220.9,806.48l-48.67-11.74-16-3.87c-2.49-.6-5-1.43-7.57-1.82-.12,0-.23-.06-.35-.09-2.65-.64-3.51,3.51-.86,4.15Z"/><path class="cls-8" d="M147.42,766.3l35.65,8.6,41.53,10,34,8.19,33.28,8c14.26,3.44,28.49,7.23,42.84,10.34l.84.21c2.65.64,3.51-3.51.86-4.15l-37.06-8.95L263.71,790l-37.46-9-35.66-8.61c-13.83-3.33-27.62-7.05-41.53-10l-.79-.19c-2.65-.64-3.51,3.51-.85,4.15Z"/><path class="cls-8" d="M224.62,770.09l-58.69-14.16-8.26-2c-2.65-.64-3.51,3.51-.85,4.15l58.69,14.16,8.25,2c2.65.64,3.51-3.51.86-4.15Z"/><path class="cls-8" d="M248.83,790.1,263,783l-1.57.29L324,798.42l8.86,2.13c2.65.64,3.51-3.51.86-4.14l-33.42-8.07-24.37-5.87c-4.39-1.06-8.86-2.52-13.32-3.21-2.07-.33-4.42,1.46-6.22,2.36l-9.81,4.91c-2.44,1.22-.14,4.78,2.28,3.57Z"/><path class="cls-8" d="M142,647.12v0a1.64,1.64,0,0,0-.22-.78,1.49,1.49,0,0,0-.48-.68,1.52,1.52,0,0,0-.73-.41,1.46,1.46,0,0,0-.8-.13l-.53.09a2.2,2.2,0,0,0-.93.6l-.32.47a2.07,2.07,0,0,0-.22,1.06v0a1.52,1.52,0,0,0,.21.78,1.6,1.6,0,0,0,.49.69,1.63,1.63,0,0,0,.72.41,1.69,1.69,0,0,0,.8.13l.54-.1a2.2,2.2,0,0,0,.93-.6c.1-.16.21-.31.32-.47a2.15,2.15,0,0,0,.22-1.06Z"/><path class="cls-8" d="M133.91,241l-11.26,4.22c-.4.15-1.65.44-.58.32-.08,0-.17,0-.26,0-1.71,0-3.41,0-5.11,0-4.48,0-8.81-.19-13,1.59a29.35,29.35,0,0,0-9.28,6.47c-1.51,1.51-3.64,3.35-3.67,5.62-.14,8.34.74,16.82,1.11,25.15Q93,310.68,94.16,337L97,400.64l2.64,59.46q.85,19.51,1.72,39,.59,13.27,1.18,26.56.66,15.06,1.33,30.13,1.38,31,2.75,62.12,1,22.18,2,44.39c0,.74.1,1.48.1,2.22,0,2.74,4.23,2.5,4.23-.22,0-9.13-.81-18.34-1.22-27.47q-1.24-28.36-2.51-56.72l-2-45.83-1.26-28.38c-.24-5.64-.5-11.28-.75-16.92l-1.89-42.82q-1.26-28.28-2.5-56.55l-2.58-58.07q-1-23.68-2.09-47.38-.54-12.24-1.09-24.47c0-.37,0-.74,0-1.11l-.54,1.53c3.09-4.4,7.81-8.4,13-9.81,4.65-1.25,9.67-.23,14.43-.53a15.1,15.1,0,0,0,4.31-1.35l9-3.38c2.55-.95,1.27-5-1.28-4Z"/><path class="cls-8" d="M140.06,699.28l2.79,63,2.58,58.29q.63,14.19,1.25,28.38l2.55-2.19L121.83,839c-2.62-.74-3.47,3.41-.86,4.15l27.4,7.77a2.13,2.13,0,0,0,2.54-2.19L148,783.5l-2.28-51.45-1.47-33c-.12-2.72-4.34-2.5-4.22.23Z"/><path class="cls-8" d="M119.07,803.75v0a2.18,2.18,0,0,0-2.22-2l-.54.1a2.11,2.11,0,0,0-.93.6l-.32.47a2.13,2.13,0,0,0-.22,1.06v0a1.64,1.64,0,0,0,.22.78,1.54,1.54,0,0,0,.48.68,1.61,1.61,0,0,0,.73.41,1.56,1.56,0,0,0,.8.13l.53-.1a2,2,0,0,0,.93-.6c.11-.15.21-.31.32-.47a2.12,2.12,0,0,0,.22-1Z"/><path class="cls-8" d="M135.82,507.71c0-8.48-.75-17-1.13-25.48q-1.37-31-2.74-62-1.68-37.67-3.34-75.33-1.44-32.6-2.89-65.2-.48-10.71-1-21.42c-.15-3.38-.08-6.85-.45-10.2,0-.15,0-.31,0-.46-.12-2.73-4.35-2.5-4.23.22q.57,13,1.15,26Q122.6,305,124,336.18l3.33,75.35,2.88,64.89.94,21.15c.14,3.27.1,6.6.43,9.85a4.35,4.35,0,0,1,0,.51c0,2.73,4.23,2.5,4.23-.22Z"/><path class="cls-8" d="M156.78,793.83q.9,20.16,1.79,40.32l.27,5.89c.32-.63.64-1.26,1-1.89l-12.15,8.91c-2.19,1.61.08,5.18,2.28,3.57l11-8.1c1.13-.83,2-1.41,2.07-2.94.06-1.15-.1-2.35-.15-3.49q-.72-16.27-1.45-32.56c-.15-3.31-.29-6.62-.44-9.94-.12-2.72-4.35-2.5-4.23.23Z"/><path class="cls-8" d="M100,254.28c5.07-4.07,11.23-7.64,17.77-8.3,5.61-.56,11.28-.76,16.92-.81l-2.23-2q.45,9.87.88,19.73,1,23.7,2.09,47.39,1.28,28.68,2.54,57.36l2.19,49.64q.38,8.21.73,16.4c.11,2.59,0,5.28.35,7.86,0,.11,0,.23,0,.34.12,2.72,4.35,2.5,4.23-.22l-.87-19.73-2.1-47.39q-1.26-28.68-2.53-57.36-1.11-24.82-2.2-49.64l-.72-16.4c-.12-2.59,0-5.28-.35-7.86,0-.11,0-.23,0-.34a2.15,2.15,0,0,0-2.22-2,157.07,157.07,0,0,0-18.4,1c-6.65.85-13.18,4.64-18.35,8.8-2.1,1.69.16,5.28,2.28,3.57Z"/><path class="cls-8" d="M159.36,755.9,157.5,714l-2.94-66.26c-.21-4.86-.64-9.77-.64-14.63,0-2.73-4.23-2.5-4.23.22,0,3.9.34,7.83.52,11.73l1.29,29.21q1.49,33.27,2.95,66.55l.68,15.28c.12,2.73,4.35,2.5,4.23-.22Z"/><path class="cls-8" d="M151.63,581.15v0a1.52,1.52,0,0,0-.21-.78,1.57,1.57,0,0,0-.49-.68,1.63,1.63,0,0,0-.72-.41,1.58,1.58,0,0,0-.8-.13l-.54.09a2.2,2.2,0,0,0-.93.6l-.32.47a2.18,2.18,0,0,0-.22,1.06v0a1.57,1.57,0,0,0,.22.78,1.66,1.66,0,0,0,.48.69,1.61,1.61,0,0,0,.73.41,1.67,1.67,0,0,0,.8.13l.53-.1a2.2,2.2,0,0,0,.93-.6l.32-.47a2,2,0,0,0,.22-1.06Z"/><path class="cls-8" d="M156.1,754.23l-10.66,7.06-1.53,1a2.12,2.12,0,1,0,2.28,3.57l10.66-7,1.53-1a2.12,2.12,0,1,0-2.28-3.57Z"/><path class="cls-8" d="M360.24,899.67q-3.76-15.34-7.52-30.7-9.12-37.19-18.23-74.36-11.4-46.56-22.82-93.12l-21.12-86.22-13.2-53.85-7.5-30.62-16.68-68.08-20.88-85.23q-5.49-22.37-11-44.74l-17.67-72.13L201.79,253l-2.44,2.72c6.74,1.58,13.9,3.22,20.12,6.32,3.82,1.91,5.82,6.07,7.63,9.77a57.48,57.48,0,0,1,3.62,8.65c3.37,11.1,5.56,22.7,8.31,34q3.81,15.55,7.6,31.11,2.07,8.49,4.16,17c.29,1.19.59,2.38.87,3.57a3.92,3.92,0,0,1,.11.44c.13.56.27,1.13.41,1.69l16.37,67,21.3,87.11q4.71,19.32,9.44,38.64L309,600.75q9.87,40.32,19.72,80.64l23.43,95.83q10.17,41.63,20.35,83.25l11,45c.17.69.34,1.37.5,2,.65,2.65,4.68,1.35,4-1.29q-3.88-15.9-7.78-31.81-9.45-38.67-18.91-77.34Q349.72,749.41,338,701.7q-10.67-43.65-21.34-87.3-6.24-25.5-12.47-51-3.83-15.64-7.64-31.3l-19.23-78.66q-9.75-39.88-19.51-79.78c-.62-2.54-1.2-5.09-1.86-7.61-.06-.23-.11-.47-.17-.7-.13-.56.32,1.29-.06-.26-.69-2.86-1.4-5.72-2.1-8.58q-3.27-13.33-6.52-26.66-5.32-21.83-10.67-43.64a72.42,72.42,0,0,0-2.44-9c-3-7.77-6.43-16.4-14.57-19.8a121.68,121.68,0,0,0-19.25-5.83,2.14,2.14,0,0,0-2.45,2.72q8.7,35.49,17.39,71,5.11,20.91,10.25,41.81,9,36.92,18.08,73.83,10,40.79,20,81.58L272,557.42l10.35,42.25q9.86,40.23,19.72,80.45,11.52,47,23.05,94.09,9.94,40.56,19.88,81.12L355.73,899c.16.65.32,1.3.47,2,.66,2.65,4.69,1.34,4-1.29Z"/><path class="cls-8" d="M200.92,255.47l7.63-4.45c1.45-.84,3-1.6,4.39-2.56.17-.12.85-.35.9-.52-.24,1-2.17-.23-.9.32a27.61,27.61,0,0,0,4.07.92c2.42.61,4.82,1.3,7.16,2.14,4.48,1.6,9.78,3.68,12.68,7.64,6.33,8.63,8,20.33,10.52,30.47q8.7,35.54,17.37,71.06,6.31,25.71,12.59,51.45,11.49,47,23,94.06,6.14,25.13,12.28,50.25,4.14,16.88,8.26,33.74l18.84,77.08q11.79,48.24,23.59,96.48,10.6,43.37,21.2,86.73l11.64,47.59.52,2.15c.3-.81.59-1.61.88-2.42l-10.23,6.09c-.34.21-2,.88-2.13,1.28-.25.57,1.58.35,1-.2s-3.07-.73-3.93-.93l-23.59-5.6c-2.65-.63-3.51,3.51-.86,4.15l24.51,5.81a19.57,19.57,0,0,0,3.26.78c1.36.08,2.26-.66,3.39-1.33l10.87-6.49a2.15,2.15,0,0,0,.88-2.42q-4.15-17-8.3-34L372.65,784q-12-49-24-98.1-10.26-42-20.51-83.9l-9.84-40.27q-5.16-21-10.3-42.07-11.24-46-22.49-92-7.3-29.86-14.6-59.72-7.8-31.85-15.58-63.7c-2.62-10.72-4.78-21.68-7.89-32.27-2.21-7.55-5.71-15.95-12.55-20.31a53.26,53.26,0,0,0-13.79-5.78c-2.42-.71-5.57-2-8.14-1.93-2.31.07-5.08,2.51-7,3.62l-7.35,4.29c-2.36,1.37-.07,4.93,2.28,3.57Z"/><path class="cls-8" d="M106,545.59,30.69,533.87l-10.84-1.68,1.68,2V516.33L19,518.51l74.77,11.64,10.61,1.66c2.69.41,3.57-3.73.86-4.15L30.46,516l-10.61-1.66a2.16,2.16,0,0,0-2.54,2.19v17.82a2.13,2.13,0,0,0,1.68,2l75.35,11.71,10.84,1.69c2.68.41,3.56-3.73.86-4.15Z"/><path class="cls-8" d="M190.57,540.93l-21.52-3.35L166,537.1c-2.68-.42-3.56,3.73-.85,4.15l21.52,3.35,3.06.48c2.68.42,3.56-3.73.85-4.15Z"/><path class="cls-8" d="M193.28,559.18l-26.12-4.08-3.71-.58c-2.68-.41-3.56,3.73-.85,4.15l26.12,4.08,3.71.58c2.68.42,3.56-3.73.85-4.15Z"/><path class="cls-8" d="M274.28,554l-40.78-6.34-5.79-.9c-2.68-.41-3.56,3.73-.86,4.15l40.79,6.34,5.79.9c2.68.42,3.56-3.73.85-4.15Z"/><path class="cls-8" d="M278.81,572.48l-42.38-6.6-6-.94c-2.68-.42-3.56,3.73-.86,4.15l42.38,6.6,6,.93c2.68.42,3.56-3.72.85-4.14Z"/><path class="cls-8" d="M315.92,564.71l78.2,12.16,10.93,1.7-1.69-2v17.83l2.55-2.19-74.29-11.56-10.31-1.61c-2.69-.41-3.57,3.73-.86,4.15l74.28,11.56,10.32,1.61a2.15,2.15,0,0,0,2.54-2.19V576.39a2.12,2.12,0,0,0-1.68-2L327.7,562.26l-10.93-1.7c-2.68-.42-3.56,3.73-.85,4.15Z"/><path class="cls-8" d="M419.63,560.41q-6.86,6.69-13.68,13.41l-2.05,2a2.12,2.12,0,0,0,3.15,2.84l13.68-13.41,2-2a2.14,2.14,0,0,0-.16-3,2.17,2.17,0,0,0-3,.16Z"/><path class="cls-8" d="M420.83,560.54l-41.77-6.94-6-1c-2.68-.45-3.56,3.7-.86,4.15l41.77,6.93,6,1c2.68.45,3.56-3.69.86-4.14Z"/><path class="cls-8" d="M370.64,535.64l42.55,6.11,6.08.87-1.68-2,1.5,21.28c.19,2.72,4.42,2.5,4.23-.22l-1.5-21.28a2.16,2.16,0,0,0-1.69-2l-42.55-6.11-6.08-.87c-2.69-.39-3.57,3.75-.86,4.14Z"/><path class="cls-8" d="M369.66,528.24l52,7.1,7.5,1-1.68-2q1.13,17.13,2.24,34.26l.54-1.53L403.9,592.92c-1.95,1.91,1.2,4.73,3.14,2.83l22.71-22.23a41.87,41.87,0,0,0,3.5-3.42c.83-1.05.66-2,.58-3.2q-.58-8.83-1.16-17.69l-1-15a2.14,2.14,0,0,0-1.69-2l-52-7.1-7.51-1c-2.68-.36-3.57,3.78-.86,4.15Z"/><path class="cls-8" d="M428.43,532.51,419.78,538l-1.21.77a2.13,2.13,0,0,0-.65,2.92,2.17,2.17,0,0,0,2.93.65l8.65-5.5c.41-.25.81-.51,1.21-.77a2.13,2.13,0,0,0,.65-2.92,2.16,2.16,0,0,0-2.93-.64Z"/><path class="cls-8" d="M20.06,518.44,35.81,512l2.25-.91a2.17,2.17,0,0,0,1.37-2.66,2.13,2.13,0,0,0-2.66-1.38L21,513.49l-2.24.92a2.18,2.18,0,0,0-1.38,2.66,2.13,2.13,0,0,0,2.66,1.37Z"/><path class="cls-8" d="M288.66,567.87v9.48a2.13,2.13,0,0,0,2.22,2,2.16,2.16,0,0,0,2-2.22v-9.49a2.14,2.14,0,0,0-2.23-2,2.16,2.16,0,0,0-2,2.23Z"/><path class="cls-8" d="M285.31,572.62l7.69,3.09,1.11.45a2.12,2.12,0,0,0,1.9-3.79l-7.69-3.09-1.11-.44a2.12,2.12,0,1,0-1.9,3.78Z"/><path class="cls-8" d="M113.7,541.2v9.49a2.14,2.14,0,0,0,2.23,2,2.16,2.16,0,0,0,2-2.23V541a2.12,2.12,0,0,0-2.22-2,2.17,2.17,0,0,0-2,2.22Z"/><path class="cls-8" d="M110.36,546l7.69,3.09,1.11.45a2.17,2.17,0,0,0,2.84-1,2.15,2.15,0,0,0-1-2.84l-7.69-3.09-1.11-.45a2.12,2.12,0,1,0-1.89,3.79Z"/><path class="cls-8" d="M402.93,181.14a35.09,35.09,0,0,0,15.46,19.46c2.47,1.41,5.12,2.54,6.76,5,1,1.53,1.74,3.3,2.62,4.92a36.7,36.7,0,0,0,9,11c8.49,6.92,19.84,11.14,30.46,13.37,4.53.95,9.41,1.64,14,.77a15.53,15.53,0,0,0,9.34-6.12c8.31-10.6,10.91-25.84,10.63-39-.05-2.73-4.28-2.5-4.22.22.24,11.46-1.92,24.11-8.17,33.93-1.93,3-4.45,5.95-8.1,6.73-4.1.88-8.59.12-12.63-.73-9.86-2.07-20.59-5.93-28.49-12.36a33.18,33.18,0,0,1-8.16-9.94c-1.9-3.48-3.33-6.77-6.75-9.08-2.31-1.56-4.94-2.6-7.13-4.36a33.55,33.55,0,0,1-6.42-7,29,29,0,0,1-4.2-8.18c-.76-2.62-4.79-1.32-4,1.29Z"/><path class="cls-8" d="M499.47,151.54c3,6.78,1.64,14.24-2.23,20.36a2.13,2.13,0,0,0,.95,2.84,2.16,2.16,0,0,0,2.84-.94c4.38-6.93,5.82-15.89,2.47-23.55a2.18,2.18,0,0,0-2.66-1.37,2.13,2.13,0,0,0-1.37,2.66Z"/><path class="cls-8" d="M486.28,155.44c0-.53-.15-1.08-.2-1.61a16.91,16.91,0,0,1-.08-3.1l0,.54a10.85,10.85,0,0,1,.16-1.26,2.12,2.12,0,0,0-4.15-.86,16.92,16.92,0,0,0-.17,4.38c0,.46.09.92.16,1.37,0,.25.09.51.1.76a2.11,2.11,0,1,0,4.22-.22Z"/><path class="cls-8" d="M417.74,136.7A61.18,61.18,0,0,0,416,147.46c-.56,6.61-.39,13.68,2.35,19.84a19.93,19.93,0,0,0,7.57,8.92c2.3,1.46,4.18-2.33,1.9-3.79-6.79-4.33-8-13.42-7.83-20.79a58.77,58.77,0,0,1,1.93-14.08c.71-2.63-3.43-3.49-4.14-.86Z"/><path class="cls-8" d="M403.81,135.34c-5.21,4.38-7.72,12.16-9.32,18.46-2.5,9.89-4.36,23.3,2.53,32a12.26,12.26,0,0,0,4.46,3.82c2.49,1.06,4.41-2.72,1.9-3.79a9,9,0,0,1-3.56-3.36c-3.13-4.66-3.52-10.73-3.14-16.15a57.67,57.67,0,0,1,5.62-21.72,25.42,25.42,0,0,1,2.77-4.47c.26-.32,2-2,1-1.21,2.06-1.73-.2-5.31-2.28-3.57Z"/><path class="cls-8" d="M392.86,140a47.82,47.82,0,0,0-10.34,26.46c-.44,6.09.11,12.89,3.17,18.32,1,1.82,2.64,4,4.65,4.81,2.5,1,4.42-2.74,1.9-3.79a1.59,1.59,0,0,1-.32-.16c-.41-.31.16.13,0,0a4.66,4.66,0,0,1-.49-.39,10.74,10.74,0,0,1-2.15-2.75c-2.81-5-3-11.75-2.4-17.31.91-7.84,4-16.23,9.14-22.36,1.74-2.09-1.39-4.93-3.14-2.83Z"/><path class="cls-8" d="M407.28,143.55c-4.79,12.42-5.35,29.53,6.05,38.52,2.12,1.68,5-1.45,2.83-3.15-6.45-5.09-8.29-13.1-7.72-21a49.1,49.1,0,0,1,1.56-9c.25-.93.53-1.86.82-2.78.23-.73-.07.17.13-.38l.12-.31c1-2.52-2.81-4.45-3.79-1.9Z"/><path class="cls-8" d="M398.61,134.8a13,13,0,0,1,0-5.14c1-5.73,4.47-10.81,8.24-15.12,8.26-9.45,19.92-14.67,32.12-16.8,12.85-2.24,26.14-1.52,38.93.72,11.31,2,23.56,4.76,32.84,11.92,9.75,7.52,12.72,18.75,11,30.62-.39,2.69,3.75,3.57,4.15.86,1.69-11.4-.3-22.79-8.53-31.29-8.61-8.9-21.27-12.67-33-15.18-25.69-5.48-58.35-6.17-78.31,13.87-5.07,5.1-9.7,11.5-11.32,18.63-.58,2.55-.94,5.66-.07,8.2s4.91,1.3,4-1.29Z"/><path class="cls-8" d="M458.89,138.32c6.27.59,12.57,1,18.85,1.19,9.79.36,20,.72,29.64-1.35,2.66-.58,1.35-4.61-1.29-4-9.24,2-19.19,1.51-28.57,1.16-5.93-.22-11.86-.55-17.77-1.1-2.68-.25-3.57,3.89-.86,4.14Z"/><path class="cls-8" d="M432.29,134.71c4.49-10.05,15.28-17.39,25.93-19.73a50.9,50.9,0,0,1,20.13.09c2.68.49,3.55-3.66.86-4.15-11.22-2.06-22.86-1.39-33.07,4a42.74,42.74,0,0,0-15.57,14.29,25.23,25.23,0,0,0-2.07,3.6c-1.1,2.48,2.67,4.39,3.79,1.89Z"/><path class="cls-8" d="M480.44,127.17a52.63,52.63,0,0,1,11.57-1A44,44,0,0,1,515.77,133c2.27,1.49,4.16-2.3,1.9-3.79-10.92-7.18-25.84-9.12-38.52-6.09-2.66.63-1.35,4.66,1.29,4Z"/><path class="cls-8" d="M415.55,131c0-.17,0-.34,0-.51l0-.54c0-.19-.07.62,0,.05,0-.15,0-.31.05-.46.08-.69.2-1.38.35-2.07.09-.41.2-.82.31-1.22.06-.2.11-.39.17-.58l.12-.37c.14-.45,0,.08,0-.09A21,21,0,0,1,426,114a34.78,34.78,0,0,1,12.66-4.19,2.17,2.17,0,0,0,2-2.23,2.13,2.13,0,0,0-2.22-2c-7.85,1.17-15.76,4-21.11,10.13a24.64,24.64,0,0,0-5.79,12.48,18.27,18.27,0,0,0-.23,3.05c.09,2.73,4.32,2.5,4.23-.22Z"/><path class="cls-8" d="M476.47,149.36c4.59,1,9.23,1.77,13.88,2.43,3.76.54,7.54,1,11.33,1.16a31.62,31.62,0,0,0,9.26-.53c2.66-.65,1.35-4.68-1.29-4a29.92,29.92,0,0,1-8.37.34c-3.63-.2-7.24-.66-10.83-1.19-4.4-.64-8.78-1.39-13.12-2.31-2.67-.57-3.54,3.57-.86,4.14Z"/><path class="cls-8" d="M518.54,150.2a5.43,5.43,0,0,1,.32.51c.13.21.25.43.36.65s.45.91.26.5a26.76,26.76,0,0,1,1.88,5.78c1.55,7.3.21,15-2.38,21.91-.94,2.52,2.83,4.45,3.79,1.89,2.93-7.82,4.36-16.17,2.76-24.46a24.16,24.16,0,0,0-3.42-9.06c-1.56-2.23-5.13.05-3.57,2.28Z"/><path class="cls-8" d="M525.65,163.66a20.91,20.91,0,0,0,1.58-2.49,7.77,7.77,0,0,0,1.29-3.33c-.07.35-.15.7-.22,1,2.16-5.18,3.55-10.92,1.69-16.4a16.82,16.82,0,0,0-4.33-6.93c-2-1.82-4.86,1.32-2.83,3.15.13.11.24.24.36.36s.27.29.4.44c-.42-.48.13.18.24.32a14.08,14.08,0,0,1,2.17,4.08,13.49,13.49,0,0,1,.5,6.34,30.21,30.21,0,0,1-1.08,4.26c-.35,1.12-1.13,2.39-1.13,3.57.07-.35.15-.71.22-1.06a20.23,20.23,0,0,1-2,3.81,2.19,2.19,0,0,0,.16,3,2.14,2.14,0,0,0,3-.16Z"/><path class="cls-8" d="M524.4,158.6c4.46,10,11.11,20.23,19.79,27.06,5.91,4.65,13.28,7,19.77,10.77,5.45,3.13,10.74,7,14,12.49,4.36,7.46,3.58,16.48,1.75,24.58-.6,2.66,3.55,3.52,4.15.86,1.68-7.46,2.47-15.51-.09-22.87-2.1-6-6.33-10.9-11.41-14.65-6.06-4.48-12.91-7.58-19.68-10.83-7-3.39-12.41-9.5-16.79-15.83a92.7,92.7,0,0,1-5.55-9.14c-.53-1-1-2-1.52-3-.36-.75-.1-.17-.36-.76-1.1-2.47-5.14-1.2-4,1.29Z"/><path class="cls-8" d="M533.71,191.63c-.59.07-1-.47-.51,0a9.34,9.34,0,0,0,1,.61c.77.49,1.84,1.3,2.75,2a73.51,73.51,0,0,1,8.4,7.77c6.31,6.82,11.87,15.51,12.2,25.06.23,6.52-2.33,12.53-6.32,17.59-1.68,2.13,1.46,5,3.15,2.84,7.78-9.87,9.46-21.9,4.26-33.39-4-8.91-10.84-16.6-18.44-22.68-1.51-1.21-4.52-4.29-6.72-4-2.69.32-2.49,4.55.22,4.23Z"/><path class="cls-8" d="M499.13,169a31.48,31.48,0,0,0,13.24,20.86,28.59,28.59,0,0,0,11.52,4.31c2.68.41,3.56-3.73.86-4.14a25.9,25.9,0,0,1-9.38-3.26,21.41,21.41,0,0,1-3.31-2.45c-.51-.45-1-.92-1.47-1.4s-.85-.91-1.16-1.3a31.11,31.11,0,0,1-3.85-6.15c.19.4-.11-.24-.15-.33s-.19-.43-.28-.65c-.19-.45-.37-.92-.54-1.38-.28-.76-.53-1.54-.75-2.32-.17-.59-.33-1.2-.46-1.8,0-.24-.2-1,0,0l0-.18a2.18,2.18,0,0,0-2.23-2,2.13,2.13,0,0,0-2,2.22Z"/><path class="cls-8" d="M517.21,191.93a306.33,306.33,0,0,0,25.64,27.66,63.92,63.92,0,0,0,9,7.29c2.29,1.46,4.17-2.33,1.89-3.79-5.85-3.75-11-9.29-15.82-14.33s-9.78-10.53-14.48-16l-1.25-1.45-.48-.57-.18-.21-.77-.91a2.19,2.19,0,0,0-2.92-.64,2.13,2.13,0,0,0-.65,2.92Z"/><path class="cls-8" d="M443.63,134.71a9.33,9.33,0,0,1,.52-1c.21-.37.44-.72.66-1.08s-.29.41-.07.1l.24-.34.55-.72c.41-.51.85-1,1.3-1.48.25-.26.5-.5.75-.74l.44-.4.19-.17c.25-.22-.41.32,0,0,.67-.52,1.34-1,2.05-1.48.37-.23.74-.45,1.13-.66l.55-.29.37-.18.09,0a21.5,21.5,0,0,1,7-1.78c2.72-.23,2.5-4.46-.22-4.23a23.83,23.83,0,0,0-18.61,11.22,9.42,9.42,0,0,0-.75,1.4,2.17,2.17,0,0,0,.94,2.84,2.13,2.13,0,0,0,2.84-.95Z"/><path class="cls-8" d="M487.2,230.21c3.4,3,6.62,6.16,9.71,9.44,5.29,5.6,10.75,11.79,13.85,18.91,1.09,2.48,5.13,1.21,4-1.28-3.33-7.64-8.9-14.2-14.54-20.23a141.65,141.65,0,0,0-10.22-10c-2.06-1.79-4.89,1.35-2.84,3.15Z"/><path class="cls-8" d="M437.54,176.73a7.84,7.84,0,0,1,.18-.81c0-.13.07-.27.11-.4s.23-.7.09-.28.06-.18.12-.31.17-.41.26-.62c.2-.46.43-.9.67-1.33l.42-.69c.05-.09.31-.46.09-.14l.17-.24a15.93,15.93,0,0,1,1.24-1.48c.23-.24.47-.47.71-.7l.36-.33c.21-.2-.34.27-.11.1l.28-.23a15.77,15.77,0,0,1,2.17-1.45c.21-.13.43-.24.65-.36l.3-.15c.28-.15-.46.2.05,0s1-.42,1.5-.61a2.11,2.11,0,1,0-1.28-4,18.59,18.59,0,0,0-11.86,12.1,7,7,0,0,0-.26,1.12,2.11,2.11,0,1,0,4.14.86Z"/><path class="cls-8" d="M425,183.82a19.89,19.89,0,0,0-9.22,7.57,11.77,11.77,0,0,0-1.69,4.77,2.12,2.12,0,0,0,4.15.85q.06-.47.15-.93c0-.17.08-.34.13-.51a2.46,2.46,0,0,0,.15-.51s-.19.49-.05.16a1.34,1.34,0,0,1,.07-.18c.05-.14.11-.28.17-.42a9.51,9.51,0,0,1,.46-.9c.14-.25.33-.49.45-.75-.28.57-.08.13,0,0s.2-.27.3-.39a13.94,13.94,0,0,1,1.21-1.34c.19-.19.39-.38.6-.56s.56-.44,0,0l.35-.28c.41-.33.84-.64,1.27-.94a22.39,22.39,0,0,1,2.16-1.29l.44-.22c.51-.25-.48.22-.12.06l.28-.13a2.12,2.12,0,1,0-1.29-4Z"/><ellipse class="cls-8" cx="445.43" cy="180.74" rx="3.69" ry="4.62" transform="translate(2.66 367.9) rotate(-45)"/><path class="cls-8" d="M431.36,195.93c1.8,1.8,2.09,4.43.66,5.87s-4.07,1.14-5.88-.66-2.1-4.43-.66-5.87S429.55,194.12,431.36,195.93Z"/><path class="cls-8" d="M435.88,196.05c-.08,1.37-.1,2.75-.09,4.13a29.45,29.45,0,0,0,.77,7.37,5.81,5.81,0,0,0,1.56,2.89,4.42,4.42,0,0,0,3.28.91,19,19,0,0,0,6.74-2.4,45.51,45.51,0,0,0,4-2.31,2.12,2.12,0,1,0-2.28-3.57c-1,.62-1.95,1.2-3,1.75-.44.24-.89.48-1.35.71l-.71.35c-.17.08-.24,0,.14-.07a4.31,4.31,0,0,0-.49.22,15.63,15.63,0,0,1-2.83,1,1.32,1.32,0,0,1-.32.07s.57-.07.11,0l-.58,0a1.22,1.22,0,0,0-.27,0s.53.09.28,0a1,1,0,0,0-.24,0c-.46-.05.43.17.16.06-.52-.23.38.33.06,0s.31.51.17.2a2.53,2.53,0,0,0-.13-.22l-.09-.15c-.2-.32.19.51.07.14s-.17-.46-.24-.7-.13-.46-.18-.69-.05-.25-.08-.37c-.1-.45.08.49,0,0s-.16-1.09-.21-1.65c-.11-1.14-.16-2.29-.18-3.43,0-1.51,0-3,.09-4.54a2.13,2.13,0,0,0-2.23-2,2.17,2.17,0,0,0-2,2.22Z"/><path class="cls-8" d="M454.7,216.76a43.51,43.51,0,0,0,4.09-3.44,6.41,6.41,0,0,0,1.11-1.38,2.12,2.12,0,0,0,.12-1.6,2.17,2.17,0,0,0-1.07-1.25,2.14,2.14,0,0,0-1.59-.12,2.34,2.34,0,0,0-1.25,1.07l-.06.1.32-.46a7.17,7.17,0,0,1-.83.91c-.4.38-.82.75-1.23,1.1l.43-.36c-.76.64-1.53,1.26-2.32,1.86a2.28,2.28,0,0,0-.93,1.36,2.12,2.12,0,0,0,.29,1.57,2.15,2.15,0,0,0,1.35.93,2.1,2.1,0,0,0,1.57-.29Z"/><path class="cls-8" d="M528,131.2a8.39,8.39,0,0,1,3.61-4.54c2.4-1.24,2.06,1.43,1.9,3-.38,3.76.7,7.14,4.75,8,1.46.31,3,.19,4.43.43,1.77.29,2,1.37,2.26,3s.68,4-.51,5.4a10.74,10.74,0,0,1-2.09,1.56,7.74,7.74,0,0,0-2,2.15,2.14,2.14,0,0,0,.48,2.52c1.27,1.36,4.06,4.3,2.08,6.16-1.79,1.68-5.65,1.65-7.89,1.37-2.68-.34-3.57,3.81-.85,4.15,4,.5,10.08.23,12.58-3.5,2.7-4-.3-8.36-3.09-11.33l.48,2.52c.6-.94,2-1.46,2.84-2.21a6.92,6.92,0,0,0,1.9-2.83c.84-2.34.52-4.86.06-7.25-.42-2.18-1.2-4.19-3.32-5.23-1.78-.88-3.77-.71-5.68-.94-.76-.09-1.71-.16-2.14-.86-.6-1-.13-2.53,0-3.62.18-2.1-.08-4.45-1.75-5.94-4.46-4-10.3,2.1-11.85,6.08-1,2.51,2.79,4.44,3.79,1.89Z"/><path class="cls-8" d="M494.38,242.3a94.82,94.82,0,0,0-5,16.94c-1.87,9.34-2.8,20.15,1.81,28.87,6.06,11.47,20.44,12.29,31.76,10,15.1-3,27.41-13.39,36.4-25.49,4.74-6.39,8.37-13.51,13.25-19.8a110.89,110.89,0,0,1,9.86-11.14,44.7,44.7,0,0,1,4.09-3.68,10.25,10.25,0,0,1,1.37-1c.48-.28.4-.23.43-.23,2.71.2,2.46-4-.22-4.23-1.8-.13-3.7,1.7-4.95,2.75a78.41,78.41,0,0,0-7.56,7.36A125.19,125.19,0,0,0,561.45,262c-7,11.39-16.07,22-28.2,28.11a44.51,44.51,0,0,1-23.53,4.67c-4.83-.44-9.69-2.1-12.9-5.9-5.84-6.93-5.15-17.63-3.78-26a89.83,89.83,0,0,1,5.13-18.75c1-2.5-2.76-4.43-3.79-1.89Z"/><path class="cls-8" d="M498.5,236.94c-4.83,1.55-10.28,3.27-14.37,6.34-1.06.78-1.38,1.6-2.7,1.57-1.92,0-3.94-1.13-5.83-1.45-4.08-.68-7.38.64-10.51,3.2a44.8,44.8,0,0,0-8.55,9.62,67.05,67.05,0,0,1-4.93,7c-2.43,2.75-5.36,5.56-6.86,9-1,2.17-1.25,4.43-2.32,6.61C438.29,287.18,433,295,430.19,304c-.56,1.75,1.8,3.18,3.22,2.21a19.25,19.25,0,0,1,13.53-3c12.57,2.19,18.81,17.77,20.43,28.84a111.51,111.51,0,0,1,1.13,16.84c0,2.28,3,2.5,4,.83l5.23-8.68c1.4-2.33-2.39-4.22-3.79-1.9l-5.22,8.69,4,.83c.11-13.44-1.59-27.42-9.47-38.71-6-8.59-15.48-13.27-25.81-10.17a22.8,22.8,0,0,0-6.31,2.87l3.21,2.21c2.44-7.69,6.89-14.67,10.65-21.76a30,30,0,0,0,3.19-7.39c.68-3.08,2.76-5.31,4.82-7.65a42.4,42.4,0,0,0,5.57-7.17,42.92,42.92,0,0,1,6.74-8.77c3.13-3.19,6.17-5.38,10.76-4.28,2.83.68,6.24,2.33,8.92.37a32.34,32.34,0,0,1,3.25-2.52,42,42,0,0,1,5-2.33c2.15-.87,4.34-1.67,6.55-2.37,2.6-.84,1.31-4.87-1.29-4Z"/><path class="cls-8" d="M469.31,258.7c-1.74,2.64-2.39,6.29-2.82,9.35-1.41,10.09.25,20.44,2.69,30.24.66,2.65,4.69,1.34,4-1.29-2.29-9.15-3.93-19-2.54-28.42.45-3,.85-5.62,2.41-8s-2.3-4.15-3.78-1.89Z"/><path class="cls-8" d="M459.35,262c-2.82,14.21-.3,30.87,8.15,42.74,1.58,2.21,5.15-.06,3.57-2.29-7.84-11-10.19-26.4-7.58-39.59.53-2.67-3.61-3.54-4.14-.86Z"/><path class="cls-8" d="M521.14,446.91a94.35,94.35,0,0,1-27.13-8c.31.95.63,1.89.94,2.84,1.17-2.8,3.89-4.79,6.67-5.87a2.21,2.21,0,0,0,1.47-2.13c0,.54.14-.52.23-.77.19-.54.42-1.07.63-1.6.76-1.84,1.56-3.67,2.28-5.52a63.72,63.72,0,0,0,4.12-14.94,36,36,0,0,0-9.72-30.43c-3.58-3.81-7.38-7.39-11-11.17-3.3-3.46-6.93-7.19-9-11.57-1.37-2.93-1-6.39-1.32-9.55-.44-4.55-1.05-9.09-1.69-13.62q-1.55-10.89-3.39-21.74c-.45-2.66-4.68-2.46-4.23.22q1.56,9.19,2.91,18.43c.7,4.78,1.37,9.57,1.9,14.37.38,3.38.22,7,.85,10.29.79,4.15,3.65,7.79,6.29,10.94,3.43,4.11,7.24,7.88,11,11.67,3.13,3.14,6.54,6.24,8.93,10a31.16,31.16,0,0,1,4.53,18.58,56.26,56.26,0,0,1-4.34,17.38c-1.1,2.76-3.34,6.17-3.28,9.24l1.48-2.13c-3.8,1.47-7.58,4.16-9.17,8a2.15,2.15,0,0,0,.94,2.84,98.31,98.31,0,0,0,28.17,8.35c2.69.34,3.57-3.8.86-4.15Z"/><path class="cls-8" d="M433.58,301.79q-6.1,10.44-11.93,21c-5.77,10.47-11.9,21.09-16.16,32.3-1,2.52,2.82,4.45,3.79,1.89,4.26-11.2,10.38-21.82,16.16-32.3q5.83-10.57,11.92-21c1.38-2.35-2.41-4.24-3.78-1.9Z"/><path class="cls-8" d="M467.17,341.4c-10.22,15.89-21.1,32-34.09,45.79-4.22,4.47-9.15,8.11-13.71,12.23-2.88,2.6-5.47,5.78-8.6,8.07a9.64,9.64,0,0,1-7.16,2.11,33,33,0,0,1-8.66-2.9c-3.47-1.59-6.21-5.5-8.63-8.32-2.86-3.35-5.58-6.81-8.22-10.33a298.32,298.32,0,0,1-27.26-43.78c-1.23-2.43-4.79-.13-3.57,2.28a301.72,301.72,0,0,0,24.86,40.52c5.21,7.2,10.72,14.95,17.37,20.9,2.32,2.08,4.9,3,7.75,4.13,3.46,1.38,7.25,2.45,11,1.41s6.44-3.67,9.07-6.28c4.67-4.62,9.8-8.64,14.68-13,9.12-8.16,16.48-18.53,23.6-28.41,5.31-7.37,10.47-14.86,15.39-22.51,1.47-2.28-2.33-4.17-3.79-1.89Z"/><path class="cls-8" d="M341.23,292.85c8.46,11.11,17.12,22.18,26.46,32.58,4.62,5.14,9.83,9.56,15,14.11A207.08,207.08,0,0,1,403,359.33c6.77,7.8,13.33,17.15,14.55,27.68.32,2.69,4.55,2.49,4.23-.23-2.21-19-18.24-34.21-31.67-46.34-5.45-4.92-11.31-9.47-16.42-14.76-6.19-6.41-11.78-13.43-17.34-20.38q-5.85-7.31-11.53-14.73c-1.65-2.16-5.22.11-3.57,2.28Z"/><path class="cls-8" d="M445.11,294.29l.37-.11.43-.1.28-.06c.33-.07.22.11-.15,0a2.55,2.55,0,0,0,.72-.1c.28,0,.55-.06.83-.08a7.11,7.11,0,0,1,1.9,0c-.62-.13-.06,0,.1,0l.52.07a10.34,10.34,0,0,1,1.08.22c.18,0,.36.1.54.15s.18.06-.11,0l.27.1a10.5,10.5,0,0,1,1.08.49l.53.31.26.17c-.25-.18-.28-.19-.08,0a11.64,11.64,0,0,1,1,.85l.48.5c.16.18.15.17,0,0l.22.29a13.52,13.52,0,0,1,.85,1.28,2.14,2.14,0,0,0,2.93.65,2.17,2.17,0,0,0,.64-2.93A12.55,12.55,0,0,0,452,290a16,16,0,0,0-7-.06,10.67,10.67,0,0,0-1.27.3,2.12,2.12,0,1,0,1.29,4Z"/><path class="cls-8" d="M582.32,230.53a67.17,67.17,0,0,0,14.17,7.24c3.09,1.08,6,1.63,9.17.81,1.54-.39,3.43-1.11,5.06-.81,1.86.34,3.42,2.47,4,4.13s.36,3.73,1.07,5.49,2.38,2.49,3.77,3.76c3.19,2.92,4.58,7.47,7.48,10.69s5.77,5.87,8.24,9.24c6,8.26,9.9,17.85,12.69,27.65l3-2.54a25.78,25.78,0,0,0-11.63-3.45c-8.88-.55-16.28,4.33-21.1,11.53s-7.22,15.94-8.84,24.39l3-1.46a8.82,8.82,0,0,1-4.45-3.74c-2-3.2-1.33-7.37-3.48-10.52-1.45-2.12-4-2.92-5.76-4.77-2.26-2.43-5-6.28-5.36-9.67-.3-2.7-4.53-2.49-4.23.22.42,3.78,2.7,7.5,5,10.46a17.51,17.51,0,0,0,3.87,3.91,11.82,11.82,0,0,1,2.95,2.13c1.07,1.42,1.26,3.65,1.59,5.32a14.51,14.51,0,0,0,2.4,6,12.53,12.53,0,0,0,5.61,4.49,2.15,2.15,0,0,0,3-1.47c2.07-10.8,5.66-24.9,16.23-30.61,4.91-2.65,11.1-2.36,15.82-.56a20.42,20.42,0,0,1,3.48,1.63c1.63,1,3.42-.92,3-2.54-2.64-9.27-6.23-18.4-11.61-26.44a79.47,79.47,0,0,0-9.56-11.31c-2.48-2.53-4-5.74-5.93-8.64a16.13,16.13,0,0,0-3.93-4.14c-2-1.44-1.39-3.4-2-5.59-1-3.45-4-7.14-7.66-7.74-3.41-.55-6.54,1.63-9.88,1.16-6.08-.85-12.18-4.69-17.25-8-2.28-1.49-4.16,2.31-1.9,3.79Z"/><path class="cls-8" d="M596.8,252.27a31.7,31.7,0,0,0-5.68,8.92c-3.81,8.25-5.17,17.39-5,26.42.07,2.73,4.29,2.51,4.23-.22-.2-8.4,1.05-16.95,4.66-24.6a26,26,0,0,1,4.89-7.69c1.91-1.95-1.24-4.78-3.14-2.83Z"/><path class="cls-8" d="M597.17,241.49c.51-.43.36-.15-.17,0s-1,.29-1.44.46a22.46,22.46,0,0,0-4.85,2.43c-5.17,3.45-8.76,8.83-11,14.57a61.83,61.83,0,0,0-3.63,16.63c-.24,2.69,3.9,3.58,4.15.86.73-8.06,2.43-16.78,7.44-23.39a21.58,21.58,0,0,1,5-4.93,22.33,22.33,0,0,1,2.4-1.43l.32-.15.29-.13c.32-.13.64-.27,1-.39a9.37,9.37,0,0,0,2.72-1,2.18,2.18,0,0,0,.65-2.92,2.14,2.14,0,0,0-2.93-.65Z"/><path class="cls-8" d="M610.24,326q7.44,16.54,15,33c1.38,3,2.76,6,4.19,9,1.18,2.46,4.74.15,3.57-2.28-5.85-12.14-11.28-24.49-16.82-36.78-.63-1.41-1.27-2.81-1.9-4.22-1.11-2.46-5.15-1.19-4,1.29Z"/><path class="cls-8" d="M632.56,359.37c-2.89,5.69-5.89,11.29-8,17.34-2.19,6.2-2.32,13.74-4.7,19.35-1.06,2.5,2.71,4.42,3.78,1.9,2.63-6.19,2.54-13.08,4.72-19.39,2.08-6,5.12-11.63,8-17.31,1.24-2.42-2.55-4.33-3.79-1.89Z"/><path class="cls-8" d="M648,298.73q4.51,16.06,8.81,32.19c2.16,8.11,4.3,16.23,6.3,24.38.81,3.28,1.6,6.57,2.32,9.87.27,1.21.49,2.44.76,3.65-.23-1,.07-.83,0-.35s-.11,1-.17,1.45c-1.07,8.6-2.14,18.5-6.48,26.14-1.34,2.37,2.45,4.27,3.79,1.9,4.13-7.27,5.35-16.47,6.5-24.63.28-2,.76-4.11.37-6.13-.59-3.06-1.31-6.1-2-9.13-3.83-16.08-8.21-32-12.59-48-1.16-4.22-2.32-8.44-3.51-12.65-.74-2.63-4.77-1.33-4,1.29Z"/><path class="cls-8" d="M618.84,398.66a478.82,478.82,0,0,1,4.53-50.87c.36-2.69-3.78-3.57-4.15-.86a488.63,488.63,0,0,0-4.61,51.95c-.08,2.73,4.15,2.49,4.23-.22Z"/><path class="cls-8" d="M569.86,462.91a83.11,83.11,0,0,0-13.75,7.16c-3.62,2.35-6.63,4.83-10.86,6.13C537.91,478.47,527,479,520.59,474c-5.88-4.64-6.49-11.94-2.51-18.31,3.42-5.46,8.7-9.79,13.83-13.57,9-6.61,18.79-12.05,28.7-17.09,19.86-10.1,40.62-19.45,62.33-24.77,14.75-3.61,44.83-8.3,48,13,.76,5.1-.31,10.14-1.33,15.12a149.39,149.39,0,0,1-9.16,29.74c-6.3,14.51-15.41,28.12-27.8,38.13-8.58,6.93-18.77,12.36-29.7,14.33-9,1.61-21.62,1.43-22.84-10.07a56.27,56.27,0,0,1,.2-11.31c.26-2.68-3.88-3.57-4.15-.86-.78,7.84-1.77,18.27,5.44,23.54,3.79,2.77,8.7,3.55,13.3,3.62,10.73.18,21.46-3.75,30.59-9.13,13.29-7.83,23.94-19.56,31.8-32.74a131.1,131.1,0,0,0,12-27.17c2.83-8.85,5.57-18.41,6.08-27.74.45-8.13-2.43-16-9.34-20.7-9.24-6.24-21.83-5.73-32.36-4.17C613,396.86,593.14,405,574.29,413.68a322,322,0,0,0-35.8,18.83c-7.36,4.62-14.77,9.77-20.54,16.34-5.93,6.77-9.36,15.63-4.05,23.8,3.78,5.82,10,8.38,16.73,9.08a41.08,41.08,0,0,0,14.27-1c4.62-1.17,8.27-3.38,12.09-6.12a69.37,69.37,0,0,1,14.16-7.64c2.51-1,1.24-5.06-1.29-4Z"/><path class="cls-8" d="M580.85,482.24v0a1.52,1.52,0,0,0-.21-.78,1.57,1.57,0,0,0-.48-.68,1.52,1.52,0,0,0-.73-.41,1.46,1.46,0,0,0-.8-.13l-.53.09a2.08,2.08,0,0,0-.93.6l-.32.47a2.07,2.07,0,0,0-.22,1.06v0a1.52,1.52,0,0,0,.21.78,2.22,2.22,0,0,0,2,1.23l.53-.1a2.08,2.08,0,0,0,.93-.6l.32-.47a2,2,0,0,0,.22-1.06Z"/><path class="cls-8" d="M603.73,471.67c1-.59,2.12-1.12,3.19-1.65,0,0,.37-.17.1,0l.22-.1.76-.34c.52-.23,1-.45,1.58-.65a23.1,23.1,0,0,1,3.15-1l.31-.07c.38-.08-.41.05,0,0l.39-.05c.63-.09-.64,0-.09,0,.07,0,.16.07.23.06s-.64-.3-.38-.13a1.88,1.88,0,0,0,.46.25c-.13,0-.62-.51-.3-.19l.17.15.2.19c.37.33-.34-.46-.19-.22s.46.67.66,1-.24-.64,0,.05c.09.23.18.47.25.71s.11.43.17.65c.12.47-.06.05,0-.17a2.26,2.26,0,0,0,.07.43,10.39,10.39,0,0,1,.08,1.58c0,.12,0,.24,0,.36,0,.38.08-.65,0-.13,0,.3-.07.6-.13.9s-.11.52-.18.78-.08.28-.12.42c-.16.59.17-.39,0,0a15.8,15.8,0,0,1-.79,1.66l-.22.35c-.21.37.39-.51,0-.06-.22.28-.43.57-.67.83s-.44.47-.67.69l-.39.36s.45-.36.23-.2l-.31.25a16.43,16.43,0,0,1-2.22,1.38c-.52.27.33-.13-.22.1l-.71.29c-.47.18-.94.33-1.42.48s-1.11.3-1.67.41l-.34.07c-.27.06.33,0-.14,0l-.95.14a33.08,33.08,0,0,1-4.22.25,2.58,2.58,0,0,0,.27,5.16c4.69,0,9.69-.79,13.67-3.43a14.07,14.07,0,0,0,5.92-8.15,12.7,12.7,0,0,0-.45-7.85c-1-2.36-2.92-4.66-5.72-4.59-2.49.06-5.06,1.21-7.3,2.21-1.71.77-3.41,1.59-5,2.51a2.58,2.58,0,1,0,2.78,4.35Z"/><path class="cls-8" d="M336.72,233.65c16.67-4.3,33.53-8.12,50.51-10.93,5.92-1,11.88-1.84,17.88-2.24l-1.74-.9c.28.37,1,1.22.92,1.72s-.16.25-.59.53a15.06,15.06,0,0,1-3.19,1.11q-5.88,2-11.82,3.8c-11.23,3.49-22.55,6.77-34,9.51a153.39,153.39,0,0,1-17.52,3.37c-2.48.29-2.29,4.18.2,3.88,11.68-1.38,23.2-4.57,34.5-7.73,10.06-2.81,20.08-5.83,30-9.18,2.6-.87,6.35-1.63,6.38-5,0-1.54-1-4.24-2.59-4.84-1-.38-2.64,0-3.71.12-1.45.13-2.91.29-4.36.46-12.74,1.55-25.37,4.16-37.89,6.92-8.08,1.79-16.13,3.66-24.14,5.73-2.43.62-1.23,4.33,1.18,3.71Z"/><path class="cls-8" d="M510.41,374.39c5.12-.4,10.28-.45,15.41-.34,9.6.2,19.42,1,28.59,4,2.59.84,3.43-3.31.86-4.15-9.32-3-19.34-3.84-29.1-4.07a157.71,157.71,0,0,0-16,.32c-2.72.21-2.5,4.44.22,4.23Z"/><path class="cls-8" d="M596.48,332.51a64,64,0,0,1-4.35,7.53,48.93,48.93,0,0,1-11.26,12.52,2.17,2.17,0,0,0-.65,2.92,2.13,2.13,0,0,0,2.93.64,53.75,53.75,0,0,0,12.49-13.76,65,65,0,0,0,4.63-8c1.17-2.45-2.62-4.36-3.79-1.89Z"/><path class="cls-8" d="M605.41,348.07c-.92,4.78-2,9.52-3.28,14.22-1,3.79-2.09,7.57-3.47,11.24-1,2.8-2.26,5.94-4.09,8.16s1.4,4.94,3.14,2.84a30.69,30.69,0,0,0,4.61-8.75c1.47-3.88,2.67-7.86,3.75-11.87,1.34-5,2.52-10,3.49-15,.51-2.67-3.64-3.55-4.15-.86Z"/><path class="cls-8" d="M497.28,440.33c-14.09,1.47-28.19,5.65-41.56,10.15-27.64,9.3-54.74,22.42-78.71,39.1a89.17,89.17,0,0,0-12.08,9.47c-1.94,1.92,1.21,4.75,3.14,2.83a73.63,73.63,0,0,1,8.8-7,273.91,273.91,0,0,1,31.49-19.19C432.12,463,457.46,452.82,483.8,447a122,122,0,0,1,13.7-2.44c2.7-.28,2.49-4.51-.22-4.23Z"/><path class="cls-8" d="M627.59,409.25a34.05,34.05,0,0,1,16.07-7.89,30.67,30.67,0,0,1,9.17-.32c2.53.3,5.68.78,7,3.29a4.73,4.73,0,0,1,.22,3.91c-.62,1.52-1.93,2.2-3.34,2.84a24.25,24.25,0,0,0-6.05,4c-1.72,1.48-3.77,3.41-6.16,3.58-2.9.2-4.09-2.87-6.3-4.15-3-1.72-6.06-.75-9.23-.5-1.28.1-3.27-.2-3.09-1.88a4.93,4.93,0,0,1,1.73-2.85c1-.93-.55-2.27-1.51-1.38-1.54,1.43-3.12,4-2,6.12,1.74,3.14,5.9,1.67,8.66,1.48a6.78,6.78,0,0,1,5.34,1.57c1.11,1.06,2,2.37,3.43,3,2.61,1.23,5.39.26,7.62-1.29s4.31-4,6.92-5.25c1.61-.79,3.4-1.32,4.65-2.67a6.6,6.6,0,0,0,1.69-3.83c.67-7.68-9.24-8.44-14.64-8.17a35.88,35.88,0,0,0-21.72,9C625.05,408.77,626.6,410.11,627.59,409.25Z"/><path class="cls-8" d="M643.84,425c3.07-1.05,13.36-3.15,11.38,3.21-1.46,4.66-6.5,7.24-10.81,8.63a68.45,68.45,0,0,1-8.24,1.94c-2.12.41-4.28,1.33-6.44,1.46-.28,0-.83.1-1.06-.1.23.2.05.15.23-.1a19.48,19.48,0,0,1,1.41-1.84,40.33,40.33,0,0,1,3.24-3,4.24,4.24,0,0,0,1.77-3.37c0-1.38,0-2.18,1.08-3.14a14,14,0,0,1,3.25-1.87c1.38-.64,2.75-1.28,4.19-1.79,1.27-.46.72-2.39-.55-1.94a30.36,30.36,0,0,0-7.82,3.77,5.61,5.61,0,0,0-2.14,2.74,5.82,5.82,0,0,0-.13,2.08,2.46,2.46,0,0,1-1.16,2.15c-1.4,1.21-7.91,6.38-4.34,8.15,2.12,1.05,5-.33,7-.84,3.21-.78,6.47-1.19,9.64-2.16,5.25-1.6,11.24-4.72,12.9-10.4.74-2.51-.07-5-2.57-6.09-3.55-1.52-7.93-.59-11.43.6C642,423.51,642.55,425.44,643.84,425Z"/><path class="cls-8" d="M531.64,475.78a10.41,10.41,0,0,1-2.16-.21,4.65,4.65,0,0,1-3.44-2.22,5.1,5.1,0,0,1,.26-4.47,18,18,0,0,1,3.71-6.06,29.12,29.12,0,0,1,3.22-2.56,23.33,23.33,0,0,0,3.3-2.67c.31-.32.62-.67,1-1,1.75-1.92,3.94-4.34,7-4.21s5.15.06,7.93-1.72l1-.65a20,20,0,0,1,4.49-2.44,7.4,7.4,0,0,1,7.2,1.55,5.71,5.71,0,0,1,1.76,5.71c-.76,3.08-4.16,4.94-6.64,6.29l-1.06.59a27.32,27.32,0,0,0-5.72,4.9,46.27,46.27,0,0,1-3.71,3.55,23.67,23.67,0,0,1-13.33,5.26c-.55,0-1.11.1-1.67.16C533.71,475.66,532.67,475.78,531.64,475.78Zm12.69-21.31c-2.07,0-3.71,1.79-5.29,3.53-.34.37-.67.73-1,1.07a24.67,24.67,0,0,1-3.58,2.91,27.26,27.26,0,0,0-3,2.36,16.68,16.68,0,0,0-3.24,5.39,3.43,3.43,0,0,0-.31,2.65,2.71,2.71,0,0,0,2,1.12,15.4,15.4,0,0,0,4.59-.05c.6-.06,1.18-.13,1.76-.16a21.53,21.53,0,0,0,12.12-4.79,43.4,43.4,0,0,0,3.54-3.38,29.32,29.32,0,0,1,6.18-5.27l1.1-.61c2.26-1.23,5.07-2.76,5.6-4.94a3.64,3.64,0,0,0-1.13-3.64,5.27,5.27,0,0,0-5.08-1.1,17.42,17.42,0,0,0-4,2.2l-1,.66c-3.23,2.07-5.61,2.16-9.13,2.06Z"/><path class="cls-8" d="M431.29,544.84c.29-.15-.63.26,0,0s1-.42,1.46-.61c1.88-.74,3.81-1.37,5.75-2a172.37,172.37,0,0,1,24.46-5c13.61-2,27-6.17,40-10.36,9.83-3.15,19.58-6.53,29.27-10.07a10.77,10.77,0,0,1,6.06-.58c3,.62,4.57,2.82,5.31,5.72.24.94,0,0,.06.24s0,.35.07.52c0,.49.1,1,.14,1.48.56,7.29.36,14.67.28,22-.13,11.62-.44,23.23-.84,34.84-.82,23.52-1.72,47.12-4.08,70.54-.72,7.21-1.38,14.41-4.54,21-2.21,4.63-5.27,8.78-7.8,13.23a57,57,0,0,0-6.49,18.1,94.2,94.2,0,0,0-1.32,13.31c-.11,2.72,4.12,2.48,4.23-.22.32-8.28,1.45-16.67,4.83-24.3,2.18-4.92,5.27-9.28,8-13.89,4.19-7.08,5.87-14.27,6.8-22.31,2.67-23.15,3.51-46.58,4.38-69.86.46-12.23.82-24.46,1-36.7.13-8.19.31-16.43-.14-24.61-.18-3.27-.59-6.58-2.64-9.29-3-4-8.27-4.87-12.89-3.79a47,47,0,0,0-5,1.75q-7.68,2.78-15.4,5.38c-13.8,4.67-27.77,9.18-42,12.27-13.09,2.84-26.68,3.56-39.22,8.66-.69.28-1.37.57-2,.9-2.44,1.22-.14,4.78,2.28,3.57Z"/><path class="cls-8" d="M556.4,741.82c3.47,1.16,7.55-.59,10.18-2.84a8.62,8.62,0,0,0,2.87-4.2,11.15,11.15,0,0,1,.44-1.9c-.33.63-.52.22.13.23,2.87,0,7.55-1.15,8.37-4.33a6.86,6.86,0,0,0-1.65-5.69c-.07.85-.15,1.71-.22,2.56,2.44-3.26,4.13-7,6.19-10.53,3.12-5.28,7.07-10.1,9.8-15.59,5.26-10.62,8.61-22.35,11.93-33.68a817.76,817.76,0,0,0,23.34-104.09,496.6,496.6,0,0,0,5.69-62c.07-2.73-4.16-2.49-4.23.22-1,36.52-6.83,72.49-14.63,108.13-3.68,16.83-7.75,33.58-12.4,50.17-3.44,12.23-7,24.65-12.09,36.3-2.46,5.6-5.89,10.08-9.15,15.26-2.63,4.19-4.64,9-7.59,12.94a2.16,2.16,0,0,0-.21,2.56c.63.77,1.43,1.8.79,2.6s-3.72.75-4.62,1a5.67,5.67,0,0,0-2.14.84c-1.62,1.2-1.26,3-2.11,4.6-1.29,2.43-5.23,4.18-7.83,3.31s-3.42,3.29-.86,4.14Z"/><path class="cls-8" d="M560.75,739c.15,7.81-5.73,13.9-10.24,19.7-.82,1.06-1.65,2.11-2.48,3.16-.21.26-.4.54-.63.78s.73-.4.05-.08a23.76,23.76,0,0,1-11,2.23,31.39,31.39,0,0,1-23.62-13.14,31,31,0,0,1-3.65-7.1,9,9,0,0,1,0-6.76c1.57-4.91,4-9.56,5.14-14.61.56-2.52,1.07-4.73,2.93-6.65a11.88,11.88,0,0,1,2-1.61c.2-.13,1.29-.66.61-.37,2.48-1.08,1.21-5.12-1.29-4a14.2,14.2,0,0,0-7.16,7.24c-1,2.27-1.19,4.76-1.93,7.1-.89,2.84-2.08,5.59-3.13,8.37-1.31,3.48-2.85,7.11-1.76,10.83a36.2,36.2,0,0,0,3.31,7.67c4.92,8.54,13.41,14.14,22.88,16.47,6.5,1.6,16.44,1.51,21-4.26,5.84-7.38,13.41-15.15,13.21-25.16-.06-2.73-4.29-2.5-4.23.22Z"/><path class="cls-8" d="M514.27,727.78c-.5,2.76,1.08,6.19,2.34,8.51a21.3,21.3,0,0,0,11.8,9.85,65.05,65.05,0,0,0,20,3.88c5.94.12,12.09-1.3,16.07-6,1.76-2.08-1.38-4.92-3.14-2.84-3.36,4-8.55,4.75-13.48,4.61a63.53,63.53,0,0,1-17.4-3.4,17.62,17.62,0,0,1-10.06-8,17,17,0,0,1-1.62-4c-.14-.52-.21-1-.28-1.32s0-.92-.06-.43c.49-2.68-3.66-3.55-4.15-.86Z"/><path class="cls-8" d="M504.56,741.71c-3.94,8.33-8,16.63-12.17,24.83-2.32,4.5-4.51,9.7-8.52,13-3.3,2.68-7.08,4.14-9.63,7.73-3.2,4.49-4.15,9.94-6.24,14.94s-4.39,9.59-6.77,14.29c-5.34,10.54-11,20.91-16.67,31.27-2.7,4.94-5.95,9.76-8.1,15-3.17,7.68-1.6,15.11,1.92,22.39,1.12,2.33,4.5.14,3.39-2.16-3.22-6.68-4.24-13.28-1-20.1,2.12-4.41,4.78-8.61,7.13-12.91,5.48-10,11-20,16.15-30.23,2.44-4.76,4.84-9.56,7-14.47,2-4.68,3-9.87,5.56-14.3,2.19-3.81,5.72-5.22,9.06-7.75,4.09-3.1,6.47-7.52,8.82-12,4.8-9.1,9.26-18.39,13.65-27.68,1.11-2.34-2.48-4.15-3.59-1.8Z"/><path class="cls-8" d="M535,765.2c-10.21,11.8-20.64,23.91-29,37.12a67.79,67.79,0,0,0-5,10.1,133.74,133.74,0,0,0-6.36,18.43c-1.18,4.63-1.45,9.62-1.81,14.36s-.19,9.67-.09,14.48a44.66,44.66,0,0,0,.13,4.91c.36,2.47,1.82,5.09,2.93,7.28.9,1.76,2,3.41,3,5.07.75,1.19,2,2.72,2.18,4.16a5.13,5.13,0,0,1-4.76,5.35c-2.59,0-2.37,4,.21,4,4.72-.06,8.63-4.53,8.57-9.22,0-2.75-2.08-5.33-3.49-7.53a45.73,45.73,0,0,1-4.58-9.31c-.26-.73-.08.45-.1-.54,0-.73,0-1.46-.06-2.19-.06-2.42-.11-4.84-.13-7.25a144.48,144.48,0,0,1,.89-16.51,69.42,69.42,0,0,1,4-15.82A118.71,118.71,0,0,1,507.36,808c4.19-8.28,10.58-15.69,16.35-22.9q7-8.72,14.28-17.19c1.69-1.95-1.29-4.65-3-2.69Z"/><path class="cls-8" d="M529.74,727.91c7.54,9.2,21,10.53,31.74,7.2,2.6-.81,1.31-4.85-1.29-4-6.71,2.09-14,2.29-20.38-.81a21,21,0,0,1-5-3.23,18.09,18.09,0,0,1-1.36-1.27c-.22-.24-.8-.93-.15-.14a2.2,2.2,0,0,0-2.93-.65,2.14,2.14,0,0,0-.64,2.93Z"/><path class="cls-8" d="M442.14,888.57c0-1-.12.2-.19.5a15.75,15.75,0,0,0-.36,1.79,10.24,10.24,0,0,0,.48,5.29c2.43,5.85,9.8,5.7,15.12,5.86,3.3.1,8.23.37,9.91-3.22a18,18,0,0,0,1.31-7.22,6.9,6.9,0,0,0-.88-3.91,9.88,9.88,0,0,0-2.41-2.1A16.7,16.7,0,0,0,454.39,882c-2.24.09-5,.48-6.67,2.09a2,2,0,1,0,3,2.69c-.33.31-.49.33-.19.18a1.53,1.53,0,0,0,.27-.17c.38-.26-.21.06.12-.06a10.3,10.3,0,0,1,3-.68,12.34,12.34,0,0,1,7.93,2.09,21.83,21.83,0,0,1,2.07,1.55c.13.1.26.2.38.31s-.1-.12-.11-.12c.19.37,0,0,0,0a9.77,9.77,0,0,1,.2,1.24,15.68,15.68,0,0,1-.31,3.62c-.1.55-.22,1.09-.36,1.63a4.28,4.28,0,0,0-.15.51c-.05.24.22-.46,0-.07-.08.16-.18.34-.25.51s.26-.24.09-.14-.11.19-.2.23c-.34.16.42-.2.11-.09-.08,0-.15.13-.24.15-.39.09.13,0,.06,0s-.28.12-.43.16a8.67,8.67,0,0,1-.84.22c.41-.08,0,0-.2,0l-.72.07c-1,.08-2.08.09-3.12.07-2.89,0-6,0-8.82-.8a7.16,7.16,0,0,1-1.14-.46c-.22-.1-.43-.22-.64-.34,0,0-.28-.2-.1-.07s-.13-.1-.15-.13l-.47-.42-.18-.19c-.21-.22.2.27,0,0l-.28-.41c-.05-.07-.32-.6-.22-.39s-.12-.32-.15-.4-.09-.34-.14-.51c-.1-.35,0,0,0,.06,0-.1,0-.19,0-.29s0-.39,0-.59a10.65,10.65,0,0,1,0-1.13c0,.52.05-.4.09-.61a26,26,0,0,0,.58-3,2,2,0,0,0-2.11-1.9,2.07,2.07,0,0,0-1.91,2.11Z"/><path class="cls-8" d="M451.15,877.26c.67.13,1.34.29,2,.45s1.31.35,2,.54l1.08.35c.28.09-.32-.12-.05,0l.22.08.66.25a20.51,20.51,0,0,1,2.18,1l.45.26c.06,0,.59.38.31.19s.14.11.22.17l.43.37s.29.31.3.31-.3-.45-.13-.14a2,2,0,0,0,.13.18,13.1,13.1,0,0,1,.72,1.33c-.12-.25.13.29.16.37l.27.67c.2.49.38,1,.54,1.5a34,34,0,0,1,1.07,4,2,2,0,0,0,2.52,1.3,2,2,0,0,0,1.31-2.52,32.15,32.15,0,0,0-.92-3.5,16.55,16.55,0,0,0-2.9-6.05,11.5,11.5,0,0,0-4.06-2.66,36.07,36.07,0,0,0-5-1.7c-.89-.24-1.78-.46-2.68-.63a2,2,0,0,0-.81,3.94Z"/><path class="cls-8" d="M471.53,878.28a30.68,30.68,0,0,1,1.58,4.65c.57,2.27.22,4.56,1.73,6.53.36.47.77.91,1.16,1.37.15.18,0,0,0,0l.2.25c.17.23.33.45.49.69a2.41,2.41,0,0,1,.32,1,2.55,2.55,0,0,1,0,.39s.05-.37,0-.15-.16.63-.09.43-.13.27-.18.37-.18.32-.28.47c.21-.31-.16.18-.23.26s-.37.41-.56.61a5.67,5.67,0,0,1-.87.7,11.28,11.28,0,0,1-1.26.73,6,6,0,0,1-6.63-.91c-2-1.69-4.66,1.3-2.69,3a10,10,0,0,0,8.84,2.3,11.36,11.36,0,0,0,6.41-4,6.21,6.21,0,0,0,.63-7.19A28.08,28.08,0,0,0,478,887a2.14,2.14,0,0,1-.48-1c-.11-.65-.06-1.34-.15-2a27.52,27.52,0,0,0-2.05-7,2.07,2.07,0,0,0-2.53-1.31,2,2,0,0,0-1.3,2.53Z"/><path class="cls-8" d="M482,878.28c.38,1.74.78,3.48,1.24,5.21a7.55,7.55,0,0,0,1.11,2.61c.55.75,1.2,1.42,1.73,2.2a3.41,3.41,0,0,1,.76,2.23,5.64,5.64,0,0,1-1.34,3.13c-1.47,1.77-3.48,2.53-5.55,1.22a2,2,0,0,0-2.7.9,2.06,2.06,0,0,0,.9,2.7c5,3.16,10.75-.8,12.34-5.81a7.58,7.58,0,0,0-1.08-6.62c-.48-.7-1.06-1.31-1.57-2-.1-.13-.2-.26-.29-.4s-.28-.54-.17-.27,0-.19-.06-.26c-.08-.26-.15-.51-.22-.77-.47-1.76-.88-3.54-1.27-5.31a2,2,0,0,0-2.52-1.31,2.06,2.06,0,0,0-1.31,2.53Z"/><path class="cls-8" d="M488.9,875.4a21.56,21.56,0,0,0,1.06,5.14,9,9,0,0,0,1.9,3.24c.59.63,1.31,1.09,1.93,1.67.1.09.44.53.14.12a4.1,4.1,0,0,1,.36.56c-.2-.39.08.3.1.39-.05-.23,0,.4.05.49a6.06,6.06,0,0,1-.8,3.39,3.77,3.77,0,0,1-1.75,1.48,4.69,4.69,0,0,1-2.66.24c-2.55-.45-3.38,3.48-.82,3.94a8.3,8.3,0,0,0,9.91-7c.34-2.35.05-4.64-1.67-6.39-.49-.5-1.08-.89-1.6-1.36l-.38-.35c-.27-.26.12.2-.12-.12a5.35,5.35,0,0,1-.59-1,14.75,14.75,0,0,1-1-4.57c-.23-2.57-4.24-2.37-4,.22Z"/><path class="cls-8" d="M439.82,878.06a18,18,0,0,0-1.32,6,14.48,14.48,0,0,0,3.63,10.7,2,2,0,0,0,2.69-3c-.26-.3,0,0-.24-.29l-.45-.63c-.23-.36-.45-.73-.64-1.1-.07-.13-.07-.13,0,0-.06-.12-.11-.25-.16-.37s-.15-.37-.22-.56c-.13-.37-.24-.75-.34-1.13l-.12-.55c.07.37,0-.21,0-.24-.05-.36-.09-.72-.11-1.08s0-.7,0-1c0-.17,0-.34,0-.51s0-.22,0-.33c0,.21,0,.25,0,.11a18.92,18.92,0,0,1,.61-3.26c.06-.18.12-.36.17-.54.13-.44-.19.5,0,0,.05-.12.09-.25.15-.37a2.07,2.07,0,0,0-.9-2.7,2,2,0,0,0-2.7.9Z"/><path class="cls-8" d="M431.51,562.32a51.5,51.5,0,0,1,6.48,2,51.09,51.09,0,0,1,5.89,3.47,46.81,46.81,0,0,1,6.09,4.67c1.46,1.37,2,2,1.75,4a85.1,85.1,0,0,1-2.22,9.41c-.44,1.73-.87,3.47-1.21,5.23a23.06,23.06,0,0,1-.62,3.53c-1.41,3.87-6.71,6.7-10,8.69q-3.42,2.05-7,3.8c-.71.35-1.44.69-2.17,1-.32.14-1.77.53-.87.43-2.7.32-2.49,4.55.22,4.22a12,12,0,0,0,3.54-1.34c2.36-1.09,4.68-2.29,6.94-3.58,4.52-2.59,9.93-5.74,12.65-10.36,1.46-2.5,1.47-5.73,2.13-8.5.87-3.71,2.05-7.37,2.69-11.13.38-2.27.49-4.32-.89-6.25a26,26,0,0,0-6-5.46,67.54,67.54,0,0,0-8.1-5.14c-2.63-1.38-5.55-2-8.38-2.83-2.6-.81-3.44,3.34-.86,4.14Z"/><path class="cls-8" d="M385.78,597.69a65.67,65.67,0,0,0,1.3,8.81c.56,2.39,1.64,3.5,3.49,4.94,5.08,4,10.37,7.67,15.61,11.41,1.25.9,2.21,1.79,3.84,1.38,2.1-.53,4.17-1.45,6.22-2.15l17.09-5.93c2-.68,2.68-2,3.88-3.65l5.2-7.25c1.57-2.19-1.56-5-3.15-2.83l-6.19,8.63s-.92,1.3-.93,1.3c-.5-.33,1.77-.71.37-.39a38.9,38.9,0,0,0-3.89,1.35l-20.21,7,2.06.44c-4.72-3.36-9.44-6.74-14.09-10.2q-1.78-1.32-3.53-2.68a10.24,10.24,0,0,1-1.13-.94c-.32-.36-.23-.31-.2-.25-1.31-2.54-1.24-6.4-1.51-9.22s-4.49-2.49-4.23.23Z"/><path class="cls-8" d="M396.25,606.8a97.11,97.11,0,0,0,13.26-3,46.78,46.78,0,0,0,9.56-3.89,17.75,17.75,0,0,0,3.61-2.67,23.27,23.27,0,0,0,3.38-5c2.09-3.59,4.1-7.23,6-10.93,1.23-2.43-2.55-4.34-3.79-1.9-1.41,2.78-2.9,5.52-4.43,8.23-1.81,3.21-3.06,6.26-6.2,8.24-5.08,3.2-11.36,4.66-17.16,5.91-1.85.39-2.85.6-4.43.84-2.67.42-2.48,4.65.22,4.23Z"/><path class="cls-8" d="M427.56,573.14c.7,1.89,1.32,3.82,1.89,5.76.49,1.69.94,3.39,1.3,5.12l.12.61a1.12,1.12,0,0,1,.05.27c.08.45.15.91.21,1.36a18.09,18.09,0,0,1,.16,2.32,2.12,2.12,0,1,0,4.23-.22,39.73,39.73,0,0,0-2-10.56c-.59-2-1.22-4-2-5.95a2.12,2.12,0,1,0-4,1.29Z"/><path class="cls-8" d="M379.27,594.39l16.19,10.3,2.27,1.44a2.13,2.13,0,0,0,2.84-1,2.16,2.16,0,0,0-.94-2.84q-8.1-5.15-16.19-10.3l-2.28-1.44a2.14,2.14,0,0,0-2.84.95,2.17,2.17,0,0,0,.95,2.84Z"/><path class="cls-8" d="M424.21,621.57c10.55,3.58,21.08,7.26,31.53,11.14,5,1.86,10.36,3.52,15,6.13,3.2,1.79,7.67,3,10.28,5.66s.78,6.91-.13,9.88c-3.08,10.12-7.62,20-9,30.62-.35,2.68,3.8,3.57,4.15.86,1.29-10.05,5.47-19.57,8.52-29.17,1-3.24,2.44-7,1.91-10.43-.73-4.79-5.2-6.88-9.14-8.71-2.47-1.15-4.76-2.61-7.25-3.71-2.83-1.25-5.71-2.35-8.6-3.45-7.32-2.79-14.71-5.41-22.11-8q-7.17-2.52-14.36-5c-2.57-.87-3.41,3.28-.86,4.15Z"/><path class="cls-8" d="M451.45,582.84q13.37,11.82,27.11,23.23c5.45,4.51,10.92,9.07,16.75,13.09,6.57,4.52,14.53,6.76,21.91,9.62,1.9.73,3.81,1.48,5.68,2.32,1.29.57,3.2,1.19,4.2,2.27a7.72,7.72,0,0,1,1,3,19.58,19.58,0,0,1-.55,7.73c-1.48,5.59-5.38,10-9.88,13.39-3.16,2.42-6,4.71-7.85,8.31-2.49,4.75-3.72,10.2-5.59,15.22s-4.05,10.22-7.46,14.46c-3.72,4.64-9.07,6.76-13.94,9.93-3,1.94-6.46,4.21-8.27,7.38S473,720,470.87,723.23c-1.54,2.34-4.47,5.11-7.51,4.54s-3.34-2.58-2.48-5c1.61-4.63,4.51-9,5.53-13.84a6.21,6.21,0,0,1,1.38-3.36c2-2.41,4.09-4.72,5.94-7.26,1.59-2.19-1.54-5-3.14-2.84-1.76,2.41-3.69,4.64-5.62,6.9a9.72,9.72,0,0,0-2.51,4.19c-.86,4.23-2.84,8-4.48,12-1.73,4.22-3.38,8.89,1.21,12,4.77,3.22,10.31.82,13.8-3.13,2.94-3.34,3.58-7.21,4.76-11.3.93-3.23,4.68-5.38,7.32-7.1,5.22-3.4,10.82-5.7,14.81-10.66,3.66-4.56,6.08-10,8.1-15.41,2-5.27,3.17-11.2,6-16.06,2.16-3.63,6-5.64,9.05-8.41a27,27,0,0,0,9-15.58c.6-3.6.82-8.76-1.47-11.9-2.06-2.81-6.64-4.07-9.68-5.28-4.91-2-9.89-3.7-14.77-5.7-6.41-2.62-11.5-6.39-16.91-10.68-12-9.5-23.54-19.52-35-29.64-2-1.8-4.88,1.34-2.83,3.15Z"/><path class="cls-8" d="M464.73,691.87A91.82,91.82,0,0,0,456.19,706c-1.53,3.25-2.58,6.41-2.3,10a21.58,21.58,0,0,0,2.58,9.23c1.4,2.35,5,.06,3.57-2.28a19,19,0,0,1-2-8c-.12-2.7,1.08-5.47,2.36-8.06a88.68,88.68,0,0,1,4.92-8.51c.35-.54.7-1.08,1.06-1.62l.52-.78s.41-.61.13-.19c.27-.4.54-.79.82-1.18a2.19,2.19,0,0,0-.16-3,2.14,2.14,0,0,0-3,.16Z"/><path class="cls-8" d="M474.13,676c-4.47,4.16-8.94,8.32-13.35,12.55-6.2,5.94-11.71,15.42-6.64,23.78,1.42,2.33,5,0,3.57-2.29-4.45-7.33,2.49-15.12,7.53-19.91q6-5.69,12-11.3c2-1.86-1.17-4.68-3.15-2.83Z"/><path class="cls-8" d="M626,451.93c3.25-4.32,9-5.4,14.05-6.23a22.55,22.55,0,0,1,3.17-.32,4,4,0,0,1,2.33.34,3.82,3.82,0,0,1,.91,2.44,6.7,6.7,0,0,1-.72,3.7c-1.12,2.24-3.47,3.4-4.57,5.66-.44.92-.74,1.9-1.18,2.82a9.35,9.35,0,0,1-2.93,3.44,18.33,18.33,0,0,0-2.55,2.51c-.53.63-1.17,1.76-2,2.09s-1.69-.53-2.25-1c-1-.9-2-1.78-3.14-2.58-1.62-1.16-4.32-2.5-4.79-4.64-.3-1.38.43-2.8,1-4a31.46,31.46,0,0,1,2.6-4.22c.79-1.1-1.08-2-1.84-1a32.51,32.51,0,0,0-2.79,4.63,8.78,8.78,0,0,0-1.17,4.1c.1,2.48,2,4.08,3.87,5.42,1.21.87,2.44,1.7,3.58,2.66s2.14,2.15,3.57,2.57c2.38.71,3.78-1.52,5.12-3.06,1.16-1.32,2.63-2.25,3.81-3.53a11.4,11.4,0,0,0,2.14-3.53,10,10,0,0,1,1.88-3.46,19.42,19.42,0,0,0,3.15-3.5,8.42,8.42,0,0,0,.45-8c-1-2-3.35-2-5.27-1.87a48.43,48.43,0,0,0-9.59,1.88,15.62,15.62,0,0,0-8.75,5.7C623.39,452.06,625.26,453,626,451.93Z"/><path class="cls-8" d="M582.33,709.12l.45,39.24.87,75.89.57,49.78a5.23,5.23,0,0,1,0,1.25c-.43,1.62-2.9,5.36-5.08,5.23s-2.51-2.5-3.92-3.5c-.5-.35,0,.67.11.41a4.71,4.71,0,0,0,0-.75c.38-8.95-.27-18.06-.4-27q-.78-53.37-1.5-106.74-.09-6.18-.16-12.36c0-2.18-3.4-2-3.37.17q.71,55.59,1.55,111.16l.48,33c0,1.9-.11,3.2,1,4.81,1.28,1.83,3.06,3.62,5.34,4.07,3.18.62,5.65-1.76,7.25-4.21a9.8,9.8,0,0,0,2-6.56l-.09-7.7-.33-28.44q-.45-38.89-.89-77.79c-.19-16.43.06-32.93-.57-49.35,0-.26,0-.53,0-.79,0-2.17-3.39-2-3.36.18Z"/><path class="cls-8" d="M475.77,639.65Q472.88,657.8,470,676c-.27,1.71-.55,3.43-.82,5.15-.42,2.68,3.72,3.56,4.15.86l5.76-36.3c.28-1.72.55-3.44.82-5.15.43-2.69-3.72-3.56-4.14-.86Z"/><path class="cls-8" d="M461.5,729.52l-6.63,41.68-10.5,66.08q-1.22,7.59-2.41,15.18c-.43,2.68,3.71,3.56,4.14.86l6.63-41.68,10.5-66.09q1.22-7.59,2.41-15.17c.43-2.68-3.71-3.56-4.14-.86Z"/><path class="cls-8" d="M492.58,533.85q-5.07,31.88-10.13,63.75-.72,4.5-1.43,9c-.43,2.68,3.71,3.56,4.14.86q5.07-31.87,10.13-63.74c.48-3,.95-6,1.43-9,.43-2.68-3.72-3.56-4.14-.86Z"/><path class="cls-8" d="M479.92,708.09q-2.66,17.22-5.29,34.43-4.23,27.59-8.47,55.17l-1.93,12.6c-.41,2.68,3.73,3.56,4.14.85q2.65-17.21,5.29-34.42,4.23-27.59,8.47-55.17,1-6.3,1.93-12.6c.41-2.68-3.73-3.56-4.14-.86Z"/><path class="cls-8" d="M506.59,534.51q-5.52,36-11,72-.78,5.1-1.57,10.21c-.41,2.68,3.73,3.56,4.15.85q5.52-36,11.05-71.95c.52-3.4,1.05-6.81,1.57-10.21.41-2.68-3.73-3.56-4.15-.86Z"/><path class="cls-8" d="M625.57,633.59q-2-15.42-4-30.85c-.19-1.46-.39-2.92-.58-4.38-.35-2.68-4.58-2.48-4.23.23l4,30.84.57,4.38c.35,2.69,4.58,2.49,4.23-.22Z"/><path class="cls-8" d="M623.67,560.94c0,3.76,1.06,7.82,1.57,11.55q.91,6.68,1.84,13.36,2.08,15,4.2,30.08,4.77,34.07,9.6,68.12,4.73,33.35,9.49,66.67,3.71,26,7.44,52l2.34,16.33c.24,1.67.48,3.33.71,5a11,11,0,0,0,.38,2.64,1.19,1.19,0,0,1,0,.32l.54-1.52c.51-.47-.58.38-.86.55a13,13,0,0,1-3.71,1.46c-3.09.75-5.55.88-6.47-2.48a39,39,0,0,1-.73-4.94L646.76,795l-1-7.6c-.36-2.69-4.59-2.49-4.23.22l3.51,26.82q.62,4.58,1.21,9.17a12.81,12.81,0,0,0,1.87,5.83c2.26,3.3,6.16,3.09,9.69,2.35,2.46-.51,7.74-2,7.66-5.2a37.19,37.19,0,0,0-.54-3.77q-1.35-9.36-2.69-18.73-5-35-10-70-6.3-44.17-12.53-88.38-5.49-38.92-10.86-77.87a55.12,55.12,0,0,1-1-7.09c0-2.73-4.23-2.5-4.23.22Z"/><path class="cls-8" d="M644.14,774.93q-2.86-21.78-5.72-43.56-4.56-34.7-9.11-69.4-1-8-2.09-15.91c-.35-2.69-4.58-2.48-4.23.22q2.87,21.78,5.72,43.56,4.56,34.71,9.11,69.41,1,7.95,2.09,15.9c.35,2.69,4.58,2.49,4.23-.22Z"/><path class="cls-8" d="M488.17,530.44c4.59,3.7,11.77,5,17.33,6.07,12.51,2.47,25.41,3,38.1,4.17l2.31.21c2.68.24,3.57-3.9.86-4.15l-11.48-1c-13.19-1.19-27.24-1.51-39.77-6.27a34.26,34.26,0,0,1-3.76-1.69c-.3-.16-.58-.35-.86-.52.13.08.41.31.1.06-2.11-1.7-5,1.43-2.83,3.15Z"/><path class="cls-8" d="M521.05,528.24c2.5.49,5,.91,7.54,1.24,3.83.5,7.83,1,11.67.26a2.13,2.13,0,0,0,1.37-2.66,2.17,2.17,0,0,0-2.66-1.37c.54-.1-.08,0-.19,0l-.61.07q-.57,0-1.14.06c-.87,0-1.74,0-2.62,0-1.68-.08-3.51-.28-5.4-.54-2.38-.32-4.74-.72-7.1-1.18-2.67-.52-3.54,3.62-.86,4.15Z"/><path class="cls-8" d="M504.64,810.19,563,820.08l8.16,1.38c2.68.46,3.55-3.69.85-4.15l-58.36-9.88-8.15-1.38c-2.68-.46-3.56,3.69-.86,4.14Z"/><path class="cls-8" d="M512.3,799.87l51.63,7.81,7.23,1.09c2.68.41,3.56-3.74.85-4.15l-51.62-7.8-7.23-1.09c-2.69-.41-3.57,3.74-.86,4.14Z"/><path class="cls-8" d="M511.81,667.87l22.64,3.75c1.07.18,2.15.33,3.21.55,2.67.56,3.54-3.58.86-4.15s-5.68-1-8.51-1.42l-14-2.32-3.33-.55c-2.68-.45-3.56,3.7-.86,4.14Z"/><path class="cls-8" d="M524.07,656.1l13.25,2.19,3.1.52a2.12,2.12,0,1,0,.85-4.15l-13.89-2.3-2.45-.41a2.16,2.16,0,0,0-2.5,1.65,2.13,2.13,0,0,0,1.64,2.5Z"/><path class="cls-8" d="M587.81,804.76l54.06-27.29c.64-.32,1.26-.68,1.9-1,1.06-.56,2.9-1.51,4.07-.77s1.2,2.93,1.11,4.15c-.05.55-.85,2.47-.7,2.94,0,0,1.16-.63.38-.46a5.42,5.42,0,0,0-1.15.64l-4.35,2.4-32.72,18.09L584.78,817.6c-2.39,1.32-.1,4.88,2.28,3.57L645.27,789c1.91-1,5.5-2.19,6.7-4.17,2-3.23,1.79-9.13-.88-11.89s-6.81-1.57-9.86.09c-8.11,4.41-16.5,8.37-24.74,12.53l-31,15.63c-2.44,1.23-.13,4.78,2.28,3.57Z"/><path class="cls-8" d="M529.55,634.22c1.69-.75,3.37-1.47,5-2.34.15-.09.31-.16.46-.24-.33.16.1,0,.22-.09a9.29,9.29,0,0,1,1.35-.45,3.82,3.82,0,0,1,1.16-.12c-.22,0,.26,0,.33.06s.32.11.14,0,.2.11.23.13c.22.13,0,0,0,0l.26.24a2.54,2.54,0,0,1,.23.38,4.51,4.51,0,0,1,.47,1.24,5.63,5.63,0,0,1,.16,1.11c0,.23,0,.46,0,.69s0,.22,0,.33c0,.37,0-.23,0,.12a13.1,13.1,0,0,1-.54,2.56c-.08.27-.17.43,0,0,0,.1-.08.21-.13.32l-.12.3.75-.84-11.16,5.48a2.14,2.14,0,0,0-.64,2.93,2.18,2.18,0,0,0,2.93.64l9.89-4.86c.41-.2.87-.38,1.26-.62a2.46,2.46,0,0,0,1-1.41,15.45,15.45,0,0,0,1-5.34c0-2.29-.74-5.06-2.62-6.53a6.91,6.91,0,0,0-6.73-.66,15.48,15.48,0,0,0-2.64,1.24c-.43.26-.37.18.15,0l-.47.2-3.21,1.42a2.18,2.18,0,0,0-1.37,2.66,2.14,2.14,0,0,0,2.66,1.38Z"/><path class="cls-8" d="M610.13,642.88l9.32-4.7c1.34-.68,2.72-1.32,4-2,1.12-.62,3.42-2.2,4.81-1.16s1.21,3.28,1,4.64a13.14,13.14,0,0,1-.49,2.06c-.11.36.09-.24,0,.05a2.18,2.18,0,0,0-.11.27.9.9,0,0,1-.11.27l.75-.83q-11,6-22,12.13l-3.9,2.16,1-.33h0c-2.73,0-2.5,4.22.22,4.22,1.13,0,2.67-1.22,3.6-1.74l6.68-3.69L626.13,648l4.65-2.56a3.51,3.51,0,0,0,1.76-1.7,14.12,14.12,0,0,0,1.07-4.84c.24-4.19-2.11-8.89-6.9-8.43-2.31.23-4.17,1.41-6.19,2.42l-12.67,6.4a2.13,2.13,0,0,0-.64,2.92,2.17,2.17,0,0,0,2.92.65Z"/><path class="cls-8" d="M535.58,670.12v1.15a1.52,1.52,0,0,0,.21.78,1.69,1.69,0,0,0,.48.68,2.36,2.36,0,0,0,1.53.54l.53-.1a1.93,1.93,0,0,0,.93-.6l.32-.47a2,2,0,0,0,.22-1.06V669.9a1.52,1.52,0,0,0-.21-.78,1.63,1.63,0,0,0-.48-.68,1.66,1.66,0,0,0-.73-.41,1.56,1.56,0,0,0-.8-.13l-.53.09a2,2,0,0,0-.93.61l-.32.46a2.07,2.07,0,0,0-.22,1.06Z"/><path class="cls-8" d="M539.08,746.24v0a1.52,1.52,0,0,0-.21-.78,1.63,1.63,0,0,0-.48-.68,1.66,1.66,0,0,0-.73-.41,1.56,1.56,0,0,0-.8-.13l-.53.1a1.93,1.93,0,0,0-.93.6c-.11.15-.22.31-.32.47a2,2,0,0,0-.22,1.05v0a1.52,1.52,0,0,0,.21.78,1.69,1.69,0,0,0,.48.68,2.36,2.36,0,0,0,1.53.54l.53-.1a1.93,1.93,0,0,0,.93-.6l.32-.47a2,2,0,0,0,.22-1.06Z"/><path class="cls-8" d="M549.89,771.7q0,13.86-.1,27.71v4c0,2.73,4.22,2.49,4.23-.23l.09-27.7,0-4c0-2.73-4.22-2.5-4.23.22Z"/><path class="cls-8" d="M534.64,767l-.27,29.54c0,1.42,0,2.84,0,4.25,0,2.73,4.2,2.5,4.23-.22l.27-29.54c0-1.41,0-2.83,0-4.25,0-2.73-4.2-2.49-4.23.22Z"/><path class="cls-8" d="M534.2,813.43c0,1.38,0,2.77,0,4.15,0,.86,0,1.71,0,2.57a2.46,2.46,0,0,0,.7,2.12c2,1.75,5.08,2.1,7.57,2a27.34,27.34,0,0,0,10.07-2.83,2.27,2.27,0,0,0,1.47-2.13c0-.84.07-1.68.11-2.53a2.13,2.13,0,0,0-2.22-2,2.18,2.18,0,0,0-2,2.23c0,.84-.07,1.68-.11,2.53l1.47-2.13a30.2,30.2,0,0,1-7,2.41l-.35.06-.65.08a12.09,12.09,0,0,1-1.21.09c-.36,0-.72,0-1.08,0-.6,0,.18,0-.16,0l-.45,0a12.36,12.36,0,0,1-1.58-.34c-.34-.09,0-.13.17.06,0-.06-.24-.09-.31-.12l-.47-.21-.36-.2c-.43-.24.14.09.18.13s-.15-.11-.21-.17l.69,1.47q0-3.69.07-7.37a2.12,2.12,0,0,0-4.23.22Z"/><path class="cls-8" d="M539.21,731.13v0a1.5,1.5,0,0,0-.21-.78,1.6,1.6,0,0,0-.49-.69,1.63,1.63,0,0,0-.72-.41,1.69,1.69,0,0,0-.8-.13l-.54.1a2.2,2.2,0,0,0-.93.6l-.32.47a2.15,2.15,0,0,0-.22,1.06v0a1.64,1.64,0,0,0,.22.78,1.57,1.57,0,0,0,.48.68,1.52,1.52,0,0,0,.73.41,1.56,1.56,0,0,0,.8.13l.53-.09a2.2,2.2,0,0,0,.93-.6l.32-.47a2.07,2.07,0,0,0,.22-1.06Z"/><path class="cls-8" d="M535.85,640.91q-.06,6.74-.13,13.49l0,1.94a2.12,2.12,0,0,0,4.23-.22q.06-6.75.13-13.49c0-.65,0-1.3,0-1.94a2.12,2.12,0,1,0-4.23.22Z"/><path class="cls-8" d="M536.82,539.9l-.75,77.94Q536,623.44,536,629c0,2.73,4.2,2.49,4.23-.22l.75-77.95q.06-5.58.11-11.16c0-2.73-4.2-2.5-4.23.22Z"/><path class="cls-8" d="M571.21,760.17l-16.38-1.78-2.36-.26a2.18,2.18,0,0,0-2.5,1.64,2.13,2.13,0,0,0,1.64,2.5L568,764.06l2.35.26a2.18,2.18,0,0,0,2.51-1.64,2.14,2.14,0,0,0-1.65-2.51Z"/><path class="cls-8" d="M641.56,767.85l-48.29-5.27-6.92-.76c-2.69-.29-3.58,3.85-.86,4.15l48.29,5.27,6.92.75c2.69.3,3.58-3.85.86-4.14Z"/><path class="cls-8" d="M540.74,766.47c0,2.5,1.45,5.86,4.18,6.37,2.18.41,4.44.55,6.64.82l13.17,1.61,5.62.68c2.69.33,3.58-3.81.86-4.14q-11.51-1.41-23-2.82l-1.93-.23c-.52-.07-.91-.18-.23.07-.39-.14,0,0,0,0s-.52-.53-.4-.38a3.55,3.55,0,0,1-.63-2.2c0-2.73-4.23-2.5-4.23.22Z"/><path class="cls-8" d="M630.43,779l-38.6-4.71-5.48-.67c-2.69-.33-3.57,3.81-.86,4.15l38.6,4.71,5.48.67c2.68.33,3.57-3.81.86-4.15Z"/><path class="cls-8" d="M425.9,141.06c3.53,8.05,5.87,17.24,5.6,26-.08,2.73,4.15,2.49,4.23-.22A59.66,59.66,0,0,0,433,148.51a69.52,69.52,0,0,0-3.07-8.73,2.18,2.18,0,0,0-2.66-1.38,2.13,2.13,0,0,0-1.37,2.66Z"/><path class="cls-8" d="M612.25,628.23l8.82,1.91,1.25.27a2.12,2.12,0,0,0,.86-4.15l-8.82-1.91-1.25-.27a2.14,2.14,0,0,0-2.51,1.64,2.18,2.18,0,0,0,1.65,2.51Z"/><path class="cls-8" d="M615.51,473.4a26.23,26.23,0,0,0-11.59-5.51,15.25,15.25,0,0,0-9.88,1.33,53.16,53.16,0,0,0-6.11,4.07c-2.93,2.08-5.84,4.19-8.8,6.23-2,1.39-4.67,2.48-4.84,5.25-.34,5.25,5.62,8.38,10.18,7.75,4.1-.56,8.19-2.87,11.92-4.58,2-.89,3.91-1.8,5.83-2.78,2.43-1.25.12-4.81-2.28-3.57-3.73,1.91-7.59,3.6-11.46,5.19-2.37,1-5,2.28-7.56,1.19a4.15,4.15,0,0,1-2.42-2.7c0-.13,0-.41,0-.21.11-.25-.5.25.3-.18,1.32-.73,2.56-1.73,3.8-2.59,2.42-1.69,4.82-3.42,7.23-5.14,3.77-2.69,7.37-5.81,12.32-5.26a21.38,21.38,0,0,1,10.57,4.65c2.1,1.72,4.94-1.41,2.83-3.14Z"/><path class="cls-8" d="M578.49,488.43a14,14,0,0,1-2.21-.45,7.19,7.19,0,0,1-1.54-.61,5.79,5.79,0,0,1-.81-.45,4.42,4.42,0,0,0-.56-.5,1.77,1.77,0,0,1-.45-1.26,30.62,30.62,0,0,1,0-3.71,24.44,24.44,0,0,1,.43-3.09,9.18,9.18,0,0,1,.38-1.48c0-.05.46-.82.2-.49a15.75,15.75,0,0,1,2.22-2c1.05-.92,2.09-1.79,3.29-2.75a38.08,38.08,0,0,1,3.82-2.75l.75-.43c.3-.15-.45.16,0,0,.06,0,.21-.07.26-.1.32-.25,0,0-.18,0-.5,0,0,.05,0,.05-.19.05-.42-.19,0,0s.48.21.71.34l.3.17c.42.26-.23-.2.13.1a7.4,7.4,0,0,1,.71.66c-.27-.3,0,0,.09.12a5.84,5.84,0,0,1,.33.53,4.75,4.75,0,0,1,.27.88s0,.55,0,.74a8.24,8.24,0,0,1-1.3,3.47c-1.35,2.37,2.44,4.27,3.79,1.9s2.19-5,1.47-7.63a7.74,7.74,0,0,0-3.32-4.36,5.19,5.19,0,0,0-4-1.06,12.47,12.47,0,0,0-4,2.23,71.4,71.4,0,0,0-8.11,6.72c-1.47,1.44-1.91,3.73-2.19,5.69a37.47,37.47,0,0,0-.33,4.37,12.17,12.17,0,0,0,.3,3.81c1.12,3.49,5.32,5.16,8.68,5.53a2.18,2.18,0,0,0,2.5-1.64,2.14,2.14,0,0,0-1.65-2.51Z"/><path class="cls-8" d="M572.18,478.53c-.07-.07-.35-.4-.11-.11s-.13-.17-.17-.23l-.38-.54a6,6,0,0,1-1-2.51,4.93,4.93,0,0,1,1.09-3.44c.79-1.29,1.54-2.62,2.31-3.94,1.2-2.05,2.65-4.68,4.51-5.94a2.23,2.23,0,0,1,1.06-.49,12.51,12.51,0,0,1,1.42,0c1.27,0,2.54.16,3.81.3q2.93.31,5.84.81l-1.35-.94a6.79,6.79,0,0,1,.42.67c.11.21-.09-.3,0,.08,0,.11.07.22.11.34.15.52,0-.21,0,.09a3.67,3.67,0,0,1,0,.46c0-.36-.07.36-.12.5-.09.32.12-.25,0,.06a4.23,4.23,0,0,1-.25.47c.13-.2,0,0-.08.09a4.58,4.58,0,0,1-.42.46,7.73,7.73,0,0,1-2.15,1.27,2.18,2.18,0,0,0-1.37,2.66A2.14,2.14,0,0,0,588,470c3.65-1.52,7.13-4.75,5.65-9.07a3.64,3.64,0,0,0-2.83-2.76c-1.56-.25-3.12-.47-4.68-.65a46.28,46.28,0,0,0-6.44-.47,7.76,7.76,0,0,0-5.18,2.53,25.37,25.37,0,0,0-3.73,5.11c-1.22,2-2.47,4-3.62,6.1-2,3.63-.53,8.06,2.2,10.87,1.9,1.95,4.73-1.2,2.83-3.15Z"/><path class="cls-8" d="M572.41,469.59c-.35-4.64,1-9.7,4.46-13.15a2.12,2.12,0,0,1,.47-.39,5.09,5.09,0,0,1,.63-.39c-.31.16.27-.08.4-.1-.4.08.29,0,.43,0,1,0,2,0,3,0,1.3,0,2.59,0,3.88,0,.25,0,.87.07,1.36.16l.6.14c.3.06-.33-.16-.08,0,0,0,.25.16.29.14s-.38-.32-.4-.34c.25.26,0-.2,0,0s.19.81.14.44a8.91,8.91,0,0,1,.05,1.79s0,.34,0,.11,0,.22,0,.27l-.09.69-.12.68c-.56,2.67,3.59,3.53,4.14.86.42-2,.66-4.44-.16-6.36-1.29-3-5.15-2.82-7.89-2.84-1.36,0-2.72,0-4.08,0a7.1,7.1,0,0,0-3.86.76,11.5,11.5,0,0,0-3.56,3.52,21.9,21.9,0,0,0-2.86,5.54,22.65,22.65,0,0,0-1,8.62c.21,2.71,4.44,2.5,4.23-.23Z"/><path class="cls-8" d="M542.28,242.7c5.48,6.73,15.05,8.55,22.85,5a38.81,38.81,0,0,0,12.38-9.47c1.84-2-1.3-4.84-3.15-2.84-5.31,5.77-12.81,11.63-21.14,9.45a16.32,16.32,0,0,1-5.45-2.74,16.82,16.82,0,0,1-1.67-1.48c-.28-.28-.84-1-.25-.24-1.7-2.09-5.29.17-3.57,2.28Z"/><path class="cls-4" d="M627.59,409.25a34.05,34.05,0,0,1,16.07-7.89,30.67,30.67,0,0,1,9.17-.32c2.53.3,5.68.78,7,3.29a4.73,4.73,0,0,1,.22,3.91c-.62,1.52-1.93,2.2-3.34,2.84a24.25,24.25,0,0,0-6.05,4c-1.72,1.48-3.77,3.41-6.16,3.58-2.9.2-4.09-2.87-6.3-4.15-3-1.72-6.06-.75-9.23-.5-1.28.1-3.27-.2-3.09-1.88a4.93,4.93,0,0,1,1.73-2.85"/><path class="cls-9" d="M643.84,425c3.07-1.05,13.36-3.15,11.38,3.21-1.46,4.66-6.5,7.24-10.81,8.63a68.45,68.45,0,0,1-8.24,1.94c-2.12.41-4.28,1.33-6.44,1.46-.28,0-.83.1-1.06-.1.23.2.05.15.23-.1a19.48,19.48,0,0,1,1.41-1.84,40.33,40.33,0,0,1,3.24-3,4.24,4.24,0,0,0,1.77-3.37c0-1.38,0-2.18,1.08-3.14a14,14,0,0,1,3.25-1.87c1.38-.64,2.75-1.28,4.19-1.79"/><path class="cls-10" d="M544.33,454.47c-2.07,0-3.71,1.79-5.29,3.53-.34.37-.67.73-1,1.07a24.67,24.67,0,0,1-3.58,2.91,27.26,27.26,0,0,0-3,2.36,16.68,16.68,0,0,0-3.24,5.39,3.43,3.43,0,0,0-.31,2.65,2.71,2.71,0,0,0,2,1.12,15.4,15.4,0,0,0,4.59-.05c.6-.06,1.18-.13,1.76-.16a21.53,21.53,0,0,0,12.12-4.79,43.4,43.4,0,0,0,3.54-3.38,29.32,29.32,0,0,1,6.18-5.27l1.1-.61c2.26-1.23,5.07-2.76,5.6-4.94a3.64,3.64,0,0,0-1.13-3.64,5.27,5.27,0,0,0-5.08-1.1,17.42,17.42,0,0,0-4,2.2l-1,.66c-3.23,2.07-5.61,2.16-9.13,2.06Z"/><path class="cls-11" d="M626,451.93c3.25-4.32,9-5.4,14.05-6.23a22.55,22.55,0,0,1,3.17-.32,4,4,0,0,1,2.33.34,3.82,3.82,0,0,1,.91,2.44,6.7,6.7,0,0,1-.72,3.7c-1.12,2.24-3.47,3.4-4.57,5.66-.44.92-.74,1.9-1.18,2.82a9.35,9.35,0,0,1-2.93,3.44,18.33,18.33,0,0,0-2.55,2.51c-.53.63-1.17,1.76-2,2.09s-1.69-.53-2.25-1c-1-.9-2-1.78-3.14-2.58-1.62-1.16-4.32-2.5-4.79-4.64-.3-1.38.43-2.8,1-4a31.46,31.46,0,0,1,2.6-4.22"/></g></g></svg>