<svg version="1.1" id="レイヤー_1" xmlns="http://www.w3.org/2000/svg" xmlns:xlink="http://www.w3.org/1999/xlink" x="0" y="0" viewBox="0 0 108 136.1" xml:space="preserve"><style>.st1{fill:#fffc19}.st2{fill:#231f20}</style><g id="レイヤー_2_1_"><g id="line"><defs><circle id="SVGID_1_" cx="54" cy="68.1" r="67.5"/></defs><clipPath id="SVGID_2_"><use xlink:href="#SVGID_1_" overflow="visible"/></clipPath><g clip-path="url(#SVGID_2_)"><path class="st1" d="M26.9 99.6c-7.7 1.2-30.2 16.9-31.5 18.2s-2.7 5.7-5.2 16.3-1.7 52-1.7 52h52.4c.4-6.7-2.1-37.4-2.1-37.4-1.8-23.8-11.9-49.1-11.9-49.1zM116.4 122.1s-2.2-8.5-15.1-13.4-19.4-7.5-19.4-7.5 4.2 32.3 3.8 45.9c0 0-1.3 33.6-2.7 41h38.6s2.7-48.3-5.2-66z"/><path class="st2" d="M38 95.8s-17.2-2-20-22.5 6.7-44.1 8.9-47.1S34.8 14.9 48 13.8c0 0 16.4-6.1 28.1 5.7s15.1 44.2 12.8 53.2c-5.1 19.5-18.2 23-18.2 23-.7-1.4-2.4-11.3-1.9-14 0 0 10.9-4.9 8.6-31 0 0-11.3 1.3-27.7-27.9 0 0-15.4 17.4-17.2 25.7-1.1 5.2-.9 10.5.6 15.6l-3.5 2.6s-.3 3.8 5.2 3.8l4 6.7c-.1 0 .4 14.8-.8 18.6z"/><path class="st2" d="M45.9 52.2c-1.3 0-2.3 1-2.3 2.3s1 2.3 2.3 2.3 2.3-1 2.3-2.3-1-2.3-2.3-2.3zM49.2 44.1c.3 0 .6-.2.6-.5 0-.2-.1-.4-.3-.5-.8-.4-1.6-.7-2.4-.8-3.3-.5-6-.3-6.9 1.1-.2.2-.3.5-.3.7-.1.5.2.9.6 1h.4c2.7-.8 5.5-1.1 8.3-1zM67.6 56.8c1.3 0 2.3-1 2.3-2.3s-1-2.3-2.3-2.3-2.3 1-2.3 2.3c0 1.3 1 2.3 2.3 2.3zM58.9 66.7c2 0 3.8-2.5 3.6-2.7-.2-.2-1.5.6-2.9.7-1.9.1-4.2-.2-4.2 0 .2 2 3 2 3.5 2zM51.3 71.6c2.1 1.2 4.5 1.9 7 1.8 2.9 0 5.7-.8 8.1-2.3.3-.2.4-.6.2-.9-.2-.3-.6-.4-.9-.2-7.4 4.4-13.4.7-13.7.5s-.7-.1-.9.2c-.2.3-.1.7.2.9z"/><path class="st2" d="M112 113.8c-6.9-6.6-27.2-12-28.1-12.2-.4-.1-.9.2-1 .6-.2-.7-.2-1.1-.2-1.1-.1-.5-.6-.7-1.1-.6h-.1l-6.1-2c-.3-.1-.6 0-.7.2l-.2.3-.2-.2c-.9-.6-1.7-1.4-2.2-2.3 5.9-1.2 13.6-10.8 17.3-22 1.7-5.1 1.5-16.3-.4-27.2-1.4-7.7-4.8-21.6-12.2-28.4C65 8.1 49.5 12.5 47.9 13c-3.7.2-7.2 1.2-10.5 2.8-5.2 2.5-12.1 8-15.3 19.4-5.5 19.7-9.1 45.4 4.6 56.1h.1c.3.2 6.3 4.1 10.2 5.1-.2.9-.4 1.7-.7 2.5l-.6-.6V98c-.2-.5-.6-.7-1.1-.6l-6.7 2.2-.2-.4v-.1s0-.1-.1-.1v-.1l-.1-.1H26.8h-.2c-1.1.5-27.5 12.9-31.8 18.5-4.6 5.9-8.9 27.1-7 69 0 .5.4.8.9.8s.9-.4.8-.9c-1.8-41.4 2.4-62.4 6.7-67.8 3.5-4.8 25.7-15.6 30.3-17.7 1.7 3.7 8.5 20.5 11 44 2.7 25.6 2.5 41.3 2.5 41.4 0 .5.4.9.8.9.5 0 .9-.4.9-.9 0-.1.2-16-2.5-41.6-1.5-14.9-5.1-29.5-10.6-43.3l6.1-2c2.1 2.3 11.5 12.1 22.2 15.8h.1c-.7.4-1.3.7-2 1-.3.1-.4.4-.4.6l.5 7.9c0 .3.3.6.7.6.4 0 .6-.3.6-.7L56 117c9-4.2 17.7-15 19.4-17.2l5.6 1.8c.7 2.9 7.3 34.3 1.1 86.4-.1.5.2.9.7 1h.2c.4 0 .8-.3.9-.8 5.6-47.1.7-77.5-.8-85.2.1.1.3.2.4.3.2 0 20.7 5.5 27.3 11.8 11.4 10.9 10.4 47.1 10 64.6-.1 3.9-.2 6.9-.1 8.6 0 .5.4.8.9.8s.9-.4.8-.9c-.1-1.6 0-4.6.1-8.4.5-17.9 1.4-54.6-10.5-66zm-84.4-24c-5.9-4.6-8.9-12.9-8.8-24.7.1-8.4 1.7-18.3 4.8-29.5C26 27 30.8 20.8 37.9 17.3c3.1-1.6 6.5-2.5 10-2.6h.2c.2-.1 15.7-5.2 27.3 5.5 5.1 4.7 9.4 14.7 11.7 27.4 1.9 10.4 2.1 21.6.5 26.3-3.9 11.7-11.7 20.4-16.5 21-2-5-1.6-12.3-1.5-12.9 3.4-2.8 5.9-6.5 7.4-10.6 2.4-7.2 1.6-17.7 1.6-18.1 0-.1 0-.2-.1-.3.4.1.9.2 1.3.3s.7-.1.8-.5c.1-.4-.1-.7-.5-.8-18-4.1-29.8-29.2-29.9-29.4s-.3-.3-.5-.4c-.2 0-.4 0-.6.2-.7.7-17 16.9-18 29.3-.3 4.1 0 8.3 1 12.3-1 .9-3.8 1.7-5.5 2-.4.1-.6.4-.5.8.1.3.3.5.6.5h.1c.2 0 .9-.2 1.9-.4.5 2.1 1.3 3.5 2.7 4.2.5.2 1.1.4 1.7.4.5 0 1-.1 1.4-.2.5 1.2 1 2.4 1.7 3.5.5.8 1 1.6 1.6 2.4v.1c.4 5.8.2 11.7-.7 17.4-3.3-1-9-4.5-9.5-4.9zm12-12.7c0-.4-.3-.7-.7-.8-.6-.7-1.1-1.5-1.5-2.2-.1-.1-5.8-10.4-4.9-22.3.8-10.7 13.8-24.7 16.9-27.8 3.4 6.8 7.8 13.1 13 18.6-.5.1-1 .3-1.5.6-.3.2-.4.5-.2.8.1.2.3.3.5.3.9-.1 1.9-.1 2.8 0 3.8 3.8 8.4 6.7 13.5 8.5-.2.1-.4.4-.4.6 0 .1.8 10.7-1.5 17.6-1.4 3.9-3.8 7.4-7 10-.4 0-.8.3-.9.7-3.2 2.5-7.1 3.9-11.1 4h-.1c-8.4-.1-14.1-5.1-16.9-8.6zM34.1 70c-.7.2-1.4.2-2-.1-.9-.5-1.6-1.6-2-3.3v-.1c.9-.3 1.7-.7 2.5-1.1.5 1.7 1 3.3 1.5 4.6zm23.6 44.7c.1-.4-.1-.8-.4-.9-8.5-2.9-16.3-9.9-19.9-13.6.1-.1.2-.2.2-.3.4-1.1.7-2.3 1-3.5.1-.1.2-.3.2-.5v-.4c.9-5.3 1.2-10.8.9-16.2 4.3 4.8 10.5 7.6 16.9 7.6h.2c4-.1 7.8-1.4 11-3.7-.1 3.9.2 13.9 5.5 17-2.6 3.4-8.9 10.5-15.6 14.5z"/><path class="st2" d="M106.5 142.2c-.3.1-.5.5-.4.9.1.2 7 18.4 0 30.7-5.6 9.8-5.5 15.5-5.5 15.7 0 .4.3.6.7.6.4 0 .7-.3.7-.7 0-.1 0-5.7 5.4-15.1 7.3-12.8.3-31 0-31.8-.3-.1-.6-.3-.9-.3zM10.5 144.8c.1-.3-.1-.7-.4-.8-.3-.1-.7.1-.8.4 0 .2-5.2 16.9 4.8 39.7.1.2.3.4.6.4.1 0 .2 0 .3-.1.3-.1.5-.5.3-.9-9.8-22.1-4.9-38.6-4.8-38.7z"/></g></g></g></svg>