<?xml version="1.0" encoding="utf-8"?>
<!-- Generator: Adobe Illustrator 25.0.1, SVG Export Plug-In . SVG Version: 6.00 Build 0)  -->
<svg version="1.1" id="レイヤー_1" xmlns="http://www.w3.org/2000/svg" xmlns:xlink="http://www.w3.org/1999/xlink" x="0px"
	 y="0px" viewBox="0 0 108 136.1" style="enable-background:new 0 0 108 136.1;" xml:space="preserve">
<style type="text/css">
	.st0{clip-path:url(#SVGID_2_);}
	.st1{fill:#0092B3;}
	.st2{fill:#E69A17;}
	.st3{fill:#231F20;}
</style>
<g id="レイヤー_2_1_">
	<g id="characters">
		<g>
			<g>
				<defs>
					<circle id="SVGID_1_" cx="57.7" cy="69" r="67.5"/>
				</defs>
				<clipPath id="SVGID_2_">
					<use xlink:href="#SVGID_1_"  style="overflow:visible;"/>
				</clipPath>
				<g class="st0">
					<path class="st1" d="M113.5,132.4c-0.2-1.3-1.2-9.3-4-10.6s-35.6-15.1-35.6-15.1l9.7,28.2l-8.6,5.5l5.8,9
						c0,0-14.4,26.6-22.1,34l3-8.9l-28.1-22.3c1-1.8,4.6-9.9,4.6-9.9l-7-2.4l-1.4-35.6L-11.3,129c-5.1,3.5-6.2,61.1-6.2,61.1
						l77.8,0.9l40.4-0.9L118,191C118,191,113.7,133.7,113.5,132.4z"/>
					<path class="st2" d="M59.3,107.5l-5.2,9l3.3,4.4v4.4l-3.8,7.6l-2.4,10.4l10.6,31.3l6.1-31.4c0,0-1.8-13.4-4.8-17.9
						c0,0,1.9-1.2,0.4-4.4l3.4-4.4C66.8,116.4,62,109.4,59.3,107.5z"/>
					<path class="st3" d="M73.7,35c-0.1,0.3,0.1,0.7,0.4,0.8c2.8,1.1,5,3.3,6,6.1c0.1,0.3,0.3,0.4,0.6,0.4c0.1,0,0.1,0,0.2,0
						c0.3-0.1,0.5-0.5,0.4-0.8c0,0,0,0,0-0.1c-1.1-3.2-3.6-5.8-6.8-6.9C74.1,34.5,73.8,34.7,73.7,35z"/>
					<path class="st3" d="M63.1,20.8c6.9,2.5,6.3,15.2,6.3,15.4c0,0.3,0.3,0.6,0.6,0.7l0,0l0,0c0.3,0,0.6-0.3,0.6-0.6
						c0-0.6,0.7-13.7-7.1-16.6c-0.3-0.1-0.7,0-0.8,0.4l0,0C62.6,20.3,62.8,20.6,63.1,20.8L63.1,20.8z"/>
					<path class="st3" d="M69.8,22.1c5.1,2.5,5.5,10.8,5.5,10.9c0,0.3,0.3,0.6,0.6,0.6l0,0c0.3,0,0.6-0.3,0.6-0.6l0,0
						c0-0.4-0.4-9.1-6.2-12c-0.3-0.2-0.7-0.1-0.9,0.2c-0.2,0.3-0.1,0.7,0.2,0.9C69.6,22.1,69.7,22.1,69.8,22.1L69.8,22.1z"/>
					<path class="st3" d="M67.3,36c-0.1-0.3-2.2-7.5-15.5-5.3c-0.3,0.1-0.6,0.4-0.5,0.7l0,0c0.1,0.3,0.4,0.6,0.7,0.5
						c12.1-2,14,4.1,14.1,4.4c0.1,0.3,0.3,0.5,0.6,0.5c0.1,0,0.1,0,0.2,0C67.2,36.7,67.4,36.3,67.3,36L67.3,36z"/>
					<path class="st3" d="M33.4,52.4L33.4,52.4c0.4,0,0.7-0.2,0.7-0.5c0-0.1,1.1-5.2,7.4-10.8c7.2-6.4,14.2-7.8,22.5-4.5
						c0.3,0.1,0.7,0,0.8-0.4c0.1-0.3,0-0.7-0.4-0.8c-8.8-3.5-16.1-2.1-23.8,4.7c-6.6,5.8-7.8,11.2-7.8,11.5
						C32.8,52,33,52.3,33.4,52.4L33.4,52.4z"/>
					<path class="st3" d="M38.2,45.9c-0.3-0.1-0.7,0.1-0.8,0.5c0,0.1-1.5,6.7-4.5,11c-0.2,0.3-0.1,0.7,0.2,0.9
						c0.1,0.1,0.2,0.1,0.3,0.1c0.2,0,0.4-0.1,0.5-0.3c3.1-4.6,4.6-11.2,4.7-11.5C38.8,46.3,38.6,45.9,38.2,45.9z"/>
					<path class="st3" d="M42.2,25.4c0.1-0.1,12.5-7.4,23.1,3.9c0.1,0.1,0.3,0.2,0.5,0.2s0.3-0.1,0.4-0.2c0.2-0.2,0.3-0.6,0-0.9l0,0
						c-11.3-11.9-24.5-4.1-24.7-4.1c-0.3,0.2-0.4,0.6-0.2,0.9C41.5,25.5,41.9,25.6,42.2,25.4z"/>
					<path class="st3" d="M36.7,34c0.1,0.1,0.2,0.1,0.3,0.1c0.2,0,0.4-0.1,0.5-0.3c2.4-3.1,5.9-5.2,9.8-6c0.3-0.1,0.5-0.4,0.5-0.8
						c-0.1-0.3-0.4-0.5-0.7-0.5c-7.3,1.6-10.5,6.3-10.6,6.5C36.3,33.4,36.4,33.8,36.7,34L36.7,34z"/>
					<path class="st3" d="M35.9,40.7c0.1,0.1,0.2,0.1,0.3,0.1c0.2,0,0.4-0.1,0.5-0.3c3.9-6.3,7.7-7.8,7.8-7.8
						c0.3-0.2,0.4-0.5,0.3-0.8c-0.1-0.3-0.4-0.4-0.7-0.3c-0.2,0.1-4.3,1.5-8.5,8.3C35.5,40.2,35.6,40.5,35.9,40.7z"/>
					<path class="st3" d="M59.3,74L59.3,74c1.3,0,2.5-0.6,3.4-1.6c0.9-1.2,1.4-2.8,1.2-4.3c0-0.3-0.3-0.6-0.7-0.6l0,0
						c-0.3,0-0.6,0.3-0.6,0.7c0.1,1.2-0.3,2.4-1,3.4c-0.6,0.7-1.5,1.1-2.4,1.1c-1.3,0-2.4-0.8-3-1.9c-0.2-0.3-0.6-0.4-0.9-0.2
						c-0.3,0.2-0.4,0.5-0.2,0.8C55.9,73,57.5,74,59.3,74z"/>
					<path class="st3" d="M48.3,76.6c-0.2,0.3-0.1,0.7,0.2,0.9c0.4,0.3,3.8,2.5,5.2,2.8l0.7,0.2c1.3,0.3,2.6,0.5,4,0.6
						c3,0,5.9-1.3,7.9-3.6c0.2-0.3,0.2-0.7-0.1-0.9c-0.2-0.2-0.6-0.2-0.9,0c-4,4.2-7.8,3.3-10.7,2.7L54,79c-1.7-0.7-3.3-1.6-4.7-2.6
						C48.9,76.2,48.5,76.3,48.3,76.6L48.3,76.6z"/>
					<path class="st3" d="M61.4,84c-1.7,0.8-3.7,0.8-5.4,0c-0.3-0.2-0.7,0-0.8,0.3c-0.2,0.3,0,0.7,0.3,0.8l0,0
						c1.1,0.5,2.2,0.7,3.4,0.8c1.1,0,2.2-0.3,3.1-0.8c0.3-0.2,0.4-0.5,0.3-0.8C62,83.9,61.7,83.8,61.4,84z"/>
					<path class="st3" d="M67.5,75.3c0,0,2.2,1.5,1.5,5c0,0.2,0.1,0.4,0.3,0.5h0.1c0.2,0,0.4-0.1,0.4-0.3c0.8-4.1-1.7-5.8-1.8-5.9
						c-0.2-0.1-0.5-0.1-0.6,0.1S67.3,75.2,67.5,75.3L67.5,75.3z"/>
					<path class="st3" d="M46.8,81.7c0,0.2,0.1,0.4,0.4,0.5h0.1c0.2,0,0.4-0.2,0.4-0.4c0.2-1.4,0.2-2.8,0-4.2
						c-0.2-1.3,2-3.2,2.9-3.8c0.2-0.1,0.2-0.4,0.1-0.6c-0.1-0.2-0.4-0.2-0.6-0.1c-0.4,0.3-3.5,2.6-3.2,4.7
						C47,79.1,47,80.4,46.8,81.7z"/>
					<path class="st3" d="M50.3,59.4c0.3-0.2,0.3-0.5,0.2-0.7c-0.1-0.1-0.2-0.2-0.4-0.3c-1.2-0.2-2.4-0.2-3.6,0.1
						c-0.2,0-0.4,0.2-0.3,0.5c0,0.2,0.2,0.3,0.3,0.3l1,0.1c-0.2,0.4-0.3,0.8-0.3,1.3c-0.2,0.9,0.4,1.9,1.3,2.1
						c0.9,0.2,1.9-0.4,2.1-1.3c0.1-0.2,0.1-0.5,0-0.7C50.6,60.2,50.5,59.8,50.3,59.4L50.3,59.4z"/>
					<path class="st3" d="M42.5,51.1c-0.5,0.5-0.5,1.4,0,2c0.1,0.1,0.2,0.2,0.4,0.3c2.4-1,9-0.8,9-0.8c0.5-0.8,0.6-1.7,0.3-2.5
						C49.4,48.7,43.7,49.7,42.5,51.1z"/>
					<path class="st3" d="M53.1,55.5h-9.5c-0.6,0-1.1,0.3-1.5,0.7s-0.6,1-0.5,1.6l0.7,6.1c0.1,1,1,1.8,2,1.8l8.1,0.1l0,0
						c1,0,1.9-0.8,2.1-1.8l0.8-6.2c0.1-0.6-0.1-1.2-0.5-1.6C54.3,55.8,53.7,55.5,53.1,55.5z M54.3,57.7l-0.8,6.2
						c0,0.7-0.5,1.1-1.1,1.1l-8.1-0.1c-0.6,0-1.1-0.5-1.2-1.1l-0.7-6.1c-0.1-0.7,0.4-1.3,1.1-1.4h0.1h9.5c0.4,0,0.7,0.1,0.9,0.4
						C54.3,57.1,54.4,57.4,54.3,57.7L54.3,57.7z"/>
					<path class="st3" d="M70.2,62.8c1-0.1,1.8-1.1,1.7-2.1c0-0.4-0.1-0.9-0.3-1.3l1-0.1c0.2,0,0.4-0.2,0.3-0.5
						c0-0.2-0.2-0.3-0.3-0.3c-1.2-0.3-2.4-0.3-3.6-0.1c-0.3,0-0.5,0.3-0.5,0.6c0,0.2,0.1,0.3,0.3,0.4h0.1c-0.2,0.4-0.4,0.8-0.4,1.3
						C68.4,61.8,69.2,62.7,70.2,62.8z"/>
					<path class="st3" d="M66.8,49.9c-0.3,0.8-0.2,1.8,0.3,2.5c0,0,6.7-0.2,9.1,0.8c0.7-0.3,1-1.2,0.6-1.8c-0.1-0.1-0.2-0.3-0.3-0.4
						C75.4,49.7,69.7,48.7,66.8,49.9z"/>
					<path class="st3" d="M64.6,64.1c0.1,1,1,1.8,2.1,1.8l8.2-0.1c1,0,1.9-0.8,2-1.8l0.7-6.1c0.1-1.1-0.7-2.2-1.9-2.3h-0.1H66
						c-1.1,0-2,1-2,2.1c0,0.1,0,0.1,0,0.2L64.6,64.1z M65,56.8c0.2-0.3,0.6-0.4,0.9-0.4h9.6c0.3,0,0.7,0.2,0.9,0.4
						c0.2,0.3,0.3,0.6,0.3,1l-0.7,6c-0.1,0.6-0.6,1.1-1.2,1.1L66.7,65c-0.6,0-1.2-0.5-1.2-1.1l-0.7-6.2C64.7,57.4,64.8,57.1,65,56.8
						z"/>
					<path class="st3" d="M115.4,148.5c-0.2-1.2-0.2-3.2-0.3-5.5c-0.4-10.4-1.2-19.9-5.1-21.9c-5-2.5-34.4-14.6-35.7-15.1l0,0
						c-1.8-4.3-3.1-7.4-3.3-7.7c-0.1-0.3-0.4-0.4-0.6-0.5c-0.2-2.8,0-7,0-8.3c0.5-0.4,0.9-0.7,0.9-0.8c4-3.2,5.5-10,6.5-17.3
						c1.9-1.6,3.1-3.9,3.4-6.4c0.4-2.9,0-4.4-0.4-5.1c1.1-1.5,3-5.1,3.7-12.2c0.9-9.3-4.5-17.4-5.4-18.7
						c-1.2-7.3-4.2-13.9-24.5-15.1C47,13.3,39.4,16,33.9,21.3c-6.2,5.8-8.7,13-8.7,15.6c0,4.6,4.3,24,4.5,24.9
						c0,0.1,0.1,0.3,0.2,0.4c-0.5,0.6-1,1.2-1.4,1.8c-2.8,4.7,5,11.4,7.1,13.1c0.6,1.8,1.4,3.9,2.2,5.9c0,2.8,0.1,9-0.1,12.2l0,0
						l0,0h-0.1l0,0l0,0l0,0h-0.1h-0.4l0,0l0,0H37l0,0l0,0h-0.1l0,0c-1.1,1-6.5,5.8-7.5,8.5c-4.1,2.1-36.8,20.6-41.2,24.6
						c-0.8,0.7-3.1,2.8-5.1,32.7c-1,14.6-1.4,28.9-1.4,29.1c0,0.5,0.3,0.8,0.8,0.9l0,0l0,0c0.5,0,0.8-0.4,0.8-0.8
						c0.6-21.9,2.8-57.7,5.9-60.6c4-3.6,33.4-20.3,39.7-23.8c0.2,6.2,0.9,30.4,1.3,34.3c0,0.3,0.2,0.6,0.5,0.7
						c0.2,0.1,2.9,1.1,6.2,2.2c-0.7,1.9-2.4,6.7-4.1,8.8c-0.1,0.2-0.2,0.4-0.2,0.6c0,0.2,0.1,0.4,0.3,0.6
						c0.2,0.2,22.2,17.8,27.5,21.9c-0.8,2.9-1.7,5.8-2.6,8.4l0,0c0,0.1,0,0.1,0,0.2l0,0c0,0.1,0,0.1,0,0.2l0,0l1.6,7.5
						c0.1,0.4,0.4,0.7,0.8,0.7h0.2c0.5-0.1,0.7-0.5,0.7-1l-1.5-7c9.9-10.4,21.5-32.9,22-33.9c0.1-0.2,0.1-0.5,0-0.7
						c-0.5-1.4-4-6.5-5.4-8.5c3.8-2.4,7.8-5,7.9-5c0.3-0.2,0.4-0.5,0.4-0.8c-0.8-5.3-5.7-17.8-9.3-26.7c6.3,2.6,29.7,12.3,34,14.4
						c3.4,1.7,3.9,13.4,4.2,20.4c0.1,2.3,0.2,4.4,0.3,5.6c0.7,5.2,3.4,42,3.4,42.3c0,0.4,0.4,0.8,0.8,0.8h0.1c0.5,0,0.8-0.4,0.8-0.9
						C118.7,189.4,116.1,153.7,115.4,148.5z M61.8,169.5c-3.7-9.1-7.1-18.3-10-26.8c0.2-0.7,0.5-1.9,0.8-3.2
						c0.6-2.6,1.3-5.4,1.5-6.6c0.2-1.5,2.8-5.8,3.8-7.3v-0.1c0.2,0.1,0.4,0.2,0.7,0.2c0.3,0.1,0.6,0.1,0.8,0.1l-2.9,6.3
						c-0.1,0.3,0,0.7,0.3,0.8s0.7,0,0.8-0.3l3.2-6.9c0.5-0.1,1-0.2,1.5-0.4c0.4,1,1.3,3.2,2.2,5.6c1.6,4,1.8,11.8,1.9,13.4
						C65.3,152,63.8,161,61.8,169.5z M58.2,108.2c-2,3.7-4.2,7.3-6.6,10.7c-4.2-1.1-9-5.8-9.1-5.9h-0.1c-1.8-6.6-3.2-11.6-3.9-14.4
						C41.9,101.5,49,106.8,58.2,108.2z M69.5,99.9c0.3,5.1,0.3,10.2-0.1,15.3c-0.4,0.7-0.9,1.4-1.5,1.9c-2.3-3.3-4.8-6.4-7.6-9.3
						C63.7,105.4,66.8,102.8,69.5,99.9z M58.8,124.5c-0.3,0-0.6-0.2-0.7-0.5c-0.3-0.8-0.4-1.7-0.2-2.6H63c0.4,0.7,0.3,1.6-0.1,2.3
						C61.6,124.4,60.2,124.7,58.8,124.5z M63,120.2h-5.4l-2.8-3.8c1.7-2.5,3.3-5.1,4.7-7.8c1.3,1.5,4.5,5.1,6.5,7.8L63,120.2z
						 M51.8,120.2L51.8,120.2c0.3,0,0.5-0.1,0.6-0.3c0.1-0.1,0.7-1,1.7-2.4l2.6,3.4c-0.3,1.2-0.2,2.6,0.4,3.7
						c-0.1,0-0.2,0.1-0.2,0.2c-0.4,0.6-3.6,5.8-3.9,7.8c-0.2,1.1-0.9,4.1-1.5,6.5c-0.1,0.4-0.2,0.8-0.3,1.2
						c-3.2-9.4-5.8-18.1-7.9-25.3C45,116.9,48.6,119.5,51.8,120.2L51.8,120.2z M67.2,138c-0.2-2.5-0.7-5.1-1.5-7.5
						c-0.9-2.4-1.8-4.7-2.3-5.7l0.2-0.1c0.1,0,0.1-0.1,0.2-0.2c0.8-1.1,0.9-2.5,0.3-3.7l2.6-3.3c0.2,0.3,0.3,0.5,0.5,0.8
						c0.1,0.2,0.3,0.3,0.5,0.3s0.6,0.1,1.6-1.1c-0.3,4.8-0.8,10.4-1.5,16.5C67.6,135.2,67.5,136.6,67.2,138z M63,59.1L62.9,58
						c-0.2-1.6,0.9-3.2,2.6-3.4c0.1,0,0.3,0,0.4,0h9.6c1.7,0,3,1.3,3,3c0,0.1,0,0.3,0,0.4l-0.7,6c0,0.5-0.2,0.9-0.4,1.3
						c-0.4,0-0.7,0.4-0.8,0.8v0.1c-0.5,0.4-1.1,0.6-1.8,0.6l-8.1,0.1l0,0c-1.5,0-2.8-1.2-3-2.7l-0.5-4l0,0
						C63.4,59.8,63.3,59.4,63,59.1z M79.9,64.8C79.7,66.5,79,68,78,69.3c0.1-1,0.2-2,0.3-3.1c0-0.2,0-0.4-0.2-0.6
						c0.3-0.5,0.5-1,0.5-1.6l0.3-3.2c0.2,0.1,0.5,0.1,0.7-0.1C80.1,62.2,80.1,63.5,79.9,64.8z M26.6,36.9c0-2.3,2.5-9,8.2-14.4
						c5.2-5,12.3-7.5,19.5-7c19.3,1.2,21.9,7,23,13.9c0,0.1,0.1,0.3,0.2,0.4s6.1,8.4,5.2,17.7c-0.7,7-2.6,10.3-3.5,11.5l0.1-0.9
						c0.1-1-0.2-2-0.8-2.8c0.1-0.1,0.2-0.2,0.2-0.4c0.1-1.3,0.1-3.3,0.1-5c0.1,0.4,0.2,0.7,0.3,1.1c0.1,0.3,0.3,0.5,0.6,0.5h0.1
						c0.3-0.1,0.6-0.4,0.5-0.7c-1.3-6.5-7.6-13.9-7.9-14.1c-0.2-0.3-0.6-0.3-0.9-0.1s-0.3,0.6-0.1,0.9c2.4,2.9,4.5,6,6.1,9.3
						c0,0.8,0,5.2-0.2,7.7c-0.6-0.4-1.3-0.6-2-0.5h-9.5c-2.1,0-3.9,1.7-3.9,3.9c0,0.2,0,0.3,0,0.5l0.1,0.5c-1.6-0.9-3.5-0.9-5.2-0.1
						v-0.4c0.3-2.1-1.3-4.1-3.4-4.3c-0.2,0-0.3,0-0.5,0h-9.5c-1.1,0-2.2,0.5-2.9,1.3s-1.1,1.9-1,3l0.1,1.1c-0.2,0-0.3,0-0.5,0.1
						l-1.2,0.6c-0.4-1.4-0.8-2.8-1.4-4.2c-0.1-0.3-0.5-0.5-0.8-0.3c-0.3,0.1-0.5,0.5-0.3,0.8c0.6,1.4,1,2.8,1.4,4.3L36,61.2
						c-0.4,0.2-0.6,0.7-0.4,1.1l0,0c0.1,0.3,0.4,0.5,0.8,0.5c0.1,0,0.3,0,0.4-0.1l0.4-0.2c0.4,1.7,0.4,3.5-0.2,5.2
						c-0.5-0.2-1.4-0.9-1.6-3.1l0,0c0,0,0,0,0-0.1s0,0,0-0.1l0,0c0-0.1-1.2-2.9-3.3-3.1c-0.4,0-0.8,0-1.2,0.2
						C30.5,58.8,26.6,41.1,26.6,36.9z M56,59.1c-0.3,0.3-0.3,0.7-0.1,1.1l-0.5,4c-0.2,1.5-1.5,2.7-3,2.7l-8.2-0.1
						c-1.5,0-2.8-1.2-3-2.7L40.6,58c-0.1-0.9,0.2-1.7,0.8-2.4c0.6-0.6,1.4-1,2.3-1h9.5c1.7,0,3,1.3,3,3c0,0.1,0,0.3,0,0.4L56,59.1
						L56,59.1z M29.3,64.6c1-1.6,1.9-2.5,2.7-2.4c1.1,0.1,1.9,1.6,2.2,2.2c0.5,4.1,3.1,4.2,3.2,4.3l0,0c0.2,0,0.4-0.1,0.5-0.3
						c1.1-1.7,1-4.4,0.5-6.9l1.5-0.7l0.4,3.3c0.2,2,1.9,3.5,3.9,3.5l8.2,0.1l0,0c2,0,3.6-1.5,3.8-3.4l0.5-3.8c0.2,0,0.4-0.1,0.5-0.2
						c0,0,1.9-1.8,4.8,0.1c0.1,0.1,0.2,0.1,0.3,0.1l0.5,3.8c0.2,2,1.9,3.4,3.9,3.4l8.2-0.1c0.6,0,1.2-0.1,1.7-0.4
						c-0.6,6.6-1.8,16.5-6.3,20.2c-0.1,0.1-6.9,5.9-11.7,6.5s-12.7-3.4-15.8-5.6c-1.1-0.8-2.3-3.1-3.5-5.8l0,0
						c-1.3-3.2-2.5-6.5-3.5-9.9c-0.1-0.4-0.6-0.7-1-0.6s-0.7,0.6-0.6,1c0.1,0.2,0.2,0.9,0.5,1.7C31.6,72,27.6,67.5,29.3,64.6z
						 M41.7,89.6c3.5,2.6,10.7,6,15.8,6c0.4,0,0.8,0,1.2-0.1c3.4-0.4,7.4-2.9,9.9-4.8c-0.1,2-0.1,5.3,0,7.5
						c-2.9,3.1-6.1,5.9-9.6,8.3c-9.5-1.3-17-7.2-20-9.9c0.2-1.8,0.2-6.8,0.2-10.2C39.8,87.7,40.7,88.7,41.7,89.6z M34.7,152.1
						c1.6-2.7,3-5.6,3.9-8.7c2.8,0.9,5.6,1.6,8.4,2.1h0.1c0.5,0,0.8-0.4,0.8-0.8c0-0.4-0.3-0.8-0.7-0.8c-5.2-0.8-13.4-3.8-15.4-4.6
						c-0.5-5.6-1.3-33-1.3-34.9c0.3-1.5,3.5-4.7,6-7c6.5,25.3,14.6,50.1,24.3,74.3c0.1,0.2,0.2,0.3,0.3,0.4L61,173
						C55.5,168.7,38.2,154.9,34.7,152.1L34.7,152.1z M69.8,142.8c-0.4,0.2-0.5,0.8-0.2,1.1l0,0c0.3,0.4,0.8,0.5,1.2,0.2
						c0.9-0.6,2.5-1.6,4.1-2.7c1.9,2.7,4.4,6.5,5.1,7.9c-1.4,2.7-10.7,20.2-19.2,30.4c0.5-1.5,0.9-3,1.3-4.6
						c0.1-0.1,0.2-0.1,0.3-0.2c0.2-0.3,0.2-0.6,0-0.9c6.2-23.5,9.3-56.7,9-70.6c3.4,8.1,10.1,24.3,11.3,31
						C80.7,135.9,72.6,141,69.8,142.8L69.8,142.8z"/>
					<path class="st3" d="M-0.4,144.3c-0.2-0.4-0.7-0.6-1.1-0.4c-0.4,0.2-0.6,0.7-0.4,1.1c0,0,0,0.1,0.1,0.1
						c0.1,0.1,7.2,12.5,8.3,19.1s2.7,24,2.7,24.1c0,0.4,0.4,0.8,0.8,0.8h0.1c0.5,0,0.8-0.5,0.8-0.9l0,0c0-0.2-1.6-17.4-2.7-24.2
						S-0.1,144.8-0.4,144.3z"/>
					<path class="st3" d="M105.3,135.9c-0.5-0.1-0.9,0.3-0.9,0.7l0,0c0,0.4-4.3,44.6-4.6,53.4c0,0.5,0.4,0.8,0.8,0.9l0,0l0,0
						c0.5,0,0.8-0.4,0.8-0.8c0.2-8.8,4.5-52.9,4.6-53.3C106.1,136.3,105.8,135.9,105.3,135.9z"/>
					<path class="st3" d="M30.9,65.8c-0.2,0.1-0.2,0.4-0.1,0.6c0.1,0.1,0.2,0.2,0.4,0.1c0.6-0.3,1.6,1,1.9,1.7
						c0.1,0.1,0.2,0.2,0.4,0.2c0.1,0,0.1,0,0.2,0c0.2-0.1,0.3-0.4,0.2-0.6C33.7,67.6,32.4,65.1,30.9,65.8z"/>
					<path class="st3" d="M62.3,50.4c-2.3,0.9-5.6,0-5.6,0c-0.2-0.1-0.5,0-0.6,0.2s0,0.5,0.2,0.6h0.1c1.1,0.3,2.2,0.5,3.3,0.5
						c1,0,1.9-0.1,2.8-0.5c0.2-0.1,0.3-0.3,0.2-0.5l0,0C62.8,50.4,62.5,50.3,62.3,50.4L62.3,50.4z"/>
				</g>
			</g>
		</g>
	</g>
</g>
</svg>
