<svg version="1.1" id="レイヤー_1" xmlns="http://www.w3.org/2000/svg" xmlns:xlink="http://www.w3.org/1999/xlink" x="0" y="0" viewBox="0 0 108 136.1" xml:space="preserve"><style>.st2{fill:#231f20}</style><g id="レイヤー_2_1_"><g id="characters"><defs><circle id="SVGID_1_" cx="54" cy="68.1" r="67.5"/></defs><clipPath id="SVGID_2_"><use xlink:href="#SVGID_1_" overflow="visible"/></clipPath><g clip-path="url(#SVGID_2_)"><path d="M26.7 111.7s2.2 22.3 30.5 20.6c0 0 19.8-1.4 25.8-18.8l-5.8-3.8s-4.1 13.5-23.1 16.4c-4.4.7-17.7-3-20.8-17.4l-6.6 3z" fill="#fffc19"/><path class="st2" d="M23.6 57.5s-5.9-16.3-3.3-23.8S26.4 14.8 34.7 11s17.1-7.2 30.3-.4c0 0 16.1 1.7 18.4 17.9 1.4 9.6 1 19.4-1.2 28.9l-2 .2-2.7 5.3s.1-12.6-2.4-21.2-.6 0-.6 0-7.7-7.1-9.5-11.8c0 0-5.9 4.4-12 3.9 0 0-3.5 1.7-6.6.7 0 0-3.1 2.3-6 2l-11.2 9.4s2.2 13.5-.6 18.5l-1.9-6.9h-3.1z"/><path class="st2" d="M120.3 128.1c-8.4-5.2-35.8-16-37-16.4-.2-.1-.4-.1-.6 0l-5.2-2.8h-.1-.1c-.4-.2-.7-.5-1-.8-1.2-13.6-1.1-19.6-1.1-20.9 2.7-3.9 4.6-8.3 5.5-13 .6-.3 1.1-.7 1.6-1.2 2.9-2.9 4.3-7.9 4.3-11.7.1-1.6-.5-3.2-1.7-4.2-.4-.3-.9-.5-1.4-.6.8-4.2 3.6-19.6.3-31.4C80.2 12.4 67.6 9.9 65.5 9.7c-1.6-1.3-11.2-7.9-25.4-2.4-16.5 6.3-20.8 23.3-20.8 31.5.1 6.3 1 12.6 2.8 18.7-1.1 1-1.7 2.5-1.6 4 0 3.7 1.3 8.7 4.2 11.5.9.9 1.9 1.5 3.1 1.9 1.8 4.2 4 8.2 6.6 11.9.3 4.4.8 14-.1 19.4-.3.2-1 .6-1.4.8l-6 2.9c-.2-.1-.5 0-.7.1-.2 0-26.2 13-34.5 18.1-8.6 5.3-14.8 52.7-15.4 58.1 0 .4.2.8.6 1l1.9.8v19c0 .6.4 1 1 1s1-.4 1-1v-18.2c5.8 2.3 17 6.3 25.1 6.9.4 3.9.8 7.5.9 10.2 0 .6.4 1 1 1 .5 0 1-.5 1-1-.6-12.7-5.8-43.2-5.8-43.5-.1-.6-.6-.9-1.2-.8-.6.1-.9.6-.8 1.2 0 .2 2.9 17.3 4.6 31.1-9.6-.8-24-6.6-27.2-8C-19.7 171-13.7 134-7.2 130c7.4-4.5 28.8-15.3 33.5-17.7.9 3.4 2.4 6.5 4.4 9.4 3.6 5.2 10.5 11.4 23.5 11.4 12.6 0 20-5.4 24-9.9 2.4-2.7 4.2-5.8 5.3-9.2 4.6 1.8 28.4 11.4 35.9 16 6.5 4 12.5 41 14.4 55.9-3.3 1.4-17.6 7.1-27.2 8 1.7-13.9 4.5-30.9 4.6-31.1.1-.6-.3-1.1-.8-1.2-.6-.1-1.1.3-1.2.8-.1.3-5.2 30.8-5.7 43.6 0 .6.4 1 1 1s1-.4 1-1c.1-2.7.4-6.3.9-10.2 8.1-.6 19.3-4.6 25.1-6.9v18.2c0 .6.4 1 1 1s1-.4 1-1v-19l1.9-.8c.4-.2.6-.6.6-1-.9-5.4-7.1-52.9-15.7-58.2zm-99-89.3c0-7.7 4.1-23.7 19.4-29.7 14.2-5.4 23.3 2 23.6 2.3.2.1.3.2.5.2.1 0 13.4 1.6 16.8 14.1 3.2 11.5.3 27.2-.4 30.7-.3 0-.5.1-.8.1-.1 0-.2.1-.2.1-.4 0-.8.2-.8.6-.2 1.1-.6 2.2-1.1 3.2 0-8.2-3-21.2-3.1-21.8-.1-.4-.5-.7-.9-.6-.4.1-.6.5-.6.9 0 0 .1.5.3 1.4-3.3-2.9-7-8.6-8.1-10.3l.5-.5c.3-.3.3-.8 0-1.1s-.8-.3-1.1 0c-3.4 3.4-8.2 4.2-10.7 4.5.7-.7 1.2-1.4 1.7-2.2.2-.3.1-.8-.2-1s-.8-.1-1 .2c-2.5 3.8-5.3 4.3-7 4.1.9-.8 1.7-1.6 2.4-2.6.2-.3.2-.8-.2-1-.3-.2-.8-.1-1 .2-.9 1.3-2 2.3-3.3 3.2l-.1.1c-1 .7-2.2 1.2-3.4 1.5 1-.9 1.9-2 2.6-3.2.2-.4.1-.8-.3-1-.4-.2-.8-.1-1 .3-1.1 1.6-2.5 3.1-3.9 4.4l.1.1c-4.5 4.2-11 9.3-11.1 9.3-.2.2-.3.4-.3.7.5 3.3 1.3 11.6.2 16l-1.4-4.8c-.1-.4-.5-.6-.9-.5-.1 0-.2.1-.3.2h-.1c-.7-.2-1.4-.2-2.1-.1-1.7-6-2.6-12-2.7-18zm4.5 33.1c-2.6-2.5-3.7-7.2-3.7-10.4-.1-1 .3-2.1 1-2.8.8-.5 1.8-.6 2.7-.4h.5l1.7 6.3c.1.3.3.5.6.5h.1c.3 0 .5-.1.6-.3 2.7-4.1 1.2-16.1.8-18.6 1.4-1.1 6.7-5.3 10.6-9 2.1-.1 4.1-.8 5.8-1.9.7.2 1.4.3 2.2.3 1.4 0 2.9-.4 4.1-1.1h.5c1.4 0 7-.2 11.5-3.5 1.4 2.1 5.7 8.6 9.3 11.3.1.1.3.1.4.1 1.1 5.2 2.8 15.1 2.3 20.4 0 .3.1.6.4.7.1.1.2.1.3.1.2 0 .4-.1.5-.2 1.4-1.3 2.3-3 2.7-4.9h.3c.8-.2 1.7-.1 2.4.4.7.7 1 1.6.9 2.6 0 3.1-1 7.4-3.3 9.9 0-.3.1-.6.1-.9.1-.6-.3-1-.9-1.1s-1 .3-1.1.9c-.1.9-.2 1.9-.4 2.8-.7.3-1.4.4-2.1.4-.6 0-1 .4-1 1s.4 1 1 1h.4c.5 0 1 0 1.5-.2-.9 3.8-2.5 7.5-4.8 10.7l-2.3-3.4c-.2-.3-.7-.4-1-.2-.3.2-.4.7-.2 1l2.3 3.5c.1.1.2.2.4.3-.4.6-.9 1.1-1.3 1.6l-1.9-3.6c-.2-.4-.6-.5-1-.3s-.5.6-.3 1l2 3.7.3.3c-.7.7-1.3 1.3-2 1.9v-.1l-1.2-4.5c-.1-.4-.5-.6-.9-.5s-.6.5-.5.9l1.2 4.5c.1.3.3.5.5.5-.6.4-1.1.9-1.7 1.3l-.9-5c-.1-.4-.5-.7-.9-.6s-.7.5-.6.9l1 5.5c-.7.3-1.4.5-2.1.8l-.7-5.4c-.1-.4-.4-.7-.8-.6-.4.1-.7.4-.6.8l.8 5.6c-1 .2-2.1.4-3.1.4.1-.1.1-.2.1-.3v-5c0-.4-.3-.8-.8-.8s-.8.3-.8.8v5c0 .1 0 .3.1.4h-2.2c.1-.1.1-.3.1-.4v-5c0-.4-.3-.8-.8-.8s-.8.3-.8.8v5c0 .1 0 .2.1.3-1-.1-2-.3-3-.6l.7-5.4c0-.4-.3-.8-.7-.8s-.7.2-.8.6l-.7 5.2c-.7-.2-1.4-.5-2-.8l1-5.3c.1-.4-.2-.8-.6-.9-.4-.1-.8.2-.9.6l-.9 4.9c-.4-.2-.8-.4-1.3-.7l-.5-.3 1.2-4.3c.1-.4-.1-.8-.5-.9s-.8.1-.9.5l-1.1 3.8-1.8-1.5 1.9-3.7c.2-.4.1-.8-.3-1-.4-.2-.8 0-1 .3l-1.7 3.3c-.5-.5-1-1.1-1.5-1.6l2.3-3.4c.3-.3.2-.8-.1-1.1-.3-.3-.8-.2-1.1.1v.1l-2.1 3.2c-1.2-1.6-2.4-3.3-3.4-5.1.2 0 .3-.1.5-.2l1.5-1.4c.3-.3.3-.8 0-1.1-.3-.3-.7-.3-1-.1L32.8 80c0 .1-.1.1-.1.2-1-1.8-1.9-3.6-2.6-5.1.4-.1.7-.5.6-.9s-.4-.6-.7-.6h-.5c-.8-1.8-1.2-3-1.2-3-.2-.5-.7-.8-1.3-.6-.5.2-.8.7-.6 1.3 0 .1.2.7.6 1.6-.5-.3-.9-.7-1.2-1zm17.1 23c3.9 2.3 8.4 3.5 13 3.5 5.3 0 9.4-1.6 10.8-2.6l.3-.2c2.3-1.6 4.4-3.5 6.2-5.6.1 3.4.4 10.2 1.6 21.7 0 .3.2.6.5.8-2.2 4.5-8 12.6-21.2 12.6s-17.7-9-19.3-14.1l.1-.1c2.4-3.4 2-15.3 1.7-21.2 1.8 2 3.9 3.8 6.3 5.2zM77 122.2c-3.8 4.3-10.8 9.4-22.8 9.4v.8-.8c-12.3 0-18.9-5.8-22.3-10.7-2-2.8-3.4-6-4.2-9.4l.1-.1 5.1-2.5c.8 4.1 4.7 17.7 21.4 17.7s22.2-12.4 23.5-15.9l4.4 2.4v.1c-1.2 3.2-2.9 6.3-5.2 9z"/><path class="st2" d="M58.4 63.8c-.4-.2-.8 0-1 .4v.1c-.6 1.4-1.9 2.3-3.4 2.5-2.4.4-4.1-2.6-4.1-2.6-.2-.3-.7-.4-1-.2-.3.2-.4.6-.3.9.1.2 1.9 3.5 4.9 3.5.3 0 .5 0 .8-.1 2-.3 3.7-1.6 4.5-3.5.1-.5-.1-.8-.4-1zM61.9 74.7c-2.4 1.6-5.3 2.5-8.2 2.5-5.9 0-8-2.2-8-2.2-.3-.3-.7-.3-1.1-.1-.3.3-.3.7-.1 1.1.1.1 2.5 2.7 9.2 2.7 3.2-.1 6.3-1 9-2.8.3-.2.4-.7.2-1-.2-.4-.6-.5-1-.2zM41.6 59.2c1.4.3 2.7-.6 3-2s-.6-2.7-2-3-2.7.6-3 2v.5c-.2 1.3.7 2.4 2 2.5zM43.1 47.2c.5.4 1.3.2 1.6-.3.4-.5.2-1.3-.3-1.6-.1-.1-.3-.2-.5-.2-2.7-.8-5.5-.5-8 .7-.9.4-1.4 1.3-1.2 2.2 5.1-2 7.5-1.2 8.4-.8zM48.8 56.8v1z"/><path class="st2" d="M40.9 66.9c5 0 9-3.9 9.5-9.3V57c2.1-.7 4.4-.7 6.5 0v.6c.5 5.4 4.4 9.4 9.5 9.4s8.9-3.9 9.5-9.3c.3-3-.3-5.3-1.8-7S69.9 48 66.4 48c-3.7 0-6.2.8-7.8 2.5-.8.9-1.3 2-1.5 3.2-2.2-.8-4.7-.8-6.9 0-.2-1.2-.8-2.3-1.6-3.2-1.6-1.7-4.1-2.5-7.8-2.5-3.5 0-6.1.9-7.7 2.7-1.6 1.8-2.1 4-1.8 7 .6 5.3 4.6 9.2 9.6 9.2zM59.4 51c1.4-1.5 3.7-2.2 7-2.2 3.2 0 5.5.8 6.9 2.3s1.8 3.5 1.5 6.2c-.5 4.9-4 8.4-8.5 8.4s-8.1-3.5-8.5-8.4c0-2 0-4.5 1.6-6.3zm-2.5 3.5c0 .4-.1.8-.1 1.3-2.1-.6-4.4-.6-6.5 0 0-.4 0-.8-.1-1.3 2.3-.7 4.6-.7 6.7 0zm-23-3.3c1.4-1.5 3.7-2.3 7-2.3 3.4 0 5.7.7 7 2.2 1.6 1.8 1.6 4.3 1.4 6.3-.4 4.9-4 8.4-8.5 8.4s-8-3.5-8.5-8.4c-.2-2.6.3-4.8 1.6-6.2z"/><path class="st2" d="M40.9 64.7c3.9 0 6.9-3.1 7.3-7.4.2-2.7-.1-4.3-1.1-5.4S43.9 50 40.9 50c-2.8 0-4.9.7-6.1 2s-1.5 2.9-1.2 5.3c.3 3.7 2.9 7.4 7.3 7.4zm-5.4-12.1c1-1.1 2.8-1.6 5.3-1.6 2.7 0 4.5.5 5.4 1.5s1.1 2.3.9 4.7c-.3 3.7-3 6.4-6.3 6.4-3.7 0-6-3.2-6.3-6.5-.2-2 .2-3.5 1-4.5z"/><ellipse class="st2" cx="65.7" cy="56.8" rx="2.1" ry="2.5"/><path class="st2" d="M64.2 47.2c.9-.4 3.2-1.3 8.3.8.2-.9-.3-1.9-1.2-2.2-2.5-1.3-5.3-1.5-8-.7-.6.1-1.1.7-1 1.4.1.6.7 1.1 1.4 1 .2-.2.3-.2.5-.3zM58.5 56.8v1zM66.4 64.7c4.3 0 7-3.7 7.3-7.4.2-2.4-.2-4.1-1.2-5.3s-3.2-2-6.1-2-5 .6-6.2 1.8-1.4 2.8-1.1 5.4c.4 4.3 3.5 7.5 7.3 7.5zM61 52.5c.9-1 2.7-1.5 5.4-1.5 2.6 0 4.3.5 5.3 1.6s1.2 2.4 1 4.5c-.3 3.2-2.6 6.5-6.3 6.5-3.3 0-6-2.7-6.3-6.4-.2-2.4.1-3.7.9-4.7zM44 71c-.4-.2-.8 0-1 .4L42 74c-.2.4 0 .8.4 1 .1 0 .2 0 .3.1.3 0 .6-.2.7-.5l1-2.6c.1-.4-.1-.9-.4-1zM45.5 73.7h.2c.3 0 .6-.2.7-.5l.7-2.2c.2-.4 0-.8-.4-1s-.8 0-1 .4v.1l-.7 2.2c-.1.4.1.8.5 1zM48.1 71.5c-.1.4.2.8.6.9h.2c.3 0 .6-.2.7-.6l.3-1.5c.1-.4-.2-.8-.6-.9-.4-.1-.8.1-.9.5l-.3 1.6zM65.2 71.4c-.2-.4-.6-.6-1-.4s-.6.6-.4 1l1 2.6c.1.3.4.5.7.5.1 0 .2 0 .3-.1.4-.2.6-.6.4-1l-1-2.6zM62.2 73.1h.2c.4-.1.6-.5.5-.9l-.5-1.7c-.1-.4-.5-.6-.9-.5s-.6.5-.5.9l.5 1.6c.1.4.4.6.7.6zM58.3 70.5l.5 1.1c.1.3.4.4.7.4.1 0 .2 0 .3-.1.4-.2.5-.6.4-1l-.5-1.1c-.2-.4-.6-.5-1-.4-.4.3-.6.7-.4 1.1zM51 70v.7c0 .4.3.8.8.8s.8-.3.8-.8V70c0-.4-.3-.8-.8-.8s-.8.4-.8.8zM55 70v.7c0 .4.3.8.8.8s.8-.3.8-.8V70c0-.4-.3-.8-.8-.8s-.8.4-.8.8zM37.5 80.7c-.3-.2-.8-.1-1 .2L35 83.2c-.2.3-.1.8.2 1 .1.1.3.1.4.1.3 0 .5-.1.6-.3l1.5-2.4c.3-.4.1-.7-.2-.9zM73.7 80.2c-.2-.3-.7-.4-1-.2-.3.2-.4.7-.2 1l1.5 2.4c.1.2.4.4.6.3.1 0 .3 0 .4-.1.3-.2.4-.7.2-1l-1.5-2.4zM74.1 77.4c-.3.3-.2.8.1 1.1l1.5 1.4c.1.1.3.2.5.2s.4-.1.6-.2c.3-.3.2-.8-.1-1.1l-1.5-1.4c-.3-.3-.8-.3-1.1 0zM93.2 163.6H72.8c-.4 0-.8.3-.8.7l1.4 26.1c0 .4.4.7.8.7h17.2c.4 0 .7-.3.8-.7l1.8-26.1c0-.4-.3-.7-.8-.7.1 0 .1 0 0 0zm-.8 1.5l-.2 2.7H73.7l-.2-2.7h18.9zm-1.7 24.6H74.9l-1.1-20.4h18.3l-1.4 20.4zM55.8 81.1h-3.5c-.4 0-.8.3-.8.8s.3.8.8.8h3.5c.4 0 .8-.3.8-.8s-.4-.8-.8-.8z"/></g></g></g></svg>