<?xml version="1.0" encoding="utf-8"?>
<!-- Generator: Adobe Illustrator 25.0.1, SVG Export Plug-In . SVG Version: 6.00 Build 0)  -->
<svg version="1.1" id="レイヤー_1" xmlns="http://www.w3.org/2000/svg" xmlns:xlink="http://www.w3.org/1999/xlink" x="0px"
	 y="0px" viewBox="0 0 108 196.3" style="enable-background:new 0 0 108 196.3;" xml:space="preserve">
<style type="text/css">
	.st0{clip-path:url(#SVGID_2_);}
	.st1{fill:#BA583F;}
	.st2{fill:#231F20;}
</style>
<g id="レイヤー_2_1_">
	<g id="characters">
		<g>
			<defs>
				<circle id="SVGID_1_" cx="55.3" cy="67.5" r="67.5"/>
			</defs>
			<clipPath id="SVGID_2_">
				<use xlink:href="#SVGID_1_"  style="overflow:visible;"/>
			</clipPath>
			<g class="st0">
				<path class="st1" d="M20.7,106.5c0,0-5.5-7.5-2.8-12.7s6.6-10.4,6.8-14.3s-3.1-30-0.5-38.6s8.1-23.5,22.7-29s18.5-3.2,23.4,2.4
					c0,0,11.3,0.2,15.1,14.6s1.1,31.2-0.9,36s-1.2,12.7-0.3,17.7s2.4,17.1-0.5,22.1l-13.9-6.4c0,0-5.6-6.9-3.7-15.7
					c0,0,13.6-9,11.6-37.8c0,0-9.6-10.4-10.6-21.5c0,0-17.9,11.5-22,14.5S36,50.4,36.5,58.2c0.3,4.6,0.8,9.1,1.7,13.6l4.2,5.7
					c0,0,1.1,15.5-4.5,21.4L20.7,106.5z"/>
				<path class="st2" d="M99.8,112.1c-4.8-2.9-9.8-5.6-14.9-7.9c3.1-6.8,1.8-13.5,0.6-20c-0.8-3.4-1.2-6.8-1.3-10.2
					c0.3-3.5,0.7-7,1.4-10.5c1.9-10.7,4.5-25.3-0.3-37.5c-4.2-10.7-12.6-12.4-14.6-12.6c-1.4-1.9-8.8-9.7-24.3-2.4
					c-20,9.4-24.2,27.2-24.2,40.4c0,5.4,0.4,10.8,1.1,16.2c0.8,6.9,1.3,11.8-1,16c-0.6,1.1-1.2,2.1-1.7,3.1
					c-3.2,5.5-5.8,9.9-1.2,19.3c-3.9,1.8-7.6,3.8-11.2,6C0.8,117.1-2,166.4-2.3,172c0,0.5,0.3,0.9,0.8,0.9c0,0,0,0,0,0l0,0
					c0.5,0,0.9-0.4,0.9-0.9c1.1-21.7,4.7-55.1,9.8-58.5c6.4-4.3,24.8-12.1,28.4-13.7c1.5,2,6.6,9.1,9.7,14
					c4.9,7.8,9.1,14.2,9.1,14.3l0,0l0.1,0.1l0,0c0,0,0.1,0.1,0.1,0.1l0,0l0.2,0.1l0,0H57h0.1c0.1,0,0.2,0,0.3-0.1h0.1
					c0,0,0.1,0,0.1-0.1l0,0l0,0c0.1-0.1,0.1-0.1,0.2-0.2l0,0c0-0.1,0.1-0.2,0.1-0.2l0,0c1.9-7.4,10.3-24.7,12.2-28.6
					c1.1,0.5,3.4,1.5,6.1,2.8c-0.1,0.2-0.1,0.4-0.1,0.6c0,0,0.5,2.8-0.9,4.6c-0.8,1-2.1,1.5-3.4,1.5c-0.5,0-0.9,0.4-0.8,0.9
					c0,0,0,0,0,0c0,0.5,0.4,0.8,0.9,0.8h0.1c1.9,0.1,3.7-0.7,5-2.2c1.1-1.6,1.5-3.6,1.3-5.5c7,3.3,16.5,7.8,20.7,10.7
					c5,3.4,8.6,36.8,9.8,58.5c0,0.5,0.4,0.8,0.9,0.9h0.1c0.5,0,0.9-0.4,0.8-0.9c0,0,0,0,0,0C110,166.4,107.2,117.1,99.8,112.1z
					 M22.2,87.7c0.6-1,1.2-2,1.8-3.1c2.5-4.7,1.9-9.9,1.2-17c-0.7-5.3-1-10.7-1.1-16c0-12.7,4-29.8,23.2-38.8
					c15.9-7.5,22,1.7,22.3,2.1c0.2,0.2,0.4,0.4,0.7,0.4c0.4,0,9.2,0.7,13.5,11.5c4.6,11.7,2,26.1,0.2,36.5
					c-0.7,3.6-1.2,7.2-1.5,10.8c0,3.6,0.5,7.1,1.3,10.6c1.2,6.2,2.4,12.7-0.4,18.9c-6.2-2.9-11.8-5.4-13-6c-4-4.9-3.5-12.7-3.3-14.4
					c5.3-4.4,8.8-11.8,10-16.3c1.6-7.2,2.2-14.6,1.7-22c0-0.2-0.1-0.4-0.2-0.5c-0.1-0.1-6.8-6.9-8.5-13.1c-0.8-3.1-1.9-7.9-1.9-8
					c-0.1-0.3-0.3-0.5-0.5-0.6c-0.3-0.1-0.6-0.1-0.8,0.1c-0.1,0.1-12.2,7.8-19.3,12.3C40,39.5,35.9,51,35.6,59.9
					c0,3.1,0.3,6.3,1,9.3c0.7,3.5,1.3,6.5,0.4,10.6c-0.1,0.5,0.2,0.9,0.7,1.1c0,0,0,0,0,0c0.5,0.1,1-0.2,1.1-0.7
					c0.4-1.7,0.5-3.4,0.5-5.1c0.6,0.8,1.3,1.8,2.2,2.8c0.1,2.2,0.3,14.5-4.1,20.2c-1.5,0.6-9,3.8-16.3,7.2
					C16.9,96.7,19.1,92.9,22.2,87.7z M38.9,71.4c0-0.1-0.1-0.1-0.1-0.2c-0.1-0.8-0.3-1.5-0.5-2.3c-0.7-2.9-1-5.9-1-8.9
					c0.2-8.3,4.2-19.4,10.9-23.7c5.9-3.8,15.2-9.7,18.3-11.6c0.4,1.6,1.1,4.6,1.7,6.8c1.6,6.1,7.4,12.4,8.7,13.7
					c0.4,7.1-0.2,14.2-1.7,21.1c-1.6,6.3-8.7,19.8-18.8,18.7S39,71.5,38.9,71.4z M56.9,125.6c-1.6-2.4-4.6-7.2-8.1-12.6
					c-3.1-4.9-8.3-12.1-9.8-14.1c3.8-5.3,4.3-14.7,4.3-19c3.2,3.1,7.6,6.2,12.8,6.8c3.1,0.3,6.3-0.5,8.9-2.2
					c-0.1,3.2,0.1,9.4,3.7,13.9C67.2,101.4,59.6,117.1,56.9,125.6L56.9,125.6z"/>
				<path class="st2" d="M20.6,136.1c-0.2-0.3-0.7-0.3-0.9-0.1c-0.2,0.2-0.3,0.6-0.1,0.8c0,0,1.5,2.1,3,4.6
					c-0.1,0.1-0.2,0.3-0.2,0.4c0,0.7-0.2,17.3,0,22.1s0,11.7,0,11.8c0,0.4,0.3,0.7,0.6,0.7l0,0c0.4,0,0.6-0.3,0.7-0.6
					c0-0.1,0.2-7.1,0-11.9c-0.2-3.9-0.1-16,0-20.4c0.7,1.2,1.2,2.6,1.6,3.9c0.1,0.3,0.3,0.5,0.7,0.5H26c0.4-0.1,0.6-0.4,0.5-0.8
					C25.8,143.6,20.8,136.4,20.6,136.1z"/>
				<path class="st2" d="M92.9,124.2c0.1-0.3-0.1-0.7-0.4-0.8c-0.3-0.1-0.7,0-0.8,0.4c0,0,0,0,0,0c-1,2.6-1.7,5.4-2.2,8.1
					c0,0.1,0,0.1,0,0.2c0,0.2,2.9,17.8,2.2,22.2c-0.6,2.5-1.4,4.9-2.5,7.2c-1.3,3-2.4,5.8-2.6,8.1c-0.1,2.8-0.1,5.5,0,8.3
					c0,0.4,0.3,0.6,0.7,0.6l0,0c0.4,0,0.7-0.3,0.6-0.7c0,0,0,0,0,0c-0.1-2.7-0.1-5.4,0-8.1c0.1-2,1.3-4.9,2.5-7.6
					c1.1-2.4,2-4.9,2.6-7.5c0.7-4.5-1.9-21.1-2.2-22.6C91.2,129.3,92,126.7,92.9,124.2z"/>
				<path class="st2" d="M52.4,72.7c-0.2,0.3-0.2,0.7,0.1,0.9c0,0,0,0,0,0c1.8,1.3,4,2,6.2,2.1c2.1,0,4.2-0.7,5.8-2.1
					c0.3-0.2,0.3-0.6,0.1-0.9c0,0,0,0,0,0c-0.2-0.3-0.6-0.3-0.9-0.1c0,0,0,0,0,0c-5.2,4-10.2,0.2-10.4,0
					C53.1,72.3,52.7,72.4,52.4,72.7C52.5,72.7,52.4,72.7,52.4,72.7z"/>
				<path class="st2" d="M51.9,47.5c0,0,0.8,0.2,1-0.4c0.2-0.6-0.1-1.2-0.7-1.4c-0.1,0-0.1,0-0.2,0c-2.6-0.5-5.2,0-7.5,1.3
					c-1.5,0.9-0.9,1.8-0.9,1.8C47.6,46.5,51,47.2,51.9,47.5z"/>
				<path class="st2" d="M64.5,47.5c0.9-0.4,4.3-1.1,8.3,1.3c0,0,0.5-0.8-0.9-1.8c-2.2-1.4-4.9-1.8-7.5-1.3c-0.6,0.1-1,0.6-1,1.2
					c0,0.1,0,0.1,0,0.2C63.6,47.8,64.5,47.5,64.5,47.5z"/>
				<path class="st2" d="M58.2,68.3c1.3,0,2.5-0.6,3.3-1.6c0.1-0.2,0.1-0.4,0-0.5c-0.1-0.1-0.2-0.1-0.3-0.1
					c-0.9,0.2-1.7,0.4-2.6,0.4c-0.9-0.1-1.8-0.3-2.6-0.6c-0.3-0.1-0.5,0-0.6,0.3c-0.1,0.1,0,0.3,0.1,0.4
					C56,67.6,57.1,68.2,58.2,68.3z"/>
				<path class="st2" d="M48.6,51.5c-0.9,0.2-1.7,0.7-2.3,1.4c-0.2,0.2-0.2,0.5,0,0.6c0.1,0.1,0.2,0.2,0.3,0.2
					c0.3,0,0.7-0.1,1.1-0.1c-0.3,0.5-0.4,1.1-0.4,1.7c-0.2,1.4,0.7,2.6,2,2.9s2.6-0.7,2.9-2c0-0.3,0-0.6,0-0.8
					c0-0.6-0.2-1.2-0.5-1.7h1.1c0.3,0,0.6-0.3,0.5-0.6c0-0.2-0.1-0.3-0.2-0.4C51.9,51.5,50.2,51.1,48.6,51.5z"/>
				<path class="st2" d="M68.1,51.5c-1.6-0.4-3.3,0-4.5,1.1c-0.2,0.2-0.3,0.5-0.1,0.8c0.1,0.1,0.3,0.2,0.4,0.2H65
					c-0.3,0.5-0.5,1.1-0.5,1.7c-0.2,1.4,0.7,2.6,2,2.9c1.4,0.2,2.6-0.7,2.9-2c0-0.3,0-0.6,0-0.8c0-0.6-0.1-1.2-0.4-1.7
					c0.4,0,0.8,0,1.1,0.1c0.3,0,0.5-0.2,0.5-0.5c0-0.1-0.1-0.2-0.1-0.3C69.8,52.3,69,51.8,68.1,51.5z"/>
				<path class="st2" d="M39.9,111.3c0.5,0,0.9-0.4,0.9-0.9c0-0.5-0.4-0.9-0.9-0.9l0,0c-1.3,0-2.5-0.6-3.4-1.5
					c-1.4-1.8-0.9-4.6-0.9-4.6c0.1-0.5-0.1-1-0.6-1.1c-0.5-0.1-1,0.1-1.1,0.6c0,0.1,0,0.1,0,0.2c0,0.2-0.7,3.6,1.2,6
					C36.4,110.4,38.1,111.3,39.9,111.3L39.9,111.3z"/>
				<path class="st2" d="M45.2,120.5c-1.3,0-2.5-0.5-3.4-1.5c-1.4-1.8-0.9-4.6-0.9-4.6c0.1-0.5-0.1-1-0.6-1.1
					c-0.5-0.1-1,0.1-1.1,0.6c0,0.1,0,0.1,0,0.2c0,0.2-0.7,3.6,1.2,6c1.2,1.4,2.9,2.2,4.7,2.2h0c0.5,0,0.9-0.4,0.9-0.9
					C46,120.9,45.6,120.5,45.2,120.5L45.2,120.5z"/>
				<path class="st2" d="M53.4,129.5c-2.1,0.3-3.6-0.1-4.5-1.1c-1.5-1.6-1.1-4.3-1.1-4.3c0.1-0.5-0.3-0.9-0.7-1
					c-0.5-0.1-0.9,0.3-1,0.7c0,0.2-0.5,3.6,1.6,5.8c1.2,1.2,2.9,1.8,4.6,1.7c0.5,0,1,0,1.5-0.1c0.5,0,0.9-0.4,0.9-0.9
					c0-0.5-0.4-0.9-0.9-0.9C53.5,129.5,53.4,129.5,53.4,129.5L53.4,129.5z"/>
				<path class="st2" d="M71.8,112.7c-0.5,0.1-0.8,0.5-0.7,1c0,0,0.5,2.8-0.9,4.6c-0.8,1-2.1,1.6-3.4,1.6c-0.5,0-0.9,0.4-0.9,0.9
					c0,0.5,0.4,0.9,0.9,0.9h0.1c1.8,0,3.5-0.8,4.7-2.2c1.9-2.4,1.2-5.9,1.2-6C72.6,113,72.2,112.7,71.8,112.7z"/>
				<path class="st2" d="M65.7,123c-0.5,0.1-0.8,0.5-0.8,1c0,0,0,0,0,0c0,0,0.3,3-1.2,4.6c-0.9,0.8-2.1,1.2-3.3,1
					c-0.5,0-0.9,0.4-0.9,0.9c0,0.4,0.3,0.8,0.8,0.9H61c1.5,0.1,2.9-0.5,4-1.6c2.1-2.2,1.7-5.9,1.7-6C66.6,123.3,66.2,123,65.7,123
					C65.7,123,65.7,123,65.7,123z"/>
			</g>
		</g>
	</g>
</g>
</svg>
