<?xml version="1.0" encoding="utf-8"?>
<!-- Generator: Adobe Illustrator 25.0.1, SVG Export Plug-In . SVG Version: 6.00 Build 0)  -->
<svg version="1.1" id="レイヤー_1" xmlns="http://www.w3.org/2000/svg" xmlns:xlink="http://www.w3.org/1999/xlink" x="0px"
	 y="0px" viewBox="0 0 108 196.3" style="enable-background:new 0 0 108 196.3;" xml:space="preserve">
<style type="text/css">
	.st0{clip-path:url(#SVGID_2_);}
	.st1{fill:#FFFC19;}
	.st2{fill:#231F20;}
</style>
<g id="レイヤー_2_1_">
	<g id="characters">
		<g>
			<defs>
				<circle id="SVGID_1_" cx="54" cy="67.5" r="67.5"/>
			</defs>
			<clipPath id="SVGID_2_">
				<use xlink:href="#SVGID_1_"  style="overflow:visible;"/>
			</clipPath>
			<g class="st0">
				<path class="st1" d="M26.7,111.1c0,0,2.2,22.3,30.5,20.6c0,0,19.8-1.4,25.8-18.8l-5.8-3.8c0,0-4.1,13.5-23.1,16.4
					c-4.4,0.7-17.7-3-20.8-17.4L26.7,111.1z"/>
				<path class="st2" d="M23.6,57c0,0-5.9-16.3-3.3-23.8s6.1-18.9,14.4-22.7S51.8,3.3,65,10c0,0,16.1,1.7,18.4,17.9
					c1.4,9.6,1,19.4-1.2,28.9L80.2,57l-2.7,5.3c0,0,0.1-12.6-2.4-21.2s-0.6,0-0.6,0S66.8,34,65,29.3c0,0-5.9,4.4-12,3.9
					c0,0-3.5,1.7-6.6,0.7c0,0-3.1,2.3-6,2l-11.2,9.4c0,0,2.2,13.5-0.6,18.5l-1.9-6.9L23.6,57z"/>
				<path class="st2" d="M120.3,127.6c-8.4-5.2-35.8-16-37-16.4c-0.2-0.1-0.4-0.1-0.6,0l-5.2-2.8h-0.1c0,0,0,0-0.1,0
					c-0.4-0.2-0.7-0.5-1-0.8C75.1,94,75.2,88,75.2,86.7c2.7-3.9,4.6-8.3,5.5-13c0.6-0.3,1.1-0.7,1.6-1.2c2.9-2.9,4.3-7.9,4.3-11.7
					c0.1-1.6-0.5-3.2-1.7-4.2c-0.4-0.3-0.9-0.5-1.4-0.6c0.8-4.2,3.6-19.6,0.3-31.4C80.2,11.9,67.6,9.4,65.5,9.1
					c-1.6-1.3-11.2-7.9-25.4-2.4C23.6,13,19.3,30,19.3,38.2c0.1,6.3,1,12.6,2.8,18.7l0,0c-1.1,1-1.7,2.5-1.6,4
					c0,3.7,1.3,8.7,4.2,11.5c0.9,0.9,1.9,1.5,3.1,1.9c1.8,4.2,4,8.2,6.6,11.9c0.3,4.4,0.8,14-0.1,19.4c-0.3,0.2-1,0.6-1.4,0.8l0,0
					l-6,2.9c-0.2-0.1-0.5,0-0.7,0.1C26,109.4,0,122.4-8.3,127.6c-8.6,5.3-14.8,52.7-15.4,58.1c0,0.4,0.2,0.8,0.6,1l1.9,0.8
					c0,3.1,0,15.6,0,19c0,0.6,0.4,1,1,1l0,0c0.6,0,1-0.4,1-1c0-3.1,0-14.1,0-18.2c5.8,2.3,17,6.3,25.1,6.9c0.4,3.9,0.8,7.5,0.9,10.2
					c0,0.6,0.4,1,1,1h0c0.5,0,1-0.5,1-1C8.2,192.6,3,162.1,3,161.8c-0.1-0.6-0.6-0.9-1.2-0.8c-0.6,0.1-0.9,0.6-0.8,1.2
					c0,0.2,2.9,17.3,4.6,31.1c-9.6-0.8-24-6.6-27.2-8c1.9-14.9,7.9-51.9,14.4-55.9c7.4-4.5,28.8-15.3,33.5-17.7
					c0.9,3.4,2.4,6.5,4.4,9.4c3.6,5.2,10.5,11.4,23.5,11.4l0,0c12.6,0,20-5.4,24-9.9c2.4-2.7,4.2-5.8,5.3-9.2
					c4.6,1.8,28.4,11.4,35.9,16c6.5,4,12.5,41,14.4,55.9c-3.3,1.4-17.6,7.1-27.2,8c1.7-13.9,4.5-30.9,4.6-31.1
					c0.1-0.6-0.3-1.1-0.8-1.2c-0.6-0.1-1.1,0.3-1.2,0.8c-0.1,0.3-5.2,30.8-5.7,43.6c0,0.6,0.4,1,1,1l0,0c0.6,0,1-0.4,1-1
					c0.1-2.7,0.4-6.3,0.9-10.2c8.1-0.6,19.3-4.6,25.1-6.9c0,4,0,15.1,0,18.2c0,0.6,0.4,1,1,1l0,0c0.6,0,1-0.4,1-1c0-3.3,0-15.9,0-19
					l1.9-0.8c0.4-0.2,0.6-0.6,0.6-1C135.1,180.3,128.9,132.9,120.3,127.6z M21.3,38.2c0-7.7,4.1-23.7,19.4-29.7
					c14.2-5.4,23.3,2,23.6,2.3c0.2,0.1,0.3,0.2,0.5,0.2c0.1,0,13.4,1.6,16.8,14.1c3.2,11.5,0.3,27.2-0.4,30.7
					c-0.3,0-0.5,0.1-0.8,0.1c-0.1,0-0.2,0.1-0.2,0.1c-0.4,0-0.8,0.2-0.8,0.6c-0.2,1.1-0.6,2.2-1.1,3.2c0-8.2-3-21.2-3.1-21.8
					c-0.1-0.4-0.5-0.7-0.9-0.6c0,0,0,0,0,0c-0.4,0.1-0.6,0.5-0.6,0.9c0,0,0.1,0.5,0.3,1.4c-3.3-2.9-7-8.6-8.1-10.3
					c0.2-0.2,0.3-0.3,0.5-0.5c0.3-0.3,0.3-0.8,0-1.1s-0.8-0.3-1.1,0c0,0,0,0,0,0c-3.4,3.4-8.2,4.2-10.7,4.5c0.7-0.7,1.2-1.4,1.7-2.2
					c0.2-0.3,0.1-0.8-0.2-1c-0.3-0.2-0.8-0.1-1,0.2c-2.5,3.8-5.3,4.3-7,4.1c0.9-0.8,1.7-1.6,2.4-2.6c0.2-0.3,0.2-0.8-0.2-1
					c0,0,0,0,0,0c-0.3-0.2-0.8-0.1-1,0.2c-0.9,1.3-2,2.3-3.3,3.2l-0.1,0.1c-1,0.7-2.2,1.2-3.4,1.5c1-0.9,1.9-2,2.6-3.2
					c0.2-0.4,0.1-0.8-0.3-1c-0.4-0.2-0.8-0.1-1,0.3c-1.1,1.6-2.5,3.1-3.9,4.4L40,35.4c-4.5,4.2-11,9.3-11.1,9.3
					c-0.2,0.2-0.3,0.4-0.3,0.7c0.5,3.3,1.3,11.6,0.2,16l-1.4-4.8c-0.1-0.4-0.5-0.6-0.9-0.5c-0.1,0-0.2,0.1-0.3,0.2h-0.1
					c-0.7-0.2-1.4-0.2-2.1-0.1C22.3,50.3,21.4,44.3,21.3,38.2L21.3,38.2z M25.8,71.3c-2.6-2.5-3.7-7.2-3.7-10.4
					c-0.1-1,0.3-2.1,1-2.8c0.8-0.5,1.8-0.6,2.7-0.4c0.1,0,0.3,0,0.5,0l1.7,6.3c0.1,0.3,0.3,0.5,0.6,0.5h0.1c0.3,0,0.5-0.1,0.6-0.3
					c2.7-4.1,1.2-16.1,0.8-18.6c1.4-1.1,6.7-5.3,10.6-9c2.1-0.1,4.1-0.8,5.8-1.9c0.7,0.2,1.4,0.3,2.2,0.3c1.4,0,2.9-0.4,4.1-1.1
					c0.1,0,0.1,0,0.2,0h0.3c1.4,0,7-0.2,11.5-3.5c1.4,2.1,5.7,8.6,9.3,11.3c0.1,0.1,0.3,0.1,0.4,0.1l0,0c1.1,5.2,2.8,15.1,2.3,20.4
					c0,0.3,0.1,0.6,0.4,0.7c0.1,0.1,0.2,0.1,0.3,0.1c0.2,0,0.4-0.1,0.5-0.2c1.4-1.3,2.3-3,2.7-4.9c0.1,0,0.2,0,0.3,0
					c0.8-0.2,1.7-0.1,2.4,0.4c0.7,0.7,1,1.6,0.9,2.6c0,3.1-1,7.4-3.3,9.9c0-0.3,0.1-0.6,0.1-0.9c0.1-0.6-0.3-1-0.9-1.1
					c-0.6-0.1-1,0.3-1.1,0.9c-0.1,0.9-0.2,1.9-0.4,2.8c-0.7,0.3-1.4,0.4-2.1,0.4l0,0c-0.6,0-1,0.4-1,1s0.4,1,1,1H77
					c0.5,0,1,0,1.5-0.2c-0.9,3.8-2.5,7.5-4.8,10.7L71.4,82c-0.2-0.3-0.7-0.4-1-0.2c-0.3,0.2-0.4,0.7-0.2,1l2.3,3.5
					c0.1,0.1,0.2,0.2,0.4,0.3c-0.4,0.6-0.9,1.1-1.3,1.6l-1.9-3.6c-0.2-0.4-0.6-0.5-1-0.3s-0.5,0.6-0.3,1l2,3.7
					c0.1,0.1,0.2,0.2,0.3,0.3c-0.7,0.7-1.3,1.3-2,1.9v-0.1l-1.2-4.5c-0.1-0.4-0.5-0.6-0.9-0.5c-0.4,0.1-0.6,0.5-0.5,0.9c0,0,0,0,0,0
					l1.2,4.5c0.1,0.3,0.3,0.5,0.5,0.5c-0.6,0.4-1.1,0.9-1.7,1.3l-0.9-5c-0.1-0.4-0.5-0.7-0.9-0.6c-0.4,0.1-0.7,0.5-0.6,0.9l1,5.5
					c-0.7,0.3-1.4,0.5-2.1,0.8l-0.7-5.4c-0.1-0.4-0.4-0.7-0.8-0.6c-0.4,0.1-0.7,0.4-0.6,0.8l0.8,5.6c-1,0.2-2.1,0.4-3.1,0.4
					c0.1-0.1,0.1-0.2,0.1-0.3v-5c0-0.4-0.3-0.8-0.8-0.8s-0.8,0.3-0.8,0.8v5c0,0.1,0,0.3,0.1,0.4c-0.7,0-1.4,0-2.2,0
					c0.1-0.1,0.1-0.3,0.1-0.4v-5c0-0.4-0.3-0.8-0.8-0.8s-0.8,0.3-0.8,0.8v5c0,0.1,0,0.2,0.1,0.3c-1-0.1-2-0.3-3-0.6l0.7-5.4
					c0-0.4-0.3-0.8-0.7-0.8c-0.4,0-0.7,0.2-0.8,0.6l-0.7,5.2c-0.7-0.2-1.4-0.5-2-0.8l1-5.3c0.1-0.4-0.2-0.8-0.6-0.9
					c-0.4-0.1-0.8,0.2-0.9,0.6l-0.9,4.9c-0.4-0.2-0.8-0.4-1.3-0.7l-0.5-0.3l1.2-4.3c0.1-0.4-0.1-0.8-0.5-0.9
					c-0.4-0.1-0.8,0.1-0.9,0.5l-1.1,3.8c-0.6-0.5-1.2-1-1.8-1.5l1.9-3.7c0.2-0.4,0.1-0.8-0.3-1c0,0,0,0,0,0c-0.4-0.2-0.8,0-1,0.3
					l-1.7,3.3c-0.5-0.5-1-1.1-1.5-1.6l0,0l2.3-3.4c0.3-0.3,0.2-0.8-0.1-1.1c-0.3-0.3-0.8-0.2-1.1,0.1c0,0,0,0,0,0.1L36.8,86
					c-1.2-1.6-2.4-3.3-3.4-5.1c0.2,0,0.3-0.1,0.5-0.2l1.5-1.4c0.3-0.3,0.3-0.8,0-1.1c-0.3-0.3-0.7-0.3-1-0.1l-1.6,1.3
					c0,0.1-0.1,0.1-0.1,0.2c-1-1.8-1.9-3.6-2.6-5.1c0.4-0.1,0.7-0.5,0.6-0.9c-0.1-0.4-0.4-0.6-0.7-0.6h-0.5c-0.8-1.8-1.2-3-1.2-3
					c-0.2-0.5-0.7-0.8-1.3-0.6c-0.5,0.2-0.8,0.7-0.6,1.3c0,0,0,0,0,0c0,0.1,0.2,0.7,0.6,1.6C26.5,72,26.1,71.7,25.8,71.3L25.8,71.3z
					 M42.9,94.3c3.9,2.3,8.4,3.5,13,3.5c5.3,0,9.4-1.6,10.8-2.6L67,95c2.3-1.6,4.4-3.5,6.2-5.6c0.1,3.4,0.4,10.2,1.6,21.7
					c0,0.3,0.2,0.6,0.5,0.8c-2.2,4.5-8,12.6-21.2,12.6s-17.7-9-19.3-14.1l0.1-0.1c2.4-3.4,2-15.3,1.7-21.2
					C38.4,91.1,40.5,92.9,42.9,94.3L42.9,94.3z M77,121.6c-3.8,4.3-10.8,9.4-22.8,9.4v0.8v-0.8c-12.3,0-18.9-5.8-22.3-10.7
					c-2-2.8-3.4-6-4.2-9.4l0.1-0.1l5.1-2.5c0.8,4.1,4.7,17.7,21.4,17.7s22.2-12.4,23.5-15.9l4.4,2.4v0.1
					C81,115.8,79.3,118.9,77,121.6L77,121.6z"/>
				<path class="st2" d="M58.4,63.2c-0.4-0.2-0.8,0-1,0.4c0,0,0,0,0,0.1c-0.6,1.4-1.9,2.3-3.4,2.5c-2.4,0.4-4.1-2.6-4.1-2.6
					c-0.2-0.3-0.7-0.4-1-0.2c-0.3,0.2-0.4,0.6-0.3,0.9c0.1,0.2,1.9,3.5,4.9,3.5c0.3,0,0.5,0,0.8-0.1c2-0.3,3.7-1.6,4.5-3.5
					C58.9,63.8,58.7,63.4,58.4,63.2C58.4,63.2,58.4,63.2,58.4,63.2z"/>
				<path class="st2" d="M61.9,74.1c-2.4,1.6-5.3,2.5-8.2,2.5l0,0c-5.9,0-8-2.2-8-2.2c-0.3-0.3-0.7-0.3-1.1-0.1
					c-0.3,0.3-0.3,0.7-0.1,1.1c0,0,0,0,0,0c0.1,0.1,2.5,2.7,9.2,2.7l0,0c3.2-0.1,6.3-1,9-2.8c0.3-0.2,0.4-0.7,0.2-1
					C62.7,73.9,62.3,73.8,61.9,74.1z"/>
				<path class="st2" d="M41.6,58.7c1.4,0.3,2.7-0.6,3-2c0.3-1.4-0.6-2.7-2-3s-2.7,0.6-3,2c0,0.2,0,0.3,0,0.5
					C39.4,57.5,40.3,58.6,41.6,58.7z"/>
				<path class="st2" d="M43.1,46.7c0.5,0.4,1.3,0.2,1.6-0.3c0.4-0.5,0.2-1.3-0.3-1.6c-0.1-0.1-0.3-0.2-0.5-0.2
					c-2.7-0.8-5.5-0.5-8,0.7c-0.9,0.4-1.4,1.3-1.2,2.2C39.8,45.4,42.2,46.2,43.1,46.7z"/>
				<polygon class="st2" points="48.8,56.3 48.8,56.3 48.8,57.3 				"/>
				<path class="st2" d="M40.9,66.3c5,0,9-3.9,9.5-9.3c0-0.2,0-0.4,0-0.6c2.1-0.7,4.4-0.7,6.5,0c0,0.2,0,0.4,0,0.6
					c0.5,5.4,4.4,9.4,9.5,9.4s8.9-3.9,9.5-9.3c0.3-3-0.3-5.3-1.8-7s-4.2-2.7-7.7-2.7c-3.7,0-6.2,0.8-7.8,2.5c-0.8,0.9-1.3,2-1.5,3.2
					c-2.2-0.8-4.7-0.8-6.9,0c-0.2-1.2-0.8-2.3-1.6-3.2c-1.6-1.7-4.1-2.5-7.8-2.5c-3.5,0-6.1,0.9-7.7,2.7c-1.6,1.8-2.1,4-1.8,7
					C31.9,62.4,35.9,66.3,40.9,66.3z M59.4,50.5c1.4-1.5,3.7-2.2,7-2.2c3.2,0,5.5,0.8,6.9,2.3s1.8,3.5,1.5,6.2
					c-0.5,4.9-4,8.4-8.5,8.4s-8.1-3.5-8.5-8.4C57.8,54.8,57.8,52.3,59.4,50.5z M56.9,54c0,0.4-0.1,0.8-0.1,1.3
					c-2.1-0.6-4.4-0.6-6.5,0c0-0.4,0-0.8-0.1-1.3C52.5,53.2,54.8,53.2,56.9,54z M33.9,50.7c1.4-1.5,3.7-2.3,7-2.3
					c3.4,0,5.7,0.7,7,2.2c1.6,1.8,1.6,4.3,1.4,6.3c-0.4,4.9-4,8.4-8.5,8.4s-8-3.5-8.5-8.4C32.1,54.2,32.6,52.1,33.9,50.7L33.9,50.7z
					"/>
				<path class="st2" d="M40.9,64.1c3.9,0,6.9-3.1,7.3-7.4c0.2-2.7-0.1-4.3-1.1-5.4s-3.2-1.8-6.2-1.8l0,0c-2.8,0-4.9,0.7-6.1,2
					s-1.5,2.9-1.2,5.3C33.9,60.4,36.5,64.1,40.9,64.1z M35.5,52.1c1-1.1,2.8-1.6,5.3-1.6l0,0c2.7,0,4.5,0.5,5.4,1.5s1.1,2.3,0.9,4.7
					c-0.3,3.7-3,6.4-6.3,6.4c-3.7,0-6-3.2-6.3-6.5C34.3,54.6,34.7,53.1,35.5,52.1z"/>
				<ellipse class="st2" cx="65.7" cy="56.2" rx="2.1" ry="2.5"/>
				<path class="st2" d="M64.2,46.7c0.9-0.4,3.2-1.3,8.3,0.8c0.2-0.9-0.3-1.9-1.2-2.2c-2.5-1.3-5.3-1.5-8-0.7
					c-0.6,0.1-1.1,0.7-1,1.4c0.1,0.6,0.7,1.1,1.4,1C63.9,46.8,64,46.8,64.2,46.7L64.2,46.7z"/>
				<polygon class="st2" points="58.5,56.3 58.5,56.3 58.5,57.3 				"/>
				<path class="st2" d="M66.4,64.1c4.3,0,7-3.7,7.3-7.4c0.2-2.4-0.2-4.1-1.2-5.3s-3.2-2-6.1-2c-2.9,0-5,0.6-6.2,1.8
					s-1.4,2.8-1.1,5.4C59.5,61,62.6,64.1,66.4,64.1z M61,52c0.9-1,2.7-1.5,5.4-1.5c2.6,0,4.3,0.5,5.3,1.6s1.2,2.4,1,4.5
					c-0.3,3.2-2.6,6.5-6.3,6.5c-3.3,0-6-2.7-6.3-6.4C59.9,54.3,60.2,52.9,61,52z"/>
				<path class="st2" d="M44,70.4c-0.4-0.2-0.8,0-1,0.4c0,0,0,0,0,0l-1,2.6c-0.2,0.4,0,0.8,0.4,1c0,0,0,0,0,0c0.1,0,0.2,0,0.3,0.1
					c0.3,0,0.6-0.2,0.7-0.5l1-2.6C44.5,71,44.3,70.5,44,70.4C44,70.4,44,70.4,44,70.4z"/>
				<path class="st2" d="M45.5,73.1c0.1,0,0.1,0,0.2,0c0.3,0,0.6-0.2,0.7-0.5l0.7-2.2c0.2-0.4,0-0.8-0.4-1c-0.4-0.2-0.8,0-1,0.4
					c0,0,0,0.1,0,0.1L45,72.1C44.9,72.5,45.1,72.9,45.5,73.1C45.5,73.1,45.5,73.1,45.5,73.1z"/>
				<path class="st2" d="M48.1,70.9c-0.1,0.4,0.2,0.8,0.6,0.9h0.2c0.3,0,0.6-0.2,0.7-0.6l0.3-1.5c0.1-0.4-0.2-0.8-0.6-0.9
					c-0.4-0.1-0.8,0.1-0.9,0.5c0,0,0,0,0,0L48.1,70.9z"/>
				<path class="st2" d="M65.2,70.8c-0.2-0.4-0.6-0.6-1-0.4c-0.4,0.2-0.6,0.6-0.4,1l1,2.6c0.1,0.3,0.4,0.5,0.7,0.5
					c0.1,0,0.2,0,0.3-0.1c0.4-0.2,0.6-0.6,0.4-1c0,0,0,0,0,0L65.2,70.8z"/>
				<path class="st2" d="M62.2,72.5c0.1,0,0.1,0,0.2,0c0.4-0.1,0.6-0.5,0.5-0.9l0,0l-0.5-1.7c-0.1-0.4-0.5-0.6-0.9-0.5
					c-0.4,0.1-0.6,0.5-0.5,0.9l0.5,1.6C61.6,72.3,61.9,72.5,62.2,72.5z"/>
				<path class="st2" d="M58.3,69.9l0.5,1.1c0.1,0.3,0.4,0.4,0.7,0.4c0.1,0,0.2,0,0.3-0.1c0.4-0.2,0.5-0.6,0.4-1l-0.5-1.1
					c-0.2-0.4-0.6-0.5-1-0.4c0,0,0,0,0,0C58.3,69.1,58.1,69.5,58.3,69.9C58.3,69.9,58.3,69.9,58.3,69.9z"/>
				<path class="st2" d="M51,69.4v0.7c0,0.4,0.3,0.8,0.8,0.8s0.8-0.3,0.8-0.8v-0.7c0-0.4-0.3-0.8-0.8-0.8S51,69,51,69.4z"/>
				<path class="st2" d="M55,69.4v0.7c0,0.4,0.3,0.8,0.8,0.8s0.8-0.3,0.8-0.8v-0.7c0-0.4-0.3-0.8-0.8-0.8S55,69,55,69.4z"/>
				<path class="st2" d="M37.5,80.1c-0.3-0.2-0.8-0.1-1,0.2L35,82.6c-0.2,0.3-0.1,0.8,0.2,1c0.1,0.1,0.3,0.1,0.4,0.1
					c0.3,0,0.5-0.1,0.6-0.3l1.5-2.4C38,80.7,37.8,80.3,37.5,80.1z"/>
				<path class="st2" d="M73.7,79.6c-0.2-0.3-0.7-0.4-1-0.2c-0.3,0.2-0.4,0.7-0.2,1l1.5,2.4c0.1,0.2,0.4,0.4,0.6,0.3
					c0.1,0,0.3,0,0.4-0.1c0.3-0.2,0.4-0.7,0.2-1L73.7,79.6z"/>
				<path class="st2" d="M74.1,76.8c-0.3,0.3-0.2,0.8,0.1,1.1l1.5,1.4c0.1,0.1,0.3,0.2,0.5,0.2c0.2,0,0.4-0.1,0.6-0.2
					c0.3-0.3,0.2-0.8-0.1-1.1l-1.5-1.4C74.9,76.5,74.4,76.5,74.1,76.8z"/>
				<path class="st2" d="M93.2,163H72.8c-0.4,0-0.8,0.3-0.8,0.7c0,0,0,0,0,0l1.4,26.1c0,0.4,0.4,0.7,0.8,0.7h17.2
					c0.4,0,0.7-0.3,0.8-0.7l1.8-26.1C94,163.3,93.7,163,93.2,163C93.3,163,93.3,163,93.2,163L93.2,163z M92.4,164.5l-0.2,2.7H73.7
					l-0.2-2.7H92.4z M90.7,189.1H74.9l-1.1-20.4h18.3L90.7,189.1z"/>
				<path class="st2" d="M55.8,80.5h-3.5c-0.4,0-0.8,0.3-0.8,0.8s0.3,0.8,0.8,0.8h3.5c0.4,0,0.8-0.3,0.8-0.8S56.2,80.5,55.8,80.5z"
					/>
			</g>
		</g>
	</g>
</g>
</svg>
