<svg version="1.1" id="レイヤー_1" xmlns="http://www.w3.org/2000/svg" xmlns:xlink="http://www.w3.org/1999/xlink" x="0" y="0" viewBox="0 0 108 136.1" xml:space="preserve"><style>.st2{fill:#231f20}</style><g id="レイヤー_2_1_"><g id="characters"><defs><circle id="SVGID_1_" cx="55.3" cy="68.1" r="67.5"/></defs><clipPath id="SVGID_2_"><use xlink:href="#SVGID_1_" overflow="visible"/></clipPath><g clip-path="url(#SVGID_2_)"><path d="M20.7 107.1s-5.5-7.5-2.8-12.7 6.6-10.4 6.8-14.3-3.1-30-.5-38.6 8.1-23.5 22.7-29 18.5-3.2 23.4 2.4c0 0 11.3.2 15.1 14.6s1.1 31.2-.9 36c-2 4.8-1.2 12.7-.3 17.7s2.4 17.1-.5 22.1l-13.9-6.4s-5.6-6.9-3.7-15.7c0 0 13.6-9 11.6-37.8 0 0-9.6-10.4-10.6-21.5 0 0-17.9 11.5-22 14.5S36 51 36.5 58.8c.3 4.6.8 9.1 1.7 13.6l4.2 5.7s1.1 15.5-4.5 21.4l-17.2 7.6z" fill="#ba583f"/><path class="st2" d="M99.8 112.7c-4.8-2.9-9.8-5.6-14.9-7.9 3.1-6.8 1.8-13.5.6-20-.8-3.4-1.2-6.8-1.3-10.2.3-3.5.7-7 1.4-10.5 1.9-10.7 4.5-25.3-.3-37.5C81.1 15.9 72.7 14.2 70.7 14c-1.4-1.9-8.8-9.7-24.3-2.4C26.4 21 22.2 38.8 22.2 52c0 5.4.4 10.8 1.1 16.2.8 6.9 1.3 11.8-1 16-.6 1.1-1.2 2.1-1.7 3.1-3.2 5.5-5.8 9.9-1.2 19.3-3.9 1.8-7.6 3.8-11.2 6C.8 117.7-2 167-2.3 172.6c0 .5.3.9.8.9s.9-.4.9-.9c1.1-21.7 4.7-55.1 9.8-58.5 6.4-4.3 24.8-12.1 28.4-13.7 1.5 2 6.6 9.1 9.7 14 4.9 7.8 9.1 14.2 9.1 14.3l.1.1.1.1.2.1H57.1c.1 0 .2 0 .3-.1h.1s.1 0 .1-.1l.2-.2c0-.1.1-.2.1-.2 1.9-7.4 10.3-24.7 12.2-28.6 1.1.5 3.4 1.5 6.1 2.8-.1.2-.1.4-.1.6 0 0 .5 2.8-.9 4.6-.8 1-2.1 1.5-3.4 1.5-.5 0-.9.4-.8.9 0 .5.4.8.9.8h.1c1.9.1 3.7-.7 5-2.2 1.1-1.6 1.5-3.6 1.3-5.5 7 3.3 16.5 7.8 20.7 10.7 5 3.4 8.6 36.8 9.8 58.5 0 .5.4.8.9.9h.1c.5 0 .9-.4.8-.9-.6-5.6-3.4-54.8-10.8-59.8zM22.2 88.2c.6-1 1.2-2 1.8-3.1 2.5-4.7 1.9-9.9 1.2-17-.7-5.3-1-10.7-1.1-16 0-12.7 4-29.8 23.2-38.8 15.9-7.5 22 1.7 22.3 2.1.2.2.4.4.7.4.4 0 9.2.7 13.5 11.5 4.6 11.7 2 26.1.2 36.5-.7 3.6-1.2 7.2-1.5 10.8 0 3.6.5 7.1 1.3 10.6 1.2 6.2 2.4 12.7-.4 18.9-6.2-2.9-11.8-5.4-13-6-4-4.9-3.5-12.7-3.3-14.4 5.3-4.4 8.8-11.8 10-16.3 1.6-7.2 2.2-14.6 1.7-22 0-.2-.1-.4-.2-.5s-6.8-6.9-8.5-13.1c-.8-3.1-1.9-7.9-1.9-8-.1-.3-.3-.5-.5-.6-.3-.1-.6-.1-.8.1-.1.1-12.2 7.8-19.3 12.3-7.6 4.4-11.7 15.9-12 24.9 0 3.1.3 6.3 1 9.3.7 3.5 1.3 6.5.4 10.6-.1.5.2.9.7 1.1.5.1 1-.2 1.1-.7.4-1.7.5-3.4.5-5.1.6.8 1.3 1.8 2.2 2.8.1 2.2.3 14.5-4.1 20.2-1.5.6-9 3.8-16.3 7.2-4.2-8.7-2-12.4 1.1-17.7zM38.9 72c0-.1-.1-.1-.1-.2-.1-.8-.3-1.5-.5-2.3-.7-2.9-1-5.9-1-8.9.2-8.3 4.2-19.4 10.9-23.7 5.9-3.8 15.2-9.7 18.3-11.6.4 1.6 1.1 4.6 1.7 6.8 1.6 6.1 7.4 12.4 8.7 13.7.4 7.1-.2 14.2-1.7 21.1-1.6 6.3-8.7 19.8-18.8 18.7S39 72.1 38.9 72zm18 54.2c-1.6-2.4-4.6-7.2-8.1-12.6-3.1-4.9-8.3-12.1-9.8-14.1 3.8-5.3 4.3-14.7 4.3-19 3.2 3.1 7.6 6.2 12.8 6.8 3.1.3 6.3-.5 8.9-2.2-.1 3.2.1 9.4 3.7 13.9-1.5 3-9.1 18.7-11.8 27.2z"/><path class="st2" d="M20.6 136.7c-.2-.3-.7-.3-.9-.1-.2.2-.3.6-.1.8 0 0 1.5 2.1 3 4.6-.1.1-.2.3-.2.4 0 .7-.2 17.3 0 22.1s0 11.7 0 11.8c0 .4.3.7.6.7.4 0 .6-.3.7-.6 0-.1.2-7.1 0-11.9-.2-3.9-.1-16 0-20.4.7 1.2 1.2 2.6 1.6 3.9.1.3.3.5.7.5.4-.1.6-.4.5-.8-.7-3.5-5.7-10.8-5.9-11zM92.9 124.8c.1-.3-.1-.7-.4-.8-.3-.1-.7 0-.8.4-1 2.6-1.7 5.4-2.2 8.1v.2c0 .2 2.9 17.8 2.2 22.2-.6 2.5-1.4 4.9-2.5 7.2-1.3 3-2.4 5.8-2.6 8.1-.1 2.8-.1 5.5 0 8.3 0 .4.3.6.7.6.4 0 .7-.3.6-.7-.1-2.7-.1-5.4 0-8.1.1-2 1.3-4.9 2.5-7.6 1.1-2.4 2-4.9 2.6-7.5.7-4.5-1.9-21.1-2.2-22.6.4-2.7 1.2-5.4 2.1-7.8zM52.4 73.2c-.2.3-.2.7.1.9 1.8 1.3 4 2 6.2 2.1 2.1 0 4.2-.7 5.8-2.1.3-.2.3-.6.1-.9-.2-.3-.6-.3-.9-.1-5.2 4-10.2.2-10.4 0-.2-.2-.6-.1-.9.1.1 0 0 0 0 0zM51.9 48s.8.2 1-.4c.2-.6-.1-1.2-.7-1.4H52c-2.6-.5-5.2 0-7.5 1.3-1.5.9-.9 1.8-.9 1.8 4-2.3 7.4-1.5 8.3-1.3zM64.5 48c.9-.4 4.3-1.1 8.3 1.3 0 0 .5-.8-.9-1.8-2.2-1.4-4.9-1.8-7.5-1.3-.6.1-1 .6-1 1.2v.2c.2.7 1.1.4 1.1.4zM58.2 68.9c1.3 0 2.5-.6 3.3-1.6.1-.2.1-.4 0-.5s-.2-.1-.3-.1c-.9.2-1.7.4-2.6.4-.9-.1-1.8-.3-2.6-.6-.3-.1-.5 0-.6.3-.1.1 0 .3.1.4.5 1 1.6 1.6 2.7 1.7zM48.6 52c-.9.2-1.7.7-2.3 1.4-.2.2-.2.5 0 .6.1.1.2.2.3.2.3 0 .7-.1 1.1-.1-.3.5-.4 1.1-.4 1.7-.2 1.4.7 2.6 2 2.9s2.6-.7 2.9-2v-.8c0-.6-.2-1.2-.5-1.7h1.1c.3 0 .6-.3.5-.6 0-.2-.1-.3-.2-.4-1.2-1.2-2.9-1.6-4.5-1.2zM68.1 52c-1.6-.4-3.3 0-4.5 1.1-.2.2-.3.5-.1.8.1.1.3.2.4.2H65c-.3.5-.5 1.1-.5 1.7-.2 1.4.7 2.6 2 2.9 1.4.2 2.6-.7 2.9-2v-.8c0-.6-.1-1.2-.4-1.7.4 0 .8 0 1.1.1.3 0 .5-.2.5-.5 0-.1-.1-.2-.1-.3-.7-.7-1.5-1.2-2.4-1.5zM39.9 111.9c.5 0 .9-.4.9-.9s-.4-.9-.9-.9c-1.3 0-2.5-.6-3.4-1.5-1.4-1.8-.9-4.6-.9-4.6.1-.5-.1-1-.6-1.1s-1 .1-1.1.6v.2c0 .2-.7 3.6 1.2 6 1.3 1.3 3 2.2 4.8 2.2zM45.2 121.1c-1.3 0-2.5-.5-3.4-1.5-1.4-1.8-.9-4.6-.9-4.6.1-.5-.1-1-.6-1.1s-1 .1-1.1.6v.2c0 .2-.7 3.6 1.2 6 1.2 1.4 2.9 2.2 4.7 2.2.5 0 .9-.4.9-.9s-.4-.9-.8-.9zM53.4 130.1c-2.1.3-3.6-.1-4.5-1.1-1.5-1.6-1.1-4.3-1.1-4.3.1-.5-.3-.9-.7-1-.5-.1-.9.3-1 .7 0 .2-.5 3.6 1.6 5.8 1.2 1.2 2.9 1.8 4.6 1.7.5 0 1 0 1.5-.1.5 0 .9-.4.9-.9s-.4-.9-.9-.9c-.3.1-.4.1-.4.1zM71.8 113.2c-.5.1-.8.5-.7 1 0 0 .5 2.8-.9 4.6-.8 1-2.1 1.6-3.4 1.6-.5 0-.9.4-.9.9s.4.9.9.9h.1c1.8 0 3.5-.8 4.7-2.2 1.9-2.4 1.2-5.9 1.2-6-.2-.4-.6-.8-1-.8zM65.7 123.6c-.5.1-.8.5-.8 1 0 0 .3 3-1.2 4.6-.9.8-2.1 1.2-3.3 1-.5 0-.9.4-.9.9 0 .4.3.8.8.9h.7c1.5.1 2.9-.5 4-1.6 2.1-2.2 1.7-5.9 1.7-6-.1-.5-.5-.8-1-.8z"/></g></g></g></svg>