<?xml version="1.0" encoding="utf-8"?>
<!-- Generator: Adobe Illustrator 25.0.1, SVG Export Plug-In . SVG Version: 6.00 Build 0)  -->
<svg version="1.1" id="レイヤー_1" xmlns="http://www.w3.org/2000/svg" xmlns:xlink="http://www.w3.org/1999/xlink" x="0px"
	 y="0px" viewBox="0 0 108 136.1" style="enable-background:new 0 0 108 136.1;" xml:space="preserve">
<style type="text/css">
	.st0{clip-path:url(#SVGID_2_);}
	.st1{fill:#32B0FF;}
	.st2{fill:#464948;}
	.st3{fill:#FFFC19;}
</style>
<g id="レイヤー_2_1_">
	<g id="characters">
		<g>
			<g>
				<g>
					<defs>
						<circle id="SVGID_1_" cx="55.6" cy="67.4" r="67.5"/>
					</defs>
					<clipPath id="SVGID_2_">
						<use xlink:href="#SVGID_1_"  style="overflow:visible;"/>
					</clipPath>
					<g class="st0">
						<path class="st1" d="M38.5,97.7c0,0-8.2,8.8-8.9,11c0,0-26.8,13.4-29.1,15.1s-4.3,1.3-8.5,13.4c-4.2,12.1-15.6,53.5-15.6,53.5
							s-0.4,6.6-3.1,9.9s-4.8,9.7-5,10.5s-7.6,3.1-11.8,5.7S-61.2,228-61.2,228l1,0.8c0,0,9.2,5.3,10.7,11.5
							c0.7,2.6,1.3,5.2,1.6,7.8l-8.1,4.4c0,0,3.3,6,6.5,4.3c0,0,27.8-19.6,30.4-23s25.9-38.3,25.9-38.3s-1.1,30.1-1.5,34.1
							s-1.8,17.6-1.8,17.6s-2.9,4.2-2.2,4.5c0.4,0.2,0.9,0.3,1.4,0.2l-4.2,33c0,0,13.5,9.8,38.5,8.3c0,0,7.6,0.3,10.1-2
							s7.9-13.8,7.9-13.8s6,13.4,8.1,14.2c2.1,0.8,25.9,3.2,36.8-1s10.5-4.1,11.2-7.2s-4-31.8-4-31.8l1-0.8l-1.8-3.6
							c0,0-2.8-33-2.8-38s0.8-18.4,0.8-18.4l10.9,23.9c0,0,1.6,5,4,7.4s18.1,20.4,18.1,20.4l8.8,12.3c0,0,0.3,3.5,2.2,2.9
							s3.2-2.9,3.2-2.9l-6.7-5c0,0-3.7-10.6,4.7-15.5c0,0,4.2-2.5,8,0.6c0.5-0.8,0.5-1.8,0-2.6c-0.9-1.5-9.4-13.8-10.3-15.7
							s-7.9-11.3-8.6-13.1s-9.1-27.4-9.1-27.4l-13-40.7c-1.1-6.1-5.3-11.1-11-13.4C95.5,118,78,107.8,78,107.8l-7.1-11
							c0,0,3.6,3.7,1.8,16.5L65,143.8l-8.3,28.8l-13-37.8c0,0-6.3-21.4-7-25.2C36,105.8,37.6,99.7,38.5,97.7z"/>
						<path class="st2" d="M30.9,66.9l2.8,1.1l0.7-15.9l5.9-7.7c0,0,6.2-6.1,10.8-6.3s9,4.8,9.2,5s8,7.9,11.5,9.2s5.3,6.1,5.3,6.1
							L77,68.1l3-1.5c0,0,3.7-12.2,2.7-19S78.1,30,72,25.8s-15.4-6.4-22-3.5s-8.4,6.5-8.4,6.5c-4.2,1.2-7.9,3.9-10.2,7.6
							c-3.9,6.3-4.6,12.2-3.8,16.6S30.9,66.9,30.9,66.9z"/>
						<path class="st3" d="M47.8,121.2l4.7,5.2c-1.4,4.7-2.5,9.4-3.3,14.2c-1.1,7.1-0.7,8.3-0.7,8.3s8.3,25.4,8.4,24.9
							s6.8-26.8,6.8-26.8s-2.4-16.7-3.2-18.7s-1.2-1.6-1.2-1.6l3.2-4.3c0,0-3.8-7.9-5.6-8.2c-1.4-0.2-2.9-0.2-4.4,0L47.8,121.2z"/>
						<path d="M69.5,74.3c-2.3,0-5.6,0.6-7.4-1.1c-1.3-1.3-1.4-3.2-1.4-4.9c0-2.7,1.3-4.7,4.1-4.9c2.1-0.2,5.7-0.5,7.4,0.8
							c1.7,1.3,1.8,3.3,1.5,5.4C73.4,72.2,72.4,74.2,69.5,74.3c-0.4,0.1-0.7,0.5-0.6,1c0.1,0.3,0.4,0.6,0.7,0.6
							c4.7-0.4,6.8-5.4,5.9-9.6c-1.1-5-6.7-4.8-10.7-4.5c-5.2,0.4-6.4,5.3-5.4,9.7c1.2,5,6.2,4.5,10.2,4.5
							C70.6,75.9,70.5,74.3,69.5,74.3z"/>
						<path d="M64.9,70.1c0.9-2,3.2-1.6,4.3,0.1c0.5,0.9,1.9,0,1.3-0.9c-1.7-2.8-5.6-3-7.1,0.1C63,70.2,64.4,70.9,64.9,70.1z"/>
						<path d="M63.1,59.3c2.7-1.4,5.9-1.4,8.5,0c0.6,0.3,1.3,0,1.6-0.6c0.2-0.5,0.1-1.2-0.4-1.5c-3.4-1.9-7.5-1.9-10.9,0
							C60.6,57.9,61.8,60,63.1,59.3L63.1,59.3z"/>
						<path d="M41.5,75.9c4,0,9,0.5,10.1-4.5c1-4.4-0.2-9.4-5.4-9.7c-3.8-0.2-9-0.5-10.5,3.9c-1.4,4.2,0.9,9.9,5.6,10.3
							c1,0.1,1.4-1.5,0.3-1.6c-2.8-0.2-4-2.1-4.4-4.7c-0.3-2-0.5-4.1,1.4-5.5c1.8-1.3,5.4-1,7.5-0.8c4.1,0.4,5.3,5.7,3.4,8.9
							c-1.6,2.7-5.5,2-8.2,2C40.3,74.3,40.4,75.9,41.5,75.9z"/>
						<path d="M47.6,69.3C47,68,45.8,67,44.4,66.9c-1.7,0-3.2,0.9-4,2.3c-0.5,0.9,0.9,1.6,1.5,0.7c0.5-0.8,1.4-1.4,2.4-1.4
							c0.8,0.1,1.5,0.7,1.8,1.4C46.5,70.8,48,70.3,47.6,69.3L47.6,69.3z"/>
						<path d="M49.1,57.2c-3.4-1.9-7.5-1.9-10.9,0c-1.3,0.7-0.1,2.8,1.2,2.1c2.7-1.4,5.9-1.4,8.5,0c0.6,0.2,1.3-0.1,1.5-0.8
							C49.7,58,49.5,57.5,49.1,57.2z"/>
						<path d="M33.7,72.7c1.3,12,7.9,27.6,21.8,28.3c1,0.1,0.9-1.6-0.1-1.6c-12.9-0.7-18.9-15.7-20.1-26.8
							C35.3,71.6,33.6,71.6,33.7,72.7z"/>
						<path d="M33.3,67.1c-4-2-6.2,1.9-5.7,5.5c0.6,4.2,3.6,10.4,8.6,10.4c1,0,0.9-1.6-0.1-1.6c-3.5,0-5.6-4.4-6.5-7.2
							c-0.6-2.2-0.8-7.4,2.9-5.6c0.4,0.2,0.9,0,1.1-0.4C33.9,67.8,33.7,67.2,33.3,67.1L33.3,67.1L33.3,67.1z"/>
						<path d="M75.6,72.4c-1.2,11.2-7.1,26.2-20.2,26.9c-0.4,0-0.8,0.4-0.8,0.9c0,0.4,0.4,0.8,0.9,0.8c13.8-0.7,20.4-16.3,21.6-28.2
							C77.2,71.8,75.6,71.3,75.6,72.4L75.6,72.4z"/>
						<path d="M76,57.2c0.9,3.6,0.5,7.7,0,11.2c-0.1,1,1.4,1.4,1.6,0.3c0.5-3.9,1-8.2,0-12.1C77.3,55.7,75.8,56.2,76,57.2L76,57.2z"
							/>
						<path d="M77.4,68.6c0.8-0.4,1.7-0.5,2.6-0.4c2.4,0.6,1.9,3.6,1.4,5.4c-0.8,3-3,7.8-6.7,7.8c-1,0-0.9,1.6,0.1,1.6
							c5,0.1,8.1-6.6,8.5-10.8c0.5-4.1-2.5-6.8-6.4-5.1C75.9,67.4,76.5,68.9,77.4,68.6z"/>
						<path d="M34.9,68.7c-0.2-3.6-0.1-7.1,0-10.7c0.1-1.4,0.1-2.8,0.2-4.2c0-0.5,0.4-2.1,0-1.2c1.1-2.2,3.5-4.4,4.9-6.5
							c2.2-3.3,5.3-5.1,8.9-6.5c1.3-0.7,2.8-1,4.3-0.8c3.8,0.5,5.7,3.7,8,6.4c2.1,2.5,4.7,4.7,7.5,6.3c2.7,1.5,6.2,2.6,7.4,5.8
							c0.2,0.4,0.6,0.6,1.1,0.4c0.4-0.2,0.6-0.6,0.5-1c-0.8-2-2.3-3.7-4.2-4.8c-2.6-1.6-5.2-2.5-7.6-4.5c-1.7-1.5-3.2-3.1-4.6-4.8
							c-3-3.6-6.6-6.8-11.6-5.1c-3.2,1-6.2,2.6-8.7,4.8c-1.1,1.1-2,2.3-2.7,3.6c-1.2,1.8-3,3.4-4,5.3c-0.7,1.3-0.6,2.5-0.7,4
							c-0.3,4.5-0.3,8.9-0.1,13.4c0.1,0.4,0.5,0.7,0.9,0.7C34.6,69.3,34.9,69.1,34.9,68.7L34.9,68.7z"/>
						<path d="M32,67.1c-3-7.8-5-17.7-2.3-25.8c1.4-4.1,4.3-7.6,8.1-9.8c1.3-0.7,3-1.1,4.1-2S43.7,27,45,26c3.6-2.6,8-4,12.5-4
							c10.9-0.3,18.5,7.1,22.1,16.9c3.4,9,2.3,19.2-0.8,28.2c-0.3,1,1.2,1.3,1.6,0.3c3.1-8.8,4.2-18.9,1.2-27.8
							c-2.8-8.7-9.2-17.2-18.7-18.9c-7.4-1.3-16.9,0.4-21.7,6.8c-0.3,0.4-1.3,1.4-0.4,0.8c-0.7,0.4-1.7,0.6-2.5,1
							c-3.4,1.6-6.2,4.1-8.3,7.1c-5.7,8.8-3.2,21.8,0.3,31C30.8,68.6,32.4,67.9,32,67.1L32,67.1z"/>
						<path d="M38.8,89.8V102c0,1,1.6,0.9,1.6-0.1V89.8C40.4,88.8,38.8,88.8,38.8,89.8z"/>
						<path d="M69.3,90.9V102c0,1,1.6,0.9,1.6-0.1v-11C70.9,89.9,69.3,89.9,69.3,90.9L69.3,90.9z"/>
						<path d="M38.8,100.9c0.8,8.4,9.1,13.1,16.5,14.5c0.4,0.1,0.9-0.2,1-0.6s-0.2-0.9-0.6-1l0,0c-3.4-0.7-5.2,2.3-6.8,4.8
							c-0.9,1.4-4.9,7.3-4.6,7.4c-1.6-0.4-3.6-5.3-4.2-6.6c-0.5-0.9-1.8,0-1.3,0.9c1.3,2.6,2.9,5.1,4.8,7.3c0.3,0.3,0.8,0.3,1.2-0.1
							c2.1-2.8,6.9-12.9,10.7-12.2c0.1-0.5,0.2-1.1,0.3-1.6c-6.7-1.2-14.5-5.4-15.3-13C40.3,99.8,38.7,99.9,38.8,100.9L38.8,100.9z"
							/>
						<path d="M69.3,100.8c-1.9,6.5-7.9,11.2-14.1,13.2c-0.4,0.2-0.6,0.6-0.5,1.1c0.1,0.2,0.3,0.4,0.6,0.5c5.2,0.9,6.6,8.5,8.7,12.6
							c0.2,0.4,0.7,0.5,1.1,0.2l0,0c2.6-1.9,4.7-4.3,6.5-7c0.5-0.9-0.9-1.6-1.4-0.7c-1.6,2.5-3.6,4.6-5.9,6.3l1.1,0.2
							c-2.4-4.5-3.7-12.2-9.7-13.3l0.1,1.6c6.8-2.1,13.1-7.3,15.1-14.4C71.2,100.1,69.6,99.8,69.3,100.8L69.3,100.8z"/>
						<path d="M47.3,121.8l4.6,5.7c0.3,0.4,0.8,0.5,1.1,0.2c1.8-1.4,4.2-1.1,6.1,0c0.4,0.2,0.9,0,1.1-0.4l2.6-5.1
							c0.2-0.4,0-0.9-0.4-1.1s-0.9,0-1.1,0.4l0,0c-0.9,1.7-1.7,3.4-2.6,5.1l1.1-0.3c-2.4-1.4-5.4-1.8-7.7,0l1.1,0.2l-4.6-5.6
							C48,120.2,46.6,121.1,47.3,121.8L47.3,121.8z"/>
						<path d="M52,126.6c-2.2,2.5-2.5,7.6-3,10.7c-0.6,4.4-0.8,8.8-0.7,13.2c0,1,1.6,0.9,1.6-0.1c-0.1-3.8,0.1-7.7,0.5-11.5
							c0.3-3,0.7-8.9,2.8-11.3C53.9,126.8,52.7,125.8,52,126.6L52,126.6z"/>
						<path d="M58.8,127.6c1,1.2,1.2,3.4,1.6,4.9c0.7,2.8,1.2,5.7,1.5,8.5c0.4,3.2,0.6,6.3,0.5,9.5c0,1,1.6,0.9,1.6-0.1
							c0.1-4.1-0.2-8.3-0.9-12.3c-0.5-3.2-0.7-8.8-2.9-11.4C59.5,125.8,58.1,126.8,58.8,127.6L58.8,127.6z"/>
						<path d="M3.4,171.9c4.1,24.7,2.5,51.1-0.8,75.9c-0.1,1,1.4,1.4,1.6,0.3c1.5-11.5,2.4-23.1,2.7-34.8
							c0.4-13.8,0.4-27.9-1.9-41.6C4.8,170.8,3.2,170.8,3.4,171.9L3.4,171.9z"/>
						<path d="M2.1,251.4c-1,7.4-2,14.9-3.1,22.3c-0.4,2.6-0.8,5.2-1.1,7.9c-0.3,0.9-0.4,1.9-0.4,2.9c0.7,2.9,6.2,5,8.5,5.9
							c4.6,1.6,9.5,2.7,14.4,3c7.9,0.8,17.1,1.4,24.9-0.5c2.3-0.5,3-2,4.2-4.1c2.4-4.1,5.1-8.5,6.6-13c0.9-2.5,0.9-5.4,1.1-8
							c0.5-5.2,0.8-10.5,1.2-15.7c0.8-12.5,1.5-25,2-37.5c0.4-11.9,1.2-24.6-1.7-36.2c-1.9-7.8-4.7-15.5-7.2-23.1
							c-3.6-11.1-7.3-22.1-10.8-33.2c-2.6-8.3-6.5-17.5-0.6-25.5c0.6-0.8-0.6-1.9-1.2-1.1c-4.1,5.5-4.1,11.9-2.4,18.2
							c2.3,8.2,5,16.3,7.7,24.4c3.1,9.5,6.3,19,9.4,28.6c2.2,6.9,4.3,13.5,4.9,20.8c1.2,13.1,0.4,26.4-0.3,39.6
							c-0.6,12-1.2,24-2.1,36c-0.1,3.6-0.5,7.3-1.1,10.9c-0.8,3.6-3,7.1-4.7,10.3c-1.4,2.6-2.6,6.6-5.7,7.2
							c-3.4,0.5-6.9,0.8-10.3,0.8c-10.3,0.3-23.2,0.2-32.1-5.6c-1.1-0.6-2.1-1.3-3-2.1c-0.1-0.3,0.2-1.1,0.2-1.5
							c0.2-2.5,0.6-5,1.1-7.4c1.1-7.9,2.2-15.9,3.3-23.9C3.9,250.8,2.3,250.4,2.1,251.4L2.1,251.4z"/>
						<path d="M104.6,171.6c-2.2,13.4-2.3,27.1-2,40.6c0.3,12,1.2,23.9,2.8,35.7c0.1,1,1.8,0.9,1.6-0.1c-1.5-11.5-2.4-23-2.7-34.6
							c-0.4-13.8-0.4-27.7,1.9-41.3C106.4,170.9,104.8,170.6,104.6,171.6L104.6,171.6z"/>
						<path d="M105.9,251.6c0.8,6.3,1.7,12.6,2.6,18.9c0.4,2.8,0.8,5.5,1.2,8.3c0.2,1.4,0.8,3.2,0.7,4.5s-0.3,1.4-1.8,2.6
							c-1.5,1.1-3.1,2-4.8,2.6c-4.3,1.6-8.8,2.7-13.4,3.1c-7.8,0.9-15.7,0.9-23.6,0c-2.7-0.4-3.4-0.5-4.9-2.9
							c-2.4-3.8-4.4-7.9-6.2-12c-0.4-0.9-1.9-0.4-1.5,0.5c1.5,3.3,3.2,6.6,4.9,9.8c1,1.7,2,4.5,3.9,5.5c1.3,0.7,3.4,0.7,4.9,0.9
							c3.1,0.3,6.2,0.5,9.3,0.5c7.7,0.1,15.6-0.4,23-2.4c3.4-0.9,11.9-3.4,12-7.9c0.1-3.9-1.2-8.2-1.7-12c-1-6.7-1.9-13.4-2.8-20.1
							C107.3,250.6,105.7,250.6,105.9,251.6L105.9,251.6z"/>
						<path d="M69.4,96.3c6.9,9.3,0.7,23.3-1.8,33.2c-3.8,14.8-7.9,29.5-11.6,44.3c-0.2,1,1.3,1.4,1.6,0.3
							c4-15.7,8.3-31.4,12.4-47.1c2.6-9.9,7.7-22.3,0.9-31.6C70.2,94.7,68.8,95.4,69.4,96.3z"/>
						<path d="M37.8,97.2c-2.4,3.3-4.9,6.5-7.3,9.8c-2.3,3.1-2.1,7.2-2.3,11c-0.4,5.4-1.5,10.8-1.6,16.1c-0.1,4.2,5.6,4.8,8.7,6.5
							c0.9,0.5,1.7-1,0.7-1.4c-2-1-6-1.8-7.4-3.5c-1-1.1-0.3-3.4-0.2-4.8c0.5-4.6,1.1-9.2,1.4-13.8s0.5-7.2,3.2-10.7
							c2-2.7,4-5.4,6-8.1C39.7,97.6,38.5,96.4,37.8,97.2L37.8,97.2z"/>
						<path d="M70.9,98.2c1.8,2.9,3.6,5.9,5.7,8.6c2.5,3.3,3.2,6.5,3.5,10.8c0.3,4.7,1,9.3,1.5,14c0.2,1.5,0.6,3-0.3,4.1
							c-1.3,1.6-5.5,2.5-7.4,3.5c-0.9,0.5,0,1.8,0.9,1.4c2.7-1.4,8.5-2.3,8.7-6c0.3-5.1-1.2-10.6-1.6-15.7c-0.3-4-0.4-8-2.8-11.5
							s-4.6-6.6-6.8-10C71.7,96.4,70.3,97.3,70.9,98.2L70.9,98.2z"/>
						<path d="M31.1,137.6c-1.1,2.4-2.3,4.7-3.5,7c-1,1.9-1,2.1,0,4c2.9,6,6.4,11.7,10.4,17c4.1,5.5,8.2,11,12.3,16.5
							c3,4.1,6.9,8.5,8.8,13.2c0.4,1,1.9,0.4,1.5-0.5c-1.6-4-4.7-7.6-7.1-11c-4-5.6-8.2-11.1-12.3-16.6c-3.8-4.9-7.2-10-10.2-15.4
							c-0.7-1.3-2.3-3.4-2.4-4.9c-0.1-0.9,0-0.7,0.7-2c1.1-2.2,2.2-4.4,3.3-6.7c0.2-0.4,0-0.9-0.4-1.1
							C31.8,136.9,31.3,137.1,31.1,137.6L31.1,137.6z"/>
						<path d="M77.7,138.1c0.8,1.7,2.4,3.8,2.7,5.5c0.4,2-1.1,5.2-1.8,7.1c-1.8,4.5-4.2,8.9-7,12.9c-4.3,6.5-8.8,12.9-13.3,19.3
							c-0.6,0.8,0.6,1.9,1.2,1.1c4.8-6.7,9.5-13.5,14.1-20.4c2.9-4.2,5.3-8.7,7.1-13.5c0.6-1.7,1.8-4.3,1.6-6.1
							c-0.2-2-2.1-4.5-3-6.4C78.9,136.8,77.3,137.2,77.7,138.1L77.7,138.1z"/>
						<path d="M30.1,107.7c-6.9,3.6-13.8,7.3-20.7,10.8c-3.5,1.8-7.3,3.3-10.6,5.4c-3.8,2.5-5.7,7.8-7.2,11.9
							c-5.6,15.1-9.5,31-13.9,46.5c-1.2,4.2-2.4,8.3-3.5,12.5c-0.5,2.1-1.2,4.2-2.1,6.2c-1.5,3-3.9,5.7-4.6,9.1
							c-0.1,0.4,0.2,0.9,0.6,1s0.9-0.2,1-0.6c0.7-3.2,3-5.8,4.4-8.7c0.8-1.8,1.5-3.6,1.9-5.5c0.8-3.2,1.7-6.4,2.6-9.6
							c2.5-8.9,5-17.9,7.6-26.8c1.6-5.7,3.3-11.3,5.1-16.9c1.7-5.3,3.4-12.1,7.3-16.3c2.4-2.6,6.8-4,9.9-5.6c7.7-4,15.3-8,22.9-12
							C31.9,108.6,31,107.2,30.1,107.7z"/>
						<path d="M78.3,109.1c8,4.2,16,8.4,24,12.6c4.7,2.4,8.6,3.8,11.2,8.7c3.1,5.8,4.7,12.3,6.7,18.6c5.1,15.7,9.3,31.7,14.5,47.4
							c2.4,7.3,8,13.4,11.5,20.2c1.8,3.3,3.8,6.6,6,9.7c1.8,2.7,4.3,5.7,5.3,8.8c0.2,0.4,0.6,0.6,1.1,0.4c0.4-0.2,0.6-0.6,0.5-1
							c-1.9-5.6-6.6-10.6-9.6-15.6c-1.8-3-3.2-6.1-5.1-9.1c-2.5-3.9-5.5-7.6-7.3-11.9c-3.6-8.3-5.5-17.7-8.1-26.3
							c-2.3-7.6-4.5-15.1-6.9-22.6c-1.9-6-3.5-12.1-6.2-17.8c-2.1-4.4-4.3-6.9-8.6-9c-9.4-4.7-18.8-9.7-28.1-14.6
							c-0.4-0.2-0.9,0-1.1,0.4C77.8,108.3,78,108.8,78.3,109.1L78.3,109.1z"/>
						<path d="M5.4,194.6c-7.3,12.1-14.3,24.9-23.2,35.8c-4.9,6.1-12.1,10.8-18.4,15.4c-3.5,2.6-7.1,5.2-10.8,7.6
							c-1,0.8-2.1,1.6-3.3,2.1c-2.2,0.7-3.6-1.3-4.6-3c-0.5-0.9-1.9,0-1.3,0.9c1.1,1.9,3,4.5,5.6,4c1.5-0.3,3.1-1.7,4.3-2.5
							c6.8-4.5,13.3-9.3,19.6-14.4c4.6-3.6,8.8-7.2,12.2-12c4.4-6.1,8.4-12.5,12.4-18.9c3-4.8,6-9.6,8.9-14.5
							C7.4,194.4,6,193.8,5.4,194.6L5.4,194.6z"/>
						<path d="M-29.9,209.4c-6.5,1.6-12.1,6.6-17.8,9.9c-5,2.9-10.1,5.8-15.2,8.6c-0.7,0.4-0.3,1.5,0.5,1.5c3.5-0.3,6.8,3.4,8.6,5.9
							c2.6,3.5,4.2,7.6,4.8,11.9c0.1,1.1-0.2,10.9-2.6,8.8c-0.3-0.3-0.8-0.3-1.1,0.1c-0.3,0.4-0.3,0.8,0.1,1.1
							c2,1.8,3.7,0.3,4.6-1.9c1.7-4.4,0.9-10.1-0.7-14.4c-1.9-5-7-13.8-13.7-13.2c0.2,0.5,0.3,1,0.5,1.5c4.8-2.7,9.6-5.4,14.4-8.1
							c5.8-3.4,11.7-8.6,18.2-10.2C-28.4,210.8-28.9,209.1-29.9,209.4L-29.9,209.4z"/>
						<path d="M-61.1,228.1l-7,3.2c-0.4,0.2-0.6,0.6-0.5,1.1c0.1,0.3,0.4,0.5,0.8,0.5c9.9,0.3,11.1,14,7.8,21
							c-0.2,0.4,0.1,0.9,0.5,1.1c0.2,0.1,0.5,0.1,0.7-0.1l11.2-6.9c0.9-0.6,0-1.9-0.9-1.4l-11.2,6.9l1.2,1c3.8-8.1,1.9-23-9.4-23.3
							l0.3,1.6l7-3.2C-59.7,229.1-60.2,227.6-61.1,228.1L-61.1,228.1z"/>
						<path d="M-67,231.6c-6.6,0.5-13.6,0.6-19.9,2.9c-3.5,1.3-6.4,2.3-9.2,4.8c-3.1,2.7-5.9,5.7-9,8.5c-0.2,0.2-0.3,0.5-0.2,0.8
							c3,6.4,10.7-1.3,14-2.8c2.9-1.2,6-1.3,9-0.4c4,1.4,8.5,1,12.2-1.2c0.9-0.5,0-1.8-0.9-1.4c-2.8,1.7-6.2,2.2-9.4,1.4
							c-1.3-0.3-2.5-1-3.7-1.3c-2.4-0.2-4.8,0.1-7.1,0.9c-2.6,1-4.5,3.4-7.2,4.6c-1.7,0.7-3.2,1.4-4.8,0.2c-1-0.7-0.3-0.2-0.2-0.3
							c0.4-1,2.4-2.4,3.2-3.1c2.3-2.2,4.6-4.9,7.2-6.6c3.1-1.7,6.4-3,9.8-3.8c5.2-1.3,10.8-1.3,16.1-1.7c0.4,0,0.8-0.4,0.8-0.9
							C-66.2,231.9-66.6,231.6-67,231.6L-67,231.6z"/>
						<path d="M-85.2,243.6c-4.6,3.6-8.3,8.1-12.5,12c-1.6,1.4-8.5,6.2-5.2,8.8s8.1-1.9,10.4-3.8c3-2.5,6-5,8.9-7.7
							c0.8-0.7-0.4-1.8-1.2-1.1c-2,1.8-4,3.5-6,5.3c-2,1.7-5,5.1-7.7,5.8c-3,0.1-4-0.4-3-1.4c0.2-0.3,0.5-0.6,0.8-0.8
							c0.7-0.8,1.4-1.5,2.2-2.2c1.1-1.1,2.3-2.1,3.4-3.2c3.6-3.4,6.8-7.2,10.7-10.3C-83.5,244.4-84.4,242.9-85.2,243.6L-85.2,243.6z
							"/>
						<path d="M-97.6,262.5c-1.8,1.4-6.6,4.8-3,6.9c3.3,1.9,7.4-1.5,9.8-3.6c0.8-0.7-0.4-1.8-1.2-1.1c-1.6,1.4-3.7,3.1-5.8,3.5
							c-0.7,0.2-1.5,0.1-2.1-0.3c-0.6-0.5-0.3-0.5,0-1.1c0.6-1.1,2.2-2.2,3.2-3S-96.8,261.9-97.6,262.5L-97.6,262.5z"/>
						<path d="M-86.6,266c-1.1,0.3-3.8,2.7-4.6,0.9c-0.6-1.3,3.6-4.1,4.6-4.8c2.8-2,5.3-4.3,8.1-6.2c0.4-0.2,0.5-0.8,0.2-1.1
							c-0.2-0.4-0.8-0.5-1.1-0.2c-2.3,1.6-4.5,3.5-6.7,5.2c-1.9,1.5-4.3,2.8-5.8,4.9c-1,1.3-1.7,3.7,0.1,4.7c1.8,1,4-1.2,5.7-1.7
							c0.4-0.2,0.6-0.6,0.4-1.1C-85.8,266-86.2,265.9-86.6,266z"/>
						<path d="M-74.2,256.6c-3.1,1.9-6,3.9-9,5.8c-1.6,1-4.2,2.8-3.9,5c0.6,4.4,6.7,0.4,8.6-0.6c3.8-2,8.1-3.5,11.2-6.6
							c3.3-3.2,5.8-7.8,9.8-9.7c0.9-0.4,0.4-2-0.5-1.5c-5.6,2.7-7.9,9.2-13.3,12.4c-3.3,1.9-6.8,3.6-10.2,5.2
							c-0.6,0.3-1.3,0.6-1.9,0.9c-2.4,1-2.3-0.1,0.3-3.2c1-0.9,2.6-1.4,3.8-2.1c2.1-1.3,4-2.9,6.2-4.2
							C-72.4,257.5-73.3,256-74.2,256.6L-74.2,256.6z"/>
						<path d="M-61.4,251.9c-0.2,1.4,0.7,2.6,2,3c0.4,0.1,0.9-0.2,1-0.6l0,0c0.1-0.4-0.2-0.9-0.6-1l0,0c-0.3-0.1-0.6-0.4-0.7-0.7
							v-0.1c0-0.1,0,0.1,0,0v-0.2c0-0.1,0-0.5,0,0c0.1-0.4-0.2-0.9-0.6-1l0,0c-0.4-0.1-0.9,0.2-1,0.6l0,0H-61.4z"/>
						<ellipse cx="-53.4" cy="245.9" rx="1.7" ry="2.3"/>
						<path d="M102.9,190.1c2.7,5.4,5.3,10.9,7.8,16.4c2.8,6.2,4.4,13.6,9.7,18.3c7.4,6.5,13.8,14.1,19.2,22.4
							c1.3,2.1,2.8,4.1,4.3,6.1c1,1.4,2.4,4.7,4,5.7c2.1,1.2,3.4-2,4.3-3.5c0.5-0.9-0.9-1.6-1.4-0.7c-0.3,0.4-1,2.2-1.5,2.3
							c-1.2,0.3-1.8-1.6-2.3-2.3c-1.4-2-3-3.9-4.3-5.9c-2.3-3.3-4.3-6.7-6.8-9.8s-5.3-6.2-8-9.2s-6.2-5.6-8.7-8.7
							c-2-2.5-2.8-5.9-4-8.9c-1.4-3.2-2.8-6.4-4.3-9.6c-2-4.4-4.1-8.7-6.2-13C104,188.6,102.4,189.1,102.9,190.1L102.9,190.1z"/>
						<path d="M158.6,233.9c-5.3-3.6-11.1-0.8-13.9,4.5c-1.5,3.1-2,6.6-1.2,10c0.6,3.1,1.2,6.9,3.4,9.4c0.7,0.8,2-0.1,1.4-0.9
							c-2.9-3.4-4.2-10.5-3.2-14.7c1.3-5.8,7.1-10.6,12.8-6.8C158.7,236.1,159.4,234.6,158.6,233.9L158.6,233.9z"/>
						<path d="M144.1,250.6c1.9,2.8,4.8,4.9,8,6c0.7,0.2,1.2-0.7,0.8-1.2c-2.6-3.8-3.9-9.8-1.6-14c1.4-2.7,5-3.9,7.9-4.2
							c0.5,0,0.8-0.4,0.7-0.9c0-0.2-0.1-0.4-0.3-0.5L156,233c-0.8-0.6-1.9,0.6-1.1,1.2l3.6,2.8l0.5-1.4c-3.5,0.3-7.5,1.8-9.2,5
							c-2.5,4.7-1.2,11.4,1.7,15.6c0.3-0.4,0.6-0.8,0.9-1.2c-2.8-1-5.3-2.8-7-5.3c-0.3-0.3-0.8-0.4-1.1-0.1
							C144,249.6,144,250.1,144.1,250.6L144.1,250.6z"/>
						<path d="M159,237.1c4.1,0.4,8.2,1.1,12.3,1.8c2.6,0.5,5.9,0.5,8.2,1.8c2.1,1.1,3.4,3.9,4.5,5.8s1.2,4.3,2,6.5
							c0.7,1.8,2.1,2.9,3.6,4.1c1,0.9,2.4,1.7,0.7,2.9c-2.5,1.7-5.9-1.1-7.4-2.9s-1.8-4-3.1-5.7s-5.2-1.8-7.3-1.8
							c-2,0-2.3,0.7-3.8,2c-8.7,7.8-18.5,14.7-29.5,18.8c-0.4,0.2-0.6,0.6-0.5,1.1c0,0.1,0.1,0.2,0.2,0.3l15.4,13.5l10.2,9
							c1.3,1.1,3,3.4,4.6,4c2.5,1,7.5-1.2,9.8-2c5.2-1.8,10-4.5,14.3-7.9c8-6.5,15.3-13.8,22.6-21.1c5.6-5.6,11-11.2,16.4-16.8
							c0.3-0.3,0.3-0.9-0.1-1.2c0,0-0.1-0.1-0.2-0.1c-13.1-7.5-26.6-15.9-37.1-26.8c-0.3-0.3-0.8-0.3-1.1,0.1
							c-4.2,5.9-8.3,12.3-13.4,17.6c-0.7,0.8,0.5,1.8,1.2,1.1c4-4.1,7.3-9.1,10.6-13.7c0.7-0.9,1.3-1.8,2-2.8
							c1.1-1.5,0.2-0.4,0.3-0.3c3,2.3,5.6,5.2,8.6,7.6c8.9,7,18.3,13.2,28.1,18.8l-0.2-1.2c-11.2,11.8-22.6,23.6-34.8,34.4
							c-2.9,2.7-6.1,5.1-9.4,7.2c-3.6,2-7.4,3.7-11.3,4.8c-1.6,0.5-3.9,1.4-5.6,1.2c0.5,0.1,0.2,0.1-0.4-0.5c-0.9-1-2.1-1.8-3.1-2.7
							l-9.3-8.2L140.1,271c-0.1,0.5-0.2,0.9-0.3,1.4c9.8-3.7,18.7-9.6,26.8-16.4c1.5-1.2,3.5-3.9,5.2-4.6c-0.5,0.2,0.2,0.1,0.8,0.2
							c0.9,0.1,1.8,0.2,2.7,0.3c2.1,0.3,3,0.1,3.8,2.1c1.2,2.9,3.1,5.8,5.9,7.4c2,1.2,8,1.8,8.6-1.5c0.2-1.1-0.4-1.4-1.1-2.1
							c-1.9-1.9-4.2-3-5-5.7c-0.5-1.6-0.5-3.3-1.2-4.9c-1-1.9-2.1-3.7-3.5-5.4c-2.6-3.4-7.1-3.3-11-4c-4.1-0.8-8.1-1.4-12.3-1.8
							C158.4,235.4,158,237.1,159,237.1L159,237.1z"/>
						<path d="M151.5,255.9c0.7,1.9,1.6,3.6,2.9,5.1c0.7,0.8,2-0.1,1.4-0.9c-1.1-1.4-2-3-2.7-4.8
							C152.7,254.4,151.2,254.9,151.5,255.9L151.5,255.9z"/>
						<path d="M164.6,255.1c-8.3,4.5-18.4,10.2-28,10.7c-0.5,0-0.8,0.4-0.8,0.9c0,0.2,0.1,0.4,0.3,0.5l4.7,3.9
							c0.8,0.7,1.9-0.5,1.1-1.2l-4.7-3.9l-0.5,1.4c10-0.5,20.2-6.2,28.9-10.9C166.4,255.9,165.5,254.6,164.6,255.1L164.6,255.1z"/>
						<path d="M228.1,253.2l2,2.9c0.1-0.4,0.1-0.7,0.2-1.1c-4.7,3.2-9.4,6.6-13.9,10.1c-4.8,3.7-9.1,8-12.9,12.7
							c-5.3,6.3-11,12.1-17.2,17.5c-1.4,1.2-2.9,2.5-4.4,3.6c-0.7,0.4-1.3,0.8-1.9,1.3c-2.1-0.1-5.3-2.7-7.3-3.7
							c-0.4-0.2-0.9,0-1.1,0.4c-0.2,0.4,0,0.9,0.4,1.1l0,0c2,1,5.2,3.5,7.5,3.8c1.7,0.2,3.5-1.7,4.8-2.7
							c6.5-5.4,12.6-11.3,18.2-17.7c1.8-2.1,3.4-4.3,5.1-6.4c2.5-3,5.9-5.5,9-7.9c4.7-3.7,9.6-7.2,14.6-10.6
							c0.4-0.3,0.5-0.7,0.2-1.1l-2-2.9c-0.2-0.4-0.8-0.5-1.1-0.2S227.8,252.9,228.1,253.2L228.1,253.2L228.1,253.2z"/>
						<path d="M52.3,79.7c0.6,0.3,1.3,0.6,2,0.7c1.6,0.3,3.2,0,4.6-0.9c0.7-0.4,0.8-1,0.6-1.3s-1-0.2-1.4-0.1
							c-1.4,0.5-2.9,0.6-4.3,0.3c-0.5-0.2-1-0.3-1.6-0.4C51.3,77.9,51.4,78.9,52.3,79.7L52.3,79.7z"/>
						<path d="M47,85.2c2.1,1.5,4.5,2.6,7,3.2c3.5,0.6,6.7-1.9,9.6-3.4c0.9-0.5,0-1.8-0.9-1.3c-3.3,1.7-6.3,4-10.2,2.6
							c-1.7-0.6-3.3-1.5-4.8-2.5C46.8,83.2,46.1,84.7,47,85.2L47,85.2z"/>
						<path d="M56.9,202.1c0,1.5-1.2,2.7-2.7,2.7s-2.7-1.2-2.7-2.7s1.2-2.7,2.7-2.7C55.6,199.4,56.9,200.6,56.9,202.1L56.9,202.1z"
							/>
						<path d="M55.9,227.9c0,1.5-1.2,2.7-2.7,2.7s-2.7-1.2-2.7-2.7s1.2-2.7,2.7-2.7l0,0C54.7,225.2,55.9,226.4,55.9,227.9z"/>
						<path d="M54.1,258c0,1.5-1.2,2.7-2.7,2.7s-2.7-1.2-2.7-2.7s1.2-2.7,2.7-2.7l0,0C52.9,255.2,54.1,256.4,54.1,258z"/>
						<path d="M5.9,289.8c0.9,6.1,1.8,12.2,2.6,18.3c0.1,1,1.8,0.9,1.6-0.1c-0.9-6.1-1.8-12.2-2.6-18.3
							C7.4,288.6,5.8,288.6,5.9,289.8L5.9,289.8z"/>
						<path d="M98.2,291c-0.4,5.7-0.7,11.3-1.1,17c-0.1,1,1.6,0.9,1.6-0.1c0.4-5.7,0.8-11.4,1.1-17.1
							C99.9,289.8,98.3,289.9,98.2,291L98.2,291z"/>
						<path d="M108.5,250.9c-2.9-0.3-5.7-0.6-8.6-0.9c-1.4-0.2-3.2-0.1-4.5-0.7s-2.2-2.5-2.8-3.8l-0.6,1.2c3.1,0.2,6.2,0.9,9.2,1.3
							c1.4,0.1,2.8,0.3,4.2,0.6c0.3,0.1,0.9,0.3,0.4,0c1,0.7,1.5,2.4,1.8,3.4c0.2,0.4,0.6,0.6,1.1,0.4c0.4-0.2,0.6-0.6,0.5-1
							c-1.4-4-2.4-4.2-6.2-4.8c-3.8-0.6-7.4-1.4-11.1-1.6c-0.7,0-0.9,0.8-0.6,1.2c1.8,3.5,2.8,4.4,6.5,5c3.5,0.5,7,0.9,10.5,1.2
							C109.1,252.6,109.5,250.9,108.5,250.9z"/>
						<path d="M1.2,252.4c3.6-0.3,7.2-0.7,10.8-1.2s4.7-1.6,6.4-5c0.2-0.4,0-0.9-0.4-1.1c-0.1-0.1-0.3-0.1-0.4-0.1
							c-3.7,0.2-7.5,1-11.2,1.6s-4.6,0.8-5.9,4.7c-0.3,1,1.1,1.7,1.4,0.7c0.3-1.2,0.9-2.3,1.7-3.3c0.2-0.1-0.4,0.1,0.3-0.1
							c1.5-0.4,3.1-0.6,4.7-0.7c3-0.4,6.1-1.1,9.1-1.3l-0.8-1.2c-0.6,1.2-1.3,3.1-2.6,3.7s-3.5,0.6-4.9,0.8
							c-2.8,0.4-5.5,0.6-8.3,0.9C0.1,250.9,0.2,252.6,1.2,252.4z"/>
						<path d="M161.3,215.2c3.8,2.8,7.1,6.1,9.7,10c0.6,0.9,1.9,0,1.3-0.9c-2.7-4-6.1-7.4-10-10.3
							C161.5,213.4,160.4,214.6,161.3,215.2L161.3,215.2z"/>
						<path d="M-53.7,215.6c2.8-2.7,6-5,9.5-6.8c0.9-0.5,0-1.8-0.9-1.4c-3.6,1.8-6.9,4.2-9.9,7C-55.7,215.2-54.5,216.2-53.7,215.6
							L-53.7,215.6z"/>
						<path d="M51.4,67.8c2.7-1,5.7-1,8.4,0c1,0.3,1.3-1.3,0.3-1.6c-3-1.1-6.3-1.1-9.3,0C49.8,66.6,50.4,68.1,51.4,67.8L51.4,67.8z"
							/>
					</g>
				</g>
			</g>
		</g>
	</g>
</g>
</svg>
