<svg xmlns="http://www.w3.org/2000/svg" xmlns:xlink="http://www.w3.org/1999/xlink" viewBox="0 0 108 136.1"><defs><circle id="a" cx="55.6" cy="67.4" r="67.5"/></defs><clipPath id="b"><use xlink:href="#a" overflow="visible"/></clipPath><g clip-path="url(#b)"><path d="M38.5 97.7s-8.2 8.8-8.9 11c0 0-26.8 13.4-29.1 15.1s-4.3 1.3-8.5 13.4-15.6 53.5-15.6 53.5-.4 6.6-3.1 9.9-4.8 9.7-5 10.5-7.6 3.1-11.8 5.7S-61.2 228-61.2 228l1 .8s9.2 5.3 10.7 11.5c.7 2.6 1.3 5.2 1.6 7.8l-8.1 4.4s3.3 6 6.5 4.3c0 0 27.8-19.6 30.4-23s25.9-38.3 25.9-38.3-1.1 30.1-1.5 34.1-1.8 17.6-1.8 17.6-2.9 4.2-2.2 4.5c.4.2.9.3 1.4.2l-4.2 33s13.5 9.8 38.5 8.3c0 0 7.6.3 10.1-2s7.9-13.8 7.9-13.8 6 13.4 8.1 14.2c2.1.8 25.9 3.2 36.8-1s10.5-4.1 11.2-7.2-4-31.8-4-31.8l1-.8-1.8-3.6s-2.8-33-2.8-38 .8-18.4.8-18.4l10.9 23.9s1.6 5 4 7.4 18.1 20.4 18.1 20.4l8.8 12.3s.3 3.5 2.2 2.9 3.2-2.9 3.2-2.9l-6.7-5s-3.7-10.6 4.7-15.5c0 0 4.2-2.5 8 .6.5-.8.5-1.8 0-2.6-.9-1.5-9.4-13.8-10.3-15.7s-7.9-11.3-8.6-13.1-9.1-27.4-9.1-27.4l-13-40.7c-1.1-6.1-5.3-11.1-11-13.4-10-4-27.5-14.2-27.5-14.2l-7.1-11s3.6 3.7 1.8 16.5L65 143.8l-8.3 28.8-13-37.8s-6.3-21.4-7-25.2c-.7-3.8.9-9.9 1.8-11.9z" fill="#32b0ff"/><path d="M30.9 66.9l2.8 1.1.7-15.9 5.9-7.7s6.2-6.1 10.8-6.3 9 4.8 9.2 5 8 7.9 11.5 9.2 5.3 6.1 5.3 6.1l-.1 9.7 3-1.5s3.7-12.2 2.7-19S78.1 30 72 25.8s-15.4-6.4-22-3.5-8.4 6.5-8.4 6.5c-4.2 1.2-7.9 3.9-10.2 7.6-3.9 6.3-4.6 12.2-3.8 16.6s3.3 13.9 3.3 13.9z" fill="#464948"/><path d="M47.8 121.2l4.7 5.2c-1.4 4.7-2.5 9.4-3.3 14.2-1.1 7.1-.7 8.3-.7 8.3s8.3 25.4 8.4 24.9 6.8-26.8 6.8-26.8-2.4-16.7-3.2-18.7-1.2-1.6-1.2-1.6l3.2-4.3s-3.8-7.9-5.6-8.2c-1.4-.2-2.9-.2-4.4 0l-4.7 7z" fill="#fffc19"/><path d="M69.5 74.3c-2.3 0-5.6.6-7.4-1.1-1.3-1.3-1.4-3.2-1.4-4.9 0-2.7 1.3-4.7 4.1-4.9 2.1-.2 5.7-.5 7.4.8 1.7 1.3 1.8 3.3 1.5 5.4-.3 2.6-1.3 4.6-4.2 4.7-.4.1-.7.5-.6 1 .1.3.4.6.7.6 4.7-.4 6.8-5.4 5.9-9.6-1.1-5-6.7-4.8-10.7-4.5-5.2.4-6.4 5.3-5.4 9.7 1.2 5 6.2 4.5 10.2 4.5 1-.1.9-1.7-.1-1.7z"/><path d="M64.9 70.1c.9-2 3.2-1.6 4.3.1.5.9 1.9 0 1.3-.9-1.7-2.8-5.6-3-7.1.1-.4.8 1 1.5 1.5.7zM63.1 59.3c2.7-1.4 5.9-1.4 8.5 0 .6.3 1.3 0 1.6-.6.2-.5.1-1.2-.4-1.5-3.4-1.9-7.5-1.9-10.9 0-1.3.7-.1 2.8 1.2 2.1zM41.5 75.9c4 0 9 .5 10.1-4.5 1-4.4-.2-9.4-5.4-9.7-3.8-.2-9-.5-10.5 3.9-1.4 4.2.9 9.9 5.6 10.3 1 .1 1.4-1.5.3-1.6-2.8-.2-4-2.1-4.4-4.7-.3-2-.5-4.1 1.4-5.5 1.8-1.3 5.4-1 7.5-.8 4.1.4 5.3 5.7 3.4 8.9-1.6 2.7-5.5 2-8.2 2-1 .1-.9 1.7.2 1.7z"/><path d="M47.6 69.3c-.6-1.3-1.8-2.3-3.2-2.4-1.7 0-3.2.9-4 2.3-.5.9.9 1.6 1.5.7.5-.8 1.4-1.4 2.4-1.4.8.1 1.5.7 1.8 1.4.4.9 1.9.4 1.5-.6zM49.1 57.2c-3.4-1.9-7.5-1.9-10.9 0-1.3.7-.1 2.8 1.2 2.1 2.7-1.4 5.9-1.4 8.5 0 .6.2 1.3-.1 1.5-.8.3-.5.1-1-.3-1.3zM33.7 72.7c1.3 12 7.9 27.6 21.8 28.3 1 .1.9-1.6-.1-1.6-12.9-.7-18.9-15.7-20.1-26.8 0-1-1.7-1-1.6.1z"/><path d="M33.3 67.1c-4-2-6.2 1.9-5.7 5.5.6 4.2 3.6 10.4 8.6 10.4 1 0 .9-1.6-.1-1.6-3.5 0-5.6-4.4-6.5-7.2-.6-2.2-.8-7.4 2.9-5.6.4.2.9 0 1.1-.4.3-.4.1-1-.3-1.1zM75.6 72.4c-1.2 11.2-7.1 26.2-20.2 26.9-.4 0-.8.4-.8.9 0 .4.4.8.9.8 13.8-.7 20.4-16.3 21.6-28.2.1-1-1.5-1.5-1.5-.4zM76 57.2c.9 3.6.5 7.7 0 11.2-.1 1 1.4 1.4 1.6.3.5-3.9 1-8.2 0-12.1-.3-.9-1.8-.4-1.6.6z"/><path d="M77.4 68.6c.8-.4 1.7-.5 2.6-.4 2.4.6 1.9 3.6 1.4 5.4-.8 3-3 7.8-6.7 7.8-1 0-.9 1.6.1 1.6 5 .1 8.1-6.6 8.5-10.8.5-4.1-2.5-6.8-6.4-5.1-1 .3-.4 1.8.5 1.5zM34.9 68.7c-.2-3.6-.1-7.1 0-10.7.1-1.4.1-2.8.2-4.2 0-.5.4-2.1 0-1.2 1.1-2.2 3.5-4.4 4.9-6.5 2.2-3.3 5.3-5.1 8.9-6.5 1.3-.7 2.8-1 4.3-.8 3.8.5 5.7 3.7 8 6.4 2.1 2.5 4.7 4.7 7.5 6.3 2.7 1.5 6.2 2.6 7.4 5.8.2.4.6.6 1.1.4.4-.2.6-.6.5-1-.8-2-2.3-3.7-4.2-4.8-2.6-1.6-5.2-2.5-7.6-4.5-1.7-1.5-3.2-3.1-4.6-4.8-3-3.6-6.6-6.8-11.6-5.1-3.2 1-6.2 2.6-8.7 4.8-1.1 1.1-2 2.3-2.7 3.6-1.2 1.8-3 3.4-4 5.3-.7 1.3-.6 2.5-.7 4-.3 4.5-.3 8.9-.1 13.4.1.4.5.7.9.7.2 0 .5-.2.5-.6z"/><path d="M32 67.1c-3-7.8-5-17.7-2.3-25.8 1.4-4.1 4.3-7.6 8.1-9.8 1.3-.7 3-1.1 4.1-2S43.7 27 45 26c3.6-2.6 8-4 12.5-4 10.9-.3 18.5 7.1 22.1 16.9 3.4 9 2.3 19.2-.8 28.2-.3 1 1.2 1.3 1.6.3 3.1-8.8 4.2-18.9 1.2-27.8-2.8-8.7-9.2-17.2-18.7-18.9-7.4-1.3-16.9.4-21.7 6.8-.3.4-1.3 1.4-.4.8-.7.4-1.7.6-2.5 1-3.4 1.6-6.2 4.1-8.3 7.1-5.7 8.8-3.2 21.8.3 31 .5 1.2 2.1.5 1.7-.3zM38.8 89.8V102c0 1 1.6.9 1.6-.1V89.8c0-1-1.6-1-1.6 0zM69.3 90.9V102c0 1 1.6.9 1.6-.1v-11c0-1-1.6-1-1.6 0z"/><path d="M38.8 100.9c.8 8.4 9.1 13.1 16.5 14.5.4.1.9-.2 1-.6s-.2-.9-.6-1c-3.4-.7-5.2 2.3-6.8 4.8-.9 1.4-4.9 7.3-4.6 7.4-1.6-.4-3.6-5.3-4.2-6.6-.5-.9-1.8 0-1.3.9 1.3 2.6 2.9 5.1 4.8 7.3.3.3.8.3 1.2-.1 2.1-2.8 6.9-12.9 10.7-12.2.1-.5.2-1.1.3-1.6-6.7-1.2-14.5-5.4-15.3-13-.2-.9-1.8-.8-1.7.2z"/><path d="M69.3 100.8c-1.9 6.5-7.9 11.2-14.1 13.2-.4.2-.6.6-.5 1.1.1.2.3.4.6.5 5.2.9 6.6 8.5 8.7 12.6.2.4.7.5 1.1.2 2.6-1.9 4.7-4.3 6.5-7 .5-.9-.9-1.6-1.4-.7-1.6 2.5-3.6 4.6-5.9 6.3l1.1.2c-2.4-4.5-3.7-12.2-9.7-13.3l.1 1.6c6.8-2.1 13.1-7.3 15.1-14.4.3-1-1.3-1.3-1.6-.3z"/><path d="M47.3 121.8l4.6 5.7c.3.4.8.5 1.1.2 1.8-1.4 4.2-1.1 6.1 0 .4.2.9 0 1.1-.4l2.6-5.1c.2-.4 0-.9-.4-1.1s-.9 0-1.1.4c-.9 1.7-1.7 3.4-2.6 5.1l1.1-.3c-2.4-1.4-5.4-1.8-7.7 0l1.1.2-4.6-5.6c-.6-.7-2 .2-1.3.9z"/><path d="M52 126.6c-2.2 2.5-2.5 7.6-3 10.7-.6 4.4-.8 8.8-.7 13.2 0 1 1.6.9 1.6-.1-.1-3.8.1-7.7.5-11.5.3-3 .7-8.9 2.8-11.3.7-.8-.5-1.8-1.2-1zM58.8 127.6c1 1.2 1.2 3.4 1.6 4.9.7 2.8 1.2 5.7 1.5 8.5.4 3.2.6 6.3.5 9.5 0 1 1.6.9 1.6-.1.1-4.1-.2-8.3-.9-12.3-.5-3.2-.7-8.8-2.9-11.4-.7-.9-2.1.1-1.4.9zM3.4 171.9c4.1 24.7 2.5 51.1-.8 75.9-.1 1 1.4 1.4 1.6.3 1.5-11.5 2.4-23.1 2.7-34.8.4-13.8.4-27.9-1.9-41.6-.2-.9-1.8-.9-1.6.2z"/><path d="M2.1 251.4c-1 7.4-2 14.9-3.1 22.3-.4 2.6-.8 5.2-1.1 7.9-.3.9-.4 1.9-.4 2.9.7 2.9 6.2 5 8.5 5.9 4.6 1.6 9.5 2.7 14.4 3 7.9.8 17.1 1.4 24.9-.5 2.3-.5 3-2 4.2-4.1 2.4-4.1 5.1-8.5 6.6-13 .9-2.5.9-5.4 1.1-8 .5-5.2.8-10.5 1.2-15.7.8-12.5 1.5-25 2-37.5.4-11.9 1.2-24.6-1.7-36.2-1.9-7.8-4.7-15.5-7.2-23.1-3.6-11.1-7.3-22.1-10.8-33.2-2.6-8.3-6.5-17.5-.6-25.5.6-.8-.6-1.9-1.2-1.1-4.1 5.5-4.1 11.9-2.4 18.2 2.3 8.2 5 16.3 7.7 24.4 3.1 9.5 6.3 19 9.4 28.6 2.2 6.9 4.3 13.5 4.9 20.8 1.2 13.1.4 26.4-.3 39.6-.6 12-1.2 24-2.1 36-.1 3.6-.5 7.3-1.1 10.9-.8 3.6-3 7.1-4.7 10.3-1.4 2.6-2.6 6.6-5.7 7.2-3.4.5-6.9.8-10.3.8-10.3.3-23.2.2-32.1-5.6-1.1-.6-2.1-1.3-3-2.1-.1-.3.2-1.1.2-1.5.2-2.5.6-5 1.1-7.4 1.1-7.9 2.2-15.9 3.3-23.9.1-1-1.5-1.4-1.7-.4zM104.6 171.6c-2.2 13.4-2.3 27.1-2 40.6.3 12 1.2 23.9 2.8 35.7.1 1 1.8.9 1.6-.1-1.5-11.5-2.4-23-2.7-34.6-.4-13.8-.4-27.7 1.9-41.3.2-1-1.4-1.3-1.6-.3z"/><path d="M105.9 251.6c.8 6.3 1.7 12.6 2.6 18.9.4 2.8.8 5.5 1.2 8.3.2 1.4.8 3.2.7 4.5s-.3 1.4-1.8 2.6c-1.5 1.1-3.1 2-4.8 2.6-4.3 1.6-8.8 2.7-13.4 3.1-7.8.9-15.7.9-23.6 0-2.7-.4-3.4-.5-4.9-2.9-2.4-3.8-4.4-7.9-6.2-12-.4-.9-1.9-.4-1.5.5 1.5 3.3 3.2 6.6 4.9 9.8 1 1.7 2 4.5 3.9 5.5 1.3.7 3.4.7 4.9.9 3.1.3 6.2.5 9.3.5 7.7.1 15.6-.4 23-2.4 3.4-.9 11.9-3.4 12-7.9.1-3.9-1.2-8.2-1.7-12-1-6.7-1.9-13.4-2.8-20.1-.4-.9-2-.9-1.8.1zM69.4 96.3c6.9 9.3.7 23.3-1.8 33.2-3.8 14.8-7.9 29.5-11.6 44.3-.2 1 1.3 1.4 1.6.3 4-15.7 8.3-31.4 12.4-47.1 2.6-9.9 7.7-22.3.9-31.6-.7-.7-2.1 0-1.5.9zM37.8 97.2c-2.4 3.3-4.9 6.5-7.3 9.8-2.3 3.1-2.1 7.2-2.3 11-.4 5.4-1.5 10.8-1.6 16.1-.1 4.2 5.6 4.8 8.7 6.5.9.5 1.7-1 .7-1.4-2-1-6-1.8-7.4-3.5-1-1.1-.3-3.4-.2-4.8.5-4.6 1.1-9.2 1.4-13.8s.5-7.2 3.2-10.7l6-8.1c.7-.7-.5-1.9-1.2-1.1z"/><path d="M70.9 98.2c1.8 2.9 3.6 5.9 5.7 8.6 2.5 3.3 3.2 6.5 3.5 10.8.3 4.7 1 9.3 1.5 14 .2 1.5.6 3-.3 4.1-1.3 1.6-5.5 2.5-7.4 3.5-.9.5 0 1.8.9 1.4 2.7-1.4 8.5-2.3 8.7-6 .3-5.1-1.2-10.6-1.6-15.7-.3-4-.4-8-2.8-11.5s-4.6-6.6-6.8-10c-.6-1-2-.1-1.4.8zM31.1 137.6c-1.1 2.4-2.3 4.7-3.5 7-1 1.9-1 2.1 0 4 2.9 6 6.4 11.7 10.4 17l12.3 16.5c3 4.1 6.9 8.5 8.8 13.2.4 1 1.9.4 1.5-.5-1.6-4-4.7-7.6-7.1-11-4-5.6-8.2-11.1-12.3-16.6-3.8-4.9-7.2-10-10.2-15.4-.7-1.3-2.3-3.4-2.4-4.9-.1-.9 0-.7.7-2 1.1-2.2 2.2-4.4 3.3-6.7.2-.4 0-.9-.4-1.1-.4-.2-.9 0-1.1.5z"/><path d="M77.7 138.1c.8 1.7 2.4 3.8 2.7 5.5.4 2-1.1 5.2-1.8 7.1-1.8 4.5-4.2 8.9-7 12.9-4.3 6.5-8.8 12.9-13.3 19.3-.6.8.6 1.9 1.2 1.1 4.8-6.7 9.5-13.5 14.1-20.4 2.9-4.2 5.3-8.7 7.1-13.5.6-1.7 1.8-4.3 1.6-6.1-.2-2-2.1-4.5-3-6.4-.4-.8-2-.4-1.6.5zM30.1 107.7c-6.9 3.6-13.8 7.3-20.7 10.8-3.5 1.8-7.3 3.3-10.6 5.4-3.8 2.5-5.7 7.8-7.2 11.9-5.6 15.1-9.5 31-13.9 46.5-1.2 4.2-2.4 8.3-3.5 12.5-.5 2.1-1.2 4.2-2.1 6.2-1.5 3-3.9 5.7-4.6 9.1-.1.4.2.9.6 1s.9-.2 1-.6c.7-3.2 3-5.8 4.4-8.7.8-1.8 1.5-3.6 1.9-5.5.8-3.2 1.7-6.4 2.6-9.6 2.5-8.9 5-17.9 7.6-26.8 1.6-5.7 3.3-11.3 5.1-16.9 1.7-5.3 3.4-12.1 7.3-16.3 2.4-2.6 6.8-4 9.9-5.6 7.7-4 15.3-8 22.9-12 1.1-.5.2-1.9-.7-1.4zM78.3 109.1l24 12.6c4.7 2.4 8.6 3.8 11.2 8.7 3.1 5.8 4.7 12.3 6.7 18.6 5.1 15.7 9.3 31.7 14.5 47.4 2.4 7.3 8 13.4 11.5 20.2 1.8 3.3 3.8 6.6 6 9.7 1.8 2.7 4.3 5.7 5.3 8.8.2.4.6.6 1.1.4.4-.2.6-.6.5-1-1.9-5.6-6.6-10.6-9.6-15.6-1.8-3-3.2-6.1-5.1-9.1-2.5-3.9-5.5-7.6-7.3-11.9-3.6-8.3-5.5-17.7-8.1-26.3-2.3-7.6-4.5-15.1-6.9-22.6-1.9-6-3.5-12.1-6.2-17.8-2.1-4.4-4.3-6.9-8.6-9-9.4-4.7-18.8-9.7-28.1-14.6-.4-.2-.9 0-1.1.4-.3.3-.1.8.2 1.1zM5.4 194.6c-7.3 12.1-14.3 24.9-23.2 35.8-4.9 6.1-12.1 10.8-18.4 15.4-3.5 2.6-7.1 5.2-10.8 7.6-1 .8-2.1 1.6-3.3 2.1-2.2.7-3.6-1.3-4.6-3-.5-.9-1.9 0-1.3.9 1.1 1.9 3 4.5 5.6 4 1.5-.3 3.1-1.7 4.3-2.5 6.8-4.5 13.3-9.3 19.6-14.4 4.6-3.6 8.8-7.2 12.2-12 4.4-6.1 8.4-12.5 12.4-18.9 3-4.8 6-9.6 8.9-14.5.6-.7-.8-1.3-1.4-.5z"/><path d="M-29.9 209.4c-6.5 1.6-12.1 6.6-17.8 9.9-5 2.9-10.1 5.8-15.2 8.6-.7.4-.3 1.5.5 1.5 3.5-.3 6.8 3.4 8.6 5.9 2.6 3.5 4.2 7.6 4.8 11.9.1 1.1-.2 10.9-2.6 8.8-.3-.3-.8-.3-1.1.1-.3.4-.3.8.1 1.1 2 1.8 3.7.3 4.6-1.9 1.7-4.4.9-10.1-.7-14.4-1.9-5-7-13.8-13.7-13.2.2.5.3 1 .5 1.5l14.4-8.1c5.8-3.4 11.7-8.6 18.2-10.2.9-.1.4-1.8-.6-1.5z"/><path d="M-61.1 228.1l-7 3.2c-.4.2-.6.6-.5 1.1.1.3.4.5.8.5 9.9.3 11.1 14 7.8 21-.2.4.1.9.5 1.1.2.1.5.1.7-.1l11.2-6.9c.9-.6 0-1.9-.9-1.4l-11.2 6.9 1.2 1c3.8-8.1 1.9-23-9.4-23.3l.3 1.6 7-3.2c.9-.5.4-2-.5-1.5z"/><path d="M-67 231.6c-6.6.5-13.6.6-19.9 2.9-3.5 1.3-6.4 2.3-9.2 4.8-3.1 2.7-5.9 5.7-9 8.5-.2.2-.3.5-.2.8 3 6.4 10.7-1.3 14-2.8 2.9-1.2 6-1.3 9-.4 4 1.4 8.5 1 12.2-1.2.9-.5 0-1.8-.9-1.4-2.8 1.7-6.2 2.2-9.4 1.4-1.3-.3-2.5-1-3.7-1.3-2.4-.2-4.8.1-7.1.9-2.6 1-4.5 3.4-7.2 4.6-1.7.7-3.2 1.4-4.8.2-1-.7-.3-.2-.2-.3.4-1 2.4-2.4 3.2-3.1 2.3-2.2 4.6-4.9 7.2-6.6 3.1-1.7 6.4-3 9.8-3.8 5.2-1.3 10.8-1.3 16.1-1.7.4 0 .8-.4.8-.9.1-.3-.3-.6-.7-.6z"/><path d="M-85.2 243.6c-4.6 3.6-8.3 8.1-12.5 12-1.6 1.4-8.5 6.2-5.2 8.8s8.1-1.9 10.4-3.8c3-2.5 6-5 8.9-7.7.8-.7-.4-1.8-1.2-1.1-2 1.8-4 3.5-6 5.3-2 1.7-5 5.1-7.7 5.8-3 .1-4-.4-3-1.4.2-.3.5-.6.8-.8.7-.8 1.4-1.5 2.2-2.2 1.1-1.1 2.3-2.1 3.4-3.2 3.6-3.4 6.8-7.2 10.7-10.3.9-.6 0-2.1-.8-1.4z"/><path d="M-97.6 262.5c-1.8 1.4-6.6 4.8-3 6.9 3.3 1.9 7.4-1.5 9.8-3.6.8-.7-.4-1.8-1.2-1.1-1.6 1.4-3.7 3.1-5.8 3.5-.7.2-1.5.1-2.1-.3-.6-.5-.3-.5 0-1.1.6-1.1 2.2-2.2 3.2-3s-.1-1.9-.9-1.3z"/><path d="M-86.6 266c-1.1.3-3.8 2.7-4.6.9-.6-1.3 3.6-4.1 4.6-4.8 2.8-2 5.3-4.3 8.1-6.2.4-.2.5-.8.2-1.1-.2-.4-.8-.5-1.1-.2-2.3 1.6-4.5 3.5-6.7 5.2-1.9 1.5-4.3 2.8-5.8 4.9-1 1.3-1.7 3.7.1 4.7s4-1.2 5.7-1.7c.4-.2.6-.6.4-1.1-.1-.6-.5-.7-.9-.6z"/><path d="M-74.2 256.6c-3.1 1.9-6 3.9-9 5.8-1.6 1-4.2 2.8-3.9 5 .6 4.4 6.7.4 8.6-.6 3.8-2 8.1-3.5 11.2-6.6 3.3-3.2 5.8-7.8 9.8-9.7.9-.4.4-2-.5-1.5-5.6 2.7-7.9 9.2-13.3 12.4-3.3 1.9-6.8 3.6-10.2 5.2-.6.3-1.3.6-1.9.9-2.4 1-2.3-.1.3-3.2 1-.9 2.6-1.4 3.8-2.1 2.1-1.3 4-2.9 6.2-4.2.7-.5-.2-2-1.1-1.4z"/><path d="M-61.4 251.9c-.2 1.4.7 2.6 2 3 .4.1.9-.2 1-.6.1-.4-.2-.9-.6-1-.3-.1-.6-.4-.7-.7v-.1c0-.1 0 .1 0 0v-.2c0-.1 0-.5 0 0 .1-.4-.2-.9-.6-1-.4-.1-.9.2-1 .6h-.1z"/><ellipse cx="-53.4" cy="245.9" rx="1.7" ry="2.3"/><path d="M102.9 190.1c2.7 5.4 5.3 10.9 7.8 16.4 2.8 6.2 4.4 13.6 9.7 18.3 7.4 6.5 13.8 14.1 19.2 22.4 1.3 2.1 2.8 4.1 4.3 6.1 1 1.4 2.4 4.7 4 5.7 2.1 1.2 3.4-2 4.3-3.5.5-.9-.9-1.6-1.4-.7-.3.4-1 2.2-1.5 2.3-1.2.3-1.8-1.6-2.3-2.3-1.4-2-3-3.9-4.3-5.9-2.3-3.3-4.3-6.7-6.8-9.8s-5.3-6.2-8-9.2-6.2-5.6-8.7-8.7c-2-2.5-2.8-5.9-4-8.9-1.4-3.2-2.8-6.4-4.3-9.6-2-4.4-4.1-8.7-6.2-13-.7-1.1-2.3-.6-1.8.4z"/><path d="M158.6 233.9c-5.3-3.6-11.1-.8-13.9 4.5-1.5 3.1-2 6.6-1.2 10 .6 3.1 1.2 6.9 3.4 9.4.7.8 2-.1 1.4-.9-2.9-3.4-4.2-10.5-3.2-14.7 1.3-5.8 7.1-10.6 12.8-6.8.8.7 1.5-.8.7-1.5z"/><path d="M144.1 250.6c1.9 2.8 4.8 4.9 8 6 .7.2 1.2-.7.8-1.2-2.6-3.8-3.9-9.8-1.6-14 1.4-2.7 5-3.9 7.9-4.2.5 0 .8-.4.7-.9 0-.2-.1-.4-.3-.5L156 233c-.8-.6-1.9.6-1.1 1.2l3.6 2.8.5-1.4c-3.5.3-7.5 1.8-9.2 5-2.5 4.7-1.2 11.4 1.7 15.6l.9-1.2c-2.8-1-5.3-2.8-7-5.3-.3-.3-.8-.4-1.1-.1-.3 0-.3.5-.2 1z"/><path d="M159 237.1c4.1.4 8.2 1.1 12.3 1.8 2.6.5 5.9.5 8.2 1.8 2.1 1.1 3.4 3.9 4.5 5.8s1.2 4.3 2 6.5c.7 1.8 2.1 2.9 3.6 4.1 1 .9 2.4 1.7.7 2.9-2.5 1.7-5.9-1.1-7.4-2.9s-1.8-4-3.1-5.7-5.2-1.8-7.3-1.8c-2 0-2.3.7-3.8 2-8.7 7.8-18.5 14.7-29.5 18.8-.4.2-.6.6-.5 1.1 0 .1.1.2.2.3l15.4 13.5 10.2 9c1.3 1.1 3 3.4 4.6 4 2.5 1 7.5-1.2 9.8-2 5.2-1.8 10-4.5 14.3-7.9 8-6.5 15.3-13.8 22.6-21.1 5.6-5.6 11-11.2 16.4-16.8.3-.3.3-.9-.1-1.2 0 0-.1-.1-.2-.1-13.1-7.5-26.6-15.9-37.1-26.8-.3-.3-.8-.3-1.1.1-4.2 5.9-8.3 12.3-13.4 17.6-.7.8.5 1.8 1.2 1.1 4-4.1 7.3-9.1 10.6-13.7.7-.9 1.3-1.8 2-2.8 1.1-1.5.2-.4.3-.3 3 2.3 5.6 5.2 8.6 7.6 8.9 7 18.3 13.2 28.1 18.8l-.2-1.2c-11.2 11.8-22.6 23.6-34.8 34.4-2.9 2.7-6.1 5.1-9.4 7.2-3.6 2-7.4 3.7-11.3 4.8-1.6.5-3.9 1.4-5.6 1.2.5.1.2.1-.4-.5-.9-1-2.1-1.8-3.1-2.7l-9.3-8.2-16.9-14.8c-.1.5-.2.9-.3 1.4 9.8-3.7 18.7-9.6 26.8-16.4 1.5-1.2 3.5-3.9 5.2-4.6-.5.2.2.1.8.2l2.7.3c2.1.3 3 .1 3.8 2.1 1.2 2.9 3.1 5.8 5.9 7.4 2 1.2 8 1.8 8.6-1.5.2-1.1-.4-1.4-1.1-2.1-1.9-1.9-4.2-3-5-5.7-.5-1.6-.5-3.3-1.2-4.9-1-1.9-2.1-3.7-3.5-5.4-2.6-3.4-7.1-3.3-11-4-4.1-.8-8.1-1.4-12.3-1.8-1.1-.6-1.5 1.1-.5 1.1z"/><path d="M151.5 255.9c.7 1.9 1.6 3.6 2.9 5.1.7.8 2-.1 1.4-.9-1.1-1.4-2-3-2.7-4.8-.4-.9-1.9-.4-1.6.6z"/><path d="M164.6 255.1c-8.3 4.5-18.4 10.2-28 10.7-.5 0-.8.4-.8.9 0 .2.1.4.3.5l4.7 3.9c.8.7 1.9-.5 1.1-1.2l-4.7-3.9-.5 1.4c10-.5 20.2-6.2 28.9-10.9.8-.6-.1-1.9-1-1.4zM228.1 253.2l2 2.9c.1-.4.1-.7.2-1.1-4.7 3.2-9.4 6.6-13.9 10.1-4.8 3.7-9.1 8-12.9 12.7-5.3 6.3-11 12.1-17.2 17.5-1.4 1.2-2.9 2.5-4.4 3.6-.7.4-1.3.8-1.9 1.3-2.1-.1-5.3-2.7-7.3-3.7-.4-.2-.9 0-1.1.4-.2.4 0 .9.4 1.1 2 1 5.2 3.5 7.5 3.8 1.7.2 3.5-1.7 4.8-2.7 6.5-5.4 12.6-11.3 18.2-17.7 1.8-2.1 3.4-4.3 5.1-6.4 2.5-3 5.9-5.5 9-7.9 4.7-3.7 9.6-7.2 14.6-10.6.4-.3.5-.7.2-1.1l-2-2.9c-.2-.4-.8-.5-1.1-.2s-.5.6-.2.9zM52.3 79.7c.6.3 1.3.6 2 .7 1.6.3 3.2 0 4.6-.9.7-.4.8-1 .6-1.3s-1-.2-1.4-.1c-1.4.5-2.9.6-4.3.3-.5-.2-1-.3-1.6-.4-.9-.1-.8.9.1 1.7zM47 85.2c2.1 1.5 4.5 2.6 7 3.2 3.5.6 6.7-1.9 9.6-3.4.9-.5 0-1.8-.9-1.3-3.3 1.7-6.3 4-10.2 2.6-1.7-.6-3.3-1.5-4.8-2.5-.9-.6-1.6.9-.7 1.4zM56.9 202.1c0 1.5-1.2 2.7-2.7 2.7s-2.7-1.2-2.7-2.7 1.2-2.7 2.7-2.7c1.4 0 2.7 1.2 2.7 2.7zM55.9 227.9c0 1.5-1.2 2.7-2.7 2.7s-2.7-1.2-2.7-2.7 1.2-2.7 2.7-2.7c1.5 0 2.7 1.2 2.7 2.7zM54.1 258c0 1.5-1.2 2.7-2.7 2.7s-2.7-1.2-2.7-2.7 1.2-2.7 2.7-2.7c1.5-.1 2.7 1.1 2.7 2.7zM5.9 289.8c.9 6.1 1.8 12.2 2.6 18.3.1 1 1.8.9 1.6-.1-.9-6.1-1.8-12.2-2.6-18.3-.1-1.1-1.7-1.1-1.6.1zM98.2 291c-.4 5.7-.7 11.3-1.1 17-.1 1 1.6.9 1.6-.1.4-5.7.8-11.4 1.1-17.1.1-1-1.5-.9-1.6.2zM108.5 250.9c-2.9-.3-5.7-.6-8.6-.9-1.4-.2-3.2-.1-4.5-.7s-2.2-2.5-2.8-3.8l-.6 1.2c3.1.2 6.2.9 9.2 1.3 1.4.1 2.8.3 4.2.6.3.1.9.3.4 0 1 .7 1.5 2.4 1.8 3.4.2.4.6.6 1.1.4.4-.2.6-.6.5-1-1.4-4-2.4-4.2-6.2-4.8-3.8-.6-7.4-1.4-11.1-1.6-.7 0-.9.8-.6 1.2 1.8 3.5 2.8 4.4 6.5 5 3.5.5 7 .9 10.5 1.2.8.2 1.2-1.5.2-1.5zM1.2 252.4c3.6-.3 7.2-.7 10.8-1.2s4.7-1.6 6.4-5c.2-.4 0-.9-.4-1.1-.1-.1-.3-.1-.4-.1-3.7.2-7.5 1-11.2 1.6s-4.6.8-5.9 4.7c-.3 1 1.1 1.7 1.4.7.3-1.2.9-2.3 1.7-3.3.2-.1-.4.1.3-.1 1.5-.4 3.1-.6 4.7-.7 3-.4 6.1-1.1 9.1-1.3l-.8-1.2c-.6 1.2-1.3 3.1-2.6 3.7s-3.5.6-4.9.8c-2.8.4-5.5.6-8.3.9-1 .1-.9 1.8.1 1.6zM161.3 215.2c3.8 2.8 7.1 6.1 9.7 10 .6.9 1.9 0 1.3-.9-2.7-4-6.1-7.4-10-10.3-.8-.6-1.9.6-1 1.2zM-53.7 215.6c2.8-2.7 6-5 9.5-6.8.9-.5 0-1.8-.9-1.4-3.6 1.8-6.9 4.2-9.9 7-.7.8.5 1.8 1.3 1.2zM51.4 67.8c2.7-1 5.7-1 8.4 0 1 .3 1.3-1.3.3-1.6-3-1.1-6.3-1.1-9.3 0-1 .4-.4 1.9.6 1.6z"/></g></svg>