<svg version="1.1" id="レイヤー_1" xmlns="http://www.w3.org/2000/svg" xmlns:xlink="http://www.w3.org/1999/xlink" x="0" y="0" viewBox="0 0 108 136.1" xml:space="preserve"><style>.st3{fill:#231f20}</style><g id="レイヤー_2_1_"><g id="line"><defs><circle id="SVGID_1_" cx="51" cy="68.2" r="67.5"/></defs><clipPath id="SVGID_2_"><use xlink:href="#SVGID_1_" overflow="visible"/></clipPath><g clip-path="url(#SVGID_2_)"><path d="M29.7 68.1s-13-11.6-8-28.7 14.5-20.7 17.7-20.3c0 0 17.4-16.4 37.8 7.1 0 0 15.1 20.8 9 41.8 0 0-2.2 13.5-20.8 16 0 0 6.2-11.4 2-19.5S43.8 33 43.8 33s-9.3 11.6-11.5 19.8c-1.4 4.9-2.3 10.1-2.6 15.3z" fill="#983c25"/><path d="M39.5 115.6s7.4 8.3 26.1 0c-.9 4-2.3 7.8-4 11.5-2.6 4.8-8.1 17.2-8.1 17.2s-12.4-17.7-14-28.7z" fill="#e69a17"/><path class="st3" d="M44.7 78.7c2 1.4 4.3 2.2 6.7 2.2 2.3 0 4.5-.8 6.3-2.2.3-.2.4-.7.1-1-.2-.3-.7-.4-1-.1-5.6 4.3-10.9.2-11.2 0-.3-.2-.8-.2-1 .1-.2.3-.2.7.1 1zM50.9 73c1.4 0 2.7-.6 3.6-1.7.2-.2.2-.4 0-.6-.2-.1-.3-.1-.5-.1-.9.3-1.9.4-2.8.4-1-.1-1.9-.3-2.8-.7-.3-.1-.6 0-.7.3-.1.2 0 .4.1.5.7 1.1 1.8 1.8 3.1 1.9zM58.5 63.3c1.3-.1 2.2-1.2 2.1-2.5 0-.5-.1-1.1-.4-1.5.8.1 1.5 0 2.3-.2-.7-.4-1.4-.7-2.1-.9-1.4-.4-3-.5-3.8.2-.2.2-.2.5-.1.7.1.1.2.2.3.2-.3.4-.4 1-.4 1.5-.1 1.2.9 2.4 2.1 2.5zM42.5 53.2s.9.2 1.1-.4c.2-.6-.2-1.3-.8-1.5h-.2c-2.8-.5-5.7 0-8.1 1.5-1.6 1-1 1.9-1 1.9 4.5-2.7 8.1-1.9 9-1.5zM43.7 60.8c0-.5-.1-1-.4-1.5.3 0 .4-.3.4-.5 0-.1-.1-.2-.2-.3-.8-.7-2.4-.6-3.8-.2-.8.2-1.5.5-2.1.9.8.2 1.5.2 2.3.2-.3.5-.4 1-.4 1.5-.2 1.2.6 2.3 1.8 2.5s2.3-.6 2.5-1.8c-.1-.4-.1-.6-.1-.8zM81 58c0 .4.3.6.7.6h.1c.4 0 .7-.4.6-.8-1.3-12.1-13.2-23.9-13.8-24.4-.3-.3-.7-.3-1 0-.3.3-.3.7 0 1 .2.2 12.2 12 13.4 23.6zM18.9 153c.8-6.2 1-12.5.7-18.8v-.8c0-.5-.4-.9-.9-.9h-.1c-.5 0-.9.5-.9 1v.8c.3 6.2.1 12.3-.7 18.5-.4 3.2.5 6.3 2.5 9.9l1.6 43.5c0 .5.5.9 1 .9.2 0 .4-.1.5-.2.1.1.2.1.3.1h.3c.4 0 .8-.3.9-.7.2-.7 5.7-17.8 5.7-24.4-.1-5.1-1.8-10.1-4.8-14.2-4.3-6.1-6.6-10.4-6.1-14.7zm4 50.9l-1.4-37.7c.6.9 1.2 1.8 1.8 2.8 2.8 3.8 4.4 8.4 4.5 13.2.1 5-3.3 16.9-4.9 21.7z"/><path class="st3" d="M102.4 120.9c-5.7-4.7-29-16.6-30-17.1-.1 0-.1-.1-.2-.1-2-2.8-4.8-4.8-8.1-5.7H64c-.3-4.4-.4-9.2-.4-10.7 1-.9 2-1.8 2.8-2.9 2.5-.4 16.7-3 20.5-14.8 3.8-12 2-31-8.8-44.1-6.1-7.4-15.5-12.5-24-12.9-5.6-.4-11 1.6-15 5.5-1.7.1-7.9 1-13.6 10.6-7.8 13-6.3 23.2-3.8 29.5.8 2 1.9 3.9 3.2 5.7 0 .1-.1.1-.1.2-.7 3.7-.1 6.8 1.6 9.2 1.4 1.8 3.3 3.1 5.5 3.6 1.8 4.5 4.6 8.6 8.2 12 .1 1.4.4 5.8.4 9.9h-.1c-3.1.6-5.8 2.3-7.6 4.8-.1 0-.2 0-.2.1-1 .5-24.3 12.4-30 17.1s-4 19.3-2.9 25.4c.4 2.4 2.4 39.4 3.5 58.6.1.5.5.9 1 .9s.9-.5.9-1c-.1-2.3-3-55.6-3.5-58.8-1.5-9.2-1.8-20.3 2.3-23.6 4.5-3.7 20.8-12.3 27.1-15.6-.3.6-.5 1.2-.8 1.9-1.8 5-3.4 10.1-4.7 15.3-.1.3.1.7.4.8l5.4 2.1c-.9 2.6-2.5 8.4-1 10s18.3 11.4 20.2 12.5c.1.1.2.1.3.1l-.4 1.1c-.2.1-.3.3-.4.4-.5 1.2-5 12.2-5.1 15.4s8.2 40.9 8.8 41.9c.3.4.9.6 1.3.3s.6-.8.3-1.2c-.8-2-8.7-38.1-8.6-40.9.1-2.3 3.4-11 4.9-14.4 3.2-2 21.9-13.5 23.4-15.1s.1-7.3-.9-10.2l5.2-2c.3-.1.5-.5.4-.8 0-.1-1.6-6.7-4.7-15.3-.2-.7-.5-1.3-.8-1.9 6.3 3.3 22.6 11.9 27.1 15.6 4 3.3 3.8 14.3 2.3 23.6-.5 3.1-3.4 56.5-3.5 58.8 0 .5.4.9.9 1 .5 0 .9-.4 1-.9 1-19.2 3-56.1 3.5-58.6.8-6 2.6-20.6-3.1-25.3zM27.1 29.7C33 19.7 39.4 20 39.4 20c.3 0 .5-.1.7-.3 3.6-3.7 8.7-5.6 13.9-5.2 7.9.4 16.8 5.2 22.6 12.2 10.3 12.6 12 30.9 8.4 42.4-1.3 3.8-3.9 7-7.3 9.1 4.8-14.2-8.3-33.1-8.9-33.9-.2-.3-.7-.4-1-.2s-.4.7-.2 1c.2.2 14.4 20.7 8.1 34.3a32.6 32.6 0 01-8.1 2.9c5.6-11.9-.2-24.1-7.9-31.8-5.4-5.7-10.5-11.8-15.2-18.1-.2-.2-.5-.4-.8-.4-.3 0-.6.1-.8.4-.6.8-14.3 18.1-14.4 32.9-.1.1-.1.2-.1.3-2.2-2.4-3.9-5.1-5.1-8.1-3.4-8.5-2.1-17.8 3.8-27.8zm.3 42.8c-1.4-2.1-1.9-4.6-1.5-7 .9 1.2 1.9 2.2 3.1 3.2.5 2.2 1.2 4.4 2 6.5-1.4-.5-2.7-1.5-3.6-2.7zm3.1-5.8c-.8-12.4 10.2-28.1 13.2-32.2 4.4 5.8 9.1 11.4 14.1 16.7h-.2c-.7.1-1.1.7-1 1.3v.2c.2.7 1.1.4 1.1.4.6-.2 1.2-.3 1.8-.4 6.9 7.4 11.8 18.7 6 29.6-.9 1.4-2 2.6-3.3 3.7-.1 0-.1.1-.2.1-3.1 2.4-6.5 4.3-10.1 5.7-.6.3-1.3.3-2 .2C36 88.7 31.5 71.4 30.5 66.7zM49.3 94c.4.1.8.2 1.2.2.7 0 1.4-.1 2-.4 3.2-1.3 6.3-2.9 9.2-4.9.1 4.1.5 13.7 1.3 16.8.1.4.5.7.9.7h.2c.5-.2.8-.7.7-1.2-.2-.8-.3-1.6-.4-2.4l1.9 1.1c-.2 3.8-.6 7.6-1.4 11.3-15.4 8.2-24.6.3-25-.1 0 0-.1 0-.1-.1-.7-3.7-1.2-7.4-1.4-11.1l1.9-1.1c0 1-.1 2-.4 3-.1.5.2 1 .7 1.2h.2c.4 0 .8-.3.9-.7.8-3 .4-11.6.2-15.7 2.3 1.6 4.8 2.7 7.4 3.4zm4 48.6c-1.6-2.7-5.4-9.3-9.4-15.9-1.7-3-2.9-6.2-3.6-9.6 3.4 2.1 7.4 3.2 11.4 3.2 4.5-.1 8.9-1.2 12.9-3.3-.7 3.4-2 6.7-3.7 9.7-2.9 5.1-5.4 10.4-7.6 15.9zm-2.3 5.6c-7.4-4.3-18.8-11.1-19.9-12.2-.7-.7.1-4.8 1.3-8.4l8.2 3.2h.3c.4 0 .7-.3.7-.7 0-.3-.2-.6-.5-.7l-14.4-5.6c.5-1.8 2-7.5 4.5-14.5.5-1.2 1-2.4 1.8-3.5l.2-.1c.3-.2.6-.5.5-.9 1.6-2.2 3.9-3.7 6.6-4.2v.7l-3 1.8c-.2.1-.4.4-.4.6 0 .6.4 15.2 5.7 24 4.6 7.7 9 15.3 10 16.9-.6 1.5-1.1 2.8-1.5 3.9l-.1-.3zm22.5-38.9c2.5 7 4 12.7 4.5 14.5l-4.9 1.9c-.2-.1-.4-.1-.6 0s-.4.3-.5.5l-8.3 3.2c-.4.1-.6.5-.4.9.1.3.4.5.7.5h.3l8-3.1c1.2 3.8 1.9 7.6 1.3 8.2-1 1-12.6 8.3-21.3 13.7 1.8-4.7 6-15.5 9.9-22 5.2-8.7 5.6-23.3 5.7-24 0-.3-.1-.5-.3-.6l-3.2-1.8c0-.4-.1-.9-.1-1.4 2.7.9 5.1 2.7 6.9 5 0 .4.2.8.5.9l.2.1c.6 1.1 1.2 2.2 1.6 3.5z"/><path class="st3" d="M87 150.7c-.7-5.5-.7-11 0-16.4.1-.5.1-.6.1-.8 0-.6-.4-1-1-1-.5 0-1 .4-1 .9 0 .1 0 .3-.1.6-.8 5.6-.8 11.4 0 17 .9 6.1-1 12.2-5.2 16.7-3.9 4.1-6.2 9.5-6.2 14.4 0 6.7 5.7 23.7 5.9 24.4.1.4.5.7.9.6h.3c.5-.2.7-.7.6-1.2-.1-.2-5.8-17.5-5.8-23.8 0-4.4 2.2-9.3 5.7-13.1.9-1 1.7-2 2.4-3.1l3 40.4c.1.5.5.9 1 .9h.1c.5-.1.9-.5.9-1l-3.2-43.4c1.7-3.8 2.3-8 1.6-12.1zM49.7 165.1c-1.3 0-2.4 1.1-2.4 2.4s1.1 2.4 2.4 2.4 2.4-1.1 2.4-2.4c0-1.3-1.1-2.4-2.4-2.4zm0 3.8c-.8 0-1.5-.6-1.5-1.4 0-.8.6-1.5 1.4-1.5.8 0 1.5.6 1.5 1.4 0 .9-.6 1.5-1.4 1.5zM55.8 156c0-1.3-1.1-2.4-2.4-2.4S51 154.7 51 156c0 1.3 1.1 2.4 2.4 2.4 1.4 0 2.4-1.1 2.4-2.4zm-3.8 0c0-.8.6-1.5 1.4-1.5s1.5.6 1.5 1.4-.6 1.5-1.4 1.5c-.9 0-1.5-.6-1.5-1.4z"/></g></g></g></svg>