<svg version="1.1" id="レイヤー_1" xmlns="http://www.w3.org/2000/svg" xmlns:xlink="http://www.w3.org/1999/xlink" x="0" y="0" viewBox="0 0 108 136.1" xml:space="preserve"><style>.st3{fill:#231f20}</style><g id="レイヤー_2_1_"><g id="characters"><defs><circle id="SVGID_1_" cx="57.7" cy="69" r="67.5"/></defs><clipPath id="SVGID_2_"><use xlink:href="#SVGID_1_" overflow="visible"/></clipPath><g clip-path="url(#SVGID_2_)"><path d="M113.5 132.4c-.2-1.3-1.2-9.3-4-10.6s-35.6-15.1-35.6-15.1l9.7 28.2-8.6 5.5 5.8 9s-14.4 26.6-22.1 34l3-8.9-28.1-22.3c1-1.8 4.6-9.9 4.6-9.9l-7-2.4-1.4-35.6-41.1 24.7c-5.1 3.5-6.2 61.1-6.2 61.1l77.8.9 40.4-.9 17.3.9s-4.3-57.3-4.5-58.6z" fill="#0092b3"/><path d="M59.3 107.5l-5.2 9 3.3 4.4v4.4l-3.8 7.6-2.4 10.4 10.6 31.3 6.1-31.4s-1.8-13.4-4.8-17.9c0 0 1.9-1.2.4-4.4l3.4-4.4c-.1-.1-4.9-7.1-7.6-9z" fill="#e69a17"/><path class="st3" d="M73.7 35c-.1.3.1.7.4.8 2.8 1.1 5 3.3 6 6.1.1.3.3.4.6.4h.2c.3-.1.5-.5.4-.8v-.1c-1.1-3.2-3.6-5.8-6.8-6.9-.4 0-.7.2-.8.5zM63.1 20.8c6.9 2.5 6.3 15.2 6.3 15.4 0 .3.3.6.6.7.3 0 .6-.3.6-.6 0-.6.7-13.7-7.1-16.6-.3-.1-.7 0-.8.4-.1.2.1.5.4.7zM69.8 22.1c5.1 2.5 5.5 10.8 5.5 10.9 0 .3.3.6.6.6s.6-.3.6-.6c0-.4-.4-9.1-6.2-12-.3-.2-.7-.1-.9.2-.2.3-.1.7.2.9h.2zM67.3 36c-.1-.3-2.2-7.5-15.5-5.3-.3.1-.6.4-.5.7.1.3.4.6.7.5 12.1-2 14 4.1 14.1 4.4.1.3.3.5.6.5h.2c.3-.1.5-.5.4-.8z"/><path class="st3" d="M33.4 52.4c.4 0 .7-.2.7-.5 0-.1 1.1-5.2 7.4-10.8 7.2-6.4 14.2-7.8 22.5-4.5.3.1.7 0 .8-.4.1-.3 0-.7-.4-.8-8.8-3.5-16.1-2.1-23.8 4.7-6.6 5.8-7.8 11.2-7.8 11.5 0 .4.2.7.6.8z"/><path class="st3" d="M38.2 45.9c-.3-.1-.7.1-.8.5 0 .1-1.5 6.7-4.5 11-.2.3-.1.7.2.9.1.1.2.1.3.1.2 0 .4-.1.5-.3 3.1-4.6 4.6-11.2 4.7-11.5.2-.3 0-.7-.4-.7zM42.2 25.4c.1-.1 12.5-7.4 23.1 3.9.1.1.3.2.5.2s.3-.1.4-.2c.2-.2.3-.6 0-.9-11.3-11.9-24.5-4.1-24.7-4.1-.3.2-.4.6-.2.9.2.3.6.4.9.2zM36.7 34c.1.1.2.1.3.1.2 0 .4-.1.5-.3 2.4-3.1 5.9-5.2 9.8-6 .3-.1.5-.4.5-.8-.1-.3-.4-.5-.7-.5-7.3 1.6-10.5 6.3-10.6 6.5-.2.4-.1.8.2 1zM35.9 40.7c.1.1.2.1.3.1.2 0 .4-.1.5-.3 3.9-6.3 7.7-7.8 7.8-7.8.3-.2.4-.5.3-.8-.1-.3-.4-.4-.7-.3-.2.1-4.3 1.5-8.5 8.3-.1.3 0 .6.3.8zM59.3 74c1.3 0 2.5-.6 3.4-1.6.9-1.2 1.4-2.8 1.2-4.3 0-.3-.3-.6-.7-.6-.3 0-.6.3-.6.7.1 1.2-.3 2.4-1 3.4-.6.7-1.5 1.1-2.4 1.1-1.3 0-2.4-.8-3-1.9-.2-.3-.6-.4-.9-.2-.3.2-.4.5-.2.8.8 1.6 2.4 2.6 4.2 2.6zM48.3 76.6c-.2.3-.1.7.2.9.4.3 3.8 2.5 5.2 2.8l.7.2c1.3.3 2.6.5 4 .6 3 0 5.9-1.3 7.9-3.6.2-.3.2-.7-.1-.9-.2-.2-.6-.2-.9 0-4 4.2-7.8 3.3-10.7 2.7L54 79c-1.7-.7-3.3-1.6-4.7-2.6-.4-.2-.8-.1-1 .2zM61.4 84c-1.7.8-3.7.8-5.4 0-.3-.2-.7 0-.8.3-.2.3 0 .7.3.8 1.1.5 2.2.7 3.4.8 1.1 0 2.2-.3 3.1-.8.3-.2.4-.5.3-.8-.3-.4-.6-.5-.9-.3zM67.5 75.3s2.2 1.5 1.5 5c0 .2.1.4.3.5h.1c.2 0 .4-.1.4-.3.8-4.1-1.7-5.8-1.8-5.9-.2-.1-.5-.1-.6.1s-.1.5.1.6z"/><path class="st3" d="M46.8 81.7c0 .2.1.4.4.5h.1c.2 0 .4-.2.4-.4.2-1.4.2-2.8 0-4.2-.2-1.3 2-3.2 2.9-3.8.2-.1.2-.4.1-.6-.1-.2-.4-.2-.6-.1-.4.3-3.5 2.6-3.2 4.7.1 1.3.1 2.6-.1 3.9zM50.3 59.4c.3-.2.3-.5.2-.7-.1-.1-.2-.2-.4-.3-1.2-.2-2.4-.2-3.6.1-.2 0-.4.2-.3.5 0 .2.2.3.3.3l1 .1c-.2.4-.3.8-.3 1.3-.2.9.4 1.9 1.3 2.1.9.2 1.9-.4 2.1-1.3.1-.2.1-.5 0-.7 0-.6-.1-1-.3-1.4zM42.5 51.1c-.5.5-.5 1.4 0 2 .1.1.2.2.4.3 2.4-1 9-.8 9-.8.5-.8.6-1.7.3-2.5-2.8-1.4-8.5-.4-9.7 1z"/><path class="st3" d="M53.1 55.5h-9.5c-.6 0-1.1.3-1.5.7s-.6 1-.5 1.6l.7 6.1c.1 1 1 1.8 2 1.8l8.1.1c1 0 1.9-.8 2.1-1.8l.8-6.2c.1-.6-.1-1.2-.5-1.6-.5-.4-1.1-.7-1.7-.7zm1.2 2.2l-.8 6.2c0 .7-.5 1.1-1.1 1.1l-8.1-.1c-.6 0-1.1-.5-1.2-1.1l-.7-6.1c-.1-.7.4-1.3 1.1-1.4h9.6c.4 0 .7.1.9.4.3.4.4.7.3 1zM70.2 62.8c1-.1 1.8-1.1 1.7-2.1 0-.4-.1-.9-.3-1.3l1-.1c.2 0 .4-.2.3-.5 0-.2-.2-.3-.3-.3-1.2-.3-2.4-.3-3.6-.1-.3 0-.5.3-.5.6 0 .2.1.3.3.4h.1c-.2.4-.4.8-.4 1.3-.1 1.1.7 2 1.7 2.1zM66.8 49.9c-.3.8-.2 1.8.3 2.5 0 0 6.7-.2 9.1.8.7-.3 1-1.2.6-1.8-.1-.1-.2-.3-.3-.4-1.1-1.3-6.8-2.3-9.7-1.1z"/><path class="st3" d="M64.6 64.1c.1 1 1 1.8 2.1 1.8l8.2-.1c1 0 1.9-.8 2-1.8l.7-6.1c.1-1.1-.7-2.2-1.9-2.3H66c-1.1 0-2 1-2 2.1v.2l.6 6.2zm.4-7.3c.2-.3.6-.4.9-.4h9.6c.3 0 .7.2.9.4.2.3.3.6.3 1l-.7 6c-.1.6-.6 1.1-1.2 1.1l-8.1.1c-.6 0-1.2-.5-1.2-1.1l-.7-6.2c-.1-.3 0-.6.2-.9z"/><path class="st3" d="M115.4 148.5c-.2-1.2-.2-3.2-.3-5.5-.4-10.4-1.2-19.9-5.1-21.9-5-2.5-34.4-14.6-35.7-15.1-1.8-4.3-3.1-7.4-3.3-7.7-.1-.3-.4-.4-.6-.5-.2-2.8 0-7 0-8.3.5-.4.9-.7.9-.8 4-3.2 5.5-10 6.5-17.3 1.9-1.6 3.1-3.9 3.4-6.4.4-2.9 0-4.4-.4-5.1 1.1-1.5 3-5.1 3.7-12.2.9-9.3-4.5-17.4-5.4-18.7-1.2-7.3-4.2-13.9-24.5-15.1-7.6-.6-15.2 2.1-20.7 7.4-6.2 5.8-8.7 13-8.7 15.6 0 4.6 4.3 24 4.5 24.9 0 .1.1.3.2.4-.5.6-1 1.2-1.4 1.8-2.8 4.7 5 11.4 7.1 13.1.6 1.8 1.4 3.9 2.2 5.9 0 2.8.1 9-.1 12.2h-.8c-1.1 1-6.5 5.8-7.5 8.5-4.1 2.1-36.8 20.6-41.2 24.6-.8.7-3.1 2.8-5.1 32.7-1 14.6-1.4 28.9-1.4 29.1 0 .5.3.8.8.9.5 0 .8-.4.8-.8.6-21.9 2.8-57.7 5.9-60.6 4-3.6 33.4-20.3 39.7-23.8.2 6.2.9 30.4 1.3 34.3 0 .3.2.6.5.7.2.1 2.9 1.1 6.2 2.2-.7 1.9-2.4 6.7-4.1 8.8-.1.2-.2.4-.2.6 0 .2.1.4.3.6.2.2 22.2 17.8 27.5 21.9-.8 2.9-1.7 5.8-2.6 8.4v.4l1.6 7.5c.1.4.4.7.8.7h.2c.5-.1.7-.5.7-1l-1.5-7c9.9-10.4 21.5-32.9 22-33.9.1-.2.1-.5 0-.7-.5-1.4-4-6.5-5.4-8.5 3.8-2.4 7.8-5 7.9-5 .3-.2.4-.5.4-.8-.8-5.3-5.7-17.8-9.3-26.7 6.3 2.6 29.7 12.3 34 14.4 3.4 1.7 3.9 13.4 4.2 20.4.1 2.3.2 4.4.3 5.6.7 5.2 3.4 42 3.4 42.3 0 .4.4.8.8.8h.1c.5 0 .8-.4.8-.9-.1-1.5-2.7-37.2-3.4-42.4zm-53.6 21c-3.7-9.1-7.1-18.3-10-26.8.2-.7.5-1.9.8-3.2.6-2.6 1.3-5.4 1.5-6.6.2-1.5 2.8-5.8 3.8-7.3v-.1c.2.1.4.2.7.2.3.1.6.1.8.1l-2.9 6.3c-.1.3 0 .7.3.8s.7 0 .8-.3l3.2-6.9c.5-.1 1-.2 1.5-.4.4 1 1.3 3.2 2.2 5.6 1.6 4 1.8 11.8 1.9 13.4-1.1 7.7-2.6 16.7-4.6 25.2zm-3.6-61.3c-2 3.7-4.2 7.3-6.6 10.7-4.2-1.1-9-5.8-9.1-5.9h-.1c-1.8-6.6-3.2-11.6-3.9-14.4 3.4 2.9 10.5 8.2 19.7 9.6zm11.3-8.3c.3 5.1.3 10.2-.1 15.3-.4.7-.9 1.4-1.5 1.9-2.3-3.3-4.8-6.4-7.6-9.3 3.4-2.4 6.5-5 9.2-7.9zm-10.7 24.6c-.3 0-.6-.2-.7-.5-.3-.8-.4-1.7-.2-2.6H63c.4.7.3 1.6-.1 2.3-1.3.7-2.7 1-4.1.8zm4.2-4.3h-5.4l-2.8-3.8c1.7-2.5 3.3-5.1 4.7-7.8 1.3 1.5 4.5 5.1 6.5 7.8l-3 3.8zm-11.2 0c.3 0 .5-.1.6-.3.1-.1.7-1 1.7-2.4l2.6 3.4c-.3 1.2-.2 2.6.4 3.7-.1 0-.2.1-.2.2-.4.6-3.6 5.8-3.9 7.8-.2 1.1-.9 4.1-1.5 6.5l-.3 1.2c-3.2-9.4-5.8-18.1-7.9-25.3 1.7 1.9 5.3 4.5 8.5 5.2zM67.2 138c-.2-2.5-.7-5.1-1.5-7.5-.9-2.4-1.8-4.7-2.3-5.7l.2-.1c.1 0 .1-.1.2-.2.8-1.1.9-2.5.3-3.7l2.6-3.3c.2.3.3.5.5.8.1.2.3.3.5.3s.6.1 1.6-1.1c-.3 4.8-.8 10.4-1.5 16.5-.2 1.2-.3 2.6-.6 4zM63 59.1l-.1-1.1c-.2-1.6.9-3.2 2.6-3.4h10c1.7 0 3 1.3 3 3v.4l-.7 6c0 .5-.2.9-.4 1.3-.4 0-.7.4-.8.8v.1c-.5.4-1.1.6-1.8.6l-8.1.1c-1.5 0-2.8-1.2-3-2.7l-.5-4c.2-.4.1-.8-.2-1.1zm16.9 5.7c-.2 1.7-.9 3.2-1.9 4.5.1-1 .2-2 .3-3.1 0-.2 0-.4-.2-.6.3-.5.5-1 .5-1.6l.3-3.2c.2.1.5.1.7-.1.5 1.5.5 2.8.3 4.1zM26.6 36.9c0-2.3 2.5-9 8.2-14.4 5.2-5 12.3-7.5 19.5-7 19.3 1.2 21.9 7 23 13.9 0 .1.1.3.2.4s6.1 8.4 5.2 17.7c-.7 7-2.6 10.3-3.5 11.5l.1-.9c.1-1-.2-2-.8-2.8.1-.1.2-.2.2-.4.1-1.3.1-3.3.1-5 .1.4.2.7.3 1.1.1.3.3.5.6.5h.1c.3-.1.6-.4.5-.7-1.3-6.5-7.6-13.9-7.9-14.1-.2-.3-.6-.3-.9-.1s-.3.6-.1.9c2.4 2.9 4.5 6 6.1 9.3 0 .8 0 5.2-.2 7.7-.6-.4-1.3-.6-2-.5h-9.5c-2.1 0-3.9 1.7-3.9 3.9v.5l.1.5c-1.6-.9-3.5-.9-5.2-.1v-.4c.3-2.1-1.3-4.1-3.4-4.3h-10c-1.1 0-2.2.5-2.9 1.3s-1.1 1.9-1 3l.1 1.1c-.2 0-.3 0-.5.1l-1.2.6c-.4-1.4-.8-2.8-1.4-4.2-.1-.3-.5-.5-.8-.3-.3.1-.5.5-.3.8.6 1.4 1 2.8 1.4 4.3l-.8.4c-.4.2-.6.7-.4 1.1.1.3.4.5.8.5.1 0 .3 0 .4-.1l.4-.2c.4 1.7.4 3.5-.2 5.2-.5-.2-1.4-.9-1.6-3.1v-.1-.1c0-.1-1.2-2.9-3.3-3.1-.4 0-.8 0-1.2.2-.4-2.7-4.3-20.4-4.3-24.6zM56 59.1c-.3.3-.3.7-.1 1.1l-.5 4c-.2 1.5-1.5 2.7-3 2.7l-8.2-.1c-1.5 0-2.8-1.2-3-2.7l-.6-6.1c-.1-.9.2-1.7.8-2.4.6-.6 1.4-1 2.3-1h9.5c1.7 0 3 1.3 3 3v.4l-.2 1.1zm-26.7 5.5c1-1.6 1.9-2.5 2.7-2.4 1.1.1 1.9 1.6 2.2 2.2.5 4.1 3.1 4.2 3.2 4.3.2 0 .4-.1.5-.3 1.1-1.7 1-4.4.5-6.9l1.5-.7.4 3.3c.2 2 1.9 3.5 3.9 3.5l8.2.1c2 0 3.6-1.5 3.8-3.4l.5-3.8c.2 0 .4-.1.5-.2 0 0 1.9-1.8 4.8.1.1.1.2.1.3.1l.5 3.8c.2 2 1.9 3.4 3.9 3.4l8.2-.1c.6 0 1.2-.1 1.7-.4-.6 6.6-1.8 16.5-6.3 20.2-.1.1-6.9 5.9-11.7 6.5s-12.7-3.4-15.8-5.6c-1.1-.8-2.3-3.1-3.5-5.8-1.3-3.2-2.5-6.5-3.5-9.9-.1-.4-.6-.7-1-.6s-.7.6-.6 1c.1.2.2.9.5 1.7-3.1-2.7-7.1-7.2-5.4-10.1zm12.4 25c3.5 2.6 10.7 6 15.8 6 .4 0 .8 0 1.2-.1 3.4-.4 7.4-2.9 9.9-4.8-.1 2-.1 5.3 0 7.5-2.9 3.1-6.1 5.9-9.6 8.3-9.5-1.3-17-7.2-20-9.9.2-1.8.2-6.8.2-10.2.6 1.3 1.5 2.3 2.5 3.2zm-7 62.5c1.6-2.7 3-5.6 3.9-8.7 2.8.9 5.6 1.6 8.4 2.1h.1c.5 0 .8-.4.8-.8s-.3-.8-.7-.8c-5.2-.8-13.4-3.8-15.4-4.6-.5-5.6-1.3-33-1.3-34.9.3-1.5 3.5-4.7 6-7 6.5 25.3 14.6 50.1 24.3 74.3.1.2.2.3.3.4l-.1.9c-5.5-4.3-22.8-18.1-26.3-20.9zm35.1-9.3c-.4.2-.5.8-.2 1.1.3.4.8.5 1.2.2.9-.6 2.5-1.6 4.1-2.7 1.9 2.7 4.4 6.5 5.1 7.9-1.4 2.7-10.7 20.2-19.2 30.4.5-1.5.9-3 1.3-4.6.1-.1.2-.1.3-.2.2-.3.2-.6 0-.9 6.2-23.5 9.3-56.7 9-70.6 3.4 8.1 10.1 24.3 11.3 31-2 1.5-10.1 6.6-12.9 8.4z"/><path class="st3" d="M-.4 144.3c-.2-.4-.7-.6-1.1-.4-.4.2-.6.7-.4 1.1 0 0 0 .1.1.1.1.1 7.2 12.5 8.3 19.1s2.7 24 2.7 24.1c0 .4.4.8.8.8h.1c.5 0 .8-.5.8-.9 0-.2-1.6-17.4-2.7-24.2s-8.3-19.2-8.6-19.7zM105.3 135.9c-.5-.1-.9.3-.9.7 0 .4-4.3 44.6-4.6 53.4 0 .5.4.8.8.9.5 0 .8-.4.8-.8.2-8.8 4.5-52.9 4.6-53.3.1-.5-.2-.9-.7-.9zM30.9 65.8c-.2.1-.2.4-.1.6.1.1.2.2.4.1.6-.3 1.6 1 1.9 1.7.1.1.2.2.4.2h.2c.2-.1.3-.4.2-.6-.2-.2-1.5-2.7-3-2zM62.3 50.4c-2.3.9-5.6 0-5.6 0-.2-.1-.5 0-.6.2s0 .5.2.6h.1c1.1.3 2.2.5 3.3.5 1 0 1.9-.1 2.8-.5.2-.1.3-.3.2-.5.1-.3-.2-.4-.4-.3z"/></g></g></g></svg>