<?xml version="1.0" encoding="utf-8"?>
<!-- Generator: Adobe Illustrator 25.0.1, SVG Export Plug-In . SVG Version: 6.00 Build 0)  -->
<svg version="1.1" id="レイヤー_1" xmlns="http://www.w3.org/2000/svg" xmlns:xlink="http://www.w3.org/1999/xlink" x="0px"
	 y="0px" viewBox="0 0 108 136.1" style="enable-background:new 0 0 108 136.1;" xml:space="preserve">
<style type="text/css">
	.st0{clip-path:url(#SVGID_2_);}
	.st1{fill:#983C25;}
	.st2{fill:#E69A17;}
	.st3{fill:#231F20;}
</style>
<g id="レイヤー_2_1_">
	<g id="line">
		<g>
			<g>
				<defs>
					<circle id="SVGID_1_" cx="51" cy="68.2" r="67.5"/>
				</defs>
				<clipPath id="SVGID_2_">
					<use xlink:href="#SVGID_1_"  style="overflow:visible;"/>
				</clipPath>
				<g class="st0">
					<path class="st1" d="M29.7,68.1c0,0-13-11.6-8-28.7s14.5-20.7,17.7-20.3c0,0,17.4-16.4,37.8,7.1c0,0,15.1,20.8,9,41.8
						c0,0-2.2,13.5-20.8,16c0,0,6.2-11.4,2-19.5S43.8,33,43.8,33s-9.3,11.6-11.5,19.8C30.9,57.7,30,62.9,29.7,68.1z"/>
					<path class="st2" d="M39.5,115.6c0,0,7.4,8.3,26.1,0c-0.9,4-2.3,7.8-4,11.5c-2.6,4.8-8.1,17.2-8.1,17.2S41.1,126.6,39.5,115.6z
						"/>
					<path class="st3" d="M44.7,78.7c2,1.4,4.3,2.2,6.7,2.2c2.3,0,4.5-0.8,6.3-2.2c0.3-0.2,0.4-0.7,0.1-1c-0.2-0.3-0.7-0.4-1-0.1
						c-5.6,4.3-10.9,0.2-11.2,0c-0.3-0.2-0.8-0.2-1,0.1C44.4,78,44.4,78.4,44.7,78.7z"/>
					<path class="st3" d="M50.9,73c1.4,0,2.7-0.6,3.6-1.7c0.2-0.2,0.2-0.4,0-0.6c-0.2-0.1-0.3-0.1-0.5-0.1c-0.9,0.3-1.9,0.4-2.8,0.4
						c-1-0.1-1.9-0.3-2.8-0.7c-0.3-0.1-0.6,0-0.7,0.3c-0.1,0.2,0,0.4,0.1,0.5C48.5,72.2,49.6,72.9,50.9,73z"/>
					<path class="st3" d="M58.5,63.3c1.3-0.1,2.2-1.2,2.1-2.5c0-0.5-0.1-1.1-0.4-1.5c0.8,0.1,1.5,0,2.3-0.2
						c-0.7-0.4-1.4-0.7-2.1-0.9c-1.4-0.4-3-0.5-3.8,0.2c-0.2,0.2-0.2,0.5-0.1,0.7c0.1,0.1,0.2,0.2,0.3,0.2c-0.3,0.4-0.4,1-0.4,1.5
						C56.3,62,57.3,63.2,58.5,63.3z"/>
					<path class="st3" d="M42.5,53.2c0,0,0.9,0.2,1.1-0.4c0.2-0.6-0.2-1.3-0.8-1.5c-0.1,0-0.1,0-0.2,0c-2.8-0.5-5.7,0-8.1,1.5
						c-1.6,1-1,1.9-1,1.9C38,52,41.6,52.8,42.5,53.2z"/>
					<path class="st3" d="M43.7,60.8c0-0.5-0.1-1-0.4-1.5c0.3,0,0.4-0.3,0.4-0.5c0-0.1-0.1-0.2-0.2-0.3c-0.8-0.7-2.4-0.6-3.8-0.2
						c-0.8,0.2-1.5,0.5-2.1,0.9c0.8,0.2,1.5,0.2,2.3,0.2c-0.3,0.5-0.4,1-0.4,1.5c-0.2,1.2,0.6,2.3,1.8,2.5s2.3-0.6,2.5-1.8
						C43.7,61.2,43.7,61,43.7,60.8z"/>
					<path class="st3" d="M81,58c0,0.4,0.3,0.6,0.7,0.6h0.1c0.4,0,0.7-0.4,0.6-0.8l0,0c-1.3-12.1-13.2-23.9-13.8-24.4
						c-0.3-0.3-0.7-0.3-1,0l0,0c-0.3,0.3-0.3,0.7,0,1C67.8,34.6,79.8,46.4,81,58z"/>
					<path class="st3" d="M18.9,153c0.8-6.2,1-12.5,0.7-18.8c0-0.3,0-0.6,0-0.8c0-0.5-0.4-0.9-0.9-0.9c0,0,0,0-0.1,0
						c-0.5,0-0.9,0.5-0.9,1c0,0.2,0,0.5,0,0.8c0.3,6.2,0.1,12.3-0.7,18.5c-0.4,3.2,0.5,6.3,2.5,9.9l1.6,43.5c0,0.5,0.5,0.9,1,0.9
						l0,0c0.2,0,0.4-0.1,0.5-0.2c0.1,0.1,0.2,0.1,0.3,0.1c0.1,0,0.2,0,0.3,0c0.4,0,0.8-0.3,0.9-0.7c0.2-0.7,5.7-17.8,5.7-24.4
						c-0.1-5.1-1.8-10.1-4.8-14.2C20.7,161.6,18.4,157.3,18.9,153z M22.9,203.9l-1.4-37.7c0.6,0.9,1.2,1.8,1.8,2.8
						c2.8,3.8,4.4,8.4,4.5,13.2C27.9,187.2,24.5,199.1,22.9,203.9L22.9,203.9z"/>
					<path class="st3" d="M102.4,120.9c-5.7-4.7-29-16.6-30-17.1c-0.1,0-0.1-0.1-0.2-0.1c-2-2.8-4.8-4.8-8.1-5.7H64
						c-0.3-4.4-0.4-9.2-0.4-10.7c1-0.9,2-1.8,2.8-2.9c2.5-0.4,16.7-3,20.5-14.8c3.8-12,2-31-8.8-44.1C72,18.1,62.6,13,54.1,12.6
						c-5.6-0.4-11,1.6-15,5.5c-1.7,0.1-7.9,1-13.6,10.6c-7.8,13-6.3,23.2-3.8,29.5c0.8,2,1.9,3.9,3.2,5.7c0,0.1-0.1,0.1-0.1,0.2
						c-0.7,3.7-0.1,6.8,1.6,9.2c1.4,1.8,3.3,3.1,5.5,3.6c1.8,4.5,4.6,8.6,8.2,12c0.1,1.4,0.4,5.8,0.4,9.9h-0.1
						c-3.1,0.6-5.8,2.3-7.6,4.8c-0.1,0-0.2,0-0.2,0.1c-1,0.5-24.3,12.4-30,17.1s-4,19.3-2.9,25.4c0.4,2.4,2.4,39.4,3.5,58.6
						c0.1,0.5,0.5,0.9,1,0.9l0,0c0.5,0,0.9-0.5,0.9-1c-0.1-2.3-3-55.6-3.5-58.8c-1.5-9.2-1.8-20.3,2.3-23.6
						c4.5-3.7,20.8-12.3,27.1-15.6c-0.3,0.6-0.5,1.2-0.8,1.9c-1.8,5-3.4,10.1-4.7,15.3c-0.1,0.3,0.1,0.7,0.4,0.8l5.4,2.1
						c-0.9,2.6-2.5,8.4-1,10s18.3,11.4,20.2,12.5c0.1,0.1,0.2,0.1,0.3,0.1l-0.4,1.1l0,0c-0.2,0.1-0.3,0.3-0.4,0.4
						c-0.5,1.2-5,12.2-5.1,15.4s8.2,40.9,8.8,41.9c0.3,0.4,0.9,0.6,1.3,0.3l0,0c0.4-0.3,0.6-0.8,0.3-1.2c-0.8-2-8.7-38.1-8.6-40.9
						c0.1-2.3,3.4-11,4.9-14.4c3.2-2,21.9-13.5,23.4-15.1s0.1-7.3-0.9-10.2l5.2-2c0.3-0.1,0.5-0.5,0.4-0.8c0-0.1-1.6-6.7-4.7-15.3
						c-0.2-0.7-0.5-1.3-0.8-1.9c6.3,3.3,22.6,11.9,27.1,15.6c4,3.3,3.8,14.3,2.3,23.6c-0.5,3.1-3.4,56.5-3.5,58.8
						c0,0.5,0.4,0.9,0.9,1l0,0c0.5,0,0.9-0.4,1-0.9c1-19.2,3-56.1,3.5-58.6C106.3,140.2,108.1,125.6,102.4,120.9z M27.1,29.7
						C33,19.7,39.4,20,39.4,20c0.3,0,0.5-0.1,0.7-0.3c3.6-3.7,8.7-5.6,13.9-5.2c7.9,0.4,16.8,5.2,22.6,12.2
						c10.3,12.6,12,30.9,8.4,42.4c-1.3,3.8-3.9,7-7.3,9.1c4.8-14.2-8.3-33.1-8.9-33.9c-0.2-0.3-0.7-0.4-1-0.2s-0.4,0.7-0.2,1l0,0
						c0.2,0.2,14.4,20.7,8.1,34.3c-2.5,1.3-5.3,2.3-8.1,2.9c5.6-11.9-0.2-24.1-7.9-31.8c-5.4-5.7-10.5-11.8-15.2-18.1
						C44.3,32.2,44,32,43.7,32l0,0c-0.3,0-0.6,0.1-0.8,0.4c-0.6,0.8-14.3,18.1-14.4,32.9c-0.1,0.1-0.1,0.2-0.1,0.3
						c-2.2-2.4-3.9-5.1-5.1-8.1C19.9,49,21.2,39.7,27.1,29.7z M27.4,72.5c-1.4-2.1-1.9-4.6-1.5-7c0.9,1.2,1.9,2.2,3.1,3.2
						c0.5,2.2,1.2,4.4,2,6.5C29.6,74.7,28.3,73.7,27.4,72.5z M30.5,66.7c-0.8-12.4,10.2-28.1,13.2-32.2c4.4,5.8,9.1,11.4,14.1,16.7
						h-0.2c-0.7,0.1-1.1,0.7-1,1.3c0,0.1,0,0.1,0,0.2c0.2,0.7,1.1,0.4,1.1,0.4c0.6-0.2,1.2-0.3,1.8-0.4c6.9,7.4,11.8,18.7,6,29.6
						c-0.9,1.4-2,2.6-3.3,3.7c-0.1,0-0.1,0.1-0.2,0.1c-3.1,2.4-6.5,4.3-10.1,5.7c-0.6,0.3-1.3,0.3-2,0.2
						C36,88.7,31.5,71.4,30.5,66.7z M49.3,94c0.4,0.1,0.8,0.2,1.2,0.2c0.7,0,1.4-0.1,2-0.4c3.2-1.3,6.3-2.9,9.2-4.9
						c0.1,4.1,0.5,13.7,1.3,16.8c0.1,0.4,0.5,0.7,0.9,0.7h0.2c0.5-0.2,0.8-0.7,0.7-1.2c-0.2-0.8-0.3-1.6-0.4-2.4l1.9,1.1
						c-0.2,3.8-0.6,7.6-1.4,11.3c-15.4,8.2-24.6,0.3-25-0.1c0,0-0.1,0-0.1-0.1c-0.7-3.7-1.2-7.4-1.4-11.1l1.9-1.1c0,1-0.1,2-0.4,3
						c-0.1,0.5,0.2,1,0.7,1.2c0.1,0,0.2,0,0.2,0c0.4,0,0.8-0.3,0.9-0.7c0.8-3,0.4-11.6,0.2-15.7C44.2,92.2,46.7,93.3,49.3,94z
						 M53.3,142.6c-1.6-2.7-5.4-9.3-9.4-15.9c-1.7-3-2.9-6.2-3.6-9.6c3.4,2.1,7.4,3.2,11.4,3.2c4.5-0.1,8.9-1.2,12.9-3.3
						c-0.7,3.4-2,6.7-3.7,9.7C58,131.8,55.5,137.1,53.3,142.6L53.3,142.6z M51,148.2c-7.4-4.3-18.8-11.1-19.9-12.2
						c-0.7-0.7,0.1-4.8,1.3-8.4l8.2,3.2c0.1,0,0.2,0,0.3,0c0.4,0,0.7-0.3,0.7-0.7c0-0.3-0.2-0.6-0.5-0.7l-14.4-5.6
						c0.5-1.8,2-7.5,4.5-14.5c0.5-1.2,1-2.4,1.8-3.5l0.2-0.1c0.3-0.2,0.6-0.5,0.5-0.9c1.6-2.2,3.9-3.7,6.6-4.2v0.7l-3,1.8
						c-0.2,0.1-0.4,0.4-0.4,0.6c0,0.6,0.4,15.2,5.7,24c4.6,7.7,9,15.3,10,16.9c-0.6,1.5-1.1,2.8-1.5,3.9L51,148.2z M73.5,109.3
						c2.5,7,4,12.7,4.5,14.5l-4.9,1.9c-0.2-0.1-0.4-0.1-0.6,0s-0.4,0.3-0.5,0.5l-8.3,3.2c-0.4,0.1-0.6,0.5-0.4,0.9
						c0.1,0.3,0.4,0.5,0.7,0.5c0.1,0,0.2,0,0.3,0l8-3.1c1.2,3.8,1.9,7.6,1.3,8.2c-1,1-12.6,8.3-21.3,13.7c1.8-4.7,6-15.5,9.9-22
						c5.2-8.7,5.6-23.3,5.7-24c0-0.3-0.1-0.5-0.3-0.6l-3.2-1.8l0,0c0-0.4-0.1-0.9-0.1-1.4c2.7,0.9,5.1,2.7,6.9,5
						c0,0.4,0.2,0.8,0.5,0.9l0.2,0.1C72.5,106.9,73.1,108,73.5,109.3z"/>
					<path class="st3" d="M87,150.7c-0.7-5.5-0.7-11,0-16.4c0.1-0.5,0.1-0.6,0.1-0.8c0-0.6-0.4-1-1-1c-0.5,0-1,0.4-1,0.9
						c0,0.1,0,0.3-0.1,0.6c-0.8,5.6-0.8,11.4,0,17c0.9,6.1-1,12.2-5.2,16.7c-3.9,4.1-6.2,9.5-6.2,14.4c0,6.7,5.7,23.7,5.9,24.4
						c0.1,0.4,0.5,0.7,0.9,0.6c0.1,0,0.2,0,0.3,0c0.5-0.2,0.7-0.7,0.6-1.2c-0.1-0.2-5.8-17.5-5.8-23.8c0-4.4,2.2-9.3,5.7-13.1
						c0.9-1,1.7-2,2.4-3.1l3,40.4c0.1,0.5,0.5,0.9,1,0.9h0.1c0.5-0.1,0.9-0.5,0.9-1l-3.2-43.4C87.1,159,87.7,154.8,87,150.7z"/>
					<path class="st3" d="M49.7,165.1c-1.3,0-2.4,1.1-2.4,2.4s1.1,2.4,2.4,2.4s2.4-1.1,2.4-2.4l0,0C52.1,166.2,51,165.1,49.7,165.1z
						 M49.7,168.9c-0.8,0-1.5-0.6-1.5-1.4c0-0.8,0.6-1.5,1.4-1.5c0.8,0,1.5,0.6,1.5,1.4l0,0C51.1,168.3,50.5,168.9,49.7,168.9z"/>
					<path class="st3" d="M55.8,156c0-1.3-1.1-2.4-2.4-2.4S51,154.7,51,156c0,1.3,1.1,2.4,2.4,2.4l0,0
						C54.8,158.4,55.8,157.3,55.8,156z M52,156c0-0.8,0.6-1.5,1.4-1.5s1.5,0.6,1.5,1.4s-0.6,1.5-1.4,1.5l0,0
						C52.6,157.4,52,156.8,52,156z"/>
				</g>
			</g>
		</g>
	</g>
</g>
</svg>
