<?xml version="1.0" encoding="utf-8"?>
<!-- Generator: Adobe Illustrator 25.0.1, SVG Export Plug-In . SVG Version: 6.00 Build 0)  -->
<svg version="1.1" id="レイヤー_1" xmlns="http://www.w3.org/2000/svg" xmlns:xlink="http://www.w3.org/1999/xlink" x="0px"
	 y="0px" viewBox="0 0 108 196.3" style="enable-background:new 0 0 108 196.3;" xml:space="preserve">
<style type="text/css">
	.st0{clip-path:url(#SVGID_2_);}
	.st1{fill:#32B0FF;}
	.st2{fill:#464948;}
	.st3{fill:#FFFC19;}
</style>
<g id="レイヤー_2_1_">
	<g id="characters">
		<g>
			<g>
				<defs>
					<circle id="SVGID_1_" cx="55.6" cy="66.2" r="67.5"/>
				</defs>
				<clipPath id="SVGID_2_">
					<use xlink:href="#SVGID_1_"  style="overflow:visible;"/>
				</clipPath>
				<g class="st0">
					<path class="st1" d="M38.5,96.4c0,0-8.2,8.8-8.9,11c0,0-26.8,13.4-29.1,15.1s-4.3,1.3-8.5,13.4c-4.2,12.1-15.6,53.5-15.6,53.5
						s-0.4,6.6-3.1,9.9s-4.8,9.7-5,10.5s-7.6,3.1-11.8,5.7s-17.7,11.3-17.7,11.3l1,0.8c0,0,9.2,5.3,10.7,11.5
						c0.7,2.6,1.3,5.2,1.6,7.8l-8.1,4.4c0,0,3.3,6,6.5,4.3c0,0,27.8-19.6,30.4-23s25.9-38.3,25.9-38.3s-1.1,30.1-1.5,34.1
						S3.5,246,3.5,246s-2.9,4.2-2.2,4.5c0.4,0.2,0.9,0.3,1.4,0.2l-4.2,33c0,0,13.5,9.8,38.5,8.3c0,0,7.6,0.3,10.1-2
						s7.9-13.8,7.9-13.8s6,13.4,8.1,14.2c2.1,0.8,25.9,3.2,36.8-1c10.9-4.2,10.5-4.1,11.2-7.2s-4-31.8-4-31.8l1-0.8l-1.8-3.6
						c0,0-2.8-33-2.8-38s0.8-18.4,0.8-18.4l10.9,23.9c0,0,1.6,5,4,7.4c2.4,2.4,18.1,20.4,18.1,20.4l8.8,12.3c0,0,0.3,3.5,2.2,2.9
						s3.2-2.9,3.2-2.9l-6.7-5c0,0-3.7-10.6,4.7-15.5c0,0,4.2-2.5,8,0.6c0.5-0.8,0.5-1.8,0-2.6c-0.9-1.5-9.4-13.8-10.3-15.7
						s-7.9-11.3-8.6-13.1s-9.1-27.4-9.1-27.4l-13-40.7c-1.1-6.1-5.3-11.1-11-13.4c-10-4.1-27.5-14.3-27.5-14.3l-7.1-11
						c0,0,3.6,3.7,1.8,16.5L65,142.5l-8.3,28.8l-13-37.8c0,0-6.3-21.4-7-25.2C36,104.5,37.6,98.4,38.5,96.4z"/>
					<path class="st2" d="M30.9,65.7l2.8,1.1l0.7-15.9l5.9-7.7c0,0,6.2-6.1,10.8-6.3s9,4.8,9.2,5s8,7.9,11.5,9.2s5.3,6.1,5.3,6.1
						L77,66.8l3-1.5c0,0,3.7-12.2,2.7-19S78.1,28.8,72,24.6s-15.4-6.4-22-3.5s-8.4,6.5-8.4,6.5c-4.2,1.2-7.9,3.9-10.2,7.6
						c-3.9,6.3-4.6,12.2-3.8,16.6S30.9,65.7,30.9,65.7z"/>
					<path class="st3" d="M47.8,120l4.7,5.2c-1.4,4.7-2.5,9.4-3.3,14.2c-1.1,7.1-0.7,8.3-0.7,8.3s8.3,25.4,8.4,24.9
						s6.8-26.8,6.8-26.8s-2.4-16.7-3.2-18.7s-1.2-1.6-1.2-1.6l3.2-4.3c0,0-3.8-7.9-5.6-8.2c-1.4-0.2-2.9-0.2-4.4,0L47.8,120z"/>
					<path d="M69.5,73.1c-2.3,0-5.6,0.6-7.4-1.1c-1.3-1.3-1.4-3.2-1.4-4.9c0-2.7,1.3-4.7,4.1-4.9c2.1-0.2,5.7-0.5,7.4,0.8
						c1.7,1.3,1.8,3.3,1.5,5.4C73.4,70.9,72.4,72.9,69.5,73.1c-0.4,0.1-0.7,0.5-0.6,1c0.1,0.3,0.4,0.6,0.7,0.6
						c4.7-0.4,6.8-5.4,5.9-9.6c-1.1-5-6.7-4.8-10.7-4.5c-5.2,0.4-6.4,5.3-5.4,9.7c1.2,5,6.2,4.5,10.2,4.5
						C70.6,74.7,70.5,73.1,69.5,73.1z"/>
					<path d="M64.9,68.8c0.9-2,3.2-1.6,4.3,0.1c0.5,0.9,1.9,0,1.3-0.9c-1.7-2.8-5.6-3-7.1,0.1C63,69,64.4,69.7,64.9,68.8z"/>
					<path d="M63.1,58.1c2.7-1.4,5.9-1.4,8.5,0c0.6,0.3,1.3,0,1.6-0.6c0.2-0.5,0.1-1.2-0.4-1.5c-3.4-1.9-7.5-1.9-10.9,0
						C60.6,56.7,61.8,58.8,63.1,58.1L63.1,58.1z"/>
					<path d="M41.5,74.7c4,0,9,0.5,10.1-4.5c1-4.4-0.2-9.4-5.4-9.7c-3.8-0.2-9-0.5-10.5,3.9c-1.4,4.2,0.9,9.9,5.6,10.3
						c1,0.1,1.4-1.5,0.3-1.6c-2.8-0.2-4-2.1-4.4-4.7c-0.3-2-0.5-4.1,1.4-5.5c1.8-1.3,5.4-1,7.5-0.8c4.1,0.4,5.3,5.7,3.4,8.9
						c-1.6,2.7-5.5,2-8.2,2C40.3,73.1,40.4,74.7,41.5,74.7z"/>
					<path d="M47.6,68.1c-0.6-1.3-1.8-2.3-3.2-2.4c-1.7,0-3.2,0.9-4,2.3c-0.5,0.9,0.9,1.6,1.5,0.7c0.5-0.8,1.4-1.4,2.4-1.4
						c0.8,0.1,1.5,0.7,1.8,1.4C46.5,69.6,48,69.1,47.6,68.1L47.6,68.1z"/>
					<path d="M49.1,56c-3.4-1.9-7.5-1.9-10.9,0c-1.3,0.7-0.1,2.8,1.2,2.1c2.7-1.4,5.9-1.4,8.5,0c0.6,0.2,1.3-0.1,1.5-0.8
						C49.7,56.8,49.5,56.3,49.1,56z"/>
					<path d="M33.7,71.4c1.3,12,7.9,27.6,21.8,28.3c1,0.1,0.9-1.6-0.1-1.6c-12.9-0.7-18.9-15.7-20.1-26.8
						C35.3,70.3,33.6,70.3,33.7,71.4z"/>
					<path d="M33.3,65.8c-4-2-6.2,1.9-5.7,5.5c0.6,4.2,3.6,10.4,8.6,10.4c1,0,0.9-1.6-0.1-1.6c-3.5,0-5.6-4.4-6.5-7.2
						c-0.6-2.2-0.8-7.4,2.9-5.6c0.4,0.2,0.9,0,1.1-0.4C33.9,66.5,33.7,66,33.3,65.8L33.3,65.8L33.3,65.8z"/>
					<path d="M75.6,71.2c-1.2,11.2-7.1,26.2-20.2,26.9c-0.4,0-0.8,0.4-0.8,0.9c0,0.4,0.4,0.8,0.9,0.8c13.8-0.7,20.4-16.3,21.6-28.2
						C77.2,70.5,75.6,70.1,75.6,71.2L75.6,71.2z"/>
					<path d="M76,56c0.9,3.6,0.5,7.7,0,11.2c-0.1,1,1.4,1.4,1.6,0.3c0.5-3.9,1-8.2,0-12.1C77.3,54.5,75.8,55,76,56L76,56z"/>
					<path d="M77.4,67.3c0.8-0.4,1.7-0.5,2.6-0.4c2.4,0.6,1.9,3.6,1.4,5.4c-0.8,3-3,7.8-6.7,7.8c-1,0-0.9,1.6,0.1,1.6
						c5,0.1,8.1-6.6,8.5-10.8c0.5-4.1-2.5-6.8-6.4-5.1C75.9,66.2,76.5,67.7,77.4,67.3z"/>
					<path d="M34.9,67.4c-0.2-3.6-0.1-7.1,0-10.7c0.1-1.4,0.1-2.8,0.2-4.2c0-0.5,0.4-2.1,0-1.2c1.1-2.2,3.5-4.4,4.9-6.5
						c2.2-3.3,5.3-5.1,8.9-6.5c1.3-0.7,2.8-1,4.3-0.8c3.8,0.5,5.7,3.7,8,6.4c2.1,2.5,4.7,4.7,7.5,6.3c2.7,1.5,6.2,2.6,7.4,5.8
						c0.2,0.4,0.6,0.6,1.1,0.4c0.4-0.2,0.6-0.6,0.5-1c-0.8-2-2.3-3.7-4.2-4.8c-2.6-1.6-5.2-2.5-7.6-4.5c-1.7-1.5-3.2-3.1-4.6-4.8
						c-3-3.6-6.6-6.8-11.6-5.1c-3.2,1-6.2,2.6-8.7,4.8c-1.1,1.1-2,2.3-2.7,3.6c-1.2,1.8-3,3.4-4,5.3c-0.7,1.3-0.6,2.5-0.7,4
						c-0.3,4.5-0.3,8.9-0.1,13.4c0.1,0.4,0.5,0.7,0.9,0.7C34.6,68.1,34.9,67.8,34.9,67.4L34.9,67.4z"/>
					<path d="M32,65.8C29,58,27,48.1,29.7,40c1.4-4.1,4.3-7.6,8.1-9.8c1.3-0.7,3-1.1,4.1-2c1.1-0.9,1.8-2.4,3.1-3.4
						c3.6-2.6,8-4,12.5-4c10.9-0.3,18.5,7.1,22.1,16.9c3.4,9,2.3,19.2-0.8,28.2c-0.3,1,1.2,1.3,1.6,0.3c3.1-8.8,4.2-18.9,1.2-27.8
						c-2.8-8.7-9.2-17.2-18.7-18.9c-7.4-1.3-16.9,0.4-21.7,6.8c-0.3,0.4-1.3,1.4-0.4,0.8c-0.7,0.4-1.7,0.6-2.5,1
						c-3.4,1.6-6.2,4.1-8.3,7.1c-5.7,8.8-3.2,21.8,0.3,31C30.8,67.3,32.4,66.7,32,65.8L32,65.8z"/>
					<path d="M38.8,88.6v12.2c0,1,1.6,0.9,1.6-0.1V88.5C40.4,87.5,38.8,87.6,38.8,88.6z"/>
					<path d="M69.3,89.7v11.1c0,1,1.6,0.9,1.6-0.1v-11C70.9,88.7,69.3,88.7,69.3,89.7L69.3,89.7z"/>
					<path d="M38.8,99.7c0.8,8.4,9.1,13.1,16.5,14.5c0.4,0.1,0.9-0.2,1-0.6c0.1-0.4-0.2-0.9-0.6-1l0,0c-3.4-0.7-5.2,2.3-6.8,4.8
						c-0.9,1.4-4.9,7.3-4.6,7.4c-1.6-0.4-3.6-5.3-4.2-6.6c-0.5-0.9-1.8,0-1.3,0.9c1.3,2.6,2.9,5.1,4.8,7.3c0.3,0.3,0.8,0.3,1.2-0.1
						c2.1-2.8,6.9-12.9,10.7-12.2c0.1-0.5,0.2-1.1,0.3-1.6c-6.7-1.2-14.5-5.4-15.3-13C40.3,98.6,38.7,98.7,38.8,99.7L38.8,99.7z"/>
					<path d="M69.3,99.5c-1.9,6.5-7.9,11.2-14.1,13.2c-0.4,0.2-0.6,0.6-0.5,1.1c0.1,0.2,0.3,0.4,0.6,0.5c5.2,0.9,6.6,8.5,8.7,12.6
						c0.2,0.4,0.7,0.5,1.1,0.2l0,0c2.6-1.9,4.7-4.3,6.5-7c0.5-0.9-0.9-1.6-1.4-0.7c-1.6,2.5-3.6,4.6-5.9,6.3l1.1,0.2
						c-2.4-4.5-3.7-12.2-9.7-13.3l0.1,1.6c6.8-2.1,13.1-7.3,15.1-14.4C71.2,98.8,69.6,98.5,69.3,99.5L69.3,99.5z"/>
					<path d="M47.3,120.6l4.6,5.7c0.3,0.4,0.8,0.5,1.1,0.2c1.8-1.4,4.2-1.1,6.1,0c0.4,0.2,0.9,0,1.1-0.4l2.6-5.1
						c0.2-0.4,0-0.9-0.4-1.1s-0.9,0-1.1,0.4l0,0c-0.9,1.7-1.7,3.4-2.6,5.1l1.1-0.3c-2.4-1.4-5.4-1.8-7.7,0l1.1,0.2l-4.6-5.6
						C48,118.9,46.6,119.8,47.3,120.6L47.3,120.6z"/>
					<path d="M52,125.3c-2.2,2.5-2.5,7.6-3,10.7c-0.6,4.4-0.8,8.8-0.7,13.2c0,1,1.6,0.9,1.6-0.1c-0.1-3.8,0.1-7.7,0.5-11.5
						c0.3-3,0.7-8.9,2.8-11.3C53.9,125.6,52.7,124.5,52,125.3L52,125.3z"/>
					<path d="M58.8,126.3c1,1.2,1.2,3.4,1.6,4.9c0.7,2.8,1.2,5.7,1.5,8.5c0.4,3.2,0.6,6.3,0.5,9.5c0,1,1.6,0.9,1.6-0.1
						c0.1-4.1-0.2-8.3-0.9-12.3c-0.5-3.2-0.7-8.8-2.9-11.4C59.5,124.6,58.1,125.5,58.8,126.3L58.8,126.3z"/>
					<path d="M3.4,170.6c4.1,24.7,2.5,51.1-0.8,75.9c-0.1,1,1.4,1.4,1.6,0.3c1.5-11.5,2.4-23.1,2.7-34.8c0.4-13.8,0.4-27.9-1.9-41.6
						C4.8,169.5,3.2,169.5,3.4,170.6L3.4,170.6z"/>
					<path d="M2.1,250.1c-1,7.4-2,14.9-3.1,22.3c-0.4,2.6-0.8,5.2-1.1,7.9c-0.3,0.9-0.4,1.9-0.4,2.9c0.7,2.9,6.2,5,8.5,5.9
						c4.6,1.6,9.5,2.7,14.4,3c7.9,0.8,17.1,1.4,24.9-0.5c2.3-0.5,3-2,4.2-4.1c2.4-4.1,5.1-8.5,6.6-13c0.9-2.5,0.9-5.4,1.1-8
						c0.5-5.2,0.8-10.5,1.2-15.7c0.8-12.5,1.5-25,2-37.5c0.4-11.9,1.2-24.6-1.7-36.2c-1.9-7.8-4.7-15.5-7.2-23.1
						c-3.6-11.1-7.3-22.1-10.8-33.2c-2.6-8.3-6.5-17.5-0.6-25.5c0.6-0.8-0.6-1.9-1.2-1.1c-4.1,5.5-4.1,11.9-2.4,18.2
						c2.3,8.2,5,16.3,7.7,24.4c3.1,9.5,6.3,19,9.4,28.6c2.2,6.9,4.3,13.5,4.9,20.8c1.2,13.1,0.4,26.4-0.3,39.6
						c-0.6,12-1.2,24-2.1,36c-0.1,3.6-0.5,7.3-1.1,10.9c-0.8,3.6-3,7.1-4.7,10.3c-1.4,2.6-2.6,6.6-5.7,7.2
						c-3.4,0.5-6.9,0.8-10.3,0.8c-10.3,0.3-23.2,0.2-32.1-5.6c-1.1-0.6-2.1-1.3-3-2.1c-0.1-0.3,0.2-1.1,0.2-1.5
						c0.2-2.5,0.6-5,1.1-7.4c1.1-7.9,2.2-15.9,3.3-23.9C3.9,249.5,2.3,249.1,2.1,250.1L2.1,250.1z"/>
					<path d="M104.6,170.4c-2.2,13.4-2.3,27.1-2,40.6c0.3,12,1.2,23.9,2.8,35.7c0.1,1,1.8,0.9,1.6-0.1c-1.5-11.5-2.4-23-2.7-34.6
						c-0.4-13.8-0.4-27.7,1.9-41.3C106.4,169.7,104.8,169.3,104.6,170.4L104.6,170.4z"/>
					<path d="M105.9,250.3c0.8,6.3,1.7,12.6,2.6,18.9c0.4,2.8,0.8,5.5,1.2,8.3c0.2,1.4,0.8,3.2,0.7,4.5s-0.3,1.4-1.8,2.6
						c-1.5,1.1-3.1,2-4.8,2.6c-4.3,1.6-8.8,2.7-13.4,3.1c-7.8,0.9-15.7,0.9-23.6,0c-2.7-0.4-3.4-0.5-4.9-2.9
						c-2.4-3.8-4.4-7.9-6.2-12c-0.4-0.9-1.9-0.4-1.5,0.5c1.5,3.3,3.2,6.6,4.9,9.8c1,1.7,2,4.5,3.9,5.5c1.3,0.7,3.4,0.7,4.9,0.9
						c3.1,0.3,6.2,0.5,9.3,0.5c7.7,0.1,15.6-0.4,23-2.4c3.4-0.9,11.9-3.4,12-7.9c0.1-3.9-1.2-8.2-1.7-12c-1-6.7-1.9-13.4-2.8-20.1
						C107.3,249.3,105.7,249.3,105.9,250.3L105.9,250.3z"/>
					<path d="M69.4,95.1c6.9,9.3,0.7,23.3-1.8,33.2c-3.8,14.8-7.9,29.5-11.6,44.3c-0.2,1,1.3,1.4,1.6,0.3c4-15.7,8.3-31.4,12.4-47.1
						c2.6-9.9,7.7-22.3,0.9-31.6C70.2,93.4,68.8,94.2,69.4,95.1z"/>
					<path d="M37.8,96c-2.4,3.3-4.9,6.5-7.3,9.8c-2.3,3.1-2.1,7.2-2.3,11c-0.4,5.4-1.5,10.8-1.6,16.1c-0.1,4.2,5.6,4.8,8.7,6.5
						c0.9,0.5,1.7-1,0.7-1.4c-2-1-6-1.8-7.4-3.5c-1-1.1-0.3-3.4-0.2-4.8c0.5-4.6,1.1-9.2,1.4-13.8s0.5-7.2,3.2-10.7
						c2-2.7,4-5.4,6-8.1C39.7,96.3,38.5,95.2,37.8,96L37.8,96z"/>
					<path d="M70.9,97c1.8,2.9,3.6,5.9,5.7,8.6c2.5,3.3,3.2,6.5,3.5,10.8c0.3,4.7,1,9.3,1.5,14c0.2,1.5,0.6,3-0.3,4.1
						c-1.3,1.6-5.5,2.5-7.4,3.5c-0.9,0.5,0,1.8,0.9,1.4c2.7-1.4,8.5-2.3,8.7-6c0.3-5.1-1.2-10.6-1.6-15.7c-0.3-4-0.4-8-2.8-11.5
						c-2.4-3.5-4.6-6.6-6.8-10C71.7,95.2,70.3,96.1,70.9,97L70.9,97z"/>
					<path d="M31.1,136.3c-1.1,2.4-2.3,4.7-3.5,7c-1,1.9-1,2.1,0,4c2.9,6,6.4,11.7,10.4,17c4.1,5.5,8.2,11,12.3,16.5
						c3,4.1,6.9,8.5,8.8,13.2c0.4,1,1.9,0.4,1.5-0.5c-1.6-4-4.7-7.6-7.1-11c-4-5.6-8.2-11.1-12.3-16.6c-3.8-4.9-7.2-10-10.2-15.4
						c-0.7-1.3-2.3-3.4-2.4-4.9c-0.1-0.9,0-0.7,0.7-2c1.1-2.2,2.2-4.4,3.3-6.7c0.2-0.4,0-0.9-0.4-1.1
						C31.8,135.7,31.3,135.9,31.1,136.3L31.1,136.3z"/>
					<path d="M77.7,136.9c0.8,1.7,2.4,3.8,2.7,5.5c0.4,2-1.1,5.2-1.8,7.1c-1.8,4.5-4.2,8.9-7,12.9c-4.3,6.5-8.8,12.9-13.3,19.3
						c-0.6,0.8,0.6,1.9,1.2,1.1c4.8-6.7,9.5-13.5,14.1-20.4c2.9-4.2,5.3-8.7,7.1-13.5c0.6-1.7,1.8-4.3,1.6-6.1c-0.2-2-2.1-4.5-3-6.4
						C78.9,135.5,77.3,136,77.7,136.9L77.7,136.9z"/>
					<path d="M30.1,106.4c-6.9,3.6-13.8,7.3-20.7,10.8c-3.5,1.8-7.3,3.3-10.6,5.4c-3.8,2.5-5.7,7.8-7.2,11.9
						c-5.6,15.1-9.5,31-13.9,46.5c-1.2,4.2-2.4,8.3-3.5,12.5c-0.5,2.1-1.2,4.2-2.1,6.2c-1.5,3-3.9,5.7-4.6,9.1
						c-0.1,0.4,0.2,0.9,0.6,1c0.4,0.1,0.9-0.2,1-0.6c0.7-3.2,3-5.8,4.4-8.7c0.8-1.8,1.5-3.6,1.9-5.5c0.8-3.2,1.7-6.4,2.6-9.6
						c2.5-8.9,5-17.9,7.6-26.8c1.6-5.7,3.3-11.3,5.1-16.9c1.7-5.3,3.4-12.1,7.3-16.3c2.4-2.6,6.8-4,9.9-5.6c7.7-4,15.3-8,22.9-12
						C31.9,107.3,31,105.9,30.1,106.4z"/>
					<path d="M78.3,107.8c8,4.2,16,8.4,24,12.6c4.7,2.4,8.6,3.8,11.2,8.7c3.1,5.8,4.7,12.3,6.7,18.6c5.1,15.7,9.3,31.7,14.5,47.4
						c2.4,7.3,8,13.4,11.5,20.2c1.8,3.3,3.8,6.6,6,9.7c1.8,2.7,4.3,5.7,5.3,8.8c0.2,0.4,0.6,0.6,1.1,0.4c0.4-0.2,0.6-0.6,0.5-1
						c-1.9-5.6-6.6-10.6-9.6-15.6c-1.8-3-3.2-6.1-5.1-9.1c-2.5-3.9-5.5-7.6-7.3-11.9c-3.6-8.3-5.5-17.7-8.1-26.3
						c-2.3-7.6-4.5-15.1-6.9-22.6c-1.9-6-3.5-12.1-6.2-17.8c-2.1-4.4-4.3-6.9-8.6-9c-9.4-4.7-18.8-9.7-28.1-14.6
						c-0.4-0.2-0.9,0-1.1,0.4C77.8,107.1,78,107.6,78.3,107.8L78.3,107.8z"/>
					<path d="M5.4,193.4c-7.3,12.1-14.3,24.9-23.2,35.8c-4.9,6.1-12.1,10.8-18.4,15.4c-3.5,2.6-7.1,5.2-10.8,7.6
						c-1,0.8-2.1,1.6-3.3,2.1c-2.2,0.7-3.6-1.3-4.6-3c-0.5-0.9-1.9,0-1.3,0.9c1.1,1.9,3,4.5,5.6,4c1.5-0.3,3.1-1.7,4.3-2.5
						c6.8-4.5,13.3-9.3,19.6-14.4c4.6-3.6,8.8-7.2,12.2-12c4.4-6.1,8.4-12.5,12.4-18.9c3-4.8,6-9.6,8.9-14.5
						C7.4,193.2,6,192.5,5.4,193.4L5.4,193.4z"/>
					<path d="M-29.9,208.2c-6.5,1.6-12.1,6.6-17.8,9.9c-5,2.9-10.1,5.8-15.2,8.6c-0.7,0.4-0.3,1.5,0.5,1.5c3.5-0.3,6.8,3.4,8.6,5.9
						c2.6,3.5,4.2,7.6,4.8,11.9c0.1,1.1-0.2,10.9-2.6,8.8c-0.3-0.3-0.8-0.3-1.1,0.1s-0.3,0.8,0.1,1.1c2,1.8,3.7,0.3,4.6-1.9
						c1.7-4.4,0.9-10.1-0.7-14.4c-1.9-5-7-13.8-13.7-13.2c0.2,0.5,0.3,1,0.5,1.5c4.8-2.7,9.6-5.4,14.4-8.1
						c5.8-3.4,11.7-8.6,18.2-10.2C-28.4,209.5-28.9,207.9-29.9,208.2L-29.9,208.2z"/>
					<path d="M-61.1,226.8l-7,3.2c-0.4,0.2-0.6,0.6-0.5,1.1c0.1,0.3,0.4,0.5,0.8,0.5c9.9,0.3,11.1,14,7.8,21
						c-0.2,0.4,0.1,0.9,0.5,1.1c0.2,0.1,0.5,0.1,0.7-0.1l11.2-6.9c0.9-0.6,0-1.9-0.9-1.4l-11.2,6.9l1.2,1c3.8-8.1,1.9-23-9.4-23.3
						l0.3,1.6l7-3.2C-59.7,227.9-60.2,226.3-61.1,226.8L-61.1,226.8z"/>
					<path d="M-67,230.3c-6.6,0.5-13.6,0.6-19.9,2.9c-3.5,1.3-6.4,2.3-9.2,4.8c-3.1,2.7-5.9,5.7-9,8.5c-0.2,0.2-0.3,0.5-0.2,0.8
						c3,6.4,10.7-1.3,14-2.8c2.9-1.2,6-1.3,9-0.4c4,1.4,8.5,1,12.2-1.2c0.9-0.5,0-1.8-0.9-1.4c-2.8,1.7-6.2,2.2-9.4,1.4
						c-1.3-0.3-2.5-1-3.7-1.3c-2.4-0.2-4.8,0.1-7.1,0.9c-2.6,1-4.5,3.4-7.2,4.6c-1.7,0.7-3.2,1.4-4.8,0.2c-1-0.7-0.3-0.2-0.2-0.3
						c0.4-1,2.4-2.4,3.2-3.1c2.3-2.2,4.6-4.9,7.2-6.6c3.1-1.7,6.4-3,9.8-3.8c5.2-1.3,10.8-1.3,16.1-1.7c0.4,0,0.8-0.4,0.8-0.9
						C-66.2,230.7-66.6,230.3-67,230.3L-67,230.3z"/>
					<path d="M-85.2,242.4c-4.6,3.6-8.3,8.1-12.5,12c-1.6,1.4-8.5,6.2-5.2,8.8s8.1-1.9,10.4-3.8c3-2.5,6-5,8.9-7.7
						c0.8-0.7-0.4-1.8-1.2-1.1c-2,1.8-4,3.5-6,5.3c-2,1.7-5,5.1-7.7,5.8c-3,0.1-4-0.4-3-1.4c0.2-0.3,0.5-0.6,0.8-0.8
						c0.7-0.8,1.4-1.5,2.2-2.2c1.1-1.1,2.3-2.1,3.4-3.2c3.6-3.4,6.8-7.2,10.7-10.3C-83.5,243.1-84.4,241.7-85.2,242.4L-85.2,242.4z"
						/>
					<path d="M-97.6,261.3c-1.8,1.4-6.6,4.8-3,6.9c3.3,1.9,7.4-1.5,9.8-3.6c0.8-0.7-0.4-1.8-1.2-1.1c-1.6,1.4-3.7,3.1-5.8,3.5
						c-0.7,0.2-1.5,0.1-2.1-0.3c-0.6-0.5-0.3-0.5,0-1.1c0.6-1.1,2.2-2.2,3.2-3C-95.7,261.8-96.8,260.6-97.6,261.3L-97.6,261.3z"/>
					<path d="M-86.6,264.7c-1.1,0.3-3.8,2.7-4.6,0.9c-0.6-1.3,3.6-4.1,4.6-4.8c2.8-2,5.3-4.3,8.1-6.2c0.4-0.2,0.5-0.8,0.2-1.1
						c-0.2-0.4-0.8-0.5-1.1-0.2c-2.3,1.6-4.5,3.5-6.7,5.2c-1.9,1.5-4.3,2.8-5.8,4.9c-1,1.3-1.7,3.7,0.1,4.7c1.8,1,4-1.2,5.7-1.7
						c0.4-0.2,0.6-0.6,0.4-1.1C-85.8,264.8-86.2,264.6-86.6,264.7z"/>
					<path d="M-74.2,255.4c-3.1,1.9-6,3.9-9,5.8c-1.6,1-4.2,2.8-3.9,5c0.6,4.4,6.7,0.4,8.6-0.6c3.8-2,8.1-3.5,11.2-6.6
						c3.3-3.2,5.8-7.8,9.8-9.7c0.9-0.4,0.4-2-0.5-1.5c-5.6,2.7-7.9,9.2-13.3,12.4c-3.3,1.9-6.8,3.6-10.2,5.2
						c-0.6,0.3-1.3,0.6-1.9,0.9c-2.4,1-2.3-0.1,0.3-3.2c1-0.9,2.6-1.4,3.8-2.1c2.1-1.3,4-2.9,6.2-4.2
						C-72.4,256.2-73.3,254.8-74.2,255.4L-74.2,255.4z"/>
					<path d="M-61.4,250.7c-0.2,1.4,0.7,2.6,2,3c0.4,0.1,0.9-0.2,1-0.6l0,0c0.1-0.4-0.2-0.9-0.6-1l0,0c-0.3-0.1-0.6-0.4-0.7-0.7
						v-0.1c0-0.1,0,0.1,0,0v-0.2c0-0.1,0-0.5,0,0c0.1-0.4-0.2-0.9-0.6-1l0,0c-0.4-0.1-0.9,0.2-1,0.6l0,0H-61.4z"/>
					<ellipse cx="-53.4" cy="244.6" rx="1.7" ry="2.3"/>
					<path d="M102.9,188.8c2.7,5.4,5.3,10.9,7.8,16.4c2.8,6.2,4.4,13.6,9.7,18.3c7.4,6.5,13.8,14.1,19.2,22.4
						c1.3,2.1,2.8,4.1,4.3,6.1c1,1.4,2.4,4.7,4,5.7c2.1,1.2,3.4-2,4.3-3.5c0.5-0.9-0.9-1.6-1.4-0.7c-0.3,0.4-1,2.2-1.5,2.3
						c-1.2,0.3-1.8-1.6-2.3-2.3c-1.4-2-3-3.9-4.3-5.9c-2.3-3.3-4.3-6.7-6.8-9.8s-5.3-6.2-8-9.2s-6.2-5.6-8.7-8.7
						c-2-2.5-2.8-5.9-4-8.9c-1.4-3.2-2.8-6.4-4.3-9.6c-2-4.4-4.1-8.7-6.2-13C104,187.4,102.4,187.9,102.9,188.8L102.9,188.8z"/>
					<path d="M158.6,232.7c-5.3-3.6-11.1-0.8-13.9,4.5c-1.5,3.1-2,6.6-1.2,10c0.6,3.1,1.2,6.9,3.4,9.4c0.7,0.8,2-0.1,1.4-0.9
						c-2.9-3.4-4.2-10.5-3.2-14.7c1.3-5.8,7.1-10.6,12.8-6.8C158.7,234.8,159.4,233.3,158.6,232.7L158.6,232.7z"/>
					<path d="M144.1,249.3c1.9,2.8,4.8,4.9,8,6c0.7,0.2,1.2-0.7,0.8-1.2c-2.6-3.8-3.9-9.8-1.6-14c1.4-2.7,5-3.9,7.9-4.2
						c0.5,0,0.8-0.4,0.7-0.9c0-0.2-0.1-0.4-0.3-0.5l-3.6-2.8c-0.8-0.6-1.9,0.6-1.1,1.2l3.6,2.8l0.5-1.4c-3.5,0.3-7.5,1.8-9.2,5
						c-2.5,4.7-1.2,11.4,1.7,15.6c0.3-0.4,0.6-0.8,0.9-1.2c-2.8-1-5.3-2.8-7-5.3c-0.3-0.3-0.8-0.4-1.1-0.1
						C144,248.4,144,248.9,144.1,249.3L144.1,249.3z"/>
					<path d="M159,235.8c4.1,0.4,8.2,1.1,12.3,1.8c2.6,0.5,5.9,0.5,8.2,1.8c2.1,1.1,3.4,3.9,4.5,5.8s1.2,4.3,2,6.5
						c0.7,1.8,2.1,2.9,3.6,4.1c1,0.9,2.4,1.7,0.7,2.9c-2.5,1.7-5.9-1.1-7.4-2.9s-1.8-4-3.1-5.7s-5.2-1.8-7.3-1.8c-2,0-2.3,0.7-3.8,2
						c-8.7,7.8-18.5,14.7-29.5,18.8c-0.4,0.2-0.6,0.6-0.5,1.1c0,0.1,0.1,0.2,0.2,0.3l15.4,13.5l10.2,9c1.3,1.1,3,3.4,4.6,4
						c2.5,1,7.5-1.2,9.8-2c5.2-1.8,10-4.5,14.3-7.9c8-6.5,15.3-13.8,22.6-21.1c5.6-5.6,11-11.2,16.4-16.8c0.3-0.3,0.3-0.9-0.1-1.2
						c0,0-0.1-0.1-0.2-0.1c-13.1-7.5-26.6-15.9-37.1-26.8c-0.3-0.3-0.8-0.3-1.1,0.1c-4.2,5.9-8.3,12.3-13.4,17.6
						c-0.7,0.8,0.5,1.8,1.2,1.1c4-4.1,7.3-9.1,10.6-13.7c0.7-0.9,1.3-1.8,2-2.8c1.1-1.5,0.2-0.4,0.3-0.3c3,2.3,5.6,5.2,8.6,7.6
						c8.9,7,18.3,13.2,28.1,18.8l-0.2-1.2c-11.2,11.8-22.6,23.6-34.8,34.4c-2.9,2.7-6.1,5.1-9.4,7.2c-3.6,2-7.4,3.7-11.3,4.8
						c-1.6,0.5-3.9,1.4-5.6,1.2c0.5,0.1,0.2,0.1-0.4-0.5c-0.9-1-2.1-1.8-3.1-2.7l-9.3-8.2l-16.9-14.8c-0.1,0.5-0.2,0.9-0.3,1.4
						c9.8-3.7,18.7-9.6,26.8-16.4c1.5-1.2,3.5-3.9,5.2-4.6c-0.5,0.2,0.2,0.1,0.8,0.2c0.9,0.1,1.8,0.2,2.7,0.3c2.1,0.3,3,0.1,3.8,2.1
						c1.2,2.9,3.1,5.8,5.9,7.4c2,1.2,8,1.8,8.6-1.5c0.2-1.1-0.4-1.4-1.1-2.1c-1.9-1.9-4.2-3-5-5.7c-0.5-1.6-0.5-3.3-1.2-4.9
						c-1-1.9-2.1-3.7-3.5-5.4c-2.6-3.4-7.1-3.3-11-4c-4.1-0.8-8.1-1.4-12.3-1.8C158.4,234.2,158,235.8,159,235.8L159,235.8z"/>
					<path d="M151.5,254.7c0.7,1.9,1.6,3.6,2.9,5.1c0.7,0.8,2-0.1,1.4-0.9c-1.1-1.4-2-3-2.7-4.8
						C152.7,253.2,151.2,253.7,151.5,254.7L151.5,254.7z"/>
					<path d="M164.6,253.8c-8.3,4.5-18.4,10.2-28,10.7c-0.5,0-0.8,0.4-0.8,0.9c0,0.2,0.1,0.4,0.3,0.5l4.7,3.9
						c0.8,0.7,1.9-0.5,1.1-1.2l-4.7-3.9l-0.5,1.4c10-0.5,20.2-6.2,28.9-10.9C166.4,254.7,165.5,253.3,164.6,253.8L164.6,253.8z"/>
					<path d="M228.1,252l2,2.9c0.1-0.4,0.1-0.7,0.2-1.1c-4.7,3.2-9.4,6.6-13.9,10.1c-4.8,3.7-9.1,8-12.9,12.7
						c-5.3,6.3-11,12.1-17.2,17.5c-1.4,1.2-2.9,2.5-4.4,3.6c-0.7,0.4-1.3,0.8-1.9,1.3c-2.1-0.1-5.3-2.7-7.3-3.7
						c-0.4-0.2-0.9,0-1.1,0.4c-0.2,0.4,0,0.9,0.4,1.1l0,0c2,1,5.2,3.5,7.5,3.8c1.7,0.2,3.5-1.7,4.8-2.7c6.5-5.4,12.6-11.3,18.2-17.7
						c1.8-2.1,3.4-4.3,5.1-6.4c2.5-3,5.9-5.5,9-7.9c4.7-3.7,9.6-7.2,14.6-10.6c0.4-0.3,0.5-0.7,0.2-1.1l-2-2.9
						c-0.2-0.4-0.8-0.5-1.1-0.2S227.8,251.6,228.1,252L228.1,252L228.1,252z"/>
					<path d="M52.3,78.4c0.6,0.3,1.3,0.6,2,0.7c1.6,0.3,3.2,0,4.6-0.9c0.7-0.4,0.8-1,0.6-1.3c-0.2-0.3-1-0.2-1.4-0.1
						c-1.4,0.5-2.9,0.6-4.3,0.3c-0.5-0.2-1-0.3-1.6-0.4C51.3,76.7,51.4,77.7,52.3,78.4L52.3,78.4z"/>
					<path d="M47,84c2.1,1.5,4.5,2.6,7,3.2c3.5,0.6,6.7-1.9,9.6-3.4c0.9-0.5,0-1.8-0.9-1.3c-3.3,1.7-6.3,4-10.2,2.6
						c-1.7-0.6-3.3-1.5-4.8-2.5C46.8,82,46.1,83.4,47,84L47,84z"/>
					<path d="M56.9,200.9c0,1.5-1.2,2.7-2.7,2.7s-2.7-1.2-2.7-2.7s1.2-2.7,2.7-2.7C55.6,198.1,56.9,199.4,56.9,200.9L56.9,200.9z"/>
					<path d="M55.9,226.7c0,1.5-1.2,2.7-2.7,2.7s-2.7-1.2-2.7-2.7s1.2-2.7,2.7-2.7l0,0C54.7,224,55.9,225.2,55.9,226.7z"/>
					<path d="M54.1,256.7c0,1.5-1.2,2.7-2.7,2.7s-2.7-1.2-2.7-2.7c0-1.5,1.2-2.7,2.7-2.7l0,0C52.9,254,54.1,255.2,54.1,256.7z"/>
					<path d="M5.9,288.5c0.9,6.1,1.8,12.2,2.6,18.3c0.1,1,1.8,0.9,1.6-0.1c-0.9-6.1-1.8-12.2-2.6-18.3
						C7.4,287.4,5.8,287.4,5.9,288.5L5.9,288.5z"/>
					<path d="M98.2,289.7c-0.4,5.7-0.7,11.3-1.1,17c-0.1,1,1.6,0.9,1.6-0.1c0.4-5.7,0.8-11.4,1.1-17.1
						C99.9,288.5,98.3,288.6,98.2,289.7L98.2,289.7z"/>
					<path d="M108.5,249.6c-2.9-0.3-5.7-0.6-8.6-0.9c-1.4-0.2-3.2-0.1-4.5-0.7s-2.2-2.5-2.8-3.8l-0.6,1.2c3.1,0.2,6.2,0.9,9.2,1.3
						c1.4,0.1,2.8,0.3,4.2,0.6c0.3,0.1,0.9,0.3,0.4,0c1,0.7,1.5,2.4,1.8,3.4c0.2,0.4,0.6,0.6,1.1,0.4c0.4-0.2,0.6-0.6,0.5-1
						c-1.4-4-2.4-4.2-6.2-4.8c-3.8-0.6-7.4-1.4-11.1-1.6c-0.7,0-0.9,0.8-0.6,1.2c1.8,3.5,2.8,4.4,6.5,5c3.5,0.5,7,0.9,10.5,1.2
						C109.1,251.3,109.5,249.7,108.5,249.6z"/>
					<path d="M1.2,251.2c3.6-0.3,7.2-0.7,10.8-1.2s4.7-1.6,6.4-5c0.2-0.4,0-0.9-0.4-1.1c-0.1-0.1-0.3-0.1-0.4-0.1
						c-3.7,0.2-7.5,1-11.2,1.6s-4.6,0.8-5.9,4.7c-0.3,1,1.1,1.7,1.4,0.7c0.3-1.2,0.9-2.3,1.7-3.3c0.2-0.1-0.4,0.1,0.3-0.1
						c1.5-0.4,3.1-0.6,4.7-0.7c3-0.4,6.1-1.1,9.1-1.3l-0.8-1.2c-0.6,1.2-1.3,3.1-2.6,3.7s-3.5,0.6-4.9,0.8c-2.8,0.4-5.5,0.6-8.3,0.9
						C0.1,249.7,0.2,251.3,1.2,251.2z"/>
					<path d="M161.3,214c3.8,2.8,7.1,6.1,9.7,10c0.6,0.9,1.9,0,1.3-0.9c-2.7-4-6.1-7.4-10-10.3C161.5,212.2,160.4,213.4,161.3,214
						L161.3,214z"/>
					<path d="M-53.7,214.4c2.8-2.7,6-5,9.5-6.8c0.9-0.5,0-1.8-0.9-1.4c-3.6,1.8-6.9,4.2-9.9,7C-55.7,214-54.5,215-53.7,214.4
						L-53.7,214.4z"/>
					<path d="M51.4,66.5c2.7-1,5.7-1,8.4,0c1,0.3,1.3-1.3,0.3-1.6c-3-1.1-6.3-1.1-9.3,0C49.8,65.3,50.4,66.8,51.4,66.5L51.4,66.5z"
						/>
				</g>
			</g>
		</g>
	</g>
</g>
</svg>
