<svg xmlns="http://www.w3.org/2000/svg" viewBox="0 0 748.75 544.53"><g data-name="レイヤー 2"><path d="M531 189.9s-5.52-8-11.15-6.75-2.94 7.42-5.83 11.22-17.45 8.88-17.45 8.88 9.85 3 11.72 9.25 3.33 11.72 3.33 11.72 3.15-.61 11.71 12 10.86 16.11 10.86 16.11a36.87 36.87 0 000 10.45c.87 4.9 3.4 21.69 0 31.58s-4.46 20.06-11.24 26.17-17.26 11.63-21 10.75-8.77-5.47-8.77-5.47-8.23-9.35-9.62-16-.83-7.92-.83-7.92-14.31 4.92-29-1.4-14.3-9.25-14.3-9.25-7.18 3.89-10.66-2.22c0 0-6.65 20.16-2.05 31.19s.22 12.08.22 12.08-11.17 32.6-8.19 51.4 11.16 29.48 19 32.38 14.1 4.86 19.33 2.34a58 58 0 008.33-4.78l98.76 25.22s3.8 11.1 20.05 16.23 23.61 4.77 30.42 5.14 13.13-1.84 14.81-3.49c0 0 7.53-10.8 13.11-13.39s13.79-2.55 19-6.3 17.45-15.24 21.06-30.52 3.86-25 3.09-28.32-2.34-19.32-1.19-31.58-.32-66.83-.32-66.83-4-39.67-11.76-54-11.2-18.14-20-22.57-18.28-5.58-19.89-9.93-1.06-5.51-6-8.09-12.3-3.83-15.54-1.08-5.15 4.44-5.15 4.44l12.61 4.73-39 16.54s-24.22 6-40.59-1.09-16.17-10.33-16.17-10.33z" fill="#fffc19"/><path d="M485.21 70.05c.86.14 1.91-11.94 1.91-11.94s10.95-9.3 21.95-10.48 26 .38 29.73 5.74 3.05 11.63 5.8 19.12 11.08 27.66 18.4 30.91 8.54 3.25 8.54 3.25 6.43-13.15 11.55-9.49 4.72 10.23 3.34 13.65-7.35 15.13-11.95 17.15c0 0-4 16.8 5.18 29.1 0 0 3.61 16.77 10.52 22.67a53.84 53.84 0 0015.7 8.83 15.46 15.46 0 0112.78-6.14 14.65 14.65 0 0112.46 7.16s.2 6.66 4.27 6.66h4.58s2.89-5.51-1.72-13.82-8.85-17.09-19.76-22.57-25.94-11.53-24-18.61 9.86-13.7 13.55-22.14 13.11-33.48 9.05-52-7.33-45.25-31.36-55.47S549.26-1.53 537 3.35s-19.95 10-32 22-22.5 21.93-23.47 23-6.62 4.19-5 9.57 3.01 11.15 8.68 12.13z" fill="#464948"/><g><path d="M747.34 481.31L645.9 456.74l-14.38-3.48c-2.35-.57-3.15 3.09-.81 3.66l101.44 24.57 14.38 3.51c2.35.57 3.15-3.09.81-3.66zM203.87 415.23l92.05-18.14c13.77-2.71 27.53-5.54 41.32-8.14 12.25-2.31 26.07 3.19 37.88 6.05l51.14 12.39c2.35.57 3.15-3.09.8-3.66L382.94 393l-26-6.31c-6.47-1.57-12.42-2.9-19.21-1.66-32.06 5.83-64 12.6-95.95 18.9l-39.07 7.7c-2.35.46-1.15 4 1.19 3.56zM564.56 437l-100-24.22c-2.35-.57-3.15 3.09-.8 3.66l100 24.23c2.35.57 3.15-3.1.8-3.67zM2.46 454.92l65-12.8c2.36-.46 1.16-4-1.18-3.56l-65 12.8c-2.36.47-1.16 4 1.18 3.56zM486.54 55.41c-2.76 9.75-5.56 21.07-4.16 31.23 1 7.11 5.26 13 7.36 19.66 1.81 5.77.66 11.16.78 17 .32 15.12 10.22 29.2 18.58 41.17 6.24 8.94 13.07 17.46 25 14.35 9-2.36 16.27-9.55 22.8-15.85s11.89-13.06 12.92-22.2c.26-2.38-3.4-3.2-3.67-.81-1.25 11.13-9.72 18.62-17.64 25.66-6 5.35-14.7 12.39-23.43 9.66-7.17-2.24-12-11.54-15.87-17.41-5.18-8-10.93-16.46-13.55-25.65-1.81-6.36-1-12.16-1-18.58 0-7-3.27-12.72-5.92-19-5.18-12.3-2.06-26 1.45-38.47.66-2.33-3-3.12-3.66-.81zM498.36 53.21c10.68-5.33 25.58-7.52 36.08-.81 13.62 8.7 18.94 26.32 33.91 33.21 2.19 1 3.92-2.33 1.72-3.33-16.4-7.55-21.45-28.94-38.76-35.6-11.09-4.27-24.6-1.8-35 3.4-2.15 1.08-.08 4.2 2.06 3.13z"/><path d="M540.56 65.78a117.31 117.31 0 009.26 24.1c4.13 7.74 10.78 17 20 18.6 2.38.42 3.19-3.24.81-3.66-9.66-1.69-16-12.88-19.69-21.07a131.09 131.09 0 01-6.85-19.15c-.64-2.33-4.2-1.14-3.56 1.18z"/><path d="M486.07 68.38c-2.86-1.68-5.94-4.44-7.09-7.59-2.78-7.58 7.07-14.63 11.95-19.15 5.07-4.73 10.62-9.19 15.07-14.57 3.17-3.83 5.93-7.53 9.83-10.69C536.84-.68 566.2 0 588 15.37c23 16.17 31.11 49.36 27 75.95-1.89 12.33-6.62 24.08-12.8 34.88-2.44 4.25-5.75 7.81-8.32 11.93-1.19 1.91-1.7 3.32-.59 5.41 1.62 3 5.53 5.28 8.27 7.13 6.12 4.13 12.42 8 18.2 12.58 9.23 7.36 21.52 19.32 17.8 32.59-.66 2.33 3 3.12 3.66.81 2.49-8.88-2.08-18.9-7.66-25.54-9.66-11.51-23.14-17.21-34.3-26.73-1-.84-2.82-2.08-2.78-3.39s3.1-4.06 3.87-5.1a100.7 100.7 0 0010-17.25 94.37 94.37 0 009.36-39.38c.21-27.42-10.78-57.39-36-70.93-23.7-12.71-52-11.25-72.38 7-5.12 4.58-8.8 10.41-13.76 15.17-6.7 6.44-14.62 12.22-20.1 19.81-5.87 8.15-.93 16.85 6.87 21.42 2.09 1.23 3.79-2.11 1.72-3.33z"/><path d="M574.22 130.09a15.14 15.14 0 002 8.26c3.12 5.43 9.29 6.92 15.16 6.64 2.41-.12 2.21-3.86-.2-3.75-4.84.23-10-.84-12.18-5.65a12 12 0 01-1.06-5.7c.16-2.4-3.59-2.19-3.74.2z"/><path d="M580 124.67A13.82 13.82 0 00593.48 138c2.41.11 2.2-3.63-.19-3.75a10 10 0 01-9.54-9.8c-.11-2.41-3.85-2.22-3.75.2zM579.73 156.77c6-.19 13.52-4 14.5-10.55.36-2.38-3.3-3.19-3.66-.8-.74 4.89-6.65 7.47-11 7.61-2.41.08-2.21 3.82.2 3.74zM591.42 162.42c4 5.22 8.34 10.9 7.72 17.87-.21 2.37 3.45 3.2 3.66.8.72-8.14-3.48-14.51-8.24-20.73-1.46-1.9-4.61.14-3.14 2.06zM602.28 160.21c5.48 4.44 13.8 10.36 14.31 18 .16 2.41 3.9 2.22 3.74-.2-.59-8.91-9.14-15.42-15.54-20.6-1.87-1.51-4.39 1.27-2.51 2.79zM510.09 39.68a58 58 0 0128.49-8.95c9.39-.36 22.42.89 28.38 9.18 1.4 2 4.55-.09 3.13-2.06C564 29.34 552.42 27.26 542.54 27A61.81 61.81 0 00508 36.54c-2.05 1.28 0 4.41 2 3.14z"/><path d="M529.38 18.2c13.14-5.53 27.19-3.17 40.22 1.48 11.9 4.24 21.07 12.14 25.76 24 .89 2.24 4.46 1.07 3.56-1.18-4.9-12.41-14.33-21.28-26.8-25.9-14.13-5.23-29.61-8-43.92-2-2.21.93-1.05 4.5 1.18 3.56zM547.73 45.26c8.74 2.62 14.69 12.58 20.33 19.15 4.69 5.46 9.06 11.29 16 13.93 2.24.85 4-2.48 1.72-3.34-16-6.09-20.56-28.42-37.22-33.4-2.32-.69-3.11 3-.81 3.66zM532.19 178.81c.64 7.83-5 13.34-10.48 18-1.81 1.55.23 4.7 2.06 3.14 6.52-5.58 12.93-12.12 12.16-21.37-.2-2.4-3.94-2.21-3.74.2zM533.48 111.39c.23 2.78-1.25 5.18-3.31 5.35s-3.93-1.93-4.17-4.72 1.25-5.17 3.31-5.35 3.93 1.94 4.17 4.72z"/><path d="M532.76 126.71c-8.51.54-13.26-6.65-14.37-14.19-1.23-8.34 3.74-14.65 12.24-15.24s13.36 4.93 13.94 13c.6 8.21-4 14.86-12.31 16.55-2.35.48-1.15 4 1.19 3.56 21.43-4.39 19.18-39.39-3.91-36.76-10 1.16-16.41 8.87-14.93 19 1.42 9.62 7.63 18.53 18.34 17.85 2.41-.18 2.22-3.92-.19-3.77z"/><ellipse cx="499.16" cy="113.5" rx="3" ry="5.05" transform="rotate(-8.87 499.326 113.504)"/><path d="M497.56 128.64c-12.31.75-16.76-25-3.77-27.78 15.85-3.33 17.58 24.66 3.27 27.87-2.35.53-1.15 4.09 1.19 3.56 18.6-4.18 15.53-39.11-4.83-35.15-9.51 1.85-12.13 9.83-10.67 18.73 1.22 7.43 6.14 17.06 15 16.52 2.41-.15 2.25-3.9-.19-3.75z"/><path d="M502.7 132.37a8.36 8.36 0 0012.68 6.37c2.09-1.2 0-4.33-2.06-3.13a4.55 4.55 0 01-6.88-3.44c-.28-2.38-4-2.21-3.74.2zM508.09 150.84c3.25-.44 5.9.78 9 .77 2.25 0 4.65-.84 6.81-1.33 4.53-1 8.9-1.92 11.95-5.67 1.51-1.88-1.27-4.39-2.79-2.51-2.83 3.48-8.15 4.35-12.38 5.08-4.43.76-8.4-.68-12.83-.09-2.37.32-2.2 4.07.2 3.75zM514.23 156.88c3.6 1 7.22 1.68 10.61-.33 2.07-1.23 0-4.37-2.06-3.13-2.41 1.43-5.26.51-7.74-.2-2.33-.67-3.12 3-.81 3.66zM519.62 92.17c4.1-3.77 11.93-4.19 16.56-1.45 2.08 1.24 3.79-2.1 1.72-3.33-6.26-3.71-15.69-2.67-21.07 2.27-1.78 1.63 1 4.13 2.79 2.51zM488.51 93.69c1.58-2.19 4-2.59 6.53-2.57 1.09 0 5.42-.31 6.25.49 1.72 1.7 4.23-1.09 2.51-2.78-2-2-6.93-1.49-9.51-1.46-3.34 0-6.54 1-8.56 3.81-1.4 1.94 1.37 4.47 2.78 2.51zM578.73 157.65c2.3 8.9 4.94 18.2 11.51 25s16.35 8.37 25.26 10.78c2.34.63 3.13-3 .81-3.66-8.17-2.22-17.47-3.51-23.56-9.91s-8.34-15.14-10.46-23.37c-.6-2.34-4.16-1.15-3.56 1.18zM527.55 186.67c-2.65-4.6-8-8.74-12.33-3.57-3.28 3.94-2.49 10.94-6.3 13.86-4 3-10.74 3.67-15.51 5.42-2.26.83-1.09 4.4 1.18 3.56q4.92-1.81 10-3.28c3-.87 6.38-1.23 8.44-3.84 1.87-2.36 1.92-5.59 2.77-8.36 1.13-3.71 4.47-7.18 7.46-3.51a13.07 13.07 0 011.18 1.78c1.21 2.09 4.34 0 3.14-2.06z"/><path d="M517.44 195.59c2.53 5.43 8 9.51 13.21 12.08 11.46 5.61 27.15 6.74 39.72 5.22 14.15-1.71 28.23-8.36 41.28-13.78 4.82-2 15.63-6.74 7.67-12.22-2-1.37-3.68 2-1.72 3.33 2.48 1.71-8.17 5.75-9.6 6.32-5.71 2.26-11.47 4.42-17.21 6.62-9.14 3.51-18.15 6.42-28 6.38-13.28 0-35.64-2-41.76-15.14-1-2.16-4.58-1-3.56 1.19z"/><path d="M644.31 379.76c1.26 3.94 2.54 8.1 2.46 12.28-.1 4.85-2.8 3.52-5.08.76-3.81-4.63-6.66-10-10.6-14.53-6.85-7.91-15.64-11.19-25-15.06s-24-10.35-25.24-21.59c-1.06-9.21 1.75-19.59-3-28.3-.92-1.71-1.51-1.92-3.26-2.41-5.3-1.46-8.88-4.2-10.89-9.71s-2-11.73-3.48-17.48c-1.77-7.16-6.12-11.59-10.25-17.48-2.57-3.67-10.35-20.94-17.24-15.15-2.65 2.23-1.82 6.52-1.29 9.44 1 5.54 2.66 10.71 2.71 16.38.17 21.75-10.66 56.3-38.13 52.51a1.92 1.92 0 00-2.28 1.93c-.23 3.64 5.58 7.77 7.81 9.63 3.38 2.82 6.92 5.46 11.14 6.86 3.88 1.29 8 1.38 11.92 2.5 26.28 7.53 17.81 36.29 25.58 56 2.45 6.2 5.76 12 7.82 18.4 2.65 8.16 3.59 17.22 10 23.47 11.53 11.22 31.19 11.56 46.14 13.9 9 1.42 14.82-1.52 20.59-8.36 3.83-4.53 7.47-8.86 13.24-10.92 4-1.42 8.25-1.61 12.18-3.12 8.83-3.4 14.36-12.57 18.68-20.5 5.19-9.55 9-20.29 9.38-31.23.2-6.43-1.63-12.25-2.45-18.55-.94-7.19-.35-14.48.39-21.66a262.41 262.41 0 001-32.81c-.49-23.24-1.28-45.93-6.34-68.7-2.62-11.8-6.42-23.73-14.26-33.19-7.33-8.85-16.86-13.74-27.32-17.88-1.49-.6-3.6-1.17-4.75-2.38-1.42-1.51-1.46-3.79-2.43-5.59a11.71 11.71 0 00-7-5.73c-7.65-2.47-16.35.12-21.86 5.84-1.68 1.74 1.11 4.24 2.79 2.5 5.44-5.65 18.85-9 23-.28 1.06 2.24 1 4.26 2.92 6s4.44 2.5 6.69 3.36c10 3.83 19.24 9 25.9 17.6 6.32 8.19 9.67 18.13 12 28.08 5.08 21.22 6.28 42.48 6.68 64.21.19 10.21.95 20.45 0 30.63-1 11.22-2.76 22.41-.7 33.63 2.25 12.25 2.13 22.71-2.45 34.5-3.66 9.41-9.48 21.75-18.39 27.18-6.52 4-14.63 3.11-21.07 7.61-7.72 5.39-11.46 16.71-22.19 16.45-7.55-.19-15.78-2.18-23.24-3.49-8-1.41-16.77-3.3-23.21-8.6-7-5.78-7.82-15-10.47-23.2-1.67-5.16-4.16-10-6.34-14.94-4.51-10.24-4.84-20.8-6.31-31.72-1.14-8.43-3.36-16.87-10-22.7-7.25-6.39-14.74-7.14-23.58-9.42-5.58-1.44-10.36-5.33-14.43-9.29-.86-.84-3.52-3.26-3.45-4.27l-2.28 1.93a33.82 33.82 0 0017.92-2.72c11.71-5.22 16.44-16.41 20.19-27.92 3.56-10.92 6-23 3.66-34.43-.62-3-3.13-8.36-2.3-11.3.64-2.3.64-3 3.13-1.54a11.58 11.58 0 012.09 2.69c2.06 2.84 3.84 5.87 5.8 8.77 2.57 3.78 5.9 7.16 8.22 11.08 6.63 11.14 1.83 26.7 14 34.8a12.78 12.78 0 003.44 1.78c.65.18 2.64 0 3.1.37 2.11 1.49 2.71 12.53 2.72 16 0 10.51-.59 18.56 8.65 25.42 7.65 5.68 16.22 9.33 24.91 12.92 7.86 3.26 14.34 7.45 19.56 14.26 3.72 4.86 6.84 12.32 12.21 15.61 11.48 7.05 6.48-16.66 5.32-20.31-.73-2.3-4.29-1.12-3.56 1.18z"/><path d="M618.43 265.43c-3.66 18.4 1 36.26 4.1 54.31 2 11.89.9 23.22-4.61 34.1-2.68 5.29-5.37 8.74-5.12 14.92.1 2.42 3.85 2.22 3.75-.19-.27-6.69 4.3-11.46 6.7-17.45a55.07 55.07 0 003.35-29.63c-2.83-18.44-8.25-36.45-4.51-55.25.47-2.37-3.19-3.18-3.66-.81zM427.27 287.41c-3.79 11.75-6.39 27.12-.21 38.43 4.18 7.65 14.09 13.5 13 23.12-.52 4.51-4.39 17.21-9 17.83-2.38.32-2.2 4.07.19 3.75 3.88-.52 6.59-4.67 8.25-7.79 4.18-7.86 6.7-17.74 1.21-25.49-2.76-3.89-6.4-7.05-9-11.07-3.31-5.12-4.36-10.6-4.32-16.63a72.82 72.82 0 013.63-21.34c.74-2.3-2.93-3.09-3.66-.81z"/><path d="M489.72 326.43c1.89 9.64-3.72 17.05-7.67 25.29a58 58 0 00-5.75 25.16c0 8.77 1.59 16.59-3.14 24.56-6.08 10.23-16.23 18.77-28.75 15.29-20.29-5.64-27.07-33.15-24.53-51.73 1-7.39 4.88-14.46 6.95-21.64 1.62-5.64 3.05-11.36 4.21-17.11.48-2.37-3.18-3.18-3.66-.81-1.05 5.19-2.32 10.34-3.74 15.43-2 7.19-5.67 14.07-7.1 21.37-2.83 14.39.66 32.05 8.55 44.35 8.16 12.72 25.36 19.52 38.76 10.56a41.31 41.31 0 0015.07-19c2.44-6.68 1.21-13.7 1.13-20.62-.13-11.58 3.77-21.16 9-31.19 3.61-6.89 5.73-13.3 4.2-21.1-.46-2.36-4-1.16-3.56 1.18zM437.82 292.28c8.51 12.94 30 13.6 43.36 12.72 2.41-.16 2.22-3.9-.2-3.75-11.85.79-32.33.66-40-11a1.88 1.88 0 00-3.14 2.06zM571.76 109.42c1.06-3.23 6.09-15.46 12.3-8.88 3.06 3.25.73 9.78-.82 13.06-1.67 3.54-8.19 16-13.65 13.06-2.14-1.13-3.85 2.2-1.72 3.34 10.82 5.74 21.65-17 21.21-25.15-.28-5.36-3.74-10.93-9.78-9.84-6.21 1.12-9.47 8.33-11.21 13.6-.75 2.3 2.92 3.08 3.67.81zM514.62 208.35c1.73 1.62 3 3.81 4.84 5.25a55.82 55.82 0 005.9 3.54c1.4.81 2.52-1.42 1.14-2.23-1.91-1.12-4.32-2.13-6-3.64s-2.7-3.32-4.27-4.79c-1.18-1.1-2.84.77-1.66 1.87zM533.69 220.66l1.26.45a1.29 1.29 0 001.68-.55 1.26 1.26 0 00-.55-1.68l-1.26-.45a1.3 1.3 0 00-1.68.55 1.25 1.25 0 00.55 1.68zM548.05 223.83a136.34 136.34 0 0014.57.64c1.61 0 1.46-2.51-.15-2.49a134.2 134.2 0 01-13.89-.59c-1.59-.16-2.13 2.29-.53 2.44zM578 223.56l3.26-.33c1.6-.16 1.46-2.66-.15-2.5l-3.26.33c-1.6.16-1.46 2.66.15 2.5zM597.52 218.92a174.23 174.23 0 0017-8c1.41-.76 0-2.84-1.39-2.08a164.62 164.62 0 01-16.39 7.76c-1.48.61-.69 3 .81 2.37zM625.24 204.74a31.61 31.61 0 004.23-4c1-1.22-.82-2.89-1.87-1.67a27.23 27.23 0 01-3.75 3.61c-1.25 1 .12 3.09 1.39 2.09zM437.3 231.31c.21-3.53.41-7.06.62-10.59.14-2.44.37-4.88.43-7.32 0-1.23.62-2.27 0-1.19 2.71-4.45 12.37-6.8 17.7-7.68 13.94-2.31 32.81-2.65 45.51 4.53 5.2 2.94 7.19 6.87 6.64 12.68-.23 2.38 3.43 3.21 3.66.81 1.43-15-12.88-20.16-26.46-21.88-13-1.64-27.69-2-40.1 2.81-3.24 1.26-8.72 3.52-10.3 7-1 2.34-.53 6.13-.68 8.62l-.72 12.37c-.14 2.4 3.6 2.19 3.74-.2zM489.21 231.86c-5 3.72-2.86 8.75 1.34 12 2 1.53 4.19 2.77 5.56 4.93 2.5 4 2.25 9.62 2.37 14.1.07 2.41 3.81 2.22 3.75-.2-.15-5.28-.09-11.71-3.2-16.31-1.63-2.39-11.62-8.54-7.76-11.41 1.93-1.43-.11-4.57-2.06-3.13z"/><path d="M503.58 216.58c0-.46 0 0-.08.19a9.94 9.94 0 01-.64 1c-1.5 1.8-3.95 2.71-6.1 3.43a1.25 1.25 0 00.81 2.37c3-1 8.43-3.17 8.51-7.14 0-1.61-2.47-1.45-2.5.15zM439.69 214.33c.81 3.51 5 6 7.9 7.41 11.77 5.61 27.12 5.06 39.72 3.82 1.6-.16 1.46-2.66-.14-2.5-12 1.19-26.16 1.75-37.52-3.13-2.63-1.13-6.86-3.22-7.59-6.4-.36-1.57-2.73-.75-2.37.8zM445.44 212.6c17.05-6.09 37.91-7.16 54.35 1a1.25 1.25 0 001.13-2.23c-17.05-8.47-38.6-7.47-56.29-1.14a1.25 1.25 0 00.81 2.36zM439.83 233.19c-3.1-2.73-8.16-4.44-11-.49-3.42 4.7-3.75 14.27 1.95 17.53 4.68 2.66 9.53-.76 10.82-5.45.88-3.2 1.56-9.85-2.12-11.87-2.13-1.16-3.84 2.18-1.72 3.34-.45-.25 0-.07.2.43a10.85 10.85 0 01.34 5.37c-.33 2.57-2.09 6.68-5.44 5-3.82-1.88-3.07-8.7-1.33-11.65 1.46-2.46 4.14-.95 5.83.53s4.29-1.15 2.47-2.74z"/><path d="M426.56 246c-2.5 4.35-1.68 9.42.7 13.58 1.83 3.21 5.89 10.6 10.5 10.24 3.06-.24 4.92-4.83 5.58-7.32 1.52-5.81-1.34-10.82-5.59-14.63-1.8-1.61-4.31 1.18-2.51 2.79 3 2.68 5.42 6 4.62 10.23-.3 1.55-1.53 5.06-2.88 4.85-2.5-.37-5.51-6.29-6.59-8.22-1.71-3-2.31-6.63-.5-9.8 1.21-2.1-2.13-3.81-3.33-1.72z"/><path d="M428.59 259.21c-2.85 2.54-4.52 6.64-3.4 10.39.9 3 3.49 5.84 5.23 8.42 1.51 2.23 3.12 4.91 5.53 6.29 3.76 2.15 7.93.2 9.23-3.81 1.59-4.91-2.31-10.27-5-14-1.41-2-4.55.1-3.13 2.06a44.3 44.3 0 013.33 5.32c1.29 2.44 3 6.89-1.27 6.82-2.65 0-3.19-1.38-4.69-3.48-3.34-4.71-8.57-10.51-3-15.47 1.8-1.61-1-4.1-2.79-2.51z"/><path d="M425.58 273.41a18.08 18.08 0 00.25 10c.85 2.55 2.28 4.94 3.35 7.41.6 1.39 1.22 2.78 2.64 3.51 2.42 1.23 6.05-.08 7.93-1.77 3.07-2.74 2.71-6.74 1.5-10.31-.77-2.29-4.34-1.11-3.56 1.18.85 2.51 1.42 5.42-1.27 6.92-3 1.67-3.61-.71-4.62-3-1.94-4.48-3.86-8.15-2.56-13.13.61-2.34-3.06-3.14-3.66-.81zM535 253.88c-.47-5.92-3.73-11.09-7.4-15.54a70.73 70.73 0 01-6.5-8.84 17.86 17.86 0 00-3.31-4.66c-3.53-3-9.43-3.17-13.79-3.67-4.18-.49-10.64-2.08-14.82-1-3 .81-4.34 4.06-4.22 7 .2 5.43 4.81 7.93 9.6 8.77 2.54.45 5.17 0 7.66.45 4.2.67 4.85 6.17 6.56 9.65 3 6.13 9.93 14 3.51 20.62-1.69 1.73 1.1 4.23 2.79 2.51 7.71-7.89 1-17.11-2.82-24.59-1.75-3.44-2.89-9.85-6.85-11.54-4.6-2-10.9 1.33-15.07-2.57-2.22-2.07-2.31-5.66.5-6.66 1.67-.58 5.43.3 7.09.45 4.82.4 10.4.5 15 2.14 4.35 1.55 6.11 7.27 8.79 10.73 4 5.17 9 9.95 9.55 16.89.19 2.41 3.93 2.22 3.74-.19z"/><path d="M495.07 245.51c-4.47 1.08-9.87 1.26-12.87 5.13-4.16 5.35-2.65 11.18 1.51 15.88 2.9 3.27 6.22 6 8.54 9.72 1.85 3 3.05 6.36 5.31 9.11 3.46 4.18 9.25 6.52 14.64 5.18 2.34-.58 1.15-4.14-1.19-3.56-10.75 2.68-14.16-12.26-19.84-18.19-4.11-4.29-11.73-10.64-5.15-16.41 2.58-2.26 6.9-2.49 10.24-3.3 2.34-.57 1.15-4.13-1.19-3.56z"/><path d="M493.58 257.43c.75.55 1.71 3.35 2.41 4.36a18.42 18.42 0 006.1 5.78c5.7 3.19 12.08 3.63 18.34 2.37 2.35-.48 1.15-4-1.19-3.56-6.08 1.22-13.3.39-18-4.07-2.09-2-3-6.07-5.19-7.66-1.94-1.41-4.47 1.37-2.51 2.78zM484.66 264.36c-6.64 5.26-3.51 17.3.13 23.56 2.7 4.63 7.31 8.41 10.67 12.53s6.23 6.76 12 6.32c2.4-.18 2.22-3.93-.2-3.74-5.44.42-7.42-3.29-10.55-6.9-2.46-2.84-5.18-5.51-7.45-8.52-3.34-4.43-7.52-16.15-2.51-20.11 1.88-1.49-.16-4.64-2.06-3.14z"/><path d="M483.23 284.68c-4.55 4.39-2.39 12.55.48 17.14 2.41 3.87 5.31 7.36 7.69 11.28 1.88 3.09 3.76 5.33 7.4 6 2.37.45 3.18-3.21.81-3.67-4.64-.88-8-9.18-10.75-12.85s-7.24-11.18-2.84-15.42c1.74-1.68-1.06-4.18-2.79-2.51z"/><path d="M482.15 297.25c-3.62 6.72-1.2 12 2.33 18.09 4.36 7.55 7.16 15 17 15.93 2.38.21 3.21-3.45.81-3.66-7.78-.71-10.21-6.35-13.6-12.41-2.93-5.24-6.45-10.26-3.24-16.22 1.15-2.13-2.19-3.85-3.33-1.73zM490.47 364.79c3.65 7.83 7.52 15.27 14.09 21 3.54 3.11 7.71 5.77 10.47 9.67 3.54 5 3.34 11 3.06 16.78-.11 2.41 3.64 2.2 3.75-.19.43-9.27-.74-16.52-7.64-23-3.16-3-6.83-5.4-9.84-8.53-4.64-4.82-7.54-10.93-10.33-16.92-1-2.16-4.58-1-3.56 1.18zM554.49 239.76a56.68 56.68 0 01-1.43 11.82 1.25 1.25 0 002.45.52 59 59 0 001.49-12.49c0-1.61-2.47-1.45-2.49.15zM566.53 236.33a150 150 0 002.39 15.93c.32 1.57 2.68.76 2.37-.8a146.21 146.21 0 01-2.29-15.28c-.15-1.6-2.64-1.46-2.49.15zM602.31 231a15.49 15.49 0 015 9.72c.19 1.59 2.69 1.45 2.5-.15A18.25 18.25 0 00604 229.1c-1.18-1.1-2.84.77-1.66 1.87zM624 223.5q4.18 5.69 8.9 10.92c1.08 1.2 2.73-.68 1.67-1.87q-4.5-5-8.48-10.44c-1-1.29-3 .09-2.09 1.39zM638.51 212.74a34.23 34.23 0 0114.2 14.54c.73 1.43 2.81 0 2.08-1.39a36.54 36.54 0 00-15.15-15.38c-1.41-.77-2.54 1.47-1.13 2.23zM517.9 335.21a65.87 65.87 0 0012.31 3.47c4.16.72 10.12-.13 13.71 2.05 1.37.84 2.49-1.39 1.13-2.23-3-1.8-6.38-1.38-9.72-1.68A61.45 61.45 0 01519 333c-1.49-.56-2.63 1.66-1.13 2.23zM536.05 315.78a29 29 0 0112.43 13c.7 1.43 3.07.64 2.37-.81a31.92 31.92 0 00-13.66-14.37c-1.42-.77-2.55 1.46-1.14 2.23zM542.8 290a25.91 25.91 0 003.17 3.71c2.1 2.32 3.15 4.88 4.34 7.71 2.22 5.25 4.42 10.52 6.63 15.77.62 1.48 3 .69 2.36-.8-2.48-5.91-4.89-11.86-7.45-17.75-1.76-4.07-4.66-6.37-7-10-.86-1.36-2.94 0-2.08 1.39zM440.61 294.83c-3 8.82-4.22 21.16 2.8 28.45 1.12 1.16 2.78-.71 1.67-1.86-6.33-6.57-4.66-18.27-2-26.06.52-1.53-1.93-2-2.44-.53zM458.73 303.22a37.1 37.1 0 00.21 12.26c.9 4.58 4 9 3.93 13.67 0 1.61 2.48 1.46 2.49-.15 0-3.7-1.79-6.64-2.93-10.08a33.37 33.37 0 01-1.26-15.18c.22-1.59-2.23-2.12-2.44-.52zM474.83 304.83c4.47 6.84 5.29 19.25 2.44 26.91-.55 1.49 1.68 2.64 2.23 1.13 3.24-8.73 2.56-21.55-2.59-29.43a1.25 1.25 0 00-2.08 1.39zM517.7 173.1a12.56 12.56 0 00-2.38 10.64c.51 2.35 4.07 1.16 3.56-1.18a8.45 8.45 0 011.61-6.95c1.47-1.9-1.31-4.42-2.79-2.51zM405.18 456.35c11.61-11.26-26.21-18.62-30.45-19.57-6.21-1.41-12.45-2.68-18.66-4.06-3.15-.7-6.28-1.42-9.41-2.19-3.43-.84-8.18-3.08-11.73-3-1.88 0-4.14 1.17-5.89 1.68l-83.52 24.7-27.35 8.09a1.91 1.91 0 00-1.28 1.87c0 4.35-.58 6 3.09 8.16a187 187 0 0023.1 11.53c10.07 4.2 21.15 5.55 31.06 9.91 3.21 1.41 8.72 3.9 9.73 7.78a1.91 1.91 0 001.88 1.28c6.76 0 12.71.47 19.16 3 13.09 5.01 23.09 15.57 35.56 22.02a186.09 186.09 0 0029 11.87c3 1 4.14 1.36 6.93.33 28.65-10.53 57-22 85.48-33l30.64-11.83a1.93 1.93 0 001.28-1.87V483a1.93 1.93 0 00-1.47-1.73 177.3 177.3 0 01-25.23-10.54c-13.5-6.73-26.07-15.71-40.9-19.42-8.75-2.19-15.36-1.25-23.45 2.09-2.79 1.15-5.83 1.89-8.7 2.81L309 483.78 292.88 489c-3.59 1.16-4.63 2.05-7.38 5-1.63 1.78 1.16 4.29 2.79 2.51 2.79-3 1.8-2.71 5.77-4l12.59-4.07 42.62-13.79 41.15-13.32c8.86-2.86 20.27-8.52 29.32-7.46 16.78 2 31 12.86 45.68 20.18A183.06 183.06 0 00491.56 485l-1.47-1.73v10l1.28-1.88-74.57 28.8-39.09 15.09c-1.24.47-2.52 1.13-3.8 1.47-.22 0-.44.22-.66.25 1.72-.25 0-.19-.85-.56-9.22-3.9-18.81-6.52-27.85-11-13.84-6.85-24.75-18.5-39.34-23.8-6.64-2.41-12.74-2.84-19.66-2.84l1.88 1.28c-2.95-11.28-22.73-13.06-31.25-15.67a160.23 160.23 0 01-28.86-12.55c-2.41-1.3-4.83-2.61-7.16-4.05-.82-.52 0 1.45.48.18.42-1.11 0-3 0-4.29-.43.62-.85 1.25-1.28 1.88L278.68 448l39.66-11.72 12.92-3.82c3.73-1.11 4.06-1.21 8 0 13.78 4.38 28.4 6.25 42.42 9.77 2.73.69 26.1 6.37 20.74 11.57-1.74 1.68 1.06 4.18 2.79 2.51z"/><path d="M220 464.81a119.53 119.53 0 0028 11.7c12.77 3.31 32.57 3.52 38.58 17.8.93 2.2 4.5 1 3.56-1.19-5.33-12.68-20.45-16.16-32.68-18.52a117.59 117.59 0 01-35.71-13.13c-2.11-1.18-3.82 2.16-1.72 3.34zM295.82 495.49c14.87-2.82 27.34 11 38.94 18.74 11.36 7.61 25 17.89 38.82 20.33l-1.46-1.73v3.33c0 2.42 3.74 2.21 3.74-.19v-3.34a1.88 1.88 0 00-1.47-1.73c-7-1.24-13.71-5.32-19.79-8.77a280.74 280.74 0 01-24.07-15.34c-11-7.83-21.16-17.65-35.89-14.86-2.36.45-1.16 4 1.18 3.56zM378.75 531.59l97.39-40 13.87-5.7c2.21-.91 1.05-4.48-1.19-3.56l-97.39 40-13.87 5.67c-2.22.92-1.05 4.48 1.19 3.56zM370.76 418.33l-54.86 7-30.16 3.84c-6.45.82-11.78-.16-18.58-1 0 .8.09 1.6.14 2.4 6.38-1.91 11.79-3.84 18-4.64l30.33-3.86 36.91-4.7 13-1.65a14.54 14.54 0 013.56-.45c.24 0 .63-.19.86-.11-1.34-.49 1.1.37-.25 3.85-.58 1.49 1.65 2.63 2.23 1.13.95-2.45 1.39-6.64-1.93-7.5-1-.26-2.78.35-3.78.48L341 416.33l-57.16 7.28c-6 .76-11.6 2.87-17.35 4.59a1.26 1.26 0 00.14 2.41c6.13.74 12 2 18.1 1.18l30.11-3.79 56.07-7.14c1.58-.24 1.45-2.74-.15-2.53z"/><path d="M282.11 426.44c-.19-.36 0-.08 0 .07a6.41 6.41 0 01.21.75 3.62 3.62 0 01-.64 2.65c-.91 1.31.95 3 1.87 1.66a6.19 6.19 0 00.63-6.52c-.75-1.42-2.82 0-2.08 1.39zM358.51 416.19c.06.06.08.13-.08-.1.06.09.15.17.21.27a4.41 4.41 0 01.42.77 4 4 0 01-.26 3.27c-.7 1.45 1.53 2.59 2.23 1.13a6.27 6.27 0 00-.86-7.21c-1.13-1.14-2.79.73-1.66 1.87zM141.48 403c16.88 3.08 33.73 6.31 50.51 9.89 5 1.07 10 2.17 15 3.39 2.68.66 7.25 1 9.52 2.72 3.07 2.26 1.79 10.21.9 13.62-1 3.69-2.66 5.4-6 6.47-18 5.8-36.78 9.91-55.06 14.84L132 460.49a21.56 21.56 0 01-2.59.7c-1.3.19.38.11.14.07a48.78 48.78 0 01-6.7-2.24l-55.63-18.55c.42.9.84 1.8 1.27 2.7a25.87 25.87 0 00.11-21.29l-1.19 2.37 75.07-21.31c2.32-.66 1.13-4.22-1.19-3.56l-75.06 21.31a1.89 1.89 0 00-1.23 2.37c2.46 5.84 2.94 12.56.11 18.39a1.91 1.91 0 001.27 2.69L120.07 462c3.93 1.31 7.56 3.39 11.63 2.45 8.31-1.92 16.53-4.46 24.76-6.68 19-5.12 38.66-9.22 57.32-15.45 8.24-2.74 9.31-14.43 7.76-21.81-1.39-6.6-9.52-6.91-15.11-8.25-21.2-5.09-42.7-9-64.14-12.94-2.37-.43-3.19 3.24-.81 3.68z"/><path d="M218.17 416.33l-90.63 24.2a1.9 1.9 0 00-1 2.81c2.72 5.25 5.49 13.43 1.42 18.55-1.5 1.88 1.28 4.4 2.79 2.51 5.32-6.7 2.5-16.21-1.08-23.12-.32.93-.65 1.87-1 2.81l90.63-24.2c2.33-.62 1.14-4.18-1.19-3.56z"/><path d="M66.42 424.3l61.31 19.84c2.3.74 3.08-2.93.81-3.67l-61.32-19.83c-2.3-.74-3.08 2.93-.8 3.66z"/><path d="M205.43 443.7c4.77 4.72 8.28 10.87 5.35 17.53a10.37 10.37 0 01-1.74 2.92c-.59.6 1.09-.64.27-.2-2.72 1.46-6.81 1.84-9.78 2.64l-43 11.59-37.45 10.11c-1.09.3-2.17.6-3.26.88.09 0 1.51.74-.4-.38-4.79-2.81-10.71-4.5-15.82-6.65l-37.28-15.66c.18 1 .36 1.94.53 2.92 7-6.88 1-19.15-3.16-26l-2.42 2.7 47.28 18.29c4 1.55 8.35 4.3 12.65 3.56 8.11-1.41 16.18-4.06 24.18-6.06 2.34-.59 1.15-4.15-1.19-3.56-7.7 1.93-15.62 3.48-23.21 5.81-1.6.5-3.13.15-1 .66a9.83 9.83 0 01-1.73-.67c-3.15-1.47-6.57-2.54-9.8-3.79L59 442.72a1.89 1.89 0 00-2.43 2.7c3.26 5.34 9 16.1 3.51 21.47a1.88 1.88 0 00.53 2.92L96.84 485c5.69 2.39 11.4 5.36 17.27 7.26 2.2.71 3.22.37 5.48-.24l85.32-23c2.73-.74 5.55-.92 7.44-3.06 7-7.91 1.88-18.82-4.41-25-1.72-1.7-4.22 1.09-2.51 2.79z"/><path d="M113.65 467.5c4.07 6.47 7.28 16.27 1 22.31-1.75 1.67 1 4.17 2.78 2.51 7.57-7.28 4.31-19-.66-26.87-1.28-2.05-4.42 0-3.13 2.05zM64.38 494.57c5.37-7.79 2.43-19.3-1.14-27-1-2.17-4.57-1-3.56 1.18 3.21 6.94 6.21 17.1 1.36 24.12-1.36 2 2 3.69 3.34 1.72z"/><path d="M63 497.48l46.47 15.63c3.36 1.13 9.06 4.63 12.37 2.62 9.66-5.84 5.21-19-.17-25.7-1.49-1.87-4.64.17-3.13 2.06 4.32 5.41 7.66 12.31 3 18.58a10.15 10.15 0 01-2.41 2.44c.88-.58 1.77.12.58-.48-5.34-2.74-12-4.05-17.71-6l-38.2-12.82c-2.29-.77-3.07 2.9-.8 3.67z"/><path d="M120.7 516.5l42.3-12.8 30.85-9.34c5.33-1.62 11.89-2.59 16.89-5.12 9.24-4.67 6.16-18.33 1.06-24.63-1.5-1.86-4.66.18-3.13 2.06 3.88 4.8 5.85 10.32 2.87 16.12-.64 1.24-2.82 3.43-1.67 2.8-1.85 1-4.5 1.36-6.52 2l-30.85 9.34-53 16c-2.31.7-1.13 4.26 1.19 3.56zM521.3 517.52c0 4.21.5 7.22 4.45 9.34 2.89 1.55 6.22 2.56 9.25 3.81l29.28 12.07c2.88 1.19 5.42 2.4 8.63 1.45a38.14 38.14 0 005.9-2.76l28.82-14.14c6.14-3 13.53-5.5 19.17-9.41 3.36-2.34 4.29-7.93 1.89-11.33-1.61-2.29-4.67-2.74-7.19-3.5l-30.87-9.28c-2.45-.74-5.34-2.07-8-2-2.29.07-4.75 1.28-6.86 2l-34.05 11.83c-5.92 2.06-19.17 3.82-20.37 11.42-.38 2.38 3.28 3.19 3.66.81.54-3.41 3.71-3.74 6.24-4.62l11.66-4.05 27.86-9.66c4.54-1.58 9.61-4.43 14.46-3.45 7.86 1.58 15.71 4.72 23.38 7l12.08 3.63c3.38 1 8.64 3.8 4 8-1 .88-2.85 1.4-4 2l-11 5.39-25.62 12.57c-4.34 2.13-10.71 7-15.78 5.71-8.57-2.24-17.15-7.07-25.34-10.44-6.31-2.61-18-4.35-18-12.61.1-2.39-3.64-2.19-3.65.22z"/><path d="M529.06 517.8c8.35 3.92 16.77 7.71 25.3 11.23 7.45 3.07 13.67 6.42 21.53 3.68 17.82-6.22 34.85-15.86 51.47-24.72 1.42-.76 0-2.84-1.39-2.08-16 8.53-32.23 17.42-49.21 23.81-2.94 1.11-5.62 2.23-8.75 1.65-4.87-.92-9.79-3.42-14.33-5.32-7.9-3.31-15.73-6.83-23.49-10.48-1.45-.68-2.59 1.55-1.13 2.23z"/><path d="M572.74 499l45.35 13.53c1.55.46 2.06-2 .52-2.44l-45.35-13.54c-1.54-.46-2 2-.52 2.45zM533.38 512.42l47.94 17.69c1.49.55 2.64-1.67 1.13-2.23l-47.93-17.68c-1.5-.56-2.64 1.67-1.14 2.22zM546.35 521.76l4.27 1.77c1.48.62 2.62-1.61 1.14-2.23l-4.27-1.77c-1.48-.61-2.62 1.61-1.14 2.23zM597.45 502.8l3.27 1.16a1.28 1.28 0 001.68-.55 1.25 1.25 0 00-.55-1.68l-3.27-1.16a1.3 1.3 0 00-1.68.55 1.26 1.26 0 00.55 1.68zM567.61 403.12c3.24 7.79 2.73 17.67 10.27 23 1.31.92 3-.94 1.67-1.87-7.08-5-6.53-14.62-9.57-21.94-.61-1.47-3-.68-2.37.81zM588 413a31.53 31.53 0 0014.92 9.67c1.54.46 2-2 .52-2.45a28.52 28.52 0 01-13.36-8.6c-1-1.2-3.14.17-2.08 1.38zM626.55 409.44a11.34 11.34 0 013 12.07c-.51 1.53 1.95 2 2.44.53a13.81 13.81 0 00-3.8-14.47c-1.18-1.1-2.83.77-1.66 1.87zM668.14 385.65a24 24 0 01-3.21 19c-.86 1.36 1.37 2.48 2.23 1.13a26.51 26.51 0 003.35-20.91c-.38-1.56-2.75-.75-2.37.81zM639.61 306.1c1.65 7.1 4.54 14.87 3.21 22.19-.29 1.58 2.16 2.11 2.45.52 1.42-7.84-1.53-15.94-3.29-23.52-.36-1.56-2.73-.75-2.37.81zM651.2 291.43q3.25 9.7 5.83 19.59c.4 1.56 2.77.75 2.36-.8q-2.57-9.9-5.82-19.59a1.25 1.25 0 00-2.37.8zM568 371.74a34.57 34.57 0 006 7.41c1.17 1.1 2.83-.77 1.66-1.87a31.91 31.91 0 01-5.54-6.93c-.83-1.38-2.91 0-2.08 1.39zM461.09 378.62a13.32 13.32 0 01-6.51 11.45c-1.37.84 0 2.92 1.39 2.08a15.88 15.88 0 007.62-13.67c0-1.61-2.49-1.46-2.5.14zM428.47 383.77a9.61 9.61 0 0011.92-2.27c1-1.24-.84-2.9-1.87-1.66a7.1 7.1 0 01-8.92 1.7c-1.42-.77-2.55 1.46-1.13 2.23zM433 413.29c6.48 3.15 13.65 1.08 19.08-3.22 1.25-1-.12-3.08-1.39-2.08-4.71 3.73-10.85 5.85-16.56 3.07a1.25 1.25 0 00-1.13 2.23zM597.34 288.91c3.07 8.47 5.81 17.06 3.85 26.12a1.25 1.25 0 002.44.52c2.07-9.51-.69-18.53-3.92-27.45a1.25 1.25 0 00-2.37.81zM579.87 275.36a71.06 71.06 0 00-.55 19.1c.17 1.6 2.66 1.46 2.49-.14a69 69 0 01.5-18.43c.26-1.59-2.19-2.12-2.44-.53zM673.48 342.92q-1.58 8.49-3.13 17a1.25 1.25 0 002.44.52q1.58-8.49 3.13-17a1.25 1.25 0 00-2.44-.52zM571.06 145.74a17.53 17.53 0 0010 10.81c2.21 1 3.94-2.36 1.73-3.33a13.89 13.89 0 01-8.14-8.67c-.79-2.27-4.36-1.1-3.56 1.19zM509.58 108.1a5.25 5.25 0 01.13-.57c-.06.26.12-.19.24-.25a2 2 0 011.23 0 12.71 12.71 0 014.09 2.1c2 1.35 3.71-2 1.72-3.33-2.41-1.63-6.05-3.72-8.95-2a4.57 4.57 0 00-2.12 3.24c-.25 2.38 3.41 3.2 3.66.81zM545.89 107.16h24.46c2.42 0 2.22-3.75-.19-3.75H545.7c-2.42 0-2.21 3.75.19 3.75z"/></g></g></svg>