<svg xmlns="http://www.w3.org/2000/svg" viewBox="0 0 663.14 536.3"><defs><style>.cls-1{fill:#708080}.cls-2{fill:#d5d5d2}.cls-3{fill:#fffc19}.cls-4{fill:#0dabff}</style></defs><g id="レイヤー_2" data-name="レイヤー 2"><g id="レイヤー_4" data-name="レイヤー 4"><path class="cls-1" d="M344.82 93.47s-3.92-5.36-2.35-8.93 3.67-8 8.31-7.72 20.53-.53 20.53-.53 19.53-2.31 27.15 5.9 8.63 19.93 7.6 25.8-9 36.1-9 36.1-6.83-5.86-11.8-5.59l5.44-7.64s1-5-.06-6.33-4.33-.6-4.33-.6l-4.86 5.68s.9-10.57-2.05-14.58-6.78-8-6.7-11.87a35.07 35.07 0 011.61-8.55s-10.29-.42-14-2.22-9.49-4.88-9.49-4.88-5.09 4.28-6 5.96zM580.38 35.39s-1.76 5.8 1.19 10.3c0 0-5.44-.13-6.69-5.36 0 0-5 8.63-4.21 11.23 0 0-2.56-1.81-2.4-6.64s1.8-6.63 1.8-6.63-8.1-5.24-2.87-11.61c2.09-2.55 7-5 11.62-5.93A37.2 37.2 0 01589 19.61c3 .15 23.5 2.34 35.08 11.61l6.1-11.22S616.07 6.62 603.33 2.55c0 0 9.78-6.33 22.41 5.5S639 31.47 638.8 33.47 636.19 38 635.36 39a13 13 0 01-3.36 2s4.61 11.82 3.39 18.05-2.1 10.74-3.78 12.17-8.51 2.09-11 4.17l-2.49 2.08-.12-7.37a18 18 0 00-4-2.19c-2.22-.83 8.2-3 7.71-10.9s-6.45-2.34-7.22-1.36a20.05 20.05 0 00-1.77 3.41s-5-.9-7.49-3.41a18.63 18.63 0 01-2.9-3.4s-.54.49-2.29-2.94-4.4-8-4.52-10.43-2.75-3-5.19-3.49-3-2.45-5.62-1-4.33 1-4.33 1z"/><path class="cls-2" d="M581.57 20s16.77-1.6 28.43 3.94 14 7.28 14 7.28L630.18 20s-15.31-15.63-26-17.26-14.9 2.71-14.9 2.71-7.53 10.96-7.71 14.55z"/><path class="cls-3" d="M550.41 170.74L563.92 216s9.64-2.23 13.05 5.27l26.24-13.3 13.85-9-2.56-25.28zM570.16 247.27s1.51 12.86 1.84 18.89.55 11.76.55 11.76l54.14 4.24s-5.19-22-5.84-29.2-2-25.62-2-25.62l-36.8 13.21-.87 2.79-.68 2.85h-3s-1.39 1.55-7.34 1.08zM368.7 180.35l2.61 4.16-2.61 19.94 2.61 23.17 3.82 18.57h3.26l3.3-35.95-4.6-23.76 4.48-4.92-5.82-9.92-7.05 8.71z"/><path class="cls-4" d="M360.81 283.44s-13.88 8.83-19.71 10.28-29.17 9-29.17 9l-1.33 127.86 3.1-1.31 4.23-84.17 8.07-1.73s1.78 23.12 1.68 34.08.65 66.35.65 66.35 12.23.36 16.76 1.55 13.12 6.19 14.65 3.79l-1-18.56 5.06-81.1 9.53-1.86s-1.35-46.93 0-50.94 2.64-14.6 2.64-14.6zM288 334.72s-3.93 37.51-4.63 53-1.28 32.65-1.28 32.65l6.47 3s.44-83.67-.56-88.65zM39.73 226.83v12.07a66.33 66.33 0 017.13 14.88c2.44 7.83 6.43 26.63 6.43 26.63s3.27 13.73 4.17 18.81 2.15 12.26 2.15 12.26 13 0 16.5.18 12-1.58 12-1.58a119.29 119.29 0 00-12.66-3.61c-4.19-.73-15.32-4.52-16.69-7.25s-.91-7-.91-7 12.14-4.47 14-5.35 12-.71 14-.65l2 .05s7.21 6.29 9.33 7.29 2.22.29 2.22.29 2.06-10 .73-17.21a62.48 62.48 0 01.45-22.8c1.45-7.29 5.06-27.54 4.57-35.68s-3.44-19.75-3.44-19.75a23.46 23.46 0 00-.73-7.65c-1.08-3.52-2.88-8.72-5.48-11.25a80.28 80.28 0 00-8.34-6.41s-11.46 16.13-13.05 18.3-34.38 35.43-34.38 35.43z"/><path class="cls-3" d="M40.72 228.74s4.63 10.19 6.65 11.23 5 4.19 7.42 1.78 6-7.74 9.25-21 8.12-26.33 12.73-32.68 12.14-16.47 15.11-22.83 12.31-31.13 15.4-35.17 7.85-8 11.88-11.09 3 1.15 5.26-.41 9.74-5.37 10.64-10.28.91-6.9-.88-7.92-6-2.37-7.64-3.47-15.88-10.71-25.85-12.31-26.13.48-33 10.64S58.22 118 59 130.15s-1.47 28.64-7.79 39.68S37.59 201 37.65 208.34s2.06 18.26 3.07 20.4z"/><path class="cls-1" d="M59.61 311.48s11.82.8 16.5.18 13.07-2.77 13.07-2.77 22.27 2 25.15 3 12.83 4.43 15.23 4.64 17.34-1 17.34-1l13.58.53s22.79-.31 29.27 8.79 6.62 18.29 5.66 22.2-15.11 38.72-15.11 38.72-12 34.06-13.94 44.79c0 0-22.63 1.19-26.3-5.53-.49-.89-8.22-.31-8.84-2.35l-.62-2s9-19.52 11.11-31.52 3.55-16.09 3.55-16.09 11.46-1 16-3.27 8.19-3.24 8.58-8.25 1.92-8.09-4.63-11.17c0 0-59.16 7.34-64.94 7.32s-20.88-.08-28.94-4.57l-5-3.41z"/><path class="cls-2" d="M566.74 279.77l9.55 81.7s26 10.42 38.58 10 20.39-.26 23.4-3.37c0 0 10.47-46.09 11.17-62.56 0 0 2-21.4 0-25.78 0 0-37.27 8.66-53.08 5.71L594 279.6h-16.34l-1.34 3.12zM396.84 143.25s.36 12.84-1.69 17.55-9.5 19.19-10.69 27.32-6.07 57.23-6.07 57.23l-21 6.27s4 8.15 3.69 11 .23 2.72.23 2.72 33.21.23 44.93-1.21 15.21-.66 17.08-3.7l30.27 5.72s-3.93-32.07-4.63-43.89-7.45-48-9.9-51.5-4.13-6.23-7.32-7.39-28.08-13-28.08-13-3.39-8.12-4.73-8.34a2.28 2.28 0 00-2.09 1.22z"/><path class="cls-2" d="M366.87 156.05s-.6 33.81.62 41.11 3.15 21.77 3.82 25.05 3.82 24 3.82 24l-16.54 3.73-1.65-.61s-.48-13.48-1.09-18.39-1.31-9.27-1.31-9.27-10.82 20.23-13 22.47-10.1 6.1-15.83 7.36-37.15 6.74-37.15 6.74 1-4.28-1.22-7.37-7.95-8.21-7.95-8.21 20.52-4.21 24.18-5.77 16.78-3.81 20.05-8.66 12.54-37.28 12.54-37.28 4.4-15.93 9-21.91 13.41-10.44 13.41-10.44 5.5-3.38 8.3-2.55zM341.05 285l-4.58 10a32.87 32.87 0 008-2.68c4.83-2.22 14.07-8.13 14.07-8.13zM395.55 353.11l1.22-.45a18.08 18.08 0 01-1.22-5c-.06-2.85 1.58-20.09 2.2-24.67s4.21-19 6.66-22.7 10.73-8.94 17.48-10.64c5.36-1.34 24.13-4.45 31.59-5.67-.07-4.61-.08-8.55-.08-8.55l-78.34 6.94s-2.4 35.07-2.25 43.36 1.55 40.81 5.95 60.32 5.58 28.65 7 29.82 2.66 1.62 3.06-.05 6.13-17.47 6.16-20.73.18-9.26-1.58-12-5-13.24-4.07-18.2 6.22-11.78 6.22-11.78z"/><path class="cls-2" d="M421.12 299.67c-5.4 4.05-11.37 12.72-13.11 19.66-1.33 5.32-2.74 22.65-3.32 30.43 6.82-2.5 15.94-5.81 21.82-7.88 10.41-3.66 22.93-13.57 24-22.78.95-8.22 2.81-19 3.08-25.94-9.75 1.1-28.52 3.55-32.47 6.51z"/><path class="cls-4" d="M593.22 114.32s-4.89 24.16-6.87 33.75-3.15 22.67-3.15 22.67l3.75-.21s4.75-21.43 5-22.25 15.85-34.95 15.85-34.95l-12.31 11.15s-3.12-7.14-2.27-10.16z"/><path class="cls-3" d="M129.65 426.91s-5.88 3.25-5.69 7.86l10.39 7.87 21.49 17.08s14.39 5 25.56 4.47a72.15 72.15 0 0018.78-3.2s2.08-3.16 0-4.84-6.84-6-15.51-4.43l-10.11-6.15-2.33-.64s-12.23-.93-16.47-4.11-14.1-10.95-16.11-10.24-1.81 1.71-1.81 1.71-5.97-1.29-8.19-5.38z"/><path class="cls-1" d="M286.15 422.22s-5.23 7.07-13.9 7.8-22.36.11-22.34 3.76 3.29 8.11 3.29 8.11 15.39 4.89 21.36 3.68a132 132 0 0114-1.77v-20.48zM313.1 430.58l.39 8.9-2.89 1.57v-10.47h2.5zM327.26 443.85l-15.89 13.3v10.68s8.09 3.26 15.42 2.68 11.61-3.62 13.64-5.92 4.82-7.09 9.7-8.25 6.45-2.34 6.45-2.34l1-4.25S347.12 445 344 444.3s-13.86-1.3-16.74-.45zM564.24 500.38s-17.06 3.87-17.22 5.86 2.46 4.43 6.33 5.47 11.6 3.44 16.53 2.18 24.63-10.32 24.63-10.32-.21 8.74 1.84 9.71 3.78-3 3.78-3 4-9.18 3.43-13.92a56.53 56.53 0 00-1-6.65s-13.67 8.1-20.71 10-9.82 3.57-12.42 3.47-5.19-2.8-5.19-2.8zM603.56 514.08s-2.38 10.09.43 14.48 5.68 7.2 11.12 6.51 8.65-3.68 9.55-7.1-1-12.27-1-12.27-3.24 7-11 5.68-9.1-7.3-9.1-7.3z"/><path d="M574.51 38.34a21.18 21.18 0 00-2.13 10.4c.5 5.55 4.37 9.6.29 14.69-1.18 1.47-3.94 3.5-2.81 5.7 1.86 3.62 7.06-.44 6.35 5.88a1.13 1.13 0 00.5 1 20.57 20.57 0 002.68 1.8c1.9.82.35-1.13.32.08s-.64 2-.14 3.24a43.07 43.07 0 003.81 6.37 6.47 6.47 0 003.25 2.68c9.12 3.24 18.81-8.07 24.12-13.78 1-1-.48-2.79-1.49-1.7-3.64 3.91-7.59 8.39-12.24 11.09-4.81 2.79-9.82 3.83-12.89-1.67-.82-1.46-2.93-4.35-2.14-5.9a1.22 1.22 0 00-.33-1.6c-1.15-.81-2.78-1.7-3.15-2.48-.55-1.16.49-2.75-.38-4s-1.68-1-2.93-1.5c-1.63-.67-2.91 0-2.29-2.18.2-.74 2-2.06 2.42-2.72a9.81 9.81 0 001.51-7.23c-.43-3.23-2.35-6-2.3-9.33a19.92 19.92 0 011.83-7.64c.59-1.29-1.24-2.6-1.86-1.25z"/><path d="M598 86.05c.81 5.37 1.73 11.58.37 16.92-.36 1.41 1.73 2.15 2.1.71 1.47-5.77.56-12.34-.31-18.15-.22-1.48-2.38-.92-2.16.52zM616.9 70.05c0 6.49-.12 13.17.88 19.59.23 1.47 2.38.91 2.16-.53-1-6.21-.82-12.69-.83-19a1.11 1.11 0 10-2.21-.1zM570.6 37c-3.75 5-5.17 12 .32 16.24.86.65 1.83-.35 1.69-1.24-.49-2.94-.38-7.12 2.25-9 1.13-.82.16-2.9-1-2-3.6 2.6-4.07 7.48-3.38 11.59l1.68-1.24c-4.48-3.42-2.58-9.2.33-13 .87-1.16-1-2.43-1.86-1.25z"/><path d="M574.34 38.92c-.77 4.48 2.93 7.77 6.89 8.81a1.16 1.16 0 001.16-1.89 9.6 9.6 0 01-1.08-9.84c.62-1.28-1.22-2.59-1.86-1.25a12.1 12.1 0 001.3 12.65l1.16-1.88c-3.06-.81-6-3-5.36-6.52.25-1.46-2-1.53-2.21-.09zM571 37.77c-3.4-1.1-4.29-5.58-3.56-8.64 1.29-5.43 7.13-7 12-7.23 1.42-.06 1.53-2.37.1-2.31-6.24.26-13.18 2.67-14.39 9.61-.7 4.08.79 9.36 5.14 10.78 1.38.44 2-1.77.69-2.21z"/><path d="M572.29 32.8c-3.23-6.59 5.75-10.47 10.63-11.66 1.38-.33.92-2.6-.49-2.25-4.86 1.19-10.84 3.39-12.51 8.68a8.85 8.85 0 00.41 6.32c.65 1.34 2.59.21 2-1.09z"/><path d="M577.18 33.39c-.24-4.62 3.87-7.78 7.87-9 1.36-.4.9-2.67-.49-2.26-4.91 1.46-9.89 5.48-9.59 11.13.08 1.46 2.29 1.58 2.21.09zM584.37 36c2.34-4.86 7.56-7.68 12.81-7.81 1.43 0 1.54-2.34.11-2.31-6 .14-12.09 3.3-14.78 8.87-.61 1.29 1.22 2.6 1.86 1.25z"/><path d="M589.48 35.49c5.37-2 11.9-.72 17.12 1 1.38.46 2-1.76.68-2.2-5.56-1.84-12.57-3.19-18.29-1-1.32.49-.87 2.76.49 2.25zM594.93 38.58a53.52 53.52 0 0017.75 5.63c1.42.17 1.52-2.14.1-2.31a50.52 50.52 0 01-16.65-5.27c-1.29-.67-2.46 1.3-1.2 1.95zM598.34 44.88c.5 6.39 7.09 9.69 12.64 10.72 1.4.26 1.49-2.05.1-2.31-3.48-.65-7.1-2.06-9.17-5.09a8.4 8.4 0 01-1.13-2.31c-.07-.24-.27-1.5-.23-.92-.11-1.45-2.32-1.57-2.21-.09z"/><path d="M601.36 52.79a12.53 12.53 0 0011.32 7.42c1.43 0 1.53-2.28.1-2.31a10.35 10.35 0 01-9.46-6.2c-.56-1.38-2.5-.24-2 1.09z"/><path d="M613.66 58.83a12.58 12.58 0 012.11-2.91c.78-.79 1.84-1.73 3-1.57 1.91.25 2 1.83 1.44 3.33a21 21 0 01-2.43 3.86c-1.15 1.79-2.6 5.08-5 5.21-1.42.08-1.53 2.39-.1 2.31 3.42-.18 5.19-3.43 6.83-6 1.46-2.31 3.61-4.58 3.28-7.54a4.13 4.13 0 00-5.73-3.21c-2.31.84-4.13 3.19-5.26 5.29-.68 1.26 1.15 2.56 1.86 1.25zM582.5 20.59c2.4-4.54 4.94-13 9-15.22 9.33-5 21.56 1.94 28.84 7.45 2.52 1.91 5.37 3.92 7.38 6.35 1.1 1.32 1-.66 1 1.1s-3 5.43-3.88 7.11c-.32.59-1.23 1.66-1.24 2.29 0 1.79-.6-.56.85.45-1-.72-2.12-1.39-3.21-2-12.06-7.1-26-10.68-39.94-9.25-1.41.15-.94 2.4.49 2.25a62.48 62.48 0 0141.63 11.1 1.09 1.09 0 001.53-.35l6.13-11.25a1.2 1.2 0 00-.11-1.4C621.61 10 606.82-2.33 592.46 2.53c-6.78 2.29-8.76 11-11.82 16.81-.64 1.27 1.16 2.57 1.86 1.25z"/><path d="M602.86 4c8.15-4.6 20.25 1.82 25.32 8.28a48.18 48.18 0 016.14 11.08c.59 1.4 1.21 2.8 1.78 4.21a15.88 15.88 0 011.59 5.83c0 1.63-3.53 7.25-5.38 6.49-1.34-.56-2 1.66-.68 2.2 4.92 2 8.24-4.67 8.28-8.59 0-5.69-4.08-13.06-6.85-17.91C627.61 6.06 613.22-4.45 601.83 2c-1.24.7-.26 2.77 1 2.05z"/><path d="M629.2 38.14a36 36 0 014.71 21.56 33.62 33.62 0 01-1.44 7.45c-1.4 3.88-4.38 5-8.1 5.82-2.32.5-4.15.86-5.59 2.83-.86 1.17 1 2.44 1.86 1.25 2.46-3.36 8.57-1.62 11.6-4.89s3.39-8.26 3.88-12.36a38 38 0 00-5-22.74c-.76-1.27-2.7-.16-2 1.08zM586.76 58.71c0 1.7-.91 3.07-2 3.07s-2-1.37-2-3.07.91-3.06 2-3.06 2 1.35 2 3.06zM579.53 51.73S586 49 590.14 49.91a.35.35 0 00.28-.64c-2.49-1.65-6.54-3.56-10-1.45a2.72 2.72 0 00-.89 3.91zM580.68 78.3l3.52-.75a1.15 1.15 0 00-.49-2.25l-3.52.75a1.15 1.15 0 00.49 2.25zM587 76.53a5.46 5.46 0 003.15-2c.73-1.24-1.1-2.54-1.86-1.25-.07.14 0 0-.13.17l-.17.15a6 6 0 01-.75.42l-.33.14c-.07 0-.3.12-.1 0l-.3.1a1.21 1.21 0 00-.84 1.39 1.12 1.12 0 001.33.87zM618.66 87.65c-3.34 13-10.83 23.86-17 35.55-7.8 14.8-13.86 30.59-15.83 47.29-.17 1.47 2 1.55 2.21.09 2.11-17.83 9-34.63 17.69-50.23 5.77-10.4 12-20.33 15-32 .36-1.41-1.73-2.15-2.1-.7z"/><path d="M620 86.23c2.53-.61 4.7 13.69 5 15.51.15.76.34 1.52.44 2.29.16 1.25.09.35.49-.22-1.11 1.58-5.11 3-6.74 3.94a1.22 1.22 0 00-.46 1.56c.88 2.3 2.64 4.7 3.2 7 .52 2.12.76.45 0 2.38a9.94 9.94 0 01-1.93 2.39c-4.07 4.65-8.78 8.79-13.24 13.06-7.33 7-16 14.94-18.82 25-.4 1.41 1.7 2.14 2.11.71 3.88-13.66 18-23.46 27.54-33 2-2 7.37-6.16 7.27-9.5-.07-2.43-2.69-4.92-3.4-7.3s-.55-.94 2-2.17c1.29-.62 2.51-1.49 3.74-2.22a1.23 1.23 0 00.57-1.29c-.69-3.74-1.85-22-8.31-20.44-1.38.33-.92 2.59.49 2.25z"/><path d="M599.05 93.93a52.09 52.09 0 00-5.89 18.82c-.29 2.48-2.08 11.69.29 13.73a1.11 1.11 0 00.85.15c3.5-1.28 6.78-5.65 9.27-8.22 4.18-4.28 8.81-9 11.37-14.46.6-1.29-1.23-2.6-1.86-1.25-2.13 4.56-5.74 8.43-9.14 12.07-2.69 2.87-7.37 5.79-9.42 9.07-.51.81.31 1.88.54.81a12 12 0 00-.12-2.53 63.81 63.81 0 01.43-9.27 49.53 49.53 0 015.53-17.67c.69-1.26-1.14-2.56-1.85-1.25z"/><path d="M599.23 90.22c-3.89 1.73-5.16 5.45-7 9-2 3.84-4.15 7.6-6.32 11.34a1.19 1.19 0 00.59 1.73l3.49 1c-.14-.65-.27-1.3-.41-2-2.28 2.35-5.56 4-6.48 7.18-1 3.48-.48 8-.51 11.55-.09 10.33 0 20.73.93 31 .13 1.48 2.29.92 2.16-.52-.79-9.24-.9-18.57-.89-27.83 0-3.85 0-7.73.27-11.56.31-4 3.26-5.31 6-8.15a1.19 1.19 0 00-.41-2l-3.49-1 .59 1.73c1.75-3 3.48-6.07 5.15-9.14 1.93-3.57 3.41-8.63 7.33-10.38 1.29-.58.31-2.64-1-2z"/><path d="M598.82 92.59a274.26 274.26 0 00-10.58 37.62c-2.72 13.39-4.07 27-6.14 40.49-.23 1.46 2 1.54 2.21.09 2.14-13.94 3.49-28 6.44-41.81a279.64 279.64 0 0110.18-35.68 1.11 1.11 0 00-2.11-.71zM591 101.67q-6.71 5-13.37 10.07c-5.14 3.9-9.81 6.66-11.7 13.08-2 7-2.11 14.45-2.54 21.63a134.21 134.21 0 01-3.78 23.73c-.35 1.41 1.75 2.16 2.1.71a137.07 137.07 0 003.66-20.77c.62-7.36.48-14.85 2-22.1 1.65-7.65 6.38-10.54 12.29-15q6.38-4.84 12.78-9.62c1.15-.86-.31-2.59-1.49-1.71z"/><path d="M564.09 212.71l-12.6-42.23-1.13 1.42c16.95.1 33.9.18 50.84.15 4.19 0 8.38 0 12.57-.08 2 0 2.92.44 2.36-1a13.68 13.68 0 01.22 3.57q.71 11.6 1.4 23.18c.09 1.46 2.3 1.58 2.21.09q-.81-13.49-1.63-27c0-.56-.39-1.22-1.06-1.2-22.24.66-44.56.13-66.81 0a1.16 1.16 0 00-1.13 1.42l12.6 42.22c.43 1.42 2.58.89 2.16-.52zM620.16 226.74q1.13 13.17 2.34 26.34c.89 9.61 1 19.9 3.11 29.34l1.13-1.41c-13.92-1-27.84-2-41.75-3.1-3.23-.26-6.46-.52-9.68-.85-1.81-.18-2.28-.78-1.66.83a12.4 12.4 0 01-.12-3.23c-.35-8.44-.38-17.34-2.29-25.6a1.11 1.11 0 00-2.16.52c2.11 9.12 2.06 19 2.36 28.29a1.16 1.16 0 001.06 1.2c17.9 2.34 36.13 3 54.14 4.25a1.16 1.16 0 001.13-1.42c-2.15-9.44-2.22-19.73-3.11-29.35q-1.2-13.16-2.34-26.33c-.13-1.48-2.28-.92-2.16.52z"/><path d="M573.2 131.49c-1.12 6-2.28 12-3.53 18-1.48 7.08-4.32 14.36-2.29 21.6a1.11 1.11 0 002.16-.52c-2-7.31 1.27-15.63 2.75-22.88q1.58-7.73 3-15.49c.27-1.42-1.83-2.18-2.1-.71zM624.58 97.93c9.93 7.22 20.12 14.27 29.58 22.1 8.39 7 7 17.68 5.69 27.41-.72 5.47-1.4 10.88-2.45 16.31-3 15.55-6.42 32-13.33 46.34-2.18 4.54-4.45 7.77-9 9.95-6 2.87-12.31 5.11-18.54 7.4-11.5 4.21-23.09 8.17-34.73 12-1.34.44-.89 2.71.49 2.25q16.61-5.43 33-11.36c9.8-3.56 23.38-6.24 29-15.9 8.22-14.15 11.56-31.92 14.75-47.77 1.11-5.54 2-11.06 2.66-16.66 1-8.33 3-17.81-1-25.71-3.4-6.72-12.07-11.38-17.9-15.73q-8.49-6.33-17.07-12.56c-1.19-.86-2.35 1.11-1.2 2z"/><path d="M634.31 141.71c-2.35 10.89-5.15 21.61-8 32.38-1.6 6.1-3.33 12.26-4.35 18.49-.19 1.15-1.14 6 1.66 4.73a1.15 1.15 0 00.59-1v-.07a1.15 1.15 0 00-1.36-1.18c-4.23.81-7.57 3.4-10.93 5.87-4 2.92-8.29 5.39-12.47 8q-11.1 6.84-22.33 13.47c-1.22.72-.24 2.79 1 2q10.71-6.34 21.32-12.84c4.16-2.56 8.37-5.09 12.41-7.85 3.65-2.49 7-5.54 11.46-6.39l-1.31-1.16c1.33.26 1.94 0 1.83-.92 0-.35.07-.71.11-1.06a20.36 20.36 0 00.64-3.53c.49-2.43 1.07-4.85 1.66-7.27 1.28-5.24 2.66-10.45 4.08-15.65 2.29-8.38 4.25-16.82 6.08-25.31.31-1.42-1.79-2.17-2.1-.71zM636 220.4c-.08 8.19 3.78 15 6.23 22.57a216.1 216.1 0 018 31c.19 1.18.34 5 1.24 4-.46.51-2.36.66-3 .83-4.82 1.26-9.7 2.29-14.61 3.13a154.12 154.12 0 01-23.57 2.32c-2.36 0-4.71 0-7.06-.09-1.34 0-4.59.34-5.61-.13s-1.58-2.9-2.13-4.54c-.47-1.4-2.63-.87-2.16.52l1.68 5a1.17 1.17 0 001 .89c18.57 1.92 38.26-.38 56.14-5.77a1.15 1.15 0 00.86-1.07c-.53-10.55-4-21.23-7-31.28-2.63-8.77-7.94-18.16-7.86-27.36a1.11 1.11 0 10-2.21-.1zM563.61 254.27a150 150 0 00-.45 21.3c.16 2.25.05 3.63 1.82 4.83 2.73 1.86 7.89 2.52 11.14 2.92a1.16 1.16 0 001.11-.8c.49-1.24 1-2.48 1.48-3.72s-1.56-2.09-2.11-.71c-.28.7-.82 3.17-1.37 3.44.53-.25-5-1.87-5.76-2.11s-3.7-.64-4.25-1.38c.24.33.07-3.84 0-4.6a181.21 181.21 0 01.56-19.07 1.11 1.11 0 10-2.21-.1z"/><path d="M565.66 280q4.77 40.86 9.55 81.7a1.15 1.15 0 00.74.84c17.5 7.38 41.64 14.52 60.2 7.66 2.75-1 2.89-1.13 3.59-3.44 1-3.19 1.55-6.54 2.27-9.79 2.6-11.65 4.86-23.39 6.59-35.2 2-13.86 3.84-28.32 1.93-42.29-.2-1.48-2.35-.92-2.16.52 2.92 21.38-1.92 44.35-6.13 65.25-1.32 6.56-2 14.11-4.51 20.38-1.07 2.73-.75 2-4.55 3.13a51.48 51.48 0 01-17.71 1.34c-10.44-.76-20.74-3.37-30.63-6.71-2.47-.83-4.88-1.77-7.32-2.68-.93-.35-.52 1-.3-.83.57-4.79-1.29-11-1.84-15.77l-3-25.5-4.58-39.13c-.17-1.48-2.33-.92-2.16.52zM602.48 514.34c2.8 10.94 19.2 10.94 22.18.1.39-1.41-1.71-2.15-2.1-.71-2.36 8.57-15.67 8.87-17.92.09a1.11 1.11 0 00-2.16.52z"/><path d="M601.45 369.7c3.25 24.38 3.53 48.91 5.49 73.4 1.12 14 1.67 27.91 1.42 41.93-.08 4.38.23 9.25-.89 13.52-1.55 5.92-4.31 11.38-5.44 17.46-1.9 10.18 2.36 22.56 14.65 19.94 14.69-3.13 8.31-19.78 6-29.94-1.85-8.13.44-16.92 1.58-25 1.75-12.45 3.57-24.88 5.22-37.33 1.5-11.3 3.19-22.59 2.67-34-.31-6.84-2-14.11-.86-20.91 1.08-6.24 2.34-12.34 2.89-18.67a1.11 1.11 0 10-2.18-.1c-.85 9.74-3.73 18.94-2.86 28.74a152.9 152.9 0 01-.16 31.51c-2.45 21.25-6 42.36-8.66 63.59a45.74 45.74 0 00-.62 7.2c.24 7.77 4.41 15 4.31 22.81-.06 4.58-1.46 8-6 9.43-4.11 1.3-8.48 1.37-11.32-2.24-5-6.4-2.72-15.15-.48-22.15 1.23-3.87 3.2-7.67 3.82-11.7.72-4.59.54-9.47.59-14.11q.24-19.44-1.36-38.78c-2.09-25.05-2.3-50.14-5.63-75.08-.2-1.48-2.36-.92-2.16.52z"/><path d="M605 412.44c-1.42 17.89-2.85 35.79-4.71 53.64a111.9 111.9 0 00-1.07 11.55c0 6.14 3 11.67 3.08 17.8 0 1.57-3.33 18.72-6.13 16.5-.84-.66 0-7.29 0-8.58a1.12 1.12 0 00-1.62-1.07c-7.06 3.24-14.27 7.58-21.68 9.86-4.79 1.48-10.68.57-15.45-.51a35.9 35.9 0 01-6-1.82c-2.18-.91-4.41-1.67-2.34-3.59 2.32-2.16 8.7-2.59 11.7-3.25s6.15-1 8.83-2.38c2.9-1.48 5.6-4 8-6.14 2.85-2.49 6.66-5.41 8.37-8.91 1.27-2.62.82-5.85.8-8.69 0-6.52-.19-13.05-.37-19.58-.46-17.15-1.09-34.31-2.21-51.44-1-14.82-4-29.21-5.28-44-.13-1.48-2.28-.91-2.16.52 1.26 14.19 4.2 28 5.15 42.25 1.22 18.23 1.89 36.51 2.35 54.78.16 6.42.33 12.84.32 19.26a20.87 20.87 0 01-.09 4.54c-.94 3.75-5.61 7.12-8.37 9.54s-5.57 5.08-9 6.35c-4 1.47-8.52 1.88-12.65 2.93-2.78.71-11.3 2.38-8.51 7 1.83 3 7.76 4.16 10.75 4.84a40.82 40.82 0 0013.84 1.16c4.86-.6 9.45-3.48 13.84-5.5l11.23-5.16-1.62-1.09c0 2.48-1.41 15.11 5.2 10.83 3.48-2.25 4.59-11.56 5.09-15.21 1-7.36-2.8-13.9-2.82-21.15 0-11.29 2.21-23 3.2-34.23q1.35-15.47 2.58-31a1.11 1.11 0 10-2.21-.09z"/><path d="M563.42 501.82c3.58 5.11 11.53 1.52 16 0 7.73-2.63 16.57-5.44 22.9-10.79a1.13 1.13 0 00-1.49-1.7c-5.33 4.5-12.84 7-19.29 9.32-3.8 1.37-13.44 6-16.51 1.62-.85-1.22-2.44.41-1.63 1.56zM583.08 300.24q5.34 9.06 10.7 18.1a1.12 1.12 0 002-1.08L585 299.16a1.12 1.12 0 00-2 1.08zM585.4 317.09a65.76 65.76 0 007.81 11.73c.95 1.15 2.55-.47 1.64-1.56a62.5 62.5 0 01-7.48-11.26c-.69-1.33-2.63-.2-2 1.08zM554.48 188a223.92 223.92 0 00-1.52 17.14c-.32 6.22-1.3 14.41 1.64 20.19.68 1.33 2.62.21 2-1.08-3-6-1.65-15.06-1.24-21.52.31-4.88.75-9.77 1.37-14.63.18-1.47-2-1.56-2.21-.1zM565 225.06c.88 3.25 1.7 6.89 3.77 9.6A36.92 36.92 0 00580 244.93a1.13 1.13 0 001.35-.12c3.47-2.65 1.3-6.43-1.34-8.64-1.12-.94-2.28 1.05-1.2 2 1.53 1.29 3 3.46 1 5l1.35-.13a35 35 0 01-10.16-9.2c-2.12-2.67-2.94-6-3.83-9.24a1.11 1.11 0 00-2.16.52z"/><path d="M560.4 228a47.25 47.25 0 003.52 9.26c1.85 3.28 5.47 5.5 8.61 7.43 1.72 1.06 5 3.61 7 3.61 3 0 1.8-3.48.94-4.93a1.12 1.12 0 00-2 1.09c.63 1.06 2.19 2 .5 1.17-.95-.44-1.87-1-2.79-1.46a59.72 59.72 0 01-6.33-4c-4.41-3.16-5.83-7.67-7.37-12.68-.43-1.41-2.59-.88-2.16.52z"/><path d="M558 232.65c1.56 4.55 2.75 8.54 6.59 11.58 1.71 1.35 3.85 3.43 6 4.06 1.91.57 4.41.12 6.38.06 1.43 0 1.54-2.36.1-2.31a25.89 25.89 0 01-5.35.06c-1.93-.38-3.74-2.14-5.28-3.33-3.7-2.84-4.78-6.31-6.27-10.64-.48-1.39-2.63-.87-2.16.52z"/><path d="M569.65 246.25c-2.37 1.65-7.38-1.24-9.06-3.26s-2.28-5.26-3.14-7.56c-1.65-4.41-1.63-12.15 2.71-15.77 2.64-2.21 5.75-3.86 9.14-2.8 5.83 1.83 7.17 6.64 9.58 11.51a27.71 27.71 0 002.77 4.2c.3.41 2.05 2.06 2 2.51 0 0-6.27-3.31-6.73-3.89-1.62-2.05-2.09-4.33-4.22-6.05-1.14-.92-2.3 1.06-1.2 1.94 4.36 3.53 3.56 11.72 10.88 11.29 5.58-.33 4.32-3.08 1.9-6.05-4.72-5.8-5.22-12.67-12.09-16.77-4.68-2.79-8-.94-12.32 1.51a7.54 7.54 0 00-2.34 1.19c-1.55 1.14-2.27 3.39-2.66 5.17a25.34 25.34 0 00-.09 11.23c.86 3.27 2.37 8.32 4.86 10.66 2.91 2.72 7.35 5.56 11 3 1.15-.81.17-2.89-1-2z"/><path d="M554.53 233.22c-.79 2.07-2.16 5.54-1.26 7.75.46 1.12 1.41 1.11 2.08 1.89 1.11 1.29.66 4 1.35 5.57s1.52 1.37 2.82 2.56c1.11 1 1.28 2.5 2.81 3.08 3.17 1.19 5.84-1.75 6.73-4.4a1.11 1.11 0 10-2.1-.7c-1 3-3.09 3.32-5.18 1.33-.59-.57-1.18-1.22-1.77-1.77-1.83-1.73-1.44-3.86-2.5-6.17-.52-1.14-2-2-2.23-3.12-.29-1.53.8-3.85 1.35-5.32a1.11 1.11 0 00-2.1-.7zM360.64 248.77l-22.3-3.77c-1.4-.23-1.49 2.08-.1 2.31l22.3 3.74c1.4.23 1.5-2.08.1-2.31zM423.29 261.6l19.38 3.25c4.79.8 12.15 2.6 15.91 2.2-5.53.58-11.11.87-16.66 1.31l-91.84 7.19-106.74 8.36-37.11 2.91c-6.3.49-13 1.53-19.3 1s-12.79-3-18.92-4.95l-26.62-8.28-41.77-13a1.15 1.15 0 00-.68 2.2c26.14 8.14 52.22 16.52 78.43 24.42 8.37 2.53 16.19 1.93 24.61 1.27l34.52-2.7 109.5-8.61 95.82-7.5 12-.94c1.4-.11 3.41.11 4.74-.37 5.36-1.95-.56-4.27-2.85-4.65L430 260.4l-6.62-1.11c-1.41-.24-1.5 2.07-.1 2.31zM127.29 221c18-.52 36.6-2.89 54.45.1l86.33 14.47 27 4.52c1.4.24 1.5-2.07.1-2.31L228 226.53l-42.15-7.07c-5.59-.94-10.93-2.14-16.59-2l-41.88 1.21c-1.43 0-1.53 2.35-.1 2.31zM111.39 219.15l-6.2.19c-1.42 0-1.53 2.35-.1 2.31l6.2-.19c1.42 0 1.53-2.35.1-2.31z"/><path d="M458.36 267.44c0 1.18.48 7 .3 7.18s-1 0-1.24.1c-2 .72-5.06.39-7.19.56l-30 2.35-96.46 7.56-94.35 7.4-28.81 2.26c-7.72.6-14.8 1-22.52-1.29-26.38-8-52.64-16.39-78.95-24.58a1.16 1.16 0 00-.68 2.21L174 294.7a60.15 60.15 0 0023 2.73l25.28-2 194-15.2 34.72-2.71c2.25-.17 4.87 0 7.07-.55 4-1 2.52-6 2.51-9.44a1.11 1.11 0 10-2.21-.09z"/><path d="M287.45 289.06v168.81c0 3.46-.2 7 0 10.44.19 3.26 2.17 4.11 5.41 5.46 4.74 2 17.12 3.09 18.85-3.78.42-1.66 0-4 0-5.69V289.15a1.11 1.11 0 10-2.21-.09v176.39c0 1.95.24 4-.5 5-2.07 2.82-8.38 2.75-11.33 2.27s-5-1.91-7.59-3.06c-1.24-.55-.47 1-.42-.62.1-3.1 0-6.21 0-9.31V289.15a1.11 1.11 0 10-2.21-.09zM71.69 359.13c-5-5.39-5.5-15-6.64-21.89-2.08-12.58-4.16-25.16-6.41-37.72-2.34-13.1-4.8-26.25-8.51-39-2.74-9.46-6-19.29-13.05-26.47a31.8 31.8 0 00-26.19-9.7C5.55 224.78.23 227 0 233.07-.2 239 2.53 245.47 4.27 251c5.71 18 13.64 36.34 15.91 55.26 1.41 11.71.72 23.67 1.57 35.43.51 7 .7 16.12 5.53 21.74 5.23 6.08 13.95 10.14 21.2 13.13 7.43 3.06 14.84 4.74 22.86 4.17 10.81-.77 21.63-1.48 32.43-2.37 16.86-1.4 33.92-2.66 50.57-5.77 5.3-1 10.75-2 14.4-6.35 4-4.84 4.15-13.68-2.07-16.9-1.29-.67-2.46 1.29-1.2 1.95 8.63 4.46 2 15.35-4.84 17.51a90.29 90.29 0 01-14 2.72c-14.17 2.08-28.48 3.35-42.75 4.53-10.37.86-20.75 1.59-31.13 2.28-14.54 1-29.11-4.6-40.55-13.58-7.11-5.58-7.6-14.48-8.23-23-.78-10.59-.63-21.22-1.26-31.81-1-16-7.13-31.76-12.13-46.86-2.43-7.33-5-14.66-6.94-22.14a30.31 30.31 0 01-1.39-7.23c0-4.75 3.65-6.47 7.86-7a29.74 29.74 0 0126.32 9.91c8.06 8.89 11.07 21.73 13.86 33.09 3.09 12.55 5.34 25.31 7.55 38 2.08 11.94 3.88 23.94 6.06 35.86 1 5.76 2 12.65 6.17 17.11 1 1.08 2.61-.52 1.63-1.57zM105.59 419.5c-3.1 3-10.57 4.06-13.56.17.65.84.15-.12.19-1.19v-21.27l-1.71.92a20.21 20.21 0 0016.34.05l-1.62-1.07v23.19c0 1.47 2.21 1.58 2.21.1v-23.24a1.12 1.12 0 00-1.62-1.07 18.13 18.13 0 01-14.11.05 1.12 1.12 0 00-1.71.92v9.58c0 4.06-.77 9 0 13 1.34 6.89 13.19 5.39 17.08 1.6 1.02-1.04-.43-2.78-1.49-1.74z"/><path d="M90.62 378.32v18.74a1.11 1.11 0 102.21.1v-18.74a1.11 1.11 0 10-2.21-.1zM104.7 378.32v18.74a1.11 1.11 0 102.21.1v-18.74a1.11 1.11 0 10-2.21-.1zM87.09 424.2q-12.51 11.88-24.86 23.92c-5.23 5.13-10.52 10.27-15.63 15.55-3 3.08-5.7 5-5.7 9.36a1.11 1.11 0 102.21.09c0-4.16 4.33-7.1 7.18-10 5.13-5.2 10.36-10.31 15.6-15.41q11.28-11 22.69-21.82c1-1-.41-2.72-1.49-1.7zM92.92 444.62c4.18 2.13 9.16 1.72 13.4.05 1.32-.52.33-2.58-1-2-3.46 1.35-8.27 1.52-11.17 0-1.3-.66-2.47 1.31-1.2 1.95z"/><path d="M93 442.63l-43.41 29.42c-1.17.79-.19 2.87 1 2.05L94 444.67c1.17-.79.19-2.87-1-2zM50 476.93c4.57 4.82 1.16 13-5.76 12-6.37-1-7.62-8.72-2.95-12.51 1.11-.91-.35-2.64-1.5-1.71-6.28 5.12-3.81 15.79 4.63 16.6 8.83.84 13-9.84 7.21-15.9-1-1.08-2.62.52-1.63 1.56zM31 448.22c2.53 6.08-3.88 12.36-9.8 9-5.44-3.11-4-10.93 1.68-12.71 1.35-.43.9-2.69-.49-2.26-7.87 2.47-9.5 13.54-1.66 17.3 8 3.85 15.41-4.73 12.23-12.39-.57-1.38-2.51-.24-2 1.09zM159.66 468.58c4.63 4.75 1.41 13-5.57 12.05-6.37-.86-7.77-8.6-3.15-12.46 1.1-.92-.36-2.65-1.49-1.7-6.21 5.19-3.64 15.83 4.82 16.53 8.82.74 12.88-10 7-16a1.13 1.13 0 00-1.63 1.56zM108.05 424.29q12.39 9.19 24.68 18.54c5.54 4.22 11.08 8.46 16.51 12.82 3.32 2.67 6.27 4.66 7.95 8.6.59 1.37 2.53.24 2-1.09-1.57-3.66-3.68-5.36-6.76-7.88-5.43-4.45-11-8.72-16.6-13q-13.2-10.07-26.54-20c-1.18-.87-2.34 1.11-1.2 2z"/><path d="M108.05 444.62l21.8 11.2 13.87 7.12c2.93 1.5 4.44 2 6 4.53a1.12 1.12 0 002-1.09c-3.58-6.06-13-8.62-19.08-11.73l-23.31-12c-1.3-.66-2.47 1.3-1.2 1.95zM393.52 401.52c3.3.68 8.87.64 11.22-2.46 1.06-1.38.77-2.63.77-4.43v-20a1.12 1.12 0 00-1.62-1.07c-3.66 1.81-8.59 1.53-12.45.61-1.4-.34-2.06 1.87-.68 2.2 4.43 1.06 9.94 1.32 14.16-.77l-1.62-1.07v14.66c0 2.49.05 5 0 7.46 0 1.33 0 .64.1.56-2 2.44-6.58 2.63-9.19 2.09-1.41-.29-2.08 1.91-.69 2.2zM382.41 405.67q-5.31 9.1-10.64 18.19c-3.15 5.36-9.24 12.07-9.24 18.44 0 1.47 2.21 1.58 2.21.1 0-3 1.54-4.85 3.08-7.45q3.39-5.71 6.74-11.44 4.88-8.29 9.71-16.59c.73-1.25-1.1-2.55-1.86-1.25zM391.25 418.6a20.48 20.48 0 0014-.41c1.31-.51.86-2.78-.49-2.26a18.66 18.66 0 01-12.84.47c-1.37-.48-2 1.73-.69 2.2z"/><path d="M389.45 415.56l-18.65 26.16a1.12 1.12 0 001.86 1.25l18.65-26.16a1.12 1.12 0 00-1.86-1.25z"/><path d="M373.23 445.21c4.57 4.81 1.16 13-5.76 12-6.37-1-7.62-8.73-3-12.52 1.11-.9-.34-2.64-1.49-1.7-6.28 5.11-3.82 15.78 4.63 16.59 8.82.85 13-9.83 7.21-15.9-1-1.07-2.62.53-1.63 1.57zM455.27 425.59c4.63 4.74 1.41 13-5.57 12.05-6.37-.87-7.76-8.61-3.15-12.47 1.1-.92-.35-2.65-1.49-1.7-6.21 5.19-3.64 15.83 4.83 16.54 8.82.73 12.87-10 7-16a1.14 1.14 0 00-1.64 1.57zM406.38 400.14q11.44 4.44 22.78 9.12c5.16 2.14 10.33 4.3 15.4 6.66 3.66 1.71 6.07 2.45 7.67 6.18.59 1.38 2.53.24 2-1.08-3.13-7.31-14.31-9.76-21.11-12.61q-12.93-5.42-26-10.47c-1.36-.53-2 1.68-.69 2.2z"/><path d="M406.38 416.76l20.86 4.05 13.47 2.63a27.93 27.93 0 014.17.81c1.53.55.22-1.1.22 1.33 0 1.48 2.22 1.58 2.22.1v-2.29a1.16 1.16 0 00-.77-1.15l-39.48-7.69c-1.41-.27-2.08 1.94-.69 2.21zM90.87 419.22q-17.49 4.62-34.87 9.45c-7.42 2.06-14.85 4.12-22.21 6.39-4 1.23-7 2-10 4.91-1 1 .42 2.73 1.49 1.7 3.17-3.07 7.21-3.82 11.41-5.08 7.32-2.2 14.69-4.25 22.06-6.28q16.25-4.51 32.61-8.84c1.37-.36.91-2.62-.49-2.25zM30.33 445.67l38.14-7.17c1.4-.26.93-2.52-.49-2.25l-38.14 7.17c-1.4.26-.94 2.52.49 2.25zM127 116c1.14 5.55.34 11.09-1.13 16.5-.58 2.15-1.5 4.41-1.09 6.67.55 2.93 3 5.48 4.34 8.05 1.09 2 1.42 1.91-.3 3.14a18.33 18.33 0 01-3.56 1.57 1.12 1.12 0 00-.59 1 21.15 21.15 0 01-2.65 8.75c-1 1.93-2.27 7.33-3.91 8.54-4 2.93-10.85-2.2-12.7-5.52a17.83 17.83 0 01-2-7.63c-.06-1.46-2.27-1.58-2.21-.09.32 7.64 4.47 14.35 12.35 15.92 3.22.64 5.33.48 7-2.42 2.33-4.16 5-9.43 6-14.18.22-1.14 1-3.18.08-2.41 1.36-1.18 4.25-1.07 5.38-2.58 1.44-1.94-.08-3.82-1.2-5.74s-2.91-3.93-3.54-6c-.7-2.37.36-4.67 1-6.95 1.47-5.6 2.19-11.35 1-17.07a1.11 1.11 0 10-2.27.45z"/><path d="M122.14 137.39c0 2.1-.91 3.81-2 3.81s-2-1.71-2-3.81.91-3.81 2-3.81 2 1.71 2 3.81zM124.26 125.39s-6 2.31-9.66 5.73a.41.41 0 01-.64-.5c1.37-2.75 3.82-6.86 6.63-7.92 4.34-1.64 3.96 1.83 3.67 2.69z"/><path d="M124.93 119.33c5.63-3.43 13.32-10.54 11-18.15-1.16-3.79-5.53-3.59-8.53-5.36-2.06-1.21-3.84-2.8-5.8-4.15-14.94-10.27-38.36-13.94-52.39-.1-12.91 12.75-11 33.56-11.46 50.12-.53 19-12.31 36-17.87 53.9-3.5 11.26-4.15 21-.49 32.33 1.31 4.08 3.3 10.81 7.61 12.85 1.31.61 2-1.6.69-2.2-3.22-1.52-5.61-9.25-6.65-12.74-2.86-9.57-2.49-17.83.27-27.38 4.6-15.9 13.89-30.45 17.6-46.55C62 138.44 59 124.19 62 110.58c1.89-8.5 5.93-16.46 13.59-21.08 9.82-5.92 21.92-5.69 32.46-2a54.17 54.17 0 0114.46 7.74 37.32 37.32 0 005.15 3.36c3 1.56 6.31 1.35 6.15 6-.2 5.68-5.48 10-9.92 12.74-1.21.74-.23 2.81 1 2z"/><path d="M129 102.51c-.21 10.67-11.34 14.18-17.76 20.7-8.43 8.56-11.28 20.11-15.68 30.93a115.62 115.62 0 01-10.45 20.42c-3.69 5.57-8.14 10.49-11.5 16.3-5.37 9.32-9.73 19.95-10.66 30.74a1.11 1.11 0 102.21.1c1.09-12.57 6.91-25.3 14.09-35.54 4-5.7 8.37-10.89 11.74-17A146.13 146.13 0 0099 151.32c5.06-13.07 9.2-24.48 21.34-32.51 5.71-3.78 10.67-8.88 10.81-16.2a1.11 1.11 0 10-2.21-.1zM46.31 210.41c-1.59 8.89-3.63 23.73 4.31 30.23 1.13.93 2.29-1 1.2-1.94-6.87-5.63-4.79-19.83-3.4-27.58.25-1.42-1.84-2.18-2.11-.71zM62.45 196.71c-1.36 6.51-2.53 13.08-3.47 19.67a92.59 92.59 0 00-1.14 13c0 3.49.3 9.23-3.57 11.06-1.28.61-.3 2.67 1 2 6.55-3.09 4.54-13.58 5.07-19.24a234.92 234.92 0 014.19-25.82c.29-1.41-1.8-2.17-2.11-.7zM55.49 174.66c-3.8 8.27-7.74 16.65-10.49 25.34a1.11 1.11 0 002.11.71c2.73-8.49 6.56-16.7 10.28-24.79.6-1.29-1.23-2.6-1.86-1.25zM110.41 114.72c-8.24 9.33-15.26 20.42-19.1 32.29a1.11 1.11 0 002.11.71c3.7-11.47 10.52-22.28 18.48-31.3.94-1.07-.51-2.82-1.49-1.7zM102.89 163.35c-3.45 4.92-6.45 10.86-6.94 16.92a1.11 1.11 0 102.22.09c.45-5.65 3.36-11.17 6.58-15.76a1.12 1.12 0 00-1.86-1.25z"/><path d="M86.74 174.09c9.11 4.85 13.92 14.12 14.44 24.29.07 1.47 2.29 1.58 2.21.1-.56-11-5.58-21.08-15.45-26.34-1.29-.68-2.45 1.28-1.2 2z"/><path d="M85.5 182c19.54 9.4 19.83 34.74 17.29 53.2-1.5 10.9-4.68 21.76-5.08 32.8-.18 4.78 1.16 9.19 1.39 13.92a62.17 62.17 0 01-.93 12.63c-.23 1.46 2 1.54 2.21.1a57.41 57.41 0 00.82-14.33c-.5-5.19-1.56-9.87-1.08-15.16 1.21-13.27 5-26.15 5.89-39.49 1.14-17.12-2.63-37.6-19.83-45.87-1.3-.62-2 1.6-.68 2.2z"/><path d="M100.8 215.73c-1.6 14.78-6.11 28.51-10.46 42.63a20.43 20.43 0 00-1.38 7c.06 1 .78 2.39.67 3.33-.07.6-.87 1.32-.86 1.86 0 1.42.84 2.21.94 3.7.22 3.25-.82 9.42-3.2 11.77-1 1 .43 2.74 1.49 1.7 3.17-3.12 4.52-10.91 3.93-15.15a4.92 4.92 0 00-.8-1.55c0 .14.69-.69.68-1.06 0-3.14-.81-5.77.06-9 4.06-15.13 9.44-29.42 11.14-45.15.16-1.47-2.05-1.56-2.21-.09zM64.76 225.17q-1.89 11.22-3.63 22.47c-.65 4.31-1.34 8.62-1.8 12.95-.49 4.56-2.67 10.44-1.26 15 .43 1.41 2.59.88 2.16-.52-1.31-4.22.9-10.64 1.39-15.11s1.23-9 1.92-13.46q1.63-10.62 3.43-21.23c.25-1.46-2-1.53-2.21-.09z"/><path d="M89.23 270.89c-7.28-.31-15.47-1.23-22.61.51-3 .74-8.74 2.51-10.67 5.18-1 1.39-.63 3.15-.63 4.9a1.11 1.11 0 102.21.09c0-3-.46-2.94 1.69-4.45A25 25 0 0172.54 273c5.51-.28 11.08-.06 16.59.18a1.16 1.16 0 00.1-2.31zM56.94 293.88c9.33-4.21 19.58-9.85 30-7 1.4.39 2.06-1.82.69-2.2-11.1-3.08-21.72 2.62-31.69 7.11-1.29.59-.31 2.65 1 2.05z"/><path d="M55 283c8.25-1.92 17.15-3.61 25.62-2.68 1.43.16 1.53-2.16.1-2.31-8.64-.95-17.8.78-26.21 2.74-1.38.32-.92 2.58.49 2.25zM101.65 290.12a46 46 0 017-2.22c2.69-.59 3.31-.63 6 .91.77.45.61 1 1.66 1.26s2.17-.1 3.25.06c1.92.27 2.81 1.28 4.41 2.35 2.62 1.76 4.66 3.33 6.1 6.31.65 1.35 2.59.22 2-1.08s-1.06-3.18-2.17-4.37c-1.47-1.59-3.82-2.18-5.51-3.58a7.71 7.71 0 00-2.59-1.87c-2-.63-3.44.48-5.48-.65-2.4-1.32-3-2.39-6.2-2a41.4 41.4 0 00-9.41 2.8c-1.32.51-.33 2.57 1 2z"/><path d="M102.66 293.4a20.8 20.8 0 004.68 6.88c1.66 1.52 3.78 2.49 5.53 3.94.76.63 1.94 2.3 3 2.48 2.74.48 3.17-4.53 2.43-6.1s-2.35-2.6-3.64-3.88c-1.11-1.11-1.46-2.66-2-4.12s-2.62-.88-2.16.52c.54 1.62 1 3.53 2.12 4.84s2.68 1.89 3.4 3.43a2 2 0 01.09 2.55c-.7.6-.56.8.43.58-.37-.27-.68-.64-1-.94-2.38-2.17-5.53-3.55-7.65-5.95a20.43 20.43 0 01-3.3-5.32c-.61-1.36-2.55-.23-2 1.09z"/><path d="M118.17 293.4c1.1 1.74 2.29 3.48 3.22 5.32 1.13 2.24 1.28 4.82 1.82 7.24.15.66.24 1.36.43 2 .24.84-.15.77.29.56.62-.3-1.29-.36-1.61-.63s-.64-1.16-.89-1.61l-3.13-5.69a1.12 1.12 0 00-2 1.08c1.84 3.34 4.35 11.91 9.34 8a1.17 1.17 0 00.33-1.11 67.64 67.64 0 00-1.9-9.18c-.84-2.54-2.56-4.84-4-7.1-.79-1.25-2.73-.14-2 1.09z"/><path d="M124.24 295.13a22.41 22.41 0 012.52 8.78c.07 1 .13 2 .15 3 0 .41-.25 1.91 0 2.21-.07.66.09.52.48-.41a2.64 2.64 0 01-2.59-.39c-1.27-.72-2.44 1.25-1.2 1.95a5 5 0 004.93.43 1.17 1.17 0 00.59-1c0-2.48-.05-4.93-.29-7.41a23 23 0 00-2.63-8.29c-.66-1.34-2.6-.21-2 1.08z"/><path d="M129.92 299a33.14 33.14 0 002 6.55c0 .08.23.62.34.68s.05.23 0 .08a.3.3 0 01.11-.26c-.07-.06-.35-.06-.5-.1a3.84 3.84 0 01-2.36-2.65c-.45-1.41-2.61-.88-2.16.52a6.39 6.39 0 003.32 4.13c1.11.49 2.68.61 3.46-.52.93-1.36-.39-3.07-.84-4.35a38.72 38.72 0 01-1.28-4.6 1.11 1.11 0 00-2.16.52zM85.88 287.21c5.54 4.76 11.83 8.94 19.21 10 1.42.2 1.52-2.12.1-2.31-6.94-1-12.91-5.13-18.1-9.6-1.11-.95-2.27 1-1.21 1.95zM56.75 291.89c-1.16 6.19 3.3 11.17 8.82 13.18 8.6 3.12 18.28 4.18 27.27 5.56 9.2 1.41 19.6 1.51 28.5 4.32 3.66 1.16 6.64 2.76 10.57 3a46.62 46.62 0 0015.91-2.15c1.35-.42.89-2.69-.49-2.26a45.35 45.35 0 01-14.24 2.11c-4.1-.07-6.79-1.43-10.49-2.68-6.7-2.27-14.5-2.42-21.47-3.41-8.89-1.26-17.81-2.57-26.59-4.47-6.21-1.35-17.35-3.59-15.69-12.45.27-1.42-1.83-2.17-2.1-.71zM146.56 310c2.6.56 4.51 2 6.66 3.44 1.12.76 2.24 1.51 3.39 2.22.62.4 2.53 1.15 2.89 1.72.8 1.25 2.74.14 2-1.08-1.21-1.9-4.64-3.19-6.48-4.42-2.52-1.69-4.7-3.43-7.75-4.08-1.41-.3-2.07 1.91-.68 2.2z"/><path d="M146.18 305.64c3.32-.45 4.85 2.78 7.31 4.4 1.38.91 6.82 3.38 5.94 5.68a1.11 1.11 0 002.11.71c1.24-3.26-3.12-6.3-5.52-7.65-3.69-2.08-5.62-6-10.33-5.39-1.4.19-.94 2.45.49 2.25z"/><path d="M131.82 301.24c4.18-.1 9.17-1.43 13.07-.12a39.5 39.5 0 015.93 2.48c2.5 1.36 3.55 3.67 4.73 6.18.64 1.35 2.58.22 2-1.09-.92-2-1.93-4.45-3.59-5.92-2.06-1.81-5.18-2.47-7.62-3.56-4.55-2-9.43-.4-14.38-.28-1.43 0-1.54 2.34-.1 2.31zM144.15 316.68c12.2-.05 25.52.45 37.11 4.44 10.28 3.55 14.53 13.73 13.29 24.14-.83 6.92-4.17 13.55-6.8 19.92-8.29 20.1-17.57 39.66-21.74 61.15a12 12 0 00-.53 2.87c.18 2.4-.6-.16.61.21-2.52-.78-6-.39-8.65-.7a58.39 58.39 0 01-12.44-2.48c-1.17-.41-4.06-2.45-3.94-.67 0-.4 1.17-1.9 1.34-2.19 9.49-16.45 8.43-37.11 19.22-52.8a1.12 1.12 0 00-1.86-1.25c-11.35 16.5-9.23 38.57-20.64 55.11a1.2 1.2 0 00.33 1.6c7.15 5.07 18.37 5.38 26.85 5.71a1.18 1.18 0 001.16-1.11c4.14-26.49 17.06-50.1 26.45-74.9 3.35-8.84 4.86-18.64-.16-27.26s-13.93-10.71-23.22-12.19a162.8 162.8 0 00-26.29-1.91c-1.43 0-1.53 2.31-.1 2.31z"/><path d="M65.9 351.58c15.1 10.55 37 7.33 54.1 5.42 17.9-2 35.76-4.53 53.56-7.33 1.4-.22.93-2.47-.5-2.25-16.32 2.57-32.7 4.89-49.12 6.82-17.65 2.08-41.11 6.36-56.82-4.61-1.21-.84-2.37 1.14-1.21 1.95zM143.27 425.78c-2.7.46-4.86 3.16-6.09 5.39-1.74 3.14-3.62 8-3.07 11.73.21 1.47 2.37.92 2.16-.52-.4-2.72 1.41-7.5 2.77-10 .94-1.71 2.6-4 4.72-4.38 1.4-.24.94-2.5-.49-2.25zM162.05 430.84c.77 5.24 4 10.19 7.69 13.82 1.06 1 2.66-.56 1.64-1.57-3.43-3.38-6.45-7.89-7.17-12.77-.21-1.47-2.37-.92-2.16.52z"/><path d="M139.31 431.68c9.18 4.06 17.15 12 27 14.33a18.15 18.15 0 005.09.26c2.17-.08 1.62-.45 3.69 1.17 3.22 2.53 6.53 5.17 10.3 6.85 1.32.59 2-1.63.68-2.2-3.89-1.74-7.23-4.65-10.58-7.23s-5.86-.17-10.07-1.5c-9.13-2.9-16.66-10-25.43-13.88-1.32-.58-2 1.63-.68 2.2z"/><path d="M182.58 452.44a30 30 0 016.42-.21c3.23.24 12.29 2.89 10.18 8.11-.12.3 1.25-1.1 0-.29a8.87 8.87 0 01-2 .48q-3.74.86-7.52 1.49c-12.9 2.13-24.71.45-36.27-5.91-1.28-.71-2.45 1.26-1.21 1.95 7.52 4.13 16.41 7.43 25.05 7.45a92 92 0 0023.19-3.39 1.16 1.16 0 00.81-.77c2.31-10.61-12-12.18-19.15-11.16-1.41.19-.94 2.45.49 2.25zM60.79 312.46c10.05.48 21.11.84 30.82-2.1 1.36-.41.9-2.67-.49-2.25-9.52 2.89-20.36 2.51-30.23 2a1.16 1.16 0 00-.1 2.31zM38.62 225.17v13.68c0 1.47 2.21 1.58 2.21.1v-13.69a1.11 1.11 0 10-2.21-.09zM144.21 372.5a159.92 159.92 0 00-3.66 16.93 109.31 109.31 0 01-7.29 22.66c-1.08 2.51-4.53 6.64-3.48 9.35 1.55 4 7.91 4.07 11.19 3.71 1.4-.15.94-2.41-.49-2.25-2.4.26-7.62.3-8.83-2.68.08.21.76-1.06 1.45-2.46a126 126 0 006.08-14.8c3.36-9.72 4.14-20 7.14-29.76a1.11 1.11 0 00-2.11-.7z"/><path d="M130.49 421.47c-.64 1.74-2.49 4.55-1.63 6.36 1.61 3.4 5.38 5.22 8.93 5.61 1.43.16 1.52-2.15.1-2.31a9.42 9.42 0 01-5.53-2.38 8.42 8.42 0 01-1.16-1.37c-.1-.14-.35-.8-.5-.87s-.25.9.12.44a7.74 7.74 0 00.69-1.85l1.09-2.92a1.11 1.11 0 00-2.11-.71z"/><path d="M129.41 425.78c-4 1-6.1 5.17-6.55 8.94-.18 1.48 2 1.56 2.21.1.33-2.79 1.93-6.06 4.83-6.79 1.37-.34.92-2.6-.49-2.25z"/><path d="M106 421.45l23.32 4.7c1.41.29 2.07-1.92.68-2.2l-23.31-4.7c-1.41-.29-2.08 1.92-.69 2.2zM139.09 396.92l-32.21 3.32c-1.4.14-.94 2.4.49 2.25l32.21-3.32c1.41-.14.94-2.4-.49-2.25zM36.09 369.47q.66 19.62 1.33 39.24a1.14 1.14 0 001.35 1.17l51.65-5.64c1.4-.15.94-2.41-.49-2.25l-51.65 5.64 1.35 1.18q-.63-19.62-1.33-39.24c0-1.47-2.26-1.58-2.21-.1zM175 293.67v17.95c0 1.47 2.22 1.58 2.22.09v-17.94c0-1.48-2.22-1.58-2.22-.1zM128 128.91h43.7c2.3 0 4.63.11 6.93 0 .89 0-.44-1.2-.38-.62s0 1.43 0 2.12V200c0 .76-.06 1.54 0 2.29.09 1.1.41-.19.72-.26a26.15 26.15 0 01-4.6.13l-23.19.65-47.32 1.34c-1.07 0-1.15 1.76-.07 1.73l75.21-2.15a.86.86 0 00.87-.83v-74.82a.86.86 0 00-.79-.9h-51.03c-1.07 0-1.15 1.73-.07 1.73z"/><path d="M126.65 134.45h39c2 0 4.09-.08 6.13 0 .93 0-.67-1.39-.46-.66a6.84 6.84 0 010 2.07c-.56 6.12 0 12.57 0 18.72v24.61c0 5.27-1 11.7 0 16.89.29 1.45 1.08.17.26.13-1.93-.1-3.92.07-5.85.11l-21.21.42-41.41.82c-1.07 0-1.15 1.76-.08 1.74l69.09-1.37a.87.87 0 00.86-.83v-63.48a.86.86 0 00-.79-.9h-45.47c-1.07 0-1.15 1.73-.07 1.73zM132.22 203.68c-1.46 3.11-2.8 6.3-4 9.53-1.12 3-3.29 7.72-1.92 11 .57 1.37 2.51.24 2-1.09-1.16-2.78 1.66-8.18 2.65-10.74s2-5 3.17-7.47c.61-1.29-1.22-2.59-1.86-1.24zM116.05 204.85c-1.46 3.12-2.81 6.3-4 9.53-1.12 3.05-3.29 7.72-1.93 11 .57 1.38 2.51.24 2-1.08-1.15-2.78 1.66-8.19 2.65-10.74s2-5 3.18-7.47c.6-1.29-1.23-2.6-1.86-1.25z"/><path d="M127 223.52c6.63 0 11.74 1.66 17.95 4.24a13.23 13.23 0 013 1.37c1.52 1.37.56 3.92 2.82 2.64a3 3 0 01-1.2.09c-2.38-.35-5.49.43-7.88.61l-37.82 2.91c-1.41.11-1.52 2.42-.1 2.31l46.93-3.61a1.16 1.16 0 001.16-1.11c.08-6.15-5.68-7.28-10.5-9a36.76 36.76 0 00-14.29-2.73c-1.43 0-1.53 2.31-.1 2.31zM110.11 222.19a11.63 11.63 0 00-5.71 1.81c-1.15.86.31 2.58 1.49 1.7-.45.34 0 0 .11 0 .29-.15.58-.3.88-.42a14.37 14.37 0 013.72-.8c1.41-.15.94-2.41-.49-2.25z"/><path d="M107.7 231.62l33.7-2c1.42-.09 1.53-2.4.1-2.31l-33.7 2c-1.42.08-1.53 2.39-.1 2.31zM403.34 151.5c7.33 3.12 14.6 6.45 21.67 10.13 3.68 1.91 9 4.05 11.74 7.3 1.51 1.78 2.06 4.31 2.67 6.51 5.44 19.51 7.75 40.22 10.2 60.28 1.2 9.84 2.52 19.79 2.67 29.71 0 1.48 2.24 1.59 2.21.1-.32-20.67-3.9-41.66-7.21-62-1.57-9.68-3.12-19.51-5.81-28.95-1.9-6.68-4.81-9.08-11-12.56A262 262 0 00404 149.3c-1.33-.57-2 1.65-.68 2.2zM452.29 295.12c.32 15.05-1.59 29.05-15 38.34-6.4 4.44-13.73 7.48-21.06 10-3.61 1.25-8.52 1.88-11.74 4-1.16.78-.19 2.86 1 2 4.23-2.85 10.94-3.65 15.68-5.47 7.41-2.84 14.85-6.31 20.93-11.5 11.31-9.64 12.65-23.52 12.35-37.38 0-1.47-2.24-1.59-2.21-.1zM395 352.09c-7.29 4.46-7.87 13.82-5.73 21.22 2 6.83 5 13.9 4.6 21.16a25.7 25.7 0 01-1.59 7.07c-1.21 3.43-2.05 8.37-3.93 11.4-2.4 3.86-2.93-2.75-3.48-5q-1.27-5.18-2.47-10.38c-1.89-8.22-3.61-16.48-5.07-24.79a267.93 267.93 0 01-3.68-54.77c.37-11.9 1.13-23.85 2.59-35.67.18-1.48-2-1.56-2.21-.1-3.6 29.23-4.17 59.17.69 88.27 1.5 9 3.34 17.9 5.36 26.78q1.2 5.26 2.5 10.51c.62 2.51.86 6.32 2.19 8.54 3 4.9 5.22-1 5.94-3.59 1.69-6.07 5-11.83 5.41-18.21.69-11.91-13.67-32.11-.06-40.44 1.21-.73.23-2.81-1-2z"/><path d="M373.05 295.56a137.71 137.71 0 00-27.78 7.05c-5.21 2-10.75 4.33-14.76 8.31-4.17 4.13-5.2 10.32-5.71 15.95-1.33 14.94 1.8 29.95 1.8 44.9 0 13.23-.23 26.45-.42 39.67-.16 10.79-.46 21.59-.5 32.39 0 .55.42 1.24 1.06 1.2 5.91-.38 12.24-.37 18 1 4.71 1.12 10.1 5.79 15.23 4.23a1.2 1.2 0 00.86-1.08c.31-7.18-1.26-14.18-.93-21.39.45-9.92 1.36-19.81 2-29.72.73-10.89.69-21.83 1.56-32.7.69-8.55 1.68-16.83.49-25.38-.21-1.48-2.36-.92-2.16.52 1.81 13-.9 26.39-1.21 39.43-.32 14-1.7 27.91-2.59 41.85a106.85 106.85 0 00-.42 14c.21 3 .85 6 1 9.09a31.27 31.27 0 01.05 3.49c-.06.9 1.32-.22.18-.23-5.69 0-10.68-3.95-16.34-4.85a63.37 63.37 0 00-8.14-.67c-1.57 0-5.34-.74-6.7.08-.75.44-.23 1.35.24.31.36-.78 0-2.59.05-3.46l.18-11.3q.27-16.47.48-32.94c.12-9.09.27-18.19.19-27.28-.11-12.63-2.52-25.15-2-37.81.28-6.74 1.05-14.31 6.6-18.83 4.69-3.82 10.73-6.07 16.41-7.93a147.17 147.17 0 0123.72-5.63c1.4-.21.94-2.47-.49-2.25z"/><path d="M364 350.6l9.53-1.85a1.16 1.16 0 00-.49-2.26l-9.53 1.86c-1.4.27-.94 2.53.49 2.25zM287.5 331.23c-3.8 19.93-4.5 40.58-5.5 60.77q-.57 12-.94 24c0 1.16-.51 3.16-.13 4.27.85 2.46 5 3.55 7.24 4.15 1.4.38 2.06-1.83.69-2.2a22.13 22.13 0 01-5.24-2.2c-.65-.36-1-.92-.47.31a4.25 4.25 0 010-1.23c0-2.08.12-4.17.19-6.25q.4-12 1-24.05c.95-18.91 1.65-38.23 5.2-56.86.27-1.42-1.83-2.17-2.11-.71zM311.12 304.21c7.68-3.67 16.11-6 24.39-7.92 1.38-.32.93-2.58-.49-2.25-8.48 2-17.06 4.37-24.93 8.13-1.28.61-.3 2.67 1 2zM316.82 338.29q-1 23.46-2.07 46.92-.71 15.71-1.46 31.42c-.16 3.25-.31 6.5-.5 9.75a8.34 8.34 0 01-.14 2.3c-.42.94.31-.39.21-.3a10.42 10.42 0 01-2.77 1.18c-1.31.56-.32 2.62 1 2 2.64-1.12 3.35-1.08 3.79-3.61a66.46 66.46 0 00.44-8.11c.53-10.56 1-21.12 1.48-31.68q1.13-24.9 2.2-49.82a1.11 1.11 0 10-2.21-.09zM327.59 443c-2.91 2.51-5.87 5-8.95 7.27s-7.48 4-9.09 7.87c-.57 1.35 1.53 2.07 2.11.7 1.4-3.35 6.91-5.64 9.79-7.87 2.6-2 5.14-4.12 7.63-6.27a1.13 1.13 0 00-1.49-1.7zM310.77 468.81c9.44 4.8 21.3 5 29.49-2.46 1.74-1.58 3.06-3.55 4.74-5.18 3-2.92 6.5-3.93 10.27-5.38s3.46-2.7 3.46-6.43c0-1.48-2.21-1.59-2.21-.1 0 .86.41 2.95 0 3.59-.64 1-4.68 1.58-5.81 2-4.13 1.62-6.79 4.15-9.68 7.36-7.59 8.44-19.09 9.68-29 4.62-1.3-.66-2.47 1.3-1.21 1.95z"/><path d="M312.39 430.79v8.86l.59-1-2.12 1.35c-1.19.76-.21 2.84 1 2.05.74-.47 2.06-1 2.53-1.75a5.07 5.07 0 00.18-2.36v-7.07a1.11 1.11 0 10-2.21-.1zM284.27 421.86c-4.3 12.51-36.7 1.42-35.43 15.7.6 6.69 9.73 7.27 14.61 7.92 4.34.56 8.74 1.4 13.12.8 4-.54 7.86-1.33 11.93-1.33 1.43 0 1.54-2.3.11-2.31-6.09 0-12 1.89-18 1.41-4.47-.36-10-.66-14.28-2.05-3.4-1.11-6.61-3.78-4-7.29 1.72-2.26 4.64-2.36 7.28-2.59 8.15-.72 23.33.46 26.76-9.55a1.11 1.11 0 00-2.1-.71zM360.29 282.42c-7.41 4.76-16.36 10.65-25.27 11.62l1.18 1.75c1.3-2.47 3.55-8.66 6.12-9.84 1.29-.59.3-2.65-1-2-3.22 1.48-5.38 7.66-7 10.63a1.16 1.16 0 001.17 1.75c9.13-1 18.24-7 25.81-11.83 1.19-.76.21-2.84-1-2zM448.24 358.78c6.94 1.31 15.67-7.36 19-12.48 6.33-9.67 9.67-21.75 12.63-32.8 1.53-5.68 5.64-15.51 3.17-21.41-1.8-4.3-7.4-6.94-11.4-8.55-3.5-1.4-7.47-1.29-11.17-1.14-11.91.5-23.9 2.84-35.43 5.76-6.86 1.73-14.13 3.43-19 8.91-7.15 8-8.67 20.54-10.14 30.68-1.34 9.17-4.54 25.36 3.57 32.79 4.31 3.95 13.86 3.38 18.78 3.21 10.2-.35 20.6-2.92 30.59-4.95a1.15 1.15 0 00-.5-2.25c-14 2.85-29.63 7-44 3.93-7.1-1.53-7.71-11.24-7.71-17.05 0-12.32 1.91-26.51 6.81-37.92a21.63 21.63 0 0113.63-12.68 172.21 172.21 0 0128.18-6.45c8.42-1.33 19.38-3.84 27.35.19 3.34 1.69 8.27 3.74 8.85 7.93.4 2.87-.86 6.42-1.47 9.21a177.84 177.84 0 01-10.19 32.78c-1.87 4.33-4 8.81-7.34 12.21-2.63 2.65-9.53 8.63-13.56 7.88-1.38-.27-2.04 1.94-.65 2.2z"/><path d="M478.23 297.54c4.08-5-10.58-5.07-12.37-5.1-11.45-.23-23.27.25-34.46 2.9-9.83 2.33-17 6.37-20.91 15.92-4.43 10.74-6.14 23-6.89 34.49-.48 7.4-1.19 17.71 9.09 18 1.43 0 1.53-2.27.1-2.31-10.62-.32-7.08-16.3-6.3-22.93 1.22-10.44 2.83-23.55 9.16-32.34 6.49-9 21.8-10.09 31.87-10.92 5.41-.44 10.85-.6 16.28-.55 2 0 12.63 1.49 12.94 1.11-.9 1.09.55 2.85 1.49 1.71z"/><path d="M472.53 295.12a238.86 238.86 0 01-5.53 24.95 99.73 99.73 0 01-6.27 17.61c-2.6 5.25-7.37 11.55-12.85 14-1.52.69-4.13.81-6.07 1.07l-14.21 1.93-22.23 3c-1.4.19-.94 2.45.49 2.25l24.48-3.32c6.3-.86 15.08-.25 20.35-4.19 17.11-12.79 20.78-37.35 24.06-57.24.24-1.46-2-1.54-2.21-.1zM380.81 397.87l-20.62 4.89c-1.38.33-.93 2.59.49 2.26l20.62-4.9c1.38-.33.93-2.59-.49-2.25zM359.71 414.26h19.06c1.43 0 1.54-2.31.1-2.31h-19.06c-1.43 0-1.54 2.31-.1 2.31zM452.29 276.14l.21 7.3c0 1.47 2.26 1.58 2.21.1l-.21-7.31c0-1.47-2.25-1.58-2.21-.09zM432.8 164c.9-8.27 3.41-18.39 10.76-23.17 12-7.79 28.43-7.54 41.29-2.36 10.4 4.19 19.26 10.51 18.34 22.64a76.31 76.31 0 01-1.7 9.7c-6.18 29.7-13.44 59.19-20.49 88.66q-3.22 13.5-6.48 27c-.34 1.41 1.76 2.16 2.11.71q9.64-40 19-80c3.17-13.73 6.56-27.46 9.12-41.32.84-4.58 1.29-9.38-.24-13.88-3.42-10-16-15.39-25.32-17.84-12.29-3.23-28.58-2.21-38.82 6.21-6.57 5.4-8.88 15.49-9.77 23.58-.16 1.47 2.06 1.56 2.22.09z"/><path d="M484.47 145.19c10.45 4.87 11.16 18.61 8.92 28.22-.33 1.42 1.77 2.16 2.11.71 2.56-11 1.34-25.69-10.35-31.13-1.31-.61-2 1.6-.68 2.2zM492.24 177.65c-.65 2.38-1.29 4.75-1.93 7.13-.38 1.41 1.71 2.15 2.1.71q1-3.57 1.93-7.13c.38-1.41-1.72-2.15-2.1-.71zM479.37 216.75c4.29 4 2.08 9.76.89 14.65s-2.3 10-3.41 15c-2 9.12-3.25 19.33-7 28-.58 1.34 1.52 2.06 2.11.7 4.38-10.16 5.71-22.34 8.11-33.1 1.69-7.56 7.67-20.43.9-26.81-1.07-1-2.68.59-1.63 1.57zM402.27 361.42V375a1.11 1.11 0 102.21.1v-13.58c0-1.48-2.21-1.59-2.21-.1zM362.7 361.1a20.67 20.67 0 0011.56 1.17c1.4-.24.94-2.5-.49-2.25a18.66 18.66 0 01-10.39-1.12c-1.33-.58-2 1.64-.68 2.2zM318.17 346.22l8.07-1.72a1.16 1.16 0 00-.49-2.26l-8.07 1.76a1.15 1.15 0 00.49 2.25z"/><path d="M318.78 344.34a7.61 7.61 0 00-.2 4.67c1 3.49 4.43 5.07 7.72 5.7 1.41.27 2.08-1.94.69-2.2-2.6-.5-5.78-1.54-6.37-4.5a5.48 5.48 0 01.26-3c.54-1.36-1.56-2.09-2.1-.7zM438 196.07a96.4 96.4 0 01-1 16.46c-.8 5.06-2.85 10-4.15 14.94-1.66 6.32-3.2 12.67-5 18.94-1.2 4.13-2.38 11.41-6.27 13.9-5.67 3.63-15.81 2.71-22.24 3.12-7.6.49-15.11 1.6-22.74 1.58-3.84 0-7.68-.16-11.5-.39-.88-.05-2.55.15-3.37-.22-1.76-.82.82 1.59.46-.65-.82-5.1-.87-9.5-4.54-13.65l-.57 1.91c14.65-4.64 30.8-6.23 45.92-8.91a1.08 1.08 0 00.8-.77c2.19-9.56 3.21-19.58 4.3-29.32.64-5.68.7-11.37 2.41-16.87a78.73 78.73 0 015.89-13.95c.68-1.27-1.16-2.57-1.86-1.25-4.19 7.84-7.35 16.18-8 25.09-.75 10.37-2.33 20.75-4 31-.11.67-.77 4.39-.42 4 .51-.51-1.45.1-2.06.21q-6.21 1.11-12.42 2.24c-10.23 1.87-21.11 3.08-31 6.22a1.19 1.19 0 00-.57 1.91 17.13 17.13 0 013.71 13.78 1.15 1.15 0 001.06 1.2c13 1.1 25.5-.07 38.45-.9 8.4-.53 22.76 1.11 27-8 4.81-10.19 6.59-22 9.55-32.81 2.66-9.71 4.51-18.58 4.38-28.79 0-1.47-2.23-1.58-2.21-.1zM360.29 156.17c-7.55 4.54-16.23 9.85-19.59 18.34-4.43 11.19-7.89 22.84-11.45 34.32-1.45 4.66-2.65 9.41-4.17 14-1.85 5.58-8.33 8.75-13.76 10.67-10.56 3.73-22 4.76-32.45 9-1 .4-.6 1.77.17 2.12 5.37 2.46 8.93 7.55 8.41 13.55a1.12 1.12 0 001.35 1.17c13.93-2.06 28.2-4 41.75-7.91 12.59-3.61 19.28-18.33 24.92-29.15.66-1.28-1.17-2.58-1.86-1.25a161.62 161.62 0 01-9.77 16.41c-2.32 3.39-4.89 7.42-8.43 9.68-2.38 1.53-5.46 2.12-8.16 2.8-12.78 3.21-25.92 5.24-38.94 7.17l1.35 1.17c.61-7-3.61-12.94-9.93-15.84 0 .71.11 1.42.17 2.12 10.61-4.28 22.52-4.88 33.12-9.15 4.52-1.82 11.84-4.77 13.67-9.69 1.15-3.13 1.76-6.62 2.72-9.82 3.63-12.07 7.44-24.11 11.67-36 1.7-4.76 3.12-8.59 7-12.11a83.5 83.5 0 0113.27-9.58c1.22-.73.23-2.8-1-2z"/><path d="M357.46 250.47c-7.95.58-16-.69-23.88-.05-7.08.57-11.63 2.53-15.17 8.72-.71 1.25 1.12 2.55 1.86 1.25 4.33-7.59 11.92-7.91 20-7.35a119.62 119.62 0 0017.14-.26c1.41-.11 1.52-2.42.1-2.31z"/><path d="M327.72 253.51c-4.47 2-9.48 4.72-12.48 8.68-2 2.66-5.4 10.16.53 9.88 1.42-.07 1.53-2.38.1-2.31s-1.33.17-1-1.27a14.32 14.32 0 011.34-3.71 16.12 16.12 0 015.06-5 44.5 44.5 0 017.47-4.19c1.3-.57.31-2.63-1-2zM360.56 262.58a145.37 145.37 0 01-21 5.9 31.88 31.88 0 00-5.5 2 21.74 21.74 0 01-3.5 1.33c-2.6.6-.92.32 0-.48 4.29-3.94 10.21-7.76 16-8.62 1.4-.21.94-2.47-.49-2.26-7.22 1.08-13 6.06-18.57 10.33a1.17 1.17 0 00-.33 1.11c.87 5.53 11.79-.81 14.57-1.29 6.61-1.13 13-3.45 19.32-5.72 1.32-.48.87-2.75-.49-2.26z"/><path d="M338.24 257.2a55.94 55.94 0 00-9.5 6.23c-3.25 2.72-7 5.33-8.78 9.3a1.15 1.15 0 00.45 1.32c3.71 2.27 6.37.27 9.28-2.14 1.1-.92-.36-2.65-1.5-1.7-1.87 1.55-4.17 3.37-6.58 1.9l.45 1.32c1.63-3.62 5.8-6.36 8.78-8.81a52.61 52.61 0 018.43-5.38c1.24-.68.26-2.75-1-2z"/><path d="M331.77 255.61a61.4 61.4 0 00-7 4.18c-2.5 1.77-4.18 4.35-6.28 6.55-1.4 1.47-5 4.19-4.47 6.5.83 3.66 5.05 1.8 7.26 1.37 1.4-.27.94-2.53-.49-2.26-1.6.32-3.48 1.53-4.71 0 0 0-.27.68.32 0s1.05-1.28 1.6-1.89c1.75-1.92 3.69-3.68 5.28-5.73 2.43-3.1 6.09-4.94 9.55-6.76 1.25-.66.27-2.73-1-2zM429.29 174.3a18.63 18.63 0 011.29 8.28 1.11 1.11 0 002.22.1 21.3 21.3 0 00-1.55-9.46c-.55-1.38-2.49-.25-2 1.08zM361.05 266.61l22.74-5.72c1.37-.34.92-2.6-.49-2.25l-22.74 5.72c-1.37.34-.92 2.61.49 2.25zM279.43 242.37c-6.23-1.05-12.48-2.25-18.76-3-3.18-.36-6.57-1-9.31.94-2.41 1.67-4.35 4.72-6.05 7.08-.85 1.17 1 2.45 1.86 1.25 1.55-2.15 3.68-5.76 6.13-7s7.69 0 10.58.45c5.16.77 10.31 1.63 15.45 2.5 1.41.23 1.5-2.08.1-2.31z"/><path d="M258.6 240.75a33.2 33.2 0 01-4.24 3.44c-1.69 1.1-3.88 1.38-5.21 3-.88 1.09.56 2.85 1.5 1.7 1.27-1.56 3.79-2 5.44-3.15a42.22 42.22 0 004-3.3c1-1-.41-2.72-1.49-1.7zM270 249.3c-2.76 3.8-8.88 2.41-11.27 6.73-1.15 2.08-1.47 7.39 1.69 7.86 1.6.24 4.9-1.81 6.22-2.4 2.91-1.3 5.76-.8 8.73-1.62 4.5-1.22 8.33-2.56 13.15-2.86 1.42-.09 1.53-2.4.11-2.31a68.57 68.57 0 00-8.09.91 43.71 43.71 0 00-4.32 1.22c-2.61.77-5.08.74-7.66 1.33-2.23.51-4.53 3-6.76 2.94-3.57-.05-.27-5.31 2.5-6.27 3.29-1.15 5.39-1.3 7.55-4.28a1.12 1.12 0 00-1.85-1.25z"/><path d="M270.53 250.57c.17-2.87-7.06-2.53-8.24-2.58-4.44-.18-8.89-.16-13.33-.41-3.82-.22-9.12 0-12.33-2.37-1.1-.8-2.18.82-1.42 1.76 10.38 12.86 25.73 25.68 42.39 28.53 5.56.95 11.5-.73 17-1.52l19.11-2.71c1.4-.2.94-2.46-.49-2.26L297 271.33c-5.58.79-11.84 2.57-17.48 2.13-16.47-1.27-32.68-15.73-42.64-28.06l-1.42 1.76c3.93 2.87 10.46 2.59 15.05 2.81 3.58.17 7.17.18 10.75.3a37.37 37.37 0 014.85.3c1.77.29 2.19 1 2.25-.1a1.11 1.11 0 102.21.1zM303.51 257l16.73 2.41c1.42.21 1.51-2.11.11-2.31l-16.74-2.41c-1.41-.21-1.51 2.11-.1 2.31z"/><path d="M242 251.84l-15.46 2.66c-1.14.19-1.06 1.86-.1 2.22l42 16.09c1.35.52 2-1.7.68-2.2l-41.95-16.09-.1 2.23 15.46-2.66c1.4-.24.94-2.5-.49-2.25zM357.87 116.49c-4.44 1.45-4.07 7.64-1.6 10.82 2.89 3.73 9.62 4 13.25 1.12 2.44-1.92 3.52-7.81 1.49-10.3-1.09-1.35-3.19-1.58-4.81-1.79a28.37 28.37 0 00-8.33.15c-1.4.23-.94 2.49.49 2.25a25.59 25.59 0 018.42 0c1.43.26 2.59.43 2.9 2a8.28 8.28 0 01-.42 4c-.86 2.6-3.72 3.4-6.29 3.34a6.12 6.12 0 01-5.6-3.22c-.72-1.57-1.31-5.29 1-6.05 1.33-.51.88-2.81-.5-2.32zM351.76 118.59c-1.34-2-4.59-2.1-6.71-1.94s-5.24.69-5.21 3.34c.05 3.66 1.73 11.48 7 10.31a1.15 1.15 0 00-.49-2.25c-3.12.7-3.82-5.07-4.12-7-.05-.29-.3-1.12-.14-1.39s2.34-.58 2.69-.62a9.83 9.83 0 014 .21c.3.1 1.25.69 1.1.46.82 1.23 2.76.12 2-1.08z"/><path d="M351.53 120.46c.79-.76 2.51-.57 3.71.13s2.43-1.24 1.2-2c-1.94-1.12-4.63-1.6-6.4.12-1 1 .42 2.74 1.49 1.7zM371 120.71l13 4.92c1.36.51 2-1.7.69-2.2l-13-4.92c-1.36-.51-2 1.7-.69 2.2zM348.6 122.6c-1.47 2.93-3.23 6.4-3.38 9.73-.16 3.72 3.87 4.85 7 4.82 1.42 0 1.53-2.33.1-2.31a9.34 9.34 0 01-3.11-.45c-2.16-.75-1.85-2.15-1.33-4a36.9 36.9 0 012.62-6.54c.64-1.28-1.19-2.59-1.86-1.25z"/><path d="M343 129.18a38.62 38.62 0 002.57 12c1.19 3 2.43 6 3.61 9 .76 1.92 1.21 4.74 2.55 6.31 2.49 2.94 7.78 2 11 1.16 6.18-1.66 10.83-6.27 14.6-11.21.88-1.16-1-2.43-1.86-1.25-3.72 4.87-8.36 9.23-14.53 10.51-2.38.49-5.36.95-7.15-.84-1.19-1.19-1.53-3-2.12-4.48-2.7-7-5.94-13.52-6.44-21.11-.1-1.46-2.31-1.58-2.21-.1zM343.58 118.35c-.09-5.74-.29-11.66 0-17.38a13.73 13.73 0 014.52-9.47c.6-.58 3.28-2.48 2.64-2.42s1.94 1.31 2.66 1.67a45.24 45.24 0 008 3.19c2.84.8 13.15.53 14 2.22.68 1.33 2.62.21 2-1.08-1-2-4.89-2-6.64-2.17-7.07-.68-13.24-2.13-19.37-5.87a1.06 1.06 0 00-1.11-.05c-11.34 6.74-9.08 19.84-8.9 31.27 0 1.47 2.23 1.58 2.21.09zM364.7 123.52c0 1.78-1 3.22-2.21 3.22s-2.22-1.44-2.22-3.22 1-3.23 2.22-3.23 2.21 1.44 2.21 3.23zM348.53 123.77c0 1.78-1 3.23-2.22 3.23s-2.21-1.45-2.21-3.23 1-3.23 2.21-3.23 2.22 1.46 2.22 3.23zM359.56 115.71c3.18-1.17 7.06-.48 10.19.42 1.39.4 2.05-1.81.68-2.2-3.49-1-7.82-1.77-11.37-.48-1.31.49-.86 2.75.5 2.26z"/><path d="M343 116.05a6.94 6.94 0 015.93-.58c1.31.6 2-1.62.68-2.2-2.41-1.1-5.37-.44-7.64.74-1.26.65-.28 2.72 1 2zM372.45 97.58c-1.51 5.52 0 9.75 3.5 13.91 4 4.71 4.45 12.1 4.37 18.07a1.11 1.11 0 102.21.1 43.42 43.42 0 00-1.93-14.43c-.9-2.63-2.27-4.08-3.92-6.18a11.78 11.78 0 01-2.13-10.76c.39-1.41-1.71-2.15-2.1-.71z"/><path d="M382.93 129.8a15.41 15.41 0 013.36-4.43c3.7-3.05 4.56 3.06 3.06 5.55-1.2 2-3.18 3.73-4.68 5.5-.94 1.11-3.17 5.13-5 3.9-1.21-.83-2.37 1.14-1.2 2 3.6 2.47 5.08-1.09 7.14-3.55 2.23-2.65 5.89-5.52 6.61-9.06.61-3-.22-7.81-4.13-7.65-3.18.14-5.68 4.07-7.06 6.54-.7 1.26 1.13 2.56 1.86 1.25z"/><path d="M385.18 139.65c3.62.37 8.78 2.16 10.68 5.56a1.1 1.1 0 002-.19c1.52-4.64 2.75-9.31 3.94-14 2.23-8.87 5.62-18.09 5.52-27.33-.11-9.76-2.69-20-11.94-24.78-11.56-6-24.31-2.57-36.61-2.78-5.88-.1-11.27-1.59-15.35 3.78-3.31 4.35-2.52 9.79.39 14.14.82 1.23 2.76.12 2-1.08a10.09 10.09 0 01-1.8-8c1-5.65 5.23-7 10.46-6.74a141.53 141.53 0 0018.07-.57c8.94-.67 20.22 0 26.82 6.91 7.72 8.1 6.28 22.51 3.8 32.18-2.37 9.22-4.4 18.54-7.36 27.59l2-.19c-2.31-4.14-8.08-6.32-12.54-6.78-1.42-.14-1.52 2.17-.1 2.31zM376.56 169c-3.06-4.38-5.87-8.95-8.71-13.47-.79-1.26-2.74-.15-2 1.08 2.95 4.69 5.86 9.42 9 14 .85 1.21 2.44-.41 1.63-1.57zM347.62 141.43c4.9.07 9.92.39 14.82 0l-1-1.5c-1 2.5-3.31 7.95-6.54 7.87s-5.43-5.74-6.14-7.78c-.49-1.39-2.64-.87-2.16.52 1.23 3.54 3.79 9.4 8.2 9.57s7.39-6 8.75-9.48a1.16 1.16 0 00-1-1.51c-4.9.39-9.92.07-14.82 0-1.44-.02-1.55 2.29-.11 2.31z"/><path d="M395.73 144.62a58.49 58.49 0 01-1.1 13.79c-1.15 5-4 9.31-6.18 13.9-4.1 8.82-5.6 17.95-6.73 27.49-1.82 15.41-3.18 30.88-4.44 46.34a1.11 1.11 0 102.21.09c1.26-15.46 2.62-30.92 4.44-46.33 1.33-11.2 3.7-21.25 8.89-31.39 3.94-7.69 5.25-15.14 5.12-23.8 0-1.47-2.23-1.58-2.21-.09z"/><path d="M397.89 143.22c1.51.17 4.49 7.89 4.67 9.38.37 3-.19 6.48-.33 9.53-.21 4.35-.42 8.73-1 13.06-.11.79-.1 3.71-.88 4.31-.47.36-7-.89-8.62-.6a1.17 1.17 0 00-.84 1.39c.83 2.5 4 8.65 3.91 10.13-.16 2.42-2.61 5.82-3.59 8-4.22 9.55-8.88 19.2-11.85 29.22a1.11 1.11 0 102.11.7c3.34-11.28 8.69-22.15 13.48-32.88 1.27-2.86 2.24-3.79 1.32-6.6-.67-2.06-3.53-6.45-3-8.55.1-.43 5.93 2.67 7.95 1.49 2.17-1.26 2.11-5.33 2.36-7.49.64-5.38.86-10.82 1.06-16.23.16-4.21.31-6.3-1.41-10.24-.83-1.91-2.5-6.64-5.21-7-1.42-.16-1.52 2.15-.1 2.31z"/><path d="M395.88 147.33c-5.17 8.5-11.72 18.46-20.65 23.29a1.21 1.21 0 00-.3 1.81c3.13 4.45 6.28 8.9 9.36 13.39.83 1.22 2.43-.4 1.63-1.57-3.08-4.49-6.22-8.94-9.36-13.39l-.3 1.81c9.23-5 16.14-15.31 21.48-24.09.75-1.24-1.09-2.53-1.86-1.25z"/><path d="M375 170.79c-3.27 3.7-7.13 7.68-9.19 12.21-.6 1.33 1.5 2 2.11.7 1.88-4.14 5.59-7.82 8.57-11.21.94-1.06-.51-2.81-1.49-1.7z"/><path d="M367.72 180.9l2.61 4.15a1.1 1.1 0 001.22.58c1.79-.49 3.63.78 4.93 1.83a1.07 1.07 0 001.35-.13l4.48-4.91c1-1-.49-2.81-1.49-1.71l-4.48 4.92 1.35-.12c-1.78-1.43-4.25-2.79-6.63-2.13l1.23.59-2.61-4.16c-.79-1.25-2.73-.14-2 1.09z"/><path d="M370.2 184.46c-1 6.62-2 13.27-2.61 19.94-.14 1.48 2.07 1.57 2.21.1.65-6.67 1.59-13.32 2.61-19.95.23-1.46-2-1.54-2.21-.09zM375.33 187.51a131.76 131.76 0 014.74 27.75c.11 1.46 2.32 1.58 2.21.1a134.34 134.34 0 00-4.79-28.36c-.42-1.42-2.57-.89-2.16.52zM350.86 204.71q1.53 8.79 2.76 17.62c1.17 8.34 2.89 17.23 2.08 25.68-.14 1.47 2.07 1.56 2.21.09.79-8.2-.83-16.9-2-25q-1.31-9.48-2.94-18.91c-.26-1.47-2.41-.92-2.16.52z"/><path d="M365.76 156a425.62 425.62 0 00.89 45c1.2 15.38 5.61 30.14 7.4 45.41.18 1.48 2.33.92 2.16-.52-1.82-15.57-6.32-30.59-7.46-46.28-1-14.46-1.19-29.06-.78-43.55a1.11 1.11 0 10-2.21-.1z"/><path d="M362.2 156.84c-1.08 4.68-2.07 9.41-2.77 14.16-.62 4.25-1.25 8.36 3.48 10.45-.2-.57-.39-1.15-.59-1.72-1.65 2.55-4.86 6.17-4.8 9.34s2.29 7.43 3.3 10.49c3.55 10.84 7.27 21.62 10.77 32.47.45 1.4 2.61.88 2.16-.52-3.21-9.94-6.6-19.81-9.87-29.72-1.25-3.77-3.37-8-3.85-12-.37-3 2.39-6.12 4.15-8.84a1.19 1.19 0 00-.59-1.73c-5.71-2.53-.35-17.08.71-21.71.33-1.41-1.77-2.16-2.1-.7zM424 238.89a21.41 21.41 0 01-4.28 10.24c-3.31 3.91-10.25 5.14-15.22 5.57-1.41.12-1.52 2.43-.1 2.31 5.52-.47 12.76-1.66 16.64-5.94 2.93-3.23 4.5-7.83 5.18-12.09.23-1.46-2-1.54-2.22-.09zM218.93 254.7c-10.68.76-21.56.93-32.17 2.29-1 .13-1-.08-.08.63a6.06 6.06 0 01-1.05-1.83c-1.48-2.89-3.24-5.65-4.85-8.46-2.42-4.22-6.37-9-6.37-13.49l-1.93.73 9.58 13.64c2.56 3.63 2.57 4.43 6.86 4.43h20.46c2.3 0 5.8.68 8 0 .86-.27 1.61.52.88-.44s-.5 2.82-.5 3.61a1.11 1.11 0 102.21.09v-4.37a1.15 1.15 0 00-1-1.21h-30.3c-1.15 0-3.25-.46-2.23.23-1.43-1-2.62-3.73-3.6-5.13L174.12 233c-.59-.83-1.93-.18-1.93.73 0 4.48 2.44 7.38 4.67 11.26l7.89 13.76a1.09 1.09 0 00.93.61l33.14-2.36c1.42-.09 1.53-2.4.11-2.3z"/><path d="M219.48 250.51l-9.82-7.58c-3.42-2.64-7.49-7.17-11.48-8.85-2.77-1.18-7.12-.6-10.08-.75l-13.88-.69a1.16 1.16 0 00-.1 2.31l12.77.63 7.86.4a10.81 10.81 0 012.21.11c.87.24-.65-.32.32.16 4 2 7.68 5.93 11.18 8.63l9.81 7.57c1.17.9 2.33-1.08 1.21-1.94zM184.62 251.43v6.74c0 1.47 2.22 1.58 2.22.09v-6.73c0-1.48-2.22-1.58-2.22-.1z"/><path d="M206.92 248.24l3.85 3.34c.83.71 1.69-.78.9-1.46l-3.85-3.34c-.83-.71-1.69.78-.9 1.46zM195.25 238.13l9.93 8.6c.83.72 1.69-.77.9-1.46l-9.93-8.6c-.83-.71-1.69.78-.9 1.46zM196.75 243.22l8.51 8.21c.8.77 2-.43 1.23-1.17l-8.49-8.21c-.8-.77-2 .43-1.22 1.17zM191.11 237.79l3.47 3.34c.8.77 2-.43 1.22-1.17l-3.46-3.34c-.8-.77-2 .43-1.23 1.17zM196.8 248.05l3.12 3.38c.76.82 2-.38 1.23-1.17l-3.15-3.38c-.76-.82-2 .38-1.23 1.17zM187.14 237.59l7.44 8.06c.75.82 1.95-.39 1.22-1.18l-7.43-8.05c-.76-.82-2 .39-1.23 1.17zM187.9 243.22q3.34 4.11 6.68 8.21c.7.87 1.9-.34 1.22-1.17l-6.67-8.21c-.7-.87-1.9.34-1.23 1.17zM183.17 237.4l2.36 2.91c.71.86 1.9-.35 1.23-1.18l-2.37-2.91c-.7-.86-1.9.35-1.22 1.18zM186.89 248.1l2.35 3.33c.64.91 1.83-.31 1.22-1.17l-2.35-3.33c-.64-.91-1.84.31-1.22 1.17zM182.71 242.18l2.82 4c.64.9 1.84-.31 1.23-1.18l-2.82-4c-.65-.91-1.84.31-1.23 1.17zM179.19 237.2l1.64 2.32a.82.82 0 001.18 0 .92.92 0 00.05-1.22c-.55-.78-1.1-1.55-1.64-2.33a.82.82 0 00-1.18-.05.93.93 0 00-.05 1.23zM147.14 228.48a94.42 94.42 0 0111-1.35c1.31-.08 5.78-.78 6.81.29s-1.16 2.3-2.29 3.16c-7.23 5.45 6.94 6.44 10.62 7.11 1.4.26 1.49-2.05.1-2.31-3.48-.64-7.24-1.09-10.57-2.35-.76-.28-.57.5.49-.15a16.56 16.56 0 001.56-1.07c1.58-1.23 4-3.5 2.41-5.62-1.83-2.41-7.52-1.49-10-1.31a105.35 105.35 0 00-10.61 1.35c-1.39.25-.93 2.51.49 2.25zM447 328.94a3.76 3.76 0 011.78-.59c2.55-.07 4.66 2.26 6.15 4 1 1.13 2.56-.48 1.64-1.57-2.39-2.81-7.4-6.94-11.07-3.57-1 1 .4 2.71 1.5 1.71zM32.22 367.56l.82 25.52c.12 3.87-.35 8.34.39 12.15.51 2.65 2 3 4.5 4.5a1.15 1.15 0 001.2-2c-.81-.49-4.29-3.22-3.46-1.45a8.13 8.13 0 01-.08-2.52q-.21-6.69-.43-13.4-.36-11.37-.73-22.76c0-1.46-2.26-1.58-2.21-.09zM292 288.7V386a1.11 1.11 0 102.21.09V288.8a1.11 1.11 0 10-2.21-.1zM292 391.74v24.4c0 1.47 2.21 1.58 2.21.1v-24.4c0-1.48-2.21-1.59-2.21-.1z"/></g></g></svg>