<svg xmlns="http://www.w3.org/2000/svg" viewBox="0 0 480 57"><defs><style>.cls-1{fill:#fff;}</style></defs><g id="レイヤー_2" data-name="レイヤー 2"><g id="レイヤー_3" data-name="レイヤー 3"><rect width="480" height="57"/><path class="cls-1" d="M39.27,45.14l-7.74-32.9h7.18c1.63,8.14,3.68,19.06,4.4,25.29h0c1.2-6.14,4.1-17.37,5.88-25.29h6.05c1.55,6.35,4.62,18.71,5.64,24.95h.05c1-7.33,4-19.84,5-24.95h6.54l-8.22,32.9h-7c-1.59-7.33-4.23-17.52-5.32-23.44h0c-1.15,6-3.92,16.92-5.48,23.44Z"/><path class="cls-1" d="M89.76,10.23V23.28c1.16-2,3.36-3.47,6.9-3.47,4.45,0,7.83,2.45,7.83,9V45.14H98.05V29.81c0-2.69-.86-4.62-3.9-4.62s-4.39,2.12-4.39,6.11V45.14H83.24V10.23Z"/><path class="cls-1" d="M122,20.29c2.89,10.55,4.59,16.34,5,19.19h0c.69-3.07,2.93-11.73,5-19.19h6.55L130.09,46.2c-2.61,8-5.68,8.89-9.88,8.89a18.35,18.35,0,0,1-2.5-.23V49.57a18.23,18.23,0,0,0,2.26.15c2.07,0,3.17-1.34,3.78-3.43l-8.69-26Z"/><path class="cls-1" d="M194,34.78c-.88,5.56-4.61,10.84-13.06,10.84-10.36,0-14.09-7.55-14.09-16.93s4.77-16.88,14.37-16.88c8.88,0,12.28,5.66,12.6,10.77h-6.56c-.66-2.72-1.75-5.4-6.26-5.4-5.48,0-7.26,5.56-7.26,11.47,0,6.26,1.72,11.63,7.34,11.63,4.39,0,5.71-3,6.33-5.5Z"/><path class="cls-1" d="M228.19,32.36c0,7.26-3.47,13.24-11.91,13.24-8.67,0-11.69-6.38-11.69-13.1,0-6.19,3.5-12.69,12-12.69C224.62,19.81,228.19,25.63,228.19,32.36Zm-17,0c0,5.3,1.83,8.15,5.31,8.15,3.27,0,5.08-2.83,5.08-8.08,0-4.93-1.7-7.49-5.26-7.49C213,24.92,211.21,27.8,211.21,32.34Z"/><path class="cls-1" d="M259.68,38.7a61.66,61.66,0,0,0,.34,6.44h-5.71a20.3,20.3,0,0,1-.38-3c-1,2-3.37,3.44-7,3.44-6.14,0-8.32-3.83-8.32-7.59,0-4.47,3.1-8.16,11.71-8.16h2.92V28c0-2-.63-3.61-3.54-3.61s-3.59,1.47-3.82,3.3h-6.31c.26-3.92,2.61-7.9,10.23-7.9,5.87,0,9.84,2,9.84,8.17ZM253.5,34h-3c-4.46,0-5.29,1.82-5.29,3.48s1,3.15,3.49,3.15c3.9,0,4.82-2.59,4.82-6.1Z"/><path class="cls-1" d="M293.61,36.46c-.73,5-3.87,9.11-10.85,9.11-7.6,0-11.17-4.71-11.17-12.83,0-7.87,4.37-12.93,11.57-12.93,8.12,0,10.3,5.83,10.45,9.28h-6.5c-.24-2.24-1.27-4.3-4.08-4.3-3.44,0-4.82,3.15-4.82,7.71,0,5.81,1.75,8.13,4.69,8.13s3.71-1.83,4.26-4.17Z"/><path class="cls-1" d="M311.66,10.23V23.28c1.16-2,3.37-3.47,6.9-3.47,4.45,0,7.83,2.45,7.83,9V45.14H320V29.81c0-2.69-.86-4.62-3.9-4.62s-4.39,2.12-4.39,6.11V45.14h-6.52V10.23Z"/><path class="cls-1" d="M339.75,10.23h6.52v6h-6.52Zm0,10.06h6.52V45.14h-6.52Z"/><path class="cls-1" d="M359.62,28c0-5.13-.05-6.66-.1-7.75h6.36a22.43,22.43,0,0,1,.22,3.21c1-1.93,3.37-3.69,6.92-3.69,5.22,0,7.85,3.32,7.85,9V45.14h-6.53v-15c0-2.81-.69-4.91-3.79-4.91s-4.41,1.73-4.41,6.08V45.14h-6.52Z"/><path class="cls-1" d="M415.66,42.68c0,7.66-3.14,12.41-11.75,12.41-8,0-10.4-4.34-10.7-8h6.44c.42,2,2,3,4.64,3,4.14,0,5-2.43,5-6.94V41.59c-1.24,2.34-3.64,3.24-6.64,3.24-5.95,0-9.88-4.68-9.88-12.37,0-7.92,4.76-12.65,10.33-12.65,3.92,0,5.47,1.43,6.05,2.75a16.56,16.56,0,0,1,.28-2.27h6.31c-.05,1.23-.1,4-.1,7.49ZM399.5,32.33c0,4.41,1.81,7.17,5,7.17,3.72,0,5-2.14,5-7.23,0-4.57-.64-7.13-4.84-7.13C401.75,25.14,399.5,27.25,399.5,32.33Z"/><path class="cls-1" d="M434.18,34.79v-.67c0-3.18,1.13-5.15,4.46-8.5,1.91-1.94,2.71-3.37,2.72-5,0-2.16-1.15-3.7-3.53-3.7s-3.75,1.56-4,4.84h-6c.19-5.14,2.8-10,10.24-9.91s9.76,4.59,9.76,8.76c0,2.82-.82,5.09-4.19,8.47-1.95,1.95-2.7,3.28-2.7,5.24v.51Zm0,10.35V37.33h6.74v7.81Z"/></g></g></svg>