<svg xmlns="http://www.w3.org/2000/svg" viewBox="0 0 556.3 668"><defs><style>.cls-1{fill:#fffc19;}.cls-2{fill:#231f20;}</style></defs><g id="レイヤー_2" data-name="レイヤー 2"><g id="レイヤー_2-2" data-name="レイヤー 2"><circle class="cls-1" cx="183" cy="183" r="183"/></g><g id="character"><path class="cls-2" d="M386.12,118.6a3,3,0,0,1-2.94-2.43c-7-36.06,18.16-54.27,19.23-55a3,3,0,0,1,3.46,4.9c-1,.7-23,16.86-16.8,49a3,3,0,0,1-2.37,3.51A2.93,2.93,0,0,1,386.12,118.6Z"/><path class="cls-2" d="M382.13,152.79c-5.58,0-10.31-1.57-13.05-4.41a8.85,8.85,0,0,1-2.42-7.74c1.07-6.95,14.46-23.66,17.14-26.94a3,3,0,1,1,4.65,3.79c-6.22,7.63-15.26,20.14-15.86,24.06a2.86,2.86,0,0,0,.81,2.66c2,2,6.65,3,11.71,2.41a3,3,0,1,1,.68,6A32.88,32.88,0,0,1,382.13,152.79Z"/><path class="cls-2" d="M391.47,163.28c-3.35,0-6.06-.52-7.49-1.32-4.63-2.59-2.17-9.65-1.3-11.76a3,3,0,0,1,5.55,2.29,12.34,12.34,0,0,0-1,4.37c2.39.7,12.38,1,20.25-4a3,3,0,0,1,3.23,5.06A37.08,37.08,0,0,1,391.47,163.28Z"/><path class="cls-2" d="M403,193.46a7.07,7.07,0,0,1-5.2-2c-3.13-3.1-2-8.27-1.85-8.85a3,3,0,0,1,.94-1.55c12.6-11.06,9.46-24.44,9.32-25A3,3,0,0,1,412,154.6c.18.69,4.14,16.85-10.36,30.27a3.64,3.64,0,0,0,.36,2.36c.19.19,1,.42,2.86,0a3,3,0,0,1,1.47,5.82A14,14,0,0,1,403,193.46Z"/><path class="cls-2" d="M421.43,203.33c-5.39,0-10.85-1.91-14.15-6.14-2.34-3-4.06-5.3-4.06-5.3A3,3,0,1,1,408,188.3s1.69,2.27,4,5.2c3.72,4.78,12.69,4.89,17.41,1.63,1.18-.81,11.68-8.55,17.57-29.59a3,3,0,1,1,5.77,1.62c-6.32,22.59-17.71,31.37-19.93,32.91A20.45,20.45,0,0,1,421.43,203.33Z"/><path class="cls-2" d="M389,81.93a3,3,0,0,1-2-.76c-5.43-4.84-13.47-16.72-5-27,10.18-12.35,20-8.27,20.38-8.09a3,3,0,0,1-2.41,5.49c-.2-.07-6.17-2.28-13.34,6.41-6.95,8.43,3.91,18.28,4.37,18.69a3,3,0,0,1-2,5.24Z"/><path class="cls-2" d="M501.88,165.35h-.24a3,3,0,0,1-2.76-3.22c.36-4.66,3.48-11.07,7.42-19.18,8.11-16.68,19.22-39.52,13.19-61.1C511,51.62,488.71,33.59,456.64,31.09c-30.33-2.37-55.78,19.26-56,19.48A3,3,0,1,1,396.68,46c1.11-1,27.57-23.48,60.43-20.92,34.77,2.71,59,22.29,68.15,55.11,6.65,23.77-5,47.8-13.56,65.35-3.52,7.24-6.56,13.49-6.83,17A3,3,0,0,1,501.88,165.35Z"/><path class="cls-2" d="M481.73,169.81a27.11,27.11,0,0,1-12.86-2.92,20.75,20.75,0,0,1-10.37-12.62,3,3,0,0,1,5.84-1.37,14.68,14.68,0,0,0,7.44,8.74c6.64,3.44,16.67,2.72,29-2.09a3,3,0,1,1,2.17,5.59C495,168.25,487.89,169.81,481.73,169.81Z"/><path class="cls-2" d="M449.87,133.6a3,3,0,0,1-2-.77c-10-9-11.41-19.54-12.25-25.86a24.46,24.46,0,0,0-.81-4.4,15.81,15.81,0,0,1-2.73-1.19c-1.43-.72-4.4-2.21-11.49-5.57C405.08,88.46,401.33,65,401.18,64.05a3,3,0,1,1,5.93-.91c0,.21,3.43,21.27,16.05,27.25,7.16,3.39,10.17,4.9,11.62,5.63a12.08,12.08,0,0,0,2.29,1c3.43,1.14,3.93,4.87,4.5,9.18.83,6.2,2,14.7,10.31,22.18a3,3,0,0,1-2,5.24Zm-14.69-30.91h0Z"/><path class="cls-2" d="M456.63,158.35a3,3,0,0,1-1.69-5.49c11.92-8.08,14.74-19.09,13.42-26.69-.82-4.65-3-7.23-4.73-7.67a5,5,0,0,0-4.11.59c-3.89,2.41-6.16,9.58-6.71,12.13a3,3,0,0,1-5.87-1.24c.25-1.2,2.66-11.79,9.41-16a11,11,0,0,1,8.77-1.31c4.5,1.15,8,5.92,9.15,12.45,1.65,9.45-1.68,23-16,32.69A3,3,0,0,1,456.63,158.35Z"/><path class="cls-2" d="M444.13,209.1a3,3,0,0,1-2.67-1.62l-7.24-13.89a3,3,0,0,1,5.32-2.77l7.25,13.89a3,3,0,0,1-1.28,4A3,3,0,0,1,444.13,209.1Z"/><path class="cls-2" d="M507.88,184.35a3,3,0,0,1-2.75-1.8l-8-18.24a3,3,0,1,1,5.5-2.41l8,18.24a3,3,0,0,1-1.54,4A2.86,2.86,0,0,1,507.88,184.35Z"/><path class="cls-2" d="M427.75,233.6a3,3,0,0,1-2.74-4.23c.43-.94,10.62-23.11,34.4-35.2,24-12.2,36.38-13.07,57.11-12.07a3,3,0,1,1-.29,6c-20.1-1-31.28-.17-54.11,11.43-21.83,11.1-31.54,32.1-31.64,32.31A3,3,0,0,1,427.75,233.6Z"/><path class="cls-2" d="M520.37,200.6a3,3,0,0,1-2.85-2.09l-4-12.5a3,3,0,1,1,5.71-1.83l4,12.5a3,3,0,0,1-1.94,3.77A3,3,0,0,1,520.37,200.6Z"/><path class="cls-2" d="M369.54,318.93a3,3,0,0,1-1.63-.48,3,3,0,0,1-.88-4.15c.13-.21,13.85-21.3,49.46-72.74,36.62-52.9,107.39-44.28,108.11-44.18a3,3,0,0,1-.78,5.94c-.67-.08-67.89-8.19-102.39,41.65-35.55,51.35-49.24,72.39-49.37,72.59A3,3,0,0,1,369.54,318.93Z"/><path class="cls-2" d="M338.29,503.6a3,3,0,0,1-3-3V463.26a3,3,0,0,1,.56-1.74c13-18.22,40.58-78.68,40.85-79.29a3,3,0,0,1,5.47,2.48c-1.13,2.48-27.35,60-40.88,79.5v30.56l22.83-16.28c1.74-2.73,10.59-17,12.36-26.87a3,3,0,0,1,5.91,1.06c-2.17,12.15-13.09,28.86-13.56,29.57a3.16,3.16,0,0,1-.76.79l-28,20A3,3,0,0,1,338.29,503.6Z"/><path class="cls-2" d="M360.59,389.7c-25.79,0-34.5-20.48-39.88-43.08-3.4-14.27-5.77-33.55-7.86-50.57-2-16.08-3.84-31.26-6-37.17a3,3,0,0,1,.21-2.53c.15-.27,15.59-26.45,53.36-16.66a3,3,0,1,1-1.51,5.81c-29.12-7.55-42.82,8.41-45.94,12.76,2.2,7.15,3.91,21.09,5.87,37.06,2.07,16.86,4.42,36,7.74,49.91,7.47,31.35,19,41.57,42.52,37.74,30-4.9,96.2-89.36,96.87-90.22a3,3,0,0,1,4.73,3.69C467.88,300,402.32,383.62,370,388.89A58.83,58.83,0,0,1,360.59,389.7Z"/><path class="cls-2" d="M373,313.64a3,3,0,0,1-2.94-2.42l-13.4-68a3,3,0,1,1,5.89-1.16l13.4,68a3,3,0,0,1-2.36,3.53A3.92,3.92,0,0,1,373,313.64Z"/><path class="cls-2" d="M375.63,668a3,3,0,0,1-3-2.82,776.36,776.36,0,0,1,0-96.83,3,3,0,1,1,6,.47,772.24,772.24,0,0,0,0,96,3,3,0,0,1-2.81,3.17Z"/><path class="cls-2" d="M509.62,668a2.81,2.81,0,0,1-1-.17,3,3,0,0,1-1.85-3.82s2.09-6.14,8.67-32.8c6.54-26.48,3-59.46,2.95-59.79a3,3,0,0,1,6-.66c.15,1.39,3.7,34.35-3.09,61.89-6.71,27.16-8.75,33.1-8.83,33.34A3,3,0,0,1,509.62,668Z"/><path class="cls-2" d="M535.84,569.6a3,3,0,0,1-3-3c-.09-19.69-4.42-39.26-8.62-58.18-4.41-19.92-9-40.52-8.85-61.85.24-37.65,11.22-68.49,20.9-95.7,6.51-18.3,12.14-34.09,13.7-49.26,3.87-37.32-28.1-99.26-28.42-99.89a3,3,0,0,1,5.32-2.77c1.35,2.61,33.12,64.17,29.07,103.28-1.64,15.88-7.65,32.77-14,50.65-9.53,26.76-20.32,57.09-20.56,93.73-.12,20.65,4.37,40.92,8.71,60.51,4.26,19.24,8.67,39.12,8.76,59.46a3,3,0,0,1-3,3Z"/><path class="cls-2" d="M455,582.89c-59.08,0-102.63-19.28-103.25-19.56a3,3,0,0,1-1.59-1.73,3,3,0,0,1,.15-2.34c.07-.14,7.31-15,16.33-56.63,9.13-42.1,23.12-128.48,23.26-129.34a3,3,0,1,1,5.92.95c-.14.87-14.15,87.4-23.32,129.66-7.06,32.61-13,49-15.53,55.1,15.43,6.16,93.59,34,177.91,4.76a3,3,0,1,1,2,5.67A248.94,248.94,0,0,1,455,582.89Z"/><path class="cls-2" d="M326.07,382.54c-7.44,0-13.68-1.78-18.62-5.32-10.75-7.68-13.6-22.38-14.81-32.78-2.49-21.47-.74-79.44-.66-81.9a3,3,0,1,1,6,.18c0,.6-1.81,60,.64,81,1.71,14.71,5.62,23.8,12.33,28.59,6.22,4.45,15,5.38,26.72,2.83a3,3,0,0,1,1.27,5.87A61.07,61.07,0,0,1,326.07,382.54Z"/><path class="cls-2" d="M311,265.63H295a3,3,0,0,1,0-6h16a3,3,0,0,1,0,6Z"/><path class="cls-2" d="M313.69,255.71a3,3,0,0,1-3-2.58L308,234a3,3,0,0,1,.94-2.62c.78-.73,19.52-17.69,45.17-7.08a3,3,0,0,1,1.79,2.19l2.67,13.39a3,3,0,0,1-5.89,1.17l-2.34-11.78c-18.07-6.69-32.13,2.46-36.16,5.55l2.49,17.45a3,3,0,0,1-2.55,3.39A3.11,3.11,0,0,1,313.69,255.71Z"/><path class="cls-2" d="M295,265.63a3,3,0,0,1-3-2.9l-.66-20a3,3,0,0,1,4.81-2.49c.19.13,5.48,3.79,14.92-.36a3,3,0,1,1,2.41,5.49c-6.92,3-12.38,2.78-16,1.84l.5,15.35a3,3,0,0,1-2.9,3.1Z"/><path class="cls-2" d="M182.37,159.38h-.21l-8.08-.57a3,3,0,0,1-2.79-3.09c.25-7.85,1.71-33.82,10.3-38.28a7,7,0,0,1,7.35.66c9,5.9,63.87,25.09,91.64,34.41a3,3,0,0,1-1.91,5.69c-3.31-1.11-81.17-27.3-93-35.09-.86-.57-1.15-.41-1.28-.35-3.43,1.79-6.23,16.54-7,30.27l5.17.36a3,3,0,0,1-.21,6Z"/><path class="cls-2" d="M195.47,239.58c-1.92,0-4.51-.73-6.88-3.81a10.49,10.49,0,0,1-4.19-3.92c-10.28-15.58-10.72-80.26,2.26-95.69,4.41-5.23,8.32-5.24,10.83-4.33,11.79,4.27,15.06,40,15.13,60.36.1,25.39-5.9,44.3-14.93,47.06A7.28,7.28,0,0,1,195.47,239.58Zm-4.06-9.16a1,1,0,0,0,.68,0c9.53-2.9,5.88-31.49,2.62-44.88a3,3,0,0,1,5.83-1.42c.72,3,4.72,20.22,3.46,34.18a110.69,110.69,0,0,0,2.62-26.05c-.11-30.37-5.87-52.83-11.18-54.75-1.34-.5-3.2,1.39-4.19,2.56-10.1,12-11.39,74-1.84,88.52a4.21,4.21,0,0,0,1.89,1.84Z"/><path class="cls-2" d="M202.1,144.36a3,3,0,0,1-2.87-2.1c-3.31-10.56-17-19.87-17.19-20a3,3,0,0,1,3.34-5c.64.43,15.63,10.57,19.58,23.15a3,3,0,0,1-2,3.76A2.76,2.76,0,0,1,202.1,144.36Z"/><path class="cls-2" d="M197,239.6a3,3,0,0,1-1.37-5.67c2.39-1.23,59-30.13,95.85-35.22a3,3,0,0,1,.82,5.94c-35.84,5-93.35,34.32-93.93,34.61A3,3,0,0,1,197,239.6Z"/><path class="cls-2" d="M197.62,187.8a3,3,0,0,1-.36-6l11.79-1.46a3,3,0,0,1,.73,6L198,187.78A2.3,2.3,0,0,1,197.62,187.8Z"/><path class="cls-2" d="M202.1,145.1l-.26,0-13.72-1.74a2,2,0,1,1,.51-4l13.72,1.73a2,2,0,0,1-.25,4Z"/><path class="cls-2" d="M199.76,151.19l-.26,0-12.6-1.59a2,2,0,1,1,.51-4L200,147.2a2,2,0,0,1-.25,4Z"/><path class="cls-2" d="M195.24,157H195l-9.3-1.18a2,2,0,0,1,.51-4l9.3,1.18a2,2,0,0,1-.25,4Z"/><path class="cls-2" d="M192.91,163.1l-.26,0-8.19-1a2,2,0,1,1,.51-4l8.19,1a2,2,0,0,1-.25,4Z"/><path class="cls-2" d="M190.39,169.17l-.26,0-6.89-.87a2,2,0,1,1,.51-4l6.89.87a2,2,0,0,1-.25,4Z"/><path class="cls-2" d="M188.81,175.35h-.25l-6.54-.83a2,2,0,0,1,.51-4l6.53.83a2,2,0,0,1-.25,4Z"/><path class="cls-2" d="M187.16,181.53h-.26l-6.1-.78a2,2,0,0,1,.5-4l6.11.77a2,2,0,0,1-.25,4Z"/><path class="cls-2" d="M184.72,187.61h-.26l-4.88-.62a2,2,0,0,1,.5-4l4.89.62a2,2,0,0,1-.25,4Z"/><path class="cls-2" d="M281.11,205.36a2,2,0,0,1-.58-.09,2,2,0,0,1-1.34-2.49,43.26,43.26,0,0,0,1.43-10.58,2,2,0,0,1,2-2h0a2,2,0,0,1,2,2,46.34,46.34,0,0,1-1.6,11.74A2,2,0,0,1,281.11,205.36Z"/><path class="cls-2" d="M272,208.59a2,2,0,0,1-.58-.09,2,2,0,0,1-1.33-2.49c1.63-5.39,1.77-12.63,1.78-14a2.22,2.22,0,0,1,2.24-1.79,1.65,1.65,0,0,1,1.76,1.84v0c0,1.52-.17,9.27-2,15.18A2,2,0,0,1,272,208.59Z"/><path class="cls-2" d="M262.89,211.82a2,2,0,0,1-1.91-2.58c1.89-6.25,2.12-14.94,2.14-17.45a2.07,2.07,0,0,1,2.07-2.17,1.93,1.93,0,0,1,1.93,2.17v0c0,2.73-.27,11.89-2.31,18.65A2,2,0,0,1,262.89,211.82Z"/><path class="cls-2" d="M253.79,215.05a1.9,1.9,0,0,1-.58-.09,2,2,0,0,1-1.34-2.49c2.2-7.3,2.47-17.84,2.5-20.9a2.1,2.1,0,0,1,2.15-1.95,1.72,1.72,0,0,1,1.85,1.9v0c0,3.3-.32,14.32-2.67,22.12A2,2,0,0,1,253.79,215.05Z"/><path class="cls-2" d="M244.68,218.27a1.93,1.93,0,0,1-.58-.08,2,2,0,0,1-1.34-2.49c2.5-8.3,2.82-20.71,2.85-24.32,0,0,0-.23,0-.24a2,2,0,0,1,4,.12c-.05,3.9-.38,16.79-3,25.59A2,2,0,0,1,244.68,218.27Z"/><path class="cls-2" d="M235.57,221.5a2.24,2.24,0,0,1-.57-.08,2,2,0,0,1-1.34-2.49c2.71-9,3.14-22.39,3.2-27.72v-.33a2,2,0,0,1,4,.14v.24c-.06,5.5-.51,19.31-3.37,28.82A2,2,0,0,1,235.57,221.5Z"/><path class="cls-2" d="M226.46,224.73a2.3,2.3,0,0,1-.57-.08,2,2,0,0,1-1.34-2.49c3-10,3.49-25.14,3.56-31.16v-.37a2,2,0,0,1,4,.14v.28c-.07,6.19-.57,21.73-3.73,32.26A2,2,0,0,1,226.46,224.73Z"/><path class="cls-2" d="M217.36,228a2,2,0,0,1-.58-.09,2,2,0,0,1-1.34-2.49c3.31-11,3.84-27.84,3.91-34.57v-.43a2,2,0,0,1,4,.15v.33c-.07,6.89-.62,24.16-4.08,35.67A2,2,0,0,1,217.36,228Z"/><path class="cls-2" d="M297,246.92h0a3,3,0,0,1-3-3l.1-15.76c-5.41-6.86-13.67-19.86-14-20.44a3,3,0,0,1,5.07-3.21c.09.14,9.16,14.42,14.29,20.71a3,3,0,0,1,.67,1.92l-.1,16.82A3,3,0,0,1,297,246.92Z"/><path class="cls-2" d="M294.32,184.35a3,3,0,0,1-2.8-1.92c-2.72-7-14.44-29.47-14.55-29.69a3,3,0,1,1,5.31-2.78c.49.93,12,23,14.83,30.3a3,3,0,0,1-2.79,4.09Z"/><path class="cls-2" d="M312.26,231.6a3,3,0,0,1-2.26-1c-.1-.11-9.82-11.23-18.12-22.72-9.48-13.13-5.44-36.26-4.8-37.91a3,3,0,0,1,5.61,2.13c-.87,2.82-3.08,22.38,4.06,32.27,8.12,11.25,17.67,22.17,17.76,22.28a3,3,0,0,1-2.25,5Z"/><path class="cls-2" d="M305.12,177.85a3,3,0,0,1-2.95-2.5c0-.06-1.55-8.16-9.49-17.62-6.36-7.56-10.66-4.46-11.13-4.09a3,3,0,0,1-4.2-.39,3,3,0,0,1,.3-4.16,11,11,0,0,1,7.84-2.36c4.1.32,8.07,2.72,11.78,7.14,9.07,10.8,10.75,20.08,10.81,20.47a3,3,0,0,1-2.45,3.46A2.94,2.94,0,0,1,305.12,177.85Z"/><path class="cls-2" d="M366.33,171.1a148.3,148.3,0,0,1-29.8-3.29c-1-.21-2.13-.42-2.7-.51a2.82,2.82,0,0,1-.82,0,3,3,0,0,1-2.7-3.28,3.17,3.17,0,0,1,1.23-2.16c1.27-.94,2.21-.75,6.17,0a140.79,140.79,0,0,0,28.62,3.17,3,3,0,0,1,0,6Zm-30.05-6.41Zm0,0Zm0,0Zm0,0Zm0,0Zm0,0h0Zm0,0Zm0,0Zm0,0Z"/><path class="cls-2" d="M341.37,202.15a3,3,0,0,1-.75-5.9c.69-.18,17.17-4.44,28.11-3.13a3,3,0,0,1-.71,6c-9.83-1.18-25.73,2.93-25.89,3A2.84,2.84,0,0,1,341.37,202.15Z"/><path class="cls-2" d="M369.54,198.87a3,3,0,0,1-2.45-4.73c9.51-13.53-.39-23.48-.81-23.9a3,3,0,1,1,4.19-4.29c4.87,4.77,11.45,17.52,1.53,31.64A3,3,0,0,1,369.54,198.87Z"/><path class="cls-2" d="M319.12,172.85a3,3,0,0,1-2.82-2c-1.11-3.12-4.81-11.88-8.56-14.92s-10.18.3-10.24.33a3,3,0,0,1-2.75-5.33c.41-.21,10.07-5.08,16.76.33,5.74,4.65,10,16.28,10.44,17.58a3,3,0,0,1-1.82,3.83A3,3,0,0,1,319.12,172.85Z"/><path class="cls-2" d="M329.63,160.85A3,3,0,0,1,328,155.3c3.89-2.42,4.25-5.49,3.81-7.74-7.54,4.11-19.52,7.3-20.11,7.46a3,3,0,1,1-1.53-5.8c4.33-1.15,16.59-4.91,21.26-8.5a3,3,0,0,1,2.37-.57,3,3,0,0,1,2,1.37c2,3.21,5,12.86-4.64,18.87A3,3,0,0,1,329.63,160.85Z"/><path class="cls-2" d="M341.37,200.6a3,3,0,0,1-3-3c0-7.77-2-19.73-4.89-25.15-3.07-5.7-5.6-9.3-10.15-12-3.4-2-7.18,0-7.22,0a3,3,0,1,1-3-5.21c.27-.16,6.85-3.82,13.28,0,5.71,3.43,8.85,7.85,12.35,14.34,3.86,7.16,5.6,20.68,5.6,28A3,3,0,0,1,341.37,200.6Z"/><path class="cls-2" d="M345.88,225.85h-.26a3,3,0,0,1-2.73-3.25,57.53,57.53,0,0,1,2.39-11.69c1.81-5.42,6.49-14.33,6.69-14.7a3,3,0,1,1,5.31,2.8c0,.09-4.66,8.84-6.31,13.8a52.34,52.34,0,0,0-2.11,10.31A3,3,0,0,1,345.88,225.85Z"/><path class="cls-2" d="M394.56,105.6a3,3,0,0,1-1.93-5.3c.33-.28,8.1-6.65,17.7-2.45a3,3,0,1,1-2.41,5.49c-6.21-2.71-11.38,1.51-11.44,1.56A3,3,0,0,1,394.56,105.6Z"/><path class="cls-2" d="M402.13,117.1c0,3.22-1.56,5.83-3.49,5.83s-3.49-2.61-3.49-5.83,1.56-5.84,3.49-5.84S402.13,113.88,402.13,117.1Z"/><path class="cls-2" d="M121.44,295.23a2,2,0,0,1-1.08-.32,2,2,0,0,1-.6-2.77l2.94-4.55a2,2,0,0,1,3.36,2.18l-2.94,4.54A2,2,0,0,1,121.44,295.23Z"/><path class="cls-2" d="M114.71,305.65a2.09,2.09,0,0,1-1.09-.32,2,2,0,0,1-.59-2.77l2.07-3.2a2,2,0,1,1,3.35,2.18l-2.06,3.19A2,2,0,0,1,114.71,305.65Z"/><path class="cls-2" d="M99.44,329.27a2,2,0,0,1-1.08-.32,2,2,0,0,1-.59-2.76l10.81-16.74a2,2,0,0,1,3.36,2.17l-10.82,16.74A2,2,0,0,1,99.44,329.27Z"/><path class="cls-2" d="M86.57,258.22a2,2,0,0,1-1.6-.78,2,2,0,0,1,.38-2.8l4.92-3.76a2,2,0,0,1,2.43,3.17l-4.92,3.76A2,2,0,0,1,86.57,258.22Z"/><path class="cls-2" d="M79.5,263.62A2,2,0,0,1,78.29,260l2.32-1.77A2,2,0,1,1,83,261.43l-2.32,1.78A2,2,0,0,1,79.5,263.62Z"/><path class="cls-2" d="M55.11,282.27a2,2,0,0,1-1.21-3.59l19.83-15.16a2,2,0,1,1,2.43,3.17L56.33,281.85A2,2,0,0,1,55.11,282.27Z"/><path class="cls-2" d="M41.87,292.39a2,2,0,0,1-1.22-3.59l4.22-3.22a2,2,0,1,1,2.42,3.18L43.08,292A2,2,0,0,1,41.87,292.39Z"/><path class="cls-2" d="M71.14,214.18a2,2,0,0,1-.46-4l1.74-.41a2,2,0,1,1,.93,3.89l-1.75.41A1.82,1.82,0,0,1,71.14,214.18Z"/><path class="cls-2" d="M43.43,220.78a2,2,0,0,1-.46-3.94l20.78-5a2,2,0,0,1,2.41,1.48,2,2,0,0,1-1.48,2.41l-20.78,5A2.5,2.5,0,0,1,43.43,220.78Z"/><path class="cls-2" d="M23.24,225.59a2,2,0,0,1-.46-3.94l9-2.14a2,2,0,1,1,.93,3.89l-9,2.14A1.8,1.8,0,0,1,23.24,225.59Z"/><path class="cls-2" d="M63.74,167.25a2.3,2.3,0,0,1-.45-.05l-2.84-.66a2,2,0,0,1,.91-3.9l2.84.66a2,2,0,0,1-.46,3.95Z"/><path class="cls-2" d="M50.91,164.26a1.73,1.73,0,0,1-.45,0l-21.29-5a2,2,0,1,1,.9-3.89l21.29,4.95a2,2,0,0,1-.45,3.94Z"/><path class="cls-2" d="M23.87,157a2.3,2.3,0,0,1-.45,0L10.6,154a2,2,0,0,1,.9-3.9l12.82,3a2,2,0,0,1-.45,3.95Z"/><path class="cls-2" d="M94.3,130.94a2,2,0,0,1-1.2-.41L91,128.9a2,2,0,0,1,2.41-3.19l2.15,1.63a2,2,0,0,1-1.21,3.6Z"/><path class="cls-2" d="M86.65,125.15a2,2,0,0,1-1.2-.4L77.8,119a2,2,0,0,1,2.41-3.2l7.65,5.79a2,2,0,0,1-1.21,3.59Z"/><path class="cls-2" d="M71.22,113.49a2,2,0,0,1-1.2-.4l-18.57-14a2,2,0,1,1,2.41-3.19l18.57,14a2,2,0,0,1-1.21,3.59Z"/><path class="cls-2" d="M120.44,87a2,2,0,0,1-1.67-.9l-1.51-2.31a2,2,0,1,1,3.34-2.19l1.51,2.31A2,2,0,0,1,120.44,87Z"/><path class="cls-2" d="M114.19,77.39a2,2,0,0,1-1.68-.91L98.36,54.85a2,2,0,1,1,3.35-2.19l14.15,21.63a2,2,0,0,1-1.67,3.1Z"/><path class="cls-2" d="M95.11,48.21a2,2,0,0,1-1.68-.91L89,40.52a2,2,0,0,1,3.35-2.19l4.44,6.78a2,2,0,0,1-1.67,3.1Z"/><path class="cls-2" d="M432.86,423.62a3,3,0,0,1-2.82-2l-17-46.86a3,3,0,1,1,5.64-2.05l17,46.86a3,3,0,0,1-2.82,4Z"/><path class="cls-2" d="M449.87,525.62a3,3,0,0,1-1.29-.29c-21.05-10-52.44-35.3-53.77-36.37a3,3,0,0,1,3.77-4.67c.32.26,32.17,25.9,52.59,35.63a3,3,0,0,1-1.3,5.7Z"/></g></g></svg>