<svg xmlns="http://www.w3.org/2000/svg" xmlns:xlink="http://www.w3.org/1999/xlink" viewBox="0 0 337.59 288.34"><defs><style>.cls-1{fill:none;}.cls-2{clip-path:url(#clip-path);}.cls-3{fill:#32b0ff;}.cls-4{fill:#464948;}.cls-5{fill:#fffc19;}</style><clipPath id="clip-path" transform="translate(93.39 -20.42)"><circle class="cls-1" cx="67.5" cy="67.5" r="67.5"/></clipPath></defs><g id="レイヤー_2" data-name="レイヤー 2"><g id="characters"><g class="cls-2"><path class="cls-3" d="M50.39,97.75s-8.19,8.79-8.9,11c0,0-26.83,13.44-29.15,15.06S8,125.09,3.83,137.18s-15.58,53.48-15.58,53.48-.42,6.57-3.14,9.92-4.76,9.69-5,10.5-7.64,3.06-11.76,5.69-17.64,11.34-17.64,11.34l1,.78s9.15,5.26,10.66,11.46A56.22,56.22,0,0,1-36,248.14l-8.08,4.42s3.32,6,6.49,4.28c0,0,27.84-19.62,30.37-23s25.87-38.2,25.87-38.2-1.07,30.15-1.48,34.09-1.79,17.57-1.79,17.57-2.88,4.18-2.25,4.49a2.5,2.5,0,0,0,1.35.21l-4.19,33s13.49,9.79,38.46,8.3c0,0,7.59.31,10.12-2s7.89-13.76,7.89-13.76,6,13.36,8.1,14.17,25.92,3.24,36.83-1,10.51-4.1,11.24-7.18-4-31.78-4-31.78l1-.78-1.75-3.57s-2.84-33-2.84-38,.85-18.4.85-18.4l10.89,23.86s1.62,5,4,7.39,18.12,20.45,18.12,20.45L158,255s.32,3.51,2.18,2.94,3.2-2.93,3.2-2.93l-6.7-5s-3.74-10.62,4.66-15.48c0,0,4.23-2.52,8,.56a2.35,2.35,0,0,0,0-2.59c-.85-1.51-9.36-13.76-10.27-15.68s-7.88-11.34-8.6-13.06-9.11-27.42-9.11-27.42l-13-40.69a17.65,17.65,0,0,0-11-13.36c-10-4.11-27.47-14.31-27.47-14.31L82.79,97s3.63,3.68,1.81,16.53L76.93,144l-8.32,28.84L55.62,135s-6.34-21.36-6.95-25.21S49.47,99.67,50.39,97.75Z" transform="translate(93.39 -20.42)"/><path class="cls-4" d="M42.8,67l2.83,1.13.68-15.88,5.86-7.7S58.4,38.42,63,38.24s9,4.79,9.18,5,8,7.92,11.53,9.17S89,58.48,89,58.48l-.16,9.68,3-1.5s3.72-12.22,2.71-19S90,30.15,83.89,25.9s-15.44-6.37-22-3.51-8.43,6.54-8.43,6.54a17.55,17.55,0,0,0-10.19,7.63c-3.84,6.24-4.59,12.14-3.81,16.53S42.8,67,42.8,67Z" transform="translate(93.39 -20.42)"/><path class="cls-5" d="M59.7,121.33l4.72,5.25a110.42,110.42,0,0,0-3.3,14.2c-1.08,7.09-.66,8.33-.66,8.33s8.35,25.35,8.45,24.95,6.78-26.82,6.78-26.82-2.39-16.7-3.18-18.72-1.17-1.62-1.17-1.62l3.24-4.28s-3.77-7.87-5.62-8.25a15.06,15.06,0,0,0-4.36,0Z" transform="translate(93.39 -20.42)"/><path d="M81.38,74.41c-2.27,0-5.59.58-7.36-1.12-1.32-1.27-1.39-3.21-1.41-4.91,0-2.74,1.28-4.69,4.13-4.91,2.12-.16,5.66-.45,7.41.82s1.78,3.34,1.49,5.36c-.38,2.53-1.32,4.52-4.26,4.76A.81.81,0,0,0,81.47,76c4.67-.38,6.79-5.39,5.89-9.64-1.06-5-6.72-4.82-10.71-4.52-5.18.38-6.42,5.3-5.39,9.68,1.17,5,6.23,4.48,10.21,4.48C82.52,76,82.42,74.41,81.38,74.41Z" transform="translate(93.39 -20.42)"/><path d="M76.77,70.08c.92-2,3.22-1.63,4.27.09.54.89,1.89,0,1.34-.9-1.67-2.76-5.62-3-7.06.08-.44.94,1,1.68,1.45.73Z" transform="translate(93.39 -20.42)"/><path d="M75,59.4a9,9,0,0,1,8.53,0,1.21,1.21,0,0,0,1.15-2.12,11.34,11.34,0,0,0-10.9,0c-1.33.74-.13,2.83,1.22,2.08Z" transform="translate(93.39 -20.42)"/><path d="M53.35,76c3.95,0,9,.48,10.12-4.46,1-4.4-.24-9.37-5.44-9.7-3.81-.25-9-.54-10.49,3.88-1.41,4.2.89,9.88,5.59,10.27,1,.08,1.38-1.5.34-1.59-2.85-.23-4-2.08-4.36-4.65-.29-2-.51-4.1,1.42-5.51,1.75-1.28,5.43-1,7.51-.79,4.07.42,5.29,5.68,3.38,8.92-1.59,2.71-5.52,2-8.17,2C52.21,74.41,52.31,76,53.35,76Z" transform="translate(93.39 -20.42)"/><path d="M59.45,69.46A3.89,3.89,0,0,0,56.25,67a4.62,4.62,0,0,0-4,2.31c-.54.89.91,1.62,1.45.73a3,3,0,0,1,2.38-1.43A2.5,2.5,0,0,1,57.92,70c.43.93,2,.42,1.53-.52Z" transform="translate(93.39 -20.42)"/><path d="M61,57.3a11.36,11.36,0,0,0-10.91,0c-1.33.72-.13,2.82,1.23,2.08a8.94,8.94,0,0,1,8.52,0A1.21,1.21,0,0,0,61,57.3Z" transform="translate(93.39 -20.42)"/><path d="M45.63,72.7c1.27,12,7.89,27.57,21.78,28.29,1,.05.94-1.56-.09-1.62C54.43,98.7,48.41,83.62,47.25,72.6c-.11-1-1.73-.94-1.62.1Z" transform="translate(93.39 -20.42)"/><path d="M45.19,67.11c-4-2-6.18,1.92-5.65,5.49C40.16,76.78,43.14,83,48.1,83c1,0,.94-1.63-.1-1.61-3.46,0-5.62-4.44-6.46-7.24-.64-2.17-.75-7.43,2.92-5.56a.81.81,0,0,0,.73-1.45Z" transform="translate(93.39 -20.42)"/><path d="M87.45,72.48C86.28,83.64,80.3,98.69,67.28,99.37a.81.81,0,0,0,.09,1.62C81.14,100.27,87.79,84.72,89,72.82c.11-1-1.48-1.37-1.59-.34Z" transform="translate(93.39 -20.42)"/><path d="M87.84,57.36c.88,3.58.46,7.67,0,11.25-.14,1,1.44,1.37,1.58.34.54-3.92,1-8.22,0-12.11-.25-1-1.78-.49-1.53.52Z" transform="translate(93.39 -20.42)"/><path d="M89.3,68.6a4.42,4.42,0,0,1,2.55-.37c2.4.59,1.9,3.6,1.45,5.36-.78,3-3,7.81-6.71,7.77-1,0-.94,1.6.1,1.61,5,.07,8.08-6.61,8.52-10.83.43-4.06-2.49-6.7-6.43-5.07-1,.4-.45,1.93.52,1.53Z" transform="translate(93.39 -20.42)"/><path d="M46.75,68.73c-.19-3.55-.12-7.1,0-10.65q.09-2.11.21-4.23c0-.47.42-2.07,0-1.19,1.11-2.21,3.45-4.4,4.86-6.51,2.2-3.27,5.31-5.09,8.92-6.53A7.25,7.25,0,0,1,65,38.84c3.79.54,5.66,3.7,8,6.36a28.13,28.13,0,0,0,7.54,6.33c2.73,1.51,6.21,2.57,7.36,5.83a.81.81,0,0,0,1.53-.52,9.64,9.64,0,0,0-4.21-4.77c-2.59-1.59-5.23-2.53-7.61-4.51A35.69,35.69,0,0,1,73,42.75c-3-3.64-6.62-6.8-11.58-5.11a24.51,24.51,0,0,0-8.69,4.79A17.5,17.5,0,0,0,50,46.07c-1.18,1.8-3,3.44-4,5.29-.7,1.26-.6,2.54-.68,4a127.67,127.67,0,0,0-.14,13.41.81.81,0,0,0,1.61-.09Z" transform="translate(93.39 -20.42)"/><path d="M43.9,67.12c-3-7.75-5-17.71-2.34-25.76a17.76,17.76,0,0,1,8.09-9.76c1.27-.74,3-1.1,4.09-2s1.89-2.45,3.15-3.44a21,21,0,0,1,12.52-4c10.88-.27,18.51,7.1,22.15,16.85C95,48,93.91,58.21,90.76,67.21c-.34,1,1.24,1.31,1.58.34,3.08-8.79,4.18-18.89,1.2-27.83C90.65,31,84.29,22.56,74.79,20.84c-7.4-1.34-16.94.41-21.69,6.8-.3.41-1.34,1.43-.38.81-.69.44-1.71.63-2.46,1A20.19,20.19,0,0,0,42,36.6c-5.67,8.8-3.21,21.83.34,31,.37,1,1.91.46,1.53-.52Z" transform="translate(93.39 -20.42)"/><path d="M50.65,89.91v12.21c0,1,1.62.94,1.62-.1V89.82c0-1-1.62-.95-1.62.09Z" transform="translate(93.39 -20.42)"/><path d="M81.17,91.05v11.07c0,1,1.62.94,1.62-.1V91c0-1-1.62-.95-1.62.09Z" transform="translate(93.39 -20.42)"/><path d="M50.65,101c.84,8.36,9.09,13.13,16.54,14.51a.81.81,0,0,0,.34-1.59c-3.38-.69-5.24,2.35-6.85,4.76-.91,1.38-4.89,7.35-4.64,7.42-1.56-.43-3.57-5.33-4.21-6.62-.47-.93-1.81,0-1.35.9a34.2,34.2,0,0,0,4.83,7.35.83.83,0,0,0,1.15-.06c2.09-2.83,6.91-12.95,10.73-12.16.12-.53.23-1.06.34-1.59-6.67-1.23-14.49-5.4-15.26-13-.1-1-1.72-.94-1.62.1Z" transform="translate(93.39 -20.42)"/><path d="M81.19,100.82C79.34,107.36,73.33,112,67.1,114a.82.82,0,0,0,.09,1.56c5.22.9,6.55,8.54,8.74,12.61a.8.8,0,0,0,1.12.22,27.36,27.36,0,0,0,6.48-7c.53-.9-.91-1.63-1.44-.74A24.78,24.78,0,0,1,76.15,127l1.12.23c-2.4-4.48-3.72-12.25-9.74-13.3l.09,1.56c6.81-2.13,13.15-7.26,15.15-14.36.28-1-1.3-1.34-1.58-.34Z" transform="translate(93.39 -20.42)"/><path d="M59.15,121.92l4.63,5.7a.83.83,0,0,0,1.13.22c1.85-1.44,4.15-1.07,6.06,0a.82.82,0,0,0,1.09-.36l2.61-5.08a.81.81,0,0,0-1.45-.74c-.86,1.7-1.73,3.39-2.6,5.09l1.09-.35c-2.4-1.41-5.38-1.76-7.7,0l1.12.23L60.5,121c-.65-.8-2,.09-1.35.9Z" transform="translate(93.39 -20.42)"/><path d="M63.85,126.63c-2.18,2.5-2.52,7.58-3,10.68a83.76,83.76,0,0,0-.69,13.25c0,1,1.64.94,1.62-.1A85.35,85.35,0,0,1,62.29,139c.35-3,.65-8.91,2.77-11.33.69-.79-.52-1.87-1.21-1.08Z" transform="translate(93.39 -20.42)"/><path d="M70.66,127.62c1,1.19,1.21,3.39,1.55,4.86A82.68,82.68,0,0,1,73.72,141a55.21,55.21,0,0,1,.49,9.53c0,1,1.57.94,1.61-.1a59.93,59.93,0,0,0-.88-12.33c-.53-3.25-.73-8.81-2.93-11.41-.66-.79-2,.1-1.35.9Z" transform="translate(93.39 -20.42)"/><path d="M15.27,171.88c4.1,24.74,2.46,51.12-.77,75.89-.13,1,1.45,1.37,1.59.34a345.71,345.71,0,0,0,2.7-34.77c.39-13.82.37-27.88-1.9-41.55-.17-1-1.79-.94-1.62.09Z" transform="translate(93.39 -20.42)"/><path d="M14,251.39q-1.5,11.16-3.1,22.31c-.38,2.62-.75,5.25-1.13,7.87a9.22,9.22,0,0,0-.4,2.85c.69,2.85,6.18,5,8.53,5.91a55.63,55.63,0,0,0,14.38,3.05c7.94.79,17.07,1.36,24.93-.47,2.34-.55,3-2,4.23-4.08,2.37-4.06,5.09-8.53,6.62-13,.86-2.52.89-5.4,1.13-8,.48-5.23.82-10.48,1.15-15.72.79-12.49,1.5-25,2-37.51.45-11.85,1.15-24.59-1.68-36.22-1.9-7.83-4.69-15.5-7.2-23.14-3.63-11.06-7.35-22.09-10.83-33.21-2.6-8.3-6.52-17.53-.56-25.49.62-.83-.59-1.91-1.21-1.08-4.1,5.49-4.14,11.95-2.42,18.23,2.27,8.22,5,16.32,7.68,24.42,3.13,9.53,6.32,19,9.36,28.6,2.2,6.89,4.26,13.54,4.93,20.78,1.22,13.15.4,26.45-.26,39.61-.6,12-1.22,24-2.14,36a86.1,86.1,0,0,1-1.11,10.87c-.75,3.59-3,7.09-4.74,10.31-1.39,2.63-2.57,6.59-5.73,7.2a64.7,64.7,0,0,1-10.32.82c-10.25.27-23.15.17-32.09-5.61a17.56,17.56,0,0,1-3-2.13c-.14-.33.21-1.13.21-1.48a60.39,60.39,0,0,1,1.07-7.41q1.7-11.92,3.32-23.88c.14-1-1.45-1.37-1.58-.34Z" transform="translate(93.39 -20.42)"/><path d="M116.5,171.66c-2.21,13.37-2.29,27.1-2,40.61A339.05,339.05,0,0,0,117.27,248c.14,1,1.75.94,1.62-.09a336.24,336.24,0,0,1-2.69-34.58c-.39-13.75-.37-27.73,1.89-41.34.17-1-1.42-1.37-1.59-.34Z" transform="translate(93.39 -20.42)"/><path d="M117.75,251.62q1.26,9.47,2.61,18.91c.39,2.76.79,5.52,1.18,8.28.2,1.37.79,3.16.66,4.54s-.28,1.38-1.81,2.56a20.77,20.77,0,0,1-4.85,2.65,50.59,50.59,0,0,1-13.36,3.08,98.85,98.85,0,0,1-23.57,0c-2.69-.35-3.44-.53-4.92-2.92a95.91,95.91,0,0,1-6.23-12c-.41-.94-1.95-.43-1.54.53,1.46,3.34,3.16,6.61,4.93,9.81,1,1.74,2,4.49,3.86,5.49,1.34.73,3.4.71,4.87.86,3.08.32,6.17.46,9.27.5,7.69.1,15.58-.37,23-2.41,3.43-.93,11.89-3.44,12-7.85.09-3.87-1.18-8.21-1.72-12q-1.43-10-2.79-20.07c-.13-1-1.75-.94-1.61.09Z" transform="translate(93.39 -20.42)"/><path d="M81.3,96.42c6.88,9.34.74,23.29-1.83,33.17-3.85,14.77-7.92,29.48-11.65,44.28-.25,1,1.33,1.35,1.59.34,4-15.74,8.31-31.38,12.37-47.1,2.56-9.89,7.73-22.27.87-31.59-.61-.84-2,0-1.35.9Z" transform="translate(93.39 -20.42)"/><path d="M49.71,97.28c-2.38,3.31-4.88,6.51-7.28,9.8-2.27,3.1-2.06,7.24-2.33,11-.38,5.38-1.55,10.77-1.63,16.15-.06,4.22,5.62,4.84,8.72,6.5.92.49,1.65-1,.73-1.45-2-1-6-1.83-7.39-3.48-1-1.12-.32-3.4-.18-4.79.48-4.59,1.11-9.16,1.42-13.77s.5-7.22,3.19-10.74c2-2.66,4-5.37,6-8.09.6-.84-.6-1.93-1.21-1.08Z" transform="translate(93.39 -20.42)"/><path d="M82.76,98.27c1.82,2.91,3.64,5.88,5.7,8.64,2.49,3.35,3.23,6.5,3.54,10.79.34,4.68,1,9.33,1.48,14,.15,1.52.57,3-.32,4.1-1.33,1.64-5.48,2.46-7.42,3.49-.92.49,0,1.84.9,1.35,2.71-1.45,8.49-2.29,8.68-6,.26-5.15-1.19-10.6-1.61-15.73-.33-4-.45-8-2.81-11.48s-4.64-6.61-6.79-10c-.55-.88-1.9,0-1.35.9Z" transform="translate(93.39 -20.42)"/><path d="M43,137.61c-1.14,2.35-2.27,4.7-3.49,7-1,1.95-1,2.06,0,4a106.5,106.5,0,0,0,10.41,17c4.08,5.5,8.22,11,12.26,16.51,3,4.07,6.94,8.47,8.8,13.23.38,1,1.91.45,1.53-.52-1.55-4-4.65-7.61-7.12-11-4-5.59-8.15-11.08-12.27-16.59a119,119,0,0,1-10.18-15.41c-.69-1.32-2.31-3.37-2.43-4.85-.08-.86,0-.72.65-2,1.14-2.2,2.22-4.43,3.31-6.66a.81.81,0,0,0-1.45-.73Z" transform="translate(93.39 -20.42)"/><path d="M89.62,138.24c.78,1.68,2.4,3.75,2.74,5.52.38,2-1.08,5.18-1.78,7.09a63.79,63.79,0,0,1-7,12.86c-4.31,6.53-8.8,12.94-13.35,19.31-.6.84.6,1.92,1.21,1.07,4.8-6.7,9.54-13.46,14.06-20.36a59.55,59.55,0,0,0,7.06-13.54c.57-1.68,1.78-4.27,1.62-6.09-.16-2-2.11-4.51-3-6.38-.43-.94-2-.43-1.54.52Z" transform="translate(93.39 -20.42)"/><path d="M41.94,107.7q-10.32,5.46-20.69,10.84c-3.45,1.79-7.32,3.28-10.58,5.39-3.83,2.48-5.69,7.82-7.2,11.86-5.65,15.1-9.52,31-13.88,46.51-1.17,4.17-2.35,8.34-3.46,12.53a31.58,31.58,0,0,1-2.07,6.2c-1.51,3-3.89,5.74-4.6,9.09a.81.81,0,0,0,1.59.34c.66-3.17,3-5.84,4.45-8.69a27.33,27.33,0,0,0,1.92-5.47c.84-3.19,1.72-6.37,2.61-9.56,2.49-8.94,5-17.87,7.59-26.81C-.76,154.27.94,148.65,2.71,143,4.4,137.67,6.1,130.93,10,126.67c2.41-2.63,6.77-4,9.9-5.62,7.67-4,15.31-8,22.94-12,.92-.48,0-1.83-.9-1.35Z" transform="translate(93.39 -20.42)"/><path d="M90.19,109.1q12,6.33,24,12.55c4.65,2.38,8.58,3.82,11.16,8.68,3.09,5.83,4.68,12.34,6.71,18.57,5.13,15.71,9.27,31.74,14.46,47.42,2.43,7.33,8,13.42,11.54,20.23a105.3,105.3,0,0,0,6,9.66c1.83,2.74,4.27,5.66,5.32,8.83a.81.81,0,0,0,1.53-.52c-1.85-5.61-6.57-10.55-9.6-15.56-1.8-3-3.22-6.13-5.07-9.08-2.46-3.91-5.47-7.63-7.34-11.88-3.63-8.26-5.51-17.69-8.13-26.3-2.29-7.55-4.47-15.15-6.92-22.64-1.94-6-3.53-12.08-6.19-17.77-2.08-4.43-4.32-6.86-8.6-9-9.44-4.74-18.77-9.7-28.1-14.63a.81.81,0,0,0-.74,1.44Z" transform="translate(93.39 -20.42)"/><path d="M17.32,194.74C10.05,206.81,3,219.6-5.86,230.59-10.78,236.7-18,241.37-24.24,246c-3.55,2.62-7.14,5.2-10.81,7.65a15.34,15.34,0,0,1-3.33,2.11c-2.18.67-3.61-1.3-4.58-3-.51-.9-1.86,0-1.34.9,1.09,1.93,3,4.5,5.58,4,1.52-.29,3.06-1.66,4.31-2.49,6.75-4.48,13.29-9.33,19.65-14.36,4.57-3.62,8.81-7.21,12.23-12,4.39-6.1,8.39-12.5,12.38-18.86q4.51-7.22,8.91-14.49c.54-.9-.91-1.63-1.44-.74Z" transform="translate(93.39 -20.42)"/><path d="M-18,209.52c-6.47,1.58-12.11,6.58-17.8,9.91Q-43.31,223.84-51,228c-.72.39-.27,1.54.5,1.48,3.51-.29,6.84,3.42,8.62,5.92a25.4,25.4,0,0,1,4.76,11.9c.12,1.14-.2,10.92-2.62,8.82a.81.81,0,0,0-1.08,1.21c2.05,1.78,3.72.28,4.58-1.86,1.74-4.38.94-10.11-.71-14.37-1.92-5-7.05-13.77-13.65-13.24.17.5.33,1,.5,1.48q7.25-4,14.4-8.14c5.75-3.35,11.71-8.6,18.2-10.18,1-.25.49-1.78-.52-1.54Z" transform="translate(93.39 -20.42)"/><path d="M-49.25,228.11l-7,3.17a.82.82,0,0,0,.31,1.58c9.88.3,11.14,14,7.83,21a.82.82,0,0,0,1.17,1L-35.76,248c.89-.55,0-1.9-.9-1.35l-11.16,6.88,1.17,1c3.85-8.13,1.87-23-9.37-23.34l.3,1.58,7-3.18c.94-.43.43-2-.52-1.53Z" transform="translate(93.39 -20.42)"/><path d="M-55.13,231.65c-6.64.46-13.63.55-19.92,2.87-3.51,1.3-6.41,2.33-9.18,4.81-3.07,2.74-5.94,5.69-9,8.49a.78.78,0,0,0-.16.8c3,6.37,10.7-1.26,14-2.84a13.46,13.46,0,0,1,9-.37,14.69,14.69,0,0,0,12.2-1.2c.92-.49,0-1.84-.9-1.35a12.69,12.69,0,0,1-9.4,1.43c-1.26-.3-2.47-1-3.74-1.26a18.06,18.06,0,0,0-7.12.92c-2.59,1-4.54,3.44-7.17,4.55-1.66.7-3.15,1.36-4.78.22-1-.69-.28-.18-.22-.31.44-1,2.45-2.36,3.22-3.11,2.26-2.17,4.56-4.91,7.23-6.59a35.38,35.38,0,0,1,9.82-3.78c5.17-1.26,10.84-1.3,16.14-1.66a.81.81,0,0,0-.09-1.62Z" transform="translate(93.39 -20.42)"/><path d="M-73.29,243.7c-4.59,3.57-8.27,8.07-12.53,12-1.57,1.45-8.51,6.2-5.18,8.77s8.1-1.89,10.43-3.78c3-2.46,6-5,8.89-7.69.77-.71-.45-1.78-1.21-1.08q-2.94,2.69-6,5.26c-2,1.68-5,5.13-7.65,5.77-3,.08-4-.38-3-1.38.24-.29.5-.57.77-.84a21.08,21.08,0,0,1,2.24-2.19c1.14-1.07,2.32-2.11,3.44-3.2,3.57-3.45,6.75-7.24,10.69-10.3.82-.64-.07-2-.9-1.35Z" transform="translate(93.39 -20.42)"/><path d="M-85.74,262.6c-1.77,1.44-6.64,4.81-3,6.89,3.33,1.89,7.43-1.47,9.81-3.6.78-.69-.44-1.76-1.21-1.07-1.57,1.41-3.66,3.09-5.77,3.48A2.53,2.53,0,0,1-88,268c-.56-.53-.33-.5,0-1.09.61-1.12,2.25-2.2,3.17-2.95s-.08-2-.89-1.35Z" transform="translate(93.39 -20.42)"/><path d="M-74.75,266c-1.13.34-3.75,2.7-4.6.86-.61-1.33,3.64-4.09,4.63-4.82,2.76-2,5.3-4.3,8.12-6.23a.81.81,0,0,0-.9-1.35c-2.35,1.6-4.48,3.46-6.72,5.2-1.93,1.51-4.28,2.84-5.76,4.85-1,1.33-1.68,3.66.07,4.73s4-1.19,5.68-1.71a.81.81,0,0,0-.52-1.53Z" transform="translate(93.39 -20.42)"/><path d="M-62.33,256.72c-3.06,1.86-6,3.91-9,5.77-1.63,1-4.2,2.82-3.9,5,.58,4.4,6.66.35,8.59-.64,3.84-2,8.05-3.55,11.17-6.59,3.3-3.22,5.81-7.77,9.77-9.7.92-.45.42-2-.52-1.53-5.59,2.72-7.92,9.21-13.32,12.38-3.27,1.92-6.82,3.58-10.24,5.23a20.5,20.5,0,0,1-1.91.88q-3.61,1.49.33-3.16c1-.94,2.62-1.38,3.8-2.12,2.11-1.32,4-2.92,6.17-4.22.89-.54,0-1.88-.9-1.34Z" transform="translate(93.39 -20.42)"/><path d="M-49.54,252a2.79,2.79,0,0,0,2,3,.82.82,0,0,0,1-.63.83.83,0,0,0-.63-1,.91.91,0,0,1-.67-.72.74.74,0,0,1,0-.14c0-.12,0,.14,0,0l0-.24c0-.11,0-.47,0,0a.83.83,0,0,0-.62-1,.82.82,0,0,0-1,.62Z" transform="translate(93.39 -20.42)"/><ellipse cx="51.89" cy="225.49" rx="1.67" ry="2.33"/><path d="M114.76,190.1q4,8.15,7.79,16.38c2.84,6.24,4.45,13.65,9.69,18.31a107,107,0,0,1,19.16,22.38c1.33,2.12,2.77,4.08,4.28,6.08,1,1.37,2.38,4.75,4,5.65,2.13,1.16,3.43-2,4.27-3.51.52-.91-.93-1.64-1.44-.73-.26.45-1,2.21-1.49,2.34-1.19.34-1.81-1.56-2.3-2.29-1.36-2-3-3.87-4.34-5.89-2.26-3.32-4.26-6.68-6.82-9.79s-5.3-6.2-8-9.22-6.17-5.55-8.69-8.71c-2-2.51-2.76-5.95-4-8.9-1.36-3.23-2.83-6.42-4.31-9.59q-3.06-6.56-6.24-13c-.45-.92-2-.41-1.53.52Z" transform="translate(93.39 -20.42)"/><path d="M170.48,234.06c-5.29-3.58-11.13-.77-13.85,4.48a14.82,14.82,0,0,0-1.17,10c.63,3.12,1.24,6.87,3.37,9.37.67.78,2-.1,1.35-.9-2.92-3.42-4.16-10.52-3.21-14.69,1.31-5.8,7.1-10.65,12.78-6.81.86.59,1.58-.86.73-1.44Z" transform="translate(93.39 -20.42)"/><path d="M156,250.57a15.73,15.73,0,0,0,8,6c.69.23,1.22-.7.84-1.24-2.6-3.77-3.92-9.81-1.64-14,1.45-2.69,5-3.87,7.9-4.16a.82.82,0,0,0,.49-1.41L168,232.94c-.82-.63-1.91.58-1.08,1.21l3.62,2.79.49-1.41c-3.46.34-7.53,1.79-9.25,5-2.5,4.73-1.19,11.41,1.74,15.64.28-.41.57-.82.85-1.24a14,14,0,0,1-7-5.3.81.81,0,0,0-1.34.9Z" transform="translate(93.39 -20.42)"/><path d="M170.89,237.13c4.13.42,8.2,1.06,12.28,1.82,2.55.47,5.94.49,8.24,1.76,2.05,1.13,3.39,3.85,4.52,5.83s1.19,4.3,2,6.53c.67,1.81,2.13,2.9,3.56,4.15,1,.87,2.44,1.69.74,2.89-2.46,1.72-5.87-1.14-7.45-2.94s-1.79-4-3.13-5.73-5.19-1.77-7.33-1.82c-2,0-2.33.68-3.82,2C171.84,259.4,162,266.31,151,270.45a.82.82,0,0,0-.28,1.37l15.38,13.52,10.18,9c1.26,1.11,3,3.4,4.6,4,2.53,1,7.49-1.2,9.79-2a48.53,48.53,0,0,0,14.27-7.9c8-6.45,15.34-13.83,22.61-21.1Q235.89,259,244,250.5a.82.82,0,0,0-.24-1.26c-13.06-7.48-26.55-15.94-37.07-26.8a.82.82,0,0,0-1.14.06c-4.2,5.94-8.3,12.31-13.36,17.55-.73.75.49,1.82,1.21,1.07,4-4.13,7.26-9.07,10.61-13.71.67-.91,1.31-1.84,2-2.75,1.12-1.53.21-.39.28-.34,3,2.28,5.61,5.2,8.59,7.55A229,229,0,0,0,243,250.68l-.24-1.25c-11.2,11.81-22.6,23.62-34.84,34.37a58.14,58.14,0,0,1-9.45,7.16,51.18,51.18,0,0,1-11.31,4.79c-1.6.46-3.89,1.4-5.59,1.16.53.07.2.15-.45-.53-.94-1-2.08-1.83-3.1-2.72l-9.33-8.2-16.88-14.85c-.09.46-.19.92-.28,1.37,9.84-3.72,18.73-9.65,26.79-16.35,1.46-1.23,3.48-3.88,5.23-4.63-.49.22.19.15.75.24.89.14,1.79.2,2.68.32,2.12.28,3,.06,3.8,2.06,1.21,2.89,3.11,5.82,5.89,7.45,2,1.16,8,1.77,8.64-1.5.23-1.1-.4-1.44-1.09-2.15-1.86-1.93-4.17-3-5-5.73-.5-1.65-.46-3.34-1.23-4.91a33.48,33.48,0,0,0-3.47-5.37c-2.59-3.37-7.13-3.32-11-4-4.08-.76-8.15-1.39-12.28-1.82-1-.1-1.38,1.48-.34,1.59Z" transform="translate(93.39 -20.42)"/><path d="M163.41,256a17.74,17.74,0,0,0,2.85,5.12c.67.79,2-.1,1.35-.89a16.65,16.65,0,0,1-2.67-4.76c-.37-1-1.9-.45-1.53.53Z" transform="translate(93.39 -20.42)"/><path d="M176.45,255.09c-8.31,4.54-18.41,10.2-28,10.66a.82.82,0,0,0-.49,1.42l4.69,3.93c.8.67,1.88-.54,1.08-1.21L149,266l-.49,1.41c10-.48,20.24-6.23,28.85-10.93.91-.5,0-1.85-.9-1.35Z" transform="translate(93.39 -20.42)"/><path d="M239.94,253.31l2,2.9c.08-.37.15-.74.23-1.12-4.72,3.23-9.37,6.58-13.89,10.08a77.6,77.6,0,0,0-12.94,12.67,155.59,155.59,0,0,1-17.22,17.51c-1.42,1.25-2.85,2.5-4.38,3.62a16.29,16.29,0,0,0-1.9,1.3c-2.11-.13-5.32-2.69-7.26-3.68a.81.81,0,0,0-.74,1.45c2,1,5.25,3.54,7.51,3.8,1.74.2,3.53-1.68,4.84-2.74a154.73,154.73,0,0,0,18.18-17.66c1.84-2.06,3.38-4.31,5.12-6.44,2.52-3,5.88-5.52,9-7.93,4.74-3.7,9.63-7.24,14.6-10.63a.82.82,0,0,0,.22-1.12l-2-2.91a.81.81,0,0,0-1.35.9Z" transform="translate(93.39 -20.42)"/><path d="M64.23,79.68a6.8,6.8,0,0,0,2,.73,6.5,6.5,0,0,0,4.57-.86c.67-.39.83-1,.63-1.28s-1-.2-1.44-.07a8.42,8.42,0,0,1-4.31.27,8.08,8.08,0,0,0-1.59-.41c-.87,0-.82,1,.09,1.62Z" transform="translate(93.39 -20.42)"/><path d="M58.89,85.3a18.67,18.67,0,0,0,7,3.15c3.47.57,6.69-1.91,9.62-3.38.92-.47,0-1.82-.9-1.35-3.33,1.67-6.34,4-10.17,2.64a22,22,0,0,1-4.84-2.5c-.87-.58-1.59.87-.74,1.44Z" transform="translate(93.39 -20.42)"/><path d="M68.74,202.19A2.73,2.73,0,1,1,66,199.46,2.73,2.73,0,0,1,68.74,202.19Z" transform="translate(93.39 -20.42)"/><path d="M67.8,228a2.73,2.73,0,1,1-2.73-2.73A2.73,2.73,0,0,1,67.8,228Z" transform="translate(93.39 -20.42)"/><path d="M66,258a2.73,2.73,0,1,1-2.73-2.73A2.73,2.73,0,0,1,66,258Z" transform="translate(93.39 -20.42)"/><path d="M17.79,289.77q1.32,9.14,2.65,18.26c.15,1,1.76.94,1.61-.09q-1.32-9.13-2.65-18.27c-.14-1-1.76-.94-1.61.1Z" transform="translate(93.39 -20.42)"/><path d="M110.11,291Q109.56,299.5,109,308c-.07,1,1.55.94,1.61-.09q.57-8.55,1.13-17.08c.06-1-1.55-.94-1.62.09Z" transform="translate(93.39 -20.42)"/><path d="M120.36,250.94q-4.31-.41-8.6-.94c-1.38-.18-3.24-.13-4.51-.71s-2.16-2.47-2.85-3.82l-.63,1.25c3.06.16,6.17.85,9.2,1.3a39.38,39.38,0,0,1,4.2.63c.35.09.88.27.42,0,1,.67,1.47,2.38,1.83,3.38a.81.81,0,0,0,1.53-.52c-1.42-4-2.37-4.25-6.15-4.81s-7.41-1.36-11.12-1.55c-.69,0-.87.78-.63,1.25,1.76,3.47,2.78,4.43,6.49,5,3.48.51,7,.86,10.48,1.2C121,252.62,121.39,251,120.36,250.94Z" transform="translate(93.39 -20.42)"/><path d="M13.09,252.54c3.6-.34,7.2-.7,10.77-1.24s4.66-1.64,6.37-5a.81.81,0,0,0-.77-1.17c-3.73.19-7.5,1-11.19,1.57s-4.56.82-5.95,4.69c-.34,1,1.1,1.71,1.45.73a8,8,0,0,1,1.68-3.3c.16-.15-.41.12.33-.11a30.54,30.54,0,0,1,4.68-.7c3-.45,6.07-1.11,9.1-1.27l-.77-1.17c-.62,1.22-1.34,3.06-2.59,3.69s-3.52.61-4.93.78c-2.75.35-5.51.64-8.27.91C12,251,12.05,252.64,13.09,252.54Z" transform="translate(93.39 -20.42)"/><path d="M173.17,215.29a42,42,0,0,1,9.74,10c.59.85,1.94,0,1.34-.9a43.34,43.34,0,0,0-10-10.26c-.83-.61-1.92.59-1.07,1.21Z" transform="translate(93.39 -20.42)"/><path d="M-41.82,215.68a38.63,38.63,0,0,1,9.55-6.78c.93-.47,0-1.81-.9-1.35a40.24,40.24,0,0,0-9.86,7c-.75.73.46,1.8,1.21,1.08Z" transform="translate(93.39 -20.42)"/><path d="M63.25,67.8a12.39,12.39,0,0,1,8.43,0c1,.32,1.32-1.27.33-1.59a13.75,13.75,0,0,0-9.28,0c-1,.4-.45,1.93.52,1.53Z" transform="translate(93.39 -20.42)"/></g></g></g></svg>